<svg width="17" height="16" viewBox="0 0 17 16" fill="none" xmlns="http://www.w3.org/2000/svg">
<path d="M15.1673 15.1665H1.83398C1.56065 15.1665 1.33398 14.9398 1.33398 14.6665C1.33398 14.3932 1.56065 14.1665 1.83398 14.1665H15.1673C15.4406 14.1665 15.6673 14.3932 15.6673 14.6665C15.6673 14.9398 15.4406 15.1665 15.1673 15.1665Z" fill="#8A8A8A"/>
<path d="M14.4276 15.1665C14.1542 15.1665 13.9276 14.9398 13.9276 14.6665V8.6665C13.9276 7.83984 13.1542 7.1665 12.2076 7.1665H4.79422C3.84755 7.1665 3.07422 7.83984 3.07422 8.6665V14.6665C3.07422 14.9398 2.84755 15.1665 2.57422 15.1665C2.30089 15.1665 2.07422 14.9398 2.07422 14.6665V8.6665C2.07422 7.2865 3.29422 6.1665 4.79422 6.1665H12.2009C13.7009 6.1665 14.9209 7.2865 14.9209 8.6665V14.6665C14.9276 14.9398 14.7009 15.1665 14.4276 15.1665Z" fill="#8A8A8A"/>
<path d="M12.7937 7.16683C12.5204 7.16683 12.2937 6.94016 12.2937 6.66683V4.78016C12.2937 4.26016 11.7937 3.8335 11.187 3.8335H5.82036C5.20703 3.8335 4.7137 4.26016 4.7137 4.78016V6.66683C4.7137 6.94016 4.48703 7.16683 4.2137 7.16683C3.94036 7.16683 3.70703 6.94016 3.70703 6.66683V4.78016C3.70703 3.70683 4.6537 2.8335 5.8137 2.8335H11.1804C12.3404 2.8335 13.287 3.70683 13.287 4.78016V6.66683C13.2937 6.94016 13.067 7.16683 12.7937 7.16683Z" fill="#8A8A8A"/>
<path d="M12.0538 11.8335C11.2805 11.8335 10.6538 11.2068 10.6538 10.4335V10.2268C10.6538 10.0068 10.4738 9.82681 10.2538 9.82681C10.0338 9.82681 9.85379 10.0068 9.85379 10.2268V10.4335C9.85379 11.2068 9.22712 11.8335 8.45379 11.8335C7.68046 11.8335 7.05379 11.2068 7.05379 10.4335V10.2268C7.05379 10.0068 6.87379 9.82681 6.65379 9.82681C6.43379 9.82681 6.25379 10.0068 6.25379 10.2268V10.4335C6.25379 11.2068 5.62712 11.8335 4.85379 11.8335C4.08046 11.8335 3.45379 11.2068 3.45379 10.4335V10.2135C3.45379 10.0001 3.28046 9.82014 3.06046 9.81348H2.81379C2.54046 9.80681 2.31379 9.58014 2.32046 9.30681C2.32712 9.03348 2.54712 8.81348 2.82046 8.81348H2.82712H3.07379C3.83379 8.82681 4.45379 9.45348 4.45379 10.2135V10.4335C4.45379 10.6535 4.63379 10.8335 4.85379 10.8335C5.07379 10.8335 5.25379 10.6535 5.25379 10.4335V10.2268C5.25379 9.45348 5.88046 8.82681 6.65379 8.82681C7.42712 8.82681 8.05379 9.45348 8.05379 10.2268V10.4335C8.05379 10.6535 8.23379 10.8335 8.45379 10.8335C8.67379 10.8335 8.85379 10.6535 8.85379 10.4335V10.2268C8.85379 9.45348 9.48046 8.82681 10.2538 8.82681C11.0271 8.82681 11.6538 9.45348 11.6538 10.2268V10.4335C11.6538 10.6535 11.8338 10.8335 12.0538 10.8335C12.2738 10.8335 12.4538 10.6535 12.4538 10.4335V10.2268C12.4538 9.45348 13.0805 8.82681 13.8538 8.82681H14.1538C14.4271 8.82681 14.6538 9.05348 14.6538 9.32681C14.6538 9.60014 14.4271 9.82681 14.1538 9.82681H13.8538C13.6338 9.82681 13.4538 10.0068 13.4538 10.2268V10.4335C13.4538 11.2068 12.8271 11.8335 12.0538 11.8335Z" fill="#8A8A8A"/>
<path d="M5.83398 3.83333C5.56065 3.83333 5.33398 3.60667 5.33398 3.33333V2C5.33398 1.72667 5.56065 1.5 5.83398 1.5C6.10732 1.5 6.33398 1.72667 6.33398 2V3.33333C6.33398 3.60667 6.10732 3.83333 5.83398 3.83333Z" fill="#8A8A8A"/>
<path d="M11.166 3.83333C10.8927 3.83333 10.666 3.60667 10.666 3.33333V2C10.666 1.72667 10.8927 1.5 11.166 1.5C11.4393 1.5 11.666 1.72667 11.666 2V3.33333C11.666 3.60667 11.4393 3.83333 11.166 3.83333Z" fill="#8A8A8A"/>
<path d="M8.5 3.8335C8.22667 3.8335 8 3.60683 8 3.3335V1.3335C8 1.06016 8.22667 0.833496 8.5 0.833496C8.77333 0.833496 9 1.06016 9 1.3335V3.3335C9 3.60683 8.77333 3.8335 8.5 3.8335Z" fill="#8A8A8A"/>
</svg>
