<svg width="124" height="136" viewBox="0 0 124 136" fill="none" xmlns="http://www.w3.org/2000/svg">
<path d="M10.2798 101.004L23.2105 100.936L36.1412 100.915L62.0002 100.868L87.8591 100.912L100.79 100.936L113.721 101.004L100.79 101.07L87.8591 101.094L62.0002 101.14L36.1412 101.094L23.2105 101.07L10.2798 101.004Z" fill="#263238"/>
<path d="M68.0835 120.744C85.2057 120.744 99.086 119.455 99.086 117.866C99.086 116.276 85.2057 114.988 68.0835 114.988C50.9613 114.988 37.0811 116.276 37.0811 117.866C37.0811 119.455 50.9613 120.744 68.0835 120.744Z" fill="#EBEBEB"/>
<path d="M111.692 101.083C113.343 101.831 114.04 99.4514 113.991 97.7187C113.941 95.9861 113.423 94.6968 112.932 94.5989C112.074 94.4302 109.544 100.096 111.692 101.083Z" fill="#FFC727"/>
<path d="M98.7661 91.8762C98.0955 92.7739 97.3617 93.6125 96.5713 94.384C94.6418 96.3234 92.1594 98.309 91.4302 97.4494C90.3316 96.1629 94.5798 89.2106 95.4329 88.449C95.7522 88.1371 96.1577 87.9518 96.5844 87.9227C97.0111 87.8936 97.4344 88.0224 97.7865 88.2885C98.8727 89.0501 99.5076 90.799 98.7661 91.8762Z" fill="#FFC727"/>
<path opacity="0.1" d="M95.1924 95.2C95.675 94.9777 96.1368 94.7044 96.5713 94.384C94.6418 96.3234 92.1594 98.309 91.4302 97.4494C90.3316 96.1629 94.5798 89.2106 95.4329 88.449C95.7522 88.1371 96.1577 87.9518 96.5844 87.9227C97.0111 87.8936 97.4344 88.0224 97.7865 88.2885C96.0048 89.4662 94.5942 91.2136 93.7441 93.296C93.5134 93.8998 92.9157 95.3278 94.2401 95.472C94.5302 95.521 94.9345 95.3061 95.1924 95.2Z" fill="#030402"/>
<path d="M101.221 102.068C100.341 102.767 90.8051 106.257 88.7963 105.299C86.7875 104.342 86.0981 98.4395 86.7801 98.4395C87.4621 98.4395 88.5731 99.8294 88.7417 99.8539C88.8385 99.8702 90.4232 98.8611 91.9533 97.9853C93.0297 97.3706 94.0787 96.8184 94.5673 96.7341C98.689 96.0133 101.082 99.5139 101.367 101.233C101.432 101.633 101.387 101.935 101.221 102.068Z" fill="#FFC727"/>
<path opacity="0.1" d="M101.221 102.068C100.341 102.767 90.8051 106.257 88.7963 105.299C86.7875 104.342 86.0981 98.4395 86.7801 98.4395C87.4621 98.4395 88.5731 99.8294 88.7417 99.8539C88.8385 99.8702 90.4232 98.8611 91.9533 97.9853C91.1689 98.617 90.5064 99.413 90.0041 100.327C88.8038 102.748 91.9757 103.882 93.5579 103.909C95.0757 103.942 96.5339 103.428 97.95 102.865C99.1181 102.397 100.259 101.852 101.367 101.233C101.432 101.633 101.387 101.935 101.221 102.068Z" fill="#030402"/>
<path d="M112.108 101.062C112.064 101.158 112.011 101.249 111.949 101.334C111.044 102.642 107.485 104.87 104.408 105.373C101.092 105.917 95.0383 104.946 93.9471 102.356C92.8559 99.7669 96.0675 87.6683 96.3106 87.0291L108.336 86.0254L108.425 86.2702C109.078 88.0464 113.016 98.9128 112.108 101.062Z" fill="#FFC727"/>
<path opacity="0.1" d="M111.949 101.342C111.044 102.65 107.485 104.878 104.408 105.381C101.092 105.925 95.0383 104.954 93.9471 102.364C92.8559 99.775 96.0675 87.6765 96.3106 87.0373L108.336 86.0336L108.425 86.2784C105.266 87.652 102.114 89.4146 99.6858 92.0638C97.2579 94.7131 95.579 99.4078 98.3516 102.5C100.755 105.188 104.884 104.709 107.82 103.588C109.273 103.021 110.659 102.267 111.949 101.342Z" fill="#030402"/>
<path d="M111.31 102.302C111.091 102.653 110.055 103.662 108.658 104.859C105.633 107.47 100.923 111.022 99.2345 110.903C96.7545 110.728 93.9967 104.739 94.7184 104.453C95.4401 104.168 97.1042 105.185 97.2927 105.142C97.4291 105.109 99.4354 102.473 100.98 100.76C101.403 100.246 101.88 99.7891 102.401 99.3997C107.488 96.3478 112.002 101.184 111.31 102.302Z" fill="#FFC727"/>
<path opacity="0.1" d="M108.658 104.859C105.633 107.47 100.923 111.022 99.2345 110.903C96.7545 110.728 93.9967 104.739 94.7184 104.453C95.4401 104.168 97.1042 105.185 97.2927 105.142C97.4291 105.109 99.4354 102.473 100.98 100.76C100.063 102.008 99.1229 103.526 98.927 105.098C98.5897 107.818 101.655 108.115 103.366 107.731C105.34 107.288 107.032 106.137 108.658 104.859Z" fill="#030402"/>
<path d="M110.4 100.33C108.681 100.977 104.088 92.9478 103.763 91.6259C103.423 90.2469 104.041 89.2486 104.944 88.7237C106.164 88.0219 107.902 88.1797 108.532 89.4309C109.229 90.8181 110.494 94.5989 110.876 97.3189C111.104 98.8802 111.027 100.096 110.4 100.33Z" fill="#FFC727"/>
<path opacity="0.1" d="M110.4 100.33C108.681 100.977 104.088 92.9478 103.763 91.6259C103.423 90.2469 104.041 89.2486 104.944 88.7237C104.514 89.5968 105.226 91.4029 105.509 92.0285C105.986 93.0033 106.54 93.9299 107.166 94.7974C107.692 95.6276 108.296 96.396 108.966 97.0904C109.214 97.3406 109.854 98.0043 110.194 98.0234C110.615 98.0451 110.801 97.7242 110.876 97.3189C111.104 98.8802 111.027 100.096 110.4 100.33Z" fill="#030402"/>
<path d="M96.0602 87.059C95.3336 86.9258 95.3931 88.4626 95.5345 88.721C95.6758 88.9794 97.9376 90.7474 101.918 90.4128C106.285 90.051 108.974 88.1525 109.189 87.807C109.405 87.4616 108.956 85.9819 108.48 86.0227C108.004 86.0635 103.168 88.3565 96.0602 87.059Z" fill="#FFC727"/>
<path opacity="0.6" d="M96.0602 87.059C95.3336 86.9258 95.3931 88.4626 95.5345 88.721C95.6758 88.9794 97.9376 90.7474 101.918 90.4128C106.285 90.051 108.974 88.1525 109.189 87.807C109.405 87.4616 108.956 85.9819 108.48 86.0227C108.004 86.0635 103.168 88.3565 96.0602 87.059Z" fill="white"/>
<path d="M98.2077 69.681L94.8523 72.3194C94.6657 72.323 94.4791 72.3103 94.2943 72.2813C93.6157 72.2012 92.9711 71.9149 92.433 71.4544C91.8949 70.994 91.4847 70.3779 91.2488 69.6755C90.2916 66.8902 91.7176 63.4032 95.4648 64.1077C97.434 64.4776 98.0292 66.417 98.1928 67.9157C98.2528 68.502 98.2578 69.0935 98.2077 69.681Z" fill="#FFC727"/>
<path opacity="0.6" d="M95.0879 71.0818C95.0879 71.0818 93.5031 71.1634 92.9303 69.4987C92.3574 67.8341 93.2105 65.7451 95.4499 66.1667C97.4116 66.5366 97.0942 69.5014 97.0942 69.5014L95.0879 71.0818Z" fill="white"/>
<path d="M114.712 69.0146C114.727 70.4725 114.016 71.4 113.15 71.9902C112.248 72.5512 111.247 72.8944 110.214 72.9966L107.238 69.8632C107.238 69.8632 106.633 67.0317 108.951 65.4922C110.328 64.5782 112.079 64.5238 113.286 65.4922C114.117 66.1667 114.69 67.32 114.712 69.0146Z" fill="#FFC727"/>
<path opacity="0.6" d="M108.391 69.904C108.391 69.904 108.029 68.2094 109.417 67.2874C110.806 66.3653 112.832 66.9066 112.862 69.3954C112.889 71.5714 110.171 71.7781 110.171 71.7781L108.391 69.904Z" fill="white"/>
<path opacity="0.1" d="M110.152 70.4018C110.779 72.0528 111.965 72.3466 113.15 71.9902C112.248 72.5512 111.247 72.8944 110.214 72.9966L107.238 69.8632C107.238 69.8632 106.633 67.0317 108.951 65.4922C110.328 64.5782 112.079 64.5238 113.286 65.4922C111.042 65.4323 109.242 68 110.152 70.4018Z" fill="#030402"/>
<path d="M111.635 81.8938C111.541 82.3289 111.414 82.7548 111.255 83.1667C111.073 83.634 110.846 84.0788 110.578 84.4941C109.661 85.9085 108.297 86.9421 106.739 87.6656C104.592 88.6061 102.28 89.0067 99.9737 88.8379C97.1986 88.6366 94.9021 87.5922 93.3744 86.0363C92.6025 85.2679 92.0119 84.3056 91.6533 83.232C91.0903 81.5102 91.4053 79.8946 91.9559 78.3034C92.3775 77.0821 92.9355 75.8744 93.3397 74.6477C93.6052 73.8328 93.9243 73.0401 94.2945 72.2758C94.4972 71.8623 94.7199 71.461 94.9616 71.0736C95.5415 70.1288 96.2655 69.3007 97.1019 68.6256C97.4442 68.3512 97.8067 68.1082 98.1856 67.8994C99.2832 67.3013 100.485 66.9683 101.71 66.9229C102.236 66.8915 102.763 66.8915 103.289 66.9229C106.603 67.1323 108.681 68.5875 109.79 70.1706C110.943 71.8352 112.592 77.5989 111.635 81.8938Z" fill="#FFC727"/>
<g opacity="0.4">
<path opacity="0.6" d="M95.3336 82.2202C95.3659 82.9923 95.1995 83.7588 94.8535 84.4322C94.5075 85.1055 93.9958 85.6586 93.3769 86.0282C92.5995 85.2637 92.0036 84.3031 91.6409 83.2293C91.0804 81.5048 91.3929 79.8918 91.9459 78.3006C92.8458 78.3983 93.6835 78.8483 94.3056 79.5681C94.9277 80.2879 95.2927 81.2294 95.3336 82.2202Z" fill="white"/>
<path opacity="0.6" d="M111.634 81.8938C111.54 82.3288 111.413 82.7546 111.255 83.1667C110.439 85.2747 108.748 86.7462 106.739 87.6656C106.057 87.4688 105.434 87.0817 104.93 86.5419C104.425 86.0022 104.057 85.3282 103.861 84.5858C103.665 83.8435 103.647 83.058 103.81 82.3061C103.974 81.5542 104.312 80.8614 104.792 80.2955C105.272 79.7296 105.877 79.3098 106.549 79.0771C107.221 78.8444 107.937 78.8066 108.626 78.9676C109.315 79.1286 109.955 79.4828 110.482 79.9956C111.009 80.5085 111.406 81.1624 111.634 81.8938Z" fill="white"/>
</g>
<path opacity="0.1" d="M110.578 84.4941C109.66 85.9085 108.296 86.9421 106.739 87.6656C104.592 88.6061 102.28 89.0067 99.9735 88.8379C97.1984 88.6366 94.9019 87.5922 93.3742 86.0363C92.6022 85.2679 92.0117 84.3056 91.6531 83.232C91.0901 81.5102 91.4051 79.8946 91.9556 78.3034C92.3772 77.0821 92.9352 75.8744 93.3395 74.6477C93.605 73.8328 93.9241 73.0401 94.2943 72.2758C93.6157 72.1958 92.9711 71.9094 92.433 71.449C91.8949 70.9886 91.4847 70.3725 91.2488 69.6701C90.2916 66.8848 91.7176 63.3978 95.4648 64.1022C97.434 64.4722 98.0292 66.4115 98.1928 67.9102C99.2904 67.3122 100.492 66.9792 101.717 66.9338C102.243 66.9024 102.77 66.9024 103.297 66.9338C97.2852 68.3454 94.9738 77.4928 94.7035 79.4022C94.4136 81.342 94.8304 83.329 95.8641 84.9347C98.1532 88.4 103.083 88.128 106.392 86.9067C107.891 86.3399 109.302 85.5264 110.578 84.4941Z" fill="#030402"/>
<path opacity="0.6" d="M98.0815 77.0413C97.1193 77.433 95.3957 81.2518 96.0306 82.2746C96.6655 83.2973 101.933 83.9773 102.937 83.0035C103.942 82.0298 102.548 78.0477 101.931 77.5363C101.313 77.025 98.9768 76.6768 98.0815 77.0413Z" fill="white"/>
<path d="M96.3576 76.6278C95.9559 76.5707 95.5591 76.9733 95.4921 77.5064C95.4252 78.0395 95.7128 78.5427 96.1146 78.5944C96.5164 78.6461 96.9156 78.2517 96.9801 77.7186C97.0446 77.1854 96.7619 76.6877 96.3576 76.6278Z" fill="#263238"/>
<path d="M96.9086 77.2072C96.9086 77.1909 96.8714 77.2072 96.8763 77.2072C97.0227 77.9878 96.6606 78.8664 95.8496 78.861C95.8372 78.861 95.8323 78.88 95.8496 78.8827C96.7201 79.084 97.2434 78.0341 96.9086 77.2072Z" fill="#263238"/>
<path d="M104.16 77.4656C104.566 77.4955 104.881 77.9797 104.849 78.5155C104.817 79.0514 104.445 79.4838 104.038 79.4539C103.631 79.424 103.317 78.9426 103.351 78.404C103.386 77.8654 103.751 77.4357 104.16 77.4656Z" fill="#263238"/>
<path d="M103.512 77.9117C103.512 77.8981 103.55 77.9117 103.542 77.928C103.254 78.6624 103.448 79.6035 104.246 79.7749V79.7966C103.341 79.7885 103.031 78.6488 103.512 77.9117Z" fill="#263238"/>
<path d="M97.124 74.6966C97.0918 74.4546 96.8289 74.4246 96.6503 74.4382C96.4165 74.4624 96.1887 74.5334 95.9782 74.6477C95.928 74.674 95.8867 74.7171 95.8602 74.7708C95.8338 74.8244 95.8235 74.886 95.831 74.9464C95.8384 75.0069 95.8632 75.0633 95.9017 75.1073C95.9402 75.1514 95.9904 75.1809 96.0452 75.1917C96.2664 75.2118 96.489 75.1879 96.7024 75.121C96.8884 75.072 97.1587 74.9605 97.124 74.6966Z" fill="#263238"/>
<path d="M104.031 75.48C104.108 75.2515 104.373 75.2706 104.542 75.3331C104.767 75.4046 104.978 75.5238 105.162 75.684C105.208 75.7202 105.242 75.7716 105.259 75.8307C105.276 75.8897 105.275 75.9533 105.257 76.0119C105.239 76.0705 105.204 76.121 105.157 76.1561C105.11 76.1911 105.055 76.2087 104.998 76.2062C104.777 76.1767 104.563 76.1039 104.366 75.9914C104.192 75.9043 103.949 75.733 104.031 75.48Z" fill="#263238"/>
<path d="M99.2 78.9181C98.7561 78.8528 97.712 77.8301 97.9055 77.3405C98.0989 76.8509 100.435 77.199 100.713 77.6125C100.991 78.0259 99.448 78.9534 99.2 78.9181Z" fill="#263238"/>
<path d="M107.438 80.5283C107.415 80.7826 107.324 81.0236 107.176 81.2209C107.027 81.4181 106.829 81.5628 106.606 81.6365C106.383 81.7102 106.145 81.7097 105.922 81.635C105.699 81.5604 105.502 81.4149 105.354 81.217C105.207 81.0191 105.116 80.7777 105.094 80.5234C105.071 80.269 105.118 80.013 105.229 79.7879C105.339 79.5628 105.508 79.3786 105.713 79.2586C105.919 79.1386 106.153 79.0883 106.384 79.1139C106.695 79.149 106.98 79.3174 107.178 79.5825C107.375 79.8476 107.469 80.1876 107.438 80.5283Z" fill="#FF99BA"/>
<path d="M94.7756 79.1765C94.7518 79.4307 94.6599 79.6714 94.5113 79.8683C94.3628 80.0652 94.1644 80.2093 93.9411 80.2825C93.7179 80.3557 93.4799 80.3546 93.2572 80.2794C93.0345 80.2042 92.8372 80.0583 92.6901 79.8601C92.543 79.6619 92.4529 79.4203 92.431 79.1659C92.4091 78.9115 92.4565 78.6557 92.5672 78.4309C92.6779 78.206 92.8469 78.0222 93.0528 77.9027C93.2587 77.7831 93.4923 77.7333 93.7241 77.7594C94.0349 77.7944 94.3203 77.9633 94.5174 78.2291C94.7146 78.4948 94.8075 78.8356 94.7756 79.1765Z" fill="#FF99BA"/>
<path d="M13.0347 42.8618H10.5225V100.988H13.0347V42.8618Z" fill="#EBEBEB"/>
<path d="M13.0992 41.4093C13.0992 41.696 13.0217 41.9763 12.8765 42.2147C12.7312 42.4531 12.5248 42.639 12.2833 42.7487C12.0417 42.8584 11.7759 42.8871 11.5195 42.8312C11.2631 42.7752 11.0276 42.6372 10.8427 42.4344C10.6579 42.2317 10.532 41.9733 10.481 41.6921C10.43 41.4109 10.4561 41.1194 10.5562 40.8545C10.6562 40.5896 10.8257 40.3631 11.043 40.2038C11.2604 40.0445 11.516 39.9595 11.7774 39.9595C12.128 39.9595 12.4642 40.1123 12.7121 40.3841C12.96 40.656 13.0992 41.0248 13.0992 41.4093Z" fill="#EBEBEB"/>
<path d="M80.2032 42.8618H77.6909V100.988H80.2032V42.8618Z" fill="#EBEBEB"/>
<path d="M80.2701 41.4093C80.2701 41.696 80.1926 41.9763 80.0474 42.2147C79.9021 42.4531 79.6957 42.639 79.4541 42.7487C79.2126 42.8584 78.9468 42.8871 78.6904 42.8312C78.434 42.7752 78.1985 42.6372 78.0136 42.4344C77.8288 42.2317 77.7029 41.9733 77.6519 41.6921C77.6009 41.4109 77.627 41.1194 77.7271 40.8545C77.8271 40.5896 77.9966 40.3632 78.2139 40.2039C78.4313 40.0445 78.6869 39.9595 78.9483 39.9595C79.2987 39.9602 79.6345 40.1132 79.8823 40.3849C80.13 40.6567 80.2695 41.025 80.2701 41.4093Z" fill="#EBEBEB"/>
<path d="M77.6932 81.8285H13.0347V90.4346H77.6932V81.8285Z" fill="#EBEBEB"/>
<path d="M15.5023 81.8312H13.0347V90.4346H15.5023V81.8312Z" fill="#DBDBDB"/>
<path d="M77.6907 81.8312H75.2231V90.4346H77.6907V81.8312Z" fill="#DBDBDB"/>
<path d="M44.015 89.1371H18.6694V83.1286H44.015V89.1371ZM18.9174 88.8651H43.767V83.4006H18.9174V88.8651Z" fill="#DBDBDB"/>
<path d="M34.405 86.2702H28.272V85.0299H34.3976L34.405 86.2702ZM28.5274 85.9982H34.157V85.3019H28.52L28.5274 85.9982Z" fill="#DBDBDB"/>
<path d="M72.0536 89.1371H46.708V83.1286H72.0536V89.1371ZM46.956 88.8651H71.8056V83.4006H46.956V88.8651Z" fill="#DBDBDB"/>
<path d="M62.444 86.2702H56.3184V85.0299H62.444V86.2702ZM56.5664 85.9982H62.196V85.3019H56.5664V85.9982Z" fill="#DBDBDB"/>
<path d="M77.6932 79.22H13.0347V81.8312H77.6932V79.22Z" fill="#DBDBDB"/>
<path d="M77.6932 72.4499H13.0347V79.22H77.6932V72.4499Z" fill="#FFC727"/>
<path opacity="0.6" d="M77.6932 72.4499H13.0347V79.22H77.6932V72.4499Z" fill="white"/>
<path d="M77.6263 46.1475H13.0347V48.4677H77.6263V46.1475Z" fill="#EBEBEB"/>
<path d="M14.8995 48.4704H14.0439V81.8312H14.8995V48.4704Z" fill="#EBEBEB"/>
<path d="M19.0143 48.4704H18.1587V81.8312H19.0143V48.4704Z" fill="#EBEBEB"/>
<path d="M23.1286 48.4704H22.2729V81.8312H23.1286V48.4704Z" fill="#EBEBEB"/>
<path d="M27.2428 48.4704H26.3872V81.8312H27.2428V48.4704Z" fill="#EBEBEB"/>
<path d="M31.3571 48.4704H30.5015V81.8312H31.3571V48.4704Z" fill="#EBEBEB"/>
<path d="M35.4713 48.4704H34.6157V81.8312H35.4713V48.4704Z" fill="#EBEBEB"/>
<path d="M39.5856 48.4704H38.73V81.8312H39.5856V48.4704Z" fill="#EBEBEB"/>
<path d="M43.6998 48.4704H42.8442V81.8312H43.6998V48.4704Z" fill="#EBEBEB"/>
<path d="M47.8141 48.4704H46.9585V81.8312H47.8141V48.4704Z" fill="#EBEBEB"/>
<path d="M51.9288 48.4704H51.0732V81.8312H51.9288V48.4704Z" fill="#EBEBEB"/>
<path d="M56.0431 48.4704H55.1875V81.8312H56.0431V48.4704Z" fill="#EBEBEB"/>
<path d="M60.1598 48.4704H59.3042V81.8312H60.1598V48.4704Z" fill="#EBEBEB"/>
<path d="M64.2741 48.4704H63.4185V81.8312H64.2741V48.4704Z" fill="#EBEBEB"/>
<path d="M68.3883 48.4704H67.5327V81.8312H68.3883V48.4704Z" fill="#EBEBEB"/>
<path d="M72.5026 48.4704H71.647V81.8312H72.5026V48.4704Z" fill="#EBEBEB"/>
<path d="M76.6168 48.4704H75.7612V81.8312H76.6168V48.4704Z" fill="#EBEBEB"/>
<path d="M77.6263 46.1475H13.0347V48.4677H77.6263V46.1475Z" fill="#EBEBEB"/>
<path d="M13.0694 117.107C13.1415 118.037 13.4452 118.927 13.9473 119.68C14.7774 120.919 15.9484 121.834 17.2878 122.288C18.885 122.784 23.3018 122.832 25.2387 122.256C27.1756 121.679 28.5396 120.156 28.3933 117.482C28.247 114.808 25.9306 112.042 25.9306 112.042C24.3932 112.248 22.8401 112.272 21.298 112.113C20.8756 112.068 20.4497 112.083 20.0307 112.156C18.193 112.467 16.8067 113.75 16.2289 113.788C15.5345 113.832 14.5226 112.613 14.2201 112.575C13.9175 112.537 12.866 114.264 13.0694 117.107Z" fill="#FFC727"/>
<path opacity="0.6" d="M13.0694 117.107C13.1415 118.037 13.4452 118.927 13.9473 119.68C14.7774 120.919 15.9484 121.834 17.2878 122.288C18.885 122.784 23.3018 122.832 25.2387 122.256C27.1756 121.679 28.5396 120.156 28.3933 117.482C28.247 114.808 25.9306 112.042 25.9306 112.042C24.3932 112.248 22.8401 112.272 21.298 112.113C20.8756 112.068 20.4497 112.083 20.0307 112.156C18.193 112.467 16.8067 113.75 16.2289 113.788C15.5345 113.832 14.5226 112.613 14.2201 112.575C13.9175 112.537 12.866 114.264 13.0694 117.107Z" fill="white"/>
<path d="M14.8524 119.449C14.8053 119.416 15.6485 116.052 18.3443 114.281C18.3914 114.248 18.3914 114.322 18.3443 114.362C17.6325 115.034 15.708 117.488 15.2071 119.242C18.5675 120.314 22.228 117.572 23.158 116.076C23.1803 116.043 23.2249 116.076 23.2076 116.117C20.8317 120.871 15.3137 120.093 14.8524 119.449Z" fill="#FFC727"/>
<path opacity="0.1" d="M13.9473 119.68C14.7774 120.919 15.9484 121.834 17.2878 122.288C18.8849 122.784 23.3018 122.832 25.2387 122.256C27.1756 121.679 28.5396 120.156 28.3933 117.482C28.2469 114.808 25.9306 112.042 25.9306 112.042C24.3932 112.248 22.84 112.272 21.298 112.113C20.8756 112.068 20.4497 112.083 20.0307 112.156C21.5633 112.845 23.0662 113.998 23.9987 115.51C25.824 118.502 22.5628 120.202 20.3432 120.632C18.1729 121.058 15.9354 120.725 13.9473 119.68Z" fill="#030402"/>
<path d="M26.8283 109.015C27.0465 109.915 28.1873 111.191 28.289 111.158L28.4056 111.131C29.2335 110.889 29.9549 110.329 30.4392 109.553C31.3146 108.193 30.9352 106.376 30.5458 106.265C30.1564 106.153 29.8018 106.923 29.1322 107.081C28.4626 107.239 28.1055 106.891 27.6988 106.597C27.6442 106.676 26.6175 108.139 26.8283 109.015Z" fill="#FFC727"/>
<path d="M20.0331 112.279C20.4474 113.055 21.0549 113.686 21.7845 114.098C22.5141 114.509 23.3355 114.684 24.1524 114.602C26.4836 114.449 27.9369 112.953 28.4056 111.131C28.5395 110.607 28.5923 110.062 28.5618 109.518C28.5148 108.479 28.217 107.471 27.6988 106.6C27.2604 105.861 26.6477 105.267 25.9259 104.88C25.204 104.493 24.4 104.327 23.5993 104.402C23.3401 104.419 23.0823 104.457 22.8281 104.516C20.4398 105.079 19.3189 107.47 19.3437 109.616C19.3603 110.554 19.5978 111.471 20.0331 112.279Z" fill="#FFC727"/>
<path opacity="0.6" d="M20.0331 112.279C20.4474 113.055 21.0549 113.686 21.7845 114.098C22.5141 114.509 23.3355 114.684 24.1524 114.602C26.4836 114.449 27.9369 112.953 28.4056 111.131C28.5395 110.607 28.5923 110.062 28.5618 109.518C28.5148 108.479 28.217 107.471 27.6988 106.6C27.2604 105.861 26.6477 105.267 25.9259 104.88C25.204 104.493 24.4 104.327 23.5993 104.402C23.3401 104.419 23.0823 104.457 22.8281 104.516C20.4398 105.079 19.3189 107.47 19.3437 109.616C19.3603 110.554 19.5978 111.471 20.0331 112.279Z" fill="white"/>
<path d="M25.8461 109.309C26.7339 109.121 27.0861 110.693 26.1313 110.894C25.1765 111.096 24.9285 109.499 25.8461 109.309Z" fill="#263238"/>
<path opacity="0.1" d="M20.0332 112.279C20.4475 113.055 21.055 113.686 21.7846 114.098C22.5142 114.509 23.3356 114.684 24.1525 114.602C26.4837 114.449 27.937 112.953 28.4057 111.131C29.2336 110.889 29.9551 110.329 30.4393 109.553C31.3147 108.193 30.9353 106.376 30.5459 106.265C30.1566 106.153 29.8019 106.923 29.1323 107.081C28.4627 107.239 28.1056 106.891 27.6989 106.597C27.2605 105.858 26.6478 105.264 25.926 104.877C25.2041 104.49 24.4001 104.325 23.5994 104.399C23.3402 104.417 23.0824 104.455 22.8282 104.513C25.7273 105.392 28.1974 109.515 25.1767 111.933C24.5867 112.383 23.915 112.686 23.2078 112.824C22.5006 112.962 21.7746 112.93 21.0798 112.73C20.716 112.625 20.3648 112.474 20.0332 112.279Z" fill="#030402"/>
<path d="M77.9489 98.3606C80.5976 98.8067 85.7386 110.533 82.9759 111.961C80.7439 113.117 73.4452 107.024 73.6635 102.96C73.8098 100.267 76.0914 98.0478 77.9489 98.3606Z" fill="#AD6359"/>
<path d="M57.2583 97.1557C57.102 92.5698 59.2993 83.7134 63.7063 82.1957C68.1132 80.6779 72.9964 83.4034 73.8048 89.6838C74.4348 94.5798 72.7558 99.6418 72.7558 99.6418C72.7558 99.6418 76.4758 98.0342 77.6017 98.3008C79.8337 98.8312 82.1525 103.553 79.9205 106.393C78.3259 108.419 67.3147 117.64 61.1593 111C57.6476 107.214 57.4492 102.849 57.2583 97.1557Z" fill="#AD6359"/>
<g opacity="0.1">
<path d="M77.9489 98.3606C80.5976 98.8067 85.7386 110.533 82.9759 111.961C80.7439 113.117 73.4452 107.024 73.6635 102.96C73.8098 100.267 76.0914 98.0478 77.9489 98.3606Z" fill="black"/>
<path d="M57.2583 97.1557C57.102 92.5698 59.2993 83.7134 63.7063 82.1957C68.1132 80.6779 72.9964 83.4034 73.8048 89.6838C74.4348 94.5798 72.7558 99.6418 72.7558 99.6418C72.7558 99.6418 76.4758 98.0342 77.6017 98.3008C79.8337 98.8312 82.1525 103.553 79.9205 106.393C78.3259 108.419 67.3147 117.64 61.1593 111C57.6476 107.214 57.4492 102.849 57.2583 97.1557Z" fill="black"/>
</g>
<path d="M72.8897 98.8747C72.5516 100.17 72.0166 101.394 71.3074 102.495C70.9701 103.025 70.6081 103.531 70.2261 104.024C69.8267 104.573 69.3808 105.079 68.8944 105.536C68.8398 105.582 68.8944 105.672 68.9613 105.628C69.2217 105.416 69.5069 105.242 69.7599 105.014C70.0084 104.785 70.2459 104.543 70.4717 104.288C70.9055 103.801 71.2859 103.261 71.605 102.677C72.2422 101.507 72.6941 100.227 72.9417 98.891C72.9467 98.8584 72.912 98.8421 72.8897 98.8747Z" fill="#263238"/>
<path d="M78.4918 106.292C78.07 107.179 77.5169 107.982 76.855 108.669C76.545 108.988 76.2251 109.281 75.8928 109.562C75.5468 109.877 75.171 110.15 74.7718 110.378C74.7272 110.399 74.7545 110.486 74.7991 110.467C75.0049 110.372 75.2207 110.312 75.4241 110.195C75.6256 110.084 75.821 109.959 76.0093 109.823C76.3796 109.555 76.7178 109.238 77.0162 108.879C77.6447 108.12 78.1534 107.251 78.5216 106.308C78.5315 106.295 78.5017 106.27 78.4918 106.292Z" fill="#263238"/>
<path d="M35.526 99.7424C36.9198 100.11 44.7789 101.932 49.6893 100.392C53.4432 99.2638 56.6559 96.5916 58.6595 92.9315C61.8835 87.1461 58.8405 82.7859 55.5843 84.6845C51.718 86.9421 48.1443 89.7573 45.6494 90.6685C42.599 91.7782 37.3067 92.0829 36.4734 92.2542C34.72 92.616 33.79 99.28 35.526 99.7424Z" fill="#AD6359"/>
<path d="M36.9717 92.2706C36.498 91.528 34.6107 90.2632 34.328 89.6458C34.0453 89.0283 33.6609 87.2984 32.8251 87.7554C31.9894 88.2123 32.8425 90.6902 33.0434 91.256C33.2442 91.8218 27.937 89.8824 27.4956 91.256C27.0542 92.6296 30.7965 93.5544 30.7196 93.8346C30.6427 94.1147 26.6474 93.5952 26.3895 94.8138C26.1316 96.0323 30.4542 96.1493 30.4468 96.2445C30.4394 96.3397 27.3691 95.1347 26.9525 96.1493C26.5358 97.1638 30.8882 98.0696 30.8734 98.2845C30.8585 98.4994 28.309 98.8829 28.495 99.9736C28.681 101.064 32.5201 99.9464 32.8722 99.9029C33.2244 99.8594 35.9499 100.061 36.374 99.5955C36.7981 99.1304 37.309 92.801 36.9717 92.2706Z" fill="#AD6359"/>
<g opacity="0.1">
<path d="M35.526 99.7424C36.9198 100.11 44.7789 101.932 49.6893 100.392C53.4432 99.2638 56.6559 96.5916 58.6595 92.9315C61.8835 87.1461 58.8405 82.7859 55.5843 84.6845C51.718 86.9421 48.1443 89.7573 45.6494 90.6685C42.599 91.7782 37.3067 92.0829 36.4734 92.2542C34.72 92.616 33.79 99.28 35.526 99.7424Z" fill="black"/>
<path d="M36.9717 92.2706C36.498 91.528 34.6107 90.2632 34.328 89.6458C34.0453 89.0283 33.6609 87.2984 32.8251 87.7554C31.9894 88.2123 32.8425 90.6902 33.0434 91.256C33.2442 91.8218 27.937 89.8824 27.4956 91.256C27.0542 92.6296 30.7965 93.5544 30.7196 93.8346C30.6427 94.1147 26.6474 93.5952 26.3895 94.8138C26.1316 96.0323 30.4542 96.1493 30.4468 96.2445C30.4394 96.3397 27.3691 95.1347 26.9525 96.1493C26.5358 97.1638 30.8882 98.0696 30.8734 98.2845C30.8585 98.4994 28.309 98.8829 28.495 99.9736C28.681 101.064 32.5201 99.9464 32.8722 99.9029C33.2244 99.8594 35.9499 100.061 36.374 99.5955C36.7981 99.1304 37.309 92.801 36.9717 92.2706Z" fill="black"/>
</g>
<path d="M33.5866 92.5072C33.2014 93.3996 32.9206 94.3419 32.7509 95.3115C32.6112 96.2927 32.5954 97.2904 32.7037 98.2763C32.7037 98.3525 32.8178 98.3525 32.8104 98.2763C32.7579 97.3012 32.8086 96.3227 32.9617 95.3605C33.0876 94.3933 33.3242 93.4475 33.666 92.5453C33.6858 92.4963 33.6089 92.4582 33.5866 92.5072Z" fill="#263238"/>
<path d="M29.9581 96.1602C29.6828 96.1112 29.41 96.0568 29.1372 95.997C28.8644 95.9371 28.6412 95.9018 28.3709 95.8718C28.0683 95.8338 27.8749 95.8229 27.5723 95.7576C27.4855 95.7358 27.4682 95.7576 27.55 95.7984C28.052 95.9677 28.563 96.103 29.0802 96.2037C29.348 96.2418 29.6134 96.2744 29.8812 96.3016C30.1676 96.34 30.4557 96.3609 30.7443 96.3642C30.779 96.3642 30.7914 96.3016 30.7443 96.2934C30.5037 96.2336 30.221 96.2091 29.9581 96.1602Z" fill="#263238"/>
<path d="M68.1774 105.639C67.9046 105.446 69.4967 99.5438 69.6257 93.4456C69.7819 86.0472 68.4229 81.5538 68.661 81.1458C69.157 80.3134 70.2011 81.075 70.3697 81.0614C70.5383 81.0478 77.0657 78.7957 81.4255 80.8738C85.7854 82.9518 88.6175 89.624 87.7346 95.0477C86.8518 100.471 82.9408 109.736 69.2586 105.533C69.1768 105.509 68.7825 106.08 68.1774 105.639Z" fill="#FFC727"/>
<g opacity="0.6">
<path d="M68.1774 105.639C67.9046 105.446 69.4967 99.5438 69.6257 93.4456C69.7819 86.0472 68.4229 81.5538 68.661 81.1458C69.157 80.3134 70.2011 81.075 70.3697 81.0614C70.5383 81.0478 77.0657 78.7957 81.4255 80.8738C85.7854 82.9518 88.6175 89.624 87.7346 95.0477C86.8518 100.471 82.9408 109.736 69.2586 105.533C69.1768 105.509 68.7825 106.08 68.1774 105.639Z" fill="white"/>
</g>
<path d="M70.4021 82.144C70.737 83.0408 71.0138 83.9625 71.2304 84.9021C71.4402 85.8451 71.6058 86.7992 71.7264 87.7608C71.98 89.6868 72.0631 91.6353 71.9744 93.5789C71.8944 95.5235 71.6453 97.4553 71.2304 99.348C71.0326 100.294 70.7909 101.228 70.5062 102.147C70.3822 102.612 70.1962 103.055 70.0375 103.507C69.8788 103.958 69.7077 104.404 69.5415 104.848C69.663 104.383 69.7895 103.918 69.9185 103.458C70.0474 102.998 70.1913 102.544 70.2781 102.068C70.4814 101.132 70.717 100.208 70.8584 99.2582L70.9774 98.551C71.0171 98.3144 71.0692 98.0832 71.0915 97.8438L71.2651 96.4186C71.3345 95.9453 71.3519 95.4638 71.3941 94.9878C71.4362 94.5118 71.4759 94.0331 71.4784 93.5544L71.523 92.1182L71.5032 90.6821C71.4759 89.7246 71.4213 88.7781 71.3321 87.8125C71.1754 85.8965 70.8642 83.9996 70.4021 82.144Z" fill="#FFC727"/>
<path d="M92.4169 103.548C95.0383 104.16 99.5593 116.188 96.7271 117.447C94.448 118.461 87.4693 111.92 87.8983 107.878C88.186 105.193 90.5792 103.118 92.4169 103.548Z" fill="#AD6359"/>
<path d="M71.8205 101.048C71.9073 96.4621 74.5485 87.7554 79.0323 86.515C83.5162 85.2747 88.2455 88.3021 88.7266 94.6234C89.0986 99.552 87.1593 104.5 87.1593 104.5C87.1593 104.5 90.9562 103.14 92.0697 103.466C94.2744 104.135 96.3378 108.996 93.9619 111.689C92.2656 113.612 80.7906 122.128 74.9924 115.113C71.6866 111.115 71.7163 106.744 71.8205 101.048Z" fill="#AD6359"/>
<path d="M87.3405 103.746C86.9336 105.017 86.3359 106.205 85.5723 107.26C85.2053 107.769 84.8283 108.251 84.4117 108.718C83.9843 109.241 83.5126 109.719 83.003 110.144C82.9925 110.153 82.9857 110.167 82.9839 110.182C82.9821 110.196 82.9854 110.211 82.9931 110.224C83.0009 110.236 83.0126 110.245 83.0259 110.248C83.0392 110.251 83.0532 110.249 83.065 110.242C83.3378 110.046 83.6305 109.891 83.8958 109.679C84.1543 109.466 84.4026 109.239 84.6398 108.999C85.0986 108.541 85.5065 108.025 85.855 107.462C86.5532 106.333 87.0714 105.082 87.3877 103.763C87.3976 103.733 87.3505 103.714 87.3405 103.746Z" fill="#263238"/>
<path d="M92.5458 111.501C92.0788 112.36 91.4846 113.128 90.7875 113.772C90.4626 114.071 90.1253 114.346 89.7806 114.604C89.4177 114.896 89.0279 115.145 88.6175 115.347C88.5728 115.366 88.5951 115.456 88.6423 115.437C88.8531 115.355 89.0688 115.312 89.2796 115.214C89.4863 115.115 89.6876 115.004 89.8823 114.879C90.2659 114.635 90.6207 114.34 90.9387 114.001C91.6036 113.28 92.1565 112.445 92.5755 111.528C92.5855 111.52 92.5582 111.479 92.5458 111.501Z" fill="#263238"/>
<path d="M69.1102 81.5674C72.1333 90.1 69.011 104.568 68.1703 105.133C68.1703 105.133 54.0516 106.05 47.6656 90.3938C47.3234 89.5533 57.5137 82.8893 60.0359 81.4776C62.3968 80.1584 66.4616 81.0179 68.4927 81.2845C68.8374 81.328 69.0581 81.415 69.1102 81.5674Z" fill="#AD6359"/>
<g opacity="0.1">
<path d="M60.0831 92.6949C60.0222 92.6568 59.9549 92.6323 59.8853 92.6229C59.8156 92.6135 59.745 92.6193 59.6774 92.6401C59.6098 92.6608 59.5466 92.6961 59.4916 92.7438C59.4365 92.7914 59.3906 92.8506 59.3565 92.9179C59.271 93.0654 59.2403 93.2432 59.2708 93.4147C59.3012 93.5863 59.3905 93.7385 59.5202 93.84C59.6153 93.9034 59.7295 93.923 59.8377 93.8945C59.946 93.866 60.0396 93.7916 60.098 93.6877C60.1506 93.6552 60.1983 93.6139 60.2394 93.5653C60.2845 93.4981 60.3165 93.4214 60.3331 93.34C60.3497 93.2585 60.3508 93.1742 60.3361 93.0923C60.3214 93.0105 60.2913 92.9328 60.2477 92.8644C60.2042 92.796 60.1481 92.7382 60.0831 92.6949Z" fill="black"/>
<path d="M54.0788 96.9979C54.0179 96.9598 53.9506 96.9354 53.881 96.926C53.8113 96.9165 53.7407 96.9224 53.6731 96.9431C53.6055 96.9639 53.5424 96.9991 53.4873 97.0468C53.4322 97.0945 53.3863 97.1537 53.3522 97.221C53.2663 97.3686 53.2357 97.5468 53.2667 97.7186C53.2976 97.8903 53.3878 98.0424 53.5184 98.143C53.5655 98.1752 53.618 98.1968 53.6728 98.2066C53.7276 98.2164 53.7836 98.2141 53.8376 98.2C53.8916 98.1858 53.9424 98.16 53.9873 98.1241C54.0321 98.0882 54.07 98.0428 54.0987 97.9907C54.1505 97.9581 54.1974 97.9168 54.2376 97.8683C54.283 97.8011 54.3151 97.7243 54.3317 97.6426C54.3484 97.561 54.3493 97.4765 54.3344 97.3945C54.3194 97.3125 54.2889 97.2348 54.2449 97.1665C54.2009 97.0982 54.1443 97.0408 54.0788 96.9979Z" fill="black"/>
<path d="M62.2977 102.313C62.2629 102.313 62.2208 102.351 62.2431 102.394C62.2894 102.468 62.3409 102.538 62.3969 102.604C62.4266 102.645 62.506 102.767 62.4663 102.827C62.4266 102.887 62.3026 102.827 62.258 102.8C62.0532 102.62 61.9135 102.367 61.8637 102.084C61.8603 102.074 61.8536 102.064 61.8447 102.058C61.8359 102.053 61.8254 102.05 61.8151 102.052C61.8049 102.053 61.7954 102.059 61.7884 102.067C61.7814 102.076 61.7773 102.087 61.7769 102.098C61.8066 102.468 62.01 103.308 62.4961 103.186C62.5822 103.158 62.6556 103.095 62.7016 103.011C62.7476 102.926 62.7627 102.825 62.7441 102.729C62.7196 102.617 62.6631 102.516 62.5829 102.441C62.5026 102.366 62.4027 102.321 62.2977 102.313Z" fill="black"/>
</g>
<path d="M65.2239 115.342C65.6703 113.846 69.2787 105.55 68.2743 100.047C67.2054 94.2018 65.4223 89.5696 63.597 88.1117C58.5998 84.116 54.421 89.4717 55.1923 93.4347C56.152 98.4096 58.0542 100.392 58.6246 103.205C58.6891 103.531 57.898 110.693 58.4932 113.704C58.8627 115.627 64.656 117.202 65.2239 115.342Z" fill="#AD6359"/>
<path d="M58.4462 112.529C57.7691 112.749 56.7846 113.802 56.2142 113.916C55.6438 114.031 54.0045 114.591 54.4038 115.178C54.803 115.766 57.0598 115.494 57.5732 115.429C58.0866 115.363 56.2489 118.548 57.4814 118.984C58.714 119.419 59.6142 117.123 59.8647 117.21C60.1152 117.297 59.5845 119.794 60.6831 120.096C61.7818 120.398 61.9554 117.648 62.0422 117.648C62.129 117.648 60.9857 119.498 61.8983 119.879C62.811 120.259 63.6988 117.569 63.8823 117.602C64.0658 117.635 64.3783 119.313 65.3703 119.316C66.3623 119.318 65.41 116.732 65.3703 116.5C65.3306 116.269 65.5638 114.545 65.1471 114.221C64.7305 113.897 58.9298 112.371 58.4462 112.529Z" fill="#AD6359"/>
<path d="M58.4137 106.393C58.2622 105.32 58.3077 104.225 58.5476 103.172C58.6022 102.9 58.679 102.65 58.751 102.392C58.8326 102.135 58.9261 101.884 59.0312 101.638C59.2372 101.146 59.4979 100.684 59.8074 100.262C59.5829 100.735 59.3833 101.222 59.2098 101.72C59.0375 102.214 58.8966 102.72 58.7882 103.235C58.6739 103.75 58.587 104.272 58.5278 104.799C58.4646 105.328 58.4265 105.86 58.4137 106.393Z" fill="#263238"/>
<path d="M58.6122 103.205C58.2725 102.56 57.9749 101.897 57.6946 101.228C57.4144 100.558 57.149 99.8675 56.8936 99.1984C56.6382 98.5293 56.3976 97.8384 56.1744 97.1339C55.9512 96.4294 55.733 95.744 55.542 95.0286C55.9134 95.6499 56.2449 96.2989 56.534 96.9707C56.8316 97.6344 57.0994 98.3117 57.3549 98.9944C57.6103 99.6771 57.8509 100.368 58.0542 101.07C58.274 101.77 58.4602 102.483 58.6122 103.205Z" fill="#263238"/>
<path d="M55.3287 96.1275C55.6048 96.322 55.8551 96.5572 56.0727 96.8266C56.298 97.0897 56.4884 97.3864 56.6381 97.7078C56.0837 97.3134 55.6311 96.7692 55.3237 96.1275H55.3287Z" fill="#263238"/>
<path d="M65.9282 91.751C66.5839 93.4648 67.1543 95.2164 67.6369 96.9979C67.8834 97.8923 68.087 98.8002 68.247 99.7179C68.2842 99.9518 68.3115 100.186 68.3437 100.42C68.376 100.654 68.3859 100.901 68.3859 101.138C68.3859 101.374 68.3859 101.614 68.3859 101.848C68.3859 102.082 68.371 102.316 68.3561 102.549C68.2304 104.41 67.9818 106.258 67.6121 108.079C67.4237 108.988 67.2054 109.888 66.945 110.777L66.7367 111.436L66.5036 112.088C66.4193 112.303 66.33 112.513 66.2432 112.725C66.1564 112.937 66.0373 113.133 65.9381 113.337C66.2669 112.486 66.5258 111.605 66.7119 110.704C66.9153 109.806 67.0789 108.903 67.2327 107.984C67.5289 106.17 67.7392 104.341 67.8626 102.503C67.88 102.275 67.8924 102.046 67.8973 101.818C67.9023 101.589 67.9097 101.364 67.8973 101.138C67.8849 100.912 67.875 100.692 67.8651 100.469L67.7808 99.7941C67.6543 98.891 67.4584 97.9934 67.26 97.0958C66.8508 95.317 66.3969 93.5326 65.9282 91.751Z" fill="#263238"/>
<path d="M66.5827 92.363C66.7256 92.738 66.8175 93.1339 66.8555 93.5381C66.9096 93.9409 66.9029 94.3508 66.8357 94.7512C66.7271 94.3663 66.6516 93.9711 66.61 93.5707C66.5611 93.1704 66.552 92.7655 66.5827 92.363Z" fill="#263238"/>
<path d="M64.1426 113.478C63.514 113.071 62.8383 112.758 62.1338 112.548C61.4065 112.365 60.6594 112.295 59.9142 112.339C59.8572 112.339 59.8448 112.442 59.9018 112.439C60.6344 112.444 61.3638 112.545 62.0743 112.741C62.7823 112.913 63.4662 113.187 64.1079 113.557C64.1426 113.568 64.1774 113.5 64.1426 113.478Z" fill="#263238"/>
<path d="M59.9165 67.6736C60.2573 68.0091 60.6782 68.2311 61.1299 68.3135C61.5817 68.3959 62.0454 68.3353 62.4669 68.1389C62.8884 67.9425 63.25 67.6183 63.5094 67.2044C63.7689 66.7906 63.9153 66.3042 63.9316 65.8022C64.7228 66.4442 65.7668 66.6536 66.6299 65.9518C67.4929 65.2501 67.6591 63.9581 67.1581 62.9218C67.1581 62.9218 67.1432 62.9218 67.1457 62.9218C67.5078 63.9173 67.364 65.125 66.5307 65.7832C65.8189 66.3462 65.0427 66.251 64.3656 65.8512C64.7252 65.92 65.0938 65.9072 65.4487 65.8136C65.8036 65.72 66.1372 65.5477 66.429 65.3072C66.7444 65.0275 66.9777 64.6521 67.0998 64.2279C67.222 63.8037 67.2276 63.3494 67.116 62.9218C68.0088 62.6362 68.8743 61.9942 69.2016 61.0014C69.3415 60.5895 69.3691 60.1418 69.281 59.7129C69.193 59.284 68.9931 58.8925 68.7056 58.5861C69.1066 58.3671 69.4406 58.0248 69.6669 57.6009C69.8932 57.177 70.002 56.69 69.9799 56.1994C69.9578 55.7088 69.8057 55.2359 69.5424 54.8385C69.2791 54.4412 68.916 54.1366 68.4973 53.9621C68.7721 53.7736 68.9992 53.5124 69.1578 53.2024C69.3164 52.8924 69.4013 52.5436 69.4048 52.1882C69.4082 51.8327 69.3301 51.4821 69.1776 51.1684C69.0251 50.8548 68.8031 50.5883 68.532 50.3934C68.7145 50.2067 68.8443 49.9666 68.9063 49.7015C68.9682 49.4364 68.9597 49.1574 68.8817 48.8974C68.7131 48.2827 68.2344 47.8638 67.731 47.5701C67.8007 47.2946 67.8063 47.0045 67.7474 46.726C67.6884 46.4476 67.5669 46.1898 67.3937 45.9762C67.1626 45.7104 66.8529 45.5434 66.5199 45.505C66.1869 45.4666 65.8523 45.5594 65.5759 45.7667C65.1667 44.8528 64.6037 43.9198 63.7134 43.5254C62.9818 43.2018 62.0692 43.2888 61.5112 43.9307C61.2923 43.5694 61.006 43.2632 60.6713 43.0323C60.3365 42.8013 59.9609 42.6509 59.5692 42.591C59.1775 42.5311 58.7786 42.5631 58.399 42.6848C58.0194 42.8065 57.6677 43.0151 57.3671 43.297C57.1 43.0587 56.7805 42.9014 56.4407 42.8408C56.1008 42.7802 55.7524 42.8183 55.4302 42.9515C54.9805 43.1139 54.5736 43.3939 54.2448 43.7675C53.9909 43.5765 53.6893 43.4766 53.3815 43.4814C53.0737 43.4863 52.7748 43.5958 52.5261 43.7947C52.3 43.9897 52.116 44.2371 51.9874 44.5193C51.8588 44.8015 51.7887 45.1113 51.7821 45.4267C51.6813 45.5734 51.5516 45.6934 51.4027 45.7776C51.03 45.9898 50.7107 46.2992 50.4728 46.6787C50.2349 47.0582 50.0859 47.496 50.0387 47.9536C49.7952 48.0046 49.5645 48.1122 49.3622 48.2692C49.1598 48.4262 48.9904 48.6289 48.8654 48.8636C48.7404 49.0984 48.6627 49.3598 48.6375 49.6302C48.6123 49.9007 48.6402 50.1739 48.7193 50.4315C48.267 50.7022 47.9299 51.1572 47.7809 51.6982C47.632 52.2393 47.6831 52.8228 47.9232 53.3229C47.5789 53.5674 47.2867 53.8906 47.0667 54.2704C46.8467 54.6502 46.704 55.0776 46.6485 55.5234C46.5667 56.217 46.7477 57.0275 47.3231 57.3757C46.9288 57.7184 46.9808 58.4011 47.2611 58.8363C47.3716 58.9996 47.498 59.1492 47.638 59.2824C47.7992 59.4429 48.0472 59.5979 48.1489 59.8264C48.2506 60.0549 48.1936 60.335 48.2035 60.5744C48.2121 60.7481 48.237 60.9204 48.2779 61.0885C48.4409 61.7107 48.7923 62.2534 49.2742 62.6272C49.7561 63.001 50.3398 63.1836 50.929 63.1448C50.9761 64.0723 51.7003 64.7061 52.4542 65.0162C52.7007 65.1114 52.9548 65.1815 53.2131 65.2256C53.447 65.2513 53.6679 65.3558 53.8455 65.5248C53.9546 65.6418 54.0414 65.7968 54.153 65.9029C54.5597 66.3136 55.0557 66.368 55.5517 66.3435C55.7551 68.816 58.488 69.3246 59.9165 67.6736ZM52.4393 44.1646C52.666 43.9146 52.958 43.7481 53.2748 43.6882C53.5916 43.6283 53.9176 43.6778 54.2076 43.8301L54.158 43.8981C54.158 43.8981 53.9472 43.8627 53.843 43.86C53.6514 43.8532 53.46 43.8779 53.2751 43.9334C52.9954 44.0119 52.735 44.1572 52.5125 44.3589C52.29 44.5607 52.1109 44.8138 51.988 45.1003L51.9557 45.1629C52.0282 44.7869 52.1958 44.441 52.4393 44.1646ZM67.2648 46.5283C67.0873 46.2534 66.8367 46.0454 66.5471 45.9329C66.2576 45.8204 65.9435 45.8089 65.6478 45.9L65.6255 45.851C66.2083 45.56 66.8134 45.4702 67.3119 46.0714C67.4644 46.2582 67.569 46.486 67.6152 46.7315C67.6613 46.9771 67.6474 47.2317 67.5748 47.4694C67.5539 47.1301 67.4465 46.804 67.2648 46.5283ZM55.646 66.3408H55.6683C55.914 67.0619 56.4063 67.6497 57.0406 67.9793C57.675 68.3088 58.4015 68.3543 59.0659 68.1061C57.6324 68.7643 56.0477 68.427 55.646 66.3408Z" fill="#263238"/>
<path d="M62.8481 79.4893C60.9733 85.4461 56.2166 88.1933 53.4365 89.1453C49.1313 90.6277 37.0685 92.3331 33.6164 84.0099C32.8153 82.0814 32.4086 79.201 32.3169 76.092C32.1383 70.1379 33.1154 63.3434 34.6902 60.7648C38.0333 55.2949 47.2142 51.8867 55.1874 55.4445C61.6057 58.3114 64.728 73.527 62.8481 79.4893Z" fill="#AD6359"/>
<path d="M49.0169 70.244C48.6736 70.1546 48.335 70.0447 48.0026 69.9149C47.6157 69.7843 47.2933 69.7245 47.0255 69.3709C46.9604 69.2601 46.9305 69.1289 46.9403 68.9976C46.9502 68.8663 46.9993 68.7422 47.08 68.6446C47.4471 68.2475 47.9579 68.2774 48.4316 68.4134C48.9122 68.5337 49.3348 68.8459 49.6171 69.2893C49.9196 69.7381 49.4831 70.3446 49.0169 70.244Z" fill="#263238"/>
<path d="M37.9192 70.2114C38.2628 70.1283 38.6021 70.0257 38.936 69.904C39.3229 69.7816 39.6403 69.7245 39.9106 69.36C39.9766 69.2512 40.008 69.1216 40 68.9913C39.9919 68.8609 39.9448 68.7372 39.866 68.6392C39.5064 68.2394 38.998 68.2638 38.5268 68.3917C38.0496 68.5058 37.6275 68.8089 37.3414 69.243C37.0289 69.6973 37.448 70.3066 37.9192 70.2114Z" fill="#263238"/>
<path d="M45.4434 79.5274C45.4966 79.6852 45.5397 79.847 45.5723 80.0115C45.7112 80.6643 45.8005 81.8122 44.9002 82.231C44.5565 82.3808 44.1772 82.4018 43.8214 82.2909C42.8443 82.0352 41.9292 80.9118 41.9292 80.9118C44.0248 81.2872 45.4434 79.5274 45.4434 79.5274Z" fill="#263238"/>
<path d="M45.5722 80.0115C45.711 80.6643 45.8003 81.8122 44.9001 82.231C44.5563 82.3808 44.1771 82.4018 43.8213 82.2909C43.8959 81.7152 44.1346 81.1801 44.5033 80.7622C44.7979 80.4194 45.165 80.1615 45.5722 80.0115Z" fill="#FF99BA"/>
<path d="M40.57 71.6176C40.3766 74.0656 40.5204 73.1952 40.2303 75.6378C39.7343 75.703 37.5023 75.839 37.6734 76.0485C38.2909 76.8019 40.1137 78.0749 40.1063 78.0939C39.8732 78.7658 38.8836 79.5165 38.9357 79.5682C41.8125 82.5166 44.5108 80.6888 45.411 79.6498C45.592 79.4403 45.5152 79.4485 45.411 79.541C44.4934 80.2971 41.7555 81.5075 39.7244 79.4893C40.1043 79.0908 40.3889 78.5956 40.5527 78.0477C40.5725 77.9797 39.1391 76.8971 38.5687 76.2987C39.2457 76.228 40.079 76.2062 40.5824 76.16C40.699 76.16 40.9792 74.2206 40.7759 71.6094C40.7749 71.5795 40.7631 71.5512 40.7431 71.5308C40.7231 71.5104 40.6965 71.4996 40.6692 71.5006C40.6419 71.5017 40.6162 71.5147 40.5975 71.5366C40.5789 71.5585 40.569 71.5877 40.57 71.6176Z" fill="#263238"/>
<path d="M47.7125 72.1698C49.5353 72.1126 49.5031 76.1192 47.8142 76.1709C46.1253 76.2226 46.1823 72.216 47.7125 72.1698Z" fill="#263238"/>
<path d="M48.293 72.3221C48.5857 72.4826 48.8882 72.7954 49.2206 72.7926C49.605 72.7926 49.8604 72.3982 50.0762 72.0229C50.0985 71.9848 50.1282 72.0229 50.1332 72.0555C50.2051 72.7138 50.039 73.4155 49.4041 73.5869C48.8262 73.7446 48.3501 73.2115 48.1368 72.5669C48.0971 72.4472 48.1765 72.2541 48.293 72.3221Z" fill="#263238"/>
<path d="M39.1539 72.2405C37.5642 72.1072 37.4179 75.9642 38.8836 76.0893C40.3493 76.2144 40.4832 72.352 39.1539 72.2405Z" fill="#263238"/>
<path d="M38.7102 72.3221C38.4176 72.4826 38.1175 72.7954 37.7827 72.7926C37.3983 72.7926 37.1429 72.3982 36.9271 72.0229C36.9048 71.9848 36.875 72.0229 36.8701 72.0555C36.7981 72.7138 36.9643 73.4155 37.5992 73.5869C38.177 73.7446 38.6532 73.2115 38.8665 72.5669C38.9061 72.4472 38.8268 72.2541 38.7102 72.3221Z" fill="#263238"/>
<path d="M47.0428 90.032C45.6764 89.9096 44.3148 90.1027 42.9508 89.9259C41.63 89.7495 40.3315 89.411 39.0796 88.9168C37.7346 88.4316 36.4762 87.6955 35.3596 86.7408C35.2876 86.6755 35.3025 86.7245 35.3596 86.7979C36.2553 87.7771 37.31 88.564 38.4695 89.1181C39.5913 89.6948 40.7743 90.116 41.9911 90.372C43.2393 90.6255 44.5104 90.7168 45.778 90.644C47.2214 90.5733 48.94 90.4101 49.88 91.8925C49.9048 91.9306 49.9618 91.8925 49.9395 91.8544C49.3889 90.6875 48.196 90.1381 47.0428 90.032Z" fill="#263238"/>
<path d="M54.2573 90.3747C54.4091 89.8265 54.67 89.322 55.0212 88.8978C55.378 88.4807 55.7746 88.1068 56.2041 87.7826C57.0448 87.1243 57.9004 86.5368 58.704 85.8595C59.5332 85.2508 60.2606 84.4899 60.8541 83.6101C61.4153 82.6811 61.9302 81.7196 62.3967 80.7296C62.1075 81.8185 61.6995 82.8651 61.1815 83.8467C60.907 84.3424 60.578 84.7992 60.2019 85.2067C59.8225 85.5971 59.4207 85.9605 58.9991 86.2947C58.167 86.9527 57.3053 87.5645 56.4174 88.128C55.98 88.4058 55.5651 88.7243 55.1774 89.08C54.8014 89.4466 54.4896 89.8854 54.2573 90.3747Z" fill="#263238"/>
<path d="M32.8798 68.1224C33.5575 68.1036 34.2039 67.8055 34.6902 67.2874C35.6996 66.2238 35.7814 65.2202 35.7814 65.2202C36.885 64.3797 37.7232 62.8266 37.4802 61.3877C38.1203 61.5284 38.7827 61.4848 39.4029 61.2613C40.0231 61.0377 40.5799 60.6417 41.0192 60.112C41.9219 64.192 46.7752 65.8784 50.0216 63.648C50.158 65.3099 50.6168 66.9963 51.7328 68.1741C52.8054 69.3165 54.1555 70.0956 55.6214 70.4181C55.6202 70.4262 55.6202 70.4345 55.6214 70.4426C54.86 73.5434 57.7344 76.179 60.4078 75.5806C60.6597 75.5516 60.9087 75.4979 61.1518 75.4202C62.4464 74.9904 63.7112 74.2886 64.2344 72.8552C64.5557 71.9428 64.5675 70.9341 64.2675 70.0129C63.9675 69.0918 63.3758 68.3195 62.6001 67.8368C63.1368 67.2559 63.4781 66.4926 63.5682 65.6715C63.6583 64.8504 63.4919 64.0201 63.0961 63.3162C62.5753 62.405 61.3254 61.9725 61.2014 60.8872C61.0887 59.6741 60.6186 58.5344 59.8623 57.6406C59.106 56.7469 58.1048 56.1478 57.0102 55.9341C56.4118 55.8595 55.8464 55.5948 55.3833 55.1725C55.0845 54.8787 54.7689 54.6061 54.4384 54.3565C53.1366 53.4274 51.5928 52.9926 50.0439 53.1189C49.1362 53.195 48.2335 53.6928 47.3332 53.4154C46.552 53.176 44.0919 53.3718 43.2908 53.5677C39.799 54.419 38.3631 56.1734 38.3631 56.1734C38.3631 56.1734 36.5328 56.595 34.9952 58.9941C33.5246 61.2843 33.5072 62.5301 33.5072 62.5301C33.3088 63.1533 33.0744 63.762 32.8054 64.3525C31.9002 65.8838 32.7831 68.1251 32.8798 68.1224ZM55.6611 70.5976C56.1075 72.896 56.782 73.9514 57.6203 74.6776C56.3133 73.8534 55.4106 72.3846 55.6611 70.5976ZM41.3416 60.199C41.8019 61.2046 42.4698 62.0785 43.2921 62.7514C44.1144 63.4242 45.0684 63.8774 46.0784 64.075C43.9728 63.8629 42.1426 62.6797 41.3416 60.199Z" fill="#263238"/>
<path d="M55.9858 75.4718C55.9858 75.4718 58.069 70.3909 60.673 70.0482C63.4258 69.6837 64.393 75.1346 62.657 77.5826C60.6334 80.4522 57.1564 79.7586 57.1564 79.7586L55.9858 75.4718Z" fill="#AD6359"/>
<path d="M60.0704 73.3448C60.4367 72.9157 60.8489 72.5367 61.298 72.216C61.35 72.1806 61.298 72.0827 61.2434 72.1126C59.3338 73.168 57.6871 75.616 58.1558 78.064C58.1589 78.0821 58.1677 78.0984 58.1806 78.1101C58.1935 78.1219 58.2097 78.1283 58.2265 78.1283C58.2433 78.1283 58.2595 78.1219 58.2724 78.1101C58.2853 78.0984 58.2941 78.0821 58.2972 78.064C58.3319 77.8382 58.3641 77.6179 58.3988 77.3976C58.7014 76.7666 58.9742 76.1954 59.5124 75.733C60.0275 75.2873 60.6443 75.0051 61.2955 74.917C61.3724 74.917 61.3525 74.7891 61.2781 74.7891C60.7706 74.8019 60.2714 74.9332 59.8139 75.1743C59.3563 75.4154 58.9508 75.7607 58.6245 76.1872C58.7536 75.6154 58.9548 75.0661 59.2222 74.5552C59.4642 74.1101 59.7485 73.6943 60.0704 73.3149" fill="#263238"/>
<path d="M57.7194 79.6144C57.7167 79.6157 57.7145 79.6178 57.7129 79.6204C57.7113 79.6231 57.7104 79.6262 57.7104 79.6294C57.7104 79.6325 57.7113 79.6356 57.7129 79.6383C57.7145 79.641 57.7167 79.643 57.7194 79.6443C57.722 79.643 57.7243 79.641 57.7259 79.6383C57.7275 79.6356 57.7283 79.6325 57.7283 79.6294C57.7283 79.6262 57.7275 79.6231 57.7259 79.6204C57.7243 79.6178 57.722 79.6157 57.7194 79.6144Z" fill="#263238"/>
<path d="M61.7246 82.3589C61.8932 83.1232 63.2473 79.9408 63.2473 79.5274C63.2473 79.1139 64.3261 77.5717 64.4873 76.7149C64.6485 75.8581 64.7725 73.4509 64.6907 72.9069C64.6088 72.3629 65.1445 70.7744 64.8965 69.8523C64.6485 68.9302 62.1462 60.7866 55.6461 56.8507C49.146 52.9149 44.5679 53.9784 44.5679 53.9784C42.2126 54.3124 39.8975 54.9271 37.6636 55.8117C34.0527 57.2587 31.2479 68.4107 31.29 68.6229C31.3322 68.835 31.7488 69.3981 31.7265 70.021C31.7042 70.6438 31.295 71.4136 31.7265 71.8678C32.158 72.3221 31.786 73.9595 31.9497 74.5416C32.1134 75.1237 32.2944 75.227 32.3043 75.6541C32.3143 76.0811 31.3347 65.28 41.6639 58.1318C41.6639 58.1318 58.074 65.9491 61.7246 82.3589Z" fill="#FFC727"/>
<path d="M32.2944 75.5453C32.2984 75.5841 32.2984 75.6234 32.2944 75.6622C32.3044 75.6976 32.2994 75.6568 32.2944 75.5453Z" fill="#FFC727"/>
<path d="M32.2944 75.5453C32.2983 75.5842 32.2983 75.6234 32.2944 75.6622C32.3044 75.6976 32.2994 75.6568 32.2944 75.5453Z" fill="#FFC727"/>
<path opacity="0.3" d="M34.668 63.2808C34.6751 63.5395 34.5979 63.7925 34.4502 63.9944C34.3025 64.1962 34.0941 64.3338 33.8623 64.3823C33.6305 64.4307 33.3905 64.387 33.1855 64.2589C32.9804 64.1308 32.8237 63.9268 32.7435 63.6834C32.9047 63.2237 33.0808 62.7558 33.2668 62.2826C33.4188 62.2071 33.5857 62.1748 33.752 62.1888C33.9184 62.2029 34.0788 62.2627 34.2185 62.3627C34.3582 62.4628 34.4726 62.5999 34.5512 62.7613C34.6297 62.9227 34.6699 63.1033 34.668 63.2862V63.2808ZM38.2293 59.8536C37.9662 59.8536 37.7139 59.9682 37.5278 60.1723C37.3418 60.3763 37.2373 60.653 37.2373 60.9416C37.2359 61.0951 37.2641 61.2471 37.3201 61.3877C37.3761 61.5284 37.4586 61.6544 37.5621 61.7576C38.0085 61.2544 38.4921 60.7566 39.0154 60.2698C38.922 60.1392 38.8026 60.0339 38.6663 59.9617C38.5301 59.8896 38.3806 59.8526 38.2293 59.8536ZM33.304 67.3472C33.0409 67.3292 32.782 67.4265 32.5844 67.6178C32.3867 67.8091 32.2664 68.0786 32.25 68.3672C32.2335 68.6558 32.3223 68.9397 32.4967 69.1564C32.6711 69.3732 32.9169 69.5052 33.18 69.5232C33.3857 68.8545 33.6233 68.1981 33.8917 67.5566C33.7217 67.4187 33.5154 67.3452 33.304 67.3472ZM51.0583 54.7128C50.9735 54.8789 50.9299 55.0665 50.9318 55.2568C50.9095 55.5454 50.9925 55.8318 51.1628 56.0532C51.333 56.2746 51.5764 56.4128 51.8395 56.4373C52.1026 56.4618 52.3638 56.3707 52.5657 56.184C52.7675 55.9973 52.8935 55.7303 52.9158 55.4418C52.2661 55.1426 51.6461 54.9086 51.0583 54.7128ZM54.0641 63.2808C53.8679 63.2808 53.6761 63.3446 53.5129 63.4642C53.3498 63.5837 53.2227 63.7536 53.1476 63.9524C53.0725 64.1512 53.0529 64.37 53.0911 64.5811C53.1294 64.7921 53.2239 64.986 53.3626 65.1381C53.5013 65.2903 53.6781 65.3939 53.8705 65.4359C54.063 65.4779 54.2624 65.4563 54.4437 65.374C54.625 65.2916 54.7799 65.1522 54.8889 64.9733C54.9979 64.7943 55.0561 64.584 55.0561 64.3688C55.0561 64.0802 54.9516 63.8035 54.7655 63.5995C54.5795 63.3954 54.3272 63.2808 54.0641 63.2808ZM40.0917 54.9766C39.5139 55.1507 38.9013 55.352 38.2764 55.5859C38.2764 55.8745 38.3809 56.1512 38.5669 56.3553C38.753 56.5593 39.0053 56.6739 39.2684 56.6739C39.5315 56.6739 39.7838 56.5593 39.9698 56.3553C40.1559 56.1512 40.2604 55.8745 40.2604 55.5859C40.2601 55.3686 40.2005 55.1564 40.0893 54.9766H40.0917ZM45.084 55.2486C44.8878 55.2486 44.696 55.3125 44.5329 55.432C44.3697 55.5516 44.2426 55.7215 44.1675 55.9203C44.0924 56.1191 44.0728 56.3378 44.111 56.5489C44.1493 56.7599 44.2438 56.9538 44.3825 57.106C44.5213 57.2581 44.698 57.3618 44.8905 57.4037C45.0829 57.4457 45.2823 57.4242 45.4636 57.3418C45.6449 57.2595 45.7998 57.12 45.9088 56.9411C46.0178 56.7622 46.076 56.5518 46.076 56.3366C46.0763 56.1933 46.0508 56.0513 46.001 55.9188C45.9511 55.7863 45.8778 55.6659 45.7854 55.5646C45.693 55.4632 45.5833 55.3829 45.4625 55.3282C45.3417 55.2735 45.2122 55.2456 45.0815 55.2459L45.084 55.2486ZM49.1537 59.4538C48.9575 59.4538 48.7657 59.5176 48.6025 59.6371C48.4394 59.7567 48.3123 59.9266 48.2372 60.1254C48.1621 60.3242 48.1424 60.543 48.1807 60.754C48.219 60.9651 48.3135 61.1589 48.4522 61.3111C48.5909 61.4633 48.7677 61.5669 48.9601 61.6089C49.1526 61.6508 49.352 61.6293 49.5333 61.5469C49.7146 61.4646 49.8695 61.3251 49.9785 61.1462C50.0875 60.9673 50.1457 60.7569 50.1457 60.5418C50.146 60.3984 50.1205 60.2564 50.0706 60.1239C50.0208 59.9914 49.9475 59.8711 49.8551 59.7697C49.7627 59.6684 49.6529 59.588 49.5321 59.5333C49.4113 59.4786 49.2819 59.4507 49.1512 59.451L49.1537 59.4538ZM56.6457 58.3658C56.4495 58.3658 56.2578 58.4296 56.0946 58.5491C55.9315 58.6687 55.8043 58.8386 55.7293 59.0374C55.6542 59.2362 55.6345 59.455 55.6728 59.666C55.7111 59.8771 55.8056 60.0709 55.9443 60.2231C56.083 60.3753 56.2598 60.4789 56.4522 60.5209C56.6446 60.5628 56.8441 60.5413 57.0254 60.4589C57.2066 60.3766 57.3616 60.2371 57.4706 60.0582C57.5796 59.8793 57.6377 59.6689 57.6377 59.4538C57.6387 59.31 57.6137 59.1674 57.5641 59.0343C57.5146 58.9011 57.4414 58.7801 57.349 58.6782C57.2565 58.5762 57.1465 58.4954 57.0254 58.4404C56.9042 58.3854 56.7744 58.3572 56.6433 58.3576L56.6457 58.3658ZM58.8108 66.3462C58.6146 66.3462 58.4228 66.41 58.2597 66.5296C58.0965 66.6491 57.9694 66.8191 57.8943 67.0179C57.8192 67.2167 57.7996 67.4354 57.8378 67.6465C57.8761 67.8575 57.9706 68.0514 58.1093 68.2036C58.2481 68.3557 58.4248 68.4594 58.6173 68.5013C58.8097 68.5433 59.0091 68.5218 59.1904 68.4394C59.3717 68.3571 59.5266 68.2176 59.6356 68.0387C59.7446 67.8598 59.8028 67.6494 59.8028 67.4342C59.8038 67.2904 59.7788 67.1479 59.7292 67.0147C59.6796 66.8816 59.6065 66.7606 59.514 66.6587C59.4215 66.5567 59.3115 66.4759 59.1904 66.4209C59.0693 66.3659 58.9394 66.3377 58.8083 66.3381L58.8108 66.3462ZM61.1593 78.4394C60.9702 78.4385 60.785 78.4981 60.6261 78.6107C60.8741 79.2635 61.0849 79.9354 61.2784 80.6208C61.5415 80.6035 61.7875 80.4723 61.9624 80.256C62.1373 80.0397 62.2267 79.7561 62.2109 79.4675C62.1951 79.179 62.0754 78.9091 61.8782 78.7173C61.681 78.5255 61.4224 78.4275 61.1593 78.4448V78.4394ZM56.6433 70.72C56.5656 70.7202 56.4882 70.7303 56.4126 70.7499C56.7896 71.2703 57.1541 71.8062 57.5063 72.3574C57.595 72.1927 57.6412 72.0047 57.6402 71.8134C57.6409 71.6696 57.6155 71.5271 57.5657 71.3941C57.5158 71.2612 57.4424 71.1403 57.3497 71.0386C57.257 70.937 57.1468 70.8565 57.0256 70.8018C56.9043 70.7471 56.7744 70.7193 56.6433 70.72ZM61.2337 62.288C61.101 62.3539 60.9832 62.451 60.8885 62.5724C60.7939 62.6939 60.7248 62.8367 60.6862 62.9908C60.6476 63.1448 60.6404 63.3063 60.6651 63.4637C60.6898 63.6212 60.7458 63.7707 60.8291 63.9018C60.9125 64.0328 61.0211 64.1421 61.1473 64.2219C61.2735 64.3016 61.4142 64.35 61.5594 64.3634C61.7045 64.3768 61.8506 64.355 61.9872 64.2995C62.1238 64.2441 62.2476 64.1563 62.3497 64.0424C62.0149 63.4494 61.6429 62.8592 61.2337 62.269V62.288ZM61.6181 72.0229C61.4219 72.0229 61.2302 72.0867 61.067 72.2062C60.9039 72.3258 60.7767 72.4957 60.7017 72.6945C60.6266 72.8933 60.6069 73.1121 60.6452 73.3231C60.6835 73.5342 60.778 73.7281 60.9167 73.8802C61.0554 74.0324 61.2322 74.136 61.4246 74.178C61.617 74.22 61.8165 74.1984 61.9978 74.1161C62.179 74.0337 62.334 73.8943 62.443 73.7153C62.552 73.5364 62.6101 73.3261 62.6101 73.1109C62.6125 72.9664 62.5885 72.8229 62.5397 72.6887C62.4909 72.5545 62.4181 72.4323 62.3258 72.3292C62.2335 72.2261 62.1233 72.1443 62.0018 72.0884C61.8803 72.0326 61.7499 72.0038 61.6181 72.0038V72.0229ZM64.2717 74.955C64.2716 75.1093 64.3014 75.2619 64.3591 75.4025C64.4168 75.5432 64.5012 75.6688 64.6065 75.771C64.6537 75.227 64.6909 74.5933 64.7082 74.0547C64.5764 74.1524 64.4678 74.2835 64.3919 74.4369C64.3159 74.5903 64.2747 74.7615 64.2717 74.936V74.955ZM64.0485 67.4805C63.9191 67.4966 63.7938 67.5404 63.6798 67.6096C63.5658 67.6788 63.4653 67.7719 63.3842 67.8837C63.303 67.9955 63.2427 68.1237 63.2067 68.261C63.1707 68.3983 63.1597 68.5421 63.1743 68.6841C63.189 68.8261 63.229 68.9635 63.2921 69.0885C63.3552 69.2135 63.4401 69.3237 63.542 69.4128C63.6439 69.5018 63.7608 69.5679 63.886 69.6074C64.0112 69.6469 64.1423 69.659 64.2717 69.6429C64.4469 69.6417 64.6184 69.5881 64.7677 69.4878C64.6462 69.0363 64.4081 68.3318 64.0485 67.456V67.4805Z" fill="white"/>
<path opacity="0.1" d="M63.2399 79.5274C63.1253 78.7616 62.9426 78.01 62.6943 77.2834C62.4711 76.5462 62.2256 75.82 61.9751 75.0938C61.4791 73.644 60.9583 72.197 60.3879 70.7798C60.2465 70.4262 60.1077 70.0645 59.9465 69.7299C59.7649 69.4092 59.5511 69.1118 59.3091 68.8432C58.8329 68.2774 58.3171 67.7552 57.8037 67.2112C57.2904 66.6672 56.7671 66.1531 56.2413 65.6336L54.6641 64.0723C55.7834 65.0279 56.8729 66.0253 57.9327 67.0643C58.4659 67.5784 58.9817 68.1142 59.4753 68.68C59.734 68.961 59.962 69.2741 60.1548 69.613C60.3284 69.9638 60.4697 70.3202 60.6136 70.6765C61.1691 72.109 61.6825 73.5597 62.1537 75.0285C62.3843 75.7656 62.61 76.5027 62.8084 77.248C62.9076 77.6234 63.0018 77.9987 63.0812 78.3795C63.1697 78.7552 63.2229 79.1398 63.2399 79.5274Z" fill="#050400"/>
<path opacity="0.1" d="M58.5454 64.3742C59.9667 65.393 61.2563 66.6171 62.3795 68.0136C62.9481 68.7121 63.4469 69.4754 63.8675 70.2902C64.2899 71.1018 64.5732 71.9915 64.7032 72.915C64.6388 72.692 64.5768 72.4717 64.5197 72.2514C64.4921 72.1398 64.4547 72.0314 64.4081 71.9277L64.2841 71.6122C64.242 71.5061 64.2072 71.4 64.1626 71.2966L64.0138 70.992C63.9096 70.7934 63.8253 70.584 63.7038 70.3936L63.364 69.817L62.992 69.2594C62.873 69.0717 62.744 68.8976 62.6052 68.7154C62.4663 68.5331 62.3448 68.3563 62.2009 68.1877C61.6542 67.4931 61.0747 66.8304 60.4649 66.2021C60.1624 65.8811 59.8499 65.5738 59.53 65.2691C59.21 64.9645 58.8728 64.668 58.5454 64.3742Z" fill="#050400"/>
<path opacity="0.1" d="M31.7266 69.5232C31.9034 68.6603 32.1524 67.8172 32.4706 67.0045C32.7632 66.1885 33.0856 65.3725 33.4179 64.5755C33.744 63.7661 34.1073 62.9753 34.5066 62.2064C34.9376 61.4551 35.4684 60.7785 36.0814 60.199C35.8108 60.5228 35.5575 60.8634 35.3226 61.219C35.0828 61.565 34.8649 61.9285 34.6703 62.307C34.4818 62.6878 34.3157 63.085 34.147 63.4848L33.651 64.6816L32.659 67.0806C32.4904 67.4805 32.3317 67.8966 32.163 68.2883C31.994 68.6895 31.8482 69.1019 31.7266 69.5232Z" fill="#050400"/>
<path opacity="0.1" d="M31.8901 72.235C31.9619 71.6041 32.0712 70.979 32.2175 70.3637C32.3534 69.7453 32.519 69.1351 32.7135 68.5358C32.8137 68.2332 32.9296 67.9372 33.0607 67.6491C33.2021 67.3771 33.336 67.0915 33.4848 66.8168L33.9163 66.0008C34.0701 65.7288 34.2139 65.4568 34.3726 65.1848C34.2635 65.4786 34.1395 65.7669 34.0254 66.0579L33.6534 66.9147C33.5319 67.203 33.4054 67.4832 33.2715 67.7661C33.1494 68.0479 33.041 68.3367 32.9466 68.631C32.7457 69.2213 32.5721 69.8224 32.3911 70.4235C32.3018 70.7227 32.215 71.0246 32.1307 71.3293C32.0513 71.6258 31.972 71.9304 31.8901 72.235Z" fill="#050400"/>
<path opacity="0.1" d="M54.3119 56.1082C52.6578 57.5987 48.8559 60.9498 47.8416 61.181C47.4947 61.244 47.1441 61.2785 46.7926 61.2843C45.159 60.0913 43.4444 59.0374 41.6639 58.1318C40.4601 58.9571 39.33 59.9052 38.2886 60.9634C37.0195 60.5381 35.7891 59.9844 34.6133 59.3096C35.511 57.6286 36.5452 56.2659 37.6562 55.8198C39.8901 54.9353 42.2052 54.3206 44.5606 53.9866C44.5606 53.9866 48.5261 53.0699 54.3119 56.1082Z" fill="#050400"/>
<path d="M41.7306 55.6485C41.7306 55.6485 36.4978 51.5277 31.1162 53.244C31.1162 53.244 33.4499 58.7384 35.9572 59.7502C37.1972 60.2534 41.3735 58.7928 41.5645 57.8462C41.6876 57.1217 41.7432 56.3853 41.7306 55.6485Z" fill="#FFC727"/>
<path opacity="0.3" d="M36.173 53.0862C36.0791 53.2812 35.9333 53.4402 35.7552 53.5423C35.577 53.6444 35.3747 53.6847 35.1751 53.6578C34.9756 53.631 34.7882 53.5383 34.6378 53.392C34.4874 53.2457 34.381 53.0528 34.3328 52.8387C34.9513 52.867 35.5666 52.9498 36.173 53.0862ZM33.693 56.6222C33.4612 56.6217 33.2366 56.7103 33.0581 56.8725C33.4426 57.4687 33.8724 58.0283 34.3427 58.5453C34.4504 58.4443 34.537 58.3193 34.5969 58.1785C34.6568 58.0378 34.6885 57.8846 34.6899 57.7293C34.6926 57.5853 34.6691 57.4421 34.6209 57.3081C34.5727 57.1741 34.5007 57.052 34.4091 56.9487C34.3175 56.8455 34.2082 56.7632 34.0873 56.7067C33.9665 56.6502 33.8367 56.6206 33.7054 56.6195L33.693 56.6222ZM39.2556 54.5034C39.0594 54.5034 38.8676 54.5672 38.7045 54.6867C38.5414 54.8063 38.4142 54.9762 38.3391 55.175C38.2641 55.3738 38.2444 55.5926 38.2827 55.8036C38.321 56.0147 38.4154 56.2085 38.5542 56.3607C38.6929 56.5128 38.8697 56.6165 39.0621 56.6585C39.2545 56.7004 39.454 56.6789 39.6352 56.5965C39.8165 56.5142 39.9714 56.3747 40.0804 56.1958C40.1894 56.0169 40.2476 55.8065 40.2476 55.5914C40.2483 55.3047 40.1458 55.0293 39.9623 54.825C39.7789 54.6208 39.5294 54.5042 39.268 54.5006L39.2556 54.5034Z" fill="white"/>
<path opacity="0.1" d="M41.7331 55.6512C41.7409 56.3808 41.6844 57.1095 41.5645 57.8272C41.5593 57.8719 41.543 57.9143 41.5174 57.9496C41.4969 58.0001 41.4683 58.0461 41.4331 58.0856C41.4058 58.1101 41.3835 58.1427 41.3463 58.1754C40.9619 58.5806 40.1063 59.005 39.1713 59.3232C38.9715 58.4457 38.847 57.5496 38.7993 56.6467C38.7819 55.9422 39.2432 55.1126 39.7491 54.4082C40.4416 54.7596 41.1054 55.1755 41.7331 55.6512Z" fill="#050400"/>
<path d="M43.2782 55.8389C43.2782 55.8389 49.9743 51.3482 54.0613 51.4706C54.0613 51.4706 53.7439 56.421 50.5471 59.0866C49.1162 60.2752 43.1989 59.2334 43.1071 58.1944C43.064 57.4043 43.1216 56.6115 43.2782 55.8389Z" fill="#FFC727"/>
<path opacity="0.3" d="M52.9281 55.2459C52.9281 55.4611 52.8699 55.6715 52.7609 55.8504C52.6519 56.0293 52.497 56.1688 52.3157 56.2511C52.1344 56.3334 51.935 56.355 51.7425 56.313C51.5501 56.271 51.3734 56.1674 51.2346 56.0153C51.0959 55.8631 51.0014 55.6692 50.9631 55.4582C50.9249 55.2471 50.9445 55.0284 51.0196 54.8296C51.0947 54.6308 51.2218 54.4608 51.385 54.3413C51.5481 54.2217 51.7399 54.1579 51.9361 54.1579C52.1992 54.1579 52.4515 54.2725 52.6375 54.4766C52.8236 54.6806 52.9281 54.9574 52.9281 55.2459ZM45.0814 55.2459C44.8852 55.2459 44.6934 55.3097 44.5302 55.4293C44.3671 55.5488 44.24 55.7188 44.1649 55.9176C44.0898 56.1164 44.0701 56.3351 44.1084 56.5462C44.1467 56.7572 44.2412 56.9511 44.3799 57.1033C44.5186 57.2554 44.6954 57.359 44.8878 57.401C45.0803 57.443 45.2797 57.4214 45.461 57.3391C45.6422 57.2568 45.7972 57.1173 45.9062 56.9384C46.0152 56.7595 46.0734 56.5491 46.0734 56.3339C46.0734 56.0454 45.9688 55.7686 45.7828 55.5646C45.5968 55.3605 45.3445 55.2459 45.0814 55.2459ZM49.151 59.451C48.9816 59.4501 48.8148 59.498 48.6674 59.5898C48.9292 59.5768 49.1901 59.5468 49.4486 59.5C49.3523 59.4672 49.2519 59.4507 49.151 59.451Z" fill="white"/>
<path opacity="0.1" d="M44.8235 54.876C45.2327 55.5451 45.7014 56.5542 45.6865 57.5307C45.6498 58.1322 45.4968 58.7182 45.2377 59.2498C44.0497 58.9778 43.1445 58.5806 43.0999 58.1618C43.0619 57.3767 43.122 56.5897 43.2785 55.8226C43.2785 55.8226 43.8737 55.4336 44.8235 54.876Z" fill="#050400"/>
<path d="M44.7042 57.2723C44.6623 57.8228 44.4725 58.3472 44.1589 58.7794C43.8453 59.2116 43.4219 59.5321 42.9422 59.7004C42.4625 59.8687 41.9481 59.8773 41.464 59.725C40.9798 59.5727 40.5478 59.2665 40.2223 58.8449C39.8969 58.4234 39.6927 57.9054 39.6356 57.3566C39.5785 56.8078 39.671 56.2528 39.9014 55.7616C40.1319 55.2705 40.4899 54.8653 40.9303 54.5973C41.3706 54.3292 41.8736 54.2104 42.3755 54.2558C43.0489 54.3175 43.6724 54.6698 44.1091 55.2355C44.5458 55.8011 44.7598 56.5337 44.7042 57.2723Z" fill="#FFC727"/>
</svg>
