<svg width="42" height="52" viewBox="0 0 42 52" fill="none" xmlns="http://www.w3.org/2000/svg">
<path d="M5.15894 18.7407V30.5554C5.21383 30.8761 5.40898 31.1646 5.70214 31.3586L10.1059 33.6084V35.3422L4.00464 32.2272C3.71331 32.0321 3.51917 31.7439 3.46338 31.424V17.8738L5.15894 18.7407Z" fill="#E6E6E6"/>
<path d="M1.27686 14.5164L2.97242 13.6564C3.78334 13.2419 4.77274 13.2746 5.68842 13.7441L10.1058 15.9939V19.5371L5.15879 17.0052V18.739L3.46324 17.879V31.4292C3.51903 31.7491 3.71317 32.0372 4.0045 32.2324L10.1058 35.3473V37.1499L3.99286 34.0281C3.31348 33.6654 2.74748 33.1575 2.34656 32.5509C1.94565 31.9442 1.72261 31.2582 1.69784 30.5554V15.7789C1.69092 15.3626 1.7925 14.9506 1.99466 14.5749L1.27686 14.5164Z" fill="#F5F5F5"/>
<path d="M1.27701 14.5164C1.56787 14.3662 1.89107 14.2719 2.22567 14.2395C2.84464 14.1896 3.46534 14.3168 3.99689 14.6024L10.1059 17.7294V21.2743L5.15895 18.7407L3.46339 17.8807V31.4309C3.51918 31.7508 3.71332 32.0389 4.00465 32.2341L10.1059 35.349V38.8905L2.29551 34.895C1.61653 34.5323 1.05079 34.0247 0.649904 33.4184C0.249021 32.8121 0.0257587 32.1264 0.000488281 31.424V16.6492C0.000488281 15.7066 0.466088 14.9309 1.27701 14.5164Z" fill="#F0F0F0"/>
<path d="M1.16255 25.545C1.26203 25.545 1.35746 25.5101 1.42799 25.4479C1.49851 25.3857 1.53839 25.3013 1.53891 25.2131V16.8332C1.53888 16.6793 1.58465 16.5281 1.67158 16.3948C1.7585 16.2616 1.88353 16.151 2.03404 16.0742C2.18455 15.9975 2.35523 15.9573 2.52886 15.9577C2.70249 15.958 2.87293 15.999 3.02301 16.0764C3.10893 16.1221 3.21178 16.1355 3.30892 16.1139C3.40606 16.0923 3.48953 16.0374 3.54099 15.9612C3.59244 15.885 3.60765 15.7938 3.58327 15.7077C3.5589 15.6216 3.49693 15.5476 3.41101 15.502C3.1464 15.3669 2.84648 15.2957 2.54116 15.2955C2.23585 15.2953 1.93581 15.3661 1.67099 15.5009C1.40617 15.6356 1.18582 15.8295 1.03193 16.0633C0.878032 16.2971 0.795977 16.5626 0.793945 16.8332V25.2131C0.79443 25.3001 0.83324 25.3835 0.902098 25.4455C0.970956 25.5075 1.06441 25.5432 1.16255 25.545Z" fill="#FAFAFA"/>
<path d="M4.21615 16.6492C4.4283 16.6492 4.60027 16.4967 4.60027 16.3086C4.60027 16.1206 4.4283 15.9681 4.21615 15.9681C4.00401 15.9681 3.83203 16.1206 3.83203 16.3086C3.83203 16.4967 4.00401 16.6492 4.21615 16.6492Z" fill="#FAFAFA"/>
<path d="M41.1305 8.47404V43.4795C41.1305 45.6484 39.5145 47.8173 36.2805 49.472C29.8164 52.7812 19.3346 52.7812 12.8686 49.472C9.63651 47.8173 8.01855 45.6484 8.01855 43.4795V8.47404H41.1305Z" fill="#E0E0E0"/>
<path d="M9.77404 12.2735C10.6641 13.1523 11.7132 13.8934 12.878 14.4665C19.3441 17.7758 29.8259 17.7758 36.2919 14.4665C37.4533 13.8926 38.499 13.1515 39.3862 12.2735C42.4902 9.0984 41.4698 5.13036 36.2919 2.48328C29.8259 -0.827719 19.3441 -0.827719 12.878 2.48328C7.69048 5.13036 6.66034 9.0984 9.77404 12.2735Z" fill="#EBEBEB"/>
<path d="M9.77633 13.1077C9.80931 11.4428 11.2139 9.81564 13.7456 8.51876C16.6109 7.05332 20.456 6.24492 24.5746 6.24492C28.6933 6.24492 32.5403 7.05332 35.4037 8.51876C37.9374 9.81564 39.3419 11.4428 39.373 13.1077V39.606C39.373 41.068 37.9626 42.4991 35.3998 43.6377C32.5364 44.9088 28.6894 45.6106 24.5708 45.6106C20.4521 45.6106 16.6071 44.9088 13.7417 43.6377C11.1809 42.4991 9.77051 41.068 9.77051 39.606V13.1077H9.77633Z" fill="#FFC727"/>
<path opacity="0.1" d="M9.77633 13.1077C9.80931 11.4428 11.2139 9.81564 13.7456 8.51876C16.6109 7.05332 20.456 6.24492 24.5746 6.24492C28.6933 6.24492 32.5403 7.05332 35.4037 8.51876C37.9374 9.81564 39.3419 11.4428 39.373 13.1077V39.606C39.373 41.068 37.9626 42.4991 35.3998 43.6377C32.5364 44.9088 28.6894 45.6106 24.5708 45.6106C20.4521 45.6106 16.6071 44.9088 13.7417 43.6377C11.1809 42.4991 9.77051 41.068 9.77051 39.606V13.1077H9.77633Z" fill="black"/>
<path d="M9.77441 41.7457V43.8802C9.77441 45.3422 11.1848 46.7733 13.7456 47.9102C15.3148 48.5875 16.9773 49.0796 18.6907 49.3739C20.6275 49.7205 22.5988 49.8934 24.5747 49.8899C28.6933 49.8899 32.5403 49.1899 35.4057 47.9171C36.6861 47.3478 37.6774 46.7131 38.3526 46.0251C39.0277 45.3371 39.3769 44.6198 39.3769 43.8888V41.7457C39.3769 42.4767 39.0238 42.7571 38.3526 43.4382C37.6813 44.1193 36.6861 44.7626 35.4057 45.3302C32.5403 46.603 28.6933 47.303 24.5747 47.303C22.5988 47.3065 20.6275 47.1336 18.6907 46.787C16.9782 46.4963 15.3159 46.0089 13.7456 45.3371C11.1848 44.195 9.77441 43.206 9.77441 41.7457Z" fill="#EBEBEB"/>
<path d="M9.77441 8.47404C9.79548 9.3234 10.1202 10.1449 10.7017 10.8201C11.373 9.98936 12.3992 9.20848 13.7456 8.51876C16.611 7.05332 20.4561 6.24492 24.5747 6.24492C28.6933 6.24492 32.5403 7.05332 35.4057 8.51876C36.7501 9.20676 37.7783 9.98936 38.4496 10.8201C39.0311 10.1449 39.3558 9.3234 39.3769 8.47404C39.3769 6.79016 37.9665 5.13896 35.4057 3.83004C32.5403 2.3646 28.6933 1.55792 24.5747 1.55792C20.4561 1.55792 16.611 2.3646 13.7456 3.83004C11.1848 5.13896 9.77441 6.79016 9.77441 8.47404Z" fill="#E0E0E0"/>
<path d="M9.7763 11.2329C9.79004 10.7689 9.90259 10.3114 10.108 9.88444C10.0338 9.76741 9.98693 9.63827 9.97039 9.50478C9.95385 9.37129 9.96793 9.23621 10.0118 9.10767C10.0556 8.97913 10.1284 8.85978 10.2256 8.7568C10.3228 8.65383 10.4425 8.56934 10.5775 8.50844C10.343 8.19671 10.2412 7.82121 10.2903 7.44904C10.3394 7.07688 10.5361 6.73232 10.8454 6.47695C11.1547 6.22158 11.5563 6.07203 11.9785 6.05505C12.4006 6.03807 12.8159 6.15475 13.15 6.38424C13.1418 6.3381 13.1366 6.29159 13.1344 6.24492C13.1338 6.0552 13.1936 5.86918 13.3071 5.70832C13.4205 5.54745 13.5829 5.41831 13.7756 5.33577C13.9683 5.25323 14.1834 5.22067 14.396 5.24185C14.6087 5.26302 14.8102 5.33707 14.9774 5.45544C14.8705 5.01205 14.9349 4.54966 15.1602 4.14262C15.3855 3.73557 15.7586 3.40753 16.2196 3.21121C16.6806 3.0149 17.2027 2.96172 17.7018 3.06023C18.201 3.15875 18.6484 3.40322 18.9719 3.75436C19.0837 3.47379 19.2828 3.22699 19.5461 3.04247C19.8094 2.85795 20.1263 2.74324 20.46 2.71158C20.7937 2.67993 21.1307 2.73262 21.4321 2.86357C21.7335 2.99453 21.987 3.1984 22.1632 3.45164C22.4093 3.07723 22.7619 2.76657 23.1857 2.55065C23.6095 2.33473 24.0897 2.22111 24.5785 2.22111C25.0673 2.22111 25.5475 2.33473 25.9713 2.55065C26.3951 2.76657 26.7477 3.07723 26.9938 3.45164C27.1704 3.19938 27.4237 2.99644 27.7246 2.86615C28.0255 2.73586 28.3618 2.68352 28.6948 2.71514C29.0278 2.74676 29.3439 2.86107 29.6069 3.04491C29.8698 3.22875 30.0689 3.47466 30.1812 3.75436C30.5051 3.40418 30.9522 3.16058 31.4509 3.06263C31.9496 2.96469 32.4709 3.01807 32.9313 3.21422C33.3916 3.41037 33.7644 3.73792 33.9897 4.14433C34.215 4.55074 34.2798 5.01246 34.1737 5.45544C34.341 5.33707 34.5425 5.26302 34.7552 5.24185C34.9678 5.22067 35.1829 5.25323 35.3756 5.33577C35.5683 5.41831 35.7307 5.54745 35.8441 5.70832C35.9576 5.86918 36.0174 6.0552 36.0167 6.24492C36.0155 6.29164 36.0103 6.33821 36.0012 6.38424C36.3357 6.15842 36.7494 6.04464 37.1693 6.06301C37.5892 6.08138 37.9882 6.23072 38.296 6.48464C38.6038 6.73856 38.8004 7.08074 38.8512 7.45074C38.902 7.82074 38.8037 8.19475 38.5737 8.50672C38.759 8.591 38.9146 8.71887 39.0234 8.87632C39.1322 9.03378 39.19 9.21474 39.1906 9.3994C39.1891 9.5683 39.139 9.73406 39.0451 9.881C39.2521 10.3088 39.3653 10.7676 39.3788 11.2329V12.2649C38.4916 13.1429 37.4459 13.884 36.2845 14.4579C29.8184 17.7672 19.3366 17.7672 12.8706 14.4579C11.7057 13.8848 10.6567 13.1437 9.7666 12.2649V11.2329H9.7763Z" fill="#FAFAFA"/>
<path d="M9.77441 12.2735V14.3375C9.77441 15.7961 11.1848 17.2288 13.7456 18.3675C15.3151 19.044 16.9775 19.5361 18.6907 19.8312C20.6275 20.1778 22.5988 20.3507 24.5747 20.3472C28.6933 20.3472 32.5403 19.6472 35.4057 18.3744C36.6861 17.805 37.6774 17.1704 38.3526 16.4824C39.0277 15.7944 39.3769 15.0771 39.3769 14.3461V12.2821C38.4897 13.1601 37.444 13.9012 36.2826 14.4751C29.8166 17.7844 19.3347 17.7844 12.8687 14.4751C11.7066 13.8987 10.6608 13.1546 9.77441 12.2735Z" fill="#F5F5F5"/>
<path d="M9.77441 8.47404V12.2735C10.6645 13.1523 11.7136 13.8934 12.8784 14.4665C19.3444 17.7758 29.8263 17.7758 36.2923 14.4665C37.4537 13.8926 38.4994 13.1515 39.3866 12.2735V8.47404C39.3866 10.1596 37.9762 11.8091 35.4154 13.118C32.55 14.5852 28.703 15.3919 24.5844 15.3919C20.4658 15.3919 16.6207 14.5852 13.7553 13.118C11.1848 11.8091 9.77441 10.1596 9.77441 8.47404Z" fill="#EBEBEB"/>
<path opacity="0.1" d="M21.1075 23.5103V41.6993C21.111 42.0022 21.24 42.2934 21.4701 42.5173C21.7001 42.7413 22.0151 42.8824 22.355 42.9136C23.0825 42.96 23.8235 42.9824 24.5743 42.9824C25.3251 42.9824 26.0642 42.96 26.7917 42.9136C27.1316 42.8824 27.4466 42.7413 27.6766 42.5173C27.9067 42.2934 28.0357 42.0022 28.0392 41.6993V23.5103C28.0414 23.3689 28.0098 23.2286 27.9464 23.0988C27.883 22.969 27.7893 22.8526 27.6714 22.7574C27.5534 22.6621 27.4141 22.5901 27.2624 22.5461C27.1108 22.5022 26.9504 22.4873 26.7917 22.5024C26.0642 22.5488 25.3232 22.5729 24.5743 22.5729C23.8255 22.5729 23.0825 22.5488 22.355 22.5024C22.1963 22.4873 22.0359 22.5022 21.8843 22.5461C21.7326 22.5901 21.5932 22.6621 21.4753 22.7574C21.3574 22.8526 21.2637 22.969 21.2003 23.0988C21.1369 23.2286 21.1053 23.3689 21.1075 23.5103Z" fill="black"/>
<path opacity="0.1" d="M12.8105 21.2571V39.4444C12.8105 40.0567 13.2936 40.81 13.9163 41.0784C14.9857 41.5362 16.1017 41.9031 17.2493 42.174C17.9166 42.334 18.4676 41.9349 18.4676 41.314V23.1302C18.4509 22.8178 18.3242 22.5179 18.1053 22.2726C17.8864 22.0273 17.5864 21.849 17.2473 21.7628C16.1001 21.4919 14.9847 21.1245 13.9163 20.6654C13.2955 20.3971 12.8105 20.6413 12.8105 21.2571Z" fill="black"/>
<path opacity="0.1" d="M36.3367 21.2571V39.4444C36.3367 40.0567 35.8537 40.81 35.2329 41.0784C34.1634 41.5359 33.0474 41.9028 31.9 42.174C31.2307 42.334 30.6816 41.9349 30.6816 41.314V23.1302C30.6982 22.818 30.8246 22.5183 31.0431 22.273C31.2616 22.0278 31.5613 21.8493 31.9 21.7628C33.0474 21.4926 34.1629 21.1251 35.2309 20.6654C35.8537 20.3971 36.3367 20.6413 36.3367 21.2571Z" fill="black"/>
<path opacity="0.3" d="M11.9178 15.8322C11.9178 15.8322 9.99333 14.8002 9.00781 13.1645V43.2232C9.00781 43.2232 10.005 45.0481 11.9178 45.8152V15.8322Z" fill="white"/>
<path d="M26.5378 11.2226C26.4517 11.029 26.3146 10.8566 26.138 10.7196C25.9614 10.5826 25.7503 10.485 25.5225 10.4351C25.2947 10.3852 25.0567 10.3844 24.8284 10.4327C24.6001 10.481 24.3882 10.577 24.2104 10.7127C24.0325 10.8485 23.8939 11.02 23.8061 11.2129C23.7182 11.4059 23.6838 11.6147 23.7056 11.8218C23.7273 12.029 23.8047 12.2285 23.9313 12.4038C24.0578 12.579 24.2298 12.7248 24.4329 12.8291C24.3247 12.5776 24.3066 12.3027 24.3812 12.0418C24.4558 11.781 24.6194 11.5469 24.8497 11.3715C25.08 11.1961 25.3657 11.0881 25.6678 11.062C25.9699 11.036 26.2737 11.0933 26.5378 11.226V11.2226Z" fill="#F0F0F0"/>
<path d="M28.2332 11.5305C28.2883 11.4036 28.3082 11.2668 28.2912 11.1317C28.2743 10.9965 28.221 10.867 28.1359 10.7539C28.0508 10.6408 27.9363 10.5474 27.8021 10.4817C27.6678 10.416 27.5178 10.3797 27.3645 10.3761C27.2112 10.3724 27.0591 10.4015 26.9211 10.4607C26.783 10.52 26.6631 10.6077 26.5712 10.7166C26.4794 10.8255 26.4184 10.9524 26.3933 11.0865C26.3682 11.2206 26.3798 11.3581 26.4271 11.4875C26.4903 11.3413 26.5979 11.2134 26.7379 11.118C26.8779 11.0226 27.045 10.9634 27.2206 10.9468C27.3962 10.9303 27.5736 10.9571 27.7331 11.0242C27.8926 11.0914 28.0281 11.1964 28.1246 11.3275C28.1705 11.3908 28.207 11.459 28.2332 11.5305Z" fill="#F0F0F0"/>
<path d="M32.6777 8.25732C32.7984 8.0772 32.8683 7.87395 32.8816 7.66479C32.8949 7.45563 32.8511 7.24671 32.754 7.05573C32.6568 6.86475 32.5093 6.69733 32.3237 6.56765C32.1381 6.43797 31.92 6.34984 31.6879 6.31074C31.4557 6.27163 31.2164 6.2827 30.9901 6.343C30.7638 6.4033 30.5573 6.51106 30.3879 6.65716C30.2186 6.80325 30.0914 6.98337 30.0172 7.18227C29.943 7.38118 29.924 7.593 29.9617 7.7998C30.1166 7.57046 30.3472 7.38881 30.6223 7.27938C30.8974 7.16996 31.2037 7.13804 31.4999 7.18793C31.7961 7.23783 32.0679 7.36714 32.2785 7.55838C32.4892 7.74963 32.6285 7.9936 32.6777 8.25732Z" fill="#F0F0F0"/>
<path d="M30.3266 7.13072C30.3909 7.00716 30.4208 6.87171 30.4138 6.73577C30.4067 6.59983 30.363 6.46737 30.2862 6.34955C30.2093 6.23173 30.1017 6.13199 29.9724 6.05872C29.8431 5.98545 29.6958 5.9408 29.5429 5.92852C29.39 5.91624 29.2361 5.93669 29.094 5.98815C28.9519 6.03961 28.8258 6.12058 28.7264 6.22424C28.6269 6.3279 28.557 6.45122 28.5225 6.58383C28.4881 6.71643 28.49 6.85444 28.5282 6.98624C28.6016 6.84393 28.7179 6.72238 28.8643 6.63505C29.0107 6.54772 29.1816 6.49801 29.3579 6.49142C29.5342 6.48483 29.7091 6.52163 29.8633 6.59773C30.0175 6.67383 30.145 6.78627 30.2315 6.9226C30.2733 6.988 30.3053 7.05797 30.3266 7.13072Z" fill="#F0F0F0"/>
<path d="M19.5245 7.39044C19.5394 7.18241 19.4977 6.97427 19.4031 6.78347C19.3084 6.59266 19.1636 6.42475 18.9807 6.29382C18.7977 6.16289 18.5821 6.07275 18.3517 6.03097C18.1214 5.98918 17.8831 5.99697 17.6569 6.05367C17.4307 6.11038 17.2231 6.21434 17.0515 6.35686C16.8799 6.49938 16.7494 6.67628 16.6709 6.87275C16.5924 7.06921 16.5681 7.27951 16.6002 7.486C16.6322 7.69249 16.7196 7.88916 16.8551 8.05952C16.8735 7.78548 16.9905 7.52387 17.1888 7.31304C17.3332 7.16027 17.515 7.03879 17.7205 6.9579C17.9259 6.877 18.1495 6.83883 18.3742 6.8463C18.5988 6.85377 18.8185 6.90668 19.0166 7.00099C19.2146 7.0953 19.3857 7.22851 19.5168 7.39044H19.5245Z" fill="#F0F0F0"/>
<path d="M21.1155 8.01308C21.1324 7.87835 21.1126 7.74198 21.0578 7.61542C21.003 7.48885 20.9148 7.37578 20.8005 7.28569C20.6863 7.19559 20.5493 7.1311 20.4011 7.09762C20.253 7.06413 20.0979 7.06263 19.949 7.09324C19.8 7.12385 19.6615 7.18568 19.545 7.27355C19.4286 7.36141 19.3376 7.47275 19.2797 7.59822C19.2218 7.72369 19.1987 7.85965 19.2123 7.99468C19.2259 8.12971 19.2758 8.25988 19.3578 8.37428C19.3789 8.19651 19.4639 8.02946 19.6003 7.89784C19.6993 7.80128 19.822 7.72625 19.959 7.6786C20.0959 7.63094 20.2435 7.61196 20.3901 7.62311C20.5367 7.63426 20.6784 7.67525 20.8042 7.74288C20.93 7.81052 21.0365 7.90299 21.1155 8.01308Z" fill="#F0F0F0"/>
<path d="M16.9639 9.43552C17.1015 9.3754 17.2207 9.2869 17.3117 9.17744C17.4027 9.06798 17.4627 8.94076 17.4867 8.80647C17.5107 8.67218 17.498 8.53474 17.4497 8.4057C17.4014 8.27666 17.3189 8.15978 17.209 8.06489C17.0992 7.96999 16.9653 7.89985 16.8185 7.86036C16.6718 7.82087 16.5165 7.81317 16.3657 7.83792C16.2149 7.86268 16.073 7.91915 15.9519 8.00261C15.8309 8.08606 15.7342 8.19406 15.6699 8.31752C15.8499 8.23803 16.0538 8.21152 16.2519 8.24184C16.5009 8.28089 16.7223 8.40577 16.8678 8.58918C17.0132 8.77258 17.0708 8.99958 17.0279 9.22052C17.0177 9.29443 16.9961 9.36676 16.9639 9.43552Z" fill="#F0F0F0"/>
</svg>
