<svg width="42" height="52" viewBox="0 0 42 52" fill="none" xmlns="http://www.w3.org/2000/svg">
<path d="M5.15845 18.7407V30.5554C5.21334 30.876 5.4085 31.1646 5.70165 31.3586L10.1055 33.6084V35.3421L4.00415 32.2272C3.71282 32.032 3.51868 31.7439 3.46289 31.424V17.8738L5.15845 18.7407Z" fill="#E6E6E6"/>
<path d="M1.27637 14.5164L2.97193 13.6564C3.78285 13.2419 4.77225 13.2745 5.68793 13.7441L10.1053 15.9939V19.5371L5.15831 17.0052V18.739L3.46275 17.879V31.4291C3.51854 31.7491 3.71268 32.0372 4.00401 32.2324L10.1053 35.3473V37.1498L3.99237 34.0281C3.313 33.6653 2.74699 33.1575 2.34607 32.5508C1.94516 31.9442 1.72212 31.2581 1.69735 30.5554V15.7789C1.69043 15.3626 1.79201 14.9506 1.99417 14.5749L1.27637 14.5164Z" fill="#F5F5F5"/>
<path d="M1.27652 14.5164C1.56738 14.3662 1.89058 14.2718 2.22518 14.2394C2.84415 14.1896 3.46486 14.3168 3.9964 14.6024L10.1055 17.7293V21.2742L5.15846 18.7407L3.4629 17.8807V31.4308C3.51869 31.7508 3.71283 32.0389 4.00416 32.2341L10.1055 35.349V38.8905L2.29502 34.8949C1.61604 34.5323 1.0503 34.0246 0.649415 33.4183C0.248532 32.812 0.0252704 32.1264 0 31.424V16.6492C0 15.7066 0.4656 14.9309 1.27652 14.5164Z" fill="#F0F0F0"/>
<path d="M1.16206 25.545C1.26154 25.545 1.35697 25.5101 1.4275 25.4479C1.49803 25.3857 1.5379 25.3013 1.53842 25.2131V16.8332C1.5384 16.6793 1.58416 16.528 1.67109 16.3948C1.75802 16.2615 1.88304 16.1509 2.03355 16.0742C2.18406 15.9974 2.35474 15.9572 2.52837 15.9576C2.702 15.958 2.87245 15.999 3.02252 16.0764C3.10844 16.122 3.21129 16.1355 3.30843 16.1139C3.40557 16.0923 3.48905 16.0374 3.5405 15.9612C3.59195 15.885 3.60716 15.7938 3.58278 15.7077C3.55841 15.6216 3.49644 15.5475 3.41052 15.5019C3.14591 15.3669 2.84599 15.2957 2.54068 15.2955C2.23536 15.2953 1.93532 15.3661 1.6705 15.5008C1.40568 15.6355 1.18533 15.8295 1.03144 16.0633C0.877544 16.297 0.795488 16.5625 0.793457 16.8332V25.2131C0.793942 25.3001 0.832752 25.3835 0.90161 25.4455C0.970468 25.5075 1.06393 25.5432 1.16206 25.545Z" fill="#FAFAFA"/>
<path d="M4.21566 16.6492C4.42781 16.6492 4.59978 16.4967 4.59978 16.3086C4.59978 16.1205 4.42781 15.9681 4.21566 15.9681C4.00352 15.9681 3.83154 16.1205 3.83154 16.3086C3.83154 16.4967 4.00352 16.6492 4.21566 16.6492Z" fill="#FAFAFA"/>
<path d="M41.13 8.47401V43.4795C41.13 45.6484 39.514 47.8173 36.28 49.4719C29.8159 52.7812 19.3341 52.7812 12.8681 49.4719C9.63603 47.8173 8.01807 45.6484 8.01807 43.4795V8.47401H41.13Z" fill="#E0E0E0"/>
<path d="M9.77355 12.2735C10.6637 13.1523 11.7127 13.8934 12.8775 14.4665C19.3436 17.7758 29.8254 17.7758 36.2914 14.4665C37.4528 13.8926 38.4985 13.1515 39.3857 12.2735C42.4897 9.09837 41.4693 5.13033 36.2914 2.48325C29.8254 -0.82775 19.3436 -0.82775 12.8775 2.48325C7.68999 5.13033 6.65985 9.09837 9.77355 12.2735Z" fill="#EBEBEB"/>
<path d="M9.77584 13.1077C9.80882 11.4427 11.2134 9.81561 13.7451 8.51873C16.6105 7.05329 20.4555 6.24489 24.5742 6.24489C28.6928 6.24489 32.5398 7.05329 35.4032 8.51873C37.9369 9.81561 39.3414 11.4427 39.3725 13.1077V39.606C39.3725 41.068 37.9621 42.4991 35.3994 43.6377C32.5359 44.9088 28.6889 45.6105 24.5703 45.6105C20.4517 45.6105 16.6066 44.9088 13.7412 43.6377C11.1804 42.4991 9.77002 41.068 9.77002 39.606V13.1077H9.77584Z" fill="#8A8A8A"/>
<path opacity="0.1" d="M9.77584 13.1077C9.80882 11.4427 11.2134 9.81561 13.7451 8.51873C16.6105 7.05329 20.4555 6.24489 24.5742 6.24489C28.6928 6.24489 32.5398 7.05329 35.4032 8.51873C37.9369 9.81561 39.3414 11.4427 39.3725 13.1077V39.606C39.3725 41.068 37.9621 42.4991 35.3994 43.6377C32.5359 44.9088 28.6889 45.6105 24.5703 45.6105C20.4517 45.6105 16.6066 44.9088 13.7412 43.6377C11.1804 42.4991 9.77002 41.068 9.77002 39.606V13.1077H9.77584Z" fill="black"/>
<path d="M9.77393 41.7457V43.8802C9.77393 45.3422 11.1843 46.7732 13.7451 47.9102C15.3143 48.5874 16.9768 49.0795 18.6902 49.3739C20.627 49.7205 22.5983 49.8934 24.5742 49.8899C28.6928 49.8899 32.5398 49.1899 35.4052 47.9171C36.6856 47.3477 37.6769 46.7131 38.3521 46.0251C39.0272 45.3371 39.3764 44.6198 39.3764 43.8888V41.7457C39.3764 42.4767 39.0233 42.757 38.3521 43.4382C37.6808 44.1193 36.6856 44.7626 35.4052 45.3302C32.5398 46.603 28.6928 47.303 24.5742 47.303C22.5983 47.3065 20.627 47.1336 18.6902 46.787C16.9777 46.4963 15.3154 46.0089 13.7451 45.3371C11.1843 44.195 9.77393 43.206 9.77393 41.7457Z" fill="#EBEBEB"/>
<path d="M9.77393 8.47401C9.79499 9.32337 10.1197 10.1449 10.7012 10.8201C11.3725 9.98933 12.3987 9.20845 13.7451 8.51873C16.6105 7.05329 20.4556 6.24489 24.5742 6.24489C28.6928 6.24489 32.5398 7.05329 35.4052 8.51873C36.7496 9.20673 37.7778 9.98933 38.4491 10.8201C39.0306 10.1449 39.3553 9.32337 39.3764 8.47401C39.3764 6.79013 37.966 5.13893 35.4052 3.83001C32.5398 2.36457 28.6928 1.55789 24.5742 1.55789C20.4556 1.55789 16.6105 2.36457 13.7451 3.83001C11.1843 5.13893 9.77393 6.79013 9.77393 8.47401Z" fill="#E0E0E0"/>
<path d="M9.77581 11.2329C9.78955 10.7689 9.90211 10.3114 10.1076 9.88441C10.0333 9.76738 9.98644 9.63824 9.9699 9.50475C9.95336 9.37126 9.96744 9.23618 10.0113 9.10764C10.0552 8.9791 10.1279 8.85975 10.2251 8.75677C10.3223 8.6538 10.442 8.56931 10.577 8.50841C10.3426 8.19668 10.2407 7.82117 10.2898 7.44901C10.3389 7.07685 10.5356 6.73229 10.8449 6.47692C11.1542 6.22155 11.5558 6.072 11.978 6.05502C12.4002 6.03804 12.8154 6.15472 13.1495 6.38421C13.1413 6.33807 13.1361 6.29155 13.134 6.24489C13.1333 6.05517 13.1931 5.86915 13.3066 5.70829C13.42 5.54742 13.5824 5.41827 13.7751 5.33574C13.9678 5.2532 14.1829 5.22064 14.3955 5.24182C14.6082 5.26299 14.8097 5.33704 14.977 5.45541C14.87 5.01202 14.9344 4.54963 15.1597 4.14259C15.385 3.73554 15.7581 3.4075 16.2191 3.21118C16.6801 3.01487 17.2022 2.96169 17.7014 3.0602C18.2005 3.15871 18.6479 3.40319 18.9714 3.75433C19.0832 3.47376 19.2823 3.22696 19.5456 3.04244C19.8089 2.85792 20.1258 2.74321 20.4595 2.71155C20.7932 2.6799 21.1302 2.73259 21.4316 2.86354C21.733 2.9945 21.9865 3.19837 22.1627 3.45161C22.4088 3.0772 22.7614 2.76653 23.1852 2.55062C23.609 2.3347 24.0892 2.22108 24.578 2.22108C25.0668 2.22108 25.5471 2.3347 25.9709 2.55062C26.3947 2.76653 26.7472 3.0772 26.9933 3.45161C27.1699 3.19935 27.4232 2.99641 27.7241 2.86612C28.0251 2.73583 28.3613 2.68349 28.6943 2.71511C29.0273 2.74673 29.3434 2.86104 29.6064 3.04488C29.8693 3.22872 30.0684 3.47463 30.1807 3.75433C30.5046 3.40415 30.9517 3.16055 31.4504 3.0626C31.9491 2.96466 32.4704 3.01804 32.9308 3.21419C33.3912 3.41034 33.7639 3.73788 33.9892 4.1443C34.2145 4.55071 34.2793 5.01243 34.1733 5.45541C34.3405 5.33704 34.542 5.26299 34.7547 5.24182C34.9673 5.22064 35.1824 5.2532 35.3751 5.33574C35.5678 5.41827 35.7302 5.54742 35.8436 5.70829C35.9571 5.86915 36.0169 6.05517 36.0163 6.24489C36.015 6.29161 36.0098 6.33818 36.0007 6.38421C36.3352 6.15839 36.7489 6.04461 37.1688 6.06298C37.5887 6.08135 37.9878 6.23069 38.2955 6.48461C38.6033 6.73853 38.7999 7.08071 38.8507 7.45071C38.9015 7.8207 38.8032 8.19472 38.5732 8.50669C38.7585 8.59097 38.9141 8.71884 39.0229 8.87629C39.1317 9.03375 39.1896 9.21471 39.1901 9.39937C39.1886 9.56827 39.1385 9.73403 39.0446 9.88097C39.2516 10.3088 39.3648 10.7676 39.3783 11.2329V12.2649C38.4911 13.1429 37.4454 13.884 36.284 14.4579C29.818 17.7672 19.3361 17.7672 12.8701 14.4579C11.7053 13.8848 10.6562 13.1437 9.76611 12.2649V11.2329H9.77581Z" fill="#FAFAFA"/>
<path d="M9.77393 12.2735V14.3375C9.77393 15.7961 11.1843 17.2288 13.7451 18.3675C15.3146 19.044 16.977 19.5361 18.6902 19.8312C20.627 20.1778 22.5983 20.3506 24.5742 20.3472C28.6928 20.3472 32.5398 19.6471 35.4052 18.3743C36.6856 17.805 37.6769 17.1703 38.3521 16.4823C39.0272 15.7943 39.3764 15.0771 39.3764 14.3461V12.2821C38.4892 13.1601 37.4435 13.9012 36.2821 14.4751C29.8161 17.7844 19.3342 17.7844 12.8682 14.4751C11.7061 13.8986 10.6603 13.1546 9.77393 12.2735Z" fill="#F5F5F5"/>
<path d="M9.77393 8.47401V12.2735C10.664 13.1523 11.7131 13.8934 12.8779 14.4665C19.3439 17.7758 29.8258 17.7758 36.2918 14.4665C37.4532 13.8926 38.4989 13.1515 39.3861 12.2735V8.47401C39.3861 10.1596 37.9757 11.8091 35.4149 13.118C32.5495 14.5852 28.7025 15.3918 24.5839 15.3918C20.4653 15.3918 16.6202 14.5852 13.7548 13.118C11.1843 11.8091 9.77393 10.1596 9.77393 8.47401Z" fill="#EBEBEB"/>
<path opacity="0.1" d="M21.107 23.5103V41.6992C21.1105 42.0022 21.2395 42.2934 21.4696 42.5173C21.6996 42.7413 22.0146 42.8823 22.3545 42.9136C23.082 42.96 23.823 42.9824 24.5738 42.9824C25.3246 42.9824 26.0637 42.96 26.7912 42.9136C27.1311 42.8823 27.4461 42.7413 27.6761 42.5173C27.9062 42.2934 28.0352 42.0022 28.0387 41.6992V23.5103C28.041 23.3688 28.0094 23.2286 27.9459 23.0988C27.8825 22.969 27.7888 22.8526 27.6709 22.7573C27.553 22.6621 27.4136 22.5901 27.2619 22.5461C27.1103 22.5021 26.9499 22.4872 26.7912 22.5023C26.0637 22.5488 25.3227 22.5728 24.5738 22.5728C23.825 22.5728 23.082 22.5488 22.3545 22.5023C22.1958 22.4872 22.0354 22.5021 21.8838 22.5461C21.7321 22.5901 21.5928 22.6621 21.4748 22.7573C21.3569 22.8526 21.2632 22.969 21.1998 23.0988C21.1364 23.2286 21.1048 23.3688 21.107 23.5103Z" fill="black"/>
<path opacity="0.1" d="M12.8101 21.2571V39.4443C12.8101 40.0567 13.2931 40.81 13.9159 41.0783C14.9852 41.5362 16.1012 41.9031 17.2488 42.174C17.9161 42.3339 18.4671 41.9349 18.4671 41.314V23.1301C18.4504 22.8177 18.3237 22.5178 18.1048 22.2726C17.8859 22.0273 17.5859 21.849 17.2468 21.7627C16.0996 21.4919 14.9842 21.1245 13.9159 20.6654C13.2951 20.3971 12.8101 20.6413 12.8101 21.2571Z" fill="black"/>
<path opacity="0.1" d="M36.3363 21.2571V39.4443C36.3363 40.0567 35.8532 40.81 35.2324 41.0783C34.1629 41.5359 33.0469 41.9028 31.8995 42.174C31.2302 42.3339 30.6812 41.9349 30.6812 41.314V23.1301C30.6977 22.818 30.8242 22.5182 31.0427 22.273C31.2612 22.0277 31.5608 21.8493 31.8995 21.7627C33.0469 21.4925 34.1624 21.125 35.2305 20.6654C35.8532 20.3971 36.3363 20.6413 36.3363 21.2571Z" fill="black"/>
<path opacity="0.3" d="M11.9173 15.8322C11.9173 15.8322 9.99284 14.8002 9.00732 13.1645V43.2232C9.00732 43.2232 10.0045 45.0481 11.9173 45.8152V15.8322Z" fill="white"/>
<path d="M26.5373 11.2226C26.4512 11.029 26.3141 10.8565 26.1375 10.7195C25.9609 10.5825 25.7498 10.485 25.522 10.4351C25.2942 10.3852 25.0562 10.3843 24.8279 10.4326C24.5997 10.4809 24.3877 10.577 24.2099 10.7127C24.032 10.8484 23.8934 11.02 23.8056 11.2129C23.7178 11.4058 23.6833 11.6146 23.7051 11.8218C23.7269 12.029 23.8042 12.2285 23.9308 12.4037C24.0573 12.579 24.2293 12.7248 24.4324 12.8291C24.3242 12.5776 24.3061 12.3027 24.3807 12.0418C24.4553 11.7809 24.6189 11.5468 24.8492 11.3715C25.0795 11.1961 25.3652 11.088 25.6673 11.062C25.9694 11.036 26.2732 11.0932 26.5373 11.226V11.2226Z" fill="#F0F0F0"/>
<path d="M28.2327 11.5305C28.2878 11.4035 28.3077 11.2668 28.2907 11.1316C28.2738 10.9965 28.2206 10.8669 28.1354 10.7538C28.0503 10.6407 27.9358 10.5474 27.8016 10.4817C27.6673 10.4159 27.5173 10.3797 27.364 10.3761C27.2107 10.3724 27.0586 10.4014 26.9206 10.4607C26.7826 10.5199 26.6626 10.6077 26.5707 10.7166C26.4789 10.8255 26.4179 10.9523 26.3928 11.0865C26.3677 11.2206 26.3793 11.3581 26.4266 11.4875C26.4898 11.3413 26.5974 11.2134 26.7374 11.118C26.8775 11.0226 27.0445 10.9633 27.2201 10.9468C27.3957 10.9302 27.5731 10.957 27.7326 11.0242C27.8921 11.0914 28.0276 11.1963 28.1241 11.3275C28.17 11.3907 28.2065 11.4589 28.2327 11.5305Z" fill="#F0F0F0"/>
<path d="M32.6773 8.25729C32.7979 8.07717 32.8678 7.87392 32.8811 7.66476C32.8944 7.4556 32.8506 7.24668 32.7535 7.0557C32.6564 6.86472 32.5088 6.6973 32.3232 6.56762C32.1376 6.43793 31.9195 6.34981 31.6874 6.31071C31.4553 6.2716 31.2159 6.28267 30.9896 6.34297C30.7633 6.40327 30.5568 6.51103 30.3874 6.65713C30.2181 6.80322 30.0909 6.98334 30.0167 7.18224C29.9425 7.38115 29.9235 7.59297 29.9613 7.79977C30.1161 7.57043 30.3467 7.38878 30.6218 7.27935C30.8969 7.16993 31.2032 7.13801 31.4994 7.1879C31.7956 7.2378 32.0674 7.36711 32.278 7.55835C32.4887 7.7496 32.628 7.99357 32.6773 8.25729Z" fill="#F0F0F0"/>
<path d="M30.3261 7.13069C30.3904 7.00713 30.4203 6.87168 30.4133 6.73574C30.4062 6.5998 30.3625 6.46734 30.2857 6.34952C30.2089 6.2317 30.1013 6.13196 29.9719 6.05869C29.8426 5.98542 29.6953 5.94077 29.5424 5.92849C29.3895 5.9162 29.2356 5.93666 29.0935 5.98812C28.9514 6.03958 28.8253 6.12055 28.7259 6.22421C28.6265 6.32787 28.5565 6.45119 28.5221 6.5838C28.4876 6.7164 28.4895 6.85441 28.5277 6.98621C28.6011 6.8439 28.7174 6.72235 28.8638 6.63502C29.0102 6.54769 29.1811 6.49798 29.3574 6.49139C29.5337 6.4848 29.7086 6.5216 29.8628 6.5977C30.017 6.6738 30.1445 6.78624 30.231 6.92257C30.2729 6.98797 30.3048 7.05793 30.3261 7.13069Z" fill="#F0F0F0"/>
<path d="M19.5241 7.39041C19.5389 7.18238 19.4972 6.97424 19.4026 6.78344C19.308 6.59263 19.1631 6.42472 18.9802 6.29379C18.7972 6.16286 18.5816 6.07272 18.3512 6.03094C18.1209 5.98915 17.8826 5.99694 17.6564 6.05364C17.4302 6.11035 17.2226 6.21431 17.051 6.35683C16.8795 6.49934 16.7489 6.67625 16.6704 6.87272C16.5919 7.06918 16.5676 7.27948 16.5997 7.48597C16.6317 7.69246 16.7191 7.88913 16.8546 8.05949C16.873 7.78545 16.99 7.52384 17.1883 7.31301C17.3327 7.16024 17.5145 7.03876 17.72 6.95787C17.9254 6.87697 18.149 6.8388 18.3737 6.84627C18.5983 6.85374 18.8181 6.90665 19.0161 7.00096C19.2141 7.09527 19.3852 7.22848 19.5163 7.39041H19.5241Z" fill="#F0F0F0"/>
<path d="M21.115 8.01305C21.1319 7.87832 21.1121 7.74195 21.0573 7.61539C21.0025 7.48882 20.9143 7.37575 20.8 7.28566C20.6858 7.19556 20.5488 7.13107 20.4007 7.09758C20.2525 7.0641 20.0974 7.0626 19.9485 7.09321C19.7995 7.12382 19.661 7.18565 19.5446 7.27352C19.4281 7.36138 19.3371 7.47272 19.2792 7.59819C19.2213 7.72366 19.1982 7.85962 19.2118 7.99465C19.2254 8.12968 19.2753 8.25985 19.3573 8.37425C19.3784 8.19647 19.4634 8.02942 19.5998 7.89781C19.6988 7.80125 19.8215 7.72622 19.9585 7.67856C20.0954 7.63091 20.243 7.61192 20.3896 7.62307C20.5362 7.63423 20.6779 7.67521 20.8037 7.74285C20.9295 7.81049 21.036 7.90296 21.115 8.01305Z" fill="#F0F0F0"/>
<path d="M16.9634 9.43549C17.101 9.37537 17.2202 9.28687 17.3112 9.17741C17.4022 9.06795 17.4622 8.94073 17.4862 8.80644C17.5102 8.67215 17.4975 8.53471 17.4492 8.40567C17.4009 8.27663 17.3184 8.15975 17.2085 8.06486C17.0987 7.96996 16.9648 7.89982 16.818 7.86033C16.6713 7.82084 16.516 7.81314 16.3652 7.83789C16.2144 7.86265 16.0725 7.91912 15.9515 8.00258C15.8304 8.08603 15.7337 8.19403 15.6694 8.31749C15.8494 8.238 16.0533 8.21149 16.2514 8.24181C16.5004 8.28086 16.7219 8.40574 16.8673 8.58915C17.0127 8.77255 17.0703 8.99955 17.0274 9.22049C17.0172 9.2944 16.9957 9.36673 16.9634 9.43549Z" fill="#F0F0F0"/>
</svg>
