<svg width="39" height="54" viewBox="0 0 39 54" fill="none" xmlns="http://www.w3.org/2000/svg">
<path d="M29.2935 30.1326L27.617 21.3265C26.7555 14.4447 26.608 6.05495 25.4174 3.89885C23.2208 -0.082849 16.9945 0.000132863 16.9945 0.000132863C8.72678 0.0831147 7.77831 6.01632 7.42283 11.3815C7.36229 12.2915 7.09219 13.9211 6.72894 15.8168C5.85654 19.757 4.68143 23.8288 1.87483 26.6702C0.801488 27.7855 0.148074 29.1907 0.0120388 30.6762C-0.121461 32.1384 0.865817 33.8138 2.45229 33.9354C2.0825 34.3182 1.81247 34.7738 1.66281 35.2675C1.51315 35.7611 1.48782 36.2798 1.58875 36.7838C1.68968 37.2878 1.91421 37.764 2.24519 38.1758C2.57617 38.5877 3.00486 38.9245 3.49856 39.1604C4.88478 39.8228 6.55353 39.6054 8.08412 39.3235C9.61471 39.0417 11.1888 38.6797 12.3204 37.7011C13.4521 36.7225 13.9472 35.2774 14.2965 33.8825C14.7168 32.2016 14.9924 30.4928 15.1208 28.7719L29.2935 30.1326Z" fill="#263238"/>
<path d="M18.2796 2.06037L17.7254 1.64832L12.3528 4.13349C11.9661 4.18186 11.6133 4.36273 11.3648 4.64007C11.1162 4.9174 10.9901 5.27086 11.0116 5.63002L13.3525 22.7114C13.4472 23.8445 12.98 24.4082 13.8027 25.2538L19.4408 30.888C21.4138 32.9182 20.8239 28.1625 22.0192 25.6701C22.103 25.4956 21.6202 24.9076 21.6404 24.786C21.6642 24.6605 21.6803 24.5339 21.6885 24.4068C21.7351 23.0519 21.6404 21.8859 21.6404 21.8859C21.6062 20.4051 21.5861 19.797 21.5876 19.8113C21.5892 19.8256 24.9593 19.1918 25.5181 15.09C25.7975 13.0512 25.4638 10.3028 25.0928 7.60156C24.5789 3.86022 21.5519 1.80856 18.2796 2.06037Z" fill="#AE7461"/>
<path d="M18.8 10.9866C18.806 11.123 18.754 11.2561 18.6552 11.3576C18.5563 11.4591 18.4183 11.5211 18.2707 11.5303C18.1988 11.5376 18.126 11.5316 18.0567 11.5127C17.9873 11.4937 17.9228 11.4622 17.8668 11.42C17.8109 11.3777 17.7646 11.3256 17.7308 11.2667C17.697 11.2077 17.6763 11.1432 17.6699 11.0768C17.6639 10.9407 17.7156 10.8078 17.8142 10.7063C17.9127 10.6048 18.0503 10.5427 18.1977 10.5331C18.2697 10.5254 18.3427 10.5311 18.4124 10.5499C18.482 10.5686 18.5468 10.6001 18.603 10.6424C18.6591 10.6847 18.7055 10.737 18.7394 10.7961C18.7732 10.8552 18.7938 10.92 18.8 10.9866Z" fill="#263238"/>
<path d="M24.258 10.6862C24.264 10.8225 24.212 10.9556 24.1132 11.0571C24.0143 11.1587 23.8764 11.2207 23.7287 11.2299C23.6567 11.2374 23.5839 11.2315 23.5145 11.2126C23.445 11.1938 23.3804 11.1623 23.3244 11.12C23.2684 11.0777 23.2222 11.0255 23.1884 10.9665C23.1547 10.9075 23.1341 10.8428 23.1279 10.7763C23.1219 10.6402 23.1736 10.5073 23.2722 10.4058C23.3707 10.3043 23.5083 10.2422 23.6557 10.2327C23.7277 10.2253 23.8005 10.2313 23.87 10.2503C23.9394 10.2692 24.004 10.3007 24.0601 10.3429C24.1162 10.3851 24.1626 10.4373 24.1966 10.4962C24.2305 10.5551 24.2514 10.6197 24.258 10.6862Z" fill="#263238"/>
<path d="M24.6085 8.7118C24.5402 8.7819 24.1009 8.50291 23.4893 8.52151C22.8777 8.54011 22.4415 8.83627 22.3732 8.76903C22.3406 8.73898 22.4073 8.61451 22.5982 8.48288C22.8554 8.30488 23.1662 8.20489 23.4877 8.19674C23.8055 8.18661 24.1186 8.26978 24.3819 8.43424C24.5743 8.56873 24.6364 8.68461 24.6085 8.7118Z" fill="#263238"/>
<path d="M18.4442 9.2426C18.3697 9.30698 17.963 8.9865 17.3576 8.94787C16.7522 8.90924 16.2818 9.16104 16.2198 9.09094C16.1903 9.05803 16.271 8.94787 16.4759 8.82196C16.7526 8.67135 17.0729 8.60291 17.3933 8.62595C17.7102 8.64544 18.0121 8.75772 18.2548 8.94644C18.4272 9.08808 18.4815 9.21541 18.4442 9.2426Z" fill="#263238"/>
<path d="M20.9327 13.1599C20.9327 13.1284 21.3068 13.0569 21.9184 12.9653C22.0736 12.9467 22.2211 12.9138 22.2428 12.8223C22.2646 12.7307 22.2056 12.5633 22.1249 12.393L21.625 11.3128C20.9311 9.77482 20.4235 8.50863 20.4903 8.48288C20.557 8.45713 21.1764 9.68469 21.8703 11.2227L22.35 12.3101C22.4151 12.4703 22.5223 12.6534 22.4509 12.8709C22.4299 12.9223 22.3965 12.9686 22.3532 13.0063C22.3099 13.044 22.2578 13.0721 22.2009 13.0884C22.1159 13.113 22.0277 13.127 21.9386 13.1299C21.3208 13.1785 20.9373 13.1914 20.9327 13.1599Z" fill="#263238"/>
<path d="M21.5877 19.8042C19.5059 19.895 17.4376 19.4517 15.6128 18.5237C15.6128 18.5237 17.2008 21.3021 21.6141 20.7885L21.5877 19.8042Z" fill="#231812"/>
<path d="M20.723 14.5234C20.6019 14.3923 20.4466 14.2916 20.2718 14.2308C20.097 14.17 19.9083 14.1511 19.7233 14.1757C19.5891 14.191 19.4596 14.2311 19.3425 14.2935C19.2254 14.356 19.1232 14.4395 19.0419 14.5391C18.9634 14.6353 18.9189 14.7514 18.9144 14.8717C18.91 14.992 18.9458 15.1107 19.017 15.2116C19.1893 15.4205 19.5355 15.4591 19.8242 15.3747C20.1088 15.2714 20.3683 15.1173 20.588 14.9211C20.6557 14.8749 20.7131 14.8171 20.7572 14.7509C20.7785 14.719 20.7891 14.682 20.7877 14.6446C20.7863 14.6072 20.773 14.571 20.7494 14.5406" fill="#231812"/>
<path d="M19.1504 13.602C19.2498 13.5934 19.2715 14.2043 19.8536 14.6207C20.4357 15.037 21.1389 14.9497 21.1467 15.0342C21.1576 15.0728 20.9915 15.1586 20.6965 15.1772C20.3085 15.194 19.9264 15.0841 19.6177 14.8668C19.3219 14.6565 19.126 14.3488 19.0712 14.0083C19.0371 13.7537 19.1054 13.6006 19.1504 13.602Z" fill="#263238"/>
<path d="M18.8325 7.01496C18.7595 7.15804 18.1572 7.05216 17.4354 7.08507C16.7135 7.11798 16.1221 7.26105 16.0383 7.11798C16.001 7.0493 16.1128 6.91338 16.3487 6.78032C16.6734 6.6189 17.0337 6.52789 17.4022 6.51426C17.7708 6.50062 18.1378 6.56471 18.4754 6.70163C18.7378 6.81609 18.8635 6.94486 18.8325 7.01496Z" fill="#263238"/>
<path d="M24.306 6.31677C24.202 6.44696 23.7782 6.32678 23.2722 6.33537C22.7661 6.34395 22.3408 6.44983 22.2383 6.3182C22.1917 6.25525 22.2554 6.12505 22.4386 5.99915C22.6849 5.84703 22.9748 5.76582 23.2714 5.76582C23.5679 5.76582 23.8578 5.84703 24.1042 5.99915C24.2874 6.12219 24.351 6.25239 24.306 6.31677Z" fill="#263238"/>
<path d="M11.7601 12.7436C11.7601 12.7436 14.9532 13.4003 16.0802 6.18514C16.4667 3.71715 18.7269 1.57107 18.7269 1.57107L17.7148 1.3722C17.7148 1.3722 11.7182 3.43244 11.6219 3.51828C11.5257 3.60412 10.3335 6.56142 10.3335 6.56142L11.7601 12.7436Z" fill="#263238"/>
<path d="M12.5037 12.4217C12.4913 12.1183 12.0861 11.413 11.7586 11.3758C10.8862 11.2771 9.32302 11.3887 9.3789 13.4217C9.45652 16.2016 12.468 15.5564 12.4711 15.4762C12.4742 15.3961 12.5425 13.4689 12.5037 12.4217Z" fill="#AE7461"/>
<path d="M11.5209 14.4447C11.5069 14.4361 11.4696 14.4805 11.3812 14.5205C11.2575 14.5729 11.1165 14.5786 10.9884 14.5363C10.6671 14.4361 10.3861 13.9769 10.3582 13.4761C10.3434 13.238 10.3869 12.9998 10.4855 12.7793C10.5113 12.6917 10.5598 12.6111 10.6269 12.5446C10.6939 12.4781 10.7775 12.4275 10.8704 12.3973C10.93 12.3822 10.9934 12.3865 11.05 12.4094C11.1065 12.4323 11.1528 12.4725 11.1809 12.5232C11.2244 12.6005 11.2057 12.6563 11.2228 12.6663C11.2399 12.6763 11.2849 12.6177 11.2585 12.5046C11.24 12.4358 11.1961 12.3751 11.1343 12.333C11.0927 12.305 11.0455 12.2849 10.9954 12.2738C10.9453 12.2628 10.8933 12.261 10.8425 12.2686C10.6096 12.2886 10.4063 12.4918 10.3054 12.7121C10.1861 12.9567 10.1329 13.2242 10.1502 13.4918C10.1859 14.0513 10.5119 14.5677 10.9512 14.6736C11.0327 14.6932 11.1179 14.6957 11.2006 14.6811C11.2833 14.6665 11.3614 14.6351 11.4293 14.5892C11.5178 14.5119 11.5317 14.4504 11.5209 14.4447Z" fill="#231812"/>
<path d="M13.75 11.2284C13.8998 11.1973 14.0475 11.1581 14.1924 11.1111C14.582 10.9685 14.9305 10.7447 15.2107 10.4573C15.4046 10.2611 15.5734 10.0451 15.7137 9.81345C15.8709 9.54488 15.9988 9.2626 16.0956 8.97076C16.3082 8.35412 16.4153 7.64591 16.5613 6.90909C16.7072 6.17226 16.8717 5.47837 17.072 4.84742C17.2424 4.2927 17.4572 3.7504 17.7146 3.22498C17.8892 2.87122 18.0899 2.52894 18.3154 2.20058C18.3946 2.08326 18.4706 1.99885 18.5094 1.93876C18.5308 1.90803 18.5546 1.87886 18.5808 1.85149C18.5653 1.88543 18.5455 1.9176 18.5218 1.94734C18.483 2.00887 18.4163 2.09042 18.3418 2.21632C18.1276 2.54875 17.9353 2.89275 17.7659 3.24644C17.5186 3.77244 17.3111 4.31359 17.1449 4.86602C16.9524 5.48981 16.7879 6.18657 16.642 6.92196C16.4961 7.65735 16.3858 8.36842 16.167 8.99079C16.0679 9.28865 15.9357 9.57631 15.7727 9.84922C15.6283 10.0842 15.4537 10.3023 15.2527 10.4988C14.9643 10.7879 14.605 11.0092 14.2048 11.144C14.0581 11.1911 13.9051 11.2195 13.75 11.2284Z" fill="#263238"/>
<path d="M5.87842 34.0427L11.7974 47.2869L9.93464 53.5435H33.4182C33.4182 53.5435 31.8659 47.0094 31.7743 45.54C31.6827 44.0707 31.7743 35.6881 31.0152 32.8066C30.2561 29.9251 28.0829 23.763 28.0829 23.763L21.6873 22.8316C18.7549 24.2823 16.4544 24.0391 13.3047 22.3566L7.50991 24.982L5.87842 34.0427Z" fill="#C8192D"/>
<g opacity="0.3">
<path d="M31.9322 46.5014L13.9253 48.1468C15.223 48.121 16.2227 49.134 17.3482 49.7334C19.4298 50.8437 22.0222 50.5332 24.3973 50.1884L30.2961 49.33C30.7928 49.2584 31.3222 49.1726 31.6932 48.8536C32.3483 48.2884 32.1682 47.3041 31.9322 46.5014Z" fill="black"/>
</g>
<path d="M18.1788 45.1365L15.1673 42.4525C15.0226 42.324 14.8494 42.2258 14.6598 42.1645C14.4701 42.1033 14.2683 42.0805 14.0682 42.0977C13.2067 42.1721 11.7475 42.3123 11.4479 42.4196C11.0164 42.5741 10.6081 42.7945 10.4886 42.9919C10.2654 43.5041 10.0813 44.0299 9.9375 44.5657C9.93828 44.7549 9.95436 44.9438 9.98562 45.1308C9.99411 45.1938 10.019 45.2541 10.0582 45.3063C10.0975 45.3585 10.1498 45.4012 10.2108 45.4307C10.2718 45.4602 10.3397 45.4757 10.4086 45.4758C10.4775 45.4759 10.5454 45.4606 10.6066 45.4313C10.725 45.375 10.824 45.2893 10.8922 45.1838C11.0831 44.8518 11.0598 44.7202 11.0598 44.7202C11.0598 44.7202 10.9636 45.9134 12.0192 45.9349C12.0192 45.9349 11.5333 46.9507 12.89 47.3656C12.89 47.3656 12.8403 48.028 13.9766 48.1167C14.6999 48.1695 15.4266 48.1695 16.1499 48.1167C16.1499 48.1167 18.2254 49.4902 19.6876 49.5789C21.1499 49.6676 24.4238 49.0782 24.4238 49.0782L24.8181 43.5198L18.1788 45.1365Z" fill="#AE7461"/>
<path d="M14.0915 43.434C13.9383 43.508 13.7789 43.5706 13.6149 43.6214C13.3045 43.7258 12.89 43.8646 12.4119 43.9819C12.1744 44.0449 11.9353 44.0792 11.7366 44.125C11.5624 44.1777 11.4157 44.2884 11.3252 44.4355C11.259 44.5347 11.1864 44.6303 11.1079 44.7216C11.0489 44.786 11.007 44.8146 11.0039 44.8103C11.0276 44.7734 11.054 44.738 11.0831 44.7045C11.1343 44.6372 11.1948 44.5313 11.2771 44.4026C11.3234 44.3306 11.3786 44.2639 11.4417 44.2037C11.5186 44.1368 11.6117 44.0877 11.7133 44.0606C11.926 44.002 12.1526 43.9691 12.3901 43.9061C12.8651 43.7902 13.2889 43.6586 13.5963 43.567C13.7576 43.5116 13.9231 43.4671 14.0915 43.434Z" fill="#231812"/>
<path d="M14.4797 45.138C14.3742 45.1973 14.2617 45.2453 14.1444 45.281C13.9333 45.3597 13.6368 45.4613 13.3077 45.5672C12.9786 45.6731 12.6759 45.7517 12.4554 45.8075C12.3383 45.8443 12.2169 45.8683 12.0938 45.8791C12.2038 45.8274 12.3193 45.7862 12.4384 45.756L13.2813 45.4971L14.1242 45.2367C14.2385 45.1922 14.3577 45.1591 14.4797 45.138Z" fill="#231812"/>
<path d="M15.2248 46.7218C15.2248 46.7447 14.7002 46.7947 14.073 46.9521C13.4459 47.1095 12.96 47.3084 12.9507 47.2869C13.0458 47.2234 13.1504 47.1728 13.2611 47.1367C13.7764 46.9299 14.322 46.7944 14.8802 46.7347C14.9939 46.7156 15.1099 46.7113 15.2248 46.7218Z" fill="#231812"/>
<path d="M22.2134 49.433L35.5634 47.2969C35.5634 47.2969 33.9909 41.2779 31.6438 41.2779C31.3007 41.2779 19.6831 45.2839 19.6831 45.2839L22.2134 49.433Z" fill="#AE7461"/>
<path d="M27.9259 23.7573C27.9259 23.7573 29.8663 24.1393 31.2479 26.7418C32.6139 29.317 37.8965 40.6441 38.1029 42.5455C38.3094 44.4469 36.636 47.0051 35.1783 47.3585L30.6766 41.2779L30.8148 40.3908L27.0488 28.8149L27.9259 23.7573Z" fill="#C8192D"/>
<path d="M19.8708 46.7404C19.7598 46.6599 19.6559 46.5714 19.5603 46.4757L18.8292 45.8133C18.5451 45.5529 18.2921 45.3125 18.1135 45.1351C18.0112 45.0437 17.9196 44.9425 17.8403 44.8332C17.952 44.9129 18.0559 45.0015 18.1508 45.0979L18.8819 45.7603C19.166 46.0207 19.419 46.2597 19.596 46.4385C19.6994 46.5295 19.7915 46.6307 19.8708 46.7404Z" fill="#231812"/>
<path d="M28.9055 28.0652C28.9154 28.0727 28.9243 28.0814 28.9319 28.0909L29.0048 28.1696C29.0669 28.2426 29.1601 28.3413 29.2749 28.4844C29.5934 28.8788 29.8729 29.2987 30.1101 29.7391C30.4633 30.3927 30.7401 31.079 30.9359 31.7865C31.1743 32.653 31.3189 33.5391 31.3675 34.4319C31.4684 36.3333 31.2122 38.0473 31.0228 39.2734C30.9219 39.8887 30.8304 40.3837 30.7667 40.7256L30.6891 41.1191C30.6798 41.1606 30.6736 41.1949 30.6674 41.2221C30.6653 41.2339 30.6617 41.2454 30.6565 41.2564C30.6548 41.2446 30.6548 41.2325 30.6565 41.2207L30.6705 41.1176C30.6844 41.0204 30.7062 40.8887 30.7326 40.7213C30.7869 40.3708 30.8661 39.8758 30.9623 39.2663C31.1424 38.0387 31.3845 36.3276 31.2836 34.4347C31.2351 33.5471 31.0931 32.666 30.8598 31.8036C30.6685 31.0999 30.3991 30.4163 30.0557 29.7634C29.8248 29.3228 29.5543 28.9007 29.247 28.5015C29.143 28.3585 29.0467 28.254 28.9893 28.1796L28.9225 28.0952C28.9117 28.0766 28.9039 28.0666 28.9055 28.0652Z" fill="#263238"/>
<path d="M35.6581 40.8186C35.5954 40.8115 35.5338 40.7971 35.475 40.7757L34.9798 40.6326C34.4433 40.4703 33.8905 40.3581 33.3297 40.2978C32.7661 40.2422 32.1962 40.3023 31.6609 40.4738C31.4438 40.5545 31.2337 40.6502 31.0322 40.76C31.0773 40.7159 31.1297 40.6787 31.1875 40.6498C31.3328 40.5582 31.489 40.4824 31.6532 40.4237C32.1871 40.2362 32.7615 40.1675 33.3297 40.2234C33.8986 40.2838 34.4581 40.4048 34.9969 40.584C35.2033 40.6498 35.3694 40.707 35.4827 40.7485C35.5441 40.7651 35.603 40.7887 35.6581 40.8186Z" fill="#263238"/>
<path d="M35.118 38.1246C35.0597 38.1522 34.9983 38.1738 34.9348 38.189C34.8153 38.2247 34.643 38.2805 34.4334 38.3549C33.3396 38.7459 32.3481 39.3462 31.5243 40.1161C31.3691 40.2592 31.2434 40.3865 31.1595 40.4738C31.1196 40.5215 31.0738 40.5647 31.0229 40.6026C31.0555 40.5516 31.0934 40.5036 31.1363 40.4595C31.2452 40.3287 31.3612 40.2031 31.484 40.0832C32.2924 39.2825 33.2982 38.673 34.4163 38.3063C34.6305 38.2362 34.806 38.1875 34.9286 38.1632C34.9903 38.1449 35.0537 38.132 35.118 38.1246Z" fill="#263238"/>
<g opacity="0.3">
<path d="M30.5166 30.7449C31.5862 33.3137 31.8849 36.1007 31.3812 38.8128L33.7951 37.9815C33.1336 38.8227 32.2759 39.5164 31.285 40.0117C31.937 39.8386 32.6045 39.6626 33.2813 39.7041C33.9581 39.7456 34.6582 40.0446 34.9625 40.604C34.1723 40.471 33.3682 40.3379 32.5703 40.4237C31.7724 40.5096 30.9683 40.853 30.5383 41.4739C31.1349 39.1 31.3638 36.6603 31.2183 34.2273" fill="black"/>
</g>
<path d="M14.8432 24.537C13.7146 22.3265 12.4541 20.0217 12.6482 17.5866C11.397 17.9586 10.6053 19.3177 10.9608 20.4838L10.0449 22.72C10.3427 24.5295 11.0627 26.2579 12.1553 27.7861C13.2479 29.3143 14.6872 30.6059 16.3737 31.5719C17.018 29.2026 15.9701 26.746 14.8432 24.537Z" fill="#263238"/>
<path d="M7.78314 24.8189C7.78314 24.8189 3.30159 27.2296 4.46117 31.6634C5.76978 36.6609 17.8375 44.1265 17.8375 44.1265C17.2709 41.0375 17.7134 38.0831 19.5451 35.3146L13.3048 29.9795" fill="#C8192D"/>
<path d="M13.3048 29.9795L13.4196 30.071L13.7487 30.3472L15.0061 31.4102L19.5746 35.2932L19.5932 35.3089L19.5793 35.3304C18.7755 36.5414 18.2086 37.8731 17.9043 39.2649C17.5767 40.8688 17.5693 42.5144 17.8826 44.1207L17.8981 44.2051L17.8205 44.1565C16.5491 43.3567 15.2607 42.484 13.9676 41.5569C11.442 39.7341 9.12902 37.8728 7.28176 35.9513C7.04736 35.7138 6.83314 35.4663 6.61426 35.2274C6.39538 34.9884 6.18737 34.7509 6.00885 34.4934C5.62735 34.019 5.28785 33.5171 4.99363 32.9926C4.45285 32.049 4.19964 30.9879 4.26094 29.9222C4.31479 29.045 4.58786 28.191 5.05883 27.4271C5.41236 26.8523 5.85067 26.3256 6.36123 25.8619C6.68236 25.5683 7.02804 25.2985 7.39508 25.0549C7.52081 24.9734 7.62016 24.9119 7.68691 24.8747C7.75366 24.8375 7.79092 24.8189 7.79092 24.8189L7.69157 24.8804C7.62637 24.9219 7.53634 24.9834 7.40439 25.0678C7.0421 25.315 6.70113 25.5876 6.38451 25.8833C5.87584 26.3486 5.44056 26.8774 5.09143 27.4543C4.62918 28.2142 4.36356 29.0622 4.31527 29.9323C4.25857 30.9877 4.51226 32.0376 5.04952 32.9711C5.34365 33.4922 5.68263 33.9908 6.06318 34.4619C6.24946 34.7109 6.46523 34.9455 6.67014 35.193C6.87505 35.4405 7.10324 35.6766 7.33764 35.9084C9.18335 37.8227 11.4948 39.6798 14.0126 41.5011C15.3042 42.4268 16.591 43.2995 17.8608 44.0993L17.7987 44.135C17.4863 42.5202 17.4963 40.8664 17.8282 39.2548C18.1364 37.8561 18.7097 36.5184 19.5218 35.3032V35.339L14.9735 31.4374L13.7317 30.3629L13.4088 30.0768C13.3358 30.0138 13.3048 29.9795 13.3048 29.9795Z" fill="#263238"/>
<path d="M17.8375 43.9619C17.8375 43.9619 20.6627 46.0851 23.5547 44.8203C24.0204 44.6186 24.5994 44.0878 24.9518 43.2022C26.7944 38.5509 27.0102 26.2696 27.0102 26.2696L21.9636 25.9548L19.5512 35.3161C17.8142 37.6124 17.2678 40.5024 17.8375 43.9619Z" fill="#AE7461"/>
<path d="M25.6224 41.0046C25.6213 41.0344 25.6177 41.064 25.6115 41.0933C25.6022 41.1505 25.5898 41.2364 25.5665 41.3451C25.5246 41.5626 25.4548 41.8773 25.3399 42.2608C25.2099 42.7108 25.0294 43.1472 24.8012 43.5627C24.531 44.0856 24.1113 44.5307 23.5873 44.8504C23.0425 45.1351 22.4252 45.2808 21.799 45.2725C21.292 45.2733 20.7876 45.2043 20.3026 45.0679C19.9754 44.9795 19.6578 44.8631 19.3541 44.7202C19.2455 44.673 19.1679 44.6243 19.112 44.5957C19.083 44.5825 19.0559 44.5662 19.0312 44.5471C19.0312 44.5471 19.1523 44.6 19.3681 44.6901C19.6746 44.8218 19.9923 44.93 20.3181 45.0135C20.799 45.1404 21.2972 45.2031 21.7975 45.1995C22.4115 45.204 23.016 45.0594 23.5501 44.7803C24.0611 44.4701 24.4718 44.0386 24.7391 43.5313C24.9685 43.1199 25.1531 42.6885 25.2902 42.2436C25.4113 41.8645 25.4889 41.5526 25.5401 41.3365L25.6007 41.0876C25.6041 41.0592 25.6114 41.0313 25.6224 41.0046Z" fill="#231812"/>
<path d="M19.3864 35.3819C19.1121 35.4287 18.8426 35.4966 18.5807 35.585C17.9598 35.8241 17.4046 36.1877 16.9554 36.6495C16.5112 37.116 16.1201 37.6232 15.7881 38.1632L15.4776 38.6511C15.4423 38.7129 15.4012 38.7717 15.355 38.8271C15.3803 38.7612 15.412 38.6975 15.4497 38.6368C15.5149 38.518 15.6127 38.3506 15.7384 38.1374C16.0584 37.5851 16.447 37.069 16.8964 36.5994C17.3518 36.1284 17.9222 35.764 18.5605 35.5364C18.7543 35.4695 18.9551 35.4215 19.1597 35.3933C19.2153 35.3856 19.2712 35.3808 19.3274 35.379C19.3471 35.3765 19.3671 35.3775 19.3864 35.3819Z" fill="#263238"/>
<path d="M22.1435 24.7359C22.0317 24.3939 21.403 21.2235 21.1484 20.4866C20.7867 19.4422 17.856 17.5823 17.856 17.5823C17.856 17.5823 18.3217 16.6065 19.5635 17.113C21.0413 17.7139 21.7725 18.7254 22.1435 18.5194C22.5145 18.3134 24.8368 16.1358 25.4701 16.2045C26.1034 16.2732 26.2463 16.8712 26.0181 17.1116C25.8469 17.3135 25.6913 17.5262 25.5524 17.7482C25.5524 17.7482 26.892 17.3762 26.639 18.7283C26.639 18.7283 28.1649 17.8512 28.0159 19.704C28.0159 19.704 29.0203 19.3263 29.2438 19.9787C29.4673 20.6311 28.8045 21.3851 28.4676 21.9002C28.1308 22.4152 27.0457 25.3997 27.0457 25.3997L26.92 27.2253L21.6871 27.025L22.1435 24.7359Z" fill="#AE7461"/>
<path d="M26.9777 27.4027C26.9777 27.4027 26.9777 27.3584 26.9777 27.2725C26.9777 27.1867 26.9777 27.0551 26.9777 26.8877C26.9854 26.5457 26.9963 26.0464 27.0103 25.4026C27.2835 24.6543 27.6312 23.6857 28.1078 22.5526C28.2209 22.2517 28.3709 21.9637 28.5548 21.6942C28.7605 21.4186 28.9407 21.1276 29.0935 20.8243C29.1697 20.6667 29.2164 20.4984 29.2317 20.3264C29.2504 20.1527 29.205 19.9783 29.1028 19.8314C29.0758 19.7967 29.044 19.7654 29.0081 19.7384C28.9697 19.7132 28.9279 19.6925 28.8839 19.6768C28.7929 19.6444 28.6959 19.6284 28.5983 19.6296C28.3965 19.633 28.1968 19.6688 28.0084 19.7355L27.9572 19.7541V19.7026C27.9722 19.5272 27.9685 19.3508 27.9463 19.1761C27.9307 18.9996 27.8546 18.8323 27.729 18.6982C27.6586 18.6384 27.5736 18.5952 27.4811 18.5723C27.3887 18.5494 27.2916 18.5474 27.1981 18.5666C26.9989 18.5983 26.8078 18.6638 26.6346 18.7598L26.5679 18.7955L26.5772 18.724L26.6051 18.5151C26.6051 18.445 26.6051 18.372 26.6051 18.3034C26.5942 18.1626 26.5368 18.0283 26.4406 17.9185C26.3309 17.8157 26.1838 17.754 26.0277 17.7454C25.866 17.7317 25.7031 17.7448 25.5464 17.784L25.4533 17.8083L25.5014 17.7311C25.5946 17.588 25.6908 17.4449 25.7964 17.309C25.8491 17.2403 25.905 17.1659 25.964 17.1058C26.0204 17.047 26.0556 16.9735 26.0649 16.8955C26.0739 16.8155 26.0647 16.7346 26.038 16.658C26.0113 16.5814 25.9676 16.5108 25.9097 16.4506C25.7897 16.3282 25.6226 16.2538 25.444 16.2431C25.3553 16.2451 25.2682 16.2656 25.1894 16.3032C25.1043 16.3391 25.0218 16.3803 24.9426 16.4262C24.7818 16.5189 24.6264 16.6192 24.4769 16.7267C24.1664 16.9413 23.8746 17.1731 23.5796 17.4106L22.8935 17.9829C22.6638 18.1689 22.4464 18.3606 22.2027 18.5337C22.1693 18.5592 22.1298 18.5772 22.0875 18.5861C22.0452 18.5951 22.0012 18.5948 21.959 18.5852C21.8819 18.5644 21.8098 18.5304 21.7464 18.4851C21.6268 18.4011 21.5123 18.3113 21.4033 18.2161C21.1844 18.0315 20.964 17.8541 20.7311 17.6939C20.5014 17.5343 20.2591 17.3909 20.0062 17.2646C19.7651 17.1372 19.5029 17.0473 19.23 16.9985C18.9628 16.9525 18.6866 16.9861 18.4415 17.0944C18.207 17.2082 18.0154 17.3848 17.8919 17.6009L17.8795 17.5579C18.6658 18.0511 19.4114 18.5972 20.1102 19.1918C20.4359 19.4644 20.7271 19.7701 20.9779 20.1032C21.0397 20.1846 21.0918 20.2719 21.1332 20.3636C21.1518 20.4079 21.1766 20.4523 21.1922 20.4981L21.2341 20.6412C21.2853 20.8243 21.3303 21.0046 21.3738 21.182C21.7122 22.6012 21.9419 23.8159 22.1701 24.7344V24.7359C22.0149 25.4727 21.9 26.045 21.8193 26.4341L21.7262 26.8734C21.7044 26.9721 21.6905 27.0164 21.6905 27.0164C21.6905 27.0164 21.6905 26.9664 21.7153 26.8662C21.7401 26.7661 21.7619 26.6187 21.7991 26.4256L22.1251 24.7359C21.8876 23.8131 21.6594 22.6027 21.307 21.1848C21.2108 20.8357 21.1518 20.4509 20.9205 20.1318C20.6728 19.8029 20.3848 19.5014 20.0621 19.2333C19.3635 18.6437 18.6196 18.1015 17.836 17.6109L17.8081 17.5937L17.8221 17.568C17.9489 17.3318 18.1566 17.1406 18.413 17.024C18.6694 16.9074 18.9604 16.8718 19.2409 16.9227C19.524 16.972 19.7963 17.0643 20.0466 17.196C20.3039 17.3214 20.5505 17.4649 20.7839 17.6252C21.019 17.79 21.2449 17.9657 21.4607 18.1517C21.5709 18.2418 21.6812 18.3363 21.7976 18.415C21.914 18.4936 22.0522 18.558 22.1608 18.4636C22.3937 18.2976 22.6157 18.1031 22.8438 17.9171L23.5315 17.3519C23.8265 17.113 24.1245 16.8798 24.4319 16.6637C24.5871 16.5564 24.7423 16.452 24.9084 16.359C24.9908 16.312 25.0763 16.2699 25.1646 16.2331C25.2551 16.1907 25.3549 16.1678 25.4564 16.1659C25.657 16.1782 25.8445 16.2618 25.9795 16.3991C26.0452 16.467 26.0946 16.547 26.1243 16.6338C26.154 16.7206 26.1634 16.8123 26.1518 16.9027C26.1417 16.9954 26.1005 17.0829 26.0339 17.1531C25.9764 17.216 25.9221 17.2832 25.8709 17.3519C25.7669 17.4864 25.6691 17.6266 25.579 17.7683L25.534 17.7153C25.7003 17.6739 25.8732 17.6598 26.0447 17.6738C26.2208 17.6843 26.3866 17.754 26.5104 17.8698C26.6177 17.9922 26.6817 18.1421 26.6936 18.2991C26.6936 18.3735 26.6936 18.4421 26.6936 18.5208L26.6657 18.7383L26.6082 18.7025C26.7894 18.6007 26.9902 18.5322 27.1997 18.5008C27.3022 18.4829 27.4075 18.4829 27.5101 18.5008C27.6157 18.523 27.7122 18.5726 27.788 18.6439C27.9237 18.7883 28.0063 18.9686 28.0239 19.1589C28.0469 19.3389 28.0505 19.5205 28.0348 19.7012L27.9851 19.6683C28.1833 19.5975 28.3936 19.5602 28.6061 19.5581C28.7123 19.5569 28.8178 19.5749 28.9165 19.611C28.9662 19.6282 29.0131 19.6513 29.0562 19.6797C29.0976 19.7106 29.1346 19.7462 29.1665 19.7856C29.2761 19.9458 29.3253 20.1349 29.3062 20.3235C29.2893 20.502 29.2399 20.6766 29.1602 20.84C29.0063 21.1465 28.8235 21.44 28.6138 21.7171C28.432 21.9809 28.2826 22.2626 28.1683 22.5569C27.6902 23.6829 27.3332 24.6529 27.0537 25.3983C27.032 26.0421 27.0149 26.5429 27.0041 26.882C27.0041 27.0494 26.9916 27.1767 26.9885 27.2668C26.9854 27.357 26.9777 27.4027 26.9777 27.4027Z" fill="#231812"/>
<path d="M25.5401 17.7869C25.3366 17.9841 25.1204 18.1699 24.8928 18.3434C24.6832 18.5356 24.4619 18.7167 24.23 18.8857C24.4051 18.6642 24.6095 18.4638 24.8385 18.289C25.0495 18.0962 25.2851 17.9275 25.5401 17.7869Z" fill="#231812"/>
<path d="M26.7337 18.6596C26.5764 19.0574 26.2883 19.4001 25.9095 19.6396C25.8939 19.6225 26.1144 19.4336 26.341 19.1632C26.5677 18.8928 26.712 18.6496 26.7337 18.6596Z" fill="#231812"/>
<path d="M27.9816 19.6411C27.9101 19.7929 27.8155 19.9345 27.7007 20.0617C27.6062 20.2031 27.4895 20.3309 27.3545 20.4409C27.5167 20.147 27.726 19.8774 27.9754 19.6411H27.9816Z" fill="#231812"/>
</svg>
