<svg width="103" height="100" viewBox="0 0 103 100" fill="none" xmlns="http://www.w3.org/2000/svg">
<g clip-path="url(#clip0_1412_14454)">
<path d="M19.3602 56.1086L5.34424 58.6552L7.44129 69.5343L21.4573 66.9877L19.3602 56.1086Z" fill="#F5F5F5"/>
<path d="M19.364 56.112L19.296 56.128L19.09 56.166L18.3298 56.31L15.4603 56.844L5.35596 58.704L5.3951 58.648C6.0131 61.886 6.73822 65.598 7.49836 69.526L7.4345 69.482L21.4425 66.946L21.4075 66.998C20.7895 63.722 20.2704 61.008 19.9099 59.106C19.7327 58.156 19.5926 57.41 19.4979 56.906C19.4505 56.652 19.4155 56.458 19.3907 56.322C19.366 56.186 19.3557 56.122 19.3557 56.122C19.3557 56.122 19.3722 56.186 19.3969 56.322L19.5143 56.896C19.6153 57.406 19.7615 58.148 19.949 59.096C20.3219 61.002 20.8533 63.724 21.4961 67.008L21.5064 67.05L21.461 67.06L7.4448 69.6L7.39124 69.61L7.38094 69.556C6.62698 65.628 5.91216 61.916 5.29004 58.676V58.63L5.33948 58.62L15.4829 56.8L18.3443 56.292L19.1003 56.16L19.2919 56.128L19.364 56.112Z" fill="#E0E0E0"/>
<path d="M18.9904 56.8839L5.9585 59.2517L7.79143 68.7607L20.8233 66.3928L18.9904 56.8839Z" fill="#EBEBEB"/>
<path d="M7.78662 68.764L11.2 62.026L14.7309 65.212L16.2635 62.888L20.8182 66.398L7.78662 68.764Z" fill="#E0E0E0"/>
<path d="M15.0769 60.574C15.1149 60.7711 15.0918 60.9747 15.0106 61.1591C14.9295 61.3435 14.7938 61.5003 14.6208 61.6099C14.4478 61.7194 14.2453 61.7767 14.0388 61.7745C13.8322 61.7723 13.631 61.7107 13.4606 61.5974C13.2901 61.4842 13.158 61.3245 13.0811 61.1384C13.0041 60.9523 12.9857 60.7483 13.0282 60.5521C13.0706 60.3558 13.1721 60.1762 13.3197 60.0359C13.4673 59.8957 13.6544 59.801 13.8574 59.764C13.9922 59.7394 14.1307 59.7408 14.265 59.7682C14.3993 59.7956 14.5267 59.8484 14.64 59.9237C14.7533 59.9989 14.8501 60.095 14.9251 60.2066C15.0001 60.3182 15.0516 60.443 15.0769 60.574Z" fill="#E0E0E0"/>
<path d="M40.3599 10.5294L33.1841 49.018L62.5359 54.1762L69.7117 15.6877L40.3599 10.5294Z" fill="#FAFAFA"/>
<path d="M62.5352 54.178C62.5352 54.178 62.5455 54.114 62.5661 53.994L62.665 53.452C62.7515 52.976 62.8813 52.272 63.0481 51.358C63.388 49.526 63.8824 46.85 64.5087 43.462L69.6587 15.682L69.6999 15.738L40.3552 10.584L40.419 10.54C37.741 24.898 35.2546 38.198 33.2317 49.026L33.1967 48.976L54.5239 52.748L60.4422 53.8L61.9996 54.08C62.3519 54.142 62.5352 54.178 62.5352 54.178L62.0078 54.09L60.4567 53.822L54.5383 52.8L33.1761 49.068H33.1328V49.026C35.1496 38.194 37.6277 24.894 40.3016 10.536V10.484H40.3572L69.7205 15.642L69.7699 15.652V15.698C67.6337 27.098 65.8291 36.724 64.5602 43.498L63.077 51.378C62.9039 52.288 62.7721 52.978 62.6815 53.462C62.6361 53.696 62.6032 53.874 62.5805 53.996L62.5352 54.178Z" fill="#E0E0E0"/>
<path d="M55.3017 16.787L42.8394 14.5969L40.8741 25.1376L53.3365 27.3277L55.3017 16.787Z" fill="#E0E0E0"/>
<path d="M65.2417 18.5338L57.2632 17.1316L57.0067 18.5073L64.9852 19.9094L65.2417 18.5338Z" fill="#E0E0E0"/>
<path d="M63.4019 31.3151L40.6299 27.3132L40.3734 28.6888L63.1454 32.6907L63.4019 31.3151Z" fill="#E0E0E0"/>
<path d="M62.9527 33.7364L40.1807 29.7345L39.9242 31.1101L62.6962 35.112L62.9527 33.7364Z" fill="#E0E0E0"/>
<path d="M62.5015 36.1576L39.7295 32.1557L39.473 33.5314L62.245 37.5333L62.5015 36.1576Z" fill="#E0E0E0"/>
<path d="M62.0479 38.5785L39.2759 34.5766L39.0194 35.9523L61.7914 39.9542L62.0479 38.5785Z" fill="#E0E0E0"/>
<path d="M61.5967 40.9978L38.8247 36.9959L38.5682 38.3716L61.3402 42.3735L61.5967 40.9978Z" fill="#E0E0E0"/>
<path d="M60.0493 49.2996L37.2773 45.2977L37.0209 46.6733L59.7929 50.6752L60.0493 49.2996Z" fill="#E0E0E0"/>
<path d="M50.8759 41.6151L38.375 39.4183L38.1185 40.7939L50.6194 42.9908L50.8759 41.6151Z" fill="#E0E0E0"/>
<path d="M64.8276 20.7606L56.8491 19.3584L56.5926 20.7341L64.5712 22.1362L64.8276 20.7606Z" fill="#E0E0E0"/>
<path d="M64.1101 23.0154L56.1641 21.5985L55.9049 22.9685L63.8509 24.3855L64.1101 23.0154Z" fill="#E0E0E0"/>
<path d="M60.9382 24.6729L56.0186 23.8083L55.7621 25.1839L60.6818 26.0485L60.9382 24.6729Z" fill="#E0E0E0"/>
<path d="M75.8079 10.352L73.2762 10.452L73.0022 11.14C72.924 11.3192 72.8821 11.5114 72.8786 11.706C72.8761 11.792 72.8982 11.8771 72.9426 11.9516C72.987 12.0261 73.0518 12.0872 73.1299 12.128C73.3588 12.1988 73.5985 12.2307 73.8386 12.222V12.422L71.4819 12.506V12.306C71.7214 12.2657 71.9395 12.1472 72.0999 11.97C72.3437 11.6421 72.536 11.2808 72.6706 10.898L74.9839 5.254H75.0849L77.905 10.854C78.1797 11.3873 78.3967 11.7207 78.556 11.854C78.7034 11.9642 78.8849 12.0227 79.071 12.02V12.208L75.604 12.344V12.154H75.7482C75.9512 12.1632 76.1527 12.116 76.3291 12.018C76.3666 11.9902 76.3961 11.9536 76.4149 11.9115C76.4336 11.8695 76.441 11.8236 76.4362 11.778C76.433 11.7138 76.4198 11.6504 76.3971 11.59C76.3971 11.56 76.3291 11.432 76.222 11.212L75.8079 10.352ZM75.6122 9.98L74.4463 7.624L73.4451 10.064L75.6122 9.98Z" fill="#E0E0E0"/>
<path d="M80.6022 24.8842L69.0234 28.639L72.1156 37.6269L83.6943 33.8721L80.6022 24.8842Z" fill="#F5F5F5"/>
<path d="M80.3787 25.5843L69.6147 29.0749L72.3173 36.9303L83.0812 33.4397L80.3787 25.5843Z" fill="#EBEBEB"/>
<path d="M72.3184 36.934L74.399 30.832L77.7774 33.132L78.795 30.986L83.0819 33.444L72.3184 36.934Z" fill="#E0E0E0"/>
<path d="M77.5095 29.158C77.5656 29.3208 77.5707 29.4962 77.5241 29.6618C77.4776 29.8274 77.3815 29.976 77.248 30.0886C77.1145 30.2012 76.9496 30.2728 76.7742 30.2944C76.5987 30.316 76.4206 30.2867 76.2624 30.21C76.1041 30.1333 75.9729 30.0128 75.8852 29.8637C75.7975 29.7146 75.7574 29.5436 75.7698 29.3723C75.7822 29.201 75.8467 29.0372 75.9551 28.9015C76.0634 28.7658 76.2108 28.6644 76.3785 28.61C76.4899 28.5736 76.6075 28.559 76.7246 28.5669C76.8418 28.5748 76.9562 28.605 77.0612 28.6559C77.1663 28.7069 77.26 28.7774 77.3369 28.8636C77.4139 28.9497 77.4725 29.0498 77.5095 29.158Z" fill="#E0E0E0"/>
<path d="M80.9235 14.4317L78.0894 28.4828L96.1908 31.9244L99.0249 17.8733L80.9235 14.4317Z" fill="#F5F5F5"/>
<path d="M99.0284 17.874L98.9398 17.86L98.6844 17.816L97.6997 17.634L93.9917 16.942L80.9169 14.48L80.9745 14.442C80.132 18.624 79.1679 23.418 78.1462 28.492L78.1029 28.428L96.2021 31.882L96.1485 31.916C97.0116 27.688 97.7265 24.182 98.227 21.732C98.4804 20.506 98.6782 19.544 98.8141 18.886C98.8821 18.558 98.9336 18.308 98.9707 18.134C99.0078 17.96 99.0284 17.874 99.0284 17.874C99.0284 17.874 99.014 17.96 98.981 18.128C98.948 18.296 98.9007 18.548 98.8368 18.872C98.707 19.528 98.5175 20.488 98.2765 21.712C97.7862 24.172 97.0837 27.69 96.2391 31.934L96.2288 31.978H96.1856L78.0741 28.536L78.0205 28.526L78.0308 28.474C79.0608 23.402 80.0269 18.608 80.8715 14.426L80.8819 14.378L80.9292 14.388L94.0329 16.9L97.7244 17.616L98.6988 17.816L98.946 17.866L99.0284 17.874Z" fill="#E0E0E0"/>
<path d="M81.3711 15.4354L78.894 27.7161L95.7239 30.9159L98.201 18.6351L81.3711 15.4354Z" fill="#EBEBEB"/>
<path d="M78.894 27.718L86.3121 21.202L88.9901 26.67L91.975 24.586L95.7242 30.918L78.894 27.718Z" fill="#E0E0E0"/>
<path d="M91.6886 21.252C91.6376 21.5068 91.5099 21.7411 91.3216 21.9254C91.1334 22.1097 90.8931 22.2357 90.6311 22.2873C90.3691 22.339 90.0972 22.3141 89.8498 22.2157C89.6024 22.1173 89.3907 21.9498 89.2413 21.7346C89.0919 21.5193 89.0117 21.2659 89.0108 21.0063C89.0098 20.7468 89.0881 20.4928 89.2359 20.2765C89.3837 20.0601 89.5942 19.8912 89.8408 19.7911C90.0875 19.691 90.3592 19.6642 90.6215 19.714C90.7957 19.7468 90.9615 19.8126 91.1094 19.9077C91.2573 20.0028 91.3845 20.1253 91.4836 20.2681C91.5827 20.411 91.6518 20.5714 91.687 20.7403C91.7222 20.9091 91.7227 21.083 91.6886 21.252Z" fill="#E0E0E0"/>
<path d="M11.2764 6.642L12.2116 17.238L16.4449 18.352L24.6561 17.426L23.5004 5.498L11.2764 6.642Z" fill="#F5F5F5"/>
<path d="M13.5034 16.286L12.2139 17.238C12.704 17.6506 13.2771 17.9598 13.8969 18.146C14.7254 18.3698 15.5903 18.4377 16.4451 18.346C16.4451 18.346 14.4902 18.024 13.5034 16.286Z" fill="#EBEBEB"/>
<path d="M22.5114 9.4C22.5114 9.42 20.4349 9.63 17.8702 9.872C15.3055 10.114 13.2208 10.294 13.2188 10.272C13.2167 10.25 15.2952 10.036 17.862 9.8C20.4288 9.564 22.5094 9.374 22.5114 9.4Z" fill="#E0E0E0"/>
<path d="M22.633 11.024C22.633 11.044 20.5565 11.256 17.9918 11.498C15.4271 11.74 13.3424 11.918 13.3403 11.898C13.3383 11.878 15.4168 11.666 17.9836 11.424C20.5503 11.182 22.6309 11 22.633 11.024Z" fill="#E0E0E0"/>
<path d="M22.8287 12.462C22.8287 12.482 20.7522 12.694 18.1875 12.934C15.6228 13.174 13.5401 13.356 13.5381 13.334C13.536 13.312 15.6125 13.104 18.1793 12.862C20.746 12.62 22.8266 12.442 22.8287 12.462Z" fill="#E0E0E0"/>
<path d="M22.9587 13.852C22.9587 13.87 20.8822 14.082 18.3154 14.324C15.7487 14.566 13.6681 14.746 13.666 14.724C13.664 14.702 15.7425 14.492 18.3093 14.252C20.876 14.012 22.9566 13.832 22.9587 13.852Z" fill="#E0E0E0"/>
<path d="M99.7844 91.98C99.7844 92.008 78.072 92.032 51.2961 92.032C24.5202 92.032 2.80371 92.008 2.80371 91.98C2.80371 91.952 24.5099 91.926 51.2961 91.926C78.0823 91.926 99.7844 91.95 99.7844 91.98Z" fill="#263238"/>
<path d="M8.63965 25.07L17.3246 73.354L53.9473 67.772L55.6447 63.79L45.7361 19.144L11.4083 21.132L8.63965 25.07Z" fill="#E0E0E0"/>
<path opacity="0.3" d="M17.3246 73.354L19.9264 69.484L11.2414 21.198L8.63965 25.07L17.3246 73.354Z" fill="black"/>
<path d="M11.2412 21.198L19.9262 69.484L55.6445 63.79L46.6196 16.3L11.2412 21.198Z" fill="#FAFAFA"/>
<path d="M11.2412 21.2L46.6135 16.26H46.6567V16.3C49.1885 29.562 52.3238 46 55.6981 63.78L55.7084 63.834L55.6528 63.844L55.0636 63.938L19.9344 69.538H19.885V69.49C14.7762 40.972 11.3174 21.624 11.2412 21.2C11.3174 21.626 14.8174 40.966 19.9756 69.476L19.9179 69.438L55.045 63.838L55.6342 63.744L55.5889 63.806C52.2146 46.024 49.0958 29.586 46.5764 16.314L46.6258 16.348L11.2412 21.2Z" fill="#263238"/>
<path d="M39.8792 44.0651C40.3221 40.8295 37.9795 37.858 34.6469 37.428C31.3143 36.998 28.2536 39.2724 27.8107 42.5079C27.3678 45.7435 29.7104 48.715 33.043 49.145C36.3757 49.575 39.4363 47.3006 39.8792 44.0651Z" fill="#414F55"/>
<path d="M31.0524 44.836L30.7764 43.134L36.8472 42.2L37.1067 43.8C37.1067 43.8 36.7359 45.176 34.2804 45.552C31.8249 45.928 31.0524 44.836 31.0524 44.836Z" fill="white"/>
<path d="M29.8184 43.144L34.1505 43.892L37.908 41.84L33.5696 41.174L29.8184 43.144Z" fill="white"/>
<path d="M41.9393 26.6346L20.4137 29.9371C20.1496 29.9776 19.9694 30.2183 20.0111 30.4747L20.0838 30.9212C20.1255 31.1776 20.3734 31.3526 20.6375 31.3121L42.1631 28.0095C42.4272 27.969 42.6075 27.7283 42.5657 27.4719L42.4931 27.0255C42.4513 26.7691 42.2034 26.5941 41.9393 26.6346Z" fill="#E0E0E0"/>
<path d="M38.5341 30.1109L24.883 32.2053C24.6189 32.2458 24.4386 32.4865 24.4803 32.7429L24.553 33.1894C24.5947 33.4457 24.8427 33.6208 25.1067 33.5802L38.7579 31.4858C39.022 31.4453 39.2022 31.2046 39.1605 30.9482L39.0878 30.5018C39.0461 30.2454 38.7982 30.0704 38.5341 30.1109Z" fill="#E0E0E0"/>
<path d="M43.4511 59.7369L29.7999 61.8313C29.5359 61.8718 29.3556 62.1125 29.3973 62.3689L29.47 62.8154C29.5117 63.0718 29.7597 63.2468 30.0237 63.2062L43.6749 61.1118C43.939 61.0713 44.1192 60.8306 44.0775 60.5742L44.0048 60.1278C43.9631 59.8714 43.7152 59.6964 43.4511 59.7369Z" fill="#E0E0E0"/>
<path d="M53.8053 65.132L53.6322 65.164L53.1214 65.25L51.1458 65.57L43.8102 66.738L19.0284 70.648L18.9748 70.658V70.606C18.6287 68.696 18.2641 66.696 17.8933 64.658C15.8992 53.708 14.1029 43.8 12.803 36.622C12.1583 33.034 11.6371 30.132 11.2745 28.124C11.0974 27.124 10.9593 26.342 10.8625 25.812C10.8172 25.548 10.7822 25.348 10.7575 25.212C10.7327 25.076 10.7266 25.012 10.7266 25.012C10.7266 25.012 10.743 25.082 10.7698 25.212C10.7966 25.342 10.8337 25.55 10.8831 25.812C10.982 26.342 11.1262 27.12 11.3137 28.12C11.6824 30.12 12.2159 33.028 12.8751 36.612C14.1832 43.788 15.9919 53.696 17.9881 64.644C18.3589 66.68 18.7214 68.682 19.0696 70.592L19.0057 70.548L43.7957 66.672L51.1355 65.536L53.1131 65.234L53.6261 65.158L53.8053 65.132Z" fill="#263238"/>
<path d="M51.0881 66.948L50.9254 66.98L50.4434 67.062L48.577 67.37L41.6389 68.494L18.0931 72.278H18.0396V72.228L16.6861 65.094C14.6694 54.294 12.8442 44.524 11.5217 37.448C10.8666 33.912 10.3352 31.048 9.96848 29.068C9.78926 28.08 9.64712 27.312 9.55648 26.788C9.51116 26.53 9.47408 26.332 9.45142 26.188C9.42876 26.044 9.41846 25.988 9.41846 25.988C9.41846 25.988 9.43494 26.054 9.46172 26.188L9.57914 26.788C9.67802 27.31 9.82634 28.076 10.0159 29.062L11.6021 37.436C12.9328 44.512 14.7703 54.282 16.7994 65.076C17.2568 67.522 17.7058 69.916 18.1364 72.218L18.0746 72.176L41.6224 68.428L48.5646 67.334L50.4331 67.044L50.9172 66.972L51.0881 66.948Z" fill="#263238"/>
<path d="M12.1048 41.646L11.2993 42.75L13.2543 54.128L14.4182 54.512L12.1048 41.646Z" fill="#263238"/>
<path d="M17.6829 40.6985L12.1064 41.6444L14.4215 54.5095L19.9979 53.5636L17.6829 40.6985Z" fill="#263238"/>
<path d="M17.8603 40.1996L17.497 40.2611C17.2897 40.2963 17.1509 40.4879 17.1871 40.6892L19.5296 53.7203C19.5658 53.9216 19.7632 54.0563 19.9706 54.0211L20.3338 53.9596C20.5411 53.9244 20.6799 53.7328 20.6437 53.5315L18.3012 40.5005C18.265 40.2991 18.0676 40.1644 17.8603 40.1996Z" fill="#263238"/>
<path d="M11.1405 50.954C10.5225 50.9516 9.9264 50.7321 9.46217 50.3362C8.99794 49.9403 8.69698 49.3946 8.6149 48.8C8.54405 48.292 8.63709 47.7752 8.88122 47.3206C9.12534 46.8661 9.50855 46.4961 9.97812 46.2617C10.4477 46.0273 10.9805 45.9399 11.5034 46.0116C12.0262 46.0833 12.5133 46.3105 12.8976 46.662L16.379 44.742C16.4457 44.7053 16.5204 44.6847 16.597 44.6819C16.6735 44.6792 16.7496 44.6943 16.8189 44.7261C16.8882 44.7578 16.9485 44.8053 16.995 44.8644C17.0414 44.9236 17.0725 44.9927 17.0856 45.066L17.9096 49.644C17.9232 49.7168 17.9185 49.7918 17.896 49.8625C17.8735 49.9332 17.8338 49.9977 17.7803 50.0504C17.7268 50.1031 17.6611 50.1426 17.5886 50.1655C17.516 50.1884 17.4389 50.1941 17.3637 50.182L13.4332 49.582C13.2204 49.9955 12.8932 50.3433 12.4882 50.5863C12.0833 50.8293 11.6166 50.9581 11.1405 50.958V50.954ZM11.1405 46.392C11.037 46.3914 10.9337 46.3987 10.8315 46.414C10.2773 46.5014 9.77923 46.7932 9.44112 47.2284C9.10302 47.6635 8.95095 48.2086 9.0166 48.75C9.079 49.2027 9.29316 49.6229 9.62602 49.9457C9.95888 50.2685 10.3919 50.476 10.8583 50.536C11.3247 50.5961 11.7985 50.5055 12.2065 50.2781C12.6146 50.0507 12.9342 49.6993 13.116 49.278L13.1778 49.134L17.4296 49.8C17.4397 49.8021 17.4502 49.8015 17.46 49.7984C17.4698 49.7952 17.4785 49.7895 17.4853 49.782C17.4926 49.7751 17.4981 49.7666 17.5013 49.7572C17.5045 49.7478 17.5054 49.7378 17.5038 49.728L16.6798 45.148C16.6778 45.138 16.6734 45.1286 16.667 45.1206C16.6605 45.1126 16.6522 45.1062 16.6427 45.102C16.6335 45.0974 16.6232 45.095 16.6128 45.095C16.6025 45.095 16.5922 45.0974 16.583 45.102L12.8235 47.166L12.7122 47.052C12.5108 46.8454 12.2681 46.681 11.9988 46.5689C11.7296 46.4568 11.4396 46.3993 11.1466 46.4L11.1405 46.392Z" fill="#455A64"/>
<path d="M19.5039 53.55C19.4903 53.5083 19.4806 53.4654 19.4751 53.422C19.4566 53.326 19.4339 53.204 19.403 53.054C19.3412 52.72 19.2547 52.254 19.1476 51.694C18.9416 50.536 18.6449 48.956 18.3236 47.21C18.0022 45.464 17.7282 43.88 17.5222 42.718C17.4254 42.154 17.3471 41.692 17.2915 41.356C17.2668 41.204 17.2482 41.08 17.2338 40.984C17.2242 40.9413 17.22 40.8977 17.2215 40.854C17.2355 40.8952 17.2465 40.9373 17.2544 40.98C17.275 41.076 17.3018 41.198 17.3327 41.348C17.3986 41.682 17.4893 42.148 17.5984 42.706C17.8189 43.852 18.1134 45.438 18.4224 47.19C18.7314 48.942 19.0198 50.532 19.2135 51.682C19.3124 52.258 19.3865 52.724 19.436 53.046C19.4586 53.208 19.4792 53.332 19.4875 53.42C19.4985 53.4625 19.504 53.5062 19.5039 53.55Z" fill="#455A64"/>
<path d="M14.3067 54.556C14.2945 54.5133 14.2848 54.4698 14.2778 54.426C14.2593 54.332 14.2367 54.21 14.2078 54.058C14.144 53.724 14.0574 53.258 13.9503 52.7C13.7443 51.54 13.4477 49.96 13.1263 48.214C12.805 46.468 12.533 44.884 12.325 43.724C12.2282 43.158 12.1499 42.696 12.0943 42.362C12.0695 42.208 12.051 42.086 12.0366 41.99C12.0269 41.9467 12.0228 41.9023 12.0242 41.858C12.0398 41.8996 12.0515 41.9424 12.0592 41.986C12.0778 42.082 12.1046 42.204 12.1355 42.354C12.2014 42.688 12.292 43.154 12.4012 43.71C12.6216 44.858 12.9162 46.442 13.2252 48.196C13.5342 49.95 13.8226 51.536 14.0183 52.686C14.1151 53.262 14.1913 53.728 14.2387 54.052C14.2614 54.214 14.282 54.338 14.2902 54.424C14.3012 54.4672 14.3067 54.5115 14.3067 54.556Z" fill="#455A64"/>
<path d="M37.9041 41.84C37.8144 41.9066 37.7193 41.9661 37.6198 42.018L36.8246 42.472C36.149 42.852 35.2117 43.37 34.1734 43.938L34.1549 43.948H34.1363H34.0931C32.9086 43.748 31.8271 43.548 31.0649 43.41L30.1482 43.236C30.0347 43.2191 29.923 43.1923 29.8145 43.156C29.9292 43.161 30.0435 43.1737 30.1564 43.194L31.0772 43.336C31.8559 43.46 32.9312 43.64 34.1137 43.844H34.1549H34.1178C35.1581 43.278 36.1016 42.77 36.7958 42.406L37.6095 41.982C37.703 41.9259 37.8016 41.8784 37.9041 41.84Z" fill="#263238"/>
<path d="M25.859 29.2646L25.5525 27.423L34.242 26.0595L34.5486 27.9011L31.3094 28.4094L32.7614 37.1322L30.5503 37.4792L29.0982 28.7563L25.859 29.2646ZM30.6697 55.6799L28.9111 45.1154L31.1481 44.7644L31.8737 49.1233L36.4148 48.4108L35.6892 44.0519L37.921 43.7017L39.6796 54.2662L37.4478 54.6163L36.7213 50.2523L32.1803 50.9649L32.9067 55.3289L30.6697 55.6799ZM33.6254 73.4356L31.8668 62.8711L38.9962 61.7525L39.3027 63.594L34.4103 64.3617L34.8294 66.879L39.355 66.1689L39.6615 68.0104L35.1359 68.7205L35.5558 71.243L40.4689 70.4721L40.7754 72.3137L33.6254 73.4356ZM41.0679 82.7645C40.9573 82.3549 40.7262 82.0594 40.3744 81.8782C40.0226 81.697 39.5781 81.6485 39.0408 81.7328C38.6757 81.7901 38.3761 81.8901 38.1418 82.0327C37.907 82.1719 37.7373 82.3414 37.6328 82.5413C37.5316 82.7407 37.5 82.9538 37.5378 83.1808C37.5624 83.371 37.6294 83.5299 37.739 83.6574C37.852 83.7843 37.9946 83.8872 38.1668 83.966C38.3384 84.0415 38.5321 84.101 38.7479 84.1448C38.9631 84.1852 39.1904 84.213 39.4297 84.2284L40.4181 84.3062C40.8968 84.337 41.3433 84.408 41.7577 84.5195C42.172 84.6309 42.5413 84.79 42.8655 84.9967C43.1897 85.2034 43.4577 85.4648 43.6693 85.781C43.8844 86.0966 44.0303 86.4742 44.1071 86.9138C44.2112 87.5609 44.1392 88.1474 43.891 88.6733C43.6457 89.1952 43.2383 89.635 42.6687 89.9925C42.1021 90.3461 41.3882 90.5905 40.5272 90.7256C39.673 90.8596 38.9073 90.8456 38.2301 90.6837C37.5563 90.5212 36.9994 90.2116 36.5594 89.7549C36.1222 89.2942 35.8318 88.6852 35.688 87.9279L37.8527 87.5882C37.9357 87.9386 38.0866 88.2184 38.3052 88.4276C38.5266 88.6328 38.7989 88.7718 39.122 88.8447C39.448 88.9135 39.8039 88.9176 40.1896 88.8571C40.5685 88.7977 40.8882 88.691 41.1489 88.5372C41.413 88.3828 41.6062 88.1955 41.7286 87.9752C41.8509 87.7548 41.8909 87.5174 41.8486 87.2629C41.8091 87.0256 41.7053 86.8373 41.5371 86.6978C41.3725 86.5578 41.1464 86.4521 40.8588 86.3808C40.5748 86.3089 40.2321 86.2568 39.8309 86.2245L38.6308 86.1164C37.7027 86.0397 36.942 85.8115 36.3486 85.4317C35.7553 85.0519 35.3954 84.4715 35.2689 83.6903C35.159 83.0512 35.2364 82.4656 35.5013 81.9336C35.7695 81.401 36.1844 80.953 36.746 80.5896C37.3075 80.2263 37.974 79.9841 38.7455 79.863C39.5307 79.7398 40.2384 79.7664 40.8686 79.9428C41.5022 80.1186 42.0223 80.4198 42.4291 80.8465C42.8359 81.2732 43.0968 81.8004 43.2119 82.4281L41.0679 82.7645ZM40.0152 98.0315L41.7738 108.596L39.5368 108.947L37.7782 98.3825L40.0152 98.0315ZM46.9793 118.276C46.8687 117.866 46.6375 117.571 46.2858 117.39C45.934 117.208 45.4895 117.16 44.9522 117.244C44.5871 117.301 44.2874 117.401 44.0532 117.544C43.8184 117.683 43.6487 117.853 43.5441 118.053C43.443 118.252 43.4114 118.465 43.4491 118.692C43.4737 118.882 43.5408 119.041 43.6504 119.169C43.7634 119.296 43.906 119.399 44.0782 119.477C44.2498 119.553 44.4435 119.612 44.6592 119.656C44.8745 119.696 45.1018 119.724 45.3411 119.74L46.3295 119.818C46.8081 119.848 47.2547 119.919 47.669 120.031C48.0834 120.142 48.4527 120.301 48.7769 120.508C49.1011 120.715 49.369 120.976 49.5807 121.292C49.7958 121.608 49.9417 121.986 50.0184 122.425C50.1226 123.072 50.0506 123.659 49.8024 124.185C49.5571 124.707 49.1497 125.146 48.5801 125.504C48.0134 125.857 47.2996 126.102 46.4386 126.237C45.5844 126.371 44.8187 126.357 44.1415 126.195C43.4677 126.033 42.9108 125.723 42.4708 125.266C42.0336 124.806 41.7431 124.197 41.5994 123.439L43.764 123.1C43.8471 123.45 43.9979 123.73 44.2165 123.939C44.438 124.144 44.7103 124.283 45.0334 124.356C45.3594 124.425 45.7153 124.429 46.101 124.368C46.4799 124.309 46.7996 124.202 47.0603 124.049C47.3244 123.894 47.5176 123.707 47.64 123.487C47.7623 123.266 47.8023 123.029 47.76 122.774C47.7205 122.537 47.6166 122.349 47.4485 122.209C47.2839 122.069 47.0578 121.963 46.7702 121.892C46.4861 121.82 46.1435 121.768 45.7423 121.736L44.5421 121.628C43.6141 121.551 42.8533 121.323 42.26 120.943C41.6667 120.563 41.3068 119.983 41.1803 119.202C41.0703 118.563 41.1478 117.977 41.4126 117.445C41.6809 116.912 42.0958 116.464 42.6573 116.101C43.2189 115.738 43.8854 115.495 44.6568 115.374C45.4421 115.251 46.1498 115.278 46.78 115.454C47.4136 115.63 47.9337 115.931 48.3405 116.358C48.7473 116.785 49.0082 117.312 49.1233 117.939L46.9793 118.276Z" fill="#263238"/>
<path d="M41.0309 65.158H58.5945V74.106H41.0309C40.0666 74.106 39.1418 73.7341 38.46 73.0721C37.7781 72.4101 37.395 71.5122 37.395 70.576V68.686C37.395 67.7498 37.7781 66.8519 38.46 66.1899C39.1418 65.5279 40.0666 65.156 41.0309 65.156V65.158Z" fill="#414F55"/>
<path d="M54.0024 65.158H91.0515C91.2116 65.158 91.3651 65.2197 91.4783 65.3296C91.5915 65.4395 91.6551 65.5886 91.6551 65.744V66.058C91.6551 66.2134 91.5915 66.3625 91.4783 66.4724C91.3651 66.5823 91.2116 66.644 91.0515 66.644H54.0024V65.158Z" fill="#414F55"/>
<path d="M54.0024 72.622H91.0515C91.1308 72.622 91.2093 72.6372 91.2825 72.6666C91.3558 72.6961 91.4223 72.7392 91.4783 72.7936C91.5344 72.8481 91.5788 72.9127 91.6092 72.9838C91.6395 73.0549 91.6551 73.1311 91.6551 73.208V73.522C91.6551 73.6774 91.5915 73.8265 91.4783 73.9364C91.3651 74.0463 91.2116 74.108 91.0515 74.108H54.0024V72.622Z" fill="#414F55"/>
<path d="M90.5285 72.622H58.2051C57.8007 72.622 57.4004 72.5447 57.0269 72.3944C56.6533 72.2441 56.314 72.0238 56.0281 71.7461C55.7423 71.4685 55.5157 71.1388 55.3611 70.7761C55.2066 70.4133 55.1272 70.0246 55.1274 69.632C55.1274 68.8395 55.4517 68.0795 56.0289 67.5192C56.606 66.9588 57.3888 66.644 58.2051 66.644H90.5285C90.1003 67.5856 89.8791 68.6037 89.8791 69.633C89.8791 70.6624 90.1003 71.6804 90.5285 72.622Z" fill="#F5F5F5"/>
<path opacity="0.3" d="M55.1275 74.108H41.103C40.1196 74.108 39.1765 73.7287 38.4811 73.0536C37.7857 72.3785 37.395 71.4628 37.395 70.508V68.73C37.395 67.7826 37.7826 66.8741 38.4726 66.2042C39.1626 65.5343 40.0984 65.158 41.0742 65.158H55.4756C52.1405 67.122 52.3898 71.822 55.1275 74.108Z" fill="black"/>
<path d="M86.602 69.91C86.602 69.94 79.9667 69.964 71.7844 69.964C63.6021 69.964 56.9668 69.94 56.9668 69.91C56.9668 69.88 63.6 69.856 71.7844 69.856C79.9688 69.856 86.602 69.88 86.602 69.91Z" fill="#263238"/>
<path d="M89.6508 71.238C89.6508 71.268 83.0155 71.292 74.8332 71.292C66.6509 71.292 60.0156 71.268 60.0156 71.238C60.0156 71.208 66.6488 71.186 74.8332 71.186C83.0176 71.186 89.6508 71.21 89.6508 71.238Z" fill="#263238"/>
<path d="M88.7529 68.026C88.7529 68.056 82.1177 68.08 73.9354 68.08C65.753 68.08 59.1157 68.056 59.1157 68.026C59.1157 67.996 65.7489 67.972 73.9354 67.972C82.1218 67.972 88.7529 68 88.7529 68.026Z" fill="#263238"/>
<path d="M53.5044 73.48C53.5044 73.51 50.3979 73.534 46.5683 73.534C42.7388 73.534 39.6323 73.51 39.6323 73.48C39.6323 73.45 42.7367 73.426 46.5683 73.426C50.3999 73.426 53.5044 73.45 53.5044 73.48Z" fill="#263238"/>
<path d="M53.5044 65.902C53.5044 65.932 50.3979 65.956 46.5683 65.956C42.7388 65.956 39.6323 65.932 39.6323 65.902C39.6323 65.872 42.7367 65.848 46.5683 65.848C50.3999 65.848 53.5044 65.872 53.5044 65.902Z" fill="#263238"/>
<path d="M33.277 80.388H56.9444V91.912H33.277C32.3127 91.912 31.3879 91.5401 30.706 90.8781C30.0242 90.2161 29.6411 89.3182 29.6411 88.382V83.918C29.6411 82.9818 30.0242 82.0839 30.706 81.4219C31.3879 80.7599 32.3127 80.388 33.277 80.388Z" fill="#414F55"/>
<path d="M51.0303 80.388H98.9109C99.0709 80.388 99.2245 80.4497 99.3377 80.5596C99.4508 80.6695 99.5144 80.8186 99.5144 80.974V81.716C99.5144 81.8714 99.4508 82.0205 99.3377 82.1304C99.2245 82.2403 99.0709 82.302 98.9109 82.302H51.0303V80.388Z" fill="#414F55"/>
<path d="M51.0303 90H98.9109C99.0709 90 99.2245 90.0617 99.3377 90.1716C99.4508 90.2815 99.5144 90.4306 99.5144 90.586V91.328C99.5144 91.4834 99.4508 91.6325 99.3377 91.7424C99.2245 91.8523 99.0709 91.914 98.9109 91.914H51.0303V90Z" fill="#414F55"/>
<path d="M98.0683 90H56.4439C55.3926 89.9995 54.3844 89.5936 53.6412 88.8717C52.898 88.1497 52.4805 87.1707 52.4805 86.15C52.4805 85.6447 52.583 85.1443 52.7822 84.6774C52.9813 84.2106 53.2733 83.7864 53.6413 83.4291C54.0094 83.0717 54.4463 82.7883 54.9272 82.5949C55.408 82.4015 55.9234 82.302 56.4439 82.302H98.0683C97.5161 83.5144 97.2309 84.8254 97.2309 86.151C97.2309 87.4766 97.5161 88.7876 98.0683 90Z" fill="#F5F5F5"/>
<path opacity="0.3" d="M52.4766 91.912H33.23C32.7589 91.912 32.2923 91.8219 31.8571 91.6468C31.4218 91.4717 31.0263 91.215 30.6933 90.8914C30.3602 90.5679 30.0961 90.1838 29.916 89.7611C29.7359 89.3384 29.6433 88.8854 29.6436 88.428V84C29.6436 83.0452 30.0342 82.1296 30.7296 81.4544C31.425 80.7793 32.3681 80.4 33.3516 80.4H52.9216C48.6306 82.916 48.9519 88.97 52.4766 91.912Z" fill="black"/>
<path d="M93.0108 86.508C93.0108 86.538 84.466 86.562 73.9291 86.562C63.3922 86.562 54.8452 86.538 54.8452 86.508C54.8452 86.478 63.388 86.454 73.9291 86.454C84.4701 86.454 93.0108 86.478 93.0108 86.508Z" fill="#263238"/>
<path d="M96.9392 88.218C96.9392 88.248 88.3943 88.272 77.8553 88.272C67.3164 88.272 58.7715 88.248 58.7715 88.218C58.7715 88.188 67.3143 88.166 77.8553 88.166C88.3963 88.166 96.9392 88.2 96.9392 88.218Z" fill="#263238"/>
<path d="M95.7896 84.92C95.7896 84.95 87.2468 84.974 76.7079 84.974C66.1689 84.974 57.624 84.95 57.624 84.92C57.624 84.89 66.1668 84.866 76.7079 84.866C87.2489 84.866 95.7896 84.89 95.7896 84.92Z" fill="#263238"/>
<path d="M50.3853 91.104C50.3853 91.134 46.3869 91.158 41.4532 91.158C36.5195 91.158 32.521 91.134 32.521 91.104C32.521 91.074 36.5195 91.052 41.4532 91.052C46.3869 91.052 50.3853 91.076 50.3853 91.104Z" fill="#263238"/>
<path d="M50.3853 81.346C50.3853 81.374 46.3869 81.398 41.4532 81.398C36.5195 81.398 32.521 81.374 32.521 81.346C32.521 81.318 36.5195 81.292 41.4532 81.292C46.3869 81.292 50.3853 81.316 50.3853 81.346Z" fill="#263238"/>
<path d="M44.533 73.832H64.0329V80.432H44.533C43.8227 80.432 43.1416 80.1581 42.6393 79.6705C42.1371 79.1829 41.855 78.5216 41.855 77.832V76.432C41.855 75.7424 42.1371 75.0811 42.6393 74.5935C43.1416 74.1059 43.8227 73.832 44.533 73.832Z" fill="#455A64"/>
<path d="M59.229 73.832H97.99C98.1577 73.832 98.3186 73.8967 98.4372 74.0118C98.5558 74.127 98.6224 74.2832 98.6224 74.446V74.774C98.6224 74.9368 98.5558 75.093 98.4372 75.2082C98.3186 75.3233 98.1577 75.388 97.99 75.388H59.229V73.834V73.832Z" fill="#455A64"/>
<path d="M59.229 78.876H97.99C98.1577 78.876 98.3186 78.9407 98.4372 79.0558C98.5558 79.171 98.6224 79.3272 98.6224 79.49V79.818C98.6224 79.9808 98.5558 80.137 98.4372 80.2522C98.3186 80.3673 98.1577 80.432 97.99 80.432H59.229V78.878V78.876Z" fill="#455A64"/>
<path d="M97.438 78.876H62.212C61.7354 78.876 61.2782 78.6923 60.941 78.3653C60.6038 78.0383 60.4141 77.5947 60.4136 77.132C60.4136 76.6689 60.603 76.2248 60.9403 75.8974C61.2776 75.57 61.735 75.386 62.212 75.386H97.438C96.537 76.55 96.537 77.7133 97.438 78.876Z" fill="#F5F5F5"/>
<path opacity="0.3" d="M60.4033 80.43H44.5413C44.187 80.43 43.8362 80.3622 43.5089 80.2305C43.1816 80.0988 42.8842 79.9058 42.6338 79.6625C42.3834 79.4192 42.1848 79.1303 42.0494 78.8125C41.914 78.4946 41.8445 78.154 41.8447 77.81V76.506C41.8445 76.1549 41.9154 75.8073 42.0536 75.4829C42.1918 75.1584 42.3945 74.8636 42.6501 74.6153C42.9057 74.367 43.2092 74.17 43.5432 74.0356C43.8772 73.9012 44.2353 73.832 44.5969 73.832H60.7699C57.2782 75.28 57.5399 78.746 60.4033 80.43Z" fill="black"/>
<path d="M93.3362 76.856C93.3362 76.886 86.394 76.91 77.8327 76.91C69.2713 76.91 62.3291 76.886 62.3291 76.856C62.3291 76.826 69.2692 76.804 77.8327 76.804C86.3961 76.804 93.3362 76.828 93.3362 76.856Z" fill="#263238"/>
<path d="M96.5271 77.8C96.5271 77.83 89.5849 77.854 81.0236 77.854C72.4622 77.854 65.52 77.83 65.52 77.8C65.52 77.77 72.4602 77.746 81.0236 77.746C89.587 77.746 96.5271 77.766 96.5271 77.8Z" fill="#263238"/>
<path d="M58.7096 79.774C58.7096 79.804 55.461 79.828 51.4522 79.828C47.4434 79.828 44.1948 79.804 44.1948 79.774C44.1948 79.744 47.4434 79.72 51.4522 79.72C55.461 79.72 58.7096 79.744 58.7096 79.774Z" fill="#263238"/>
<path d="M58.7096 74.61C58.7096 74.64 55.461 74.662 51.4522 74.662C47.4434 74.662 44.1948 74.64 44.1948 74.61C44.1948 74.58 47.4434 74.556 51.4522 74.556C55.461 74.556 58.7096 74.58 58.7096 74.61Z" fill="#263238"/>
<path d="M98.1587 73.832C98.1587 73.862 86.2375 73.886 71.5373 73.886C56.8372 73.886 44.9077 73.862 44.9077 73.832C44.9077 73.802 56.8248 73.778 71.5312 73.778C86.2375 73.778 98.1587 73.8 98.1587 73.832Z" fill="#263238"/>
<path d="M76.7822 67.928V71.512L78.0615 70.716L79.487 71.512V67.928H76.7822Z" fill="#414F55"/>
<path d="M89.7829 32.3543L83.3413 37.5643L73.5439 56.3563L79.6518 59.0363L89.1814 40.6063L89.7829 32.3543Z" fill="#414F55"/>
<g opacity="0.7">
<path d="M89.1815 40.6C89.1069 40.6179 89.029 40.6188 88.9539 40.6027C88.8789 40.5865 88.8087 40.5537 88.7488 40.5069C88.689 40.46 88.6411 40.4003 88.609 40.3325C88.5768 40.2647 88.5613 40.1906 88.5635 40.116C88.3603 40.3456 88.0881 40.5077 87.7851 40.5793C87.4821 40.6509 87.1636 40.6286 86.8744 40.5153C86.5852 40.4021 86.3398 40.2037 86.1728 39.948C86.0057 39.6923 85.9254 39.3923 85.9432 39.09C85.6717 39.2319 85.3663 39.3011 85.0582 39.2907C84.7501 39.2802 84.4504 39.1904 84.1898 39.0304C83.9292 38.8704 83.7171 38.6461 83.5753 38.3803C83.4335 38.1145 83.367 37.8169 83.3826 37.518L89.7686 32.348L89.1815 40.6Z" fill="white"/>
</g>
<path d="M87.1914 34.45C87.1914 34.45 87.2903 36.006 89.5357 35.734L89.7829 32.354L87.1914 34.45Z" fill="#414F55"/>
<path opacity="0.3" d="M85.9513 39.096L76.5062 57.554L73.5439 56.354L83.3413 37.554L83.3907 37.514C83.3761 37.7646 83.4212 38.0151 83.5226 38.246C83.6578 38.5491 83.8776 38.8096 84.1571 38.998C84.5002 39.2255 84.9167 39.3243 85.3292 39.276C85.5461 39.2533 85.757 39.1923 85.9513 39.096Z" fill="black"/>
<path opacity="0.3" d="M88.58 40.122L78.8774 58.692L79.6602 59.036L89.1816 40.6C89.0524 40.6228 88.9191 40.5982 88.8075 40.5309C88.696 40.4636 88.6142 40.3585 88.578 40.236C88.5748 40.198 88.5755 40.1598 88.58 40.122Z" fill="black"/>
<path d="M85.9019 37.304C85.8818 37.3269 85.8702 37.3558 85.869 37.386C85.8693 37.4297 85.8864 37.4717 85.9168 37.5039C85.9473 37.536 85.989 37.556 86.0338 37.56C86.1799 37.5663 86.3243 37.527 86.4458 37.448C86.5226 37.4042 86.5837 37.3386 86.6209 37.26C86.6414 37.2174 86.6504 37.1705 86.6472 37.1237C86.6439 37.0768 86.6285 37.0315 86.6023 36.992C86.5683 36.9511 86.5258 36.9176 86.4775 36.8938C86.4292 36.8701 86.3763 36.8565 86.3222 36.854C86.203 36.8439 86.083 36.8506 85.9658 36.874C85.7035 36.9164 85.4531 37.011 85.2304 37.152C85.1709 37.1875 85.1199 37.235 85.0808 37.2912C85.0417 37.3474 85.0155 37.4111 85.0038 37.478C85.0007 37.548 85.0154 37.6176 85.0467 37.6808C85.078 37.7439 85.1248 37.7986 85.183 37.84C85.3184 37.9155 85.4679 37.964 85.6229 37.9826C85.7779 38.0011 85.9351 37.9894 86.0853 37.948C86.3834 37.8871 86.6585 37.7479 86.8804 37.5454C87.1024 37.3429 87.2628 37.085 87.3439 36.8C87.3578 36.737 87.3565 36.6717 87.34 36.6092C87.3236 36.5468 87.2925 36.4888 87.2492 36.44C87.1618 36.3492 87.0529 36.2806 86.9319 36.24C86.7143 36.1626 86.4857 36.1181 86.2542 36.108C85.9166 36.0907 85.5789 36.1397 85.2613 36.252C85.1501 36.292 85.0553 36.33 85.0079 36.356C84.9605 36.382 84.9214 36.396 84.9214 36.396C85.0267 36.3312 85.1385 36.2769 85.2551 36.234C85.5735 36.1157 85.9136 36.0619 86.2542 36.076C86.4903 36.0837 86.7238 36.1269 86.9464 36.204C87.0736 36.2465 87.1882 36.3186 87.2801 36.414C87.3286 36.4681 87.3635 36.5324 87.3821 36.6018C87.4006 36.6712 87.4024 36.7438 87.3872 36.814C87.2808 37.1852 87.0455 37.5093 86.7211 37.7312C86.3967 37.9532 86.0032 38.0595 85.6074 38.032C85.4452 38.0239 85.2887 37.9711 85.1562 37.88C85.09 37.8356 85.0363 37.7756 85.0003 37.7057C84.9643 37.6358 84.9471 37.5581 84.9502 37.48C84.963 37.407 84.9916 37.3375 85.0342 37.2761C85.0769 37.2147 85.1325 37.1628 85.1974 37.124C85.4259 36.9802 85.6826 36.8842 85.9514 36.842C86.0729 36.8198 86.1971 36.8144 86.3201 36.826C86.3787 36.8294 86.4358 36.8449 86.4876 36.8715C86.5395 36.898 86.5849 36.935 86.6209 36.98C86.6494 37.0242 86.666 37.0746 86.6693 37.1267C86.6725 37.1788 86.6622 37.2308 86.6394 37.278C86.5995 37.3617 86.5341 37.4316 86.452 37.478C86.3266 37.5565 86.1785 37.5936 86.0297 37.584C85.9814 37.5795 85.9367 37.5573 85.9046 37.5221C85.8725 37.4868 85.8554 37.441 85.8566 37.394C85.8669 37.32 85.9019 37.302 85.9019 37.304Z" fill="white"/>
<path d="M89.3583 37.2C89.3583 37.2 89.2636 37.186 89.0947 37.2C88.854 37.2153 88.6188 37.2765 88.4025 37.38C88.0842 37.5384 87.7856 37.7317 87.5126 37.956C87.1802 38.24 86.8015 38.4685 86.3919 38.632C85.9696 38.773 85.5138 38.7897 85.0818 38.68C84.73 38.5899 84.4066 38.4167 84.1404 38.176C83.96 38.0099 83.8102 37.8151 83.6974 37.6C83.6546 37.5246 83.6188 37.4456 83.5903 37.364C83.6021 37.3826 83.6124 37.402 83.6212 37.422C83.6398 37.462 83.6707 37.52 83.7119 37.592C83.8325 37.7942 83.9847 37.977 84.163 38.134C84.4273 38.3675 84.7462 38.535 85.0921 38.622C85.5167 38.7256 85.9632 38.7075 86.3775 38.57C86.7817 38.4087 87.156 38.1844 87.4858 37.906C87.7616 37.6806 88.0646 37.4886 88.3881 37.334C88.6081 37.2303 88.8481 37.1724 89.0926 37.164C89.1824 37.165 89.2717 37.1771 89.3583 37.2Z" fill="white"/>
<path d="M89.3215 39.074C89.2035 38.9577 89.0463 38.8867 88.8786 38.874C88.4716 38.8705 88.0664 38.9285 87.6777 39.046C87.2837 39.1491 86.9003 39.287 86.5323 39.458C86.3902 39.524 86.2789 39.582 86.2006 39.62C86.1622 39.6437 86.1215 39.6638 86.0791 39.68C86.115 39.6528 86.1529 39.628 86.1924 39.606C86.2666 39.562 86.3778 39.498 86.5179 39.43C86.8838 39.2485 87.2684 39.105 87.6653 39.002C87.8835 38.944 88.1049 38.8986 88.3286 38.866C88.5114 38.8336 88.6979 38.8262 88.8828 38.844C89.0089 38.8571 89.1288 38.9042 89.2288 38.98C89.2643 39.0068 89.2955 39.0385 89.3215 39.074Z" fill="white"/>
<path d="M86.6475 40.4C86.7101 40.3367 86.7791 40.2798 86.8535 40.23C87.037 40.0991 87.248 40.0089 87.4715 39.966C87.5833 39.9438 87.6989 39.9462 87.8097 39.9728C87.9205 39.9994 88.0238 40.0497 88.1121 40.12C88.1646 40.1633 88.2086 40.2154 88.2419 40.274C88.2543 40.295 88.2627 40.3181 88.2666 40.342C88.219 40.2671 88.16 40.1997 88.0915 40.142C88.0043 40.0782 87.904 40.0332 87.7974 40.0101C87.6909 39.987 87.5804 39.9863 87.4735 40.008C87.2589 40.0518 87.0553 40.1361 86.8741 40.256C86.8015 40.3082 86.7258 40.3563 86.6475 40.4Z" fill="white"/>
<path d="M89.5275 36.07C89.5183 36.0798 89.5079 36.0886 89.4966 36.096C89.476 36.11 89.4451 36.132 89.4018 36.158C89.3516 36.1924 89.2949 36.2169 89.235 36.23C89.1539 36.2439 89.0706 36.2391 88.9919 36.216C88.8168 36.178 88.6211 36.092 88.4007 36.016C88.1617 35.9372 87.9164 35.8777 87.6673 35.838C87.211 35.7737 86.7502 35.7436 86.2892 35.748H85.8772C85.8258 35.7531 85.774 35.7531 85.7227 35.748L85.8772 35.736L86.2892 35.722C86.7521 35.7078 87.2154 35.7339 87.6735 35.8C87.926 35.8387 88.1743 35.9003 88.4151 35.984C88.6376 36.06 88.8271 36.148 89.0001 36.184C89.0646 36.2066 89.1337 36.2146 89.2019 36.2073C89.2701 36.2001 89.3357 36.1777 89.3936 36.142C89.437 36.1158 89.4816 36.0918 89.5275 36.07Z" fill="white"/>
<path d="M96.3545 53.054V69.436C96.3585 69.4674 96.3743 69.4964 96.3987 69.5174C96.4232 69.5383 96.4547 69.5499 96.4874 69.5499C96.52 69.5499 96.5515 69.5383 96.576 69.5174C96.6005 69.4964 96.6162 69.4674 96.6202 69.436V53.054C96.6162 53.0226 96.6005 52.9936 96.576 52.9726C96.5515 52.9517 96.52 52.9401 96.4874 52.9401C96.4547 52.9401 96.4232 52.9517 96.3987 52.9726C96.3743 52.9936 96.3585 53.0226 96.3545 53.054Z" fill="#414F55"/>
<path d="M97.4381 65.826C97.4381 66.0088 97.3823 66.1874 97.2777 66.3394C97.1731 66.4913 97.0245 66.6097 96.8506 66.6797C96.6767 66.7496 96.4853 66.7679 96.3007 66.7323C96.1161 66.6966 95.9465 66.6086 95.8134 66.4794C95.6803 66.3501 95.5897 66.1855 95.553 66.0063C95.5162 65.827 95.5351 65.6412 95.6071 65.4724C95.6791 65.3036 95.8011 65.1593 95.9576 65.0577C96.1141 64.9562 96.2982 64.902 96.4864 64.902C96.7388 64.902 96.9809 64.9994 97.1594 65.1726C97.3378 65.3459 97.4381 65.5809 97.4381 65.826Z" fill="#414F55"/>
<path d="M96.2226 66.304C96.2226 66.304 95.5283 66.978 95.3203 68.952C95.1122 70.926 95.0669 71.912 95.0669 71.912L96.9374 72.024V70.612C96.9374 70.678 97.3082 71.666 97.3082 71.666L98.7873 71.194C98.7873 71.194 98.262 65.946 96.2226 66.304Z" fill="#414F55"/>
<path d="M86.4932 54.394H54.728V65.512H86.4932V54.394Z" fill="#263238"/>
<path d="M97.6499 52.482H43.3174V54.396H97.6499V52.482Z" fill="#263238"/>
<path opacity="0.3" d="M54.728 62.358C54.728 62.358 64.3771 58.998 70.6106 57.758C76.8442 56.518 86.4932 56.93 86.4932 56.93V54.4H54.728V62.358Z" fill="black"/>
<path opacity="0.3" d="M62.9698 52.482H43.3174V54.396H62.9698V52.482Z" fill="black"/>
<path d="M97.2567 54.4C97.2567 54.43 85.1748 54.454 70.2707 54.454C55.3666 54.454 43.2847 54.43 43.2847 54.4C43.2847 54.37 55.3624 54.348 70.2707 54.348C85.1789 54.348 97.2567 54.366 97.2567 54.4Z" fill="#455A64"/>
<path d="M62.9389 54.41C62.8648 53.764 62.8648 53.112 62.9389 52.466C63.0103 53.1121 63.0103 53.7639 62.9389 54.41Z" fill="#455A64"/>
<path d="M67.4691 65.514C67.4402 65.514 67.4155 63.344 67.4155 60.668C67.4155 57.992 67.4402 55.824 67.4691 55.824C67.4979 55.824 67.5247 57.992 67.5247 60.668C67.5247 63.344 67.5 65.514 67.4691 65.514Z" fill="#455A64"/>
<path d="M21.5164 79.168L25.1688 77.736L27.958 70.662L31.6763 72.522C31.6763 72.522 31.3179 73.22 30.5495 74.95C30.2508 75.616 29.2682 77.478 28.8685 78.384C28.4987 79.2217 27.8895 79.939 27.113 80.4511C26.3366 80.9632 25.4253 81.2488 24.4869 81.274L21.0591 81.36L21.5164 79.168Z" fill="#694B47"/>
<path d="M19.7017 77.8L19.1579 77.236C19.0522 77.1687 18.9278 77.1345 18.8015 77.138L17.0546 77.19C16.8915 77.2053 16.7341 77.256 16.5939 77.3384C16.4538 77.4208 16.3345 77.5328 16.245 77.666L15.6085 78.716C15.6085 78.716 15.1821 79.434 15.2356 79.61C15.2595 79.6831 15.3103 79.745 15.3784 79.7837C15.4465 79.8225 15.527 79.8354 15.6044 79.82C15.6044 79.82 15.6662 80.152 15.7795 80.22C15.845 80.2521 15.9166 80.2709 15.9899 80.2754C16.0632 80.2798 16.1367 80.2698 16.2059 80.246C16.2359 80.309 16.2848 80.3618 16.3462 80.3974C16.4075 80.4331 16.4785 80.45 16.5499 80.446C16.5805 80.4432 16.6109 80.4379 16.6405 80.43C16.8465 80.368 16.9413 79.978 16.9413 79.978L17.8271 79.82C17.8271 79.82 19.1002 80.646 19.5493 81.186C19.9983 81.726 21.1725 81.314 21.1725 81.314L21.6113 79.274L19.7017 77.8Z" fill="#694B47"/>
<path d="M18.4141 78.042C18.2898 78.0793 18.1609 78.1002 18.0309 78.104C17.7899 78.13 17.45 78.14 17.0648 78.188L17.106 78.158C17.0397 78.2961 16.964 78.4297 16.8794 78.558C16.6467 78.9163 16.3638 79.2414 16.0389 79.524C15.9112 79.6485 15.7629 79.7513 15.6001 79.828C15.6001 79.814 15.7546 79.694 15.9853 79.468C16.2883 79.1756 16.557 78.8517 16.7867 78.502C16.8711 78.368 16.9473 78.236 17.0112 78.102L17.0236 78.076H17.0524C17.4459 78.034 17.7858 78.038 18.0268 78.03C18.156 78.021 18.2857 78.025 18.4141 78.042Z" fill="#2F211B"/>
<path d="M18.4533 78.852C18.3502 78.9008 18.2382 78.9294 18.1237 78.936C17.8392 78.9742 17.55 78.9647 17.2688 78.908L17.3326 78.874C17.2956 78.9787 17.2529 79.0815 17.2049 79.182C17.0456 79.5011 16.8222 79.786 16.5478 80.02C16.4406 80.1231 16.3131 80.2041 16.1729 80.258C16.2745 80.1545 16.3818 80.0564 16.4942 79.964C16.7482 79.7242 16.9573 79.4433 17.1122 79.134C17.1599 79.0384 17.2018 78.9402 17.2379 78.84L17.2544 78.796H17.2997C17.6799 78.865 18.0679 78.8839 18.4533 78.852Z" fill="#2F211B"/>
<path d="M20.674 79.27L19.1146 78.566C18.9054 78.4529 18.6735 78.3847 18.4348 78.366C18.1795 78.3877 17.9331 78.4679 17.7159 78.6L16.8754 79.02C16.8301 79.044 16.7806 79.072 16.7662 79.118C16.7518 79.164 16.7909 79.244 16.8383 79.29C17.0553 79.4893 17.3392 79.6055 17.6376 79.6173C17.936 79.6291 18.2287 79.5355 18.4616 79.354C18.5754 79.7145 18.7532 80.0529 18.9869 80.354C19.1064 80.5049 19.264 80.6234 19.4444 80.6981C19.6248 80.7727 19.822 80.8009 20.0169 80.78" fill="#694B47"/>
<path d="M20.0129 80.8C20 80.8062 19.9861 80.8103 19.9717 80.812C19.9299 80.822 19.8871 80.8274 19.844 80.828C19.6804 80.8286 19.5191 80.7901 19.3743 80.716C19.1501 80.6021 18.96 80.4341 18.8223 80.228C18.6513 79.9633 18.513 79.6801 18.4103 79.384L18.4885 79.402C18.3634 79.504 18.2187 79.5809 18.0628 79.6283C17.9068 79.6757 17.7428 79.6926 17.5801 79.678C17.4032 79.6663 17.2307 79.6193 17.0733 79.54C16.9927 79.4986 16.9174 79.4483 16.8488 79.39C16.8116 79.3602 16.7778 79.3267 16.7478 79.29C16.7284 79.2672 16.7145 79.2404 16.707 79.2117C16.6995 79.183 16.6987 79.1531 16.7046 79.124C16.7113 79.1002 16.723 79.0779 16.7389 79.0586C16.7549 79.0394 16.7747 79.0235 16.7973 79.012C16.8344 78.99 16.8652 78.976 16.8982 78.958L17.0919 78.862L17.473 78.662C17.7097 78.5274 17.9621 78.4206 18.2249 78.344C18.4771 78.2999 18.7373 78.3386 18.9644 78.454C19.1704 78.546 19.3764 78.638 19.5412 78.72L20.3652 79.12C20.4687 79.1653 20.5686 79.2181 20.6639 79.278C20.5549 79.2466 20.4488 79.2065 20.3466 79.158L19.502 78.796L18.9211 78.544C18.7117 78.4398 18.4724 78.4067 18.2413 78.45C17.9879 78.5269 17.7445 78.6323 17.5162 78.764L17.1372 78.964L16.9435 79.062C16.8776 79.094 16.8076 79.126 16.8035 79.158C16.7993 79.19 16.8508 79.268 16.9147 79.318C16.9776 79.3711 17.0467 79.4167 17.1207 79.454C17.2648 79.5265 17.4224 79.57 17.5842 79.582C17.8852 79.6104 18.1856 79.5228 18.4205 79.338L18.4741 79.294L18.4968 79.358C18.5928 79.6491 18.722 79.9288 18.882 80.192C19.0081 80.3916 19.1837 80.5573 19.3929 80.674C19.5829 80.7726 19.7981 80.8163 20.0129 80.8Z" fill="#2F211B"/>
<path d="M40.9528 59.454C40.9673 58.318 41.1588 57.186 41.1053 56.054C41.0517 54.922 40.753 53.736 39.9373 52.922C39.1215 52.108 37.698 51.8 36.7504 52.45L36.5444 53.418C36.9194 57.798 36.8699 62.248 37.2448 66.628C37.2943 67.204 37.7743 67.726 38.0441 68.24C38.314 68.754 38.8558 69.18 39.449 69.144C40.2257 69.098 40.7345 68.334 40.9755 67.614C41.8613 65.012 40.9178 62.2 40.9528 59.454Z" fill="#263238"/>
<path d="M38.1386 53.564C37.9824 53.2754 37.7816 53.0117 37.5433 52.782C37.4231 52.6678 37.2778 52.5814 37.1183 52.5295C36.9588 52.4775 36.7893 52.4613 36.6225 52.482C36.5439 52.4915 36.4691 52.5204 36.4053 52.5659C36.3414 52.6114 36.2907 52.672 36.2579 52.742C36.2064 52.886 36.3176 53.08 36.4742 53.066L36.5071 53.094C36.8573 53.3953 37.2137 53.6893 37.5763 53.976C37.6628 54.0543 37.7642 54.1155 37.875 54.156C37.9306 54.1757 37.9909 54.1798 38.0488 54.1677C38.1067 54.1557 38.16 54.1281 38.2025 54.088C38.3323 53.948 38.2375 53.726 38.1386 53.564Z" fill="#414F55"/>
<path d="M38.7998 54.68C37.6338 53.296 36.0682 52.498 34.2266 52.48C33.1966 52.462 32.7578 52.68 32.01 52.868C31.2612 53.0435 30.5994 53.4681 30.1395 54.068C29.6101 54.798 29.1651 55.616 29.0642 56.506C28.9322 57.4153 28.8874 58.3346 28.9303 59.252C28.9735 60.1739 29.2787 61.0661 29.812 61.83L32.2098 62.23C33.5344 62.274 34.8775 62.316 36.1691 62.03C37.4608 61.744 38.7132 61.062 39.4033 59.964C40.3633 58.428 39.9637 56.062 38.7998 54.68Z" fill="#263238"/>
<path d="M36.6679 54.664L33.4708 53.43L32.6344 53.524C30.7557 53.524 29.4579 55.544 29.4456 57.02C29.4332 58.664 29.4826 60.668 29.7504 61.878C30.2922 64.312 32.4284 64.514 32.4284 64.514C32.4284 64.514 32.3852 65.812 32.3687 66.628L37.2653 66.286L37.5105 55.498C37.503 55.2818 37.4124 55.0762 37.2564 54.9218C37.1004 54.7674 36.8904 54.6754 36.6679 54.664Z" fill="#694B47"/>
<path d="M33.5098 61.308C33.49 61.1836 33.4241 61.0705 33.3244 60.99C33.2337 60.9142 33.1198 60.8693 33.0004 60.8625C32.8809 60.8556 32.7624 60.8871 32.6631 60.952C32.5601 61.0291 32.48 61.1314 32.4312 61.2484C32.3823 61.3655 32.3664 61.493 32.385 61.618C32.4401 61.693 32.511 61.7558 32.5931 61.802C32.6752 61.8482 32.7665 61.8768 32.8609 61.886C32.8904 61.888 32.92 61.888 32.9495 61.886C33.1023 61.8891 33.2502 61.8338 33.3615 61.732C33.4174 61.6767 33.4598 61.6098 33.4855 61.5364C33.5111 61.463 33.5194 61.3849 33.5098 61.308Z" fill="#2F211B"/>
<path d="M30.292 59.098C30.2952 59.1802 30.3316 59.2579 30.3932 59.3144C30.4548 59.3709 30.5368 59.4016 30.6216 59.4C30.6631 59.4008 30.7043 59.3936 30.7428 59.3788C30.7814 59.364 30.8166 59.3419 30.8463 59.3138C30.876 59.2857 30.8996 59.2522 30.9159 59.2151C30.9321 59.1781 30.9406 59.1383 30.9409 59.098C30.9366 59.0158 30.8997 58.9383 30.8378 58.882C30.776 58.8257 30.694 58.7949 30.6092 58.796C30.5679 58.7952 30.5268 58.8024 30.4883 58.8172C30.4498 58.8321 30.4148 58.8542 30.3853 58.8823C30.3557 58.9104 30.3323 58.944 30.3162 58.981C30.3002 59.0181 30.292 59.0578 30.292 59.098Z" fill="#263238"/>
<path d="M30.0181 57.842C30.0593 57.88 30.2962 57.692 30.6361 57.674C30.976 57.656 31.2541 57.812 31.2871 57.768C31.32 57.724 31.2582 57.676 31.1429 57.604C30.9861 57.5105 30.8033 57.4665 30.6196 57.478C30.4382 57.4867 30.2644 57.5511 30.1232 57.662C30.0284 57.748 29.9954 57.824 30.0181 57.842Z" fill="#263238"/>
<path d="M32.2592 60.5C32.0723 60.4523 31.8797 60.4288 31.6865 60.43C31.5979 60.43 31.5114 60.414 31.4929 60.354C31.4817 60.2655 31.4974 60.1759 31.5382 60.096C31.6103 59.882 31.6865 59.658 31.7648 59.422C32.0779 58.466 32.3004 57.68 32.2592 57.668C32.218 57.656 31.9337 58.422 31.6206 59.38L31.4146 60.056C31.3639 60.1632 31.3544 60.2846 31.3878 60.398C31.402 60.4278 31.4232 60.454 31.4497 60.4744C31.4762 60.4949 31.5071 60.5091 31.5402 60.516C31.5903 60.5264 31.6415 60.5305 31.6927 60.528C31.882 60.5404 32.0721 60.531 32.2592 60.5Z" fill="#263238"/>
<path d="M32.424 64.512C33.6158 64.4662 34.7712 64.0999 35.7612 63.454C35.7612 63.454 34.9557 65.204 32.4116 65.11L32.424 64.512Z" fill="#2F211B"/>
<path d="M33.2997 60.678C33.244 60.678 33.2626 61.046 32.9536 61.324C32.6446 61.602 32.2388 61.584 32.2388 61.636C32.2388 61.688 32.3335 61.702 32.5024 61.698C32.7252 61.6894 32.9377 61.6044 33.1019 61.458C33.2591 61.3182 33.3544 61.1246 33.3676 60.918C33.3718 60.764 33.3264 60.676 33.2997 60.678Z" fill="#263238"/>
<path d="M30.1355 56.656C30.1994 56.734 30.4631 56.666 30.7762 56.674C31.0893 56.682 31.353 56.748 31.4189 56.674C31.4478 56.636 31.4086 56.558 31.2953 56.474C31.1421 56.3773 30.963 56.3266 30.7803 56.328C30.5976 56.3232 30.4173 56.3698 30.2612 56.462C30.1479 56.538 30.1088 56.616 30.1355 56.656Z" fill="#263238"/>
<path d="M34.1011 59.014C34.1028 59.0961 34.0715 59.1757 34.0138 59.2358C33.9562 59.2959 33.8766 59.3318 33.7921 59.336C33.7509 59.3398 33.7093 59.3356 33.6698 59.3237C33.6303 59.3117 33.5937 59.2922 33.562 59.2663C33.5303 59.2404 33.5043 59.2087 33.4855 59.1729C33.4666 59.1371 33.4553 59.0981 33.4522 59.058C33.4505 58.976 33.4814 58.8965 33.5386 58.8361C33.5958 58.7757 33.6748 58.7391 33.7592 58.734C33.8006 58.7302 33.8425 58.7344 33.8822 58.7464C33.922 58.7585 33.9589 58.7782 33.9907 58.8042C34.0226 58.8303 34.0488 58.8623 34.0677 58.8983C34.0867 58.9343 34.098 58.9737 34.1011 59.014Z" fill="#263238"/>
<path d="M34.7395 57.71C34.7004 57.752 34.4511 57.58 34.1009 57.586C33.7507 57.592 33.4994 57.768 33.4603 57.726C33.4211 57.684 33.4809 57.634 33.5921 57.552C33.7409 57.4478 33.9195 57.3912 34.103 57.39C34.2847 57.3861 34.463 57.4386 34.6118 57.54C34.721 57.618 34.7601 57.692 34.7395 57.71Z" fill="#263238"/>
<path d="M34.5295 56.626C34.4636 56.704 34.1917 56.626 33.8682 56.626C33.5448 56.626 33.2688 56.688 33.2049 56.608C33.1761 56.57 33.2193 56.492 33.3368 56.408C33.4996 56.3154 33.6858 56.269 33.8744 56.274C34.0617 56.2719 34.2456 56.3226 34.4038 56.42C34.5213 56.508 34.5604 56.588 34.5295 56.626Z" fill="#263238"/>
<path d="M37.0796 59.622C37.0796 59.44 37.2629 58.998 37.4483 58.96C37.9407 58.858 38.8368 58.848 38.9151 60.072C39.0222 61.746 37.2671 61.504 37.2671 61.456C37.2671 61.408 37.1105 60.254 37.0796 59.622Z" fill="#694B47"/>
<path d="M37.6978 60.816C37.6978 60.816 37.7287 60.836 37.7802 60.854C37.8528 60.8827 37.9341 60.8827 38.0068 60.854C38.1839 60.778 38.3199 60.488 38.3096 60.186C38.3045 60.0423 38.2665 59.9016 38.1983 59.774C38.179 59.7225 38.1469 59.6764 38.1049 59.6397C38.0628 59.6031 38.0122 59.5771 37.9573 59.564C37.9225 59.5573 37.8863 59.5626 37.8551 59.5791C37.8239 59.5955 37.7996 59.622 37.7863 59.654C37.7657 59.702 37.7863 59.736 37.7699 59.738C37.7534 59.74 37.7307 59.712 37.741 59.642C37.7478 59.6 37.7697 59.5618 37.8028 59.534C37.8249 59.515 37.8507 59.5006 37.8787 59.4917C37.9066 59.4827 37.9362 59.4794 37.9656 59.482C38.0374 59.4904 38.1056 59.517 38.1635 59.5591C38.2213 59.6013 38.2667 59.6574 38.2952 59.722C38.3774 59.8626 38.4234 60.0204 38.4291 60.182C38.4394 60.52 38.2807 60.846 38.0377 60.93C37.9922 60.946 37.9437 60.9519 37.8956 60.9474C37.8475 60.9429 37.801 60.9281 37.7596 60.904C37.6978 60.858 37.6978 60.82 37.6978 60.816Z" fill="#2F211B"/>
<path d="M37.5146 58.964L37.08 59.4C35.1889 57.642 31.4932 53.242 31.7013 53.504C32.5633 53.193 33.492 53.0974 34.402 53.226C35.8089 53.458 38.4746 54.142 38.4334 55.752C38.3922 57.362 37.5146 58.964 37.5146 58.964Z" fill="#263238"/>
<path d="M40.0195 58.6C40.0139 58.5672 40.005 58.535 39.9928 58.504C39.9614 58.4129 39.9221 58.3246 39.8753 58.24C39.6968 57.9302 39.4507 57.6619 39.1543 57.454C38.7173 57.1493 38.2295 56.9199 37.7123 56.776C37.1355 56.594 36.4866 56.452 35.848 56.176C35.2458 55.9324 34.6748 55.6216 34.1465 55.25C33.7144 54.9462 33.3117 54.6048 32.9434 54.23C32.6964 53.9765 32.4646 53.7094 32.2492 53.43L32.0762 53.198C32.0569 53.17 32.0348 53.1438 32.0103 53.12C32.0247 53.1508 32.0419 53.1802 32.0618 53.208C32.0968 53.264 32.1483 53.346 32.2204 53.448C32.4266 53.7374 32.653 54.0127 32.8981 54.272C33.7112 55.1303 34.7064 55.8072 35.8151 56.256C36.4287 56.4818 37.0537 56.6774 37.6876 56.842C38.2026 56.9783 38.6901 57.198 39.1296 57.492C39.4229 57.6921 39.6704 57.9488 39.8568 58.246C39.9639 58.464 40.0092 58.6 40.0195 58.6Z" fill="#455A64"/>
<path d="M39.5168 58.858C39.5225 58.7328 39.5 58.6079 39.4509 58.492C39.3208 58.1721 39.0948 57.8976 38.802 57.704C38.3639 57.43 37.8735 57.2443 37.36 57.158C36.7455 57.0384 36.1466 56.8533 35.574 56.606C35.0038 56.3534 34.4682 56.033 33.9796 55.652C33.582 55.3395 33.2164 54.9905 32.8878 54.61C32.6639 54.3519 32.4575 54.08 32.2698 53.796L32.1235 53.562C32.1084 53.5338 32.0897 53.5076 32.0679 53.484C32.0794 53.5136 32.0931 53.5424 32.1091 53.57L32.2409 53.814C32.4162 54.1055 32.6131 54.3842 32.8301 54.648C33.1548 55.0386 33.5199 55.3958 33.9198 55.714C34.4114 56.1025 34.952 56.4285 35.5287 56.684C36.1063 56.9342 36.7119 57.1188 37.3332 57.234C37.8375 57.3155 38.3204 57.4922 38.7546 57.754C39.0418 57.9375 39.268 58.1981 39.4056 58.504C39.4538 58.6184 39.491 58.7369 39.5168 58.858Z" fill="#455A64"/>
<path d="M37.4565 61.8C37.4565 61.788 37.6028 61.77 37.8582 61.704C38.2164 61.6036 38.5461 61.4251 38.8223 61.182C39.2269 60.8144 39.5343 60.3575 39.7184 59.85C39.9537 59.2315 40.0804 58.5792 40.0933 57.92C40.1011 57.5794 40.0728 57.239 40.0089 56.904C39.836 56.0615 39.4285 55.2812 38.8306 54.648C38.479 54.2855 38.0912 53.9579 37.6728 53.67C37.6728 53.67 37.7079 53.682 37.7697 53.718C37.8315 53.754 37.92 53.802 38.0292 53.878C38.3421 54.0864 38.6309 54.3272 38.8903 54.596C39.2788 54.9944 39.5932 55.4552 39.8194 55.958C39.9505 56.2562 40.0505 56.5664 40.1181 56.884C40.1843 57.2261 40.214 57.574 40.2066 57.922C40.1943 58.5935 40.0626 59.258 39.8173 59.886C39.6223 60.4053 39.2991 60.8702 38.8759 61.24C38.587 61.4839 38.2424 61.6574 37.8706 61.746C37.7694 61.7683 37.6669 61.7843 37.5637 61.794C37.5282 61.7987 37.4924 61.8007 37.4565 61.8Z" fill="#455A64"/>
<path d="M39.6506 82.382L29.4578 83.82C25.6282 84.872 21.5947 85.18 17.3779 84.82L32.7188 91.768L38.8781 91.86C38.8781 91.86 40.7527 91.86 41.0803 90.272C41.4078 88.684 41.7724 83.848 41.7724 83.848C41.7724 83.848 40.555 82.824 39.6506 82.382Z" fill="#263238"/>
<g opacity="0.3">
<path d="M39.6199 86.548C39.7885 87.5391 39.8492 88.5446 39.8012 89.548C40.1143 89.2143 40.3449 88.8157 40.4756 88.3825C40.6062 87.9493 40.6334 87.4929 40.5552 87.048C40.4666 86.56 40.2565 86.022 40.5202 85.596C40.6973 85.31 41.1649 84.982 41.097 84.656C41.097 84.656 40.685 84.656 40.3162 84.642C40.0175 84.63 39.3975 84.612 39.3975 84.612C39.6642 85.2341 39.7219 85.9222 39.5623 86.578" fill="black"/>
</g>
<path d="M32.385 66.22L37.3372 65.7L38.2436 66.5L34.7086 68.52L33.1492 69.304L31.6083 68.85L31.1201 67.958L32.385 66.22Z" fill="#694B47"/>
<path d="M25.7085 72.074C25.7085 72.074 27.2617 69.182 27.6449 68.55C28.3 67.472 29.5236 66.862 29.5236 66.862L32.385 66.22C32.385 66.22 32.0883 67.62 33.8682 67.708C36.1342 67.83 37.5411 65.722 37.5411 65.722C37.5411 65.722 40.1244 65.98 40.8371 66.27C41.5499 66.56 43.5687 67.382 43.8653 69.986L44.5575 74.24L39.0985 74.64L39.1727 80.304L36.8531 82.146C36.8531 82.146 30.1931 84.372 29.7667 84.518C29.5607 84.588 29.6143 81.84 29.1384 79.484L28.2402 77.366C27.8767 76.52 27.6615 75.6209 27.6037 74.706C27.5687 74.106 27.5852 73.646 27.5852 73.646C27.5852 73.646 26.1844 73.18 25.7085 72.074Z" fill="#455A64"/>
<path d="M30.0098 82.298L39.1624 79.632L39.0986 74.644L43.7583 74.3C43.7583 74.3 43.3875 76.884 43.3319 78.208C43.2536 80.114 42.3019 82.778 41.6839 83.342C41.0659 83.906 29.7729 84.522 29.7729 84.522L30.0098 82.298Z" fill="#694B47"/>
<path d="M24.8188 83.866C24.8629 83.9393 24.9331 83.9946 25.0161 84.0215C25.0991 84.0483 25.1893 84.045 25.2699 84.012C25.4759 83.932 25.4203 83.528 25.4203 83.528L26.3947 83.296C26.3947 83.296 27.7399 84.004 28.2487 84.496C28.7575 84.988 29.8761 84.474 29.8761 84.474L30.1089 82.4L28.1663 80.942C28.1663 80.942 28.2858 81.03 28.1354 80.742C27.985 80.454 27.4247 80.61 27.4247 80.61C27.3258 80.468 26.9488 80.444 26.9488 80.444L25.3688 80.742C25.2085 80.7723 25.0572 80.837 24.926 80.9315C24.7948 81.026 24.6871 81.1478 24.6107 81.288L24.0195 82.374C24.0195 82.374 23.7229 83.146 23.795 83.316C23.8261 83.3864 23.8827 83.4432 23.9541 83.4756C24.0255 83.5081 24.1067 83.5139 24.1823 83.492C24.1823 83.492 24.2997 83.976 24.4336 83.982C24.5689 83.9657 24.6997 83.9243 24.8188 83.86V83.866Z" fill="#694B47"/>
<path d="M28.092 82.146C28.092 82.162 27.886 82.158 27.5399 82.198C27.0992 82.2525 26.6682 82.3649 26.2586 82.532C26.0337 82.6253 25.8168 82.7356 25.6097 82.862C25.4264 82.98 25.2327 83.082 25.1812 83.224C25.1701 83.2545 25.1673 83.2873 25.1731 83.3192C25.1789 83.3511 25.193 83.381 25.2142 83.406C25.2468 83.4475 25.2912 83.4788 25.3419 83.496C25.4284 83.522 25.4799 83.496 25.4841 83.496C25.4882 83.496 25.4367 83.542 25.3316 83.524C25.2694 83.5105 25.2132 83.4783 25.1709 83.432C25.1406 83.4003 25.1193 83.3615 25.1092 83.3194C25.0991 83.2773 25.1005 83.2334 25.1133 83.192C25.1484 83.0988 25.2116 83.018 25.2945 82.96C25.3769 82.898 25.4635 82.836 25.5603 82.774C26.1504 82.3987 26.8284 82.1738 27.5317 82.12C27.7187 82.0992 27.9079 82.108 28.092 82.146Z" fill="#2F211B"/>
<path d="M28.2834 83.124C28.2834 83.152 27.6325 83.176 26.8414 83.28C26.0504 83.384 25.4159 83.528 25.3994 83.5C25.5301 83.4389 25.6687 83.3952 25.8114 83.37C26.1453 83.2885 26.4837 83.2257 26.8249 83.182C27.1665 83.137 27.5104 83.111 27.8549 83.104C27.998 83.0916 28.1422 83.0984 28.2834 83.124Z" fill="#2F211B"/>
<path d="M24.8247 83.826C24.808 83.7732 24.797 83.719 24.7918 83.664C24.7705 83.5135 24.7581 83.3619 24.7547 83.21C24.7529 83.1043 24.7598 82.9986 24.7753 82.894C24.7944 82.7708 24.8385 82.6525 24.9051 82.546C25.0421 82.2994 25.2284 82.0819 25.453 81.906C25.6752 81.7296 25.9222 81.5848 26.1864 81.476C26.4054 81.3971 26.6338 81.3453 26.8662 81.322C27.0722 81.3 27.2205 81.294 27.3317 81.288C27.3884 81.2799 27.446 81.2799 27.5027 81.288C27.2989 81.3332 27.0926 81.3666 26.8847 81.388C26.6605 81.4199 26.4408 81.4763 26.2296 81.556C25.9762 81.6658 25.7392 81.8085 25.5251 81.98C25.3116 82.1467 25.1315 82.3501 24.9936 82.58C24.8837 82.7695 24.8288 82.9845 24.835 83.202C24.8185 83.588 24.8474 83.826 24.8247 83.826Z" fill="#2F211B"/>
<path d="M26.9033 80.848C26.9033 80.864 26.6664 80.888 26.2853 80.958C25.9042 81.028 25.3377 81.11 25.0493 81.626C24.755 82.0173 24.5172 82.446 24.3427 82.9C24.2884 83.0929 24.2532 83.2905 24.2377 83.49C24.2184 83.4375 24.2107 83.3816 24.215 83.326C24.2113 83.1754 24.2307 83.025 24.2727 82.88C24.4295 82.4101 24.6632 81.9677 24.9649 81.57C25.045 81.4495 25.1413 81.3399 25.2512 81.244C25.3572 81.1557 25.4796 81.0878 25.6117 81.044C25.8283 80.9711 26.0519 80.9195 26.2791 80.89C26.4846 80.8507 26.6943 80.8366 26.9033 80.848Z" fill="#2F211B"/>
<path d="M27.8652 84.2C27.8295 84.1818 27.7957 84.1604 27.7642 84.136L27.482 83.95C27.1264 83.7226 26.7577 83.5149 26.3779 83.328H26.4005L25.4282 83.566L25.4591 83.522C25.4684 83.6004 25.4684 83.6796 25.4591 83.758C25.453 83.8445 25.4208 83.9273 25.3664 83.996C25.3326 84.0306 25.2888 84.0543 25.2407 84.064C25.1965 84.079 25.1495 84.0851 25.1027 84.082C25.006 84.0753 24.9148 84.0356 24.8452 83.97C24.8283 83.9529 24.8125 83.9349 24.7978 83.916V83.902L24.8555 83.918L24.8246 83.932C24.7846 83.9524 24.7433 83.9704 24.701 83.986C24.6579 84.0024 24.6139 84.0164 24.5692 84.028C24.5456 84.0347 24.5215 84.0394 24.4971 84.042C24.4658 84.047 24.4338 84.0435 24.4044 84.032C24.3573 84.0031 24.3201 83.9613 24.2973 83.912C24.2744 83.8707 24.2545 83.8279 24.2375 83.784C24.2029 83.6974 24.1747 83.6085 24.1531 83.518L24.2128 83.552C24.1471 83.5716 24.0772 83.5731 24.0107 83.5565C23.9442 83.54 23.8836 83.5059 23.8358 83.458C23.7861 83.4069 23.7569 83.3402 23.7534 83.27C23.7533 83.2069 23.7595 83.1439 23.772 83.082C23.8271 82.8412 23.9 82.6046 23.9903 82.374L24.3055 81.794L24.5115 81.428C24.5726 81.3015 24.6471 81.1815 24.734 81.07C24.8284 80.9628 24.944 80.8751 25.0739 80.812C25.2006 80.7555 25.3353 80.7177 25.4735 80.7L26.9608 80.422H26.9732C27.0646 80.4287 27.1551 80.4448 27.2431 80.47C27.3364 80.49 27.4208 80.5384 27.4841 80.608L27.4264 80.596C27.5049 80.5538 27.5927 80.5307 27.6824 80.5286C27.7721 80.5265 27.8609 80.5455 27.9414 80.584C28.0805 80.6693 28.1819 80.802 28.2257 80.956L28.2113 80.938L29.5503 81.938L29.9108 82.214C29.9542 82.2446 29.9948 82.2787 30.0323 82.316C29.985 82.2923 29.9401 82.2641 29.8984 82.232L29.5255 81.97L28.1659 80.998H28.1556V80.984C28.1173 80.85 28.0283 80.735 27.9064 80.662C27.8384 80.6303 27.7636 80.615 27.6883 80.6175C27.613 80.6199 27.5394 80.64 27.4738 80.676L27.4388 80.692L27.4161 80.664C27.3637 80.6113 27.2963 80.5751 27.2225 80.56C27.1403 80.5379 27.0561 80.5239 26.9711 80.518H26.9835L25.4962 80.802C25.3663 80.8184 25.2399 80.8541 25.1213 80.908C25.0043 80.9642 24.9006 81.0432 24.8164 81.14C24.7353 81.2465 24.6662 81.3611 24.6104 81.482L24.4044 81.848C24.2952 82.048 24.1984 82.248 24.0892 82.428C24.0042 82.6538 23.9354 82.885 23.8832 83.12C23.8714 83.1746 23.8651 83.2302 23.8647 83.286C23.8674 83.334 23.8879 83.3795 23.9223 83.414C23.9578 83.4484 24.0021 83.4729 24.0507 83.4849C24.0993 83.4969 24.1503 83.4959 24.1984 83.482L24.2478 83.47V83.516C24.2705 83.602 24.2973 83.69 24.3282 83.772C24.3508 83.8471 24.3918 83.9157 24.4476 83.972C24.4611 83.9759 24.4754 83.9759 24.4888 83.972L24.5486 83.96C24.5902 83.951 24.6309 83.9383 24.6701 83.922C24.7093 83.908 24.7484 83.89 24.7875 83.872L24.8164 83.86L24.8761 83.876V83.886C24.8873 83.9015 24.8997 83.9162 24.9132 83.93C24.9516 83.9697 25.0009 83.998 25.0553 84.0115C25.1096 84.0249 25.1668 84.023 25.2201 84.006C25.253 84.0005 25.2833 83.9851 25.3067 83.962C25.3793 83.8414 25.4062 83.6999 25.3829 83.562V83.526H25.4158L26.3923 83.302H26.4046C26.7843 83.4939 27.1498 83.7111 27.4985 83.952C27.62 84.038 27.7045 84.106 27.7725 84.152C27.8045 84.1658 27.8355 84.1819 27.8652 84.2Z" fill="#2F211B"/>
<path d="M23.1068 85.484C23.1068 85.484 16.6487 83.514 14.6217 82.884C11.1197 81.784 8.84132 82.896 8.12032 84.108C7.18508 85.682 9.42842 88.752 10.2936 89.458C12.8542 91.548 17.2441 91.83 17.2441 91.83L33.0278 91.802L28.4278 85.726L23.1068 85.484Z" fill="#263238"/>
<path d="M24.0749 88.328C21.4447 88.6252 18.7798 88.273 16.3272 87.304C15.9088 87.1204 15.4779 86.9647 15.0376 86.838C14.6024 86.7315 14.1512 86.7003 13.7048 86.746C13.5277 86.7504 13.3532 86.7893 13.1918 86.8604C13.0305 86.9315 12.8855 87.0334 12.7655 87.16C12.4503 87.56 12.611 88.136 12.7861 88.612C12.9921 89.172 13.1981 89.744 13.6101 90.192C14.0777 90.714 14.7575 91.014 15.4393 91.222C16.7722 91.622 18.1791 91.748 19.5758 91.8L24.3715 91.546L24.0749 88.328Z" fill="#E0E0E0"/>
<path d="M14.813 86.84C14.8446 86.8775 14.869 86.9202 14.8851 86.966C14.9408 87.0854 14.9836 87.21 15.0129 87.338C15.1164 87.7636 15.0982 88.2085 14.9603 88.6248C14.8223 89.0411 14.5698 89.4129 14.2301 89.7C14.1289 89.786 14.02 89.863 13.9046 89.93C13.8201 89.976 13.7727 89.996 13.7686 89.99C13.7645 89.984 13.9417 89.874 14.1806 89.648C14.4941 89.3569 14.7279 88.9945 14.8606 88.5936C14.9934 88.1926 15.0209 87.7659 14.9408 87.352C14.8831 87.032 14.7966 86.846 14.813 86.84Z" fill="#263238"/>
<path d="M39.5908 85.1C39.2159 84.068 39.1541 82.552 36.8407 81.824C34.5274 81.096 32.7805 82.492 31.5919 82.976C30.4032 83.46 23.9081 86.92 23.9081 86.92C23.9081 86.92 22.6844 89.038 23.0326 89.974C23.3807 90.91 24.9628 91.834 24.9628 91.834H32.2284C34.103 91.834 37.5844 91.772 37.5844 91.772C38.0505 91.0302 38.4681 90.2607 38.8348 89.468L38.8966 89.164C38.9028 88.922 39.9637 86.132 39.5908 85.1Z" fill="#263238"/>
<path d="M35.5658 90.458C35.5564 90.4938 35.538 90.5268 35.5123 90.554C35.4418 90.6333 35.3615 90.7038 35.2733 90.764C34.9489 90.9812 34.604 91.168 34.2433 91.322C33.9969 91.4335 33.7437 91.5304 33.4852 91.612C33.1859 91.7034 32.8793 91.7703 32.5685 91.812C31.8595 91.8805 31.1468 91.9072 30.4344 91.892C28.9244 91.916 27.5504 91.972 26.5616 91.96C26.0651 91.96 25.6634 91.938 25.3874 91.91C25.2809 91.9009 25.175 91.8862 25.0701 91.866C25.033 91.8617 24.9964 91.8536 24.9609 91.842C24.9609 91.832 25.1134 91.858 25.3894 91.872C25.6655 91.886 26.0672 91.896 26.5616 91.892C27.5524 91.892 28.9203 91.818 30.4344 91.794C31.1431 91.8089 31.8522 91.7848 32.5582 91.722C32.8635 91.6856 33.1652 91.6254 33.4605 91.542C33.7174 91.465 33.9692 91.3728 34.2145 91.266C34.5727 91.1197 34.9173 90.9437 35.2445 90.74C35.3334 90.6822 35.4156 90.6151 35.4896 90.54C35.5473 90.492 35.5596 90.456 35.5658 90.458Z" fill="#263238"/>
<path d="M24.963 91.834L24.8662 91.784C24.8044 91.75 24.7137 91.694 24.5963 91.62C24.2546 91.4035 23.9346 91.1564 23.6405 90.882C23.4273 90.6836 23.2455 90.4558 23.1007 90.206C22.9528 89.8932 22.9151 89.5417 22.9936 89.206C23.1703 88.4019 23.4666 87.6271 23.8732 86.906V86.896C25.0639 86.26 26.4297 85.538 27.9211 84.76C28.6669 84.372 29.4435 83.97 30.251 83.56C30.663 83.36 31.075 83.16 31.487 82.96C31.899 82.76 32.3213 82.56 32.7477 82.344C33.3368 82.0306 33.9686 81.7997 34.6244 81.658C34.9465 81.5956 35.2745 81.5668 35.6029 81.572C35.9242 81.5814 36.2434 81.6257 36.5546 81.704C37.1579 81.8483 37.7244 82.111 38.2191 82.476C38.4491 82.661 38.6528 82.8749 38.8247 83.112C38.9828 83.3457 39.1134 83.596 39.2141 83.858C39.3171 84.114 39.3892 84.372 39.4633 84.624C39.5483 84.8688 39.6171 85.1187 39.6693 85.372C39.7017 85.856 39.66 86.3419 39.5457 86.814C39.453 87.264 39.3397 87.684 39.2223 88.074C39.1646 88.274 39.1069 88.46 39.0534 88.642C38.9998 88.824 38.938 89.004 38.9092 89.164C38.8845 89.278 38.8659 89.364 38.8453 89.466C38.6469 90.084 38.3665 90.6743 38.011 91.222C37.8851 91.4178 37.7365 91.599 37.5681 91.762L37.5949 91.726C37.6176 91.7 37.6464 91.668 37.6814 91.624C37.7906 91.4907 37.8924 91.3518 37.9863 91.208C38.3295 90.657 38.6001 90.0664 38.7918 89.45C38.9092 89.354 38.8865 89.26 38.8515 89.146C38.8875 88.9635 38.9343 88.7832 38.9916 88.606L39.1584 88.04C39.2697 87.64 39.3809 87.228 39.4716 86.782C39.5813 86.3174 39.6201 85.8396 39.5869 85.364C39.5327 85.1157 39.464 84.8706 39.3809 84.63C39.3047 84.378 39.2305 84.122 39.1296 83.872C39.0313 83.6161 38.9034 83.3719 38.7485 83.144C38.5814 82.9146 38.3832 82.7081 38.1593 82.53C37.4185 81.9909 36.526 81.6839 35.6008 81.65C35.2799 81.6449 34.9594 81.6737 34.645 81.736C33.997 81.8756 33.3728 82.1039 32.791 82.414C32.379 82.614 31.967 82.854 31.5241 83.032C31.0812 83.21 30.7001 83.422 30.2881 83.632C29.4826 84.032 28.7039 84.432 27.9582 84.832L23.9041 86.954L23.9186 86.938C23.5131 87.6509 23.2155 88.4167 23.0348 89.212C22.9535 89.5363 22.9862 89.8777 23.1275 90.182C23.2662 90.4296 23.4426 90.6555 23.6508 90.852C23.9396 91.1285 24.2533 91.3795 24.5881 91.602L24.8517 91.774C24.9259 91.812 24.963 91.834 24.963 91.834Z" fill="#263238"/>
<path d="M36.7872 89.216C36.7872 89.216 38.9522 89.468 38.7606 90.496C38.5691 91.524 37.8604 91.87 37.8604 91.87L31.9771 91.882C31.9771 91.882 35.4894 91.646 36.7872 89.216Z" fill="#E0E0E0"/>
<path d="M36.9974 88.718C36.997 88.8181 36.9745 88.917 36.9315 89.008C36.8518 89.2379 36.7335 89.4535 36.5813 89.646C36.3761 89.9266 36.0892 90.1411 35.7573 90.262C36.0305 90.063 36.2812 89.8364 36.5051 89.586C36.694 89.3106 36.8587 89.0202 36.9974 88.718Z" fill="#263238"/>
<path d="M36.2556 89.12C36.2591 89.3779 36.1877 89.6316 36.0496 89.852C35.9439 90.0857 35.7821 90.2914 35.5778 90.452C35.5552 90.434 35.7674 90.168 35.9589 89.802C36.1505 89.436 36.2185 89.116 36.2556 89.12Z" fill="#263238"/>
<path d="M39.0082 91.584C38.9917 91.584 39.1318 91.316 39.3007 90.874C39.7442 89.7197 39.8906 88.4777 39.7271 87.256C39.6632 86.79 39.5891 86.504 39.6056 86.5C39.6382 86.5633 39.6617 86.6306 39.6756 86.7C39.7265 86.881 39.7671 87.0646 39.7971 87.25C40.0033 88.4824 39.855 89.7462 39.3687 90.902C39.2952 91.0724 39.212 91.2387 39.1194 91.4C39.09 91.4654 39.0526 91.5272 39.0082 91.584Z" fill="#455A64"/>
<g opacity="0.3">
<path d="M37.7843 88.662C37.7678 88.524 37.7122 88.36 37.5783 88.332C37.4052 88.298 37.2878 88.49 37.2198 88.646C36.4617 90.32 34.0124 91.626 32.1357 91.8C33.0459 91.798 33.9545 91.7258 34.8529 91.584C35.619 91.4726 36.3373 91.1537 36.9252 90.664C37.2176 90.4171 37.4472 90.1079 37.5962 89.7607C37.7452 89.4134 37.8096 89.0374 37.7843 88.662Z" fill="black"/>
</g>
<path d="M23.4507 86.384C23.092 86.2862 22.7431 86.157 22.4084 85.998C22.0605 85.87 21.7253 85.7113 21.4072 85.524C21.7655 85.6223 22.1143 85.7508 22.4496 85.908C22.7976 86.0366 23.1327 86.1959 23.4507 86.384Z" fill="#263238"/>
<g opacity="0.2">
<path d="M25.5437 85.5C22.7421 84.98 19.9302 84.518 17.108 84.114L15.0068 84.758C15.596 85.822 16.7599 86.5 17.9691 86.78C19.1783 87.06 20.4411 86.994 21.6771 86.884C23.0408 86.762 24.4416 86.576 25.6282 85.912C25.7188 85.862 25.8218 85.786 25.8095 85.684C25.7971 85.582 25.6653 85.522 25.5437 85.5Z" fill="black"/>
</g>
<path d="M11.7543 77.4L15.2851 84.98C15.3565 85.1345 15.4722 85.2658 15.6183 85.3584C15.7643 85.4509 15.9347 85.5008 16.1091 85.502L26.4091 85.632L27.7069 84.954L25.6737 84.81L22.5095 77.438C22.4603 77.3233 22.3774 77.2252 22.2712 77.1559C22.165 77.0865 22.0401 77.049 21.9121 77.048L12.0468 76.976C11.9942 76.9741 11.9419 76.9854 11.895 77.0086C11.8481 77.0319 11.8081 77.0664 11.7788 77.1088C11.7495 77.1513 11.7319 77.2004 11.7276 77.2513C11.7233 77.3023 11.7325 77.3535 11.7543 77.4Z" fill="#E0E0E0"/>
<path d="M11.7543 77.4C11.7374 77.3718 11.7269 77.3404 11.7234 77.308C11.7169 77.26 11.7223 77.2112 11.7391 77.1656C11.7559 77.12 11.7837 77.079 11.8202 77.046C11.8765 76.9953 11.9495 76.9655 12.0262 76.962H12.9305L17.0608 76.976L19.9325 76.99L21.5372 77H21.9492C22.1018 77.0107 22.2466 77.0697 22.3612 77.168C22.4717 77.2686 22.5534 77.3954 22.5981 77.536L22.767 77.936C23.6673 80.03 24.6622 82.346 25.717 84.794L25.6675 84.76L27.6307 84.9H27.7007L27.9067 84.914L27.7316 85.006L26.4339 85.684H26.4194H26.405L18.5976 85.58L16.8548 85.556C16.5706 85.556 16.2986 85.556 16.0164 85.54C15.8755 85.5238 15.7399 85.4779 15.6192 85.4053C15.4986 85.3327 15.3958 85.2353 15.3181 85.12C14.8587 84.182 14.4755 83.32 14.1027 82.52L12.3764 78.772C12.1704 78.334 12.0221 77.992 11.915 77.754C11.8635 77.642 11.8264 77.554 11.7975 77.49C11.7687 77.426 11.7605 77.398 11.7605 77.398C11.7781 77.4264 11.7939 77.4558 11.8078 77.486L11.9356 77.746C12.0468 77.98 12.2075 78.32 12.4155 78.746L14.1748 82.482C14.5476 83.268 14.9473 84.152 15.3964 85.064C15.4663 85.168 15.5591 85.2557 15.6681 85.3207C15.7771 85.3857 15.8996 85.4265 16.0267 85.44C16.2904 85.452 16.5767 85.45 16.8507 85.454L18.5935 85.474L26.4009 85.566H26.3721L27.6699 84.886L27.6946 84.992H27.6245L25.6613 84.854H25.6263L25.6119 84.824C24.5634 82.372 23.5704 80.056 22.6723 77.96L22.5054 77.57C22.4687 77.4428 22.3976 77.3275 22.2994 77.236C22.2015 77.1502 22.0767 77.0988 21.9451 77.09H21.5331L19.9284 77.076L17.0588 77.048L12.9244 77H12.2775H12.0221C11.9813 77.0015 11.9412 77.011 11.9043 77.028C11.8674 77.045 11.8345 77.0691 11.8075 77.0988C11.7805 77.1286 11.7601 77.1634 11.7474 77.201C11.7347 77.2387 11.73 77.2785 11.7337 77.318C11.739 77.3457 11.7459 77.373 11.7543 77.4Z" fill="#263238"/>
<path d="M25.3624 85.618C25.3432 85.5919 25.3273 85.5637 25.315 85.534L25.1976 85.29C25.0946 85.062 24.9545 84.754 24.7856 84.382C24.4416 83.612 23.9739 82.548 23.4713 81.364C22.9687 80.18 22.5237 79.106 22.2168 78.324C22.0623 77.924 21.9407 77.614 21.8624 77.392C21.8253 77.29 21.7965 77.206 21.7718 77.136C21.7603 77.1062 21.752 77.0754 21.7471 77.044C21.7659 77.0699 21.7812 77.0982 21.7924 77.128L21.8995 77.378C21.9963 77.61 22.1261 77.92 22.2827 78.298C22.6164 79.086 23.0675 80.15 23.564 81.328C24.0605 82.506 24.5178 83.566 24.8515 84.354L25.2367 85.274C25.2759 85.376 25.3088 85.458 25.3356 85.526C25.3499 85.5549 25.3589 85.5861 25.3624 85.618Z" fill="#263238"/>
<path d="M18.9764 81.074C18.9768 81.1715 18.9474 81.2669 18.8919 81.3481C18.8363 81.4293 18.7572 81.4927 18.6645 81.5301C18.5718 81.5676 18.4698 81.5775 18.3713 81.5586C18.2728 81.5397 18.1823 81.4928 18.1113 81.4239C18.0403 81.355 17.992 81.2671 17.9725 81.1715C17.953 81.0759 17.9632 80.9768 18.0019 80.8868C18.0405 80.7968 18.1057 80.72 18.1894 80.6661C18.273 80.6122 18.3713 80.5836 18.4717 80.584C18.6056 80.584 18.7339 80.6356 18.8286 80.7275C18.9232 80.8194 18.9764 80.944 18.9764 81.074Z" fill="white"/>
<path d="M28.9983 68.88C29.0147 68.88 28.8664 69.158 28.6583 69.606C28.1138 70.7754 27.758 72.0194 27.6036 73.294C27.5418 73.784 27.5253 74.094 27.5068 74.094C27.4958 74.0224 27.4958 73.9496 27.5068 73.878C27.5068 73.74 27.5068 73.54 27.5356 73.292C27.6521 72.0013 28.0139 70.7427 28.6027 69.58C28.716 69.358 28.8087 69.18 28.8891 69.064C28.9177 68.9986 28.9543 68.9368 28.9983 68.88Z" fill="#263238"/>
<path d="M44.5574 74.24C44.5207 74.2509 44.4825 74.257 44.4441 74.258L44.1166 74.288L42.8929 74.388L38.7091 74.694H38.6555V74.642C38.6205 74.102 38.5834 73.532 38.5463 72.948C38.4866 71.928 38.4351 70.948 38.4186 70.07C38.3653 69.2791 38.5508 68.4902 38.9522 67.8C39.2277 67.3345 39.6343 66.955 40.1243 66.706C40.2566 66.6416 40.3944 66.5888 40.5363 66.548C40.5856 66.533 40.6358 66.521 40.6867 66.512C40.6867 66.528 40.4807 66.57 40.1408 66.742C39.6684 66.9996 39.2784 67.3789 39.014 67.838C38.6322 68.5213 38.4613 69.2969 38.5216 70.072C38.5422 70.954 38.5958 71.926 38.6555 72.946C38.6926 73.53 38.7276 74.1 38.7626 74.638L38.705 74.59L42.8929 74.322L44.1289 74.252L44.4565 74.24H44.5574Z" fill="#263238"/>
<path d="M34.2924 77.704C34.2289 77.692 34.1677 77.6704 34.1111 77.64C34.0402 77.6111 33.9714 77.5777 33.9051 77.54C33.8163 77.4936 33.7303 77.4422 33.6476 77.386C33.4285 77.2424 33.2261 77.0761 33.044 76.89C32.8238 76.6593 32.6304 76.4058 32.4672 76.134C32.3099 75.8591 32.1848 75.568 32.0944 75.266C32.0226 75.0193 31.9784 74.7659 31.9625 74.51C31.9565 74.4121 31.9565 74.3139 31.9625 74.216C31.9628 74.1417 31.9684 74.0675 31.979 73.994C31.9809 73.9305 31.9934 73.8676 32.0161 73.808C32.0367 73.808 32.0017 74.078 32.0449 74.504C32.0708 74.7528 32.1212 74.9985 32.1953 75.238C32.29 75.5308 32.415 75.8136 32.5682 76.082C32.7259 76.3467 32.9116 76.5947 33.1223 76.822C33.2975 77.0062 33.4899 77.1742 33.6971 77.324C34.0473 77.578 34.3027 77.686 34.2924 77.704Z" fill="#263238"/>
</g>
<defs>
<clipPath id="clip0_1412_14454">
<rect width="103" height="100" fill="white"/>
</clipPath>
</defs>
</svg>
