<svg width="245" height="112" viewBox="0 0 245 112" fill="none" xmlns="http://www.w3.org/2000/svg">
<path d="M89.8701 20.4829L95.5594 110.615H89.8701V20.4829Z" fill="#E0E0E0"/>
<path d="M89.8702 20.4829H7.9668V42.667H89.8702V20.4829Z" fill="#FFC727"/>
<path d="M7.96776 20.475L89.8711 20.4099H89.9116V20.475C89.9116 47.5334 89.9116 78.2192 89.9116 110.597V110.678H89.8638L7.9604 110.664H7.91992V110.608C7.94384 56.0324 7.9604 20.9521 7.9604 20.475C7.9604 20.9521 7.97512 56.0324 7.99904 110.608L7.9604 110.551L89.8638 110.537L89.8159 110.608C89.8159 78.2246 89.8159 47.5443 89.8159 20.4858L89.8601 20.5482L7.96776 20.475Z" fill="#263238"/>
<path d="M89.9451 42.3229C89.9451 42.3636 71.4919 42.3934 48.7294 42.3934C25.9669 42.3934 7.51367 42.3636 7.51367 42.3229C7.51367 42.2823 25.9632 42.2524 48.7294 42.2524C71.4956 42.2524 89.9451 42.285 89.9451 42.3229Z" fill="#263238"/>
<path d="M78.9343 70.8533H36.2521C33.8234 70.8533 31.8545 73.7535 31.8545 77.3312C31.8545 80.9089 33.8234 83.8091 36.2521 83.8091H78.9343C81.363 83.8091 83.3318 80.9089 83.3318 77.3312C83.3318 73.7535 81.363 70.8533 78.9343 70.8533Z" fill="#FFC727"/>
<path d="M36.1707 85H18.0763C14.3049 85 12.8545 87.9101 12.8545 91.5C12.8545 95.0899 14.3049 98 18.0763 98H36.1707C39.942 98 41.7781 95.0898 41.7781 91.5C41.7781 87.9101 39.942 85 36.1707 85Z" fill="#FFC727"/>
<path d="M21.03 26.9515C21.9537 26.9515 22.7025 25.8482 22.7025 24.4872C22.7025 23.1263 21.9537 22.0229 21.03 22.0229C20.1062 22.0229 19.3574 23.1263 19.3574 24.4872C19.3574 25.8482 20.1062 26.9515 21.03 26.9515Z" fill="#263238"/>
<path d="M21.0291 27.0869C20.68 27.0874 20.3387 26.9354 20.0483 26.6501C19.7578 26.3647 19.5314 25.9589 19.3975 25.4839C19.2637 25.0088 19.2285 24.486 19.2964 23.9815C19.3643 23.477 19.5322 23.0135 19.7789 22.6496C20.0256 22.2858 20.34 22.0379 20.6823 21.9374C21.0247 21.8368 21.3795 21.8882 21.7021 22.0849C22.0246 22.2815 22.3003 22.6148 22.4943 23.0424C22.6883 23.47 22.7918 23.9727 22.7918 24.4871C22.7913 25.1759 22.6055 25.8363 22.2751 26.3237C21.9447 26.811 21.4966 27.0855 21.0291 27.0869V27.0869ZM21.0291 22.161C20.7163 22.1605 20.4105 22.2967 20.1503 22.5524C19.8901 22.808 19.6872 23.1717 19.5674 23.5973C19.4475 24.023 19.416 24.4914 19.477 24.9434C19.5379 25.3954 19.6885 25.8106 19.9096 26.1364C20.1308 26.4623 20.4126 26.6841 20.7193 26.7739C21.0261 26.8637 21.3441 26.8173 21.6329 26.6407C21.9218 26.4641 22.1687 26.1652 22.3422 25.7819C22.5157 25.3985 22.6082 24.9479 22.6078 24.4871C22.6073 23.8704 22.4408 23.2792 22.1449 22.8431C21.8489 22.407 21.4476 22.1617 21.0291 22.161V22.161Z" fill="#263238"/>
<path d="M34.8181 26.9515C35.7418 26.9515 36.4906 25.8482 36.4906 24.4872C36.4906 23.1263 35.7418 22.0229 34.8181 22.0229C33.8943 22.0229 33.1455 23.1263 33.1455 24.4872C33.1455 25.8482 33.8943 26.9515 34.8181 26.9515Z" fill="#263238"/>
<path d="M34.8183 27.0869C34.4693 27.0869 34.1281 26.9344 33.8379 26.6487C33.5478 26.3631 33.3216 25.957 33.188 25.482C33.0545 25.0069 33.0195 24.4842 33.0876 23.9798C33.1557 23.4755 33.3238 23.0123 33.5705 22.6487C33.8173 22.2851 34.1317 22.0375 34.474 21.9372C34.8163 21.8368 35.1711 21.8883 35.4935 22.0851C35.816 22.2819 36.0915 22.6151 36.2854 23.0427C36.4793 23.4702 36.5828 23.9729 36.5828 24.4871C36.5823 25.1764 36.3963 25.8372 36.0654 26.3246C35.7346 26.812 35.2861 27.0862 34.8183 27.0869V27.0869ZM34.8183 22.161C34.5056 22.161 34.1999 22.2977 33.94 22.5537C33.68 22.8097 33.4774 23.1735 33.3578 23.5992C33.2383 24.0249 33.2071 24.4933 33.2682 24.9451C33.3294 25.3969 33.4801 25.8118 33.7013 26.1374C33.9225 26.463 34.2043 26.6845 34.511 26.7741C34.8178 26.8636 35.1356 26.8171 35.4244 26.6405C35.7132 26.4638 35.9599 26.1649 36.1333 25.7816C36.3068 25.3983 36.3992 24.9478 36.3988 24.4871C36.3978 23.8701 36.2309 23.2789 35.9347 22.8429C35.6384 22.4069 35.237 22.1617 34.8183 22.161V22.161Z" fill="#263238"/>
<path d="M48.6071 26.9515C49.5308 26.9515 50.2797 25.8482 50.2797 24.4872C50.2797 23.1263 49.5308 22.0229 48.6071 22.0229C47.6834 22.0229 46.9346 23.1263 46.9346 24.4872C46.9346 25.8482 47.6834 26.9515 48.6071 26.9515Z" fill="#263238"/>
<path d="M48.6073 27.0869C48.2583 27.0869 47.9172 26.9344 47.627 26.6487C47.3368 26.3631 47.1106 25.957 46.9771 25.482C46.8435 25.0069 46.8086 24.4842 46.8767 23.9798C46.9448 23.4755 47.1128 23.0123 47.3596 22.6487C47.6064 22.2851 47.9208 22.0375 48.2631 21.9372C48.6054 21.8368 48.9602 21.8883 49.2826 22.0851C49.605 22.2819 49.8806 22.6151 50.0745 23.0427C50.2684 23.4702 50.3719 23.9729 50.3719 24.4871C50.3714 25.1764 50.1853 25.8372 49.8545 26.3246C49.5237 26.812 49.0752 27.0862 48.6073 27.0869V27.0869ZM48.6073 22.161C48.2946 22.161 47.989 22.2977 47.729 22.5537C47.4691 22.8097 47.2665 23.1735 47.1469 23.5992C47.0273 24.0249 46.9961 24.4933 47.0573 24.9451C47.1184 25.3969 47.2691 25.8118 47.4904 26.1374C47.7116 26.463 47.9934 26.6845 48.3001 26.7741C48.6068 26.8636 48.9247 26.8171 49.2134 26.6405C49.5022 26.4638 49.7489 26.1649 49.9224 25.7816C50.0958 25.3983 50.1882 24.9478 50.1879 24.4871C50.1874 23.8699 50.0206 23.2783 49.7243 22.8421C49.4279 22.406 49.0262 22.161 48.6073 22.161V22.161Z" fill="#263238"/>
<path d="M62.3981 26.9515C63.3219 26.9515 64.0707 25.8482 64.0707 24.4872C64.0707 23.1263 63.3219 22.0229 62.3981 22.0229C61.4744 22.0229 60.7256 23.1263 60.7256 24.4872C60.7256 25.8482 61.4744 26.9515 62.3981 26.9515Z" fill="#263238"/>
<path d="M62.3972 27.0869C62.0482 27.0874 61.7068 26.9354 61.4164 26.6501C61.126 26.3647 60.8995 25.9589 60.7657 25.4839C60.6319 25.0088 60.5967 24.486 60.6645 23.9815C60.7324 23.477 60.9003 23.0135 61.147 22.6496C61.3937 22.2858 61.7081 22.0379 62.0505 21.9374C62.3928 21.8368 62.7477 21.8882 63.0702 22.0849C63.3928 22.2815 63.6685 22.6148 63.8625 23.0424C64.0564 23.47 64.16 23.9727 64.16 24.4871C64.1595 25.1759 63.9737 25.8363 63.6432 26.3237C63.3128 26.811 62.8648 27.0855 62.3972 27.0869V27.0869ZM62.3972 22.161C62.0845 22.1605 61.7787 22.2967 61.5184 22.5524C61.2582 22.808 61.0554 23.1717 60.9355 23.5973C60.8157 24.023 60.7842 24.4914 60.8451 24.9434C60.9061 25.3954 61.0566 25.8106 61.2778 26.1364C61.4989 26.4623 61.7807 26.6841 62.0875 26.7739C62.3943 26.8637 62.7122 26.8173 63.0011 26.6407C63.29 26.4641 63.5368 26.1652 63.7104 25.7819C63.8839 25.3985 63.9763 24.9479 63.976 24.4871C63.9755 23.8704 63.809 23.2792 63.513 22.8431C63.2171 22.407 62.8158 22.1617 62.3972 22.161V22.161Z" fill="#263238"/>
<path d="M76.1862 26.9515C77.1099 26.9515 77.8588 25.8482 77.8588 24.4872C77.8588 23.1263 77.1099 22.0229 76.1862 22.0229C75.2625 22.0229 74.5137 23.1263 74.5137 24.4872C74.5137 25.8482 75.2625 26.9515 76.1862 26.9515Z" fill="#263238"/>
<path d="M76.1864 27.0869C75.8374 27.0869 75.4963 26.9344 75.2061 26.6487C74.9159 26.3631 74.6897 25.957 74.5562 25.482C74.4226 25.0069 74.3877 24.4842 74.4558 23.9798C74.5239 23.4755 74.6919 23.0123 74.9387 22.6487C75.1855 22.2851 75.4999 22.0375 75.8422 21.9372C76.1845 21.8368 76.5393 21.8883 76.8617 22.0851C77.1841 22.2819 77.4597 22.6151 77.6536 23.0427C77.8475 23.4702 77.951 23.9729 77.951 24.4871C77.9505 25.1764 77.7644 25.8372 77.4336 26.3246C77.1028 26.812 76.6543 27.0862 76.1864 27.0869V27.0869ZM76.1864 22.161C75.8737 22.161 75.5681 22.2977 75.3081 22.5537C75.0482 22.8097 74.8456 23.1735 74.726 23.5992C74.6064 24.0249 74.5752 24.4933 74.6364 24.9451C74.6975 25.3969 74.8482 25.8118 75.0695 26.1374C75.2907 26.463 75.5725 26.6845 75.8792 26.7741C76.1859 26.8636 76.5038 26.8171 76.7925 26.6405C77.0813 26.4638 77.328 26.1649 77.5015 25.7816C77.6749 25.3983 77.7673 24.9478 77.767 24.4871C77.766 23.8701 77.5991 23.2789 77.3029 22.8429C77.0066 22.4069 76.6051 22.1617 76.1864 22.161V22.161Z" fill="#263238"/>
<path d="M15.7354 47.124V52.0255H15.2644V47.734H14.5137V47.124H15.7354Z" fill="#263238"/>
<path d="M27.3863 51.4154V52.0254H24.9943V51.551L26.3485 49.6234C26.7018 49.1192 26.768 48.8101 26.768 48.5038C26.768 47.9996 26.5252 47.6905 26.0597 47.6905C25.899 47.6787 25.7386 47.7215 25.5909 47.8155C25.4432 47.9095 25.3121 48.0523 25.2077 48.2327L24.8857 47.8206C25.0384 47.5716 25.2267 47.3758 25.437 47.2473C25.6474 47.1188 25.8745 47.0609 26.102 47.0778C26.7956 47.0778 27.2428 47.6038 27.2428 48.4333C27.2428 48.9105 27.1471 49.3361 26.6908 49.9732L25.6733 51.4154H27.3863Z" fill="#263238"/>
<path d="M37.4285 50.5833C37.4285 51.4101 37.0145 52.0824 36.17 52.0824C35.7278 52.1013 35.2953 51.8902 34.9482 51.486L35.1654 50.9438C35.4452 51.2945 35.8027 51.4817 36.17 51.4698C36.6686 51.4698 36.9538 51.1336 36.9538 50.6022C36.9538 50.0709 36.7017 49.7456 36.1314 49.7456H35.8646V49.2576L36.7018 47.7448H35.0991V47.124H37.2961V47.6012L36.4258 49.1817C37.0918 49.2738 37.4285 49.8269 37.4285 50.5833Z" fill="#263238"/>
<path d="M48.6121 50.8218H47.9791V52.0255H47.5191V50.8218H45.6699V50.3311L47.3719 47.124H47.8853L46.255 50.22H47.5338V49.1546H47.9791V50.22H48.6121V50.8218Z" fill="#263238"/>
<path d="M58.2946 50.567C58.2946 51.4129 57.8862 52.0933 57.0343 52.0933C56.5924 52.1094 56.1604 51.8986 55.8125 51.4969L56.0315 50.9547C56.3095 51.3044 56.6651 51.4916 57.0306 51.4806C57.5329 51.4806 57.8181 51.1363 57.8181 50.605C57.8181 50.0736 57.5807 49.7076 56.8116 49.7076H56.0554L56.2394 47.1458H58.1162V47.7557H56.6442L56.5522 49.1112H56.9202C57.9046 49.0787 58.2946 49.686 58.2946 50.567Z" fill="#263238"/>
<path d="M68.8611 50.5345C68.8611 51.4806 68.3423 52.0825 67.6817 52.0825C66.7893 52.0825 66.2852 51.1987 66.2852 49.6426C66.2852 47.9699 66.9273 47.0725 67.8583 47.0725C68.1462 47.0574 68.4316 47.1567 68.6845 47.3599L68.5005 47.9021C68.3081 47.7353 68.0869 47.6543 67.8639 47.669C67.1886 47.669 66.7599 48.2925 66.7599 49.5179C66.7572 49.5765 66.7572 49.6354 66.7599 49.6941C66.8701 49.4781 67.0152 49.306 67.1819 49.1934C67.3486 49.0807 67.5318 49.0311 67.7148 49.0489C68.3827 49.0489 68.8611 49.6317 68.8611 50.5345ZM68.3993 50.5616C68.3993 49.9869 68.1049 49.6182 67.6394 49.6182C67.1739 49.6182 66.8739 50.0248 66.8739 50.567C66.8739 51.1092 67.1499 51.5132 67.6633 51.5132C68.0957 51.5159 68.3993 51.1445 68.3993 50.567V50.5616Z" fill="#263238"/>
<path d="M78.9892 47.124V47.6012L77.6442 52.0255H77.1401L78.4556 47.734H76.9358V48.6096H76.4795V47.124H78.9892Z" fill="#263238"/>
<path d="M17.3287 63.5797C17.3287 64.4689 16.8154 65.0219 16.0021 65.0219C15.1888 65.0219 14.6847 64.4797 14.6847 63.5797C14.6817 63.3154 14.7372 63.0568 14.8427 62.8431C14.9483 62.6293 15.0982 62.472 15.2698 62.395C15.1284 62.3095 15.008 62.1625 14.9248 61.9736C14.8417 61.7846 14.7996 61.5628 14.8043 61.3377C14.8043 60.5244 15.2845 60.0093 16.0021 60.0093C16.7197 60.0093 17.2091 60.519 17.2091 61.3377C17.2131 61.5636 17.1702 61.786 17.086 61.975C17.0018 62.1639 16.8804 62.3105 16.7381 62.395C16.9106 62.471 17.0616 62.6278 17.1681 62.8415C17.2747 63.0553 17.3311 63.3144 17.3287 63.5797ZM16.8522 63.558C16.8522 63.0158 16.5302 62.6823 16.0021 62.6823C15.474 62.6823 15.1612 63.0185 15.1612 63.558C15.1612 64.0975 15.474 64.4553 16.0021 64.4553C16.5302 64.4553 16.8522 64.1002 16.8522 63.5471V63.558ZM15.2753 61.3675C15.2753 61.85 15.5458 62.151 16.0021 62.151C16.4584 62.151 16.7381 61.85 16.7381 61.3675C16.7381 60.8849 16.4437 60.5759 16.0021 60.5759C15.5605 60.5759 15.2753 60.8687 15.2753 61.3566V61.3675Z" fill="#263238"/>
<path d="M27.5238 62.4411C27.5238 64.1138 26.8817 65.0112 25.9488 65.0112C25.6608 65.0276 25.3752 64.9283 25.1226 64.7238L25.3066 64.1816C25.5013 64.3476 25.7242 64.4276 25.9488 64.412C26.6241 64.412 27.0528 63.7885 27.0528 62.5631V62.3869C26.942 62.6041 26.796 62.7769 26.6283 62.8896C26.4605 63.0023 26.2762 63.0513 26.0923 63.0321C25.4318 63.0321 24.957 62.452 24.957 61.5465C24.957 60.641 25.4704 60.0012 26.1309 60.0012C27.0197 59.9985 27.5238 60.8687 27.5238 62.4411ZM26.9387 61.5113C26.9387 61.007 26.6627 60.5651 26.1438 60.5651C25.7114 60.5651 25.4078 60.9365 25.4078 61.5167C25.4078 62.0968 25.6967 62.4628 26.1622 62.4628C26.6277 62.4628 26.9387 62.048 26.9387 61.5113Z" fill="#263238"/>
<path d="M36.1837 60.0554V64.9596H35.7145V60.6627H34.9619V60.0554H36.1837Z" fill="#263238"/>
<path d="M36.9199 62.4952C36.9199 60.8984 37.4995 59.9902 38.2778 59.9902C39.0561 59.9902 39.6339 60.8984 39.6339 62.4952C39.6339 64.092 39.0525 65.0029 38.2778 65.0029C37.5032 65.0029 36.9199 64.1001 36.9199 62.4952ZM39.1573 62.4952C39.1573 61.2427 38.7894 60.611 38.2778 60.611C37.7663 60.611 37.3946 61.2427 37.3946 62.4952C37.3946 63.7477 37.7626 64.3929 38.2778 64.3929C38.793 64.3929 39.15 63.7585 39.15 62.4952H39.1573Z" fill="#263238"/>
<path d="M46.7481 60.0554V64.9596H46.2789V60.6627H45.5264V60.0554H46.7481Z" fill="#263238"/>
<path d="M48.5118 60.0554V64.9596H48.0408V60.6627H47.29V60.0554H48.5118Z" fill="#263238"/>
<path d="M56.9913 60.0554V64.9596H56.5202V60.6627H55.7695V60.0554H56.9913Z" fill="#263238"/>
<path d="M60.0571 64.347V64.957H57.6651V64.4799L59.0193 62.5523C59.3708 62.0481 59.437 61.739 59.437 61.4327C59.437 60.9285 59.196 60.6194 58.7286 60.6194C58.5681 60.6072 58.4079 60.6498 58.2605 60.7439C58.113 60.8379 57.9823 60.9809 57.8785 61.1616L57.5547 60.7468C57.7078 60.4981 57.8965 60.3026 58.1071 60.1746C58.3178 60.0466 58.5452 59.9893 58.7728 60.0067C59.4664 60.0067 59.9136 60.5299 59.9136 61.3622C59.9136 61.8394 59.8179 62.2677 59.3616 62.9048L58.344 64.347H60.0571Z" fill="#263238"/>
<path d="M67.3166 60.0554V64.9596H66.8474V60.6627H66.0967V60.0554H67.3166Z" fill="#263238"/>
<path d="M70.3201 63.5119C70.3201 64.3388 69.9062 65.0111 69.0616 65.0111C68.6197 65.0308 68.1871 64.8206 67.8398 64.4174L68.057 63.8752C68.3374 64.2241 68.6946 64.4101 69.0616 64.3984C69.5602 64.3984 69.8454 64.0623 69.8454 63.5309C69.8454 62.9996 69.5934 62.677 69.023 62.677H68.7506V62.1863L69.5878 60.6735H67.9852V60.0554H70.1822V60.5326L69.3118 62.1158C69.9834 62.2025 70.3201 62.7664 70.3201 63.5119Z" fill="#263238"/>
<path d="M77.5958 60.0554V64.9596H77.1247V60.6627H76.374V60.0554H77.5958Z" fill="#263238"/>
<path d="M81.2171 63.7505H80.586V64.9569H80.1242V63.7505H78.2842V63.2598L79.9751 60.0554H80.4885L78.8583 63.1514H80.137V62.086H80.5842V63.1514H81.2153L81.2171 63.7505Z" fill="#263238"/>
<path d="M15.7354 74.3235V79.2277H15.2644V74.9335H14.5137V74.3235H15.7354Z" fill="#263238"/>
<path d="M18.7976 77.7555C18.7976 78.604 18.3891 79.2818 17.5372 79.2818C17.0956 79.2982 16.6638 79.0884 16.3154 78.6881L16.5344 78.1459C16.8132 78.4933 17.1684 78.6793 17.5335 78.6691C18.0377 78.6691 18.3229 78.3275 18.3229 77.7935C18.3229 77.2594 18.0837 76.8988 17.3145 76.8988H16.5583L16.7423 74.3342H18.6191V74.9442H17.1471L17.0569 76.2997H17.4249C18.4075 76.278 18.7976 76.888 18.7976 77.7555Z" fill="#263238"/>
<path d="M26.0782 74.3235V79.2277H25.6072V74.9335H24.8564V74.3235H26.0782Z" fill="#263238"/>
<path d="M29.3758 77.734C29.3758 78.6801 28.8569 79.2819 28.1964 79.2819C27.3021 79.2819 26.7998 78.4009 26.7998 76.842C26.7998 75.1667 27.4401 74.272 28.373 74.272C28.661 74.2556 28.9466 74.3549 29.1992 74.5594L29.0152 75.1016C28.8225 74.9357 28.6014 74.8556 28.3785 74.8711C27.7032 74.8711 27.2745 75.4947 27.2745 76.7201C27.2745 76.7743 27.2745 76.8312 27.2745 76.8935C27.3852 76.6777 27.5306 76.5059 27.6977 76.3937C27.8647 76.2815 28.0481 76.2325 28.2313 76.251C28.9029 76.251 29.3758 76.8312 29.3758 77.734ZM28.9139 77.7638C28.9139 77.1891 28.6196 76.8176 28.154 76.8176C27.6885 76.8176 27.3886 77.2297 27.3886 77.7692C27.3886 78.3087 27.6646 78.7153 28.178 78.7153C28.6177 78.7153 28.9213 78.3439 28.9213 77.7638H28.9139Z" fill="#263238"/>
<path d="M36.1837 74.3235V79.2277H35.7145V74.9335H34.9619V74.3235H36.1837Z" fill="white"/>
<path d="M39.3363 74.3235V74.8006L37.9912 79.2277H37.4871L38.8045 74.9335H37.2884V75.8091H36.832V74.3235H39.3363Z" fill="white"/>
<path d="M46.7481 74.3235V79.2277H46.2789V74.9335H45.5264V74.3235H46.7481Z" fill="white"/>
<path d="M50.1012 77.8397C50.1012 78.7289 49.5879 79.2819 48.7746 79.2819C47.9613 79.2819 47.4572 78.7397 47.4572 77.8397C47.454 77.5756 47.5094 77.3173 47.615 77.1039C47.7206 76.8905 47.8707 76.7338 48.0423 76.6577C47.9009 76.5714 47.7806 76.4238 47.6975 76.2345C47.6143 76.0452 47.5722 75.8231 47.5768 75.5977C47.5768 74.7844 48.057 74.2693 48.7746 74.2693C49.4922 74.2693 49.9816 74.779 49.9816 75.5977C49.9855 75.8239 49.9425 76.0466 49.8583 76.2359C49.7742 76.4253 49.6529 76.5724 49.5106 76.6577C49.6829 76.7332 49.8338 76.8894 49.9404 77.1028C50.047 77.3161 50.1035 77.5748 50.1012 77.8397ZM49.6247 77.818C49.6247 77.2758 49.3027 76.9423 48.7746 76.9423C48.2465 76.9423 47.9337 77.2785 47.9337 77.818C47.9337 78.3575 48.2465 78.7153 48.7746 78.7153C49.3027 78.7153 49.6247 78.371 49.6247 77.818V77.818ZM48.0478 75.6275C48.0478 76.1101 48.3183 76.411 48.7746 76.411C49.2309 76.411 49.5106 76.1101 49.5106 75.6275C49.5106 75.1449 49.2162 74.8359 48.7746 74.8359C48.333 74.8359 48.0478 75.1368 48.0478 75.6275V75.6275Z" fill="white"/>
<path d="M56.9913 74.3235V79.2277H56.5202V74.9335H55.7695V74.3235H56.9913Z" fill="white"/>
<path d="M60.1958 76.7119C60.1958 78.3873 59.5536 79.2819 58.6226 79.2819C58.3346 79.2984 58.049 79.199 57.7965 78.9945L57.9805 78.4523C58.175 78.6186 58.398 78.6986 58.6226 78.6828C59.2961 78.6828 59.7266 78.0592 59.7266 76.8339V76.6604C59.6156 76.877 59.4696 77.0493 59.3018 77.1616C59.1341 77.2738 58.9499 77.3224 58.7661 77.3029C58.1056 77.3029 57.6309 76.7227 57.6309 75.82C57.6309 74.8738 58.1442 74.272 58.8048 74.272C59.6916 74.2693 60.1958 75.1503 60.1958 76.7119ZM59.6107 75.7793C59.6107 75.275 59.3365 74.8332 58.8177 74.8332C58.3853 74.8332 58.0817 75.2046 58.0817 75.7847C58.0817 76.3649 58.3724 76.7309 58.8379 76.7309C59.3034 76.7309 59.6107 76.3215 59.6107 75.7793Z" fill="white"/>
<path d="M68.6245 78.6176V79.2276H66.2325V78.7613L67.5867 76.8365C67.9381 76.3322 68.0044 76.0232 68.0044 75.7141C68.0044 75.2099 67.7615 74.9008 67.296 74.9008C67.1355 74.8889 66.9754 74.9316 66.828 75.0256C66.6805 75.1196 66.5498 75.2625 66.4459 75.443L66.1221 75.0283C66.2749 74.7797 66.4633 74.5844 66.6736 74.4564C66.884 74.3284 67.111 74.2709 67.3383 74.2881C68.0338 74.2881 68.4791 74.8114 68.4791 75.6436C68.4791 76.1208 68.3853 76.5491 67.9271 77.1862L66.9114 78.6176H68.6245Z" fill="white"/>
<path d="M69 76.7743C69 75.1775 69.5796 74.2693 70.3597 74.2693C71.1399 74.2693 71.714 75.1775 71.714 76.7743C71.714 78.371 71.1344 79.2819 70.3597 79.2819C69.5851 79.2819 69 78.371 69 76.7743ZM71.2393 76.7743C71.2393 75.5218 70.8713 74.8928 70.3597 74.8928C69.8482 74.8928 69.4747 75.5218 69.4747 76.7743C69.4747 78.0267 69.8427 78.6584 70.3597 78.6584C70.8768 78.6584 71.2393 78.0294 71.2393 76.7743V76.7743Z" fill="white"/>
<path d="M78.9028 78.6177V79.2277H76.5108V78.7614L77.865 76.8366C78.2165 76.3323 78.2827 76.0233 78.2827 75.7142C78.2827 75.21 78.0417 74.9009 77.5761 74.9009C77.4154 74.8889 77.255 74.9316 77.1073 75.0256C76.9595 75.1196 76.8285 75.2625 76.7242 75.4431L76.4004 75.0283C76.5535 74.7796 76.7422 74.5841 76.9528 74.4561C77.1635 74.3281 77.3909 74.2708 77.6185 74.2882C78.3121 74.2882 78.7593 74.8114 78.7593 75.6437C78.7593 76.1209 78.6636 76.5492 78.2073 77.1863L77.1897 78.6285L78.9028 78.6177Z" fill="white"/>
<path d="M80.3243 74.3235V79.2277H79.8533V74.9335H79.1025V74.3235H80.3243Z" fill="white"/>
<path d="M17.0474 92.7555V93.3655H14.6554V92.8884L16.0097 90.9636C16.3629 90.4593 16.4292 90.1503 16.4292 89.8412C16.4292 89.337 16.1863 89.0279 15.7208 89.0279C15.5601 89.0161 15.3997 89.0589 15.252 89.1529C15.1043 89.2469 14.9732 89.3897 14.8689 89.5701L14.5469 89.158C14.6995 88.909 14.8878 88.7132 15.0982 88.5847C15.3085 88.4562 15.5357 88.3983 15.7631 88.4152C16.4568 88.4152 16.9039 88.9412 16.9039 89.7707C16.9039 90.2451 16.8082 90.6735 16.3519 91.3106L15.3344 92.7528L17.0474 92.7555Z" fill="white"/>
<path d="M19.772 92.7557V93.3656H17.38V92.8885L18.7343 90.9637C19.0876 90.4594 19.1538 90.1504 19.1538 89.8413C19.1538 89.3371 18.9109 89.028 18.4454 89.028C18.2847 89.0161 18.1243 89.0587 17.9765 89.1528C17.8288 89.2468 17.6977 89.3896 17.5935 89.5702L17.2715 89.1582C17.4239 88.9088 17.6122 88.7128 17.8226 88.5843C18.033 88.4558 18.2603 88.3981 18.4877 88.4153C19.1814 88.4153 19.6285 88.9413 19.6285 89.7708C19.6285 90.2453 19.5328 90.6736 19.0765 91.3107L18.059 92.7529L19.772 92.7557Z" fill="white"/>
<path d="M27.3863 92.7555V93.3655H24.9943V92.8884L26.3485 90.9636C26.7018 90.4593 26.768 90.1503 26.768 89.8412C26.768 89.337 26.5252 89.0279 26.0597 89.0279C25.899 89.0161 25.7386 89.0589 25.5909 89.1529C25.4432 89.2469 25.3121 89.3897 25.2077 89.5701L24.8857 89.158C25.0384 88.909 25.2267 88.7132 25.437 88.5847C25.6474 88.4562 25.8745 88.3983 26.102 88.4152C26.7956 88.4152 27.2428 88.9412 27.2428 89.7707C27.2428 90.2451 27.1471 90.6735 26.6908 91.3106L25.6733 92.7528L27.3863 92.7555Z" fill="white"/>
<path d="M30.0525 91.9232C30.0525 92.7501 29.6385 93.4224 28.7921 93.4224C28.35 93.4404 27.9176 93.2293 27.5703 92.826L27.7893 92.2838C28.069 92.633 28.4255 92.82 28.7921 92.8097C29.2925 92.8097 29.5777 92.4736 29.5777 91.9395C29.5777 91.4054 29.3257 91.0855 28.7553 91.0855H28.4885V90.5949L29.3257 89.0821H27.7194V88.4749H29.9273V88.9493L29.057 90.5325C29.7157 90.6138 30.0525 91.1669 30.0525 91.9232Z" fill="white"/>
<path d="M37.4918 92.7555V93.3655H35.0998V92.8884L36.4558 90.9636C36.8073 90.4593 36.8735 90.1503 36.8735 89.8412C36.8735 89.337 36.6306 89.0279 36.1651 89.0279C36.0047 89.0159 35.8445 89.0586 35.6971 89.1527C35.5497 89.2467 35.4189 89.3896 35.3151 89.5701L34.9912 89.158C35.1438 88.909 35.3322 88.7132 35.5425 88.5847C35.7529 88.4562 35.98 88.3983 36.2074 88.4152C36.9011 88.4152 37.3482 88.9412 37.3482 89.7707C37.3482 90.2451 37.2544 90.6735 36.7962 91.3106L35.7787 92.7528L37.4918 92.7555Z" fill="white"/>
<path d="M40.6855 92.1619H40.0471V93.3656H39.5871V92.1619H37.7471V91.6712L39.4491 88.4641H39.9624L38.3303 91.5574H39.6183V90.4946H40.0471V91.5574H40.68L40.6855 92.1619Z" fill="white"/>
<path d="M17.0474 105.302V105.909H14.6554V105.435L16.0097 103.508C16.3629 103.003 16.4292 102.694 16.4292 102.388C16.4292 101.884 16.1863 101.575 15.7208 101.575C15.5601 101.562 15.3996 101.605 15.2518 101.699C15.1041 101.793 14.973 101.936 14.8689 102.117L14.5469 101.702C14.6995 101.453 14.8878 101.257 15.0982 101.129C15.3085 101 15.5357 100.942 15.7631 100.959C16.4568 100.959 16.9039 101.485 16.9039 102.315C16.9039 102.792 16.8082 103.217 16.3519 103.855L15.3344 105.299L17.0474 105.302Z" fill="#263238"/>
<path d="M19.9087 103.396C19.9087 105.069 19.2684 105.966 18.3355 105.966C18.0476 105.981 17.7623 105.882 17.5093 105.679L17.6933 105.137C17.888 105.303 18.1109 105.383 18.3355 105.367C19.0108 105.367 19.4395 104.744 19.4395 103.518V103.342C19.3287 103.559 19.1828 103.732 19.015 103.845C18.8472 103.957 18.663 104.006 18.479 103.987C17.8185 103.987 17.3438 103.407 17.3438 102.502C17.3438 101.596 17.8571 100.954 18.5177 100.954C19.4064 100.951 19.9087 101.835 19.9087 103.396ZM19.3254 102.464C19.3254 101.959 19.0494 101.52 18.5305 101.52C18.0981 101.52 17.7945 101.892 17.7945 102.472C17.7945 103.052 18.0853 103.418 18.5508 103.418C19.0163 103.418 19.3254 103.003 19.3254 102.464V102.464Z" fill="#263238"/>
<path d="M27.3241 104.467C27.3241 105.294 26.9101 105.966 26.0637 105.966C25.6221 105.985 25.1902 105.773 24.8438 105.37L25.0609 104.828C25.3401 105.178 25.697 105.365 26.0637 105.353C26.5641 105.353 26.8493 105.017 26.8493 104.486C26.8493 103.955 26.5973 103.632 26.0269 103.632H25.7601V103.141L26.5973 101.629H24.9946V101.019H27.1916V101.496L26.3213 103.079C26.9837 103.16 27.3241 103.702 27.3241 104.467Z" fill="#263238"/>
<path d="M27.7656 103.458C27.7656 101.862 28.3471 100.951 29.1254 100.951C29.9037 100.951 30.4796 101.862 30.4796 103.458C30.4796 105.055 29.9 105.966 29.1254 105.966C28.3507 105.966 27.7656 105.058 27.7656 103.458ZM30.0049 103.458C30.0049 102.206 29.6369 101.561 29.1254 101.561C28.6139 101.561 28.2422 102.192 28.2422 103.458C28.2422 104.724 28.6102 105.342 29.1254 105.342C29.6406 105.342 30.0049 104.714 30.0049 103.458Z" fill="#263238"/>
<path d="M37.4285 104.467C37.4285 105.294 37.0145 105.966 36.17 105.966C35.7278 105.985 35.2953 105.774 34.9482 105.37L35.1654 104.828C35.4452 105.178 35.8027 105.365 36.17 105.353C36.6686 105.353 36.9538 105.017 36.9538 104.486C36.9538 103.955 36.7017 103.632 36.1314 103.632H35.8646V103.141L36.7018 101.629H35.0991V101.019H37.2961V101.496L36.4258 103.079C37.0918 103.16 37.4285 103.702 37.4285 104.467Z" fill="#263238"/>
<path d="M38.9034 101.008V105.909H38.4324V101.618H37.6816V101.008H38.9034Z" fill="#263238"/>
<path d="M48.0572 92.7555V93.3655H45.6652V92.8884L47.0213 90.9636C47.3727 90.4593 47.439 90.1503 47.439 89.8412C47.439 89.337 47.1961 89.0279 46.7306 89.0279C46.5701 89.0159 46.4099 89.0586 46.2625 89.1527C46.1151 89.2467 45.9844 89.3896 45.8805 89.5701L45.5566 89.158C45.7093 88.909 45.8976 88.7132 46.1079 88.5847C46.3183 88.4562 46.5454 88.3983 46.7729 88.4152C47.4665 88.4152 47.9137 88.9412 47.9137 89.7707C47.9137 90.2451 47.818 90.6735 47.3617 91.3106L46.3442 92.7528L48.0572 92.7555Z" fill="#263238"/>
<path d="M50.7801 91.8934C50.7801 92.742 50.3716 93.4224 49.5197 93.4224C49.0784 93.4381 48.6472 93.2273 48.2998 92.826L48.5169 92.2838C48.7956 92.632 49.1507 92.8189 49.516 92.8097C50.0202 92.8097 50.3054 92.4654 50.3054 91.9341C50.3054 91.4027 50.068 91.0367 49.2971 91.0367H48.5408L48.7248 88.4749H50.6016V89.0631H49.1296L49.0395 90.4186H49.4075C50.39 90.4186 50.7801 91.0259 50.7801 91.8934Z" fill="#263238"/>
<path d="M58.2984 92.7557V93.3656H55.9064V92.8885L57.2606 90.9637C57.6121 90.4594 57.6802 90.1504 57.6802 89.8413C57.6802 89.3371 57.4373 89.028 56.9718 89.028C56.811 89.0161 56.6506 89.0587 56.5029 89.1528C56.3552 89.2468 56.2241 89.3896 56.1198 89.5702L55.7979 89.1582C55.9503 88.9088 56.1386 88.7128 56.349 88.5843C56.5594 88.4558 56.7866 88.3981 57.0141 88.4153C57.7078 88.4153 58.1549 88.9413 58.1549 89.7708C58.1549 90.2453 58.0592 90.6736 57.6029 91.3107L56.5854 92.7529L58.2984 92.7557Z" fill="#263238"/>
<path d="M61.2508 91.8746C61.2508 92.818 60.7319 93.4226 60.0714 93.4226C59.1771 93.4226 58.6748 92.5388 58.6748 90.9827C58.6748 89.31 59.3151 88.4126 60.248 88.4126C60.536 88.3962 60.8216 88.4955 61.0742 88.7L60.8902 89.2422C60.6975 89.0763 60.4764 88.9963 60.2535 89.0118C59.5782 89.0118 59.1495 89.6353 59.1495 90.8607C59.1469 90.9193 59.1469 90.9782 59.1495 91.0369C59.2598 90.8209 59.4048 90.6488 59.5716 90.5362C59.7383 90.4235 59.9215 90.3739 60.1045 90.3917C60.7706 90.389 61.2508 90.961 61.2508 91.8746ZM60.789 91.9017C60.789 91.327 60.4946 90.9556 60.029 90.9556C59.5635 90.9556 59.2636 91.3703 59.2636 91.9098C59.2636 92.4493 59.5396 92.8533 60.053 92.8533C60.4854 92.8587 60.789 92.4819 60.789 91.9017Z" fill="#263238"/>
<path d="M68.6245 92.7557V93.3657H66.2325V92.8886L67.5867 90.9638C67.9381 90.4595 68.0044 90.1504 68.0044 89.8414C68.0044 89.3371 67.7615 89.0281 67.296 89.0281C67.1355 89.0161 66.9754 89.0588 66.828 89.1529C66.6805 89.2469 66.5498 89.3897 66.4459 89.5703L66.1221 89.1582C66.2748 88.9094 66.4631 88.7136 66.6734 88.5851C66.8838 88.4567 67.1109 88.3987 67.3383 88.4154C68.0338 88.4154 68.4791 88.9413 68.4791 89.7709C68.4791 90.2453 68.3853 90.6737 67.9271 91.3108L66.9114 92.7557H68.6245Z" fill="#263238"/>
<path d="M71.4258 88.4639V88.9384L70.0807 93.3654H69.5766L70.8922 89.0631H69.3723V89.9387H68.916V88.4558L71.4258 88.4639Z" fill="#263238"/>
<path d="M78.9019 92.7557V93.3656H76.5099V92.8885L77.8642 90.9637C78.2156 90.4594 78.2837 90.1504 78.2837 89.8413C78.2837 89.3371 78.0408 89.028 77.5753 89.028C77.4146 89.0161 77.2541 89.0587 77.1064 89.1528C76.9587 89.2468 76.8276 89.3896 76.7234 89.5702L76.4014 89.1582C76.5538 88.9088 76.7421 88.7128 76.9525 88.5843C77.1629 88.4558 77.3901 88.3981 77.6176 88.4153C78.3113 88.4153 78.7584 88.9413 78.7584 89.7708C78.7584 90.2453 78.6627 90.6736 78.2064 91.3107L77.1889 92.7529L78.9019 92.7557Z" fill="#263238"/>
<path d="M81.9167 91.9774C81.9167 92.8666 81.4034 93.4223 80.5919 93.4223C79.7805 93.4223 79.2745 92.8666 79.2745 91.9774C79.2716 91.7134 79.3272 91.4553 79.4327 91.242C79.5383 91.0287 79.6882 90.8719 79.8596 90.7954C79.7182 90.7099 79.5979 90.5629 79.5147 90.374C79.4315 90.185 79.3894 89.9632 79.3941 89.7381C79.3941 88.9248 79.8725 88.407 80.5919 88.407C81.3114 88.407 81.799 88.9167 81.799 89.7381C81.8022 89.9638 81.7589 90.1857 81.6748 90.3744C81.5907 90.5632 81.4698 90.7099 81.3279 90.7954C81.4999 90.8714 81.6504 91.0278 81.7567 91.2411C81.8629 91.4544 81.9191 91.7128 81.9167 91.9774V91.9774ZM81.442 91.9584C81.442 91.4162 81.1182 91.0827 80.5919 91.0827C80.0657 91.0827 79.7492 91.4189 79.7492 91.9584C79.7492 92.4979 80.0639 92.853 80.5919 92.853C81.12 92.853 81.4475 92.5114 81.4475 91.9584H81.442ZM79.8633 89.7652C79.8633 90.2478 80.1338 90.5487 80.5993 90.5487C81.0648 90.5487 81.3353 90.2478 81.3353 89.7652C81.3353 89.2826 81.0409 88.9736 80.5993 88.9736C80.1577 88.9736 79.8633 89.2745 79.8633 89.7652V89.7652Z" fill="#263238"/>
<path d="M21.0289 24.5416C20.8968 24.5419 20.766 24.5039 20.6439 24.4297C20.5218 24.3554 20.4108 24.2465 20.3174 24.109C20.2239 23.9715 20.1497 23.8082 20.0991 23.6284C20.0485 23.4487 20.0225 23.256 20.0225 23.0614V15.7688C20.0229 15.376 20.1292 14.9995 20.3179 14.722C20.5066 14.4444 20.7623 14.2886 21.0289 14.2886V14.2886C21.2952 14.2893 21.5505 14.4455 21.7388 14.7229C21.9271 15.0003 22.0331 15.3764 22.0336 15.7688V23.0614C22.0336 23.4539 21.9277 23.8304 21.7393 24.108C21.5509 24.3856 21.2954 24.5416 21.0289 24.5416V24.5416Z" fill="#E0E0E0"/>
<path d="M21.0293 24.5413C21.0293 24.5413 21.0863 24.5413 21.1912 24.5061C21.3886 24.4526 21.5703 24.3124 21.7125 24.1038C21.8547 23.8953 21.9507 23.6282 21.9879 23.3377C22.0071 23.1129 22.012 22.886 22.0026 22.6599C22.0026 22.4159 22.0026 22.1584 22.0026 21.89C22.0026 20.8056 22.0026 19.5179 21.9916 18.0946C21.9916 17.3816 21.9916 16.6306 21.9916 15.8526C21.9972 15.6637 21.9775 15.475 21.9336 15.2973C21.8898 15.1196 21.8225 14.9564 21.7358 14.817C21.6464 14.6737 21.5378 14.5593 21.4168 14.4811C21.2958 14.4029 21.1651 14.3625 21.033 14.3625C20.9008 14.3625 20.7702 14.4029 20.6492 14.4811C20.5282 14.5593 20.4195 14.6737 20.3301 14.817C20.1549 15.0995 20.0629 15.473 20.0743 15.8553C20.0743 16.6334 20.0743 17.3843 20.0743 18.0973C20.0743 19.5233 20.0743 20.8083 20.0743 21.8927C20.0743 22.1638 20.0743 22.4186 20.0743 22.6626C20.0659 22.8887 20.0708 23.1155 20.0891 23.3404C20.1261 23.6314 20.2223 23.899 20.365 24.1076C20.5076 24.3163 20.6898 24.4562 20.8876 24.5088C20.9925 24.5413 21.0495 24.5359 21.0495 24.544C20.9946 24.556 20.9388 24.556 20.8839 24.544C20.7239 24.508 20.5723 24.415 20.4423 24.2729C20.2327 24.0523 20.0875 23.723 20.0357 23.3512C20.0072 23.1177 19.9925 22.8809 19.9915 22.6436C19.9915 22.3997 19.9915 22.1421 19.9915 21.8737C19.9915 20.7893 19.9915 19.5016 19.9805 18.0783C19.9805 17.3653 19.9805 16.6144 19.9805 15.8363C19.9682 15.4189 20.0688 15.0114 20.2602 14.7031C20.3586 14.5457 20.478 14.4201 20.6111 14.3342C20.7441 14.2482 20.8877 14.2039 21.033 14.2039C21.1782 14.2039 21.3219 14.2482 21.4549 14.3342C21.5879 14.4201 21.7074 14.5457 21.8058 14.7031C21.9964 15.012 22.0969 15.4191 22.0854 15.8363C22.0854 16.6144 22.0854 17.3653 22.0854 18.0783C22.0854 19.5043 22.0854 20.7893 22.0744 21.8737C22.0744 22.1448 22.0744 22.3997 22.0744 22.6436C22.0797 22.8756 22.0717 23.1077 22.0505 23.3377C21.9994 23.7099 21.854 24.0395 21.6438 24.2594C21.5143 24.4009 21.3634 24.4939 21.2041 24.5305C21.1466 24.5474 21.0876 24.5511 21.0293 24.5413V24.5413Z" fill="#263238"/>
<path d="M34.8181 24.5416C34.6861 24.5419 34.5554 24.5039 34.4334 24.4296C34.3114 24.3554 34.2005 24.2463 34.1072 24.1088C34.0138 23.9713 33.9399 23.808 33.8895 23.6282C33.8391 23.4485 33.8132 23.2558 33.8135 23.0614V15.7688C33.8135 15.3762 33.9193 14.9997 34.1077 14.7221C34.2961 14.4445 34.5517 14.2886 34.8181 14.2886C35.0846 14.2886 35.3401 14.4445 35.5285 14.7221C35.7169 14.9997 35.8227 15.3762 35.8227 15.7688V23.0614C35.823 23.2558 35.7972 23.4485 35.7468 23.6282C35.6964 23.808 35.6224 23.9713 35.529 24.1088C35.4357 24.2463 35.3249 24.3554 35.2029 24.4296C35.0809 24.5039 34.9501 24.5419 34.8181 24.5416V24.5416Z" fill="#E0E0E0"/>
<path d="M34.818 24.5413C34.818 24.5413 34.8751 24.5413 34.98 24.5061C35.1774 24.4524 35.3593 24.3122 35.5018 24.1037C35.6443 23.8952 35.7407 23.6282 35.7785 23.3377C35.7958 23.1127 35.8008 22.886 35.7932 22.6599C35.7932 22.4159 35.7932 22.1584 35.7932 21.89C35.7932 20.8056 35.7932 19.5179 35.7822 18.0946C35.7822 17.3816 35.7822 16.6306 35.7822 15.8526C35.7878 15.6637 35.7681 15.475 35.7242 15.2973C35.6804 15.1196 35.6131 14.9564 35.5264 14.817C35.4373 14.6731 35.3287 14.5583 35.2076 14.4799C35.0866 14.4015 34.9558 14.3612 34.8236 14.3615C34.6916 14.3618 34.561 14.4021 34.4401 14.48C34.3192 14.5579 34.2105 14.6717 34.1207 14.8143C33.9455 15.0968 33.8535 15.4702 33.8649 15.8526C33.8649 16.6306 33.8649 17.3816 33.8649 18.0946C33.8649 19.5206 33.8649 20.8056 33.8539 21.89C33.8539 22.1611 33.8539 22.4159 33.8539 22.6599C33.8464 22.886 33.8513 23.1127 33.8686 23.3377C33.9064 23.6282 34.0029 23.8952 34.1453 24.1037C34.2878 24.3122 34.4697 24.4524 34.6672 24.5061C34.772 24.5386 34.8291 24.5332 34.8291 24.5413C34.7742 24.5533 34.7184 24.5533 34.6635 24.5413C34.504 24.5056 34.353 24.4125 34.2237 24.2702C34.013 24.0511 33.8675 23.7212 33.8171 23.3485C33.7939 23.1152 33.7853 22.8793 33.7913 22.6436C33.7913 22.3996 33.7913 22.1421 33.7913 21.8737C33.7913 20.7893 33.7913 19.5016 33.7821 18.0783C33.7821 17.3653 33.7821 16.6144 33.7821 15.8363C33.7707 15.4191 33.8711 15.012 34.0618 14.7031C34.1602 14.5457 34.2797 14.4201 34.4127 14.3342C34.5457 14.2482 34.6894 14.2039 34.8346 14.2039C34.9798 14.2039 35.1235 14.2482 35.2565 14.3342C35.3895 14.4201 35.509 14.5457 35.6074 14.7031C35.7988 15.0114 35.8994 15.4189 35.8871 15.8363C35.8871 16.6144 35.8871 17.3653 35.8871 18.0783C35.8871 19.5043 35.8871 20.7893 35.8871 21.8737C35.8871 22.1448 35.8871 22.3996 35.8871 22.6436C35.8933 22.8756 35.8853 23.1078 35.8632 23.3377C35.8128 23.7103 35.6672 24.0403 35.4565 24.2594C35.3273 24.4017 35.1763 24.4948 35.0168 24.5305C34.9515 24.5513 34.8842 24.555 34.818 24.5413V24.5413Z" fill="#263238"/>
<path d="M48.6072 24.5416C48.3407 24.5416 48.0852 24.3856 47.8968 24.108C47.7084 23.8304 47.6025 23.4539 47.6025 23.0614V15.7688C47.603 15.3764 47.709 15.0003 47.8973 14.7229C48.0856 14.4455 48.3409 14.2893 48.6072 14.2886C48.8738 14.2886 49.1295 14.4444 49.3182 14.722C49.5069 14.9995 49.6132 15.376 49.6136 15.7688V23.0614C49.6136 23.256 49.5876 23.4487 49.537 23.6284C49.4864 23.8082 49.4122 23.9715 49.3187 24.109C49.2253 24.2465 49.1143 24.3554 48.9922 24.4297C48.8701 24.5039 48.7393 24.5419 48.6072 24.5416V24.5416Z" fill="#E0E0E0"/>
<path d="M48.6061 24.5414C48.6061 24.5414 48.6632 24.5414 48.7699 24.5062C48.9672 24.4527 49.149 24.3125 49.2912 24.1039C49.4334 23.8954 49.5294 23.6282 49.5666 23.3377C49.5848 23.1129 49.5898 22.8861 49.5813 22.66C49.5813 22.416 49.5813 22.1584 49.5813 21.8901C49.5813 20.8057 49.5813 19.5179 49.5721 18.0947C49.5721 17.3817 49.5721 16.6307 49.5721 15.8527C49.5778 15.6638 49.5581 15.4751 49.5142 15.2974C49.4703 15.1197 49.4031 14.9565 49.3164 14.8171C49.2271 14.6739 49.1186 14.5595 48.9978 14.4813C48.8769 14.4031 48.7464 14.3627 48.6144 14.3627C48.4824 14.3627 48.3519 14.4031 48.2311 14.4813C48.1102 14.5595 48.0017 14.6739 47.9125 14.8171C47.8251 14.9565 47.7574 15.12 47.7132 15.2983C47.669 15.4765 47.6491 15.6658 47.6549 15.8554C47.6549 16.6334 47.6549 17.3844 47.6549 18.0974C47.6549 19.5234 47.6549 20.8084 47.6438 21.8928C47.6438 22.1639 47.6438 22.4187 47.6438 22.6627C47.6345 22.8888 47.6394 23.1157 47.6585 23.3404C47.6957 23.631 47.7918 23.8981 47.934 24.1066C48.0762 24.3152 48.2579 24.4554 48.4553 24.5089C48.5601 24.5414 48.619 24.536 48.6172 24.5441C48.5623 24.5561 48.5065 24.5561 48.4516 24.5441C48.2923 24.5076 48.1413 24.4145 48.0118 24.273C47.8017 24.0531 47.6563 23.7235 47.6052 23.3513C47.584 23.1213 47.576 22.8892 47.5813 22.6573C47.5813 22.4133 47.5813 22.1557 47.5813 21.8873C47.5813 20.8029 47.5813 19.5152 47.5702 18.0919C47.5702 17.379 47.5702 16.628 47.5702 15.85C47.5587 15.4322 47.6599 15.0248 47.8517 14.7168C47.9986 14.483 48.1908 14.3215 48.4022 14.2543C48.6136 14.1872 48.8339 14.2176 49.0331 14.3414C49.2324 14.4652 49.4009 14.6764 49.5158 14.9464C49.6306 15.2163 49.6863 15.5318 49.6752 15.85C49.6752 16.628 49.6752 17.379 49.6752 18.0919C49.6752 19.5179 49.6752 20.8029 49.6641 21.8873C49.6641 22.1584 49.6641 22.4133 49.6641 22.6573C49.67 22.8891 49.6626 23.1213 49.6421 23.3513C49.591 23.7235 49.4456 24.0531 49.2354 24.273C49.1054 24.415 48.9538 24.5081 48.7938 24.5441C48.7316 24.5585 48.6682 24.5576 48.6061 24.5414V24.5414Z" fill="#263238"/>
<path d="M62.3981 24.5416C62.266 24.5419 62.1352 24.5039 62.0131 24.4297C61.891 24.3554 61.78 24.2465 61.6865 24.109C61.593 23.9715 61.5189 23.8082 61.4682 23.6284C61.4176 23.4487 61.3916 23.256 61.3916 23.0614V15.7688C61.3921 15.376 61.4983 14.9995 61.687 14.722C61.8757 14.4444 62.1315 14.2886 62.3981 14.2886C62.6644 14.2893 62.9196 14.4455 63.1079 14.7229C63.2962 15.0003 63.4022 15.3764 63.4027 15.7688V23.0614C63.4027 23.4539 63.2969 23.8304 63.1085 24.108C62.9201 24.3856 62.6645 24.5416 62.3981 24.5416V24.5416Z" fill="#E0E0E0"/>
<path d="M62.3973 24.5415C62.3973 24.5415 62.4543 24.5415 62.5592 24.5062C62.7565 24.4528 62.9383 24.3125 63.0805 24.104C63.2227 23.8954 63.3187 23.6283 63.3559 23.3378C63.3751 23.113 63.38 22.8861 63.3706 22.66C63.3706 22.416 63.3706 22.1585 63.3706 21.8901C63.3706 20.8057 63.3706 19.518 63.3596 18.0947C63.3596 17.3817 63.3596 16.6308 63.3596 15.8527C63.3652 15.6638 63.3455 15.4751 63.3016 15.2974C63.2577 15.1197 63.1905 14.9565 63.1038 14.8171C63.0144 14.6738 62.9057 14.5594 62.7847 14.4812C62.6638 14.403 62.5331 14.3626 62.4009 14.3626C62.2688 14.3626 62.1381 14.403 62.0172 14.4812C61.8962 14.5594 61.7875 14.6738 61.6981 14.8171C61.5229 15.0996 61.4309 15.4731 61.4423 15.8554C61.4423 16.6335 61.4423 17.3844 61.4423 18.0974C61.4423 19.5234 61.4423 20.8084 61.4331 21.8928C61.4331 22.1639 61.4331 22.4187 61.4331 22.6627C61.4247 22.8889 61.4296 23.1156 61.4478 23.3405C61.485 23.631 61.5811 23.8981 61.7233 24.1067C61.8655 24.3152 62.0472 24.4555 62.2446 24.5089C62.3513 24.5415 62.4083 24.536 62.4083 24.5442C62.3534 24.5561 62.2976 24.5561 62.2427 24.5442C62.0827 24.5081 61.9311 24.4151 61.8011 24.2731C61.5915 24.0524 61.4463 23.7231 61.3945 23.3513C61.3739 23.1213 61.3665 22.8892 61.3724 22.6573C61.3724 22.4133 61.3724 22.1558 61.3724 21.8874C61.3724 20.803 61.3724 19.5153 61.3614 18.092C61.3614 17.379 61.3614 16.6281 61.3614 15.85C61.3491 15.4326 61.4497 15.0251 61.641 14.7168C61.7394 14.5594 61.8589 14.4338 61.9919 14.3478C62.1249 14.2619 62.2686 14.2175 62.4138 14.2175C62.5591 14.2175 62.7027 14.2619 62.8357 14.3478C62.9688 14.4338 63.0882 14.5594 63.1866 14.7168C63.3773 15.0257 63.4778 15.4328 63.4663 15.85C63.4663 16.6281 63.4663 17.379 63.4663 18.092C63.4663 19.518 63.4663 20.803 63.4553 21.8874C63.4553 22.1585 63.4553 22.4133 63.4553 22.6573C63.4605 22.8892 63.4525 23.1214 63.4313 23.3513C63.3803 23.7236 63.2349 24.0532 63.0247 24.2731C62.8952 24.4146 62.7443 24.5076 62.5849 24.5442C62.5227 24.5586 62.4593 24.5577 62.3973 24.5415Z" fill="#263238"/>
<path d="M76.1872 24.5416C76.0552 24.5419 75.9245 24.5039 75.8025 24.4296C75.6805 24.3554 75.5697 24.2463 75.4763 24.1088C75.383 23.9713 75.309 23.808 75.2586 23.6282C75.2082 23.4485 75.1824 23.2558 75.1826 23.0614V15.7688C75.1826 15.3762 75.2885 14.9997 75.4769 14.7221C75.6653 14.4445 75.9208 14.2886 76.1872 14.2886V14.2886C76.4537 14.2886 76.7092 14.4445 76.8976 14.7221C77.086 14.9997 77.1919 15.3762 77.1919 15.7688V23.0614C77.1921 23.2558 77.1663 23.4485 77.1159 23.6282C77.0655 23.808 76.9915 23.9713 76.8982 24.1088C76.8048 24.2463 76.694 24.3554 76.572 24.4296C76.45 24.5039 76.3192 24.5419 76.1872 24.5416V24.5416Z" fill="#E0E0E0"/>
<path d="M76.187 24.5415C76.187 24.5415 76.2441 24.5415 76.349 24.5062C76.5464 24.4526 76.7283 24.3123 76.8708 24.1038C77.0133 23.8954 77.1097 23.6284 77.1475 23.3378C77.1648 23.1128 77.1698 22.8862 77.1622 22.66C77.1622 22.4161 77.1622 22.1585 77.1622 21.8901C77.1622 20.8057 77.1622 19.518 77.1512 18.0947C77.1512 17.3817 77.1512 16.6308 77.1512 15.8527C77.1568 15.6638 77.1371 15.4751 77.0932 15.2974C77.0494 15.1198 76.9821 14.9565 76.8954 14.8171C76.8063 14.6733 76.6977 14.5585 76.5766 14.48C76.4556 14.4016 76.3248 14.3613 76.1926 14.3617C76.0606 14.3619 75.93 14.4023 75.8091 14.4802C75.6882 14.5581 75.5795 14.6719 75.4897 14.8144C75.3145 15.097 75.2225 15.4704 75.2339 15.8527C75.2339 16.6308 75.2339 17.3817 75.2339 18.0947C75.2339 19.5207 75.2339 20.8057 75.2229 21.8901C75.2229 22.1612 75.2229 22.4161 75.2229 22.66C75.2154 22.8862 75.2203 23.1128 75.2376 23.3378C75.2754 23.6284 75.3718 23.8954 75.5143 24.1038C75.6568 24.3123 75.8387 24.4526 76.0362 24.5062C76.1411 24.5388 76.1981 24.5333 76.1981 24.5415C76.1432 24.5534 76.0874 24.5534 76.0325 24.5415C75.873 24.5058 75.722 24.4127 75.5927 24.2704C75.382 24.0512 75.2365 23.7213 75.1861 23.3486C75.164 23.1188 75.156 22.8866 75.1622 22.6546C75.1622 22.4106 75.1622 22.1531 75.1622 21.8847C75.1622 20.8003 75.1622 19.5126 75.1622 18.0893C75.1622 17.3763 75.1622 16.6254 75.1622 15.8473C75.1507 15.4301 75.2512 15.023 75.4419 14.7141C75.5402 14.5567 75.6597 14.4311 75.7927 14.3451C75.9257 14.2592 76.0694 14.2148 76.2146 14.2148C76.3599 14.2148 76.5035 14.2592 76.6366 14.3451C76.7696 14.4311 76.889 14.5567 76.9874 14.7141C77.1788 15.0224 77.2794 15.4299 77.2671 15.8473C77.2671 16.6254 77.2671 17.3763 77.2671 18.0893C77.2671 19.5153 77.2671 20.8003 77.2579 21.8847C77.2579 22.1558 77.2579 22.4106 77.2579 22.6546C77.2641 22.8866 77.2561 23.1188 77.234 23.3486C77.1836 23.7213 77.0381 24.0512 76.8274 24.2704C76.6981 24.4127 76.5471 24.5058 76.3876 24.5415C76.3213 24.559 76.2534 24.559 76.187 24.5415Z" fill="#263238"/>
<path d="M2.82115 12.7244C2.76512 12.7158 2.7114 12.6869 2.66476 12.6403C2.49954 12.4937 2.36979 12.2742 2.29385 12.013C2.2179 11.7517 2.19961 11.4619 2.24156 11.1845C2.26916 11.0002 2.317 10.8185 2.33724 10.6423C2.35117 10.5517 2.3499 10.4574 2.33355 10.3677C2.3172 10.2779 2.28626 10.1954 2.2434 10.1272C2.14098 9.99709 2.02554 9.89101 1.90116 9.81276C1.77859 9.72427 1.66963 9.59972 1.581 9.44678C1.43451 9.18515 1.34647 8.86322 1.32893 8.52504C1.31541 8.2997 1.33875 8.07287 1.397 7.86356C1.41476 7.78505 1.4436 7.71298 1.48164 7.6521C1.40896 7.92611 1.38 8.22107 1.397 8.5142C1.42132 8.8271 1.50918 9.1219 1.64908 9.36003C1.73201 9.49735 1.83273 9.60888 1.94532 9.68806C2.07963 9.77092 2.20391 9.88537 2.31332 10.0269C2.36674 10.1103 2.40542 10.2118 2.42596 10.3225C2.44649 10.4331 2.44825 10.5494 2.43108 10.6613C2.40716 10.8673 2.35748 11.049 2.32804 11.2198C2.27559 11.5252 2.30319 11.8485 2.40532 12.1252C2.4729 12.3134 2.56928 12.4759 2.68683 12.5997C2.73316 12.6375 2.778 12.6791 2.82115 12.7244Z" fill="white"/>
<path d="M2.20918 5.69466C2.13847 5.95305 2.10284 6.22936 2.1043 6.50796C2.11286 6.80494 2.1765 7.09279 2.2883 7.34024C2.44167 7.6264 2.62863 7.86972 2.84029 8.05865C2.95308 8.17755 3.04772 8.32992 3.11813 8.50596C3.17859 8.6788 3.20413 8.87356 3.19173 9.06714C3.15265 9.36443 3.12623 9.66504 3.11261 9.96719C3.11241 10.1671 3.1622 10.3601 3.25245 10.5094C3.32053 10.607 3.37941 10.6151 3.37757 10.6314C3.36365 10.6361 3.34917 10.6361 3.33525 10.6314C3.2962 10.6185 3.25969 10.5925 3.22853 10.5555C3.17368 10.4834 3.12916 10.3959 3.09756 10.2982C3.06597 10.2004 3.04794 10.0943 3.04453 9.98617C3.0485 9.67898 3.06818 9.37267 3.10341 9.06985C3.11295 8.90094 3.08932 8.73155 3.03533 8.58187C2.97084 8.42399 2.88429 8.28815 2.78142 8.18336C2.5598 7.98378 2.36516 7.7255 2.20734 7.42156C2.09294 7.15191 2.03354 6.83949 2.03622 6.52151C2.03629 6.30956 2.06637 6.09997 2.12454 5.90612C2.16686 5.75159 2.2055 5.68924 2.20918 5.69466Z" fill="white"/>
<path d="M5.3453 5.3396C5.3453 5.3396 5.36738 5.3396 5.39498 5.36671C5.41151 5.3936 5.42386 5.42548 5.43117 5.46013C5.43848 5.49478 5.44057 5.53136 5.4373 5.56732C5.42458 5.66031 5.40547 5.75115 5.38026 5.83842C5.36267 5.9343 5.36267 6.03533 5.38026 6.13121C5.41808 6.31357 5.48495 6.47995 5.5753 6.61648C5.64522 6.73305 5.68754 6.80896 5.67834 6.82252C5.66914 6.83607 5.6121 6.78998 5.52746 6.68968C5.41183 6.55573 5.32754 6.37182 5.28642 6.16374C5.26547 6.04173 5.26996 5.91325 5.2993 5.79505C5.3269 5.68932 5.36186 5.61612 5.3729 5.55377C5.37861 5.5172 5.3791 5.47928 5.37435 5.44242C5.3696 5.40555 5.35971 5.37054 5.3453 5.3396V5.3396Z" fill="white"/>
<path d="M8.85295 3.45263C8.85295 3.45263 8.85295 3.50685 8.81431 3.59089C8.77567 3.67493 8.72783 3.78879 8.67815 3.93248C8.62143 4.10093 8.61089 4.29508 8.64871 4.47468C8.70805 4.70648 8.74581 4.94906 8.76095 5.1958C8.7638 5.45374 8.71378 5.70695 8.61743 5.92235C8.54 6.09738 8.43278 6.23945 8.30647 6.33442C8.1971 6.43654 8.06684 6.47877 7.93848 6.4537C8.05494 6.4011 8.1677 6.3321 8.27519 6.24767C8.39636 6.13739 8.49611 5.98284 8.56478 5.79901C8.63345 5.61519 8.6687 5.40833 8.66711 5.19851C8.65133 4.96227 8.61737 4.72944 8.56591 4.5045C8.54612 4.40193 8.54064 4.29452 8.54981 4.18874C8.55898 4.08297 8.58261 3.98104 8.61927 3.8891C8.66851 3.77434 8.72388 3.66556 8.78487 3.56378C8.82351 3.48787 8.84559 3.44721 8.85295 3.45263Z" fill="white"/>
<path d="M10.5213 5.86819C10.536 5.89259 10.4164 5.97121 10.3741 6.22605C10.352 6.35888 10.3097 6.51612 10.2766 6.68149C10.2467 6.87716 10.2036 7.0679 10.1478 7.2508C10.0873 7.41778 9.99896 7.55936 9.89114 7.66227C9.78332 7.76517 9.65952 7.82601 9.53136 7.83909C9.42709 7.86437 9.32016 7.8315 9.23145 7.74692C9.32889 7.75504 9.42656 7.75504 9.524 7.74692C9.63566 7.72068 9.74171 7.6569 9.83393 7.56052C9.92614 7.46414 10.0021 7.33775 10.0558 7.19116C10.1087 7.01595 10.1518 6.83461 10.1846 6.64896C10.225 6.47003 10.2729 6.33177 10.3023 6.19893C10.3274 6.09057 10.3742 5.99602 10.4366 5.92783C10.49 5.87361 10.5176 5.86277 10.5213 5.86819Z" fill="white"/>
<path d="M10.8401 9.32737C10.8511 9.32737 10.8401 9.41683 10.7922 9.52527C10.724 9.66526 10.6247 9.76589 10.5116 9.80991C10.3985 9.85393 10.2785 9.8386 10.1722 9.76655C10.0912 9.70962 10.0581 9.64456 10.0655 9.62829C10.2017 9.69027 10.3458 9.70603 10.4868 9.67438C10.715 9.58491 10.8162 9.30568 10.8401 9.32737Z" fill="white"/>
<path d="M6.76789 2.93725C6.77709 2.95893 6.66853 3.04026 6.57101 3.26799C6.50847 3.41209 6.47045 3.57631 6.4602 3.7467C6.44995 3.91708 6.46777 4.08859 6.51214 4.24666C6.58794 4.42408 6.6334 4.62595 6.64462 4.83494C6.6374 5.011 6.59228 5.17908 6.51581 5.31479C6.39069 5.5398 6.28214 5.62113 6.27662 5.61029C6.2711 5.59944 6.35758 5.48016 6.46062 5.25786C6.51973 5.13358 6.55297 4.98662 6.55629 4.83494C6.54038 4.64183 6.49509 4.45649 6.42381 4.29274C6.36526 4.09593 6.34858 3.87758 6.37598 3.6665C6.39807 3.4975 6.44588 3.33807 6.51581 3.20021C6.63909 2.97791 6.76605 2.92369 6.76789 2.93725Z" fill="white"/>
<path d="M4.55902 5.42872C4.53153 5.41245 4.603 5.1034 4.60483 4.71302C4.60666 4.32263 4.54252 4.01358 4.56818 3.99731C4.65608 4.21393 4.70175 4.4623 4.70013 4.71493C4.69851 4.96757 4.64967 5.21461 4.55902 5.42872Z" fill="white"/>
<path d="M2.92984 5.0982C2.92984 5.0982 2.95008 5.06024 2.97032 4.99247C2.99775 4.89464 3.00417 4.78678 2.98872 4.68342C2.9556 4.41232 2.7716 4.11411 2.62072 3.72643C2.54571 3.54123 2.49689 3.33559 2.4772 3.12188C2.45932 2.94238 2.47855 2.7591 2.5324 2.59595C2.5647 2.48012 2.62321 2.38433 2.698 2.32485C2.7532 2.28961 2.78632 2.29774 2.78632 2.30587C2.78632 2.314 2.75872 2.33027 2.7164 2.37365C2.65989 2.43986 2.61716 2.52817 2.59312 2.62848C2.55598 2.80178 2.54596 2.98523 2.56381 3.16505C2.58165 3.34488 2.6269 3.51641 2.69616 3.66679C2.84152 4.03549 3.02736 4.3581 3.05128 4.67799C3.06417 4.80081 3.04582 4.92631 2.99976 5.03042C2.96664 5.09278 2.93168 5.10362 2.92984 5.0982Z" fill="white"/>
<path d="M5.16084 3.53931C5.16084 3.53931 5.17556 3.49593 5.21052 3.43358C5.26421 3.36242 5.30044 3.26711 5.31356 3.16248C5.29126 3.0102 5.23645 2.87244 5.15716 2.76939C5.07068 2.63384 4.9566 2.49829 4.84068 2.36003C4.71877 2.22571 4.63124 2.03465 4.59228 1.81783C4.58359 1.63443 4.61381 1.45158 4.67876 1.2946C4.72403 1.14771 4.7906 1.01723 4.8738 0.912354C4.83735 1.05962 4.79242 1.20201 4.73948 1.33798C4.6906 1.48032 4.66958 1.6399 4.67876 1.79885C4.72027 1.98161 4.79857 2.14142 4.90324 2.25701C5.1222 2.52811 5.37244 2.79921 5.3798 3.17333C5.35875 3.29699 5.30685 3.40444 5.23444 3.47425C5.19212 3.52304 5.16636 3.54744 5.16084 3.53931Z" fill="white"/>
<path d="M7.33439 2.97001C7.39614 2.8873 7.44025 2.77993 7.46134 2.66096C7.47664 2.53154 7.4651 2.39832 7.42823 2.27871C7.38036 2.1241 7.32308 1.9762 7.25711 1.83682C7.18567 1.6869 7.1356 1.51721 7.10991 1.33799C7.09701 1.18214 7.12036 1.02445 7.17615 0.890679C7.26263 0.657533 7.38958 0.61958 7.38958 0.641268C7.32389 0.721093 7.27162 0.82223 7.23687 0.936767C7.19749 1.0533 7.18397 1.18512 7.19823 1.3136C7.2257 1.47498 7.2731 1.62753 7.33807 1.76362C7.40773 1.90967 7.46576 2.06704 7.51102 2.23262C7.55018 2.37685 7.55537 2.53627 7.52574 2.68536C7.50679 2.7872 7.46454 2.87626 7.40615 2.93748C7.36383 2.97544 7.33623 2.97815 7.33439 2.97001Z" fill="white"/>
<g opacity="0.6">
<path d="M0.871667 108.631C0.799055 108.658 0.736087 108.724 0.695705 108.817C0.655323 108.91 0.640596 109.022 0.65455 109.13C0.680891 109.237 0.732916 109.325 0.800753 109.379C0.868589 109.433 0.947515 109.449 1.02255 109.423C1.10111 109.394 1.16893 109.322 1.21129 109.22C1.25366 109.119 1.26716 108.997 1.24887 108.881C1.21335 108.774 1.15263 108.69 1.0781 108.644C1.00357 108.599 0.920359 108.595 0.844069 108.634" fill="white"/>
</g>
<g opacity="0.6">
<path d="M0 110.903L0.0110409 110.043L7.55499 110.193C7.55499 110.193 7.90827 110.39 7.87331 110.721L0 110.903Z" fill="white"/>
</g>
<path d="M116.695 101.162L117.33 107.642C117.33 107.642 111.426 110.503 111.432 111.715L123.14 110.861L122.551 100.72L116.695 101.162Z" fill="#455A64"/>
<g opacity="0.3">
<path d="M116.695 101.162L117.33 107.642C117.33 107.642 111.426 110.503 111.432 111.715L123.14 110.861L122.551 100.72L116.695 101.162Z" fill="black"/>
</g>
<g opacity="0.6">
<path d="M120.906 106.833C121.02 106.861 121.119 106.934 121.187 107.036C121.254 107.139 121.285 107.264 121.272 107.389C121.25 107.514 121.184 107.624 121.088 107.698C120.992 107.772 120.873 107.804 120.756 107.787C120.635 107.754 120.53 107.675 120.458 107.564C120.387 107.454 120.356 107.32 120.369 107.186C120.405 107.058 120.485 106.951 120.593 106.886C120.701 106.821 120.828 106.804 120.947 106.839" fill="white"/>
</g>
<g opacity="0.6">
<path d="M123.129 110.861L123.034 109.841L111.844 111.039C111.844 111.039 111.328 111.317 111.421 111.715L123.129 110.861Z" fill="white"/>
</g>
<path d="M117.126 107.592C117.126 107.653 117.42 107.661 117.714 107.839C118.008 108.017 118.173 108.265 118.23 108.237C118.287 108.209 118.173 107.859 117.814 107.65C117.456 107.442 117.11 107.536 117.126 107.592Z" fill="#263238"/>
<path d="M115.934 108.229C115.934 108.29 116.176 108.376 116.388 108.623C116.599 108.871 116.671 109.14 116.728 109.135C116.785 109.129 116.8 108.776 116.532 108.476C116.264 108.176 115.931 108.184 115.934 108.229Z" fill="#263238"/>
<path d="M115.335 109.852C115.387 109.852 115.449 109.549 115.279 109.221C115.108 108.893 114.835 108.782 114.814 108.835C114.794 108.887 114.972 109.054 115.106 109.327C115.24 109.599 115.279 109.852 115.335 109.852Z" fill="#263238"/>
<path d="M117.136 106.099C117.165 106.152 117.42 106.049 117.745 106.049C118.07 106.049 118.328 106.141 118.354 106.085C118.38 106.029 118.124 105.829 117.743 105.835C117.361 105.84 117.105 106.052 117.136 106.099Z" fill="#263238"/>
<path d="M117.033 104.789C117.229 104.831 117.431 104.815 117.619 104.742C117.828 104.686 118.03 104.603 118.22 104.495C118.333 104.431 118.441 104.358 118.545 104.278C118.608 104.234 118.665 104.18 118.713 104.117C118.746 104.069 118.763 104.011 118.763 103.951C118.763 103.892 118.746 103.834 118.713 103.786C118.681 103.746 118.642 103.714 118.597 103.693C118.552 103.672 118.504 103.662 118.455 103.664C118.381 103.668 118.308 103.685 118.238 103.714C118.114 103.754 117.995 103.808 117.882 103.875C117.691 103.985 117.517 104.127 117.366 104.295C117.108 104.587 117.033 104.823 117.054 104.834C117.074 104.845 117.201 104.65 117.461 104.406C117.618 104.263 117.792 104.143 117.977 104.05C118.084 103.995 118.194 103.949 118.308 103.914C118.429 103.869 118.535 103.861 118.566 103.914C118.597 103.967 118.581 103.944 118.566 103.986C118.528 104.03 118.487 104.069 118.442 104.103C118.346 104.18 118.246 104.251 118.143 104.317C117.967 104.427 117.782 104.52 117.59 104.595C117.401 104.645 117.214 104.71 117.033 104.789Z" fill="#263238"/>
<path d="M117.113 104.87C117.213 104.683 117.254 104.465 117.229 104.25C117.225 104.015 117.183 103.783 117.105 103.564C117.059 103.434 117.001 103.309 116.932 103.191C116.895 103.11 116.839 103.04 116.77 102.989C116.701 102.938 116.621 102.907 116.537 102.899C116.485 102.904 116.436 102.925 116.395 102.96C116.354 102.994 116.323 103.041 116.305 103.094C116.279 103.17 116.263 103.249 116.259 103.33C116.247 103.472 116.256 103.616 116.284 103.755C116.332 103.989 116.432 104.207 116.576 104.389C116.834 104.701 117.069 104.756 117.071 104.734C117.074 104.712 116.883 104.598 116.687 104.298C116.575 104.123 116.499 103.925 116.465 103.716C116.449 103.595 116.449 103.471 116.465 103.35C116.465 103.216 116.517 103.105 116.563 103.113C116.609 103.122 116.726 103.202 116.78 103.305C116.845 103.411 116.901 103.522 116.947 103.639C117.026 103.837 117.077 104.047 117.1 104.261C117.128 104.628 117.071 104.865 117.113 104.87Z" fill="#263238"/>
<path d="M115.485 54.8887C115.485 54.8887 109.724 78.9218 109.551 81.1875C109.378 83.4532 116.762 103.18 116.762 103.18L122.438 102.026C122.438 102.026 122.077 73.1505 121.894 72.5834C121.71 72.0162 123.344 57.8244 123.344 57.8244L115.485 54.8887Z" fill="#263238"/>
<path d="M119.304 101.465L119.366 107.978C119.366 107.978 113.238 110.236 113.143 111.442L124.871 111.573L125.16 101.606L119.304 101.465Z" fill="#455A64"/>
<g opacity="0.6">
<path d="M123.006 107.531C123.117 107.571 123.211 107.655 123.27 107.765C123.328 107.875 123.347 108.004 123.323 108.128C123.288 108.249 123.212 108.35 123.11 108.412C123.008 108.474 122.887 108.492 122.774 108.462C122.657 108.417 122.559 108.328 122.498 108.212C122.436 108.095 122.416 107.959 122.441 107.828C122.487 107.704 122.576 107.604 122.689 107.55C122.802 107.495 122.931 107.49 123.047 107.536" fill="white"/>
</g>
<g opacity="0.6">
<path d="M124.871 111.573V110.739L113.628 110.814C113.628 110.814 113.112 111.045 113.151 111.442L124.871 111.573Z" fill="white"/>
</g>
<path d="M119.177 107.906C119.177 107.97 119.463 108.006 119.74 108.212C120.016 108.418 120.16 108.682 120.214 108.657C120.268 108.632 120.191 108.276 119.85 108.031C119.51 107.787 119.164 107.853 119.177 107.906Z" fill="#263238"/>
<path d="M117.933 108.423C117.918 108.484 118.163 108.595 118.351 108.862C118.54 109.129 118.591 109.418 118.648 109.404C118.705 109.391 118.749 109.057 118.509 108.729C118.269 108.401 117.936 108.365 117.933 108.423Z" fill="#263238"/>
<path d="M117.196 109.991C117.247 110.005 117.335 109.699 117.196 109.357C117.056 109.015 116.793 108.873 116.767 108.926C116.742 108.979 116.904 109.16 117.012 109.443C117.121 109.727 117.139 109.983 117.196 109.991Z" fill="#263238"/>
<path d="M119.314 106.424C119.337 106.48 119.603 106.402 119.926 106.424C120.248 106.446 120.498 106.574 120.529 106.521C120.56 106.469 120.323 106.243 119.944 106.21C119.564 106.177 119.288 106.374 119.314 106.424Z" fill="#263238"/>
<g opacity="0.3">
<path d="M119.316 102.755L119.327 103.914L125.093 104.017L125.124 102.971L119.316 102.755Z" fill="black"/>
</g>
<path d="M119.324 105.109C119.517 105.166 119.72 105.166 119.912 105.109C120.125 105.075 120.333 105.012 120.532 104.923C120.65 104.87 120.764 104.809 120.875 104.739C120.941 104.701 121.002 104.653 121.055 104.595C121.092 104.551 121.115 104.497 121.121 104.438C121.127 104.38 121.116 104.321 121.089 104.27C121.06 104.224 121.022 104.187 120.977 104.161C120.932 104.134 120.882 104.12 120.831 104.12C120.756 104.116 120.681 104.126 120.609 104.147C120.483 104.176 120.359 104.218 120.24 104.272C120.04 104.363 119.855 104.487 119.691 104.639C119.412 104.903 119.314 105.131 119.332 105.145C119.35 105.159 119.494 104.976 119.778 104.759C119.943 104.635 120.122 104.533 120.31 104.456C120.42 104.412 120.533 104.378 120.648 104.353C120.774 104.322 120.88 104.322 120.906 104.384C120.932 104.445 120.906 104.417 120.89 104.453C120.851 104.494 120.807 104.53 120.759 104.559C120.656 104.626 120.55 104.688 120.441 104.742C120.257 104.834 120.065 104.907 119.869 104.962C119.684 104.997 119.502 105.047 119.324 105.109Z" fill="#263238"/>
<path d="M119.394 105.198C119.51 105.021 119.57 104.809 119.564 104.592C119.58 104.358 119.558 104.123 119.499 103.897C119.466 103.762 119.419 103.632 119.36 103.508C119.331 103.423 119.281 103.349 119.217 103.291C119.153 103.233 119.076 103.194 118.994 103.177C118.94 103.176 118.888 103.191 118.842 103.221C118.796 103.251 118.759 103.295 118.736 103.347C118.704 103.42 118.681 103.497 118.669 103.577C118.649 103.719 118.649 103.864 118.669 104.006C118.696 104.243 118.778 104.469 118.906 104.664C119.125 104.998 119.363 105.079 119.368 105.059C119.373 105.04 119.192 104.903 119.025 104.584C118.928 104.399 118.869 104.194 118.852 103.983C118.843 103.861 118.85 103.739 118.873 103.619C118.893 103.486 118.942 103.377 118.989 103.394C119.035 103.411 119.143 103.497 119.19 103.605C119.245 103.717 119.29 103.833 119.327 103.953C119.387 104.158 119.42 104.371 119.425 104.587C119.432 104.959 119.365 105.19 119.394 105.198Z" fill="#263238"/>
<path d="M128.859 53.3345L115.681 53.7264L117.572 78.9939L118.746 103.349L125.583 103.608C125.931 98.907 125.807 89.2548 125.807 89.2548L126.297 85.1043L128.036 70.4843C128.168 69.8644 128.653 66.7646 129.151 64.2821C129.435 62.856 129.853 61.0073 129.94 60.404C130.201 58.6137 128.859 53.3345 128.859 53.3345Z" fill="#263238"/>
<path d="M116.447 59.5339C116.452 59.5718 116.452 59.6101 116.447 59.6479C116.447 59.7285 116.447 59.8397 116.447 59.9787C116.447 60.279 116.421 60.7071 116.401 61.2548C116.38 61.8024 116.352 62.4863 116.331 63.273C116.31 64.0598 116.272 64.9577 116.256 65.9474C116.205 67.9295 116.179 70.2898 116.186 72.9113C116.194 75.5328 116.264 78.4129 116.401 81.432C116.537 84.4511 116.757 87.3256 116.997 89.9332C117.131 91.2371 117.255 92.4742 117.394 93.6306C117.464 94.2089 117.523 94.7677 117.595 95.2986C117.667 95.8296 117.737 96.3495 117.804 96.8388C117.928 97.8201 118.075 98.7041 118.191 99.4798C118.307 100.255 118.418 100.925 118.514 101.47C118.609 102.015 118.676 102.432 118.725 102.727C118.746 102.866 118.764 102.974 118.777 103.055C118.784 103.091 118.788 103.129 118.79 103.166C118.777 103.131 118.767 103.095 118.761 103.058L118.697 102.732C118.643 102.438 118.565 102.018 118.462 101.481C118.359 100.945 118.24 100.272 118.119 99.4937C117.998 98.7153 117.84 97.8257 117.709 96.8554C117.64 96.3643 117.568 95.8509 117.492 95.3153C117.417 94.7788 117.355 94.22 117.283 93.6473C117.131 92.4936 117.009 91.2537 116.875 89.9499C116.617 87.3423 116.411 84.465 116.266 81.4431C116.122 78.4213 116.076 75.5356 116.063 72.9141C116.05 70.2925 116.099 67.9295 116.161 65.9474C116.184 64.9577 116.225 64.0598 116.256 63.273C116.287 62.4863 116.318 61.808 116.349 61.2548C116.38 60.7015 116.403 60.279 116.419 59.9815C116.419 59.8397 116.437 59.7313 116.442 59.6507C116.447 59.5701 116.447 59.5339 116.447 59.5339Z" fill="#455A64"/>
<path d="M127.528 2.4939C127.511 2.02798 127.621 1.56679 127.843 1.16673C128.065 0.766673 128.391 0.44508 128.78 0.241284C129.169 0.0374877 129.605 -0.0396805 130.035 0.0192182C130.464 0.0781169 130.868 0.270531 131.197 0.572925C131.347 0.739494 131.522 0.878477 131.713 0.984364C131.962 1.05274 132.221 1.06411 132.474 1.01772C132.965 0.988635 133.455 1.10545 133.888 1.35542C134.322 1.60539 134.684 1.97891 134.934 2.43525C135.184 2.89158 135.313 3.4132 135.307 3.94319C135.301 4.47318 135.16 4.99119 134.9 5.4407C135.369 5.60314 135.792 5.89231 136.129 6.28072C136.466 6.66913 136.705 7.14387 136.823 7.65982C136.942 8.17577 136.936 8.71578 136.806 9.22851C136.676 9.74125 136.426 10.2097 136.081 10.5893C136.299 10.8328 136.457 11.1315 136.539 11.4578C136.622 11.7842 136.627 12.1277 136.554 12.4567C136.481 12.7857 136.332 13.0896 136.121 13.3404C135.911 13.5912 135.645 13.7809 135.348 13.8919C135.141 13.9349 134.947 14.0301 134.781 14.1699C134.378 14.6369 134.977 15.4598 134.68 16.0103C134.456 16.43 133.826 16.4578 133.648 16.9054C133.527 17.2279 133.715 17.581 133.739 17.9257C133.79 18.6791 133.06 19.2267 132.376 19.3824C131.019 19.6854 129.577 19.0683 128.594 18.0146C127.611 16.961 127.046 15.5265 126.754 14.0698C126.068 10.6421 126.783 7.08925 127.495 3.66985" fill="#263238"/>
<path d="M126.481 3.53629C126.386 3.456 126.308 3.35534 126.251 3.24068C126.194 3.12601 126.159 2.99985 126.15 2.87018C126.141 2.7405 126.156 2.61014 126.196 2.48733C126.236 2.36453 126.299 2.25197 126.381 2.15677C126.464 2.06157 126.563 1.98582 126.674 1.93429C126.785 1.88277 126.904 1.8566 127.025 1.85744C127.146 1.85829 127.265 1.88612 127.375 1.93919C127.486 1.99227 127.584 2.06941 127.665 2.16575C127.756 2.26861 127.838 2.40483 127.97 2.42151C128.101 2.43819 128.205 2.33812 128.313 2.26862C128.455 2.18021 128.618 2.13648 128.782 2.14237C128.946 2.14827 129.105 2.20355 129.242 2.30197C129.376 2.40379 129.481 2.54445 129.545 2.70774C129.608 2.87103 129.627 3.05031 129.6 3.22493C130.049 3.04979 130.65 3.14154 130.849 3.60858C131.025 4.0228 130.772 4.53709 130.398 4.74837C130.006 4.93071 129.569 4.965 129.157 4.84567C128.161 4.62802 127.252 4.08432 126.553 3.28887" fill="#FED03F"/>
<path d="M129.197 3.71438C129.197 3.7394 129.355 3.68936 129.468 3.53368C129.582 3.378 129.595 3.21398 129.569 3.20842C129.543 3.20286 129.489 3.33352 129.391 3.46696C129.293 3.6004 129.197 3.68658 129.197 3.71438Z" fill="white"/>
<path d="M127.65 3.50582C127.681 3.50582 127.673 3.2723 127.753 3.01098C127.833 2.74966 127.96 2.56618 127.939 2.54672C127.918 2.52726 127.745 2.69128 127.66 2.97762C127.594 3.14562 127.59 3.33495 127.65 3.50582Z" fill="white"/>
<path d="M126.832 3.23891C126.861 3.23891 126.817 2.99983 126.879 2.73017C126.941 2.46051 127.072 2.27703 127.049 2.25757C126.916 2.37144 126.823 2.53001 126.783 2.70791C126.744 2.88582 126.761 3.07279 126.832 3.23891Z" fill="white"/>
<path d="M129.791 4.32316C129.791 4.32316 129.858 4.33984 129.956 4.30092C130.084 4.24926 130.196 4.15937 130.279 4.04173C130.362 3.92409 130.412 3.78355 130.423 3.6365C130.423 3.52252 130.41 3.4558 130.397 3.45858C130.359 3.64234 130.293 3.818 130.201 3.97844C130.083 4.11662 129.944 4.23306 129.791 4.32316Z" fill="white"/>
<path d="M120.394 13.7862C120.079 13.6547 119.821 13.403 119.667 13.0789C119.513 12.7549 119.475 12.3813 119.561 12.0293C119.383 11.8794 119.235 11.6919 119.127 11.4783C119.019 11.2648 118.952 11.0296 118.931 10.7873C118.91 10.545 118.935 10.3006 119.005 10.0691C119.075 9.83762 119.187 9.62391 119.337 9.44109C119.168 9.26852 119.051 9.04546 119.001 8.80071C118.952 8.55595 118.971 8.30071 119.057 8.06793C119.143 7.83515 119.292 7.63551 119.484 7.49475C119.677 7.35399 119.904 7.27858 120.136 7.27825C120.052 6.99405 120.038 6.69079 120.096 6.39902C120.155 6.10724 120.284 5.83725 120.47 5.61626C120.656 5.39527 120.893 5.23107 121.157 5.14021C121.421 5.04935 121.703 5.03505 121.973 5.09873C121.944 4.79558 121.999 4.48995 122.129 4.21973C122.26 3.9495 122.462 3.72657 122.709 3.57858C122.956 3.43058 123.238 3.36402 123.52 3.38716C123.802 3.41029 124.072 3.5221 124.295 3.70873C125.051 2.71905 126.679 2.74963 127.391 3.76711C127.626 3.64485 127.882 3.57471 128.143 3.56084C128.404 3.54697 128.664 3.58965 128.909 3.68635C129.155 3.78305 129.379 3.93181 129.57 4.1238C129.761 4.31579 129.914 4.54711 130.02 4.80405C130.637 4.24805 131.648 4.52605 132.149 5.19325C132.649 5.86045 132.732 6.80843 132.624 7.66467C132.832 7.78186 133.008 7.95664 133.133 8.1711C133.258 8.38557 133.328 8.632 133.335 8.88517C133.343 9.13834 133.288 9.38913 133.176 9.61187C133.064 9.83461 132.899 10.0213 132.698 10.1528C133.025 10.6849 133.147 11.3332 133.038 11.9605C132.929 12.5877 132.598 13.1448 132.115 13.5138C132.156 14.0718 132.041 14.6302 131.787 15.1182C131.532 15.6061 131.149 16.0017 130.686 16.2549" fill="#263238"/>
<path d="M130.106 9.34662L130.49 8.33748L124.626 6.99196C122.82 6.7362 120.805 8.65996 120.647 10.606C120.469 12.7827 120.335 15.4515 120.539 17.0861C120.941 20.3665 123.263 20.4444 123.263 20.4444L123.186 25.9877L129.92 23.3801L130.106 9.34662Z" fill="#5C4032"/>
<path d="M121.342 12.9328C121.338 13.0423 121.375 13.149 121.443 13.23C121.512 13.311 121.607 13.36 121.708 13.3665C121.758 13.3718 121.808 13.3664 121.856 13.3506C121.903 13.3349 121.947 13.309 121.986 13.2746C122.024 13.2401 122.055 13.1978 122.078 13.1501C122.101 13.1024 122.115 13.0502 122.119 12.9967C122.122 12.8874 122.085 12.7811 122.017 12.7003C121.948 12.6194 121.854 12.5702 121.752 12.563C121.703 12.5577 121.653 12.5631 121.605 12.5789C121.557 12.5946 121.513 12.6205 121.475 12.6549C121.437 12.6894 121.405 12.7317 121.382 12.7794C121.36 12.8271 121.346 12.8793 121.342 12.9328Z" fill="#263238"/>
<path d="M121.259 11.9959C121.305 12.0515 121.605 11.8235 122.033 11.8346C122.461 11.8457 122.755 12.082 122.807 12.0264C122.858 11.9708 122.781 11.9041 122.649 11.7957C122.471 11.6545 122.257 11.5768 122.035 11.5733C121.817 11.5678 121.603 11.6369 121.424 11.7707C121.279 11.8819 121.236 11.9792 121.259 11.9959Z" fill="#263238"/>
<path d="M125.351 13.1525C125.347 13.262 125.384 13.3687 125.452 13.4497C125.521 13.5307 125.616 13.5797 125.717 13.5862C125.767 13.5915 125.817 13.5862 125.864 13.5704C125.912 13.5546 125.956 13.5287 125.994 13.4943C126.033 13.4598 126.064 13.4175 126.087 13.3698C126.11 13.3221 126.124 13.27 126.127 13.2164C126.13 13.1071 126.094 13.0009 126.025 12.92C125.957 12.8391 125.862 12.7899 125.761 12.7828C125.711 12.7774 125.661 12.7828 125.614 12.7986C125.566 12.8144 125.522 12.8402 125.484 12.8747C125.446 12.9091 125.414 12.9514 125.391 12.9991C125.368 13.0468 125.355 13.099 125.351 13.1525Z" fill="#263238"/>
<path d="M125.472 12.1904C125.519 12.246 125.821 12.0181 126.246 12.032C126.672 12.0459 126.969 12.2766 127.02 12.2238C127.072 12.171 126.997 12.0987 126.866 11.9903C126.687 11.8499 126.473 11.7723 126.252 11.7679C126.034 11.7624 125.82 11.8315 125.64 11.9653C125.496 12.0681 125.449 12.1654 125.472 12.1904Z" fill="#263238"/>
<path d="M123.78 15.507C123.56 15.4273 123.332 15.3769 123.101 15.3569C122.995 15.343 122.895 15.3179 122.877 15.2373C122.871 15.1182 122.899 15 122.957 14.8982C123.062 14.6202 123.176 14.3422 123.292 14.028C123.759 12.7881 124.102 11.7651 124.066 11.7456C124.03 11.7262 123.602 12.7159 123.135 13.9696C123.021 14.2754 122.913 14.5673 122.812 14.8453C122.742 14.9825 122.718 15.1417 122.745 15.2957C122.76 15.3369 122.783 15.374 122.813 15.4043C122.843 15.4346 122.879 15.4573 122.918 15.4708C122.977 15.4893 123.037 15.4995 123.099 15.5014C123.325 15.5335 123.553 15.5354 123.78 15.507Z" fill="#263238"/>
<path d="M123.264 20.4165C124.728 20.4794 126.181 20.1092 127.464 19.3462C127.464 19.3462 126.385 21.6147 123.248 21.2338L123.264 20.4165Z" fill="#402C22"/>
<path d="M125.736 9.83027C125.751 9.95815 126.172 9.99707 126.641 10.1722C127.111 10.3473 127.469 10.5809 127.554 10.4891C127.593 10.4446 127.554 10.314 127.415 10.1611C127.262 9.93483 127.032 9.78295 126.775 9.73853C126.536 9.64808 126.28 9.62137 126.03 9.66069C125.844 9.69405 125.73 9.77189 125.736 9.83027Z" fill="#263238"/>
<path d="M121.339 10.5836C121.416 10.6837 121.703 10.5836 122.048 10.5558C122.394 10.528 122.693 10.6086 122.758 10.5002C122.786 10.4474 122.737 10.3445 122.606 10.25C122.429 10.1387 122.225 10.0867 122.021 10.1006C121.816 10.1144 121.62 10.1936 121.457 10.3279C121.344 10.4279 121.305 10.5336 121.339 10.5836Z" fill="#263238"/>
<path d="M127.183 7.07258C127.109 7.33263 126.975 7.56806 126.793 7.75646C126.699 7.84636 126.577 7.89598 126.451 7.89598C126.325 7.89598 126.204 7.84636 126.109 7.75646C126.037 7.82965 125.951 7.88475 125.856 7.91785C125.762 7.95094 125.662 7.96122 125.563 7.94795C125.465 7.93468 125.37 7.89819 125.286 7.84107C125.202 7.78395 125.131 7.70761 125.077 7.61746C124.923 7.75751 124.729 7.83882 124.528 7.84886C124.326 7.85891 124.126 7.79714 123.96 7.67306L123.047 7.8343C122.714 7.8899 122.304 7.91492 122.118 7.61468C122.074 7.54518 122.043 7.459 121.976 7.42008C121.9 7.3963 121.82 7.3963 121.744 7.42008C121.613 7.42066 121.483 7.38587 121.367 7.31888C121.252 7.25188 121.153 7.15481 121.081 7.03644C120.941 6.79707 120.84 6.53387 120.782 6.25804C120.671 5.84104 120.593 5.30728 120.916 5.04874C121.05 4.95746 121.202 4.90216 121.36 4.8875C121.675 4.80813 122.002 4.80056 122.319 4.86526C122.699 5.00404 123.02 5.28396 123.225 5.65478C123.197 5.53983 123.211 5.41761 123.265 5.31389C123.319 5.21017 123.408 5.13305 123.514 5.09878C123.728 5.04141 123.954 5.07738 124.143 5.19886C124.421 5.35447 124.652 5.59035 124.812 5.87996C125.065 5.89378 125.31 5.98325 125.519 6.13837C125.728 6.29349 125.893 6.50816 125.996 6.75844C126.112 6.68546 126.24 6.63847 126.373 6.62031C126.506 6.60216 126.641 6.61321 126.77 6.6528C126.817 6.66273 126.861 6.68321 126.9 6.71291C126.94 6.74261 126.972 6.78086 126.997 6.82516C127.008 6.84736 127.015 6.87202 127.016 6.89734C127.018 6.92266 127.014 6.94798 127.005 6.97146C126.996 6.99493 126.982 7.01595 126.965 7.03297C126.947 7.04999 126.927 7.06258 126.904 7.0698" fill="#263238"/>
<path d="M124.244 7.09748C124.312 7.32043 124.311 7.56125 124.241 7.78354C124.171 8.00584 124.036 8.19754 123.856 8.32971C123.676 8.46188 123.461 8.52732 123.243 8.51617C123.026 8.50501 122.817 8.41785 122.65 8.26786C122.565 8.48661 122.411 8.66561 122.214 8.77263C122.018 8.87966 121.793 8.90768 121.579 8.85166C121.567 9.13142 121.485 9.40254 121.343 9.63677C121.2 9.87099 121.002 10.0597 120.769 10.1833C120.867 10.473 120.859 10.7923 120.746 11.0757C120.714 11.1676 120.665 11.2519 120.603 11.3235C120.54 11.395 120.465 11.4526 120.382 11.4927C120.278 11.5266 120.169 11.5368 120.061 11.5224C119.954 11.508 119.85 11.4695 119.758 11.4093C119.617 11.3434 119.491 11.2468 119.387 11.1258C119.283 11.0047 119.204 10.8618 119.154 10.7059C119.107 10.5476 119.115 10.3767 119.175 10.2239C119.235 10.071 119.344 9.94622 119.481 9.87192C119.23 9.59737 119.039 9.26592 118.922 8.9017C118.879 8.80126 118.856 8.69279 118.853 8.58256C118.85 8.47233 118.867 8.36253 118.904 8.25952C118.924 8.20895 118.955 8.16401 118.994 8.12799C119.033 8.09198 119.079 8.06581 119.128 8.05141C119.178 8.03701 119.23 8.03474 119.28 8.04478C119.33 8.05481 119.378 8.07689 119.42 8.1094C119.349 7.94507 119.323 7.76298 119.343 7.58337C119.363 7.40375 119.429 7.23364 119.533 7.09192C119.641 6.95298 119.782 6.84865 119.942 6.79031C120.101 6.73198 120.272 6.72187 120.436 6.7611C120.447 6.60952 120.497 6.46429 120.581 6.34239C120.665 6.22048 120.78 6.12695 120.912 6.07271C121.044 6.01848 121.187 6.00579 121.325 6.03613C121.464 6.06646 121.591 6.13857 121.693 6.24402" fill="#263238"/>
<path d="M127.892 6.93913C127.908 6.74076 127.991 6.55559 128.125 6.4184C128.259 6.28122 128.435 6.20145 128.62 6.19409C128.991 6.19257 129.355 6.30962 129.665 6.53047C129.848 6.32248 130.086 6.18065 130.347 6.12441C130.608 6.06817 130.879 6.10028 131.122 6.21634C131.602 6.45542 131.896 6.98083 132.276 7.36725C132.499 7.549 132.695 7.76759 132.856 8.015C132.933 8.14135 132.962 8.29486 132.936 8.44351C132.911 8.59216 132.833 8.72447 132.719 8.81286C132.878 8.88149 133.016 8.9951 133.119 9.1416C133.222 9.2881 133.287 9.462 133.305 9.64482C133.324 9.82763 133.297 10.0125 133.226 10.1798C133.155 10.3471 133.043 10.4905 132.903 10.5948C132.815 10.6588 132.709 10.7172 132.668 10.8256C132.644 10.9173 132.649 11.0148 132.681 11.1036C132.837 11.5395 132.966 11.9862 133.068 12.4408C133.13 12.9022 133.013 13.4388 132.639 13.6723C132.541 13.7362 132.42 13.7807 132.381 13.8919C132.357 13.9694 132.357 14.0535 132.381 14.131C132.45 14.386 132.541 14.6335 132.652 14.8705C132.763 15.11 132.789 15.3844 132.727 15.6433C132.69 15.77 132.608 15.8758 132.499 15.9382C132.39 16.0005 132.262 16.0144 132.144 15.9769C132.223 16.2289 132.244 16.4981 132.204 16.7607C132.165 17.0234 132.066 17.2716 131.917 17.4837C131.594 17.884 130.588 18.0174 130.018 17.5949L130.039 16.0937C130.129 15.8351 129.819 14.409 129.992 14.131C129.992 14.131 130.359 15.1318 129.43 14.915C129.12 14.9872 128.581 13.9864 128.558 13.6473C128.554 13.4746 128.597 13.3044 128.68 13.1567C128.763 13.009 128.884 12.8898 129.027 12.8133C128.78 12.5724 128.619 12.246 128.572 11.8905C128.525 11.5351 128.595 11.1731 128.769 10.8673C128.609 10.823 128.466 10.7245 128.361 10.5861C128.257 10.4477 128.196 10.2768 128.188 10.0986C128.18 9.92026 128.226 9.74397 128.318 9.59561C128.41 9.44725 128.544 9.33464 128.7 9.27433C128.492 9.19545 128.302 9.07028 128.142 8.90697C127.983 8.74367 127.857 8.5459 127.773 8.32659C127.689 8.10728 127.649 7.87134 127.655 7.63419C127.661 7.39703 127.714 7.16398 127.81 6.95025" fill="#263238"/>
<path d="M129.683 13.3859C129.724 13.3637 131.432 12.7271 131.46 14.6341C131.489 16.5412 129.708 16.1798 129.703 16.1242C129.698 16.0686 129.683 13.3859 129.683 13.3859Z" fill="#5C4032"/>
<path d="M130.229 15.3988C130.229 15.3988 130.26 15.421 130.315 15.446C130.388 15.4786 130.471 15.4786 130.544 15.446C130.657 15.3664 130.749 15.2555 130.809 15.125C130.868 14.9945 130.895 14.849 130.885 14.7038C130.887 14.5398 130.856 14.3774 130.792 14.2284C130.774 14.1697 130.743 14.1164 130.702 14.0729C130.662 14.0294 130.612 13.997 130.557 13.9782C130.522 13.9688 130.484 13.9731 130.451 13.9904C130.418 14.0076 130.392 14.0368 130.377 14.0727C130.353 14.1255 130.377 14.1644 130.356 14.1672C130.335 14.17 130.317 14.1366 130.33 14.0588C130.339 14.0111 130.363 13.9681 130.397 13.9365C130.446 13.8968 130.507 13.8789 130.567 13.8864C130.639 13.8991 130.707 13.9313 130.765 13.9799C130.822 14.0285 130.867 14.092 130.895 14.1644C130.973 14.3277 131.012 14.5092 131.009 14.6926C131.021 14.8625 130.986 15.0324 130.908 15.1809C130.83 15.3293 130.714 15.4496 130.573 15.5266C130.525 15.5431 130.475 15.5477 130.426 15.54C130.377 15.5322 130.33 15.5125 130.289 15.4822C130.229 15.4432 130.229 15.4015 130.229 15.3988Z" fill="#402C22"/>
<path d="M124.962 16.2021C124.894 16.1264 124.81 16.0689 124.718 16.0342C124.626 15.9994 124.527 15.9884 124.43 16.002C124.334 16.0181 124.242 16.0588 124.162 16.1207C124.083 16.1825 124.018 16.2638 123.974 16.3578C123.936 16.4342 123.914 16.5184 123.909 16.6047C123.904 16.691 123.917 16.7775 123.945 16.8582C123.987 16.9712 124.062 17.0668 124.157 17.1315C124.253 17.1962 124.365 17.2265 124.478 17.2182C124.59 17.2099 124.698 17.1633 124.784 17.0851C124.871 17.0069 124.932 16.9012 124.959 16.7832C125.011 16.5496 125.096 16.2716 124.905 16.1465" fill="#402C22"/>
<path d="M124.427 12.8912C124.457 12.7215 124.495 12.5536 124.541 12.388C124.685 11.9426 124.963 11.5619 125.33 11.3066C125.6 11.1171 125.909 11.004 126.23 10.9778C126.55 10.9515 126.872 11.013 127.165 11.1565C127.511 11.3227 127.803 11.5967 128.003 11.9432C128.221 12.3133 128.323 12.7488 128.295 13.1859C128.265 13.6234 128.108 14.0397 127.846 14.3757C127.722 14.5342 127.575 14.6711 127.413 14.7816C127.259 14.8911 127.09 14.9737 126.912 15.0262C126.602 15.1233 126.274 15.1353 125.959 15.061C125.643 14.9867 125.35 14.8285 125.106 14.6009C124.776 14.2907 124.551 13.8712 124.466 13.4083C124.412 13.0803 124.433 12.8912 124.42 12.8912C124.394 13.0653 124.394 13.2426 124.42 13.4166C124.49 13.8964 124.714 14.3348 125.052 14.6565C125.301 14.8972 125.603 15.0659 125.929 15.1471C126.255 15.2283 126.595 15.2192 126.917 15.1208C127.1 15.0643 127.274 14.979 127.433 14.8678C127.612 14.7552 127.772 14.6114 127.908 14.4425C128.186 14.092 128.352 13.6547 128.382 13.1948C128.412 12.7349 128.305 12.2768 128.076 11.8876C127.97 11.7017 127.836 11.5355 127.681 11.3956C127.534 11.2597 127.368 11.1482 127.191 11.0648C126.863 10.9091 126.502 10.8515 126.146 10.898C125.837 10.9395 125.541 11.0575 125.281 11.2427C124.906 11.5121 124.628 11.9127 124.495 12.3769C124.448 12.5436 124.425 12.7171 124.427 12.8912Z" fill="#455A64"/>
<path d="M119.518 12.5185C119.547 12.3487 119.585 12.1808 119.631 12.0153C119.774 11.5685 120.052 11.1865 120.421 10.9311C120.69 10.7434 120.999 10.6312 121.319 10.605C121.639 10.5788 121.96 10.6393 122.252 10.781C122.422 10.8615 122.58 10.9693 122.719 11.1007C122.865 11.2351 122.991 11.3926 123.093 11.5678C123.309 11.94 123.411 12.3755 123.385 12.8132C123.355 13.2504 123.197 13.6659 122.934 14.0003C122.811 14.1604 122.666 14.2983 122.503 14.4089C122.28 14.5617 122.031 14.6637 121.771 14.7087C121.51 14.7536 121.244 14.7405 120.988 14.6702C120.702 14.5884 120.437 14.4362 120.214 14.2254C119.883 13.9171 119.658 13.4982 119.574 13.0356C119.55 12.8644 119.534 12.6917 119.528 12.5185C119.502 12.6917 119.502 12.868 119.528 13.0412C119.6 13.5212 119.823 13.9599 120.16 14.2838C120.392 14.5069 120.67 14.6687 120.97 14.7564C121.317 14.8565 121.681 14.8565 122.028 14.7564C122.41 14.6371 122.752 14.4004 123.011 14.0753C123.29 13.7252 123.456 13.2875 123.486 12.8274C123.516 12.3672 123.407 11.9089 123.176 11.5205C122.965 11.1543 122.658 10.864 122.294 10.6865C121.966 10.531 121.605 10.4734 121.249 10.5197C120.871 10.5686 120.514 10.7339 120.221 10.9957C119.929 11.2576 119.712 11.6048 119.598 11.9959C119.544 12.1641 119.517 12.3407 119.518 12.5185Z" fill="#455A64"/>
<path d="M128.336 12.7688C128.546 12.9355 128.78 13.0625 129.03 13.1441C129.268 13.2581 129.522 13.3322 129.781 13.3637C129.552 13.2329 129.313 13.1259 129.066 13.044C128.83 12.9313 128.586 12.8393 128.336 12.7688Z" fill="#455A64"/>
<path d="M123.264 12.2211C123.48 12.1981 123.698 12.1981 123.914 12.2211C124.124 12.2774 124.329 12.3547 124.525 12.4519C124.375 12.2603 124.161 12.1396 123.929 12.1155C123.703 12.0543 123.464 12.0923 123.264 12.2211Z" fill="#455A64"/>
<path d="M126.961 14.6674C127.073 14.6602 127.182 14.6239 127.278 14.5618C127.521 14.4267 127.726 14.2249 127.873 13.9769C128.019 13.7289 128.103 13.4435 128.114 13.1495C128.129 13.0286 128.113 12.9056 128.068 12.7937C128.052 12.7937 128.068 12.9299 128.045 13.144C128.018 13.4206 127.931 13.6867 127.793 13.9212C127.654 14.1556 127.466 14.3521 127.245 14.4951C127.147 14.5467 127.052 14.6043 126.961 14.6674Z" fill="white"/>
<path d="M122.103 14.2338C122.21 14.2284 122.313 14.1919 122.402 14.1281C122.629 13.9996 122.822 13.8094 122.96 13.5764C123.099 13.3434 123.178 13.0756 123.191 12.7993C123.207 12.6857 123.194 12.5698 123.155 12.4629C123.138 12.5714 123.127 12.681 123.122 12.7909C123.091 13.0502 123.007 13.2989 122.877 13.5191C122.746 13.7393 122.571 13.9255 122.366 14.0642C122.208 14.1726 122.098 14.2199 122.103 14.2338Z" fill="white"/>
<path d="M125.136 15.6404C125.17 15.6404 125.209 15.7822 125.162 16.0102C125.091 16.3131 124.912 16.5737 124.664 16.7357C124.541 16.8156 124.405 16.8683 124.262 16.8907C124.12 16.9131 123.975 16.9049 123.836 16.8664C123.627 16.8052 123.529 16.6996 123.545 16.6718C123.56 16.644 123.679 16.6718 123.864 16.6718C124.098 16.6864 124.331 16.6248 124.531 16.4948C124.732 16.3649 124.892 16.1727 124.989 15.9434C125.069 15.7683 125.1 15.6376 125.136 15.6404Z" fill="#263238"/>
<path d="M130.024 4.7985C130.053 4.77349 130.085 4.75291 130.119 4.73734C130.213 4.67832 130.311 4.62898 130.413 4.59C130.8 4.42638 131.229 4.42638 131.616 4.59C132.191 4.87871 132.641 5.3941 132.875 6.03004C133.018 6.41117 133.096 6.81715 133.104 7.22822C133.111 7.45213 133.08 7.6755 133.011 7.88708C132.936 8.10692 132.804 8.29951 132.632 8.44308L132.617 8.3291C132.839 8.42589 133.035 8.58216 133.186 8.78319C133.337 8.98422 133.439 9.22338 133.48 9.47815C133.522 9.73291 133.502 9.99487 133.424 10.2394C133.346 10.4838 133.211 10.7028 133.032 10.8756C133.003 10.9041 132.973 10.931 132.942 10.9562V10.8394C133.079 10.9143 133.2 11.0189 133.297 11.1467C133.395 11.2744 133.467 11.4225 133.509 11.5817C133.595 11.8823 133.614 12.2002 133.566 12.5102C133.437 13.0688 133.249 13.6097 133.006 14.1226C132.911 14.364 132.84 14.6156 132.795 14.8732C132.753 15.1234 132.73 15.3736 132.691 15.6155C132.632 16.0731 132.447 16.501 132.16 16.8442C131.954 17.0915 131.705 17.2924 131.427 17.4356C131.149 17.5787 130.847 17.6612 130.54 17.6782C130.374 17.6845 130.209 17.6686 130.047 17.631C129.991 17.6176 129.935 17.599 129.882 17.5754C130.098 17.6179 130.318 17.6346 130.537 17.6254C131.134 17.5728 131.688 17.274 132.085 16.7914C132.355 16.459 132.526 16.0477 132.578 15.6099C132.611 15.3736 132.632 15.1234 132.673 14.8649C132.718 14.5991 132.789 14.3391 132.885 14.0893C133.12 13.584 133.304 13.0527 133.432 12.5047C133.474 12.2157 133.456 11.9202 133.378 11.6401C133.341 11.4988 133.277 11.3671 133.191 11.2533C133.105 11.1395 132.998 11.046 132.877 10.9784L132.787 10.934L132.864 10.8617C132.89 10.8367 132.918 10.8144 132.944 10.7866C133.11 10.6228 133.234 10.4159 133.305 10.1857C133.375 9.95548 133.39 9.70965 133.347 9.47168C133.301 9.24996 133.207 9.04315 133.072 8.86821C132.938 8.69328 132.766 8.55521 132.573 8.46532L132.472 8.42084L132.557 8.35134C132.705 8.21525 132.821 8.04381 132.896 7.85073C132.972 7.65765 133.004 7.44828 132.991 7.23934C132.985 6.84421 132.913 6.4534 132.779 6.08564C132.561 5.47052 132.135 4.967 131.587 4.67618C131.218 4.50878 130.805 4.49296 130.426 4.6317C130.324 4.66447 130.225 4.70631 130.13 4.7568C130.096 4.77515 130.06 4.78915 130.024 4.7985Z" fill="#455A64"/>
<path d="M130.57 4.42871C130.635 4.4688 130.691 4.52274 130.735 4.58717C130.864 4.75954 130.956 4.96093 131.004 5.17653C131.084 5.49837 131.066 5.83968 130.952 6.14953C130.826 6.4695 130.607 6.73685 130.328 6.9117C130.049 7.08655 129.725 7.15953 129.404 7.11975L129.458 7.09751C129.283 7.2937 129.072 7.44879 128.838 7.55307C128.605 7.65735 128.354 7.70858 128.101 7.70355C127.956 7.7003 127.812 7.67695 127.673 7.63405C127.621 7.6224 127.572 7.59972 127.528 7.56733C127.717 7.59837 127.908 7.61601 128.098 7.62015C128.58 7.60147 129.035 7.38102 129.368 7.00577L129.388 6.98353H129.419C129.713 7.01557 130.008 6.94743 130.263 6.78876C130.518 6.6301 130.72 6.38896 130.841 6.09949C130.952 5.81376 130.978 5.49829 130.916 5.19599C130.853 4.9165 130.735 4.65483 130.57 4.42871Z" fill="#455A64"/>
<path d="M131.968 4.79565C131.968 4.79565 131.986 4.81233 132.015 4.85403C132.056 4.91526 132.093 4.98039 132.123 5.04864C132.235 5.30285 132.298 5.57915 132.306 5.86039C132.319 6.28134 132.217 6.69712 132.012 7.0558C131.749 7.49384 131.342 7.80785 130.872 7.93427C130.477 8.04939 130.058 8.02799 129.675 7.87311L129.75 7.84531C129.572 8.15568 129.298 8.38741 128.976 8.49861C128.725 8.58686 128.456 8.59459 128.202 8.52085C128.038 8.47386 127.885 8.39262 127.75 8.28177C127.7 8.24666 127.656 8.20135 127.621 8.14834C127.805 8.27648 128.007 8.37045 128.22 8.42634C128.459 8.48357 128.708 8.46817 128.939 8.38185C129.231 8.26851 129.477 8.05056 129.636 7.76469L129.662 7.71743L129.711 7.73689C130.071 7.87685 130.461 7.89432 130.831 7.78693C131.27 7.66836 131.652 7.37803 131.904 6.97239C132.101 6.64028 132.206 6.25448 132.206 5.86039C132.199 5.49113 132.118 5.12782 131.968 4.79565Z" fill="#455A64"/>
<path d="M97.5668 32.6401L97.8248 32.9181C97.8498 32.9517 97.8858 32.9737 97.9254 32.9793C97.9505 32.9758 97.9742 32.9652 97.9941 32.9486C98.0141 32.932 98.0295 32.91 98.039 32.8848C98.081 32.8001 98.1061 32.7069 98.1128 32.6112C98.1195 32.5154 98.1075 32.4192 98.0777 32.3288C98.0189 32.1495 97.9207 31.9882 97.7913 31.8589C97.7649 31.8254 97.7326 31.7979 97.6963 31.7778C97.66 31.7578 97.6204 31.7457 97.5797 31.7422C97.4996 31.7533 97.4261 31.7958 97.3733 31.8617C97.2959 31.9451 97.2185 32.0285 97.1489 32.1175C97.1289 32.1367 97.1131 32.1603 97.1024 32.1867C97.0917 32.213 97.0865 32.2416 97.0869 32.2704C97.0988 32.3121 97.1233 32.3483 97.1566 32.3732C97.2727 32.4844 97.443 32.5373 97.5565 32.6512" fill="#402C22"/>
<path d="M99.8012 27.7281C99.4091 27.6919 97.6495 27.4111 97.6495 27.4111L94.9482 27.9671C94.9482 27.9671 95.0334 28.8011 95.5881 28.7428C96.1428 28.6844 96.7542 28.6872 96.7542 28.6872L97.7217 28.8595C97.7217 28.8595 96.3389 29.7686 96.3182 29.9715C96.3119 30.1117 96.3385 30.2513 96.3956 30.3774C96.2502 30.7061 96.2208 31.0807 96.3131 31.431L96.3002 32.7932L97.536 33.7996C97.6565 33.5794 97.703 33.3212 97.6676 33.0684C97.5953 32.682 97.118 32.4374 97.118 32.4374L97.4354 31.8814L97.8894 31.7313C97.8894 31.7313 100.774 32.7487 101.455 32.7293L102.028 33.3214L104.216 30.4247C104.216 30.4247 100.193 27.7614 99.8012 27.7281Z" fill="#5C4032"/>
<path d="M97.9208 30.5024C97.9208 30.5414 97.5519 30.6887 97.1236 30.9445C96.6953 31.2002 96.3754 31.4671 96.3496 31.4393C96.7589 30.9445 97.312 30.6142 97.9183 30.5024H97.9208Z" fill="#402C22"/>
<path d="M98.1911 29.4487C97.9111 29.6262 97.6216 29.7858 97.3243 29.9269C97.0463 30.1093 96.7576 30.2718 96.46 30.4134C96.6912 30.1582 96.9652 29.9526 97.2675 29.8074C97.5509 29.6245 97.8646 29.5027 98.1911 29.4487Z" fill="#402C22"/>
<path d="M99.1641 27.9504C98.9383 28.1475 98.6985 28.325 98.4469 28.4814C98.2155 28.6748 97.9531 28.8209 97.6729 28.9123C97.8929 28.7025 98.1314 28.5163 98.3849 28.3563C98.6165 28.1656 98.8816 28.0275 99.1641 27.9504Z" fill="#402C22"/>
<path d="M132.177 31.178L129.081 47.7217C129.081 47.7217 131.455 54.2909 131.084 57.3322C130.869 59.0975 129.871 62.9422 129.871 62.9422L114.277 57.31C113.928 57.1743 113.633 56.911 113.444 56.5657C113.256 56.2204 113.186 55.8149 113.245 55.4196C113.921 51.0383 116.011 37.6998 116.839 34.7141C118.24 29.6517 122.567 23.7665 122.567 23.7665L122.652 22.0457L130.537 22.168L130.49 23.9055C130.49 23.9055 133.068 27.033 132.177 31.178Z" fill="#FED03F"/>
<path d="M126.664 25.5346C127.609 25.2566 127.74 25.643 129.26 26.3686C130.779 27.0941 131.066 31.0779 131.066 31.0779L128.94 35.1172L117.67 42.1173C117.67 42.1173 115.374 43.8742 111.783 41.2138C110.465 40.238 101.535 33.8801 101.535 33.8801L104.136 29.6462L114.68 34.7586L126.664 25.5346Z" fill="#FED03F"/>
<g opacity="0.3">
<path d="M121.216 39.9016L130.617 33.313C130.729 33.2183 130.863 33.1587 131.004 33.1406C131.136 33.1574 131.256 33.2279 131.34 33.3376C131.425 33.4473 131.467 33.5878 131.458 33.73C131.425 34.0161 131.307 34.2831 131.123 34.4917C130.243 35.6315 128.943 36.2792 127.686 36.8881C125.542 37.9278 122.508 39.4262 120.364 40.4659L121.216 39.9016Z" fill="black"/>
</g>
<path d="M125.083 26.8078C125.083 26.8078 125.068 26.8245 125.037 26.8523L124.89 26.9747L124.319 27.425L122.209 29.0652L115.212 34.4362C115.057 34.5529 114.902 34.6697 114.76 34.7809L114.727 34.8031L114.693 34.7864L107.191 31.178L104.946 30.066L104.34 29.7602L104.182 29.6796L104.131 29.6462C104.131 29.6462 104.151 29.6462 104.188 29.6657L104.35 29.7352L104.967 30.0132L107.235 31.0752L114.75 34.6558H114.686L115.137 34.3111L122.155 28.9762L124.291 27.375L124.877 26.9441L125.031 26.8357C125.057 26.8153 125.074 26.806 125.083 26.8078Z" fill="#263238"/>
<path d="M129.864 33.8745C129.813 33.9268 129.758 33.9733 129.699 34.0135C129.588 34.1025 129.423 34.2276 129.208 34.386C128.78 34.7057 128.156 35.1561 127.379 35.7065C125.831 36.8185 123.669 38.3142 121.249 39.9155C120.039 40.7133 118.881 41.4667 117.789 42.0839C117.653 42.1645 117.516 42.2368 117.377 42.3007L117.17 42.4008L116.959 42.4786C116.687 42.5752 116.407 42.6413 116.123 42.676C115.612 42.739 115.096 42.7146 114.593 42.6037C114.179 42.5146 113.776 42.3766 113.391 42.1923C113.218 42.12 113.068 42.0283 112.924 41.956C112.779 41.8837 112.666 41.7947 112.547 41.7225C112.325 41.5723 112.157 41.4445 112.049 41.3611C111.99 41.3198 111.935 41.2733 111.884 41.2221C111.947 41.2561 112.007 41.2951 112.064 41.3388C112.178 41.4222 112.348 41.5334 112.58 41.6752L112.96 41.8948C113.104 41.9615 113.256 42.0505 113.427 42.12C113.81 42.2925 114.21 42.4211 114.619 42.5036C115.685 42.7364 116.795 42.5448 117.74 41.9643C118.821 41.3472 119.977 40.5743 121.187 39.7904C123.605 38.1919 125.769 36.7018 127.335 35.6204L129.188 34.336L129.691 33.9885C129.746 33.9461 129.804 33.908 129.864 33.8745Z" fill="#263238"/>
<path d="M130.952 26.2128C130.936 26.2351 130.709 26.0127 130.278 25.7652C129.721 25.438 129.098 25.2614 128.463 25.2508C127.828 25.2401 127.2 25.3957 126.633 25.7041C126.197 25.9376 125.962 26.1517 125.947 26.1294C125.931 26.1072 125.996 26.0627 126.101 25.9682C126.253 25.8331 126.416 25.714 126.589 25.6123C127.164 25.2739 127.81 25.0997 128.465 25.1064C129.12 25.1198 129.761 25.3162 130.325 25.6763C130.495 25.7833 130.656 25.9071 130.805 26.046C130.908 26.1461 130.96 26.2073 130.952 26.2128Z" fill="#263238"/>
<path d="M130.325 23.8581C130.23 23.8998 130.132 23.9306 130.031 23.9499C129.84 23.9999 129.561 24.0611 129.213 24.1222C127.396 24.4393 125.542 24.4149 123.733 24.05C123.387 23.9805 123.111 23.9137 122.92 23.8554C122.82 23.835 122.722 23.8024 122.629 23.7581C122.731 23.7588 122.832 23.7738 122.931 23.8025C123.124 23.8415 123.403 23.8915 123.751 23.9499C124.652 24.0996 125.562 24.1823 126.473 24.1973C127.385 24.2056 128.296 24.1471 129.2 24.0222C129.548 23.9721 129.827 23.9276 130.021 23.8943C130.12 23.8684 130.223 23.8563 130.325 23.8581Z" fill="#263238"/>
<path d="M126.439 42.2979C126.581 42.5621 126.707 42.8361 126.816 43.118C127.035 43.6295 127.348 44.33 127.717 45.0945C128.085 45.859 128.436 46.5374 128.694 47.0405C128.848 47.2972 128.983 47.5657 129.099 47.844C128.918 47.6097 128.755 47.3585 128.614 47.0934C128.333 46.6152 127.964 45.9397 127.595 45.1724C127.226 44.4051 126.927 43.6934 126.728 43.1708C126.606 42.8907 126.509 42.5983 126.439 42.2979Z" fill="#263238"/>
<path d="M116.265 58.0411C116.48 57.6533 116.653 57.2401 116.781 56.8095C116.86 56.3674 116.893 55.9169 116.879 55.4668C117.007 55.9142 117.019 56.3912 116.912 56.8453C116.806 57.2994 116.585 57.7132 116.275 58.0411H116.265Z" fill="#263238"/>
<path d="M120.973 56.8401C121.03 56.9731 121.056 57.1192 121.048 57.2654C121.058 57.617 121.002 57.9671 120.883 58.2945C120.763 58.6219 120.583 58.9197 120.354 59.1697C120.176 59.3588 120.042 59.4477 120.031 59.4255C120.332 59.076 120.578 58.676 120.759 58.2412C120.899 57.7895 120.972 57.3165 120.973 56.8401Z" fill="#263238"/>
<path d="M125.625 58.0854C125.692 58.6279 125.646 59.1799 125.488 59.7002C125.33 60.2205 125.066 60.6958 124.714 61.0906C124.969 60.6341 125.185 60.154 125.361 59.6561C125.492 59.1419 125.58 58.6163 125.625 58.0854Z" fill="#263238"/>
<path d="M128.809 59.0864C128.871 59.2479 128.906 59.4202 128.912 59.5952C128.986 60.439 128.836 61.2882 128.481 62.0443C128.418 62.206 128.326 62.3525 128.21 62.4752C128.431 61.945 128.604 61.3929 128.726 60.8267C128.804 60.2507 128.831 59.668 128.809 59.0864Z" fill="#263238"/>
</svg>
