<svg width="136" height="122" viewBox="0 0 136 122" fill="none" xmlns="http://www.w3.org/2000/svg">
<g clip-path="url(#clip0_1412_10546)">
<path d="M134.918 33.5801L141.999 123.713H134.918V33.5801Z" fill="#E0E0E0"/>
<path d="M133.918 34.5801H31.9766V124.713H133.918V34.5801Z" fill="#FAFAFA"/>
<path d="M134.918 33.5801H32.9766V55.7642H134.918V33.5801Z" fill="#B23948"/>
<path d="M32.9775 33.5721L134.919 33.5071H134.97V33.5721C134.97 60.6306 134.97 91.3164 134.97 123.694V123.775H134.91L32.9684 123.762H32.918V123.705C32.9477 69.1296 32.9684 34.0493 32.9684 33.5721C32.9684 34.0493 32.9867 69.1296 33.0164 123.705L32.9684 123.648L134.91 123.634L134.851 123.705C134.851 91.3218 134.851 60.6414 134.851 33.583L134.905 33.6453L32.9775 33.5721Z" fill="#263238"/>
<path d="M135.012 55.4198C135.012 55.4605 112.044 55.4903 83.7126 55.4903C55.3811 55.4903 32.4131 55.4605 32.4131 55.4198C32.4131 55.3792 55.3765 55.3494 83.7126 55.3494C112.049 55.3494 135.012 55.3819 135.012 55.4198Z" fill="#263238"/>
<path d="M124 85H106.5C105.368 85 103 86.0449 103 90.2961C103 94.5472 105.368 95 106.5 95H124C125.132 95 127 94.5472 127 90.2961C127 86.0449 125.132 85 124 85Z" fill="#B23948"/>
<path d="M46 98H44C42.4559 98 39 99.5512 39 103.5C39 107.449 41.9559 109 43.5 109H46.5C48.0441 109 51 107.449 51 103.5C51 99.5512 47.5441 98 46 98Z" fill="#B23948"/>
<path d="M49.2351 40.0485C50.3848 40.0485 51.3168 38.9452 51.3168 37.5842C51.3168 36.2232 50.3848 35.1199 49.2351 35.1199C48.0854 35.1199 47.1533 36.2232 47.1533 37.5842C47.1533 38.9452 48.0854 40.0485 49.2351 40.0485Z" fill="#263238"/>
<path d="M49.2347 40.1841C48.8002 40.1846 48.3754 40.0326 48.0139 39.7472C47.6524 39.4619 47.3706 39.056 47.204 38.581C47.0374 38.106 46.9936 37.5832 47.0781 37.0787C47.1625 36.5742 47.3715 36.1107 47.6786 35.7468C47.9857 35.3829 48.377 35.1351 48.8031 35.0345C49.2292 34.934 49.6709 34.9853 50.0723 35.182C50.4738 35.3787 50.8169 35.7119 51.0584 36.1395C51.2998 36.5671 51.4287 37.0699 51.4287 37.5842C51.428 38.2731 51.1968 38.9335 50.7855 39.4208C50.3743 39.9082 49.8166 40.1826 49.2347 40.1841ZM49.2347 35.2582C48.8454 35.2577 48.4647 35.3938 48.1409 35.6495C47.817 35.9052 47.5645 36.2689 47.4153 36.6945C47.2662 37.1201 47.227 37.5886 47.3028 38.0406C47.3787 38.4926 47.5661 38.9078 47.8413 39.2336C48.1166 39.5594 48.4673 39.7813 48.8492 39.8711C49.231 39.9608 49.6267 39.9145 49.9863 39.7379C50.3458 39.5613 50.6531 39.2624 50.8691 38.879C51.085 38.4956 51.2001 38.045 51.1996 37.5842C51.199 36.9675 50.9918 36.3763 50.6234 35.9403C50.2551 35.5042 49.7556 35.2589 49.2347 35.2582Z" fill="#263238"/>
<path d="M66.3972 40.0485C67.5469 40.0485 68.4789 38.9452 68.4789 37.5842C68.4789 36.2232 67.5469 35.1199 66.3972 35.1199C65.2475 35.1199 64.3154 36.2232 64.3154 37.5842C64.3154 38.9452 65.2475 40.0485 66.3972 40.0485Z" fill="#263238"/>
<path d="M66.3974 40.1841C65.9631 40.1841 65.5384 40.0316 65.1773 39.7459C64.8161 39.4602 64.5346 39.0542 64.3684 38.5791C64.2021 38.1041 64.1586 37.5813 64.2434 37.077C64.3281 36.5727 64.5373 36.1094 64.8444 35.7459C65.1516 35.3823 65.5429 35.1346 65.969 35.0343C66.395 34.934 66.8366 34.9855 67.2379 35.1823C67.6392 35.3791 67.9822 35.7123 68.2236 36.1398C68.4649 36.5674 68.5937 37.07 68.5937 37.5842C68.5931 38.2735 68.3615 38.9344 67.9498 39.4218C67.538 39.9092 66.9797 40.1834 66.3974 40.1841ZM66.3974 35.2582C66.0082 35.2582 65.6278 35.3948 65.3043 35.6508C64.9807 35.9068 64.7285 36.2707 64.5797 36.6964C64.4309 37.1221 64.3921 37.5904 64.4682 38.0422C64.5443 38.4941 64.7318 38.909 65.0072 39.2346C65.2825 39.5601 65.6333 39.7817 66.015 39.8713C66.3968 39.9608 66.7924 39.9143 67.1519 39.7376C67.5113 39.561 67.8184 39.2621 68.0342 38.8787C68.2501 38.4954 68.3651 38.0449 68.3647 37.5842C68.3635 36.9673 68.1557 36.3761 67.787 35.9401C67.4183 35.5041 66.9186 35.2589 66.3974 35.2582Z" fill="#263238"/>
<path d="M83.5603 40.0485C84.71 40.0485 85.642 38.9452 85.642 37.5842C85.642 36.2232 84.71 35.1199 83.5603 35.1199C82.4105 35.1199 81.4785 36.2232 81.4785 37.5842C81.4785 38.9452 82.4105 40.0485 83.5603 40.0485Z" fill="#263238"/>
<path d="M83.5595 40.1841C83.1252 40.1841 82.7005 40.0316 82.3394 39.7459C81.9782 39.4602 81.6967 39.0542 81.5305 38.5791C81.3642 38.1041 81.3207 37.5813 81.4055 37.077C81.4902 36.5727 81.6994 36.1094 82.0066 35.7459C82.3137 35.3823 82.705 35.1346 83.1311 35.0343C83.5571 34.934 83.9987 34.9855 84.4 35.1823C84.8013 35.3791 85.1443 35.7123 85.3857 36.1398C85.627 36.5674 85.7558 37.07 85.7558 37.5842C85.7552 38.2735 85.5236 38.9344 85.1119 39.4218C84.7001 39.9092 84.1418 40.1834 83.5595 40.1841ZM83.5595 35.2582C83.1704 35.2582 82.7899 35.3948 82.4664 35.6508C82.1428 35.9068 81.8907 36.2707 81.7418 36.6964C81.593 37.1221 81.5542 37.5904 81.6303 38.0422C81.7064 38.4941 81.8939 38.909 82.1693 39.2346C82.4447 39.5601 82.7954 39.7817 83.1772 39.8713C83.5589 39.9608 83.9545 39.9143 84.314 39.7376C84.6734 39.561 84.9805 39.2621 85.1964 38.8787C85.4122 38.4954 85.5272 38.0449 85.5268 37.5842C85.5262 36.9671 85.3186 36.3754 84.9498 35.9393C84.5809 35.5032 84.0809 35.2582 83.5595 35.2582Z" fill="#263238"/>
<path d="M100.724 40.0485C101.874 40.0485 102.806 38.9452 102.806 37.5842C102.806 36.2232 101.874 35.1199 100.724 35.1199C99.5746 35.1199 98.6426 36.2232 98.6426 37.5842C98.6426 38.9452 99.5746 40.0485 100.724 40.0485Z" fill="#263238"/>
<path d="M100.724 40.1841C100.289 40.1846 99.8646 40.0326 99.5031 39.7472C99.1417 39.4619 98.8598 39.056 98.6932 38.581C98.5267 38.106 98.4828 37.5832 98.5673 37.0787C98.6518 36.5742 98.8608 36.1107 99.1679 35.7468C99.4749 35.3829 99.8662 35.1351 100.292 35.0345C100.718 34.934 101.16 34.9853 101.562 35.182C101.963 35.3787 102.306 35.7119 102.548 36.1395C102.789 36.5671 102.918 37.0699 102.918 37.5842C102.917 38.2731 102.686 38.9335 102.275 39.4208C101.864 39.9082 101.306 40.1826 100.724 40.1841ZM100.724 35.2582C100.335 35.2577 99.954 35.3938 99.6301 35.6495C99.3063 35.9052 99.0538 36.2689 98.9046 36.6945C98.7554 37.1201 98.7163 37.5886 98.7921 38.0406C98.8679 38.4926 99.0553 38.9078 99.3306 39.2336C99.6059 39.5594 99.9566 39.7813 100.338 39.8711C100.72 39.9608 101.116 39.9145 101.476 39.7379C101.835 39.5613 102.142 39.2624 102.358 38.879C102.574 38.4956 102.689 38.045 102.689 37.5842C102.688 36.9675 102.481 36.3763 102.113 35.9403C101.744 35.5042 101.245 35.2589 100.724 35.2582Z" fill="#263238"/>
<path d="M117.886 40.0485C119.036 40.0485 119.968 38.9452 119.968 37.5842C119.968 36.2232 119.036 35.1199 117.886 35.1199C116.737 35.1199 115.805 36.2232 115.805 37.5842C115.805 38.9452 116.737 40.0485 117.886 40.0485Z" fill="#263238"/>
<path d="M117.887 40.1841C117.452 40.1841 117.028 40.0316 116.667 39.7459C116.305 39.4602 116.024 39.0542 115.858 38.5791C115.691 38.1041 115.648 37.5813 115.733 37.077C115.817 36.5727 116.027 36.1094 116.334 35.7459C116.641 35.3823 117.032 35.1346 117.458 35.0343C117.884 34.934 118.326 34.9855 118.727 35.1823C119.128 35.3791 119.471 35.7123 119.713 36.1398C119.954 36.5674 120.083 37.07 120.083 37.5842C120.082 38.2735 119.851 38.9344 119.439 39.4218C119.027 39.9092 118.469 40.1834 117.887 40.1841ZM117.887 35.2582C117.498 35.2582 117.117 35.3948 116.794 35.6508C116.47 35.9068 116.218 36.2707 116.069 36.6964C115.92 37.1221 115.881 37.5904 115.957 38.0422C116.034 38.4941 116.221 38.909 116.496 39.2346C116.772 39.5601 117.123 39.7817 117.504 39.8713C117.886 39.9608 118.282 39.9143 118.641 39.7376C119.001 39.561 119.308 39.2621 119.524 38.8787C119.739 38.4954 119.854 38.0449 119.854 37.5842C119.853 36.9673 119.645 36.3761 119.276 35.9401C118.908 35.5041 118.408 35.2589 117.887 35.2582Z" fill="#263238"/>
<path d="M42.6466 60.2212V65.1227H42.0604V60.8312H41.126V60.2212H42.6466Z" fill="#263238"/>
<path d="M57.1475 64.5126V65.1226H54.1703V64.6481L55.8558 62.7206C56.2955 62.2164 56.378 61.9073 56.378 61.601C56.378 61.0967 56.0757 60.7877 55.4963 60.7877C55.2963 60.7759 55.0966 60.8187 54.9128 60.9127C54.729 61.0067 54.5658 61.1494 54.4359 61.3299L54.0352 60.9178C54.2251 60.6688 54.4595 60.4729 54.7213 60.3445C54.9832 60.216 55.2659 60.1581 55.5489 60.175C56.4123 60.175 56.9688 60.7009 56.9688 61.5305C56.9688 62.0076 56.8498 62.4332 56.2818 63.0703L55.0153 64.5126H57.1475Z" fill="#263238"/>
<path d="M69.6467 63.6804C69.6467 64.5073 69.1314 65.1796 68.0802 65.1796C67.5299 65.1985 66.9915 64.9873 66.5596 64.5832L66.8298 64.041C67.1781 64.3917 67.6231 64.5788 68.0802 64.5669C68.7009 64.5669 69.0558 64.2308 69.0558 63.6994C69.0558 63.168 68.7421 62.8427 68.0321 62.8427H67.7001V62.3547L68.7421 60.842H66.7474V60.2212H69.4818V60.6983L68.3986 62.2788C69.2276 62.371 69.6467 62.9241 69.6467 63.6804Z" fill="#263238"/>
<path d="M83.5663 63.919H82.7784V65.1227H82.2059V63.919H79.9043V63.4283L82.0227 60.2212H82.6616L80.6326 63.3171H82.2242V62.2517H82.7784V63.3171H83.5663V63.919Z" fill="#263238"/>
<path d="M95.6177 63.6642C95.6177 64.51 95.1093 65.1905 94.049 65.1905C93.499 65.2066 92.9614 64.9958 92.5283 64.5941L92.8008 64.0519C93.1469 64.4016 93.5895 64.5887 94.0444 64.5778C94.6696 64.5778 95.0246 64.2335 95.0246 63.7022C95.0246 63.1708 94.7292 62.8048 93.7719 62.8048H92.8306L93.0596 60.2429H95.3956V60.8529H93.5635L93.449 62.2084H93.907C95.1322 62.1759 95.6177 62.7831 95.6177 63.6642Z" fill="#263238"/>
<path d="M108.77 63.6314C108.77 64.5775 108.124 65.1794 107.302 65.1794C106.191 65.1794 105.563 64.2956 105.563 62.7395C105.563 61.0668 106.363 60.1695 107.522 60.1695C107.88 60.1544 108.235 60.2536 108.55 60.4568L108.321 60.999C108.081 60.8322 107.806 60.7512 107.528 60.7659C106.688 60.7659 106.154 61.3894 106.154 62.6148C106.151 62.6735 106.151 62.7323 106.154 62.791C106.292 62.575 106.472 62.403 106.68 62.2903C106.887 62.1776 107.115 62.128 107.343 62.1458C108.174 62.1458 108.77 62.7286 108.77 63.6314ZM108.195 63.6585C108.195 63.0838 107.828 62.7151 107.249 62.7151C106.67 62.7151 106.296 63.1217 106.296 63.6639C106.296 64.2061 106.64 64.6101 107.279 64.6101C107.817 64.6128 108.195 64.2414 108.195 63.6639V63.6585Z" fill="#263238"/>
<path d="M121.375 60.2212V60.6983L119.701 65.1227H119.073L120.711 60.8312H118.819V61.7068H118.251V60.2212H121.375Z" fill="#263238"/>
<path d="M44.629 76.6768C44.629 77.566 43.99 78.1191 42.9778 78.1191C41.9655 78.1191 41.338 77.5769 41.338 76.6768C41.3343 76.4125 41.4033 76.154 41.5347 75.9402C41.6661 75.7265 41.8527 75.5692 42.0663 75.4921C41.8903 75.4067 41.7405 75.2597 41.637 75.0707C41.5334 74.8818 41.4811 74.6599 41.4869 74.4348C41.4869 73.6215 42.0846 73.1064 42.9778 73.1064C43.8709 73.1064 44.4801 73.6161 44.4801 74.4348C44.4851 74.6608 44.4316 74.8832 44.3268 75.0721C44.222 75.2611 44.071 75.4076 43.8938 75.4921C44.1085 75.5681 44.2964 75.7249 44.4291 75.9387C44.5617 76.1525 44.6319 76.4116 44.629 76.6768ZM44.0358 76.6551C44.0358 76.1129 43.6351 75.7795 42.9778 75.7795C42.3205 75.7795 41.9312 76.1157 41.9312 76.6551C41.9312 77.1946 42.3205 77.5525 42.9778 77.5525C43.6351 77.5525 44.0358 77.1973 44.0358 76.6443V76.6551ZM42.0732 74.4647C42.0732 74.9472 42.4098 75.2481 42.9778 75.2481C43.5457 75.2481 43.8938 74.9472 43.8938 74.4647C43.8938 73.9821 43.5274 73.6731 42.9778 73.6731C42.4281 73.6731 42.0732 73.9658 42.0732 74.4538V74.4647Z" fill="#263238"/>
<path d="M57.3188 75.538C57.3188 77.2107 56.5195 78.1081 55.3584 78.1081C55 78.1245 54.6445 78.0252 54.3301 77.8207L54.5592 77.2785C54.8014 77.4445 55.0788 77.5245 55.3584 77.5089C56.1989 77.5089 56.7325 76.8854 56.7325 75.66V75.4838C56.5946 75.701 56.413 75.8738 56.2041 75.9865C55.9953 76.0992 55.766 76.1482 55.5371 76.1291C54.7149 76.1291 54.124 75.5489 54.124 74.6434C54.124 73.7379 54.763 73.0982 55.5851 73.0982C56.6913 73.0954 57.3188 73.9657 57.3188 75.538ZM56.5905 74.6082C56.5905 74.1039 56.247 73.662 55.6012 73.662C55.063 73.662 54.6851 74.0335 54.6851 74.6136C54.6851 75.1938 55.0447 75.5597 55.6241 75.5597C56.2035 75.5597 56.5905 75.145 56.5905 74.6082Z" fill="#263238"/>
<path d="M68.0968 73.1523V78.0565H67.5129V73.7596H66.5762V73.1523H68.0968Z" fill="#263238"/>
<path d="M69.0127 75.5924C69.0127 73.9956 69.7341 73.0874 70.7028 73.0874C71.6716 73.0874 72.3907 73.9956 72.3907 75.5924C72.3907 77.1891 71.667 78.1 70.7028 78.1C69.7387 78.1 69.0127 77.1973 69.0127 75.5924ZM71.7975 75.5924C71.7975 74.3399 71.3395 73.7082 70.7028 73.7082C70.0662 73.7082 69.6036 74.3399 69.6036 75.5924C69.6036 76.8448 70.0616 77.4901 70.7028 77.4901C71.3441 77.4901 71.7884 76.8557 71.7884 75.5924H71.7975Z" fill="#263238"/>
<path d="M81.2463 73.1523V78.0565H80.6623V73.7596H79.7256V73.1523H81.2463Z" fill="#263238"/>
<path d="M83.4406 73.1523V78.0565H82.8543V73.7596H81.9199V73.1523H83.4406Z" fill="#263238"/>
<path d="M93.9953 73.1523V78.0565H93.409V73.7596H92.4746V73.1523H93.9953Z" fill="#263238"/>
<path d="M97.8109 77.4439V78.0539H94.8337V77.5768L96.5193 75.6493C96.9567 75.145 97.0391 74.836 97.0391 74.5296C97.0391 74.0254 96.7391 73.7163 96.1574 73.7163C95.9577 73.7042 95.7583 73.7468 95.5748 73.8408C95.3912 73.9348 95.2285 74.0778 95.0994 74.2585L94.6963 73.8437C94.8868 73.595 95.1217 73.3996 95.3839 73.2715C95.6461 73.1435 95.9291 73.0862 96.2124 73.1036C97.0758 73.1036 97.6323 73.6269 97.6323 74.4591C97.6323 74.9363 97.5132 75.3646 96.9452 76.0017L95.6788 77.4439H97.8109Z" fill="#263238"/>
<path d="M106.846 73.1523V78.0565H106.263V73.7596H105.328V73.1523H106.846Z" fill="#263238"/>
<path d="M110.585 76.6089C110.585 77.4357 110.07 78.108 109.019 78.108C108.469 78.1277 107.93 77.9175 107.498 77.5143L107.768 76.9721C108.117 77.321 108.562 77.507 109.019 77.4954C109.639 77.4954 109.994 77.1592 109.994 76.6278C109.994 76.0965 109.681 75.7739 108.971 75.7739H108.632V75.2832L109.674 73.7705H107.679V73.1523H110.413V73.6295L109.33 75.2127C110.166 75.2995 110.585 75.8633 110.585 76.6089Z" fill="#263238"/>
<path d="M119.641 73.1523V78.0565H119.055V73.7596H118.12V73.1523H119.641Z" fill="#263238"/>
<path d="M124.149 76.8474H123.363V78.0538H122.788V76.8474H120.498V76.3567L122.603 73.1523H123.242L121.213 76.2483H122.804V75.1829H123.361V76.2483H124.146L124.149 76.8474Z" fill="#263238"/>
<path d="M42.6466 87.4204V92.3246H42.0604V88.0304H41.126V87.4204H42.6466Z" fill="#263238"/>
<path d="M46.4576 90.8527C46.4576 91.7012 45.9492 92.379 44.8888 92.379C44.3392 92.3954 43.8017 92.1856 43.3682 91.7853L43.6407 91.2431C43.9878 91.5905 44.4298 91.7765 44.8842 91.7663C45.5117 91.7663 45.8667 91.4247 45.8667 90.8906C45.8667 90.3566 45.569 89.996 44.6117 89.996H43.6705L43.8995 87.4314H46.2354V88.0414H44.4033L44.2911 89.3969H44.7491C45.9721 89.3752 46.4576 89.9852 46.4576 90.8527Z" fill="#263238"/>
<path d="M55.5187 87.4204V92.3246H54.9324V88.0304H53.998V87.4204H55.5187Z" fill="#263238"/>
<path d="M59.6232 90.8311C59.6232 91.7773 58.9774 92.3791 58.1552 92.3791C57.0422 92.3791 56.417 91.498 56.417 89.9392C56.417 88.2638 57.214 87.3692 58.3751 87.3692C58.7335 87.3527 59.089 87.4521 59.4034 87.6566L59.1743 88.1988C58.9346 88.0329 58.6593 87.9528 58.3819 87.9683C57.5415 87.9683 57.0078 88.5918 57.0078 89.8172C57.0078 89.8714 57.0078 89.9284 57.0078 89.9907C57.1456 89.7748 57.3266 89.603 57.5345 89.4909C57.7425 89.3787 57.9708 89.3296 58.1987 89.3482C59.0346 89.3482 59.6232 89.9284 59.6232 90.8311ZM59.0484 90.861C59.0484 90.2862 58.682 89.9148 58.1025 89.9148C57.5231 89.9148 57.1498 90.3269 57.1498 90.8664C57.1498 91.4059 57.4934 91.8125 58.1323 91.8125C58.6797 91.8125 59.0575 91.4411 59.0575 90.861H59.0484Z" fill="#263238"/>
<path d="M68.0968 87.4204V92.3246H67.5129V88.0304H66.5762V87.4204H68.0968Z" fill="#0C0C0C"/>
<path d="M72.0202 87.4204V87.8975L70.3461 92.3246H69.7186L71.3584 88.0304H69.4713V88.906H68.9033V87.4204H72.0202Z" fill="black"/>
<path d="M81.2463 87.4204V92.3246H80.6623V88.0304H79.7256V87.4204H81.2463Z" fill="#020202"/>
<path d="M85.42 90.9366C85.42 91.8258 84.7811 92.3789 83.7688 92.3789C82.7566 92.3789 82.1291 91.8366 82.1291 90.9366C82.1251 90.6726 82.1941 90.4142 82.3255 90.2008C82.457 89.9875 82.6437 89.8308 82.8573 89.7546C82.6813 89.6683 82.5316 89.5208 82.4282 89.3314C82.3247 89.1421 82.2723 88.92 82.2779 88.6946C82.2779 87.8813 82.8757 87.3662 83.7688 87.3662C84.662 87.3662 85.2712 87.8759 85.2712 88.6946C85.276 88.9209 85.2224 89.1435 85.1177 89.3329C85.013 89.5222 84.862 89.6693 84.6849 89.7546C84.8994 89.8301 85.0872 89.9864 85.2199 90.1997C85.3526 90.413 85.4228 90.6717 85.42 90.9366ZM84.8269 90.9149C84.8269 90.3727 84.4261 90.0393 83.7688 90.0393C83.1115 90.0393 82.7222 90.3754 82.7222 90.9149C82.7222 91.4544 83.1115 91.8122 83.7688 91.8122C84.4261 91.8122 84.8269 91.4679 84.8269 90.9149ZM82.8642 88.7244C82.8642 89.207 83.2009 89.5079 83.7688 89.5079C84.3368 89.5079 84.6849 89.207 84.6849 88.7244C84.6849 88.2419 84.3185 87.9328 83.7688 87.9328C83.2192 87.9328 82.8642 88.2337 82.8642 88.7244Z" fill="black"/>
<path d="M93.9953 87.4204V92.3246H93.409V88.0304H92.4746V87.4204H93.9953Z" fill="#040404"/>
<path d="M97.9835 89.8088C97.9835 91.4842 97.1842 92.3788 96.0254 92.3788C95.667 92.3953 95.3115 92.2959 94.9971 92.0915L95.2261 91.5493C95.4683 91.7155 95.7458 91.7955 96.0254 91.7797C96.8636 91.7797 97.3995 91.1562 97.3995 89.9308V89.7573C97.2614 89.974 97.0796 90.1463 96.8708 90.2585C96.662 90.3707 96.4328 90.4193 96.204 90.3998C95.3819 90.3998 94.791 89.8196 94.791 88.9169C94.791 87.9707 95.43 87.3689 96.2521 87.3689C97.356 87.3662 97.9835 88.2473 97.9835 89.8088ZM97.2552 88.8762C97.2552 88.372 96.914 87.9301 96.2682 87.9301C95.73 87.9301 95.3521 88.3015 95.3521 88.8816C95.3521 89.4618 95.7139 89.8278 96.2934 89.8278C96.8728 89.8278 97.2552 89.4184 97.2552 88.8762Z" fill="black"/>
<path d="M108.475 91.7148V92.3248H105.498V91.8585L107.183 89.9337C107.621 89.4294 107.703 89.1204 107.703 88.8113C107.703 88.3071 107.401 87.998 106.821 87.998C106.622 87.986 106.422 88.0287 106.239 88.1228C106.055 88.2168 105.893 88.3596 105.763 88.5402L105.36 88.1254C105.551 87.8769 105.785 87.6815 106.047 87.5535C106.309 87.4255 106.591 87.3681 106.874 87.3853C107.74 87.3853 108.294 87.9085 108.294 88.7408C108.294 89.2179 108.177 89.6463 107.607 90.2834L106.343 91.7148H108.475Z" fill="white"/>
<path d="M108.941 89.8712C108.941 88.2744 109.663 87.3662 110.634 87.3662C111.605 87.3662 112.319 88.2744 112.319 89.8712C112.319 91.468 111.598 92.3789 110.634 92.3789C109.67 92.3789 108.941 91.468 108.941 89.8712ZM111.729 89.8712C111.729 88.6187 111.27 87.9897 110.634 87.9897C109.997 87.9897 109.532 88.6187 109.532 89.8712C109.532 91.1237 109.99 91.7553 110.634 91.7553C111.277 91.7553 111.729 91.1264 111.729 89.8712Z" fill="white"/>
<path d="M121.267 91.7148V92.3248H118.29V91.8585L119.975 89.9337C120.413 89.4295 120.495 89.1204 120.495 88.8114C120.495 88.3071 120.195 87.9981 119.616 87.9981C119.416 87.9861 119.216 88.0288 119.032 88.1228C118.848 88.2168 118.685 88.3597 118.555 88.5403L118.152 88.1255C118.343 87.8768 118.578 87.6813 118.84 87.5533C119.102 87.4253 119.385 87.3679 119.668 87.3854C120.532 87.3854 121.088 87.9086 121.088 88.7409C121.088 89.218 120.969 89.6464 120.401 90.2834L119.135 91.7257L121.267 91.7148Z" fill="white"/>
<path d="M123.037 87.4204V92.3246H122.451V88.0304H121.517V87.4204H123.037Z" fill="white"/>
<path d="M44.2783 105.852V106.462H41.3011V105.985L42.9867 104.06C43.4264 103.556 43.5088 103.247 43.5088 102.938C43.5088 102.434 43.2065 102.125 42.6271 102.125C42.4271 102.113 42.2275 102.156 42.0437 102.25C41.8598 102.344 41.6967 102.487 41.5668 102.667L41.166 102.255C41.356 102.006 41.5904 101.81 41.8522 101.682C42.114 101.553 42.3967 101.495 42.6798 101.512C43.5432 101.512 44.0997 102.038 44.0997 102.868C44.0997 103.342 43.9806 103.77 43.4127 104.407L42.1462 105.85L44.2783 105.852Z" fill="white"/>
<path d="M47.6699 105.853V106.463H44.6927V105.985L46.3783 104.061C46.818 103.556 46.9004 103.247 46.9004 102.938C46.9004 102.434 46.5981 102.125 46.0187 102.125C45.8187 102.113 45.619 102.156 45.4351 102.25C45.2513 102.344 45.0882 102.487 44.9584 102.667L44.5576 102.255C44.7474 102.006 44.9817 101.81 45.2436 101.681C45.5055 101.553 45.7883 101.495 46.0714 101.512C46.9348 101.512 47.4913 102.038 47.4913 102.868C47.4913 103.342 47.3722 103.771 46.8043 104.408L45.5378 105.85L47.6699 105.853Z" fill="white"/>
<path d="M57.1475 105.852V106.462H54.1703V105.985L55.8558 104.06C56.2955 103.556 56.378 103.247 56.378 102.938C56.378 102.434 56.0757 102.125 55.4963 102.125C55.2963 102.113 55.0966 102.156 54.9128 102.25C54.729 102.344 54.5658 102.487 54.4359 102.667L54.0352 102.255C54.2251 102.006 54.4595 101.81 54.7213 101.682C54.9832 101.553 55.2659 101.495 55.5489 101.512C56.4123 101.512 56.9688 102.038 56.9688 102.868C56.9688 103.342 56.8498 103.77 56.2818 104.407L55.0153 105.85L57.1475 105.852Z" fill="black"/>
<path d="M60.4654 105.02C60.4654 105.847 59.9501 106.52 58.8966 106.52C58.3464 106.538 57.8083 106.326 57.376 105.923L57.6485 105.381C57.9967 105.73 58.4404 105.917 58.8966 105.907C59.5196 105.907 59.8745 105.571 59.8745 105.037C59.8745 104.503 59.5608 104.183 58.8508 104.183H58.5188V103.692L59.5608 102.179H57.5615V101.572H60.3097V102.046L59.2264 103.63C60.0463 103.711 60.4654 104.264 60.4654 105.02Z" fill="black"/>
<path d="M69.7256 105.852V106.462H66.7484V105.985L68.4363 104.06C68.8737 103.556 68.9561 103.247 68.9561 102.938C68.9561 102.434 68.6538 102.125 68.0744 102.125C67.8747 102.113 67.6754 102.156 67.4919 102.25C67.3084 102.344 67.1456 102.486 67.0164 102.667L66.6133 102.255C66.8032 102.006 67.0376 101.81 67.2995 101.682C67.5613 101.553 67.844 101.495 68.1271 101.512C68.9905 101.512 69.547 102.038 69.547 102.868C69.547 103.342 69.4302 103.77 68.8599 104.407L67.5935 105.85L69.7256 105.852Z" fill="#263238"/>
<path d="M73.7003 105.259H72.9057V106.463H72.3331V105.259H70.043V104.768L72.1614 101.561H72.8003L70.769 104.654H72.3721V103.592H72.9057V104.654H73.6935L73.7003 105.259Z" fill="#263238"/>
<path d="M44.2783 118.399V119.006H41.3011V118.532L42.9867 116.604C43.4264 116.1 43.5088 115.791 43.5088 115.485C43.5088 114.981 43.2065 114.671 42.6271 114.671C42.4271 114.659 42.2273 114.702 42.0434 114.796C41.8595 114.89 41.6964 115.033 41.5668 115.214L41.166 114.799C41.356 114.55 41.5904 114.354 41.8522 114.226C42.114 114.097 42.3967 114.039 42.6798 114.056C43.5432 114.056 44.0997 114.582 44.0997 115.412C44.0997 115.889 43.9806 116.314 43.4127 116.951L42.1462 118.396L44.2783 118.399Z" fill="#263238"/>
<path d="M47.8409 116.493C47.8409 118.166 47.0439 119.063 45.8828 119.063C45.5245 119.078 45.1693 118.979 44.8546 118.776L45.0836 118.234C45.3258 118.4 45.6033 118.48 45.8828 118.464C46.7233 118.464 47.2569 117.841 47.2569 116.615V116.439C47.119 116.656 46.9374 116.829 46.7286 116.942C46.5197 117.054 46.2904 117.103 46.0615 117.084C45.2393 117.084 44.6484 116.504 44.6484 115.599C44.6484 114.693 45.2874 114.051 46.1096 114.051C47.2157 114.048 47.8409 114.932 47.8409 116.493ZM47.1149 115.561C47.1149 115.056 46.7714 114.617 46.1256 114.617C45.5874 114.617 45.2095 114.989 45.2095 115.569C45.2095 116.149 45.5714 116.515 46.1508 116.515C46.7302 116.515 47.1149 116.1 47.1149 115.561Z" fill="#263238"/>
<path d="M57.0696 117.564C57.0696 118.391 56.5543 119.063 55.5008 119.063C54.9512 119.082 54.4137 118.871 53.9824 118.467L54.2527 117.925C54.6003 118.275 55.0444 118.462 55.5008 118.451C56.1237 118.451 56.4787 118.114 56.4787 117.583C56.4787 117.052 56.1649 116.729 55.455 116.729H55.1229V116.238L56.1649 114.726H54.1702V114.116H56.9047V114.593L55.8214 116.176C56.6459 116.257 57.0696 116.8 57.0696 117.564Z" fill="#263238"/>
<path d="M57.6191 116.556C57.6191 114.959 58.3428 114.048 59.3116 114.048C60.2803 114.048 60.9971 114.959 60.9971 116.556C60.9971 118.152 60.2757 119.063 59.3116 119.063C58.3474 119.063 57.6191 118.155 57.6191 116.556ZM60.4063 116.556C60.4063 115.303 59.9482 114.658 59.3116 114.658C58.6749 114.658 58.2123 115.289 58.2123 116.556C58.2123 117.822 58.6703 118.44 59.3116 118.44C59.9528 118.44 60.4063 117.811 60.4063 116.556Z" fill="#263238"/>
<path d="M69.6467 117.564C69.6467 118.391 69.1314 119.063 68.0802 119.063C67.5299 119.082 66.9915 118.871 66.5596 118.467L66.8298 117.925C67.1781 118.275 67.6231 118.463 68.0802 118.451C68.7009 118.451 69.0558 118.114 69.0558 117.583C69.0558 117.052 68.7421 116.729 68.0321 116.729H67.7001V116.238L68.7421 114.726H66.7474V114.116H69.4818V114.593L68.3986 116.176C69.2276 116.257 69.6467 116.8 69.6467 117.564Z" fill="#263238"/>
<path d="M71.4816 114.105V119.006H70.8953V114.715H69.9609V114.105H71.4816Z" fill="#263238"/>
<path d="M82.875 105.852V106.462H79.8978V105.985L81.5857 104.06C82.0231 103.556 82.1055 103.247 82.1055 102.938C82.1055 102.434 81.8032 102.125 81.2238 102.125C81.0241 102.113 80.8248 102.156 80.6413 102.25C80.4578 102.344 80.2951 102.486 80.1658 102.667L79.7627 102.255C79.9527 102.006 80.187 101.81 80.4489 101.682C80.7107 101.553 80.9934 101.495 81.2765 101.512C82.1399 101.512 82.6964 102.038 82.6964 102.868C82.6964 103.342 82.5773 103.77 82.0093 104.407L80.7429 105.85L82.875 105.852Z" fill="#263238"/>
<path d="M86.2639 104.991C86.2639 105.839 85.7555 106.52 84.6951 106.52C84.1459 106.535 83.6091 106.324 83.1768 105.923L83.447 105.381C83.7938 105.729 84.2358 105.916 84.6905 105.907C85.3181 105.907 85.673 105.563 85.673 105.031C85.673 104.5 85.3776 104.134 84.418 104.134H83.4768L83.7058 101.572H86.0417V102.16H84.2096L84.0974 103.516H84.5554C85.7784 103.516 86.2639 104.123 86.2639 104.991Z" fill="#263238"/>
<path d="M95.6221 105.853V106.463H92.6449V105.985L94.3304 104.061C94.7679 103.556 94.8526 103.247 94.8526 102.938C94.8526 102.434 94.5503 102.125 93.9709 102.125C93.7709 102.113 93.5712 102.156 93.3873 102.25C93.2034 102.344 93.0403 102.487 92.9105 102.667L92.5098 102.255C92.6995 102.006 92.9339 101.81 93.1958 101.681C93.4576 101.553 93.7404 101.495 94.0236 101.512C94.8869 101.512 95.4435 102.038 95.4435 102.868C95.4435 103.342 95.3244 103.771 94.7564 104.408L93.49 105.85L95.6221 105.853Z" fill="#263238"/>
<path d="M99.297 104.972C99.297 105.915 98.6512 106.519 97.829 106.519C96.716 106.519 96.0908 105.636 96.0908 104.08C96.0908 102.407 96.8878 101.51 98.0489 101.51C98.4073 101.493 98.7628 101.592 99.0772 101.797L98.8482 102.339C98.6084 102.173 98.3332 102.093 98.0558 102.109C97.2153 102.109 96.6817 102.732 96.6817 103.958C96.6784 104.016 96.6784 104.075 96.6817 104.134C96.8189 103.918 96.9995 103.746 97.207 103.633C97.4145 103.52 97.6425 103.471 97.8703 103.489C98.6993 103.486 99.297 104.058 99.297 104.972ZM98.7222 104.999C98.7222 104.424 98.3558 104.052 97.7764 104.052C97.197 104.052 96.8237 104.467 96.8237 105.007C96.8237 105.546 97.1672 105.95 97.8062 105.95C98.3443 105.956 98.7222 105.579 98.7222 104.999Z" fill="#263238"/>
<path d="M108.475 105.853V106.463H105.498V105.985L107.183 104.061C107.621 103.556 107.703 103.247 107.703 102.938C107.703 102.434 107.401 102.125 106.821 102.125C106.622 102.113 106.422 102.156 106.239 102.25C106.055 102.344 105.893 102.487 105.763 102.667L105.36 102.255C105.55 102.006 105.785 101.811 106.047 101.682C106.308 101.554 106.591 101.496 106.874 101.512C107.74 101.512 108.294 102.038 108.294 102.868C108.294 103.342 108.177 103.771 107.607 104.408L106.343 105.853H108.475Z" fill="#263238"/>
<path d="M111.961 101.561V102.036L110.287 106.463H109.659L111.297 102.16H109.405V103.036H108.837V101.553L111.961 101.561Z" fill="#263238"/>
<path d="M121.267 105.853V106.463H118.289V105.985L119.975 104.061C120.412 103.556 120.497 103.247 120.497 102.938C120.497 102.434 120.195 102.125 119.615 102.125C119.415 102.113 119.216 102.156 119.032 102.25C118.848 102.344 118.685 102.487 118.555 102.667L118.154 102.255C118.344 102.006 118.578 101.81 118.84 101.681C119.102 101.553 119.385 101.495 119.668 101.512C120.531 101.512 121.088 102.038 121.088 102.868C121.088 103.342 120.969 103.771 120.401 104.408L119.134 105.85L121.267 105.853Z" fill="#263238"/>
<path d="M125.019 105.075C125.019 105.964 124.38 106.519 123.37 106.519C122.36 106.519 121.731 105.964 121.731 105.075C121.727 104.811 121.796 104.552 121.928 104.339C122.059 104.126 122.245 103.969 122.459 103.893C122.283 103.807 122.133 103.66 122.03 103.471C121.926 103.282 121.874 103.06 121.879 102.835C121.879 102.022 122.475 101.504 123.37 101.504C124.266 101.504 124.873 102.014 124.873 102.835C124.877 103.061 124.823 103.283 124.718 103.472C124.613 103.66 124.463 103.807 124.286 103.893C124.5 103.969 124.688 104.125 124.82 104.338C124.952 104.552 125.022 104.81 125.019 105.075ZM124.428 105.056C124.428 104.513 124.025 104.18 123.37 104.18C122.715 104.18 122.321 104.516 122.321 105.056C122.321 105.595 122.713 105.95 123.37 105.95C124.028 105.95 124.435 105.609 124.435 105.056H124.428ZM122.463 102.862C122.463 103.345 122.8 103.646 123.38 103.646C123.959 103.646 124.296 103.345 124.296 102.862C124.296 102.38 123.929 102.071 123.38 102.071C122.83 102.071 122.463 102.372 122.463 102.862Z" fill="#263238"/>
<path d="M49.2342 37.6385C49.0698 37.6388 48.9069 37.6008 48.7549 37.5266C48.603 37.4524 48.4649 37.3434 48.3485 37.2059C48.2321 37.0684 48.1398 36.9051 48.0768 36.7254C48.0139 36.5456 47.9814 36.3529 47.9814 36.1583V28.8657C47.9821 28.4729 48.1143 28.0964 48.3492 27.8189C48.584 27.5414 48.9023 27.3855 49.2342 27.3855C49.5656 27.3862 49.8833 27.5424 50.1177 27.8198C50.352 28.0973 50.484 28.4733 50.4846 28.8657V36.1583C50.4846 36.5509 50.3528 36.9274 50.1183 37.2049C49.8838 37.4825 49.5658 37.6385 49.2342 37.6385Z" fill="#E0E0E0"/>
<path d="M49.2354 37.6385C49.2354 37.6385 49.3063 37.6385 49.4369 37.6033C49.6825 37.5498 49.9087 37.4096 50.0857 37.201C50.2627 36.9924 50.3822 36.7253 50.4285 36.4348C50.4524 36.2101 50.4585 35.9832 50.4468 35.7571C50.4468 35.5131 50.4468 35.2555 50.4468 34.9872C50.4468 33.9028 50.4468 32.615 50.4331 31.1918C50.4331 30.4788 50.4331 29.7278 50.4331 28.9498C50.4401 28.7609 50.4156 28.5722 50.361 28.3945C50.3063 28.2168 50.2227 28.0536 50.1148 27.9142C50.0034 27.7709 49.8682 27.6565 49.7176 27.5783C49.567 27.5 49.4044 27.4596 49.2399 27.4596C49.0755 27.4596 48.9128 27.5 48.7622 27.5783C48.6116 27.6565 48.4764 27.7709 48.3651 27.9142C48.147 28.1967 48.0325 28.5701 48.0468 28.9525C48.0468 29.7305 48.0468 30.4815 48.0468 31.1945C48.0468 32.6205 48.0468 33.9055 48.0468 34.9899C48.0468 35.261 48.0468 35.5158 48.0468 35.7598C48.0363 35.9859 48.0424 36.2127 48.0651 36.4375C48.1112 36.7286 48.231 36.9961 48.4085 37.2048C48.586 37.4135 48.8128 37.5534 49.059 37.606C49.1895 37.6385 49.2605 37.6331 49.2605 37.6412C49.1922 37.6532 49.1228 37.6532 49.0544 37.6412C48.8553 37.6052 48.6666 37.5121 48.5048 37.3701C48.2439 37.1494 48.0631 36.8202 47.9987 36.4484C47.9632 36.2148 47.9449 35.9781 47.9437 35.7408C47.9437 35.4968 47.9437 35.2393 47.9437 34.9709C47.9437 33.8865 47.9437 32.5988 47.93 31.1755C47.93 30.4625 47.93 29.7115 47.93 28.9335C47.9147 28.5161 48.0399 28.1086 48.2781 27.8003C48.4005 27.6429 48.5492 27.5173 48.7148 27.4313C48.8804 27.3454 49.0592 27.301 49.2399 27.301C49.4207 27.301 49.5995 27.3454 49.7651 27.4313C49.9306 27.5173 50.0793 27.6429 50.2018 27.8003C50.4391 28.1092 50.5642 28.5163 50.5499 28.9335C50.5499 29.7115 50.5499 30.4625 50.5499 31.1755C50.5499 32.6015 50.5499 33.8865 50.5362 34.9709C50.5362 35.242 50.5362 35.4968 50.5362 35.7408C50.5427 35.9727 50.5328 36.2049 50.5064 36.4348C50.4428 36.8071 50.2618 37.1367 50.0003 37.3566C49.8391 37.4981 49.6512 37.5911 49.4529 37.6277C49.3813 37.6446 49.3079 37.6482 49.2354 37.6385Z" fill="#263238"/>
<path d="M66.3969 37.6385C66.2326 37.6388 66.0699 37.6008 65.918 37.5265C65.7662 37.4523 65.6282 37.3433 65.5121 37.2057C65.3959 37.0682 65.3038 36.9049 65.2411 36.7252C65.1783 36.5454 65.1462 36.3528 65.1465 36.1583V28.8657C65.1465 28.4731 65.2782 28.0966 65.5127 27.819C65.7472 27.5414 66.0653 27.3855 66.3969 27.3855C66.7285 27.3855 67.0466 27.5414 67.2811 27.819C67.5156 28.0966 67.6473 28.4731 67.6473 28.8657V36.1583C67.6476 36.3528 67.6155 36.5454 67.5528 36.7252C67.49 36.9049 67.3979 37.0682 67.2818 37.2057C67.1656 37.3433 67.0276 37.4523 66.8758 37.5265C66.7239 37.6008 66.5612 37.6388 66.3969 37.6385Z" fill="#E0E0E0"/>
<path d="M66.3979 37.6385C66.3979 37.6385 66.4689 37.6385 66.5994 37.6033C66.8452 37.5496 67.0716 37.4093 67.2489 37.2009C67.4263 36.9924 67.5463 36.7254 67.5933 36.4348C67.6149 36.2099 67.621 35.9832 67.6117 35.7571C67.6117 35.5131 67.6117 35.2555 67.6117 34.9872C67.6117 33.9028 67.6117 32.615 67.5979 31.1918C67.5979 30.4788 67.5979 29.7278 67.5979 28.9498C67.6049 28.7609 67.5804 28.5722 67.5258 28.3945C67.4712 28.2168 67.3875 28.0536 67.2796 27.9142C67.1686 27.7703 67.0334 27.6555 66.8828 27.5771C66.7322 27.4986 66.5693 27.4583 66.4047 27.4587C66.2405 27.459 66.078 27.4993 65.9275 27.5772C65.777 27.6551 65.6416 27.7689 65.5299 27.9114C65.3118 28.194 65.1973 28.5674 65.2116 28.9498C65.2116 29.7278 65.2116 30.4788 65.2116 31.1918C65.2116 32.6177 65.2116 33.9028 65.1978 34.9872C65.1978 35.2583 65.1978 35.5131 65.1978 35.7571C65.1885 35.9832 65.1946 36.2099 65.2162 36.4348C65.2632 36.7254 65.3832 36.9924 65.5606 37.2009C65.7379 37.4093 65.9643 37.5496 66.2101 37.6033C66.3406 37.6358 66.4116 37.6304 66.4116 37.6385C66.3433 37.6505 66.2738 37.6505 66.2055 37.6385C66.007 37.6028 65.819 37.5097 65.6582 37.3674C65.3959 37.1483 65.2148 36.8183 65.152 36.4457C65.1232 36.2124 65.1125 35.9764 65.12 35.7408C65.12 35.4968 65.12 35.2393 65.12 34.9709C65.12 33.8865 65.12 32.5988 65.1085 31.1755C65.1085 30.4625 65.1085 29.7115 65.1085 28.9335C65.0942 28.5163 65.2193 28.1092 65.4566 27.8003C65.5791 27.6429 65.7278 27.5173 65.8934 27.4313C66.0589 27.3454 66.2377 27.301 66.4185 27.301C66.5993 27.301 66.7781 27.3454 66.9436 27.4313C67.1092 27.5173 67.2579 27.6429 67.3804 27.8003C67.6186 28.1086 67.7437 28.5161 67.7285 28.9335C67.7285 29.7115 67.7285 30.4625 67.7285 31.1755C67.7285 32.6015 67.7285 33.8865 67.7285 34.9709C67.7285 35.242 67.7285 35.4968 67.7285 35.7408C67.7362 35.9727 67.7262 36.205 67.6987 36.4348C67.636 36.8075 67.4548 37.1374 67.1926 37.3566C67.0317 37.4988 66.8437 37.592 66.6452 37.6277C66.564 37.6485 66.4802 37.6522 66.3979 37.6385Z" fill="#263238"/>
<path d="M83.56 37.6385C83.2284 37.6385 82.9103 37.4825 82.6758 37.2049C82.4413 36.9274 82.3096 36.5509 82.3096 36.1583V28.8657C82.3102 28.4733 82.4421 28.0973 82.6765 27.8198C82.9108 27.5424 83.2285 27.3862 83.56 27.3855C83.8918 27.3855 84.2101 27.5414 84.445 27.8189C84.6799 28.0964 84.8121 28.4729 84.8127 28.8657V36.1583C84.8127 36.3529 84.7803 36.5456 84.7173 36.7254C84.6543 36.9051 84.562 37.0684 84.4457 37.2059C84.3293 37.3434 84.1912 37.4524 84.0392 37.5266C83.8872 37.6008 83.7244 37.6388 83.56 37.6385Z" fill="#E0E0E0"/>
<path d="M83.56 37.6383C83.56 37.6383 83.631 37.6383 83.7638 37.6031C84.0094 37.5496 84.2356 37.4094 84.4126 37.2008C84.5897 36.9923 84.7092 36.7252 84.7555 36.4347C84.7781 36.2098 84.7843 35.983 84.7738 35.7569C84.7738 35.5129 84.7738 35.2554 84.7738 34.987C84.7738 33.9026 84.7738 32.6149 84.7623 31.1916C84.7623 30.4786 84.7623 29.7276 84.7623 28.9496C84.7693 28.7607 84.7448 28.572 84.6902 28.3943C84.6356 28.2166 84.5519 28.0534 84.444 27.914C84.3329 27.7708 84.1978 27.6564 84.0475 27.5782C83.8971 27.5 83.7346 27.4596 83.5703 27.4596C83.406 27.4596 83.2436 27.5 83.0932 27.5782C82.9428 27.6564 82.8077 27.7708 82.6966 27.914C82.5879 28.0534 82.5036 28.217 82.4486 28.3952C82.3935 28.5734 82.3689 28.7627 82.376 28.9523C82.376 29.7304 82.376 30.4813 82.376 31.1943C82.376 32.6203 82.376 33.9053 82.3622 34.9897C82.3622 35.2608 82.3622 35.5156 82.3622 35.7596C82.3506 35.9857 82.3567 36.2126 82.3806 36.4374C82.4269 36.7279 82.5464 36.995 82.7234 37.2035C82.9004 37.4121 83.1266 37.5523 83.3722 37.6058C83.5027 37.6383 83.576 37.6329 83.5737 37.641C83.5054 37.653 83.436 37.653 83.3676 37.641C83.1693 37.6045 82.9815 37.5115 82.8203 37.3699C82.5587 37.15 82.3777 36.8204 82.3142 36.4482C82.2878 36.2183 82.2778 35.9861 82.2844 35.7542C82.2844 35.5102 82.2844 35.2527 82.2844 34.9843C82.2844 33.8999 82.2844 32.6121 82.2706 31.1889C82.2706 30.4759 82.2706 29.7249 82.2706 28.9469C82.2562 28.5292 82.3822 28.1217 82.621 27.8137C82.8039 27.5799 83.0431 27.4184 83.3062 27.3513C83.5693 27.2841 83.8435 27.3145 84.0914 27.4383C84.3394 27.5621 84.5492 27.7734 84.6922 28.0433C84.8351 28.3132 84.9044 28.6287 84.8906 28.9469C84.8906 29.7249 84.8906 30.4759 84.8906 31.1889C84.8906 32.6149 84.8906 33.8999 84.8768 34.9843C84.8768 35.2554 84.8768 35.5102 84.8768 35.7542C84.8841 35.986 84.8749 36.2182 84.8494 36.4482C84.7858 36.8204 84.6048 37.15 84.3432 37.3699C84.1814 37.512 83.9927 37.605 83.7936 37.641C83.7161 37.6554 83.6372 37.6545 83.56 37.6383Z" fill="#263238"/>
<path d="M100.724 37.6385C100.56 37.6388 100.397 37.6008 100.245 37.5266C100.093 37.4524 99.9551 37.3434 99.8387 37.2059C99.7224 37.0684 99.6301 36.9051 99.5671 36.7254C99.5041 36.5456 99.4717 36.3529 99.4717 36.1583V28.8657C99.4723 28.4729 99.6045 28.0964 99.8394 27.8189C100.074 27.5414 100.393 27.3855 100.724 27.3855C101.056 27.3862 101.374 27.5424 101.608 27.8198C101.842 28.0973 101.974 28.4733 101.975 28.8657V36.1583C101.975 36.5509 101.843 36.9274 101.609 37.2049C101.374 37.4825 101.056 37.6385 100.724 37.6385Z" fill="#E0E0E0"/>
<path d="M100.724 37.6384C100.724 37.6384 100.795 37.6384 100.926 37.6031C101.171 37.5497 101.398 37.4094 101.575 37.2009C101.752 36.9923 101.871 36.7252 101.917 36.4347C101.941 36.2099 101.947 35.983 101.936 35.7569C101.936 35.513 101.936 35.2554 101.936 34.987C101.936 33.9026 101.936 32.6149 101.922 31.1916C101.922 30.4786 101.922 29.7277 101.922 28.9496C101.929 28.7607 101.904 28.572 101.85 28.3943C101.795 28.2167 101.712 28.0534 101.604 27.914C101.492 27.7707 101.357 27.6564 101.206 27.5781C101.056 27.4999 100.893 27.4595 100.729 27.4595C100.564 27.4595 100.402 27.4999 100.251 27.5781C100.1 27.6564 99.9653 27.7707 99.8539 27.914C99.6359 28.1966 99.5214 28.57 99.5356 28.9523C99.5356 29.7304 99.5356 30.4813 99.5356 31.1943C99.5356 32.6203 99.5356 33.9053 99.5242 34.9897C99.5242 35.2608 99.5242 35.5157 99.5242 35.7597C99.5137 35.9858 99.5198 36.2125 99.5425 36.4374C99.5888 36.7279 99.7083 36.995 99.8853 37.2036C100.062 37.4122 100.288 37.5524 100.534 37.6058C100.667 37.6384 100.738 37.633 100.738 37.6411C100.67 37.653 100.6 37.653 100.532 37.6411C100.333 37.6051 100.144 37.512 99.9822 37.37C99.7213 37.1493 99.5405 36.8201 99.4761 36.4483C99.4505 36.2182 99.4413 35.9861 99.4486 35.7542C99.4486 35.5102 99.4486 35.2527 99.4486 34.9843C99.4486 33.8999 99.4486 32.6122 99.4348 31.1889C99.4348 30.4759 99.4348 29.725 99.4348 28.9469C99.4196 28.5295 99.5447 28.122 99.7829 27.8137C99.9054 27.6563 100.054 27.5307 100.22 27.4448C100.385 27.3588 100.564 27.3145 100.745 27.3145C100.926 27.3145 101.104 27.3588 101.27 27.4448C101.436 27.5307 101.584 27.6563 101.707 27.8137C101.944 28.1226 102.069 28.5297 102.055 28.9469C102.055 29.725 102.055 30.4759 102.055 31.1889C102.055 32.6149 102.055 33.8999 102.041 34.9843C102.041 35.2554 102.041 35.5102 102.041 35.7542C102.048 35.9862 102.038 36.2183 102.011 36.4483C101.948 36.8205 101.767 37.1501 101.505 37.37C101.344 37.5115 101.156 37.6045 100.958 37.6411C100.88 37.6556 100.801 37.6546 100.724 37.6384Z" fill="#263238"/>
<path d="M117.887 37.6385C117.723 37.6388 117.56 37.6008 117.408 37.5265C117.256 37.4523 117.118 37.3433 117.002 37.2057C116.886 37.0682 116.794 36.9049 116.731 36.7252C116.669 36.5454 116.636 36.3528 116.637 36.1583V28.8657C116.637 28.4731 116.768 28.0966 117.003 27.819C117.237 27.5414 117.556 27.3855 117.887 27.3855C118.219 27.3855 118.537 27.5414 118.771 27.819C119.006 28.0966 119.138 28.4731 119.138 28.8657V36.1583C119.138 36.3528 119.106 36.5454 119.043 36.7252C118.98 36.9049 118.888 37.0682 118.772 37.2057C118.656 37.3433 118.518 37.4523 118.366 37.5265C118.214 37.6008 118.051 37.6388 117.887 37.6385Z" fill="#E0E0E0"/>
<path d="M117.887 37.6384C117.887 37.6384 117.958 37.6384 118.089 37.6032C118.335 37.5495 118.561 37.4092 118.739 37.2008C118.916 36.9923 119.036 36.7253 119.083 36.4347C119.105 36.2098 119.111 35.9831 119.101 35.757C119.101 35.513 119.101 35.2554 119.101 34.987C119.101 33.9026 119.101 32.6149 119.088 31.1917C119.088 30.4787 119.088 29.7277 119.088 28.9497C119.095 28.7607 119.07 28.5721 119.015 28.3944C118.961 28.2167 118.877 28.0535 118.769 27.9141C118.658 27.7702 118.523 27.6554 118.372 27.577C118.222 27.4985 118.059 27.4582 117.894 27.4586C117.73 27.4589 117.568 27.4992 117.417 27.5771C117.267 27.655 117.131 27.7688 117.02 27.9113C116.801 28.1939 116.687 28.5673 116.701 28.9497C116.701 29.7277 116.701 30.4787 116.701 31.1917C116.701 32.6176 116.701 33.9026 116.687 34.987C116.687 35.2581 116.687 35.513 116.687 35.757C116.678 35.9831 116.684 36.2098 116.706 36.4347C116.753 36.7253 116.873 36.9923 117.05 37.2008C117.228 37.4092 117.454 37.5495 117.7 37.6032C117.83 37.6357 117.901 37.6303 117.901 37.6384C117.833 37.6504 117.763 37.6504 117.695 37.6384C117.497 37.6027 117.309 37.5096 117.148 37.3673C116.886 37.1482 116.704 36.8182 116.642 36.4456C116.614 36.2158 116.604 35.9835 116.612 35.7515C116.612 35.5076 116.612 35.25 116.612 34.9816C116.612 33.8972 116.612 32.6095 116.612 31.1862C116.612 30.4732 116.612 29.7223 116.612 28.9442C116.598 28.527 116.723 28.1199 116.96 27.811C117.082 27.6536 117.231 27.528 117.397 27.4421C117.562 27.3561 117.741 27.3118 117.922 27.3118C118.103 27.3118 118.281 27.3561 118.447 27.4421C118.613 27.528 118.761 27.6536 118.884 27.811C119.122 28.1193 119.247 28.5268 119.232 28.9442C119.232 29.7223 119.232 30.4732 119.232 31.1862C119.232 32.6122 119.232 33.8972 119.22 34.9816C119.22 35.2527 119.22 35.5076 119.22 35.7515C119.228 35.9835 119.218 36.2158 119.191 36.4456C119.128 36.8182 118.947 37.1482 118.684 37.3673C118.524 37.5096 118.336 37.6027 118.137 37.6384C118.055 37.656 117.97 37.656 117.887 37.6384Z" fill="#263238"/>
<path d="M33.1293 14.5164C33.2749 14.4113 33.3981 14.268 33.4895 14.0976C33.5809 13.9271 33.638 13.7341 33.6563 13.5335C33.6747 13.3328 33.6539 13.1298 33.5955 12.9402C33.537 12.7505 33.4426 12.5793 33.3194 12.4397C33.1293 12.2229 32.8774 12.09 32.6988 11.8569C32.5648 11.6508 32.4475 11.4302 32.3484 11.1981C32.1539 10.8483 31.8924 10.5577 31.5852 10.3499C31.278 10.1422 30.9338 10.0232 30.5804 10.0026C29.8675 9.96993 29.1694 10.2499 28.62 10.7888C28.4221 11.0193 28.1889 11.2033 27.933 11.331C27.6662 11.3867 27.3944 11.4004 27.1246 11.3716C26.8008 11.3821 26.4851 11.4933 26.2092 11.6939C25.9332 11.8946 25.7067 12.1776 25.5524 12.5147C25.3981 12.8517 25.3214 13.2309 25.33 13.6142C25.3387 13.9974 25.4323 14.3712 25.6016 14.698C25.2534 14.861 24.9651 15.1642 24.7873 15.5543C24.6095 15.9443 24.5538 16.3961 24.6299 16.8301C24.706 17.264 24.9091 17.6522 25.2033 17.9263C25.4975 18.2003 25.8641 18.3426 26.2383 18.328C26.6914 18.2711 27.1305 18.108 27.5299 17.8482C29.2121 16.9169 30.9796 16.2191 32.7973 15.7689" fill="#263238"/>
<path d="M26.0195 28.1499C25.1105 26.9956 24.5738 25.4993 24.5034 23.9234C24.437 22.3619 24.6271 20.3991 25.4195 19.1683C24.8424 18.4472 25.0691 17.6312 25.4699 16.7555C25.8707 15.8799 26.5875 15.2726 27.3341 14.8226C28.4518 14.1468 29.6765 13.7553 30.9296 13.6731C31.9487 13.6081 33.3068 13.7897 33.4488 14.6572C33.5023 14.887 33.5004 15.1298 33.4433 15.3584C33.3862 15.5869 33.2763 15.792 33.1259 15.9504C33.8366 16.2168 34.4888 16.6658 35.0359 17.2652C36.3252 18.6885 36.8382 20.1389 36.6871 21.7709C36.5359 23.4029 36.2542 24.6717 35.4412 25.7154" fill="#B23948"/>
<path d="M34.6604 27.654C34.8019 27.4814 34.9762 27.3513 35.1688 27.2745H35.1184C35.1537 27.264 35.1897 27.2576 35.226 27.2555C35.2917 27.2343 35.3604 27.2294 35.4278 27.241C35.4952 27.2527 35.5598 27.2807 35.6176 27.3233C35.8365 27.4219 36.0151 27.6159 36.1169 27.8655C36.1974 28.0839 36.2256 28.3244 36.1986 28.5605C36.1715 28.7967 36.0902 29.0195 35.9635 29.2047C35.8605 29.371 35.7197 29.4991 35.5574 29.574C35.3952 29.6489 35.2183 29.6675 35.0474 29.6276C34.8939 29.567 34.7564 29.4602 34.6484 29.3176C34.5404 29.175 34.4656 29.0015 34.4313 28.8143C34.3838 28.6138 34.3799 28.4022 34.42 28.1994C34.46 27.9965 34.5427 27.8089 34.6604 27.654Z" fill="#455A64"/>
<path d="M35.3198 22.3754C35.1962 20.3042 34.0213 17.7668 32.2785 18.0026L26.8394 19.678C26.5827 19.7094 26.3456 19.8545 26.1757 20.0844C26.0057 20.3142 25.9156 20.6116 25.9233 20.9169L26.5943 36.4672H26.5577C26.5577 36.4672 27.815 40.8455 31.4128 39.4873C32.1251 39.2162 32.448 38.2917 32.5854 37.3401H32.622C32.622 37.2263 32.622 37.1206 32.622 37.0121C32.6897 36.3026 32.6943 35.5866 32.6358 34.8759C32.6358 33.6207 32.6358 33.1056 32.6358 33.1191C32.6358 33.1327 34.8709 32.661 35.3152 29.2017C35.5443 27.4965 35.4549 24.6798 35.3198 22.3754Z" fill="#6F5246"/>
<path d="M34.2789 24.9999C34.2802 25.1155 34.2433 25.2272 34.1762 25.3112C34.1091 25.3952 34.0169 25.445 33.9193 25.4499C33.8718 25.4551 33.8238 25.4489 33.7784 25.4316C33.7329 25.4144 33.6908 25.3864 33.6547 25.3495C33.6186 25.3125 33.5891 25.2673 33.5681 25.2166C33.547 25.1658 33.5349 25.1106 33.5323 25.0541C33.5304 24.9387 33.5667 24.827 33.6335 24.743C33.7003 24.6589 33.7922 24.609 33.8896 24.6041C33.9372 24.5993 33.9851 24.6057 34.0306 24.6231C34.076 24.6405 34.1181 24.6684 34.1544 24.7053C34.1906 24.7421 34.2203 24.7872 34.2417 24.8377C34.2631 24.8883 34.2757 24.9434 34.2789 24.9999Z" fill="#263238"/>
<path d="M34.8112 23.8476C34.7654 23.9046 34.4791 23.6579 34.0783 23.6633C33.6775 23.6687 33.3798 23.91 33.3363 23.8503C33.2928 23.7907 33.3615 23.7202 33.4897 23.6091C33.6632 23.4639 33.8705 23.3862 34.0829 23.3868C34.2923 23.3848 34.4968 23.4617 34.6669 23.6063C34.7906 23.7175 34.8341 23.8124 34.8112 23.8476Z" fill="#263238"/>
<path d="M30.4996 24.9999C30.5015 25.1157 30.4648 25.2278 30.3976 25.312C30.3303 25.3961 30.2378 25.4457 30.14 25.4499C30.0925 25.4547 30.0447 25.4482 29.9994 25.4308C29.9541 25.4134 29.9121 25.3854 29.8761 25.3486C29.84 25.3117 29.8105 25.2666 29.7894 25.2161C29.7683 25.1655 29.7559 25.1104 29.753 25.0541C29.7511 24.9387 29.7874 24.827 29.8542 24.743C29.921 24.6589 30.0129 24.609 30.1103 24.6041C30.1579 24.5993 30.2058 24.6057 30.2513 24.6231C30.2968 24.6405 30.3388 24.6684 30.3751 24.7053C30.4113 24.7421 30.441 24.7872 30.4624 24.8377C30.4838 24.8883 30.4964 24.9434 30.4996 24.9999Z" fill="#263238"/>
<path d="M30.8519 23.9669C30.8061 24.0265 30.5198 23.7798 30.1167 23.7852C29.7137 23.7906 29.4297 24.0292 29.377 23.9723C29.3243 23.9154 29.4022 23.8422 29.5305 23.7283C29.7042 23.5841 29.9115 23.5074 30.1236 23.5087C30.3329 23.5046 30.5378 23.5807 30.7076 23.7256C30.8313 23.8367 30.8748 23.9425 30.8519 23.9669Z" fill="#263238"/>
<path d="M32.3341 27.4939C32.5464 27.4133 32.7665 27.3641 32.9891 27.3475C33.0921 27.334 33.1883 27.3096 33.2043 27.2255C33.2136 27.0998 33.1896 26.9738 33.1356 26.865C33.0371 26.5722 32.9341 26.2631 32.8242 25.9405C32.3959 24.623 32.0822 23.5413 32.1371 23.5196C32.1921 23.4979 32.5677 24.5525 32.9982 25.87L33.2868 26.7945C33.353 26.9405 33.3733 27.1096 33.344 27.2716C33.3293 27.3149 33.3063 27.3535 33.2769 27.3845C33.2475 27.4155 33.2125 27.4381 33.1746 27.4506C33.118 27.47 33.0594 27.48 33.0005 27.4804C32.7797 27.518 32.5558 27.5225 32.3341 27.4939Z" fill="#263238"/>
<path d="M32.6457 33.1354C31.2724 33.1751 29.9168 32.7631 28.7295 31.9453C28.7295 31.9453 29.6914 34.312 32.6228 33.965L32.6457 33.1354Z" fill="#472D25"/>
<path d="M32.2811 28.6271C32.1897 28.4706 32.0675 28.3427 31.9251 28.2544C31.7827 28.1661 31.6243 28.1201 31.4636 28.1201C31.3583 28.1231 31.2552 28.1563 31.163 28.2167C31.0709 28.2771 30.9925 28.3631 30.9345 28.4671C30.8767 28.5845 30.8473 28.7185 30.8497 28.8544C30.8522 28.9902 30.8863 29.1227 30.9483 29.237C31.0216 29.3552 31.1234 29.4443 31.2403 29.4927C31.3572 29.5411 31.4837 29.5465 31.6033 29.5081C31.8272 29.4201 32.0298 29.2694 32.1941 29.069C32.2466 29.0208 32.2895 28.9598 32.3201 28.89C32.3361 28.8519 32.343 28.8093 32.3402 28.7668C32.3374 28.7243 32.3249 28.6835 32.304 28.6488" fill="#472D25"/>
<path d="M31.1518 27.8326C31.2159 27.8326 31.2205 28.3449 31.5961 28.7082C31.9717 29.0715 32.4389 29.0118 32.4412 29.085C32.4412 29.1176 32.3381 29.1853 32.1412 29.1935C31.8863 29.2051 31.6363 29.109 31.4358 28.9224C31.2444 28.7398 31.1205 28.4764 31.09 28.1877C31.0717 27.9573 31.1197 27.8299 31.1518 27.8326Z" fill="#263238"/>
<path d="M31.0082 22.6738C30.9693 22.8039 30.5662 22.7443 30.0922 22.8175C29.6181 22.8907 29.2379 23.0425 29.1761 22.9259C29.1486 22.8717 29.2128 22.7497 29.3662 22.6223C29.5719 22.4658 29.8052 22.3671 30.0481 22.3337C30.2911 22.3003 30.5372 22.3332 30.7678 22.4298C30.935 22.5111 31.0243 22.6114 31.0082 22.6738Z" fill="#263238"/>
<path d="M34.6594 22.4567C34.5884 22.5652 34.3112 22.4567 33.9723 22.4567C33.6334 22.4567 33.3563 22.5327 33.2853 22.4215C33.2578 22.3646 33.3013 22.2561 33.425 22.1504C33.5886 22.0238 33.7815 21.9603 33.9769 21.9688C34.1733 21.9691 34.3643 22.0442 34.5219 22.1829C34.6456 22.3022 34.6845 22.4134 34.6594 22.4567Z" fill="#263238"/>
<path d="M32.6742 18.9868C32.6742 18.9868 29.926 18.938 27.8649 22.6006C26.4908 25.0134 26.2114 28.0416 26.2114 28.0416L25.1533 22.278L25.9457 19.6483L27.8351 18.3904L31.4283 18.1519L32.7818 18.9326" fill="#B23948"/>
<path d="M27.3066 19.2878C31.6693 18.0434 35.1595 19.7459 35.8054 23.8124L36.6939 21.1475L34.4152 17.9024L31.9327 17.1379L26.9287 18.038L27.3066 19.2878Z" fill="#B23948"/>
<path d="M25.5404 27.6672C25.6927 27.4811 25.8803 27.3408 26.0877 27.2579H26.0465C26.085 27.248 26.124 27.2408 26.1633 27.2362C26.234 27.2138 26.3079 27.2088 26.3804 27.2213C26.4528 27.2339 26.5224 27.2639 26.5847 27.3094C26.8181 27.4156 27.0093 27.6217 27.1206 27.8868C27.2073 28.1221 27.2377 28.381 27.2087 28.6353C27.1796 28.8896 27.0921 29.1296 26.9557 29.3291C26.8535 29.5058 26.7094 29.6428 26.5415 29.7227C26.3737 29.8026 26.1896 29.8219 26.0125 29.7781C25.8354 29.7343 25.6732 29.6294 25.5464 29.4766C25.4196 29.3239 25.3338 29.1301 25.2999 28.9197C25.2473 28.7039 25.2417 28.4758 25.2838 28.2568C25.3258 28.0378 25.4141 27.8349 25.5404 27.6672Z" fill="#455A64"/>
<path d="M26.5719 25.8213C26.5022 25.8127 26.4353 25.7838 26.3773 25.7373C26.1716 25.5906 26.0101 25.3711 25.9156 25.1099C25.8211 24.8486 25.7983 24.5588 25.8505 24.2815C25.8849 24.0971 25.9444 23.9155 25.9696 23.7393C25.9869 23.6486 25.9854 23.5544 25.965 23.4646C25.9447 23.3749 25.9062 23.2923 25.8528 23.2242C25.7253 23.094 25.5817 22.9879 25.4268 22.9097C25.2743 22.8212 25.1387 22.6966 25.0284 22.5437C24.846 22.2821 24.7364 21.9601 24.7146 21.622C24.6978 21.3966 24.7268 21.1698 24.7993 20.9605C24.8214 20.882 24.8573 20.8099 24.9047 20.749C24.8142 21.023 24.7782 21.318 24.7993 21.6111C24.8296 21.924 24.939 22.2188 25.1131 22.457C25.2163 22.5943 25.3417 22.7058 25.4818 22.785C25.649 22.8678 25.8037 22.9823 25.9398 23.1239C26.0063 23.2073 26.0545 23.3088 26.08 23.4194C26.1056 23.53 26.1078 23.6464 26.0864 23.7582C26.0566 23.9643 25.9948 24.1459 25.9582 24.3167C25.8929 24.6221 25.9272 24.9454 26.0543 25.2222C26.1385 25.4104 26.2584 25.5728 26.4047 25.6966C26.4624 25.7344 26.5182 25.7761 26.5719 25.8213Z" fill="white"/>
<path d="M25.8111 18.7918C25.7231 19.0502 25.6787 19.3265 25.6805 19.6051C25.6912 19.9021 25.7704 20.19 25.9096 20.4374C26.1005 20.7236 26.3332 20.9669 26.5966 21.1558C26.737 21.2747 26.8548 21.4271 26.9424 21.6031C27.0177 21.776 27.0495 21.9707 27.034 22.1643C26.9854 22.4616 26.9525 22.7622 26.9356 23.0644C26.9353 23.2643 26.9973 23.4573 27.1096 23.6066C27.1943 23.7042 27.2676 23.7123 27.2653 23.7286C27.248 23.7333 27.23 23.7333 27.2127 23.7286C27.1641 23.7156 27.1186 23.6897 27.0798 23.6526C27.0116 23.5806 26.9561 23.4931 26.9168 23.3953C26.8775 23.2976 26.8551 23.1915 26.8508 23.0833C26.8557 22.7761 26.8802 22.4698 26.9241 22.167C26.936 21.9981 26.9066 21.8287 26.8394 21.679C26.7591 21.5212 26.6514 21.3853 26.5233 21.2805C26.2475 21.081 26.0052 20.8227 25.8088 20.5187C25.6664 20.2491 25.5925 19.9367 25.5958 19.6187C25.5959 19.4067 25.6333 19.1971 25.7057 19.0033C25.7584 18.8488 25.8065 18.7864 25.8111 18.7918Z" fill="white"/>
<path d="M28.8799 21.2476C28.8799 21.2476 28.8478 21.3018 28.7631 21.2802C28.7133 21.2661 28.6689 21.2327 28.6371 21.1853C28.5944 21.1222 28.571 21.0438 28.5707 20.963C28.5897 20.7807 28.6164 20.5998 28.6508 20.4208C28.6623 20.2391 28.5272 20.0792 28.3554 19.9789C28.1729 19.8887 28.0112 19.7484 27.8836 19.5695C27.7846 19.4166 27.7172 19.2383 27.6867 19.049C27.6483 18.8776 27.6637 18.6955 27.7302 18.5366C27.7332 18.7011 27.7462 18.8651 27.7691 19.0273C27.807 19.196 27.8749 19.3532 27.9684 19.4882C28.0914 19.6481 28.2433 19.7731 28.4127 19.8542C28.5079 19.9083 28.5928 19.9849 28.6623 20.0792C28.7319 20.1753 28.7672 20.2998 28.7608 20.4262C28.7402 20.6566 28.6554 20.8139 28.6554 20.9684C28.6501 21.0228 28.6589 21.0778 28.6806 21.1262C28.7023 21.1746 28.7358 21.2141 28.7768 21.2395C28.8363 21.2585 28.8776 21.2368 28.8799 21.2476Z" fill="white"/>
<path d="M29.7144 18.4365C29.7144 18.4365 29.7419 18.4365 29.7763 18.4636C29.7969 18.4905 29.8122 18.5224 29.8213 18.5571C29.8304 18.5917 29.833 18.6283 29.8289 18.6642C29.8131 18.7572 29.7893 18.8481 29.758 18.9353C29.7361 19.0312 29.7361 19.1323 29.758 19.2281C29.805 19.4105 29.8883 19.5769 30.0007 19.7134C30.0877 19.83 30.1404 19.9059 30.129 19.9194C30.1175 19.933 30.0465 19.8869 29.9412 19.7866C29.7972 19.6526 29.6923 19.4687 29.6412 19.2607C29.6151 19.1387 29.6207 19.0102 29.6572 18.892C29.6915 18.7862 29.7351 18.713 29.7488 18.6507C29.7559 18.6141 29.7565 18.5762 29.7506 18.5393C29.7447 18.5025 29.7324 18.4675 29.7144 18.4365Z" fill="white"/>
<path d="M34.0796 16.5498C34.0796 16.5498 34.0796 16.604 34.0315 16.6881C33.9834 16.7721 33.9239 16.886 33.862 17.0296C33.7915 17.1981 33.7783 17.3922 33.8254 17.5718C33.8993 17.8037 33.9463 18.0462 33.9651 18.293C33.9687 18.5509 33.9064 18.8041 33.7865 19.0195C33.6901 19.1945 33.5567 19.3366 33.3994 19.4316C33.2633 19.5337 33.1012 19.5759 32.9414 19.5509C33.0864 19.4983 33.2267 19.4293 33.3605 19.3448C33.5113 19.2346 33.6355 19.08 33.7209 18.8962C33.8064 18.7124 33.8503 18.5055 33.8483 18.2957C33.8287 18.0594 33.7864 17.8266 33.7223 17.6017C33.6977 17.4991 33.6909 17.3917 33.7023 17.2859C33.7137 17.1801 33.7431 17.0782 33.7888 16.9863C33.85 16.8715 33.919 16.7627 33.9949 16.6609C34.043 16.585 34.0705 16.5444 34.0796 16.5498Z" fill="white"/>
<path d="M36.1562 18.9651C36.1745 18.9895 36.0256 19.0681 35.973 19.323C35.9455 19.4558 35.8928 19.613 35.8516 19.7784C35.8145 19.9741 35.7608 20.1648 35.6913 20.3477C35.616 20.5147 35.5061 20.6563 35.3719 20.7592C35.2377 20.8621 35.0836 20.9229 34.9241 20.936C34.7943 20.9613 34.6612 20.9284 34.5508 20.8438C34.6721 20.852 34.7936 20.852 34.9149 20.8438C35.0539 20.8176 35.1859 20.7538 35.3007 20.6574C35.4154 20.5611 35.5099 20.4347 35.5768 20.2881C35.6427 20.1129 35.6963 19.9315 35.7371 19.7459C35.7875 19.567 35.847 19.4287 35.8837 19.2959C35.9148 19.1875 35.9732 19.0929 36.0508 19.0248C36.1172 18.9705 36.1516 18.9597 36.1562 18.9651Z" fill="white"/>
<path d="M36.5523 22.4245C36.5661 22.4245 36.5523 22.514 36.4928 22.6224C36.4078 22.7624 36.2843 22.8631 36.1435 22.9071C36.0027 22.9511 35.8533 22.9358 35.721 22.8637C35.6202 22.8068 35.579 22.7417 35.5882 22.7255C35.7578 22.7874 35.9371 22.8032 36.1126 22.7715C36.3966 22.6821 36.5225 22.4028 36.5523 22.4245Z" fill="white"/>
<path d="M31.4848 16.0344C31.4963 16.0561 31.3612 16.1374 31.2398 16.3652C31.1619 16.5093 31.1146 16.6735 31.1019 16.8439C31.0891 17.0142 31.1113 17.1858 31.1665 17.3438C31.2609 17.5212 31.3174 17.7231 31.3314 17.9321C31.3224 18.1082 31.2662 18.2763 31.1711 18.412C31.0153 18.637 30.8802 18.7183 30.8734 18.7075C30.8665 18.6966 30.9741 18.5773 31.1024 18.355C31.1759 18.2308 31.2173 18.0838 31.2215 17.9321C31.2016 17.739 31.1453 17.5537 31.0566 17.3899C30.9837 17.1931 30.9629 16.9747 30.997 16.7637C31.0245 16.5947 31.084 16.4352 31.1711 16.2974C31.3245 16.0751 31.4825 16.0209 31.4848 16.0344Z" fill="white"/>
<path d="M28.7354 18.5259C28.701 18.5096 28.7904 18.2006 28.7926 17.8102C28.7949 17.4198 28.7148 17.1107 28.7468 17.0945C28.8567 17.3111 28.9138 17.5595 28.9117 17.8121C28.9097 18.0647 28.8487 18.3118 28.7354 18.5259Z" fill="white"/>
<path d="M26.7072 18.1951C26.7072 18.1951 26.7324 18.1572 26.7576 18.0894C26.7917 17.9916 26.7997 17.8837 26.7805 17.7803C26.7393 17.5092 26.5103 17.211 26.3225 16.8234C26.2291 16.6382 26.1683 16.4325 26.1438 16.2188C26.1216 16.0393 26.1455 15.856 26.2125 15.6929C26.2527 15.577 26.3256 15.4813 26.4186 15.4218C26.4874 15.3865 26.5286 15.3947 26.5286 15.4028C26.5286 15.4109 26.4942 15.4272 26.4416 15.4706C26.3712 15.5368 26.318 15.6251 26.2881 15.7254C26.2419 15.8987 26.2294 16.0822 26.2516 16.262C26.2738 16.4418 26.3302 16.6133 26.4164 16.7637C26.5973 17.1324 26.8286 17.455 26.8584 17.7749C26.8744 17.8977 26.8516 18.0232 26.7942 18.1273C26.753 18.1897 26.7095 18.2005 26.7072 18.1951Z" fill="white"/>
<path d="M29.4839 16.6365C29.4839 16.6365 29.5022 16.5931 29.5457 16.5307C29.6126 16.4596 29.6576 16.3643 29.674 16.2596C29.6462 16.1074 29.578 15.9696 29.4793 15.8666C29.3717 15.731 29.2297 15.5955 29.0854 15.4572C28.9337 15.3229 28.8247 15.1318 28.7762 14.915C28.7654 14.7316 28.803 14.5487 28.8839 14.3918C28.9402 14.2449 29.0231 14.1144 29.1266 14.0095C29.0813 14.1568 29.0253 14.2992 28.9594 14.4351C28.8986 14.5775 28.8724 14.7371 28.8839 14.896C28.9355 15.0788 29.033 15.2386 29.1633 15.3542C29.4358 15.6253 29.7473 15.8964 29.7564 16.2705C29.7302 16.3942 29.6656 16.5016 29.5755 16.5714C29.5228 16.6202 29.4908 16.6446 29.4839 16.6365Z" fill="white"/>
<path d="M32.189 16.0669C32.2658 15.9842 32.3207 15.8769 32.347 15.7579C32.366 15.6285 32.3517 15.4952 32.3058 15.3756C32.2462 15.221 32.1749 15.0731 32.0928 14.9337C32.0039 14.7838 31.9416 14.6141 31.9096 14.4349C31.8935 14.2791 31.9226 14.1214 31.992 13.9876C32.0997 13.7545 32.2577 13.7165 32.2577 13.7382C32.1759 13.818 32.1109 13.9192 32.0676 14.0337C32.0186 14.1502 32.0018 14.282 32.0195 14.4105C32.0537 14.5719 32.1127 14.7245 32.1936 14.8605C32.2803 15.0066 32.3525 15.164 32.4088 15.3295C32.4576 15.4738 32.464 15.6332 32.4272 15.7823C32.4036 15.8841 32.351 15.9732 32.2783 16.0344C32.2256 16.0724 32.1913 16.0751 32.189 16.0669Z" fill="white"/>
<path d="M33.1268 15.9505C33.0161 15.97 32.9041 15.9764 32.7924 15.9695C32.5794 15.9695 32.2703 15.9695 31.8764 16.0101C30.8843 16.0985 29.9091 16.3635 28.9839 16.7963C28.0648 17.2477 27.1863 17.8072 26.3617 18.4663L25.6059 19.0654C25.5176 19.145 25.4233 19.2149 25.3242 19.2742C25.4031 19.1803 25.489 19.095 25.5807 19.0193C25.7479 18.8621 25.9975 18.6452 26.3136 18.385C27.1312 17.6952 28.0125 17.1176 28.9404 16.6635C29.8762 16.2247 30.8665 15.9701 31.8718 15.9098C32.1769 15.8898 32.4827 15.8898 32.7878 15.9098C32.9016 15.9116 33.015 15.9252 33.1268 15.9505Z" fill="#263238"/>
<path d="M26.2393 19.1521H26.2667L26.3492 19.1115L26.4797 19.041L26.6629 18.9596C27.054 18.7892 27.4606 18.6736 27.8744 18.6153C28.4829 18.5269 29.0981 18.5269 29.7066 18.6153C30.0524 18.6641 30.4119 18.7428 30.7852 18.8322C31.1585 18.9217 31.5387 19.0328 31.9303 19.1711C33.4807 19.7133 34.6785 20.8573 35.2121 21.9228C35.4269 22.3447 35.5889 22.8013 35.693 23.2783C35.7297 23.4463 35.7526 23.5792 35.7686 23.6686L35.7869 23.7717C35.7859 23.7834 35.7859 23.7952 35.7869 23.8069C35.7869 23.8069 35.7869 23.8069 35.7869 23.7717C35.7869 23.7364 35.7869 23.7093 35.7755 23.6659C35.7755 23.5765 35.7457 23.4409 35.7113 23.2701C35.6199 22.7857 35.4654 22.3211 35.2533 21.8929C34.7197 20.8085 33.5128 19.632 31.9509 19.0952C31.5639 18.9542 31.1791 18.8458 30.8058 18.7536C30.4325 18.6614 30.0707 18.5882 29.7226 18.5421C29.106 18.4492 28.4819 18.4492 27.8653 18.5421C27.4463 18.6121 27.0363 18.7432 26.6446 18.9325L26.4637 19.022L26.3332 19.0979L26.2553 19.1467C26.2461 19.144 26.2393 19.1494 26.2393 19.1521Z" fill="#263238"/>
<path d="M31.9479 19.1601C31.9167 19.1559 31.8852 19.1559 31.854 19.1601C31.7899 19.1601 31.7006 19.1791 31.5838 19.2035C31.2543 19.2774 30.9346 19.4032 30.6333 19.5776C29.6462 20.176 28.7948 21.0462 28.1508 22.1151C27.8017 22.7024 27.4953 23.3236 27.2348 23.9721C27.011 24.4946 26.8137 25.0323 26.6439 25.5825C26.5285 25.9538 26.4351 26.3343 26.3645 26.7211C26.3416 26.8594 26.3256 26.9651 26.3187 27.0383C26.3156 27.0752 26.3156 27.1125 26.3187 27.1494C26.329 27.1143 26.3359 27.0779 26.3393 27.041C26.3393 26.9678 26.3714 26.8621 26.3966 26.7265C26.476 26.3442 26.5762 25.9684 26.6966 25.6015C26.8723 25.0565 27.0734 24.5234 27.2989 24.0047C27.5602 23.3619 27.8667 22.7461 28.2149 22.1639C28.8535 21.1052 29.6917 20.2373 30.6631 19.6291C30.9601 19.4534 31.2738 19.3206 31.5975 19.2333C31.712 19.2062 31.8013 19.1845 31.8632 19.1764L31.9479 19.1601Z" fill="#263238"/>
<path d="M19.9502 90.4242L23.1495 121.652H27.5329L27.4115 88.8193L19.9502 90.4242Z" fill="#6F5246"/>
<path d="M32.9768 89.9011L32.8829 98.823C32.4043 100.032 26.2712 113.435 26.2712 113.435L23.4727 106.574L29.7133 90.7741L32.9768 89.9011Z" fill="#6F5246"/>
<path d="M27.5064 94.217C27.5457 94.217 27.5803 100.235 27.5803 107.658C27.5803 115.081 27.5457 121.102 27.5064 121.102C27.4672 121.102 27.4326 115.084 27.4326 107.658C27.4326 100.233 27.4649 94.217 27.5064 94.217Z" fill="#472D25"/>
<path d="M27.6837 120.866C27.6837 120.866 32.7816 122.805 32.8548 123.813L23.0598 123.995L23.0049 121.224L23.3644 121.308C24.8109 121.639 26.3066 121.486 27.6837 120.866Z" fill="#B23948"/>
<g opacity="0.6">
<path d="M24.1458 121.728C24.0554 121.755 23.977 121.821 23.9268 121.914C23.8765 122.007 23.8582 122.119 23.8755 122.227C23.9083 122.334 23.9731 122.423 24.0575 122.477C24.1419 122.531 24.2402 122.546 24.3336 122.52C24.4313 122.492 24.5158 122.419 24.5685 122.317C24.6212 122.216 24.638 122.094 24.6153 121.978C24.571 121.871 24.4955 121.787 24.4027 121.742C24.3099 121.696 24.2064 121.692 24.1114 121.731" fill="white"/>
</g>
<path d="M27.8427 120.815C27.8427 120.866 27.6137 120.893 27.3687 121.064C27.1236 121.235 27.0137 121.454 26.9702 121.435C26.9267 121.416 26.9931 121.115 27.2771 120.915C27.5611 120.714 27.8519 120.766 27.8427 120.815Z" fill="#263238"/>
<path d="M28.8756 121.254C28.8756 121.305 28.6832 121.397 28.5229 121.617C28.3626 121.837 28.3213 122.072 28.2732 122.07C28.2252 122.067 28.1908 121.777 28.3923 121.506C28.5939 121.235 28.8733 121.205 28.8756 121.254Z" fill="#263238"/>
<path d="M29.4809 122.574C29.4374 122.574 29.3664 122.327 29.4809 122.032C29.5955 121.736 29.8222 121.631 29.8428 121.671C29.8634 121.712 29.726 121.869 29.6344 122.105C29.5428 122.341 29.529 122.569 29.4809 122.574Z" fill="#263238"/>
<path d="M27.7345 120.788C27.5735 120.834 27.4054 120.834 27.2444 120.788C27.0671 120.758 26.8934 120.703 26.7268 120.625C26.6292 120.582 26.5343 120.53 26.4428 120.471C26.3883 120.439 26.3381 120.398 26.294 120.349C26.2626 120.315 26.2426 120.269 26.2376 120.219C26.2325 120.169 26.2428 120.119 26.2665 120.077C26.2915 120.04 26.323 120.009 26.359 119.988C26.395 119.966 26.4346 119.954 26.4749 119.953C26.5373 119.952 26.5997 119.96 26.6604 119.977C26.7642 120.004 26.8661 120.04 26.965 120.086C27.1298 120.162 27.2841 120.267 27.423 120.397C27.652 120.622 27.7345 120.812 27.7184 120.823C27.7024 120.834 27.5833 120.682 27.3497 120.498C27.212 120.39 27.0635 120.304 26.9077 120.24C26.8161 120.201 26.7219 120.171 26.626 120.151C26.5207 120.124 26.4337 120.124 26.397 120.175C26.3604 120.227 26.397 120.202 26.397 120.235C26.4308 120.27 26.4685 120.299 26.5092 120.321C26.5939 120.379 26.681 120.432 26.7703 120.479C26.9246 120.556 27.0839 120.619 27.2467 120.666C27.4117 120.691 27.5748 120.732 27.7345 120.788Z" fill="#263238"/>
<path d="M27.6739 120.866C27.5808 120.719 27.5324 120.54 27.5365 120.356C27.5248 120.16 27.5443 119.964 27.5937 119.776C27.6245 119.663 27.6652 119.554 27.7151 119.451C27.7431 119.378 27.7862 119.316 27.8402 119.268C27.8943 119.221 27.9576 119.19 28.0243 119.18C28.0665 119.179 28.1081 119.192 28.1444 119.217C28.1808 119.243 28.2106 119.279 28.2304 119.323C28.2569 119.385 28.2747 119.451 28.2831 119.519C28.3001 119.636 28.3001 119.756 28.2831 119.874C28.257 120.072 28.1875 120.259 28.0815 120.416C27.896 120.687 27.6968 120.76 27.6922 120.741C27.6876 120.722 27.8411 120.614 27.9831 120.348C28.065 120.197 28.1153 120.025 28.1296 119.847C28.1398 119.744 28.1352 119.641 28.1159 119.54C28.0999 119.426 28.0586 119.337 28.0197 119.351C27.9808 119.364 27.8892 119.435 27.8525 119.527C27.8041 119.618 27.7642 119.715 27.7334 119.817C27.6828 119.987 27.6542 120.165 27.6487 120.345C27.6464 120.66 27.6991 120.866 27.6739 120.866Z" fill="#263238"/>
<path d="M26.4438 33.9136C25.9263 34.0898 24.582 35.0766 23.114 37.6114C21.646 40.1462 21.6322 45.1561 22.3101 49.3202C22.8643 52.736 23.2743 53.9885 23.114 55.6612C23.0315 56.5152 19.0627 63.6234 18.4443 68.0559L33.5159 63.092L35.6571 38.3596L32.6799 35.0305L26.4164 32.3005L26.4438 33.9136Z" fill="#455A64"/>
<path d="M27.0893 35.974C26.768 35.9749 26.4472 36.0048 26.1297 36.0635C25.3648 36.2291 24.6711 36.7009 24.165 37.3997C23.6588 38.0986 23.3709 38.9821 23.3495 39.9023C23.3472 40.2826 23.3709 40.6624 23.4205 41.0382C23.3811 40.9451 23.3541 40.8455 23.3403 40.7427C23.2882 40.4659 23.2629 40.1831 23.2647 39.8996C23.2637 38.9489 23.5506 38.0293 24.0733 37.3076C24.596 36.5859 25.3199 36.1099 26.1137 35.9659C26.3498 35.9204 26.5895 35.9067 26.8282 35.9252C26.9167 35.9283 27.0044 35.9447 27.0893 35.974Z" fill="#263238"/>
<path d="M32.3422 36.866C32.2617 36.8348 32.1848 36.792 32.1132 36.7386L31.5063 36.3563C30.9933 36.0337 30.2811 35.5999 29.4703 35.1852C28.7773 34.8318 28.0678 34.5258 27.3451 34.2689C26.7886 34.0737 26.429 33.9761 26.4428 33.9517C26.5278 33.9538 26.6123 33.9675 26.6947 33.9923C26.855 34.0249 27.084 34.0872 27.3657 34.1713C28.1004 34.4009 28.8193 34.6963 29.5162 35.055C30.2128 35.4124 30.8911 35.8179 31.5475 36.2696C31.7971 36.4404 32.0056 36.5867 32.1361 36.6925C32.2104 36.7404 32.2796 36.7986 32.3422 36.866Z" fill="#263238"/>
<path d="M39.8451 32.7045C39.7625 32.5219 39.6456 32.3642 39.5035 32.2434C39.3614 32.1226 39.1977 32.042 39.0252 32.0077C38.8351 31.9806 38.6405 32.0077 38.455 31.9779C38.2593 31.9049 38.0687 31.8142 37.8847 31.7068C37.7248 31.6412 37.5553 31.6146 37.3864 31.6286C37.2176 31.6426 37.0529 31.6969 36.9022 31.7881C36.7923 31.7245 36.6723 31.6888 36.5501 31.6833C36.4278 31.6779 36.3059 31.7027 36.1923 31.7564C36.0786 31.81 35.9757 31.8912 35.8901 31.9947C35.8045 32.0982 35.7381 32.2218 35.6953 32.3574L37.4313 34.1142C37.5054 34.4108 37.518 34.7242 37.4679 35.0278C37.4187 35.332 37.4296 35.6457 37.5 35.9441C37.5383 36.092 37.6183 36.2198 37.7267 36.3061C37.8351 36.3925 37.9653 36.4322 38.0954 36.4185C38.3908 36.3507 38.5259 35.9495 38.5992 35.6052C38.7304 34.9763 38.8207 34.3365 38.8695 33.6913C38.8488 33.95 38.8689 34.2111 38.929 34.4612C38.9601 34.5847 39.0193 34.6958 39.1001 34.7823C39.1808 34.8689 39.2801 34.9275 39.387 34.9519C39.4912 34.9568 39.5946 34.9278 39.6858 34.8681C39.7771 34.8083 39.8528 34.7201 39.9046 34.613C40.0051 34.3943 40.0571 34.149 40.0558 33.9C40.0785 33.4862 40.0056 33.073 39.8451 32.7045Z" fill="#6F5246"/>
<path d="M23.8279 44.5839C23.8988 44.7683 27.2631 57.9762 29.7021 59.1826C29.7914 59.2287 29.8784 59.2694 29.9655 59.3046C30.3205 59.4561 30.698 59.5204 31.0747 59.4935C31.4515 59.4666 31.8196 59.3491 32.1568 59.1482C32.4939 58.9473 32.7929 58.6671 33.0355 58.3249C33.2781 57.9826 33.4593 57.5854 33.5679 57.1575C34.3672 54.0209 36.0161 46.9831 36.0161 42.3094L32.6633 40.5987L30.9067 48.5176C30.9067 48.5176 29.6105 46.3352 29.5532 44.0526C29.496 41.7699 28.4196 35.9358 25.5867 36.5377C25.5867 36.5323 21.5056 38.4787 23.8279 44.5839Z" fill="#455A64"/>
<path d="M29.7272 53.5848C29.6899 53.5276 29.6626 53.4621 29.647 53.3923C29.5931 53.2067 29.5555 53.015 29.5348 52.8203C29.4769 52.1782 29.5443 51.5289 29.7317 50.9226C29.9206 50.3195 30.1681 49.7446 30.4692 49.2092C30.582 48.9797 30.7124 48.7628 30.8585 48.5613C30.769 48.8045 30.6625 49.0385 30.5402 49.2607C30.268 49.8042 30.038 50.3759 29.8531 50.9686C29.6695 51.5605 29.5915 52.1909 29.6241 52.8203C29.6516 53.292 29.7478 53.5766 29.7272 53.5848Z" fill="#263238"/>
<path d="M32.8403 40.7101L33.1907 38.5901C33.1907 38.5901 32.3273 36.5894 32.2448 35.9713C32.1624 35.3532 32.1074 33.9055 32.1074 33.9055L32.8357 33.2359L33.493 33.0217C33.493 33.0217 33.7953 31.9373 34.2075 32.1108C34.446 32.1991 34.6509 32.3832 34.7869 32.6314C34.7869 32.6314 35.3091 31.9807 35.6388 32.0892C35.9686 32.1976 35.8679 32.4633 35.8679 32.4633C35.8679 32.4633 36.1816 31.9211 36.4564 32.0756C36.6175 32.1666 36.7516 32.3131 36.8412 32.4958C36.8412 32.4958 37.3358 31.8885 37.6381 32.0458C37.9404 32.203 37.913 35.5701 37.6381 36.5433C37.3633 37.5166 36.2366 39.8209 36.2366 39.8209L35.7602 42.1714L32.8403 40.7101Z" fill="#6F5246"/>
<path d="M36.2428 39.8264C36.2617 39.7704 36.2839 39.7161 36.3092 39.6638L36.5176 39.2002C36.6985 38.7962 36.9756 38.2107 37.2711 37.4624C37.3466 37.2754 37.4245 37.0775 37.5001 36.866C37.5813 36.652 37.6405 36.4272 37.6764 36.1964C37.7487 35.6763 37.7908 35.1509 37.8024 34.624C37.8218 34.0337 37.8118 33.4426 37.7726 32.8537C37.7622 32.6998 37.7438 32.5468 37.7176 32.3956C37.7056 32.3221 37.6872 32.2504 37.6627 32.1814C37.6563 32.1559 37.6435 32.1332 37.626 32.1163C37.6038 32.1037 37.5797 32.0963 37.555 32.0947C37.4289 32.1014 37.3075 32.1534 37.2069 32.2438C37.093 32.3328 36.9871 32.4355 36.8909 32.5501L36.8359 32.6152L36.797 32.5338C36.7505 32.4372 36.6891 32.3517 36.6161 32.2817C36.5478 32.2071 36.4653 32.1532 36.3756 32.1245C36.2107 32.1245 36.0412 32.3224 35.9176 32.5094L35.6748 32.9052L35.8145 32.4417C35.8224 32.4136 35.824 32.3837 35.8192 32.3547C35.8144 32.3257 35.8033 32.2987 35.787 32.2763C35.7433 32.223 35.6877 32.1855 35.6267 32.1678C35.5608 32.1551 35.4934 32.1581 35.4285 32.1767C35.3636 32.1954 35.3025 32.2292 35.2489 32.2763C35.0938 32.3904 34.9508 32.526 34.8229 32.6802L34.7702 32.7453L34.729 32.6667C34.6475 32.516 34.5368 32.3906 34.4061 32.3007C34.3421 32.2535 34.2737 32.2153 34.2022 32.1868C34.1734 32.1719 34.1422 32.1642 34.1106 32.1642C34.0791 32.1642 34.0479 32.1719 34.019 32.1868C33.8952 32.276 33.7952 32.4047 33.7305 32.5582C33.655 32.7097 33.5921 32.8695 33.5427 33.0354V33.0706H33.5129L32.8556 33.2821H32.874L32.1411 33.9571L32.1617 33.9029C32.1823 34.4017 32.2052 34.8816 32.2373 35.337C32.2533 35.5647 32.2694 35.7897 32.3014 36.0012C32.3428 36.2046 32.3972 36.404 32.464 36.5976C32.7228 37.3621 32.9953 38.0209 33.2221 38.5712V38.5848C33.1053 39.2436 33.0137 39.7695 32.9472 40.1436C32.9152 40.3144 32.89 40.4499 32.8694 40.5557C32.8617 40.6036 32.851 40.6507 32.8373 40.6966C32.8386 40.6475 32.8432 40.5985 32.8511 40.5503C32.8671 40.4445 32.8877 40.3063 32.9106 40.1355C32.9701 39.7586 33.0526 39.23 33.1534 38.5685V38.5929C32.9243 38.0507 32.6358 37.3919 32.3678 36.6247C32.2969 36.4253 32.2395 36.2195 32.1961 36.0093C32.1617 35.787 32.1457 35.5647 32.1274 35.3343C32.0938 34.877 32.0663 34.3972 32.0449 33.8948V33.8622L32.0678 33.8405L32.7961 33.1709H32.8282L33.4831 32.954L33.4442 32.9974C33.4967 32.8225 33.5626 32.6537 33.6412 32.4932C33.7173 32.315 33.8349 32.1664 33.9801 32.0648C34.0233 32.0434 34.0696 32.0324 34.1164 32.0324C34.1632 32.0324 34.2095 32.0434 34.2526 32.0648C34.3326 32.0963 34.4094 32.1381 34.4816 32.1895C34.6296 32.2933 34.7544 32.4373 34.8458 32.6097L34.7519 32.5935C34.8892 32.4291 35.043 32.2852 35.2099 32.1651C35.2781 32.1074 35.3555 32.0668 35.4374 32.0458C35.5194 32.0248 35.604 32.0239 35.6863 32.0431C35.7686 32.0691 35.8431 32.1216 35.9015 32.195C35.9316 32.2376 35.9516 32.2889 35.9596 32.3436C35.9677 32.3983 35.9634 32.4546 35.9473 32.5067L35.842 32.4417C35.9074 32.332 35.9844 32.2327 36.071 32.1462C36.1152 32.0964 36.1673 32.0576 36.2243 32.032C36.2814 32.0064 36.3421 31.9945 36.4031 31.9971C36.463 32.0068 36.5202 32.0328 36.5703 32.073C36.6179 32.1053 36.6632 32.1425 36.7054 32.1841C36.7899 32.2681 36.8612 32.369 36.9161 32.4823L36.8222 32.4661C36.9228 32.3429 37.035 32.2338 37.1565 32.1407C37.2777 32.0336 37.4244 31.9748 37.5756 31.9727C37.6187 31.9743 37.661 31.9873 37.6993 32.0106C37.7362 32.0427 37.7641 32.087 37.7795 32.138C37.8081 32.2153 37.8288 32.2963 37.8413 32.3793C37.8673 32.5361 37.8857 32.6945 37.8963 32.8537C37.9337 33.4482 37.9406 34.0448 37.9169 34.6403C37.9018 35.173 37.8551 35.7039 37.7772 36.2289C37.7382 36.4657 37.6752 36.696 37.5894 36.9148C37.5138 37.1263 37.4314 37.3242 37.3604 37.5112C37.0466 38.2595 36.7672 38.8369 36.5771 39.2327L36.3481 39.6854C36.3169 39.7363 36.2816 39.7836 36.2428 39.8264Z" fill="#472D25"/>
<path d="M33.3258 33.9866C33.2599 33.8233 33.2476 33.6368 33.2914 33.4634C33.3327 33.1733 33.4449 32.97 33.4724 32.9863C33.4998 33.0025 33.4472 33.2194 33.4082 33.4878C33.3693 33.7562 33.3601 33.9812 33.3258 33.9866Z" fill="#472D25"/>
<path d="M34.8048 33.4472C34.7725 33.4472 34.7379 33.2547 34.7309 33.0134C34.724 32.7722 34.7425 32.577 34.7748 32.5742C34.8071 32.5715 34.8417 32.7667 34.8509 33.008C34.8601 33.2493 34.8371 33.4445 34.8048 33.4472Z" fill="#472D25"/>
<path d="M35.7787 33.5259C35.7444 33.5259 35.7787 33.2548 35.8199 32.9376C35.8213 32.7402 35.846 32.544 35.8932 32.3547C35.9616 32.5438 35.9768 32.7538 35.9367 32.9539C35.9361 33.1595 35.8808 33.3596 35.7787 33.5259Z" fill="#472D25"/>
<path d="M36.824 33.3687C36.7917 33.3552 36.824 33.1654 36.824 32.9323C36.824 32.6991 36.7894 32.512 36.824 32.4985C36.8586 32.4849 36.9439 32.672 36.9462 32.9323C36.9486 33.1925 36.854 33.3823 36.824 33.3687Z" fill="#472D25"/>
<path d="M28.4084 37.9421L28.4863 38.1184C28.5344 38.2349 28.6076 38.4111 28.6832 38.647C28.9063 39.34 29.0601 40.0615 29.1412 40.7968C29.2718 41.7457 29.313 42.9222 29.5374 44.2479C29.6672 44.9517 29.8387 45.6438 30.0504 46.3191C30.2732 47.0801 30.5698 47.8079 30.9344 48.4879L30.852 48.5069C31.3696 46.1646 31.9604 43.4888 32.5994 40.5854L32.6177 40.5122L32.6773 40.542L36.0346 42.2472L36.069 42.2662V42.3123C36.0182 44.5837 35.7881 46.8446 35.3819 49.0654C35.0292 51.1257 34.6056 53.1129 34.159 55.0296L33.8178 56.442C33.7209 56.9115 33.5787 57.3664 33.3941 57.7975C33.1947 58.2106 32.9254 58.5704 32.603 58.8546C32.2807 59.1387 31.9122 59.3409 31.5207 59.4485C31.1493 59.5578 30.7625 59.5732 30.3857 59.4938C30.0089 59.4144 29.6504 59.2419 29.3336 58.9876C29.05 58.7193 28.7995 58.4054 28.5893 58.055C28.3813 57.7237 28.1879 57.3799 28.0099 57.0248C27.3785 55.7217 26.8222 54.3694 26.345 52.9773C25.4541 50.4344 24.8518 48.3253 24.4419 46.8667C24.238 46.1375 24.0869 45.5682 23.9838 45.1805C23.9357 44.9907 23.8991 44.8443 23.8716 44.7413C23.8441 44.6383 23.835 44.5895 23.835 44.5895C23.8536 44.637 23.8697 44.6859 23.8831 44.7359L24.0067 45.1724C24.1189 45.5628 24.2793 46.1266 24.4854 46.8505C24.909 48.3009 25.5228 50.4073 26.4228 52.9394C26.9044 54.3227 27.4629 55.6667 28.0947 56.9625C28.2703 57.3145 28.4622 57.6548 28.6695 57.9818C28.8764 58.3222 29.1214 58.6277 29.3977 58.89C29.7026 59.1314 30.0467 59.2946 30.4079 59.3693C30.7692 59.444 31.1396 59.4285 31.4955 59.3238C31.8719 59.2184 32.2259 59.0226 32.5356 58.7483C32.8453 58.4741 33.104 58.1274 33.2956 57.7297C33.476 57.3048 33.6136 56.8562 33.7055 56.3932L34.0468 54.9808C34.4911 53.0831 34.9124 51.0905 35.2651 49.0355C35.6696 46.8236 35.8996 44.5719 35.9522 42.3096L35.9888 42.3719L32.636 40.6613L32.7116 40.6152C32.0658 43.5159 31.468 46.1917 30.9459 48.5313L30.9207 48.6479L30.8634 48.5503C30.4975 47.8627 30.1993 47.1278 29.9749 46.3598C29.7655 45.678 29.5971 44.9795 29.471 44.2696C29.242 42.9331 29.2191 41.7565 29.0954 40.8104C29.016 40.0783 28.8678 39.3591 28.6534 38.666C28.5994 38.4816 28.5375 38.3007 28.4679 38.1238C28.429 38.0045 28.4084 37.9421 28.4084 37.9421Z" fill="#263238"/>
<path d="M22.0645 58.1228C22.0645 58.1228 18.1094 63.0921 17.2186 68.6144C16.1445 75.2536 19.3782 96.2665 19.3782 96.2665C19.3782 96.2665 21.4118 97.1828 22.9989 97.6844C24.5448 98.1751 27.8815 96.5295 29.9976 96.1418C32.1137 95.7542 32.8764 98.8176 32.8764 98.8176C32.8764 98.8176 33.8153 73.3667 33.623 70.9865C33.4306 68.6062 33.623 61.1673 33.623 61.1673L22.0645 58.1228Z" fill="#263238"/>
<path d="M33.6302 61.1726C33.6248 61.2058 33.6171 61.2385 33.6073 61.2702L33.5317 61.5549C33.4607 61.8097 33.3599 62.173 33.2294 62.6393C32.9637 63.58 32.5767 64.9382 32.0843 66.6082C31.5919 68.2781 30.9759 70.2599 30.2728 72.4504C29.5697 74.6408 28.743 77.0238 27.8201 79.4989C26.8971 81.9741 25.933 84.2839 25.0032 86.3524L24.2978 87.8488C24.1833 88.0928 24.0688 88.3314 23.9588 88.5645C23.8489 88.7977 23.7298 89.0227 23.613 89.245L22.9512 90.5354C22.7359 90.9475 22.5115 91.327 22.3076 91.6984C22.1038 92.0698 21.9069 92.4223 21.7145 92.7503L21.1488 93.6585L20.6587 94.4501C20.5053 94.6887 20.3519 94.8974 20.2213 95.0899L19.6076 95.971L19.4472 96.1987C19.4292 96.2251 19.4093 96.2496 19.3877 96.2719C19.403 96.2426 19.4198 96.2146 19.4381 96.1878L19.5892 95.952C19.7312 95.7405 19.9305 95.4423 20.1847 95.0574C20.3129 94.8622 20.4641 94.6507 20.6129 94.4094L21.0962 93.6124C21.2679 93.325 21.4534 93.0214 21.6504 92.6961C21.8473 92.3708 22.0305 92.0102 22.2344 91.6415C22.4382 91.2728 22.658 90.8878 22.871 90.4758L23.526 89.1826L23.8695 88.5022L24.2039 87.7865L24.9047 86.29C25.8207 84.2188 26.778 81.9036 27.7101 79.4366C28.6422 76.9696 29.4461 74.5812 30.1675 72.4016C30.8889 70.2219 31.5003 68.2402 31.9996 66.5729C32.4988 64.9056 32.9156 63.5529 33.1859 62.6203C33.3256 62.1594 33.4332 61.807 33.5088 61.5359L33.5958 61.2648C33.6045 61.2327 33.616 61.2018 33.6302 61.1726Z" fill="#455A64"/>
<path d="M33.5289 63.4987C33.484 63.504 33.4387 63.504 33.3938 63.4987H33.0045C32.835 63.4987 32.6289 63.4987 32.3907 63.4797C32.1526 63.4608 31.8754 63.4553 31.5754 63.4255C30.9708 63.3794 30.2563 63.2791 29.4639 63.1544C28.6715 63.0297 27.8081 62.8291 26.9081 62.6122C25.1035 62.1568 23.4912 61.639 22.3278 61.273L20.9537 60.8257L20.5804 60.6983C20.5357 60.6875 20.4925 60.6693 20.4521 60.644C20.4972 60.647 20.5417 60.6561 20.585 60.6712L20.9651 60.7742L22.353 61.1754C23.5255 61.517 25.1401 62.0185 26.9333 62.474C27.831 62.7017 28.6944 62.8915 29.4799 63.0351C30.2655 63.1788 30.9823 63.2818 31.5823 63.3388C31.8823 63.3767 32.1548 63.393 32.393 63.4147C32.6312 63.4364 32.8373 63.4499 33.0068 63.4553L33.3938 63.4825C33.4392 63.4815 33.4846 63.4869 33.5289 63.4987Z" fill="#455A64"/>
<path d="M33.4973 62.3682C33.4988 62.4025 33.4988 62.4369 33.4973 62.4712C33.4973 62.5471 33.4973 62.6501 33.5134 62.7775C33.5134 63.0486 33.5363 63.4444 33.5454 63.9568C33.5546 64.4692 33.5454 65.0981 33.5134 65.8247C33.4731 66.6489 33.3634 67.4662 33.1859 68.2646C33.0756 68.7288 32.9347 69.182 32.7645 69.6201C32.6683 69.8424 32.5744 70.0755 32.4599 70.2978C32.3454 70.5201 32.2309 70.7451 32.0912 70.9674C31.5805 71.8485 30.9461 72.7676 30.7331 73.9495C30.5201 75.1315 30.5201 76.4274 30.0713 77.669C29.6224 78.9107 28.6972 79.8189 28.0513 80.9737C27.7215 81.5341 27.5268 82.1901 27.488 82.8714C27.4765 83.537 27.5241 84.2021 27.6299 84.8559C27.7336 85.4979 27.766 86.1532 27.7261 86.8051C27.6897 87.1243 27.6125 87.4351 27.4971 87.7268C27.3781 88.0085 27.2237 88.2672 27.0391 88.494C26.6777 88.9083 26.2738 89.2672 25.8368 89.5622C25.4316 89.8396 25.0429 90.1494 24.6734 90.4893C23.9611 91.1617 23.6268 92.1159 23.3428 92.9618C23.0588 93.8076 22.8069 94.6019 22.4084 95.1739C22.083 95.6743 21.6494 96.0612 21.1534 96.2936C20.8397 96.4435 20.4937 96.4701 20.1663 96.3695C20.0823 96.3428 20.0009 96.3055 19.9236 96.2583C19.8961 96.2446 19.87 96.2273 19.8457 96.2068L19.9281 96.2448C20.0059 96.2867 20.0873 96.3185 20.1709 96.3397C20.4937 96.4281 20.8318 96.3939 21.1374 96.2421C21.6209 96.0061 22.0417 95.6203 22.3557 95.1251C22.7427 94.564 22.9832 93.7696 23.2718 92.9238C23.4146 92.4726 23.5829 92.0334 23.7756 91.609C23.8823 91.3845 24.0041 91.1706 24.1397 90.9692C24.2846 90.7629 24.4448 90.5724 24.6184 90.3999C24.9903 90.0549 25.3812 89.7397 25.7887 89.4565C26.2186 89.1664 26.6156 88.8129 26.9704 88.4046C27.1425 88.1856 27.2867 87.9381 27.3986 87.6699C27.5039 87.3898 27.5741 87.093 27.607 86.7888C27.6436 86.1484 27.6097 85.505 27.5063 84.8749C27.3984 84.2123 27.3508 83.5379 27.3643 82.8633C27.4045 82.1592 27.6047 81.4811 27.9437 80.9005C28.5964 79.7213 29.5079 78.8158 29.9567 77.6148C30.4056 76.4138 30.3644 75.1044 30.6186 73.9224C30.7382 73.3415 30.937 72.7875 31.2072 72.2823C31.4614 71.7889 31.7454 71.3443 32.0041 70.9024C32.1324 70.6828 32.2561 70.4632 32.3706 70.2436C32.4851 70.024 32.579 69.7963 32.6752 69.574C32.8451 69.1432 32.986 68.6972 33.0965 68.2402C33.277 67.4464 33.3921 66.6339 33.4401 65.8138C33.4859 65.09 33.4927 64.4583 33.4927 63.9514C33.4927 63.4444 33.4927 63.0513 33.4813 62.7721V62.4712C33.4831 62.4362 33.4885 62.4016 33.4973 62.3682Z" fill="#455A64"/>
</g>
<defs>
<clipPath id="clip0_1412_10546">
<rect width="136" height="122" fill="white"/>
</clipPath>
</defs>
</svg>
