<svg width="11" height="16" viewBox="0 0 11 16" fill="none" xmlns="http://www.w3.org/2000/svg">
<path d="M7.65923 15.1668H3.33923C2.07923 15.1668 1.15923 14.6402 0.805898 13.7335C0.439231 12.7868 0.779231 11.6135 1.65923 10.8202L4.75256 8.00016L1.65923 5.18016C0.779231 4.38683 0.439231 3.2135 0.805898 2.26683C1.15923 1.3535 2.07923 0.833496 3.33923 0.833496H7.65923C8.91923 0.833496 9.83923 1.36016 10.1926 2.26683C10.5592 3.2135 10.2192 4.38683 9.33923 5.18016L6.2459 8.00016L9.3459 10.8202C10.2192 11.6135 10.5659 12.7868 10.1992 13.7335C9.83923 14.6402 8.91923 15.1668 7.65923 15.1668ZM5.49923 8.6735L2.33256 11.5535C1.77256 12.0668 1.5259 12.8135 1.73923 13.3668C1.93923 13.8802 2.5059 14.1668 3.33923 14.1668H7.65923C8.49256 14.1668 9.05923 13.8868 9.25923 13.3668C9.47256 12.8135 9.23256 12.0668 8.6659 11.5535L5.49923 8.6735ZM3.33923 1.8335C2.5059 1.8335 1.93923 2.1135 1.73923 2.6335C1.5259 3.18683 1.7659 3.9335 2.33256 4.44683L5.49923 7.32683L8.6659 4.44683C9.2259 3.9335 9.47256 3.18683 9.25923 2.6335C9.05923 2.12016 8.49256 1.8335 7.65923 1.8335H3.33923Z" fill="#8A8A8A"/>
</svg>
