<svg width="69" height="61" viewBox="0 0 69 61" fill="none" xmlns="http://www.w3.org/2000/svg">
<path d="M29.2189 4.26939C29.1817 4.48461 29.8088 9.07234 30.319 11.2215C30.8291 13.3706 32.6168 19.3209 32.9427 20.2136L35.3327 17.5309C35.3327 17.5309 33.3924 13.2706 33.2081 11.902C33.0239 10.5334 32.1754 8.26453 31.5497 6.79287C30.924 5.32122 30.4427 3.80713 30.4427 3.80713L29.2189 4.26939Z" fill="#6F564A"/>
<path d="M29.6381 0C29.6381 0 29.1912 0.606243 29.0949 0.932098C28.9987 1.25795 28.8075 2.4477 28.8199 2.92057C28.8323 3.39344 29.2462 4.68625 29.2462 4.68625L30.7107 4.62866L30.5498 3.98907C30.5498 3.98907 31.9002 3.11457 31.8686 2.74476C31.837 2.37495 30.7685 0.622913 30.6708 0.52743C30.5732 0.431947 30.3353 0.527431 30.2088 0.633523C30.0823 0.739616 29.7138 1.37162 29.7138 1.37162C29.7138 1.37162 29.887 0.765381 29.9365 0.545618C30.0685 -2.16809e-07 29.6381 0 29.6381 0Z" fill="#6F564A"/>
<path d="M44.133 9.59534C44.877 9.78327 45.5082 10.4244 45.6883 11.1701C45.7726 11.5414 45.75 11.9325 45.6236 12.2891C45.4972 12.6457 45.2733 12.95 44.9829 13.16C45.0583 13.2235 45.1198 13.3048 45.163 13.3978C45.2061 13.4909 45.2298 13.5935 45.2324 13.698C45.2349 13.8025 45.2161 13.9063 45.1774 14.0018C45.1388 14.0973 45.0812 14.182 45.009 14.2498C44.8372 14.369 44.6311 14.413 44.4313 14.3732C44.2316 14.3333 44.0525 14.2125 43.9295 14.0345C44.0148 14.4468 43.7109 14.8575 43.3135 14.9591C43.1079 15.0001 42.8966 14.9899 42.6951 14.9294C42.4936 14.8688 42.3069 14.7593 42.1487 14.609C41.8484 14.3172 41.6271 13.9395 41.5093 13.5177L42.1308 10.2758C42.5709 9.68627 43.3863 9.40892 44.133 9.59534Z" fill="#263238"/>
<path d="M43.2358 14.4483C43.4355 14.2817 43.5757 14.0431 43.632 13.7741C43.6883 13.5051 43.6571 13.2228 43.5438 12.9767C43.8023 12.7811 43.8463 12.3583 43.7267 12.0385C43.6071 11.7187 43.3664 11.4777 43.1327 11.2473C43.1485 10.8421 43.0229 10.4456 42.7818 10.1392C42.5406 9.83277 42.2021 9.6398 41.8359 9.59988C41.6392 8.9027 40.9063 8.55714 40.2449 8.54805C40.0833 8.55868 39.9213 8.54388 39.7636 8.5041C39.6526 8.45763 39.5446 8.40294 39.4404 8.34041C38.8477 8.03729 38.101 8.31313 37.6843 8.86633C37.6235 8.96006 37.5519 9.04464 37.4712 9.11792C37.3515 9.1903 37.224 9.2458 37.0917 9.28312C36.9532 9.34185 36.8279 9.43276 36.7242 9.54967C36.6205 9.66657 36.5409 9.80673 36.4907 9.9606C36.4068 10.2213 36.4055 10.5289 36.2391 10.7351C36.1429 10.8236 36.0511 10.9177 35.964 11.017C35.7495 11.3413 36.0122 11.8354 35.8403 12.1901C35.8045 12.2628 35.7536 12.3234 35.7124 12.3931C35.6296 12.5361 35.5969 12.7075 35.6203 12.8751C35.6557 12.9984 35.6693 13.1281 35.6601 13.257C35.6289 13.3491 35.5868 13.4362 35.535 13.5162C35.4305 13.7269 35.6299 14.7438 35.7729 14.9257L41.0369 16.7551C41.25 16.7723 41.4628 16.7162 41.6458 16.5946C41.8288 16.473 41.973 16.2918 42.0587 16.0761C42.0776 16.0001 42.1152 15.9314 42.1673 15.8775C42.2212 15.8469 42.2801 15.8284 42.3406 15.823C42.7352 15.7366 42.9195 15.2364 43.0006 14.8014C43.0086 14.7394 43.0263 14.6794 43.0529 14.6241C43.1026 14.5527 43.1648 14.4929 43.2358 14.4483Z" fill="#263238"/>
<path d="M41.7219 13.9481C42.023 12.9236 41.7645 11.5429 40.9765 10.7275C40.4801 10.2137 40.0236 10.0576 39.7279 9.91511C39.3084 9.72377 38.846 9.67778 38.4023 9.78325C38.0915 9.76052 36.7273 10.4774 36.3478 11.6262C35.927 12.9024 35.4595 14.4801 35.3398 15.4956C35.1019 17.5371 36.3918 18.2237 36.3918 18.2237L35.3715 21.4064L39.4185 21.0578L41.7219 13.9481Z" fill="#6F564A"/>
<path d="M37.9234 16.0472C37.9477 15.9096 37.9411 15.7676 37.9041 15.6334C37.8202 15.4728 37.6291 15.5289 37.4655 15.5774C37.3018 15.6259 37.1904 15.6759 37.1904 15.6759L37.2056 15.979C37.2427 16.1154 37.2881 16.2988 37.4063 16.3579L37.4627 16.3822C37.5062 16.4026 37.553 16.4131 37.6002 16.4131C37.6475 16.4131 37.6943 16.4026 37.7377 16.3822C37.8368 16.3014 37.9034 16.1812 37.9234 16.0472Z" fill="#5B4034"/>
<path d="M36.3015 13.1586C36.318 13.201 36.5325 13.1328 36.7704 13.2298C37.0083 13.3268 37.1403 13.5329 37.183 13.5087C37.2256 13.4844 37.1912 13.4299 37.1362 13.3374C37.0586 13.2172 36.9498 13.1258 36.8241 13.0752C36.6997 13.0243 36.5638 13.0185 36.4363 13.0585C36.3373 13.0904 36.2946 13.1358 36.3015 13.1586Z" fill="#263238"/>
<path d="M37.4168 15.0954C37.3001 15.0095 37.1739 14.9403 37.0414 14.8893C36.9809 14.862 36.9259 14.8286 36.9273 14.7786C36.9407 14.7055 36.9743 14.6388 37.0235 14.5876L37.3467 14.1239C37.8019 13.4616 38.1511 12.9114 38.1264 12.8887C38.1016 12.8659 37.7139 13.3903 37.2587 14.0526L36.9424 14.521C36.881 14.5912 36.8441 14.6829 36.8379 14.7801C36.8403 14.8075 36.8484 14.8338 36.8615 14.8572C36.8746 14.8806 36.8924 14.9004 36.9135 14.915C36.9455 14.9362 36.9796 14.953 37.0153 14.965C37.1433 15.0278 37.2784 15.0716 37.4168 15.0954Z" fill="#263238"/>
<path d="M36.3907 18.2236C37.2229 18.5097 38.1108 18.5354 38.9554 18.2979C38.9554 18.2979 37.9584 19.4679 36.2354 18.7132L36.3907 18.2236Z" fill="#5B4034"/>
<path d="M37.0017 11.4822C37.0251 11.561 37.2245 11.5777 37.4376 11.6686C37.6508 11.7596 37.8144 11.8823 37.8791 11.8384C37.9079 11.8156 37.9011 11.7444 37.8433 11.6535C37.7613 11.5376 37.6512 11.4498 37.5257 11.4004C37.4016 11.3481 37.2664 11.3365 37.1365 11.367C37.0389 11.3943 36.9921 11.4443 37.0017 11.4822Z" fill="#263238"/>
<path d="M39.5138 14.3483C39.4767 14.3711 39.3488 14.1695 39.1012 14.0816C38.8537 13.9937 38.6419 14.0604 38.6254 14.0179C38.6172 13.9997 38.6639 13.9512 38.763 13.9179C38.8919 13.8769 39.0292 13.8806 39.1562 13.9285C39.2821 13.9741 39.3914 14.0628 39.4684 14.1816C39.5248 14.268 39.5317 14.3347 39.5138 14.3483Z" fill="#263238"/>
<path d="M40.1597 12.6432C40.0937 12.6857 39.9259 12.5538 39.7031 12.4689C39.4804 12.3841 39.2768 12.3568 39.2535 12.2765C39.2425 12.2401 39.292 12.1901 39.391 12.1628C39.526 12.1342 39.6656 12.1478 39.7939 12.2022C39.9235 12.251 40.0376 12.3399 40.1226 12.4583C40.1817 12.5493 40.1899 12.6205 40.1597 12.6432Z" fill="#263238"/>
<path d="M40.9447 15.7123C40.9832 15.5607 41.2266 15.2727 41.3572 15.294C41.7216 15.3455 42.3391 15.5789 42.086 16.5549C41.7395 17.8872 40.5968 17.2294 40.605 17.19C40.6133 17.1506 40.8099 16.2064 40.9447 15.7123Z" fill="#6F564A"/>
<path d="M41.0715 16.8005C41.0715 16.8005 41.088 16.8232 41.1183 16.8535C41.1623 16.8929 41.2185 16.912 41.275 16.9066C41.4126 16.8944 41.5817 16.705 41.6505 16.467C41.683 16.3535 41.6924 16.2334 41.678 16.1154C41.6773 16.0703 41.6666 16.026 41.647 15.9864C41.6273 15.9468 41.5993 15.9131 41.5652 15.8881C41.5433 15.874 41.5176 15.8688 41.4925 15.8732C41.4674 15.8776 41.4445 15.8914 41.4277 15.9123C41.4016 15.9442 41.4029 15.973 41.396 15.973C41.3892 15.973 41.3754 15.9426 41.396 15.8911C41.4115 15.86 41.4363 15.8359 41.4662 15.8229C41.5063 15.8048 41.5512 15.8048 41.5913 15.8229C41.6381 15.8494 41.678 15.8887 41.7071 15.9369C41.7362 15.9852 41.7537 16.0409 41.7577 16.0987C41.7791 16.2302 41.7711 16.3655 41.7343 16.4928C41.6559 16.7596 41.4662 16.9717 41.2764 16.9717C41.2414 16.9716 41.2069 16.963 41.1753 16.9465C41.1437 16.93 41.1158 16.906 41.0935 16.8763C41.0646 16.8338 41.066 16.802 41.0715 16.8005Z" fill="#5B4034"/>
<path d="M36.0752 11.558C36.2118 11.5302 36.3384 11.4602 36.4401 11.356C36.5419 11.2519 36.6147 11.118 36.65 10.9699C36.7971 11.076 37.0227 10.9002 37.1574 10.7759C37.2922 10.6517 37.4325 10.6123 37.4723 10.4243C37.4771 10.386 37.4914 10.3498 37.5136 10.3198C37.5581 10.2844 37.6134 10.2697 37.6676 10.2788C37.8091 10.2735 37.9471 10.2291 38.0689 10.1497C38.1907 10.0702 38.2925 9.95828 38.3648 9.82415C38.5912 10.0338 38.8616 10.1776 39.1514 10.2425C39.189 10.3619 39.2532 10.469 39.338 10.5541C39.4228 10.6392 39.5256 10.6996 39.637 10.7297C39.7484 10.7599 39.8649 10.7588 39.9758 10.7266C40.0867 10.6945 40.1886 10.6322 40.2721 10.5456C40.2915 10.6396 40.3289 10.728 40.3818 10.8049C40.4347 10.8817 40.5018 10.9452 40.5788 10.9912C40.7334 11.0815 40.8993 11.1464 41.0711 11.1836C40.9921 11.3541 40.9715 11.5502 41.0129 11.7361C41.0543 11.922 41.155 12.0853 41.2966 12.1961C41.3351 12.2234 41.3819 12.2552 41.3887 12.3052C41.3956 12.3552 41.3599 12.4052 41.331 12.4477C41.2876 12.5167 41.2572 12.5947 41.2418 12.677C41.2264 12.7592 41.2262 12.8441 41.2412 12.9264C41.2562 13.0088 41.2862 13.0869 41.3292 13.1562C41.3723 13.2255 41.4276 13.2846 41.4919 13.3297C41.4339 13.3597 41.3829 13.4037 41.3426 13.4586C41.3023 13.5134 41.2738 13.5775 41.2592 13.6462C41.2446 13.715 41.2444 13.7864 41.2585 13.8552C41.2726 13.924 41.3007 13.9885 41.3406 14.0436C41.3764 14.0875 41.4245 14.1406 41.4025 14.1952C41.3924 14.2143 41.3783 14.2304 41.3612 14.2421C41.2281 14.3332 41.1213 14.4641 41.0532 14.6195C41.0217 14.6975 41.0184 14.7858 41.044 14.8663C41.0695 14.9469 41.122 15.0136 41.1907 15.053C41.1393 15.074 41.0923 15.1064 41.0526 15.1481C41.0129 15.1897 40.9813 15.2399 40.9597 15.2955C40.9267 15.4107 41.0009 15.5622 41.111 15.5516C41.3501 15.5752 41.5901 15.5853 41.8302 15.5819C42.3073 15.1818 42.0282 14.4786 42.1643 13.8344C42.2889 13.183 42.2747 12.5086 42.1231 11.8642C42.0688 11.5927 41.9823 11.3302 41.8659 11.0836C41.7193 10.8101 41.5449 10.5559 41.3461 10.3258C41.1132 10.0042 40.8345 9.72632 40.521 9.50284C39.9146 9.12242 39.1679 9.16334 38.4789 9.2755C38.2147 9.30826 37.9557 9.38014 37.7089 9.4892C37.423 9.64285 37.1641 9.85119 36.9443 10.1045C36.6051 10.4442 36.3327 10.8568 36.144 11.317" fill="#263238"/>
<path d="M35.9624 11.0139C35.9909 10.9679 36.0257 10.927 36.0655 10.8927C36.104 10.8563 36.1535 10.8169 36.2031 10.7608C36.2629 10.6971 36.3097 10.6202 36.3406 10.535C36.377 10.4278 36.4046 10.3172 36.4231 10.2046C36.4458 10.0692 36.4847 9.93776 36.5386 9.81358C36.6064 9.67136 36.7 9.546 36.8136 9.44529C36.8753 9.391 36.9422 9.34425 37.013 9.30585C37.0882 9.26801 37.1659 9.2366 37.2454 9.21189C37.3273 9.18799 37.4049 9.14905 37.4751 9.0967C37.5444 9.03583 37.6055 8.96438 37.6566 8.88452C37.9096 8.53916 38.266 8.30437 38.6618 8.2222C38.7679 8.20066 38.8758 8.19202 38.9836 8.19643C39.0951 8.20261 39.2055 8.22399 39.3122 8.26009C39.3659 8.27827 39.4181 8.30404 39.4704 8.32829C39.5226 8.35254 39.5721 8.38437 39.6217 8.41165C39.7213 8.47186 39.8315 8.50802 39.9448 8.51774C40.0589 8.52986 40.1758 8.51774 40.2955 8.52683C40.4165 8.53074 40.537 8.54595 40.6558 8.5723C40.7766 8.59818 40.8953 8.63518 41.0105 8.68294C41.1272 8.73338 41.2392 8.79632 41.3447 8.87088C41.5641 9.02252 41.7349 9.24622 41.8329 9.51046L41.8604 9.59079L41.8439 9.57563C42.2146 9.61593 42.5573 9.81115 42.8015 10.1212C43.0457 10.4312 43.173 10.8326 43.1571 11.2428V11.2261C43.2829 11.3458 43.4018 11.4739 43.5133 11.6096C43.6223 11.743 43.7085 11.897 43.7677 12.0643C43.8202 12.2281 43.8316 12.4046 43.8007 12.575C43.7731 12.7405 43.6883 12.8877 43.5642 12.9857V12.963C43.6765 13.2012 43.7101 13.475 43.6591 13.7375C43.617 13.9728 43.511 14.1885 43.3552 14.3559C43.3192 14.3945 43.2806 14.43 43.2396 14.4619C43.1998 14.4923 43.1599 14.5211 43.1255 14.5529C43.0909 14.584 43.064 14.6241 43.0471 14.6696C43.032 14.7147 43.0209 14.7614 43.0141 14.809C42.9819 14.9814 42.9321 15.1492 42.8656 15.3092C42.812 15.4389 42.7363 15.5562 42.6428 15.6547C42.5725 15.7247 42.4889 15.7764 42.3981 15.8063C42.3238 15.8305 42.2605 15.8305 42.2262 15.8442C42.2074 15.8515 42.189 15.8601 42.1712 15.8699C42.1868 15.8556 42.2051 15.8452 42.2248 15.8396C42.2619 15.823 42.3224 15.8214 42.3953 15.7957C42.484 15.7656 42.5653 15.7138 42.6332 15.6441C42.7249 15.5467 42.7982 15.4303 42.8491 15.3016C42.9116 15.1426 42.9577 14.9763 42.9866 14.806C42.9935 14.7568 43.0051 14.7086 43.021 14.662C43.0388 14.6129 43.0671 14.5692 43.1035 14.5347C43.141 14.5012 43.18 14.4698 43.2204 14.4407C43.26 14.4098 43.2973 14.3753 43.3318 14.3377C43.4834 14.1734 43.5856 13.9618 43.6247 13.7314C43.6735 13.477 43.6404 13.2117 43.5312 12.9812L43.5243 12.9676L43.5353 12.9585C43.652 12.8648 43.7317 12.7254 43.7581 12.569C43.7871 12.4054 43.7752 12.2361 43.7237 12.0794C43.6668 11.9167 43.5829 11.7671 43.4762 11.6384C43.3651 11.5042 43.2466 11.3776 43.1214 11.2595H43.1145V11.2504C43.1293 10.8507 43.005 10.4599 42.767 10.1579C42.529 9.85591 42.1954 9.66551 41.8343 9.62565H41.8219V9.61201L41.7944 9.53471C41.6998 9.27834 41.5343 9.0614 41.3213 8.91483C41.2178 8.84235 41.1082 8.78094 40.994 8.73144C40.8811 8.68373 40.7647 8.64672 40.6461 8.6208C40.5292 8.59495 40.4105 8.58025 40.2913 8.57685C40.1745 8.57685 40.0562 8.57685 39.9379 8.56624C39.8792 8.56087 39.8211 8.54868 39.7647 8.52986C39.709 8.51076 39.6552 8.48589 39.6038 8.4556C39.5529 8.42832 39.5034 8.39801 39.4525 8.37224C39.4022 8.34714 39.3508 8.32489 39.2985 8.30556C39.1948 8.27069 39.0877 8.24983 38.9795 8.24342C38.874 8.23925 38.7685 8.24738 38.6646 8.26767C38.2742 8.34241 37.9213 8.56943 37.6703 8.90725C37.6166 8.9889 37.5533 9.0623 37.4819 9.1255C37.4088 9.17856 37.3285 9.21847 37.244 9.24372C37.1653 9.26691 37.0885 9.29733 37.0144 9.33465C36.816 9.43923 36.6538 9.61212 36.5523 9.82722C36.4983 9.94936 36.459 10.0788 36.4355 10.2122C36.4157 10.3255 36.3867 10.4365 36.3488 10.5441C36.3186 10.6305 36.2716 10.7085 36.2113 10.773C36.1577 10.829 36.1082 10.8669 36.0738 10.9018C36.044 10.9267 36.0164 10.9546 35.9913 10.9851C35.9707 11.0048 35.9638 11.0139 35.9624 11.0139Z" fill="#455A64"/>
<path d="M41.3485 9.12253C41.3485 9.12253 41.3224 9.09222 41.2729 9.04068C41.2019 8.96963 41.1205 8.91225 41.0322 8.87094C40.9026 8.80828 40.7601 8.78525 40.6197 8.80425C40.4479 8.83058 40.2878 8.91536 40.1618 9.04675C40.1246 9.08652 40.0909 9.13017 40.0614 9.17709C40.0465 9.1983 40.0361 9.22296 40.0311 9.24921C40.0261 9.27546 40.0266 9.30263 40.0325 9.32865L40.0504 9.38321L40.0077 9.34684C39.8922 9.26869 39.7538 9.24264 39.6213 9.27409C39.5145 9.29932 39.418 9.36208 39.3463 9.45293C39.299 9.51266 39.263 9.58223 39.2404 9.65754C39.2239 9.70907 39.2198 9.73938 39.217 9.73938C39.2143 9.73938 39.217 9.73938 39.217 9.71665C39.219 9.69511 39.2227 9.67382 39.228 9.65299C39.2467 9.57352 39.281 9.49953 39.3284 9.43626C39.4003 9.33829 39.4993 9.26907 39.6103 9.23923C39.7514 9.20319 39.8996 9.22987 40.0229 9.31349L39.9954 9.33623C39.9884 9.30594 39.9876 9.27431 39.9931 9.24364C39.9985 9.21297 40.0101 9.18402 40.027 9.1589C40.0573 9.10809 40.0928 9.06131 40.1329 9.01947C40.2644 8.8815 40.4326 8.79382 40.6128 8.76939C40.7595 8.75135 40.908 8.77809 41.0419 8.84669C41.1318 8.89128 41.213 8.95457 41.2811 9.03311C41.2997 9.05419 41.3172 9.07645 41.3334 9.09979C41.3444 9.11343 41.3499 9.12101 41.3485 9.12253Z" fill="#455A64"/>
<path d="M42.8957 11.2882C42.8792 11.3026 42.8606 11.3139 42.8407 11.3216C42.788 11.3476 42.7332 11.3679 42.677 11.3822C42.5906 11.4035 42.5009 11.4035 42.4144 11.3822C42.3034 11.3573 42.2051 11.2869 42.1394 11.1852H42.1669L42.1174 11.2276L42.0623 11.267C41.9529 11.3344 41.8302 11.3714 41.7048 11.3746C41.6031 11.3781 41.5017 11.3595 41.4064 11.3201C41.3432 11.2934 41.2839 11.2567 41.2304 11.2109C41.2102 11.1945 41.1922 11.1751 41.1768 11.1533C41.2513 11.2099 41.3316 11.2567 41.416 11.2928C41.5087 11.326 41.606 11.3409 41.7034 11.3367C41.8227 11.3313 41.939 11.295 42.0431 11.2306L42.0954 11.1943L42.1421 11.1533L42.16 11.1382L42.171 11.1579C42.2309 11.2507 42.3193 11.3165 42.4199 11.3428C42.5015 11.364 42.5862 11.3665 42.6688 11.3504C42.8118 11.3261 42.8957 11.2806 42.8957 11.2882Z" fill="#455A64"/>
<path d="M43.1993 12.7296C43.1993 12.7296 43.1993 12.7371 43.1897 12.7523C43.1778 12.7734 43.1629 12.7924 43.1457 12.8084C43.0798 12.8656 42.9969 12.8937 42.9133 12.8872C42.7915 12.8728 42.6759 12.8202 42.5805 12.7356C42.5221 12.6885 42.4661 12.6379 42.4127 12.5841C42.3497 12.5277 42.3064 12.4489 42.2903 12.3613V12.3385L42.3165 12.3567C42.1822 12.4204 42.0398 12.4608 41.8943 12.4764C41.774 12.4887 41.6529 12.4635 41.545 12.4037C41.4723 12.3644 41.4102 12.3048 41.3649 12.2309C41.353 12.2113 41.3429 12.1905 41.3346 12.1688C41.3346 12.1521 41.3277 12.1445 41.3346 12.1445C41.3415 12.1445 41.3497 12.1733 41.3827 12.2218C41.431 12.2874 41.4928 12.3393 41.5629 12.3734C41.6672 12.4265 41.7827 12.4475 41.897 12.434C42.0391 12.4158 42.1781 12.375 42.3096 12.3128L42.333 12.3037V12.3325V12.3522C42.3468 12.43 42.3853 12.4998 42.4416 12.5492C42.4938 12.6003 42.5484 12.6484 42.6052 12.6932C42.6947 12.7752 42.8034 12.8277 42.9188 12.8447C42.9974 12.8538 43.0763 12.8318 43.1415 12.7826C43.1622 12.7669 43.1815 12.7491 43.1993 12.7296Z" fill="#455A64"/>
<path d="M37.6375 16.3973C37.7103 16.3785 37.775 16.3324 37.8204 16.267C37.907 16.0908 37.9297 15.8849 37.8837 15.691C37.8793 15.6678 37.8696 15.6462 37.8553 15.6284C37.8411 15.6106 37.8229 15.5972 37.8025 15.5895C37.7571 15.5802 37.7105 15.5802 37.665 15.5895C37.5701 15.6031 37.4849 15.6183 37.4134 15.6319C37.3366 15.6549 37.2577 15.6681 37.1782 15.6713C37.247 15.6249 37.323 15.5931 37.4024 15.5774C37.4857 15.5525 37.5701 15.5328 37.6554 15.5182C37.7098 15.5051 37.7661 15.5051 37.8204 15.5182C37.852 15.5293 37.8806 15.549 37.9034 15.5755C37.9263 15.602 37.9426 15.6345 37.9511 15.6698C37.9779 15.7765 37.9836 15.8883 37.9677 15.9976C37.9518 16.107 37.9147 16.2112 37.8589 16.3033C37.8201 16.3582 37.7643 16.3954 37.7022 16.4079C37.6609 16.4125 37.6375 16.4018 37.6375 16.3973Z" fill="#263238"/>
<path d="M45.9369 10.2395C45.9195 10.1482 45.8932 10.0593 45.8585 9.97427C45.8088 9.86111 45.7392 9.75996 45.6538 9.6767C45.5683 9.59345 45.4687 9.52973 45.3607 9.48927C45.212 9.43548 45.0515 9.43548 44.9028 9.48927C44.733 9.55352 44.5858 9.67492 44.482 9.83635C44.4217 9.91926 44.3817 10.0179 44.3661 10.1228C44.3504 10.2276 44.3596 10.3352 44.3926 10.435C44.4083 10.4831 44.4397 10.5229 44.4806 10.5467C44.5216 10.5706 44.5692 10.5767 44.614 10.5638C44.6617 10.5446 44.7054 10.5149 44.7425 10.4767C44.7796 10.4384 44.8093 10.3923 44.8299 10.341C44.8767 10.2374 44.9033 10.1242 44.908 10.0085C44.9128 9.89292 44.8955 9.77748 44.8574 9.66963C44.7916 9.46368 44.6588 9.29195 44.4847 9.18767C44.3352 9.10114 44.1694 9.05443 44.0006 9.05127C43.8317 9.04812 43.6646 9.0886 43.5125 9.16948C43.3045 9.27999 43.1231 9.44304 42.9831 9.64538C42.8827 9.78785 42.8456 9.87878 42.8359 9.87424C42.8414 9.85086 42.8497 9.82842 42.8607 9.80755C42.8905 9.74503 42.924 9.68478 42.9611 9.62719C43.0959 9.41113 43.278 9.23599 43.4905 9.11795C43.6494 9.02878 43.8251 8.9823 44.0034 8.9823C44.1817 8.9823 44.3575 9.02878 44.5164 9.11795C44.7076 9.22818 44.8546 9.41298 44.9289 9.63629C44.9706 9.75437 44.9895 9.88076 44.9842 10.0073C44.979 10.1339 44.9499 10.2579 44.8986 10.3714C44.8738 10.4323 44.838 10.487 44.7933 10.5321C44.7486 10.5772 44.696 10.6117 44.6387 10.6336C44.5764 10.6524 44.5098 10.6437 44.4531 10.6093C44.3997 10.5744 44.3581 10.5212 44.3348 10.4577C44.2889 10.3439 44.2783 10.2166 44.3046 10.0955C44.3289 9.98318 44.3728 9.87714 44.4338 9.7833C44.5466 9.61047 44.7066 9.48195 44.8904 9.41652C45.0497 9.35783 45.222 9.35783 45.3813 9.41652C45.4943 9.46038 45.5977 9.52965 45.6851 9.61992C45.7724 9.7102 45.8418 9.81952 45.8888 9.94092C45.9281 10.0341 45.9447 10.137 45.9369 10.2395Z" fill="#263238"/>
<path d="M35.3325 9.53775C35.3325 9.53775 35.3325 9.52108 35.3504 9.49683C35.3728 9.46031 35.4018 9.42934 35.4357 9.4059C35.4877 9.37095 35.5467 9.35065 35.6075 9.34679C35.6944 9.3378 35.7812 9.36481 35.8509 9.42257C36.0091 9.55442 36.0765 9.8045 36.126 10.0561C36.1397 10.1197 36.1535 10.1864 36.1686 10.2531C36.1873 10.3249 36.1939 10.4 36.1879 10.4744C36.1808 10.5182 36.1616 10.5584 36.1329 10.5896C36.1011 10.6197 36.0606 10.6364 36.0187 10.6366C35.9792 10.6369 35.9401 10.6274 35.9044 10.6087C35.8687 10.5901 35.8373 10.5628 35.8124 10.529C35.7692 10.4637 35.744 10.386 35.7401 10.3052C35.7362 10.2245 35.7537 10.1443 35.7904 10.0743C35.8262 10.0106 35.8756 9.95764 35.9344 9.9201C35.9932 9.88256 36.0595 9.86159 36.1274 9.85906C36.2484 9.8516 36.3675 9.89553 36.4601 9.98183C36.5391 10.0558 36.5989 10.1515 36.6334 10.2592C36.6777 10.4135 36.6777 10.5792 36.6334 10.7336C36.6219 10.7883 36.6003 10.8399 36.5701 10.8851C36.5701 10.8851 36.5866 10.826 36.6059 10.7199C36.6378 10.5687 36.6282 10.4105 36.5784 10.2652C36.5441 10.1696 36.4882 10.0851 36.4161 10.0197C36.3343 9.94596 36.23 9.90962 36.1246 9.91817C36.0688 9.92144 36.0145 9.93972 35.9666 9.97142C35.9186 10.0031 35.8785 10.0473 35.8496 10.1C35.8196 10.1569 35.8053 10.2222 35.8085 10.2879C35.8116 10.3536 35.8321 10.4168 35.8675 10.4699C35.885 10.4943 35.9074 10.5141 35.9329 10.5278C35.9583 10.5414 35.9863 10.5486 36.0146 10.5487C36.0396 10.55 36.0641 10.5406 36.083 10.5226C36.102 10.5045 36.1139 10.4791 36.1164 10.4517C36.1222 10.3864 36.1166 10.3206 36.0998 10.2577C36.0861 10.1925 36.0737 10.1273 36.06 10.0637C36.0173 9.81056 35.9555 9.57564 35.8207 9.45743C35.7673 9.41261 35.7032 9.38601 35.6362 9.38089C35.5693 9.37577 35.5024 9.39237 35.4439 9.42863C35.4027 9.45955 35.3652 9.49623 35.3325 9.53775Z" fill="#263238"/>
<path d="M41.1752 8.98141C41.2052 8.91733 41.2252 8.84817 41.2344 8.7768C41.2411 8.67932 41.2273 8.58144 41.1942 8.49077C41.161 8.40009 41.1094 8.31904 41.0432 8.25392C40.9371 8.16551 40.8136 8.10575 40.6828 8.07943C40.5519 8.05311 40.4173 8.06096 40.2896 8.10235C40.1329 8.13565 39.9837 8.20316 39.851 8.3009C39.7795 8.34706 39.7196 8.4121 39.6766 8.49016C39.6336 8.56821 39.609 8.65682 39.6048 8.748L39.5416 8.72375C39.5733 8.67836 39.5964 8.62635 39.6093 8.57087C39.6223 8.51539 39.625 8.45758 39.6172 8.40093C39.6048 8.29938 39.5696 8.20283 39.5149 8.12001C39.4602 8.03718 39.3876 7.9707 39.3037 7.92655C39.1404 7.85005 38.9594 7.83254 38.7866 7.87653C38.486 7.94117 38.2114 8.10815 38.0014 8.35395C37.8617 8.52222 37.7829 8.7412 37.78 8.96928C37.7829 9.0531 37.7935 9.13637 37.8116 9.21784C37.8002 9.1992 37.7914 9.17876 37.7855 9.15722C37.7661 9.09725 37.755 9.03441 37.7525 8.9708C37.7447 8.73149 37.8199 8.49789 37.9629 8.31757C38.1763 8.05586 38.4602 7.87634 38.7729 7.8053C38.9601 7.75702 39.1565 7.77505 39.3339 7.85683C39.429 7.90611 39.5113 7.98093 39.5733 8.07441C39.6353 8.16789 39.675 8.27704 39.6887 8.39184C39.6973 8.45905 39.6936 8.52749 39.6777 8.59309C39.6619 8.65869 39.6343 8.72013 39.5966 8.77377L39.5361 8.85561V8.74952C39.5399 8.64594 39.5671 8.54505 39.6151 8.4559C39.6631 8.36675 39.7305 8.29214 39.8111 8.23876C39.9534 8.13328 40.114 8.06154 40.2828 8.02809C40.4198 7.98697 40.5637 7.98244 40.7027 8.01486C40.8416 8.04728 40.9716 8.11572 41.0817 8.21451C41.1507 8.28607 41.2033 8.37458 41.2353 8.47282C41.2674 8.57107 41.2779 8.67626 41.266 8.77983C41.2575 8.83356 41.2398 8.88501 41.2137 8.93139C41.1908 8.96676 41.178 8.98343 41.1752 8.98141Z" fill="#263238"/>
<path d="M40.362 15.4849C40.362 15.4849 40.3483 15.4773 40.3249 15.4576C40.2926 15.427 40.2632 15.393 40.2369 15.3561C40.1432 15.2144 40.0904 15.0448 40.0856 14.8696C40.0829 14.7382 40.1092 14.6081 40.1621 14.4904C40.215 14.3726 40.2931 14.2708 40.3895 14.1936C40.5035 14.1009 40.6378 14.0433 40.7787 14.0269C40.8576 14.0107 40.9391 14.0229 41.0111 14.0618C41.031 14.0782 41.0465 14.1002 41.056 14.1256C41.0654 14.1509 41.0684 14.1786 41.0647 14.2057C41.0612 14.2314 41.0529 14.2559 41.0404 14.2778C41.0278 14.2997 41.0113 14.3185 40.9919 14.3331C40.9549 14.3555 40.9138 14.3685 40.8717 14.3711C40.8296 14.3738 40.7875 14.3659 40.7485 14.3482C40.6752 14.3192 40.6096 14.2708 40.5573 14.2073C40.5083 14.1486 40.4707 14.0795 40.4471 14.0041C40.4234 13.9287 40.4141 13.8488 40.4198 13.7692C40.4348 13.6266 40.4929 13.4937 40.5848 13.3919C40.6636 13.3045 40.7617 13.2413 40.8695 13.2085C41.0238 13.1653 41.1866 13.1775 41.3343 13.2433C41.3888 13.2635 41.4389 13.296 41.4814 13.3388C41.4814 13.3388 41.4264 13.31 41.3246 13.2736C41.1821 13.22 41.028 13.2157 40.8832 13.2615C40.779 13.2959 40.686 13.3627 40.6153 13.4538C40.5446 13.5449 40.4991 13.6565 40.4844 13.7753C40.4806 13.8445 40.4895 13.9139 40.5105 13.9792C40.5316 14.0446 40.5643 14.1046 40.6068 14.1557C40.6512 14.2086 40.7063 14.2491 40.7677 14.2739C40.7961 14.2887 40.8271 14.2963 40.8585 14.2963C40.8898 14.2963 40.9208 14.2887 40.9492 14.2739C40.9946 14.2421 41.0084 14.1603 40.9671 14.1345C40.909 14.1072 40.8451 14.0988 40.7828 14.1103C40.6542 14.1258 40.5314 14.178 40.4267 14.2618C40.3367 14.3313 40.2631 14.4237 40.2121 14.531C40.1612 14.6383 40.1343 14.7575 40.1338 14.8787C40.134 15.0445 40.1769 15.2069 40.2575 15.347C40.3194 15.4364 40.3662 15.4804 40.362 15.4849Z" fill="#263238"/>
<path d="M47.2291 11.4761C47.2291 11.4761 47.1672 11.4473 47.0544 11.4094C46.8962 11.3575 46.7299 11.343 46.5662 11.367C46.4542 11.3829 46.3451 11.4182 46.2431 11.4716C46.1273 11.5217 46.0303 11.6136 45.9681 11.7323C45.9548 11.763 45.948 11.7967 45.948 11.8308C45.948 11.8648 45.9548 11.8985 45.9681 11.9293C45.9851 11.9589 46.0087 11.9833 46.0366 12.0003C46.0644 12.0172 46.0957 12.0262 46.1276 12.0263C46.1991 12.0171 46.2677 11.9892 46.3275 11.9449C46.3872 11.9006 46.4366 11.8412 46.4714 11.7717C46.5697 11.6432 46.6381 11.4903 46.6708 11.3261C46.6847 11.2518 46.6838 11.1751 46.6682 11.1013C46.6525 11.0275 46.6224 10.9584 46.58 10.8987C46.491 10.7994 46.3732 10.7377 46.2472 10.7244C46.1343 10.7062 46.0203 10.6971 45.9062 10.6971C45.7415 10.6852 45.5785 10.739 45.4469 10.8487C45.4022 10.8939 45.3625 10.9448 45.3286 11.0002C45.3303 10.9825 45.3354 10.9654 45.3437 10.9502C45.3646 10.904 45.3931 10.8623 45.4276 10.8274C45.5602 10.7024 45.7304 10.6365 45.9048 10.6425C46.022 10.639 46.1392 10.6456 46.2555 10.6622C46.3969 10.6742 46.5297 10.742 46.6295 10.8532C46.6791 10.9204 46.7148 10.9988 46.7341 11.0829C46.7533 11.1669 46.7556 11.2546 46.7409 11.3397C46.7069 11.5172 46.6337 11.6828 46.5277 11.8217C46.4781 11.8956 46.4193 11.9614 46.3531 12.0172C46.2843 12.0754 46.1991 12.105 46.1124 12.1005C46.0691 12.0992 46.0267 12.0859 45.9892 12.0618C45.9517 12.0377 45.9203 12.0036 45.8979 11.9626C45.8801 11.9217 45.8709 11.8769 45.8709 11.8315C45.8709 11.7861 45.8801 11.7413 45.8979 11.7004C45.9695 11.5653 46.0819 11.4622 46.2156 11.4094C46.3239 11.3555 46.4396 11.3216 46.558 11.3094C46.7283 11.2889 46.9006 11.3122 47.0613 11.3776C47.1045 11.3951 47.1463 11.4164 47.1864 11.4413C47.2167 11.4685 47.2304 11.4685 47.2291 11.4761Z" fill="#263238"/>
<path d="M50.2684 8.74048C50.2684 8.74048 46.8594 12.7114 45.9656 13.5904C45.1171 14.424 41.6133 17.775 41.6133 17.775L42.8509 21.6853C42.8509 21.6853 46.33 17.337 46.9873 16.3579L49.9274 12.0551C50.3275 11.3989 51.5775 9.56194 51.5775 9.56194L50.2684 8.74048Z" fill="#6F564A"/>
<path d="M50.2669 8.70871C50.2669 8.70871 50.1871 7.85239 50.1458 7.65688C50.1046 7.46136 49.8859 6.843 49.9409 6.52623C49.996 6.20947 50.4456 5.61687 50.6285 5.42742C50.8114 5.23797 51.1208 5.17128 51.2295 5.42742C51.2295 5.42742 51.6117 5.45773 51.6943 5.62293C51.7426 5.71832 51.7796 5.8202 51.8043 5.92605L52.2952 5.81996C52.2952 5.81996 52.4052 6.13672 52.2141 6.31708C52.2141 6.31708 52.4602 6.33224 52.5001 6.55806C52.528 6.80901 52.4953 7.06363 52.4052 7.29616C52.3502 7.35679 52.0628 7.62808 52.0628 7.62808C52.0628 7.62808 52.2278 8.81783 52.104 9.05881C51.9803 9.29979 51.1057 9.94696 51.1057 9.94696L50.2669 8.70871Z" fill="#6F564A"/>
<path d="M51.5586 7.42952C51.6205 7.54319 51.7965 7.68414 51.9079 7.63716C51.9625 7.61045 52.0116 7.57164 52.052 7.52314C52.0925 7.47465 52.1235 7.4175 52.143 7.35525C52.1808 7.23032 52.203 7.1003 52.209 6.96877L52.2434 6.56714" fill="#6F564A"/>
<path d="M52.2463 6.56714C52.2582 6.64794 52.2582 6.73035 52.2463 6.81115C52.2463 6.88541 52.2394 6.97484 52.2311 7.07335C52.2248 7.18478 52.202 7.29432 52.1638 7.39769C52.1228 7.5061 52.0496 7.5959 51.9561 7.65231C51.9122 7.6795 51.8605 7.68709 51.8117 7.67353C51.773 7.66213 51.7363 7.64369 51.7031 7.61897C51.5834 7.52955 51.5491 7.43407 51.5573 7.42952C51.611 7.48214 51.6684 7.52979 51.7292 7.57198C51.7575 7.59444 51.7908 7.60776 51.8256 7.61044C51.8603 7.61311 51.895 7.60505 51.9259 7.58714C52.0036 7.53615 52.064 7.4584 52.0977 7.36586C52.1509 7.18395 52.1841 6.99569 52.1968 6.80509C52.2015 6.72334 52.2182 6.64299 52.2463 6.56714Z" fill="#5B4034"/>
<path d="M50.5469 6.38821C50.6151 6.37244 50.6769 6.33278 50.723 6.27515C50.7691 6.21751 50.797 6.145 50.8026 6.06842C50.7851 6.15902 50.7804 6.25208 50.7889 6.34426C50.7928 6.39068 50.8064 6.43547 50.8286 6.47516C50.8507 6.51486 50.8809 6.54837 50.9168 6.57311C50.978 6.60097 51.0461 6.60488 51.1096 6.5842C51.1732 6.56352 51.2284 6.5195 51.2661 6.45944C51.3912 6.2806 51.3857 6.03356 51.3733 5.80773C51.3651 5.64405 51.3733 5.35305 51.0873 5.25757" fill="#6F564A"/>
<path d="M51.0873 5.25464C51.0873 5.25464 51.1258 5.25464 51.1863 5.28495C51.2298 5.30828 51.2684 5.34136 51.2997 5.38207C51.3309 5.42278 51.3542 5.47023 51.3678 5.52139C51.3877 5.59008 51.3988 5.6615 51.4008 5.73357C51.4008 5.80784 51.4118 5.88513 51.4118 5.97455C51.4295 6.16828 51.3776 6.36193 51.2674 6.51411C51.2046 6.58764 51.1184 6.63162 51.0268 6.63687C50.9829 6.63818 50.9394 6.62649 50.901 6.60304C50.8625 6.57959 50.8305 6.54522 50.8082 6.5035C50.7689 6.43192 50.7497 6.34911 50.7531 6.26555C50.756 6.19677 50.7638 6.12835 50.7765 6.06094H50.8288C50.8235 6.12054 50.8053 6.17785 50.7756 6.22799C50.7459 6.27813 50.7056 6.31962 50.6583 6.34891C50.5909 6.3868 50.5469 6.38376 50.5469 6.37922C50.5469 6.37467 50.5854 6.36406 50.6418 6.32163C50.6813 6.29198 50.7142 6.25285 50.738 6.20717C50.7618 6.16149 50.7759 6.11046 50.7793 6.05791H50.8315C50.8005 6.18962 50.8127 6.32918 50.8659 6.45197C50.8828 6.48237 50.9067 6.50725 50.9353 6.52404C50.9638 6.54083 50.9959 6.54891 51.0282 6.54745C51.1009 6.54138 51.1691 6.50573 51.2193 6.44742C51.3153 6.30893 51.3614 6.13615 51.3486 5.96243C51.3532 5.81633 51.3444 5.6701 51.3225 5.52593C51.3011 5.43246 51.2485 5.35129 51.1753 5.29859C51.1453 5.28557 51.116 5.2709 51.0873 5.25464Z" fill="#5B4034"/>
<path d="M50.3945 7.29311C50.624 6.92783 50.8927 6.5945 51.1949 6.30038C51.5 6.00787 51.8906 5.84643 52.295 5.8457C52.311 5.92624 52.3087 6.00989 52.2883 6.08922C52.2679 6.16855 52.2301 6.24109 52.1781 6.30038C52.0736 6.41902 51.9584 6.52566 51.8343 6.61866C51.7071 6.71094 51.6083 6.8436 51.551 6.99908C51.4905 7.20672 51.5593 7.42951 51.5978 7.64321C51.6798 8.11056 51.6168 8.59472 51.419 9.01787" fill="#6F564A"/>
<path d="M51.4211 9.0194C51.4211 9.0194 51.4513 8.93756 51.4981 8.79055C51.5631 8.58194 51.5998 8.36384 51.6067 8.14338C51.6118 7.99106 51.6017 7.83858 51.5764 7.6887C51.5344 7.51616 51.5077 7.33952 51.4967 7.16127C51.498 7.05899 51.5231 6.95879 51.5696 6.87028C51.6194 6.78174 51.6827 6.7033 51.7566 6.63839C51.912 6.52389 52.0555 6.39071 52.1843 6.2413C52.2254 6.18876 52.2547 6.12615 52.2695 6.05867C52.2843 5.99119 52.2843 5.92079 52.2695 5.8533L52.3025 5.88058C51.9894 5.87456 51.6821 5.97339 51.4211 6.164C51.2085 6.31606 51.0156 6.49908 50.8476 6.7081C50.7032 6.88391 50.596 7.03396 50.519 7.13551C50.4824 7.18954 50.4419 7.24022 50.3979 7.28707C50.4262 7.22614 50.4603 7.16873 50.4997 7.1158C50.5685 7.00819 50.6716 6.8536 50.8132 6.67021C50.9786 6.45135 51.1717 6.25992 51.3867 6.10186C51.6581 5.89971 51.9791 5.79393 52.3066 5.79874H52.3314L52.3383 5.82451C52.3557 5.9032 52.3562 5.9853 52.3397 6.06424C52.3232 6.14318 52.2903 6.21679 52.2434 6.27919C52.1115 6.43332 51.9638 6.57013 51.8033 6.68689C51.7318 6.74019 51.6725 6.81104 51.63 6.89388C51.5876 6.97672 51.5631 7.06928 51.5586 7.1643C51.5679 7.33824 51.5923 7.5108 51.6315 7.67961C51.654 7.83337 51.6614 7.98938 51.6535 8.1449C51.6404 8.37046 51.594 8.59215 51.5159 8.80116C51.4947 8.85753 51.4708 8.91267 51.4444 8.96636C51.4383 8.98486 51.4304 9.00263 51.4211 9.0194Z" fill="#5B4034"/>
<path d="M33.5246 22.2309L32.2319 19.033L35.1486 16.8521L36.2941 19.3816L33.5246 22.2309Z" fill="#FFC727"/>
<path d="M45.1687 35.5834C44.3188 34.6983 42.2437 32.3097 41.6139 30.1121C41.5699 29.9605 41.7226 25.1742 41.8642 24.3422C42.0058 23.5101 43.0757 22.0324 43.0757 22.0324L41.6139 17.7781L39.9899 19.2103C39.9899 19.2103 39.2006 19.5422 38.3851 19.903C36.9935 20.2061 36.134 19.03 36.134 19.03C36.2358 18.9663 35.3859 19.3967 35.1453 19.6529C35.1453 19.6529 31.9824 22.9508 32.0278 24.9818C32.0732 27.0127 32.5518 27.2082 32.7415 28.7541C32.9258 30.25 33.4869 32.0884 33.6519 33.5434C33.7506 34.3774 34.0418 35.1695 34.4976 35.8441C34.4976 35.8441 34.862 36.6019 36.0419 36.5549C37.2217 36.5079 41.0281 35.6456 43.106 36.3124C45.1838 36.9793 46.1711 38.3448 46.1711 38.3448C46.1711 38.3448 46.0199 36.4761 45.1687 35.5834Z" fill="#FFC727"/>
<path d="M38.2101 28.6525C38.1455 28.6633 38.0801 28.6669 38.0148 28.6631C37.8374 28.659 37.6607 28.6377 37.4868 28.5995C36.9064 28.4771 36.3667 28.1848 35.9242 27.7534C35.4816 27.3219 35.1526 26.7671 34.9716 26.1472C34.9161 25.9616 34.8756 25.7709 34.8506 25.5773C34.8384 25.507 34.8338 25.4352 34.8369 25.3636C34.8838 25.6201 34.9449 25.8732 35.0198 26.1215C35.21 26.7241 35.5375 27.2628 35.9709 27.6859C36.4044 28.1089 36.9292 28.4021 37.495 28.5373C37.7312 28.5907 37.9699 28.6292 38.2101 28.6525Z" fill="#263238"/>
<path d="M40.999 23.8192C40.999 23.8192 40.966 23.7874 40.9151 23.7207C40.846 23.6271 40.7821 23.5289 40.724 23.4267C40.3365 22.7413 40.1533 21.9395 40.2 21.1336C40.2066 21.0124 40.2209 20.8919 40.2427 20.7729C40.2473 20.7286 40.2574 20.6852 40.2729 20.644C40.2853 20.644 40.2578 20.8335 40.2509 21.1351C40.2314 21.9274 40.4103 22.7103 40.768 23.3979C40.9041 23.6601 41.0086 23.8101 40.999 23.8192Z" fill="#263238"/>
<path d="M32.2949 23.8708C32.3061 23.8101 32.3236 23.7511 32.3472 23.695C32.3829 23.5828 32.4448 23.4252 32.5273 23.2403C32.7468 22.7428 33.0108 22.2706 33.3153 21.8308C33.6714 21.3139 34.0248 20.8774 34.2779 20.5577L34.579 20.1818C34.6135 20.1333 34.6527 20.089 34.6959 20.0499C34.67 20.1045 34.6381 20.1554 34.601 20.2015C34.535 20.297 34.4388 20.4303 34.3178 20.594C34.0757 20.9229 33.7278 21.3655 33.3758 21.8777C33.0741 22.3149 32.8063 22.7793 32.5755 23.266C32.3967 23.6328 32.3073 23.8753 32.2949 23.8708Z" fill="#263238"/>
<path d="M43.0716 34.6392C42.9899 34.6411 42.9081 34.6375 42.8268 34.6286C42.6058 34.6213 42.3847 34.6381 42.1667 34.6786C41.8432 34.7387 41.5256 34.8321 41.2179 34.9574C40.8686 35.0954 40.4946 35.2742 40.0999 35.4621C39.73 35.6438 39.3502 35.7997 38.9626 35.9289C38.6448 36.0357 38.3166 36.1003 37.9849 36.1214C37.761 36.1345 37.5365 36.1166 37.3166 36.0684C37.2382 36.0532 37.1791 36.029 37.1406 36.0184C37.1195 36.0134 37.0991 36.0052 37.0801 35.9941C37.3769 36.059 37.68 36.0829 37.9822 36.0654C38.309 36.0367 38.6319 35.9675 38.9448 35.8592C39.329 35.7267 39.7059 35.5698 40.0738 35.3894C40.4671 35.2015 40.8452 35.0241 41.1986 34.8892C41.5107 34.7653 41.8331 34.676 42.1612 34.6225C42.3825 34.5874 42.6066 34.5792 42.8295 34.5982C42.8904 34.6033 42.951 34.6119 43.0111 34.624C43.0318 34.6257 43.0522 34.6308 43.0716 34.6392Z" fill="#263238"/>
<g opacity="0.3">
<path d="M35.9976 27.7371C35.4476 27.2218 34.9594 26.5671 34.8975 25.7775H34.8576C34.7738 26.2261 34.7978 26.6911 34.9273 27.1263C35.0569 27.5615 35.2874 27.9518 35.5961 28.2585C36.2177 28.8648 37.0414 28.9633 37.8224 28.6571C37.1211 28.4722 36.5449 28.2524 35.9976 27.7371Z" fill="black"/>
</g>
<path d="M34.3552 35.5667C33.0616 35.217 31.7481 34.9638 30.4236 34.8089C28.911 34.6725 25.3356 34.727 24.6755 35.7591C24.0155 36.7913 24.0856 37.7431 24.3166 38.4493C24.5477 39.1556 26.6007 40.4606 27.5235 41.085C28.4462 41.7094 33.8354 41.9277 33.8354 41.9277L36.0425 36.085L34.3552 35.5667Z" fill="#FFC727"/>
<path d="M37.3316 36.2866C37.2023 36.2987 34.9636 36.4154 34.3489 37.4521C33.7342 38.4887 33.1113 39.7588 33.0906 40.5106C33.07 41.2623 33.4509 41.7549 34.1687 42.014C34.8866 42.2732 37.4526 42.3172 38.4317 42.1656C39.4108 42.014 44.1633 41.0744 45.1905 40.5818C46.2177 40.0892 46.4928 39.0344 45.9565 37.5294C45.5343 36.3457 43.4812 36.0986 42.333 35.7364C41.1847 35.3742 37.3316 36.2866 37.3316 36.2866Z" fill="#FFC727"/>
<path d="M27.4731 36.8277C27.5546 36.8268 27.6361 36.8334 27.7165 36.8474C27.7949 36.855 27.8912 36.8686 28.0012 36.8884C28.1112 36.9081 28.2377 36.9262 28.3766 36.955C28.6516 37.0066 28.9803 37.0899 29.3392 37.19C29.6981 37.29 30.0914 37.4249 30.4957 37.581C30.9 37.7371 31.2795 37.9129 31.6192 38.0827C31.9589 38.2524 32.2559 38.4221 32.4993 38.5783C32.623 38.6525 32.7317 38.7298 32.8266 38.792C32.9214 38.8541 33.0026 38.9132 33.0672 38.9632C33.1361 39.0083 33.2018 39.059 33.2639 39.1148C33.19 39.0769 33.1192 39.0323 33.0521 38.9814C32.9861 38.9359 32.9036 38.8829 32.8059 38.8223C32.7083 38.7616 32.5997 38.6904 32.4745 38.6192C32.2298 38.4676 31.9245 38.3161 31.5917 38.1402C31.2589 37.9644 30.8752 37.8068 30.4723 37.6477C30.0694 37.4885 29.6789 37.3612 29.3213 37.2521C28.9638 37.143 28.6338 37.0611 28.3587 37.002C28.2212 36.9702 28.0961 36.9444 27.9861 36.9232C27.8761 36.902 27.7825 36.8823 27.711 36.8702C27.631 36.8619 27.5515 36.8477 27.4731 36.8277Z" fill="#263238"/>
<path d="M44.8122 38.8071C44.7557 38.7616 44.7027 38.7109 44.6541 38.6555C44.5564 38.554 44.4107 38.413 44.2264 38.2463C44.0421 38.0796 43.8139 37.8901 43.5498 37.6961C43.2636 37.4885 42.9665 37.2998 42.6601 37.1308C42.3522 36.9648 42.0359 36.8186 41.7126 36.6928C41.4482 36.5912 41.1793 36.5047 40.9068 36.4336C40.673 36.3715 40.4833 36.3291 40.3568 36.3063C40.2872 36.2973 40.2186 36.2811 40.1519 36.2578C40.2219 36.2576 40.2918 36.2637 40.3609 36.276C40.5499 36.2994 40.7376 36.3338 40.9233 36.3791C41.1991 36.4435 41.4713 36.525 41.7388 36.6231C42.3924 36.8672 43.0128 37.2083 43.5828 37.637C43.8163 37.8114 44.0404 38.0007 44.2539 38.2039C44.3984 38.3395 44.5361 38.4837 44.6664 38.6358C44.7201 38.6874 44.769 38.7447 44.8122 38.8071Z" fill="#263238"/>
<path d="M45.9079 38.2282L45.8804 38.207L45.8061 38.1418L45.5215 37.8857C45.1773 37.567 44.8154 37.2724 44.4379 37.0036C44.1754 36.822 43.8993 36.6654 43.6128 36.5353C43.2821 36.3927 42.938 36.2911 42.5869 36.2321C41.8457 36.1003 41.0138 36.1169 40.1461 36.1397C39.2783 36.1624 38.4491 36.2382 37.7011 36.3291C37.327 36.3761 36.9709 36.4246 36.6408 36.4807C36.3347 36.5568 36.0204 36.5854 35.7071 36.5656C35.4474 36.5353 35.1977 36.4382 34.9783 36.2821C34.8114 36.1697 34.6573 36.0359 34.519 35.8835C34.4314 35.7876 34.356 35.679 34.2948 35.5607C34.2728 35.52 34.2548 35.4768 34.2412 35.4319C34.2412 35.4319 34.2618 35.4758 34.3072 35.5531C34.3731 35.6643 34.4511 35.7662 34.5396 35.8563C34.679 36.0025 34.8331 36.1306 34.9989 36.2382C35.2147 36.3858 35.4584 36.4766 35.7112 36.5034C36.0203 36.5192 36.3298 36.4881 36.6312 36.411C36.9626 36.3519 37.3188 36.3003 37.6928 36.2594C38.4436 36.1639 39.2715 36.0927 40.1433 36.0624C41.0151 36.0321 41.8485 36.0245 42.5979 36.1624C42.9533 36.2244 43.3012 36.3306 43.6348 36.4792C43.9222 36.6127 44.1983 36.774 44.4599 36.9611C44.8369 37.2366 45.1962 37.5404 45.5352 37.8705C45.6521 37.9842 45.7429 38.0736 45.8103 38.1388L45.8804 38.21C45.8902 38.2149 45.8994 38.221 45.9079 38.2282Z" fill="#263238"/>
<path d="M37.8782 36.2988C37.8507 36.31 37.8221 36.3176 37.793 36.3215C37.7366 36.3336 37.6555 36.3458 37.5468 36.37C37.2459 36.4334 36.9484 36.5154 36.6557 36.6155C35.6899 36.9451 34.7906 37.4767 34.0072 38.1812C33.5521 38.5904 33.1656 39.0648 32.9827 39.5876C32.8244 40.0554 32.8128 40.5682 32.9497 41.0441C33.0387 41.3665 33.1698 41.6728 33.3389 41.9535C33.4585 42.1521 33.5356 42.2566 33.5301 42.2566C33.508 42.2349 33.4878 42.211 33.4695 42.1854C33.4324 42.1384 33.3802 42.0657 33.3155 41.9672C33.1356 41.6897 32.9964 41.3829 32.903 41.0578C32.8382 40.832 32.8021 40.5973 32.7957 40.3606C32.7913 40.0874 32.8342 39.8158 32.9222 39.5604C33.1079 39.0178 33.5025 38.5328 33.9632 38.119C34.7527 37.4067 35.6642 36.8768 36.6434 36.561C36.9383 36.4648 37.2388 36.3904 37.5427 36.3382C37.65 36.3185 37.7352 36.3109 37.7916 36.3033C37.8204 36.2995 37.8493 36.298 37.8782 36.2988Z" fill="#263238"/>
<g opacity="0.3">
<path d="M43.513 35.394C43.2256 35.1666 42.8392 35.1757 42.4872 35.2182C41.3736 35.3413 40.2759 35.6005 39.2144 35.9911C40.6761 35.7198 42.1393 35.491 43.4869 35.591C43.5023 35.5931 43.5179 35.5911 43.5325 35.5853C43.547 35.5796 43.5602 35.5701 43.5708 35.5577C43.6107 35.5077 43.5625 35.4334 43.513 35.394Z" fill="black"/>
</g>
<path d="M66.9128 37.7083C66.7931 37.0459 66.4411 36.4594 66.034 35.9547C64.5874 34.1617 62.3982 33.2357 60.2254 33.075C58.0527 32.9144 55.8841 33.463 53.8214 34.233C52.6553 34.6679 51.4658 35.209 50.6435 36.2184C49.8211 37.2278 49.4746 38.8313 50.1525 39.965L51.0643 40.1529L50.627 40.1741C55.3095 40.4199 60.0004 40.3982 64.6809 40.109C65.2942 40.0711 65.9557 40.0074 66.4177 39.5633C66.8798 39.1193 67.031 38.3721 66.9128 37.7083Z" fill="#E0E0E0"/>
<path d="M61.0469 35.3485C61.066 35.391 61.0807 35.4358 61.0909 35.4819C61.1156 35.5683 61.1459 35.6956 61.1803 35.8547C61.3505 36.6829 61.4061 37.5347 61.3453 38.3812C61.3329 38.5434 61.3192 38.6753 61.3054 38.7647C61.3033 38.812 61.294 38.8586 61.2779 38.9026C61.275 38.7276 61.2805 38.5526 61.2944 38.3782C61.3263 37.5379 61.2709 36.6963 61.1294 35.8699C61.0932 35.6979 61.0657 35.5238 61.0469 35.3485Z" fill="#263238"/>
<path d="M59.9627 35.4151C59.9349 35.4185 59.9067 35.4185 59.8789 35.4151L59.641 35.3818C59.4333 35.35 59.1335 35.3121 58.7622 35.2711C58.391 35.2302 57.9482 35.1938 57.4559 35.1696C56.9636 35.1453 56.4204 35.1438 55.8525 35.1696C55.2845 35.1954 54.7427 35.2363 54.2518 35.2924C53.7609 35.3484 53.3222 35.4166 52.9537 35.4848C52.5851 35.553 52.2895 35.6122 52.0846 35.6591L51.848 35.7076C51.8207 35.7155 51.7925 35.7196 51.7642 35.7198C51.7904 35.7081 51.8176 35.6989 51.8453 35.6925L52.0791 35.6288C52.2812 35.5727 52.5782 35.5045 52.9454 35.4303C53.3126 35.356 53.754 35.2787 54.2449 35.2196C54.7358 35.1605 55.279 35.1135 55.8497 35.0908C56.4204 35.068 56.9649 35.0817 57.4586 35.1044C57.9523 35.1272 58.3965 35.1741 58.7678 35.2226C59.139 35.2711 59.4388 35.3181 59.6451 35.359L59.8816 35.406C59.9089 35.4052 59.9362 35.4083 59.9627 35.4151Z" fill="#263238"/>
<path d="M64.474 35.359C64.3319 35.3602 64.1899 35.3501 64.0491 35.3287C63.7878 35.3045 63.4261 35.2787 63.026 35.2696C62.6258 35.2605 62.2628 35.2696 62.0015 35.2848C61.8598 35.2996 61.7173 35.3031 61.5752 35.2954C61.7137 35.2585 61.855 35.2362 61.9974 35.2287C62.6844 35.1625 63.376 35.1778 64.0601 35.2742C64.2003 35.2869 64.339 35.3153 64.474 35.359Z" fill="#263238"/>
<path d="M4.42713 60.7879H3.39302L2.99561 53.2478H4.73516L4.42713 60.7879Z" fill="#B56D50"/>
<path d="M24.8217 60.7879H23.7889L23.3901 52.2717H25.1297L24.8217 60.7879Z" fill="#B56D50"/>
<path d="M66.9852 60.788H65.9511L65.5537 51.1245H67.2933L66.9852 60.788Z" fill="#B56D50"/>
<path d="M2.80435 39.8635H67.3603C67.795 39.8635 68.212 40.0538 68.5194 40.3926C68.8268 40.7314 68.9995 41.1909 68.9995 41.6701V48.9783C68.9995 49.5479 68.7942 50.0942 68.4287 50.4969C68.0633 50.8997 67.5677 51.126 67.0509 51.126H0.0595703V42.8886C0.0595703 42.0847 0.349331 41.3137 0.865109 40.7452C1.38089 40.1768 2.08043 39.8574 2.80985 39.8574L2.80435 39.8635Z" fill="#E0E0E0"/>
<g opacity="0.3">
<path d="M48.3578 51.1532L49.5157 51.1244L48.648 39.9438L47.1367 39.8574L48.3578 51.1532Z" fill="black"/>
</g>
<path d="M0.00634766 51.8246V41.7625C0.00743551 41.1082 0.243563 40.481 0.663092 40.0181C1.08262 39.5551 1.65141 39.2941 2.24508 39.2921L16.6648 39.2208C16.6648 39.2208 18.4442 37.2506 19.7162 37.2627C20.9882 37.2748 22.0045 33.8586 26.1038 33.8495C30.7394 33.8389 29.5842 35.3091 32.1172 36.2594C34.6503 37.2096 38.3659 35.1984 40.6926 37.2627C43.0194 39.3269 46.6621 38.1417 47.4308 39.9438C48.1995 41.7459 48.3632 52.2717 48.3632 52.2717L0.00634766 51.8246Z" fill="#455A64"/>
<path d="M0.00638246 49.771V51.8247C-0.0527486 53.6434 0.299287 53.7222 1.05011 54.0465C1.80094 54.3709 2.64253 54.1466 3.4016 53.8465C4.16068 53.5464 4.92251 53.1675 5.72421 53.1887C7.33313 53.2311 8.67389 54.8559 10.2828 54.8801C12.3455 54.9059 13.9654 52.3036 16.0158 52.5234C17.5752 52.6886 18.8334 54.477 20.3928 54.3103C21.4806 54.1951 22.3483 53.1402 23.4264 52.9462C24.8194 52.6901 26.0914 53.8995 27.4872 54.1284C29.3766 54.4315 31.2069 52.9159 33.106 53.1341C34.7397 53.316 36.1313 54.7498 37.7636 54.8998C39.8181 55.0878 41.7075 53.219 43.7592 53.4251C45.4671 53.5964 46.9344 55.1863 48.6478 55.1287L48.3205 50.6516L0.00638246 49.771Z" fill="#455A64"/>
<path d="M26.1041 52.2096C26.0849 52.2096 26.0684 49.6088 26.0684 46.4003C26.0684 43.1918 26.0849 40.5895 26.1041 40.5895C26.1234 40.5895 26.1399 43.1903 26.1399 46.4003C26.1399 49.6104 26.1192 52.2096 26.1041 52.2096Z" fill="#263238"/>
<path d="M26.9888 39.4515C26.9888 39.4515 26.9682 39.4515 26.9256 39.4515H26.7413L26.0303 39.4592L23.4176 39.4714L14.7927 39.4822L6.16645 39.4714L3.55369 39.4592L2.84274 39.4515H2.6571H2.59521H2.6571H2.84274L3.55369 39.4438L6.16645 39.4316L14.7927 39.4193L23.4176 39.4316L26.0303 39.4438L26.7413 39.4515H26.9256H26.9888Z" fill="#263238"/>
<path d="M31.4441 36.5534C31.4441 36.5686 31.1691 36.5368 30.718 36.5655C30.4566 36.5837 30.1966 36.6212 29.9397 36.6777C29.3091 36.8167 28.7046 37.0729 28.152 37.4355C27.9275 37.584 27.7121 37.7485 27.5071 37.9281C27.1578 38.2312 26.9708 38.4661 26.957 38.4555C26.9938 38.3957 27.0362 38.3403 27.0835 38.2903C27.1343 38.2271 27.188 38.1669 27.2444 38.11C27.3091 38.0433 27.382 37.9584 27.47 37.8856C27.672 37.6966 27.8872 37.5253 28.1135 37.3734C28.6689 37.0007 29.2804 36.741 29.9191 36.6065C30.1791 36.5521 30.4425 36.5196 30.707 36.5095C30.8198 36.5019 30.9229 36.5095 31.0123 36.5095C31.0891 36.5099 31.1657 36.5149 31.242 36.5246C31.3101 36.5255 31.378 36.5352 31.4441 36.5534Z" fill="#263238"/>
<path d="M46.0195 39.8574C46.0195 39.8786 43.4466 39.865 40.2741 39.8271C37.1017 39.7892 34.5288 39.7407 34.5288 39.7195C34.5288 39.6983 37.1017 39.7104 40.2755 39.7483C43.4493 39.7862 46.0195 39.8347 46.0195 39.8574Z" fill="#263238"/>
<path d="M47.136 53.3175C47.1168 53.3175 46.9174 50.6622 46.6932 47.3839C46.4691 44.1057 46.2999 41.4443 46.3206 41.4427C46.3412 41.4412 46.5392 44.0981 46.7633 47.3779C46.9875 50.6576 47.158 53.316 47.136 53.3175Z" fill="#263238"/>
<path d="M9.09041 47.0353C9.11104 47.0353 9.08216 48.3751 9.02853 50.0256C8.9749 51.6761 8.91302 53.0159 8.89102 53.0143C8.86902 53.0128 8.89927 51.6745 8.95427 50.0241C9.00928 48.3736 9.06704 47.0338 9.09041 47.0353Z" fill="#263238"/>
<path d="M11.3414 52.6749C11.3222 52.6749 11.3057 50.6046 11.3057 48.0538C11.3057 45.5031 11.3222 43.4327 11.3414 43.4327C11.3607 43.4327 11.3772 45.5015 11.3772 48.0538C11.3772 50.6061 11.362 52.6749 11.3414 52.6749Z" fill="#263238"/>
<path d="M17.7413 51.7245C17.732 51.7014 17.726 51.6769 17.7234 51.6518C17.7152 51.5942 17.7028 51.5245 17.689 51.4411C17.6602 51.2562 17.6217 50.9864 17.579 50.6591C17.4924 49.9983 17.3906 49.0828 17.304 48.0674C17.2174 47.0519 17.1802 46.1304 17.1665 45.4636C17.1569 45.1301 17.1527 44.8573 17.1514 44.6739V44.4587C17.1481 44.4336 17.1481 44.4081 17.1514 44.3829C17.1577 44.4071 17.1609 44.4321 17.161 44.4572C17.161 44.5163 17.1679 44.5875 17.1734 44.6724C17.183 44.871 17.1954 45.1377 17.2105 45.462C17.2421 46.1274 17.293 47.0474 17.3741 48.0613C17.4553 49.0752 17.5488 49.9907 17.6217 50.6515L17.7097 51.4366C17.7179 51.5214 17.7262 51.5881 17.7317 51.6503C17.7382 51.6743 17.7415 51.6994 17.7413 51.7245Z" fill="#263238"/>
<path d="M19.915 52.7415C19.915 52.7415 19.9013 52.7188 19.882 52.6718L19.7995 52.4657C19.7294 52.2869 19.6372 52.0231 19.5327 51.6927C19.4282 51.3623 19.3182 50.9652 19.2123 50.5181C19.1064 50.071 19.0129 49.5724 18.9373 49.0465C18.8617 48.5206 18.819 48.0128 18.7998 47.5521C18.7805 47.0914 18.7723 46.6731 18.7805 46.3245C18.7888 45.9759 18.8039 45.694 18.8232 45.4985L18.8438 45.2757C18.8444 45.2494 18.8486 45.2233 18.8562 45.1984C18.8586 45.2246 18.8586 45.251 18.8562 45.2772C18.8562 45.3363 18.8562 45.4105 18.8493 45.5015C18.8397 45.6955 18.8328 45.9774 18.83 46.326C18.8273 46.6746 18.8383 47.0838 18.863 47.5476C18.8878 48.0113 18.94 48.5084 19.0129 49.0344C19.0858 49.5603 19.1821 50.0529 19.2797 50.5C19.3773 50.9471 19.486 51.3441 19.585 51.6746C19.684 52.005 19.7679 52.2717 19.8298 52.4551L19.8985 52.6658C19.9062 52.6904 19.9117 52.7158 19.915 52.7415Z" fill="#263238"/>
<path d="M31.0853 44.9968C31.1059 44.9968 30.9808 46.7504 30.8102 48.9101C30.6397 51.0699 30.4802 52.8189 30.461 52.8158C30.4417 52.8128 30.5655 51.0623 30.736 48.9025C30.9065 46.7428 31.0701 44.9953 31.0853 44.9968Z" fill="#263238"/>
<path d="M34.585 52.1309C34.5722 52.1069 34.5629 52.0808 34.5575 52.0536C34.5383 51.9929 34.5163 51.9187 34.4888 51.8277C34.4297 51.6292 34.3513 51.3412 34.2674 50.9835C34.0463 50.0475 33.88 49.0968 33.7696 48.1372C33.6604 47.1776 33.6085 46.2111 33.6142 45.2439C33.6142 44.8726 33.6266 44.5725 33.6389 44.3649C33.6389 44.2694 33.65 44.1906 33.6541 44.1269C33.6541 44.0988 33.6573 44.0708 33.6637 44.0436C33.6671 44.0717 33.6671 44.1003 33.6637 44.1285C33.6637 44.1906 33.6637 44.2694 33.6637 44.3664C33.6637 44.574 33.6637 44.8726 33.6637 45.2439C33.6726 46.2067 33.7313 47.1682 33.8397 48.1236C33.9499 49.0804 34.1088 50.0297 34.3155 50.9669C34.3953 51.3261 34.464 51.6155 34.5149 51.8156C34.5369 51.9081 34.5548 51.9854 34.5699 52.046C34.5783 52.0734 34.5834 52.102 34.585 52.1309Z" fill="#263238"/>
<path d="M42.0526 52.6734C42.0334 52.6734 41.9302 51.1699 41.8244 49.3133C41.7185 47.4567 41.647 45.9487 41.6662 45.9471C41.6855 45.9456 41.7886 47.4506 41.8959 49.3088C42.0031 51.1669 42.0705 52.6719 42.0526 52.6734Z" fill="#263238"/>
<path d="M67.4539 39.8635C67.4539 39.8847 63.015 39.9029 57.5419 39.9029C52.0688 39.9029 47.6299 39.8847 47.6299 39.8635C47.6299 39.8423 52.0675 39.8241 57.5419 39.8241C63.0163 39.8241 67.4539 39.8408 67.4539 39.8635Z" fill="#263238"/>
<g opacity="0.3">
<path d="M30.9505 36.5443C30.928 36.4788 30.8911 36.4206 30.8431 36.3748C30.7951 36.329 30.7375 36.2972 30.6755 36.2821C29.8426 36.0776 28.9805 36.0637 28.1425 36.2411C27.2331 36.4342 26.3996 36.9311 25.7553 37.6643C25.5957 37.8522 25.4417 38.0826 25.5201 38.36C25.5617 38.4888 25.6398 38.5996 25.7427 38.6759C25.8457 38.7523 25.9682 38.7903 26.0922 38.7843C26.4321 38.7673 26.758 38.6302 27.0218 38.3933L27.7877 37.6097C28.7984 36.7398 30.6287 36.4564 30.9505 36.5488V36.5443Z" fill="black"/>
</g>
</svg>
