<svg width="72" height="72" viewBox="0 0 72 72" fill="none" xmlns="http://www.w3.org/2000/svg">
<path d="M67.2622 67.1645C67.2622 67.1861 53.3287 67.2019 36.1452 67.2019C18.9617 67.2019 5.02539 67.1861 5.02539 67.1645C5.02539 67.1429 18.9559 67.127 36.1452 67.127C53.3345 67.127 67.2622 67.1443 67.2622 67.1645Z" fill="#263238"/>
<path d="M51.7179 3.6144H20.2812V67.1645H51.7179V3.6144Z" fill="#F5F5F5"/>
<path d="M51.7193 67.1645C51.7193 66.8376 51.7034 40.6944 51.6833 3.6144L51.7193 3.64896H20.287L20.3244 3.61152C20.3244 28.1578 20.3244 50.5253 20.3158 67.1616L20.287 67.1342L51.725 67.1616L20.287 67.1904H20.2596V67.1616C20.2596 50.5253 20.2596 28.1578 20.2495 3.61152V3.57408H51.7538V3.61008C51.7337 40.6944 51.7193 66.839 51.7193 67.1645Z" fill="#263238"/>
<path d="M49.4901 5.83632H22.5117V64.9512H49.4901V5.83632Z" fill="#455A64"/>
<g opacity="0.1">
<path d="M46.0182 18.0576C45.3846 16.5485 43.9101 15.3475 42.2742 15.3144C41.151 15.2914 39.819 15.7248 39.0371 14.917C38.3171 14.1725 38.6771 12.901 39.3251 12.0931C39.7312 11.5906 40.2309 11.1643 40.5822 10.6229C40.9336 10.0814 41.1136 9.36144 40.8112 8.7912C40.4641 8.12592 39.6217 7.92 38.8801 7.812C36.9664 7.5384 34.6883 7.50816 32.8321 8.21088C29.284 9.252 26.5667 13.2062 26.1966 16.8869C26.0526 18.3038 26.044 19.2974 27.1038 20.2507C28.2717 21.3019 30.0213 21.2846 31.5923 21.2054L35.2801 21.024C35.8173 20.9966 36.3846 20.9765 36.8641 21.2299C37.8376 21.7498 37.9225 23.1869 37.3941 24.1574C36.8656 25.128 35.9224 25.776 35.1361 26.5507C34.3499 27.3254 33.6443 28.3651 33.8401 29.4523C33.9942 30.3163 34.7229 31.0219 35.5609 31.3042C36.399 31.5864 37.3249 31.5014 38.1702 31.2408C40.3576 30.5698 42.0409 28.8331 43.4651 27.0432C44.4832 25.763 45.4365 24.3979 45.988 22.8571C46.5395 21.3163 46.6561 19.5682 46.0182 18.0576Z" fill="white"/>
</g>
<path d="M29.9953 14.4864C29.4998 14.4868 29.0137 14.3507 28.5906 14.0929C28.1674 13.8352 27.8235 13.4658 27.5966 13.0253C27.3696 12.5849 27.2685 12.0904 27.3042 11.5962C27.34 11.102 27.5113 10.6272 27.7993 10.224C27.4803 10.4514 27.2148 10.7456 27.0211 11.086C26.8274 11.4265 26.7102 11.8051 26.6777 12.1954C26.6453 12.5858 26.6982 12.9785 26.833 13.3463C26.9677 13.7141 27.181 14.0481 27.458 14.3251C27.735 14.6021 28.069 14.8153 28.4368 14.9501C28.8046 15.0849 29.1973 15.1378 29.5877 15.1053C29.978 15.0729 30.3566 14.9557 30.6971 14.762C31.0375 14.5683 31.3317 14.3028 31.5591 13.9838C31.1033 14.311 30.5563 14.4868 29.9953 14.4864Z" fill="white"/>
<path d="M30.9601 15.2741C30.9224 15.3091 30.8803 15.3392 30.8348 15.3634C30.7161 15.4368 30.5914 15.5 30.4618 15.552C30.0304 15.7251 29.5637 15.7918 29.101 15.7464C28.6376 15.6991 28.1928 15.5395 27.805 15.2813C27.6879 15.2045 27.5776 15.1178 27.4753 15.0221C27.4357 14.99 27.4013 14.9521 27.373 14.9098C27.3817 14.8982 27.5358 15.0538 27.8338 15.2366C28.2193 15.4768 28.6545 15.6255 29.1063 15.6715C29.5581 15.7174 30.0144 15.6593 30.4402 15.5016C30.7657 15.3821 30.9486 15.264 30.9601 15.2741Z" fill="white"/>
<path d="M29.9851 16.0315C29.5745 16.1373 29.14 16.0976 28.7554 15.9192C28.7626 15.8976 29.029 15.9768 29.3674 16.007C29.7058 16.0373 29.9823 16.0085 29.9851 16.0315Z" fill="white"/>
<path d="M37.8173 64.9051L28.3623 64.9454V35.0194H37.8173V64.9051Z" fill="#263238"/>
<path d="M37.8174 64.944L33.0898 64.9627V35.0194H37.8174V64.944Z" fill="#263238"/>
<path d="M32.7817 32.0774H29.4424V35.0194H32.7817V32.0774Z" fill="#263238"/>
<path d="M32.7817 32.0774H31.9854V35.0194H32.7817V32.0774Z" fill="#263238"/>
<path d="M27.5732 35.0194V34.848H38.0953V35.0194" fill="#263238"/>
<path d="M31.0292 36.3024H30.2285V37.9901H31.0292V36.3024Z" fill="#455A64"/>
<path d="M33.0898 38.6529C33.0898 38.6719 32.0314 38.6865 30.7253 38.6865C29.4193 38.6865 28.3623 38.6719 28.3623 38.6529C28.3623 38.6339 29.4207 38.6208 30.7253 38.6208C32.03 38.6208 33.0898 38.6354 33.0898 38.6529Z" fill="#455A64"/>
<path d="M35.7987 36.3024H34.998V37.9901H35.7987V36.3024Z" fill="#455A64"/>
<path d="M37.8594 38.6529C37.8594 38.6719 36.801 38.6865 35.4949 38.6865C34.1888 38.6865 33.1318 38.6719 33.1318 38.6529C33.1318 38.6339 34.1888 38.6208 35.4949 38.6208C36.801 38.6208 37.8594 38.6354 37.8594 38.6529Z" fill="#455A64"/>
<path d="M35.7987 39.6533H34.998V41.341H35.7987V39.6533Z" fill="#455A64"/>
<path d="M37.8594 42.0038C37.8594 42.0228 36.801 42.0374 35.4949 42.0374C34.1888 42.0374 33.1318 42.0228 33.1318 42.0038C33.1318 41.9848 34.1888 41.9717 35.4949 41.9717C36.801 41.9717 37.8594 41.9863 37.8594 42.0038Z" fill="#455A64"/>
<path d="M35.7987 43.105H34.998V44.7926H35.7987V43.105Z" fill="#F5F5F5"/>
<path d="M37.8594 45.4555C37.8594 45.4745 36.801 45.4891 35.4949 45.4891C34.1888 45.4891 33.1318 45.4745 33.1318 45.4555C33.1318 45.4365 34.1888 45.4234 35.4949 45.4234C36.801 45.4234 37.8594 45.438 37.8594 45.4555Z" fill="#455A64"/>
<path d="M35.7987 46.5581H34.998V48.2458H35.7987V46.5581Z" fill="#455A64"/>
<path d="M37.8594 48.9086C37.8594 48.9261 36.801 48.9407 35.4949 48.9407C34.1888 48.9407 33.1318 48.9261 33.1318 48.9086C33.1318 48.8911 34.1888 48.875 35.4949 48.875C36.801 48.875 37.8594 48.8896 37.8594 48.9086Z" fill="#455A64"/>
<path d="M35.7987 49.9104H34.998V51.5981H35.7987V49.9104Z" fill="#455A64"/>
<path d="M37.8594 52.2609C37.8594 52.2799 36.801 52.2945 35.4949 52.2945C34.1888 52.2945 33.1318 52.2799 33.1318 52.2609C33.1318 52.2419 34.1888 52.2288 35.4949 52.2288C36.801 52.2288 37.8594 52.2434 37.8594 52.2609Z" fill="#455A64"/>
<path d="M35.7987 53.2771H34.998V54.9648H35.7987V53.2771Z" fill="#455A64"/>
<path d="M35.7987 56.6885H34.998V58.3762H35.7987V56.6885Z" fill="#455A64"/>
<path d="M37.8594 55.6276C37.8594 55.6466 36.801 55.6612 35.4949 55.6612C34.1888 55.6612 33.1318 55.6466 33.1318 55.6276C33.1318 55.6087 34.1888 55.5955 35.4949 55.5955C36.801 55.5955 37.8594 55.6101 37.8594 55.6276Z" fill="#455A64"/>
<path d="M35.7987 59.8838H34.998V61.5715H35.7987V59.8838Z" fill="#455A64"/>
<path d="M35.8001 64.9541H34.9995L34.998 63.2938H35.7987L35.8001 64.9541Z" fill="#455A64"/>
<path d="M37.8594 62.2344C37.8594 62.2519 36.801 62.2665 35.4949 62.2665C34.1888 62.2665 33.1318 62.2519 33.1318 62.2344C33.1318 62.2169 34.1888 62.2008 35.4949 62.2008C36.801 62.2008 37.8594 62.2154 37.8594 62.2344Z" fill="#455A64"/>
<path d="M37.8594 59.2694C37.8594 59.2869 36.801 59.3015 35.4949 59.3015C34.1888 59.3015 33.1318 59.2869 33.1318 59.2694C33.1318 59.2519 34.1888 59.2373 35.4949 59.2373C36.801 59.2373 37.8594 59.2519 37.8594 59.2694Z" fill="#455A64"/>
<path d="M31.0292 39.7051H30.2285V41.3928H31.0292V39.7051Z" fill="#F5F5F5"/>
<path d="M33.0898 42.0557C33.0898 42.0732 32.0314 42.0878 30.7253 42.0878C29.4193 42.0878 28.3623 42.0732 28.3623 42.0557C28.3623 42.0381 29.4207 42.0221 30.7253 42.0221C32.03 42.0221 33.0898 42.0367 33.0898 42.0557Z" fill="#455A64"/>
<path d="M31.0292 43.1064H30.2285V44.7941H31.0292V43.1064Z" fill="#455A64"/>
<path d="M33.0898 45.4569C33.0898 45.4759 32.0314 45.4905 30.7253 45.4905C29.4193 45.4905 28.3623 45.4759 28.3623 45.4569C28.3623 45.4379 29.4207 45.4248 30.7253 45.4248C32.03 45.4248 33.0898 45.4394 33.0898 45.4569Z" fill="#455A64"/>
<path d="M31.0292 46.5091H30.2285V48.1968H31.0292V46.5091Z" fill="#455A64"/>
<path d="M33.0898 48.8597C33.0898 48.8772 32.0314 48.8918 30.7253 48.8918C29.4193 48.8918 28.3623 48.8772 28.3623 48.8597C28.3623 48.8421 29.4207 48.8261 30.7253 48.8261C32.03 48.8261 33.0898 48.8407 33.0898 48.8597Z" fill="#455A64"/>
<path d="M31.0292 49.9104H30.2285V51.5981H31.0292V49.9104Z" fill="#455A64"/>
<path d="M33.0898 52.2609C33.0898 52.2799 32.0314 52.2945 30.7253 52.2945C29.4193 52.2945 28.3623 52.2799 28.3623 52.2609C28.3623 52.2419 29.4207 52.2288 30.7253 52.2288C32.03 52.2288 33.0898 52.2434 33.0898 52.2609Z" fill="#455A64"/>
<path d="M31.0292 53.3131H30.2285V55.0008H31.0292V53.3131Z" fill="#455A64"/>
<path d="M33.0898 55.6637C33.0898 55.6812 32.0314 55.6958 30.7253 55.6958C29.4193 55.6958 28.3623 55.6812 28.3623 55.6637C28.3623 55.6461 29.4207 55.6301 30.7253 55.6301C32.03 55.6301 33.0898 55.6447 33.0898 55.6637Z" fill="#455A64"/>
<path d="M31.0292 56.7144H30.2285V58.4021H31.0292V56.7144Z" fill="#455A64"/>
<path d="M32.8797 64.9454H22.5534L22.5088 48.6259H32.8336L32.8797 64.9454Z" fill="#263238"/>
<path d="M32.8338 48.6259H27.6714V64.9454H32.8338V48.6259Z" fill="#263238"/>
<path d="M27.3331 45.4133H23.687V48.6259H27.3331V45.4133Z" fill="#263238"/>
<path d="M33.1362 48.4387H22.5493V48.6259H33.1362V48.4387Z" fill="#263238"/>
<path d="M25.4205 50.027H24.5464V51.8702H25.4205V50.027Z" fill="#455A64"/>
<path d="M27.6712 52.5951C27.6712 52.614 26.5192 52.6301 25.0893 52.6301C23.6593 52.6301 22.5088 52.614 22.5088 52.5951C22.5088 52.5761 23.6608 52.5586 25.0893 52.5586C26.5177 52.5586 27.6712 52.5746 27.6712 52.5951Z" fill="#455A64"/>
<path d="M30.629 50.027H29.7549V51.8702H30.629V50.027Z" fill="#455A64"/>
<path d="M32.8797 52.5951C32.8797 52.614 31.7277 52.6301 30.2977 52.6301C28.8678 52.6301 27.7158 52.614 27.7158 52.5951C27.7158 52.5761 28.8678 52.5586 30.2977 52.5586C31.7277 52.5586 32.8797 52.5746 32.8797 52.5951Z" fill="#455A64"/>
<path d="M30.629 53.6861H29.7549V55.5293H30.629V53.6861Z" fill="#455A64"/>
<path d="M32.8797 56.2541C32.8797 56.2731 31.7277 56.2891 30.2977 56.2891C28.8678 56.2891 27.7158 56.2731 27.7158 56.2541C27.7158 56.2351 28.8678 56.2176 30.2977 56.2176C31.7277 56.2176 32.8797 56.2337 32.8797 56.2541Z" fill="#455A64"/>
<path d="M30.629 57.456H29.7549V59.2992H30.629V57.456Z" fill="#455A64"/>
<path d="M32.8797 60.0226C32.8797 60.043 31.7277 60.0591 30.2977 60.0591C28.8678 60.0591 27.7158 60.043 27.7158 60.0226C27.7158 60.0021 28.8678 59.9875 30.2977 59.9875C31.7277 59.9875 32.8797 60.0036 32.8797 60.0226Z" fill="#455A64"/>
<path d="M30.629 61.2259H29.7549V63.0691H30.629V61.2259Z" fill="#F5F5F5"/>
<path d="M32.8797 63.7925C32.8797 63.8115 31.7277 63.8275 30.2977 63.8275C28.8678 63.8275 27.7158 63.8115 27.7158 63.7925C27.7158 63.7735 28.8678 63.7574 30.2977 63.7574C31.7277 63.7574 32.8797 63.772 32.8797 63.7925Z" fill="#455A64"/>
<path d="M25.4205 53.7422H24.5464V55.5854H25.4205V53.7422Z" fill="#F5F5F5"/>
<path d="M27.6712 56.3045C27.6712 56.3249 26.5192 56.341 25.0893 56.341C23.6593 56.341 22.5088 56.3249 22.5088 56.3045C22.5088 56.284 23.6608 56.2694 25.0893 56.2694C26.5177 56.2694 27.6712 56.2899 27.6712 56.3045Z" fill="#455A64"/>
<path d="M25.4205 57.4574H24.5464V59.3006H25.4205V57.4574Z" fill="#455A64"/>
<path d="M27.6712 60.024C27.6712 60.0444 26.5192 60.0605 25.0893 60.0605C23.6593 60.0605 22.5088 60.0444 22.5088 60.024C22.5088 60.0036 23.6608 59.989 25.0893 59.989C26.5177 59.989 27.6712 60.005 27.6712 60.024Z" fill="#455A64"/>
<path d="M25.4205 61.1726H24.5464V63.0158H25.4205V61.1726Z" fill="#455A64"/>
<path d="M27.6712 63.7392C27.6712 63.7582 26.5192 63.7742 25.0893 63.7742C23.6593 63.7742 22.5088 63.7582 22.5088 63.7392C22.5088 63.7202 23.6608 63.7042 25.0893 63.7042C26.5177 63.7042 27.6712 63.7202 27.6712 63.7392Z" fill="#455A64"/>
<path d="M26.3276 48.4474C26.2896 47.9616 26.2771 47.4742 26.2901 46.9872C26.2771 46.5002 26.2896 46.0128 26.3276 45.527C26.3647 46.0128 26.3772 46.5002 26.365 46.9872C26.3772 47.4742 26.3647 47.9616 26.3276 48.4474Z" fill="#455A64"/>
<path d="M32.017 34.6954C31.98 34.2822 31.9675 33.8673 31.9796 33.4526C31.9674 33.038 31.9799 32.623 32.017 32.2099C32.0541 32.623 32.0666 33.038 32.0545 33.4526C32.0666 33.8673 32.0541 34.2822 32.017 34.6954Z" fill="#455A64"/>
<path d="M33.4084 34.7976C33.4084 34.8178 32.5243 34.835 31.4342 34.835C30.3441 34.835 29.46 34.8178 29.46 34.7976C29.46 34.7774 30.3441 34.7602 31.4342 34.7602C32.5243 34.7602 33.4084 34.776 33.4084 34.7976Z" fill="#455A64"/>
<path d="M37.8175 35.1029C37.8175 35.1245 35.7036 35.1403 33.0958 35.1403C30.4879 35.1403 28.374 35.1245 28.374 35.1029C28.374 35.0813 30.4879 35.0654 33.0958 35.0654C35.7036 35.0654 37.8175 35.0827 37.8175 35.1029Z" fill="#455A64"/>
<path d="M33.0931 64.764C33.0715 64.764 33.0557 58.14 33.0557 49.9579C33.0557 41.7758 33.0715 35.1504 33.0931 35.1504C33.1147 35.1504 33.1305 41.7744 33.1305 49.9579C33.1305 58.1414 33.1205 64.764 33.0931 64.764Z" fill="#455A64"/>
<path d="M22.5491 48.4387C22.5668 48.4366 22.5847 48.4366 22.6024 48.4387H22.7579L23.3555 48.4315L25.5558 48.42L32.8336 48.4085H32.871V48.4459C32.871 48.4978 32.871 48.5539 32.871 48.6101C32.871 48.6432 32.871 48.6778 32.871 48.708V48.7454H32.8321L25.5083 48.7339L23.2921 48.7224L22.6902 48.7152H22.5333H22.48H22.5333H22.6902H23.2921L25.5083 48.7037L32.8321 48.6922L32.7947 48.7296V48.4675L32.8321 48.505L25.5544 48.4934L23.3541 48.4819L22.7565 48.4747H22.6009L22.5491 48.4387Z" fill="#455A64"/>
<path d="M27.6714 64.944C27.6512 64.944 27.6426 61.3253 27.6527 56.8613C27.6627 52.3973 27.6887 48.7786 27.7103 48.7786C27.7319 48.7786 27.7391 52.3973 27.7275 56.8627C27.716 61.3282 27.6915 64.944 27.6714 64.944Z" fill="#455A64"/>
<path d="M32.8798 64.944C32.8582 64.944 32.8409 61.2864 32.8394 56.7763C32.838 52.2662 32.8538 48.6072 32.874 48.6072C32.8942 48.6072 32.9129 52.2648 32.9143 56.7763C32.9158 61.2878 32.8999 64.944 32.8798 64.944Z" fill="#455A64"/>
<path d="M48.6391 64.9123L36.9478 64.9454V49.4914H48.6391V64.9123Z" fill="#263238"/>
<path d="M43.1587 49.4914V64.9123L48.6393 64.9454V49.4914H43.1587Z" fill="#263238"/>
<path d="M40.4511 51.5794H39.3999V54.1339H40.4511V51.5794Z" fill="#455A64"/>
<path d="M40.4511 61.5744H39.3999V64.129H40.4511V61.5744Z" fill="#455A64"/>
<path d="M43.1585 55.1362C43.1585 55.1635 41.7675 55.188 40.0539 55.188C38.3403 55.188 36.9492 55.1635 36.9492 55.1362C36.9492 55.1088 38.3388 55.0829 40.0539 55.0829C41.7689 55.0829 43.1585 55.1074 43.1585 55.1362Z" fill="#455A64"/>
<path d="M40.4511 56.615H39.3999V59.1696H40.4511V56.615Z" fill="#F5F5F5"/>
<path d="M43.1585 60.1718C43.1585 60.1992 41.7675 60.2237 40.0539 60.2237C38.3403 60.2237 36.9492 60.1992 36.9492 60.1718C36.9492 60.1445 38.3388 60.1186 40.0539 60.1186C41.7689 60.1186 43.1585 60.143 43.1585 60.1718Z" fill="#455A64"/>
<path d="M45.373 51.5794H44.3218V54.1339H45.373V51.5794Z" fill="#F5F5F5"/>
<path d="M47.6542 51.5794H46.603V54.1339H47.6542V51.5794Z" fill="#455A64"/>
<path d="M45.373 56.425H44.3218V58.9795H45.373V56.425Z" fill="#455A64"/>
<path d="M47.6542 56.425H46.603V58.9795H47.6542V56.425Z" fill="#455A64"/>
<path d="M45.373 61.272H44.3218V63.8266H45.373V61.272Z" fill="#455A64"/>
<path d="M47.6542 61.272H46.603V63.8266H47.6542V61.272Z" fill="#455A64"/>
<path d="M49.5189 49.0594H36.0693V49.6152H49.5189V49.0594Z" fill="#263238"/>
<path d="M49.5191 49.6152C49.5178 49.6037 49.5178 49.5921 49.5191 49.5806C49.5191 49.5547 49.5191 49.5216 49.5191 49.477C49.5191 49.3834 49.5191 49.2466 49.5191 49.0594L49.5292 49.0694C47.9552 49.0853 42.5264 49.0968 36.081 49.0968L36.1184 49.0594V49.6123L36.081 49.5749L45.598 49.5907L48.478 49.6022H49.2599H49.4644H49.5364H49.4701H49.27H48.4967L45.6325 49.6138L36.0868 49.6296H36.0493V49.0392L36.0868 49.0018C42.5322 49.0018 47.961 49.0133 49.5349 49.0291H49.5364V49.0392C49.5364 49.2293 49.5364 49.3675 49.5364 49.4626C49.5364 49.5058 49.5364 49.5389 49.5364 49.5634C49.5325 49.5812 49.5267 49.5986 49.5191 49.6152Z" fill="#455A64"/>
<path d="M43.1585 64.944C43.1369 64.944 43.1211 61.5269 43.1211 57.312C43.1211 53.0971 43.1369 49.68 43.1585 49.68C43.1801 49.68 43.196 53.0957 43.196 57.312C43.196 61.5283 43.1787 64.944 43.1585 64.944Z" fill="#455A64"/>
<path d="M36.949 64.7755C36.9274 64.7755 36.9102 61.4203 36.9102 57.2875C36.9102 53.1547 36.9274 49.7995 36.949 49.7995C36.9706 49.7995 36.9865 53.1533 36.9865 57.2875C36.9865 61.4218 36.9692 64.7755 36.949 64.7755Z" fill="#455A64"/>
<path d="M33.4211 19.967H33.398C33.3875 19.9718 33.3781 19.9789 33.3707 19.9878C33.3633 19.9967 33.358 20.0071 33.3553 20.0183C33.3525 20.0296 33.3523 20.0413 33.3547 20.0526C33.3571 20.0639 33.3621 20.0746 33.3692 20.0837C33.3774 20.0925 33.3876 20.0991 33.399 20.1029C33.4104 20.1068 33.4225 20.1077 33.4343 20.1057C33.4461 20.1036 33.4573 20.0986 33.4667 20.0912C33.4761 20.0838 33.4835 20.0741 33.4882 20.0631C33.4929 20.0521 33.4948 20.04 33.4937 20.0281C33.4926 20.0161 33.4885 20.0047 33.4819 19.9947C33.4752 19.9847 33.4662 19.9766 33.4555 19.971C33.4449 19.9654 33.4331 19.9626 33.4211 19.9627V19.967Z" fill="white"/>
<path d="M39.0849 11.5963H39.0604C39.0492 11.6004 39.0393 11.6072 39.0313 11.6161C39.0234 11.625 39.0179 11.6358 39.0151 11.6473C39.0124 11.6589 39.0125 11.671 39.0156 11.6825C39.0187 11.694 39.0246 11.7046 39.0327 11.7133C39.0409 11.7219 39.0511 11.7284 39.0624 11.7322C39.0737 11.736 39.0857 11.7369 39.0974 11.7349C39.1092 11.7329 39.1202 11.7279 39.1296 11.7206C39.139 11.7133 39.1464 11.7037 39.1511 11.6928C39.1541 11.6821 39.1547 11.6708 39.1529 11.6598C39.1511 11.6488 39.1469 11.6383 39.1405 11.6291C39.1342 11.6199 39.126 11.6122 39.1164 11.6065C39.1067 11.6009 39.096 11.5974 39.0849 11.5963Z" fill="white"/>
<path d="M46.8925 17.0755H46.868C46.8569 17.0796 46.8469 17.0864 46.839 17.0953C46.8311 17.1042 46.8255 17.1149 46.8227 17.1265C46.82 17.1381 46.8202 17.1502 46.8232 17.1617C46.8263 17.1732 46.8322 17.1838 46.8403 17.1924C46.8485 17.2011 46.8587 17.2076 46.87 17.2114C46.8813 17.2152 46.8933 17.2161 46.9051 17.2141C46.9168 17.2121 46.9278 17.2071 46.9372 17.1998C46.9466 17.1925 46.954 17.1829 46.9588 17.172C46.9618 17.1613 46.9624 17.15 46.9605 17.139C46.9587 17.128 46.9545 17.1175 46.9482 17.1083C46.9418 17.0991 46.9336 17.0914 46.924 17.0857C46.9144 17.0801 46.9036 17.0766 46.8925 17.0755Z" fill="white"/>
<path d="M43.6179 25.5888H43.5935C43.5757 25.5919 43.5597 25.6015 43.5487 25.6158C43.5377 25.63 43.5324 25.6479 43.534 25.6659C43.5355 25.6839 43.5437 25.7006 43.557 25.7128C43.5703 25.725 43.5877 25.7318 43.6057 25.7318C43.6237 25.7318 43.6411 25.725 43.6544 25.7128C43.6677 25.7006 43.6759 25.6839 43.6774 25.6659C43.679 25.6479 43.6737 25.63 43.6627 25.6158C43.6517 25.6015 43.6357 25.5919 43.6179 25.5888Z" fill="white"/>
<path d="M46.9169 35.5939H46.8925C46.8813 35.598 46.8713 35.6048 46.8634 35.6137C46.8555 35.6226 46.8499 35.6333 46.8472 35.6449C46.8444 35.6565 46.8446 35.6686 46.8477 35.6801C46.8507 35.6916 46.8566 35.7022 46.8648 35.7108C46.8729 35.7195 46.8831 35.726 46.8944 35.7298C46.9057 35.7336 46.9177 35.7345 46.9295 35.7325C46.9412 35.7305 46.9522 35.7255 46.9616 35.7182C46.971 35.7109 46.9784 35.7013 46.9832 35.6904C46.9862 35.6797 46.9868 35.6684 46.9849 35.6574C46.9831 35.6464 46.9789 35.6359 46.9726 35.6267C46.9663 35.6175 46.958 35.6098 46.9484 35.6041C46.9388 35.5985 46.928 35.595 46.9169 35.5939Z" fill="white"/>
<path d="M25.1413 17.0251H25.1183C25.1077 17.0299 25.0984 17.037 25.0909 17.0458C25.0835 17.0547 25.0782 17.0652 25.0755 17.0764C25.0727 17.0877 25.0725 17.0994 25.0749 17.1107C25.0774 17.122 25.0823 17.1326 25.0895 17.1418C25.0979 17.1497 25.1081 17.1557 25.1192 17.159C25.1303 17.1624 25.1421 17.1631 25.1535 17.1612C25.165 17.1592 25.1758 17.1546 25.1852 17.1478C25.1946 17.1409 25.2022 17.1319 25.2075 17.1216C25.2105 17.1109 25.2111 17.0996 25.2093 17.0886C25.2075 17.0776 25.2033 17.0671 25.1969 17.0579C25.1906 17.0487 25.1824 17.041 25.1728 17.0353C25.1631 17.0297 25.1524 17.0262 25.1413 17.0251Z" fill="white"/>
<path d="M46.6272 9.28512H46.6028C46.5854 9.28818 46.5698 9.29764 46.559 9.31165C46.5483 9.32565 46.5432 9.34317 46.5447 9.36075C46.5462 9.37833 46.5543 9.3947 46.5673 9.40663C46.5803 9.41855 46.5973 9.42517 46.615 9.42517C46.6326 9.42517 46.6497 9.41855 46.6627 9.40663C46.6757 9.3947 46.6837 9.37833 46.6853 9.36075C46.6868 9.34317 46.6817 9.32565 46.671 9.31165C46.6602 9.29764 46.6446 9.28818 46.6272 9.28512Z" fill="white"/>
<path d="M42.4571 37.5466H42.434C42.4166 37.5494 42.4008 37.5588 42.3899 37.5728C42.379 37.5867 42.3738 37.6043 42.3752 37.6219C42.3767 37.6396 42.3847 37.6561 42.3978 37.6681C42.4108 37.6801 42.4278 37.6867 42.4456 37.6867C42.4633 37.6867 42.4803 37.6801 42.4934 37.6681C42.5064 37.6561 42.5144 37.6396 42.5159 37.6219C42.5173 37.6043 42.5121 37.5867 42.5012 37.5728C42.4903 37.5588 42.4746 37.5494 42.4571 37.5466Z" fill="white"/>
<path d="M46.8753 45.8885H46.8508C46.833 45.8915 46.817 45.9012 46.806 45.9154C46.795 45.9297 46.7897 45.9476 46.7913 45.9656C46.7928 45.9835 46.801 46.0003 46.8143 46.0125C46.8276 46.0247 46.845 46.0314 46.863 46.0314C46.881 46.0314 46.8984 46.0247 46.9117 46.0125C46.925 46.0003 46.9332 45.9835 46.9348 45.9656C46.9363 45.9476 46.931 45.9297 46.92 45.9154C46.909 45.9012 46.893 45.8915 46.8753 45.8885Z" fill="white"/>
<path d="M26.3798 42.6643H26.3553C26.3442 42.6684 26.3342 42.6752 26.3263 42.6841C26.3184 42.693 26.3128 42.7037 26.31 42.7153C26.3073 42.7269 26.3075 42.739 26.3105 42.7505C26.3136 42.762 26.3195 42.7726 26.3277 42.7812C26.3358 42.7899 26.346 42.7964 26.3573 42.8002C26.3686 42.804 26.3806 42.8049 26.3924 42.8029C26.4041 42.8008 26.4151 42.7959 26.4245 42.7886C26.4339 42.7813 26.4413 42.7717 26.4461 42.7608C26.4491 42.75 26.4497 42.7388 26.4478 42.7278C26.446 42.7168 26.4418 42.7063 26.4355 42.6971C26.4292 42.6879 26.4209 42.6802 26.4113 42.6745C26.4017 42.6689 26.3909 42.6654 26.3798 42.6643Z" fill="white"/>
<path d="M31.9194 26.1706H31.8949C31.8843 26.1751 31.8749 26.182 31.8675 26.1908C31.86 26.1996 31.8548 26.21 31.8521 26.2212C31.8494 26.2324 31.8494 26.2441 31.8521 26.2553C31.8548 26.2666 31.8601 26.277 31.8676 26.2858C31.8756 26.2949 31.8858 26.3018 31.8972 26.3059C31.9086 26.31 31.9208 26.3112 31.9328 26.3093C31.9448 26.3074 31.9561 26.3026 31.9657 26.2951C31.9753 26.2877 31.9829 26.278 31.9877 26.2669C31.9925 26.2557 31.9945 26.2436 31.9933 26.2315C31.9922 26.2194 31.988 26.2078 31.9812 26.1978C31.9744 26.1877 31.9652 26.1796 31.9544 26.1741C31.9436 26.1686 31.9315 26.1659 31.9194 26.1662V26.1706Z" fill="white"/>
<path d="M45.4252 22.2984H45.4008C45.3896 22.3025 45.3796 22.3093 45.3717 22.3182C45.3638 22.3271 45.3582 22.3378 45.3555 22.3494C45.3527 22.361 45.3529 22.3731 45.356 22.3846C45.359 22.3961 45.3649 22.4067 45.3731 22.4153C45.3812 22.424 45.3914 22.4305 45.4027 22.4343C45.414 22.4381 45.426 22.439 45.4378 22.437C45.4495 22.4349 45.4606 22.43 45.4699 22.4227C45.4793 22.4153 45.4867 22.4058 45.4915 22.3949C45.4945 22.3841 45.4951 22.3729 45.4932 22.3619C45.4914 22.3508 45.4872 22.3404 45.4809 22.3312C45.4746 22.322 45.4663 22.3143 45.4567 22.3086C45.4471 22.3029 45.4363 22.2995 45.4252 22.2984Z" fill="white"/>
<path d="M25.7443 29.0117H25.7213C25.7107 29.0164 25.7014 29.0235 25.694 29.0324C25.6866 29.0413 25.6813 29.0518 25.6785 29.063C25.6757 29.0742 25.6755 29.086 25.678 29.0973C25.6804 29.1086 25.6854 29.1192 25.6925 29.1283C25.7006 29.1371 25.7109 29.1437 25.7222 29.1476C25.7336 29.1514 25.7457 29.1523 25.7576 29.1503C25.7694 29.1483 25.7805 29.1433 25.7899 29.1358C25.7993 29.1284 25.8067 29.1187 25.8114 29.1077C25.8162 29.0967 25.8181 29.0847 25.817 29.0727C25.8159 29.0608 25.8118 29.0493 25.8051 29.0393C25.7984 29.0294 25.7894 29.0212 25.7788 29.0156C25.7682 29.01 25.7563 29.0072 25.7443 29.0074V29.0117Z" fill="white"/>
<path d="M35.9342 31.9781H35.9097C35.8992 31.983 35.89 31.9902 35.8828 31.9991C35.8755 32.0081 35.8704 32.0185 35.8677 32.0298C35.8651 32.041 35.8651 32.0527 35.8676 32.0639C35.8701 32.0752 35.8751 32.0857 35.8823 32.0947C35.891 32.1024 35.9013 32.108 35.9124 32.1111C35.9235 32.1142 35.9352 32.1147 35.9466 32.1126C35.958 32.1105 35.9687 32.1059 35.9781 32.0991C35.9874 32.0922 35.995 32.0833 36.0004 32.0731C36.0034 32.0625 36.004 32.0513 36.0022 32.0403C36.0004 32.0294 35.9961 32.019 35.9898 32.0099C35.9834 32.0008 35.9752 31.9933 35.9656 31.9877C35.9559 31.9822 35.9452 31.9789 35.9342 31.9781Z" fill="white"/>
<path d="M24.9801 36.3384L25.0435 36.445C25.1164 36.5628 25.2206 36.658 25.3444 36.72L25.4553 36.7747L25.3488 36.8395C25.2291 36.9121 25.1322 37.0169 25.0694 37.1419L25.0147 37.2542L24.9499 37.1477C24.8784 37.0271 24.7733 36.93 24.6475 36.8683L24.5352 36.8136L24.6432 36.7488C24.7628 36.6766 24.8592 36.5717 24.9211 36.4464L24.9801 36.3384Z" fill="white"/>
<path d="M27.3142 21.3782L27.379 21.4862C27.451 21.6065 27.5566 21.7031 27.6828 21.7642L27.7937 21.8203L27.6871 21.8837C27.5673 21.9567 27.4705 22.062 27.4078 22.1875L27.3531 22.2984L27.2883 22.1918C27.2161 22.0722 27.1111 21.9758 26.9859 21.9139L26.8735 21.8578L26.9801 21.793C27.1007 21.7215 27.1978 21.6164 27.2595 21.4906L27.3142 21.3782Z" fill="white"/>
<path d="M33.5525 9.76464L33.6173 9.87264C33.6894 9.99226 33.7944 10.0887 33.9197 10.1506L34.032 10.2067L33.9254 10.2701C33.8053 10.3427 33.7083 10.4481 33.6461 10.5739L33.5899 10.6848L33.5265 10.5782C33.4539 10.4581 33.3485 10.3612 33.2227 10.2989L33.1118 10.2442L33.2184 10.1794C33.3384 10.1073 33.4354 10.0023 33.4977 9.87696L33.5525 9.76464Z" fill="white"/>
<path d="M42.1618 29.9218L42.2252 30.0283C42.2978 30.1484 42.4032 30.2453 42.529 30.3077L42.6399 30.3624L42.5333 30.4272C42.4133 30.4993 42.3163 30.6042 42.254 30.7296L42.1992 30.8419L42.1344 30.7339C42.0623 30.6143 41.9573 30.5179 41.832 30.456L41.7197 30.3998L41.8263 30.3365C41.9464 30.2639 42.0434 30.1585 42.1056 30.0326L42.1618 29.9218Z" fill="white"/>
<g opacity="0.3">
<path d="M37.1016 27.8381L37.129 27.8842C37.1606 27.9376 37.2071 27.9807 37.2629 28.008L37.3119 28.0325L37.2643 28.0598C37.2116 28.0919 37.1692 28.1384 37.1419 28.1938L37.1175 28.2427L37.0887 28.1952C37.0568 28.1428 37.0109 28.1004 36.9562 28.0728L36.9072 28.0483L36.9533 28.021C37.0062 27.9886 37.049 27.9423 37.0771 27.887L37.1016 27.8381Z" fill="white"/>
</g>
<path d="M46.2906 27.3715L46.3194 27.419C46.3509 27.4717 46.3969 27.5142 46.4519 27.5414L46.5008 27.5659L46.4548 27.5947C46.4017 27.6261 46.3587 27.6721 46.3309 27.7272L46.3079 27.7776L46.2791 27.7301C46.2475 27.677 46.2009 27.6344 46.1452 27.6077L46.0962 27.5832L46.1437 27.5544C46.1964 27.5229 46.2389 27.4769 46.2661 27.4219L46.2906 27.3715Z" fill="white"/>
<path d="M37.5064 22.86L37.5338 22.9075C37.5666 22.9596 37.6129 23.0019 37.6677 23.0299L37.7167 23.0544L37.6706 23.0818C37.6174 23.1137 37.5745 23.1602 37.5467 23.2157L37.5223 23.2646L37.4949 23.2171C37.4628 23.1644 37.4164 23.1219 37.361 23.0947L37.312 23.0702L37.3595 23.0429C37.412 23.0104 37.4543 22.9641 37.4819 22.909L37.5064 22.86Z" fill="white"/>
<path d="M42.4703 13.3214L42.4991 13.369C42.5306 13.4216 42.5766 13.4641 42.6316 13.4914L42.6805 13.5158L42.6344 13.5446C42.5813 13.576 42.5384 13.622 42.5106 13.6771L42.4876 13.7261L42.4588 13.68C42.4276 13.6266 42.3809 13.5839 42.3248 13.5576L42.2759 13.5331L42.3234 13.5043C42.3765 13.4727 42.4191 13.4261 42.4458 13.3704L42.4703 13.3214Z" fill="white"/>
<path d="M40.5709 43.776L40.5997 43.8235C40.6312 43.8762 40.6771 43.9187 40.7321 43.9459L40.7825 43.9704L40.735 43.9992C40.6819 44.0308 40.6394 44.0774 40.6126 44.1331L40.5881 44.1821L40.5593 44.1346C40.5278 44.0819 40.4819 44.0394 40.4269 44.0122L40.3765 43.9877L40.424 43.9589C40.4767 43.9274 40.5191 43.8814 40.5464 43.8264L40.5709 43.776Z" fill="white"/>
<path d="M27.8023 30.0254L27.8297 30.073C27.8625 30.125 27.9088 30.1673 27.9636 30.1954L28.0126 30.2198L27.9665 30.2486C27.9134 30.28 27.8704 30.326 27.8427 30.3811L27.8182 30.4301L27.7923 30.384C27.7607 30.3305 27.7141 30.2875 27.6583 30.2602L27.6094 30.2357L27.6569 30.2083C27.7096 30.1762 27.7521 30.1298 27.7793 30.0744L27.8023 30.0254Z" fill="white"/>
<g opacity="0.3">
<path d="M40.7667 17.8978L40.82 17.9856C40.8786 18.0843 40.9647 18.1638 41.0677 18.2146L41.1598 18.2606L41.072 18.3139C40.9736 18.373 40.8942 18.4589 40.843 18.5616L40.7969 18.6538L40.7451 18.5659C40.6858 18.4672 40.5993 18.3877 40.496 18.337L40.4038 18.2909L40.4917 18.239C40.5907 18.1802 40.6703 18.0936 40.7206 17.9899L40.7667 17.8978Z" fill="white"/>
</g>
<g opacity="0.3">
<path d="M45.1183 40.9536L45.1701 41.0414C45.2301 41.1395 45.3164 41.2189 45.4192 41.2704L45.5114 41.3165L45.4235 41.3683C45.3248 41.4276 45.2453 41.5141 45.1946 41.6174L45.1485 41.7096L45.0967 41.6218C45.0378 41.5227 44.9512 41.4431 44.8475 41.3928L44.7554 41.3467L44.8432 41.2949C44.9425 41.2338 45.022 41.1452 45.0722 41.04L45.1183 40.9536Z" fill="white"/>
</g>
<g opacity="0.1">
<path d="M43.7962 36.0878C42.7753 36.3859 41.9905 36.743 41.2431 37.4976C40.4957 38.2522 40.0652 39.3955 40.3791 40.4093C40.7132 41.4576 41.8191 42.156 42.9121 42.192C44.4413 42.241 45.913 41.04 46.165 39.5251C46.417 38.0102 45.8151 35.9136 43.7962 36.0878Z" fill="white"/>
</g>
<path d="M51.7192 3.6144C51.7336 3.6288 51.2454 4.13856 50.6305 4.752C50.0156 5.36544 49.503 5.85072 49.4886 5.83632C49.4742 5.82192 49.9609 5.31216 50.5772 4.69872C51.1936 4.08528 51.7033 3.6 51.7192 3.6144Z" fill="#263238"/>
<path d="M49.4886 64.944C49.4886 64.6128 49.4742 40.2336 49.454 5.83056L49.4886 5.86512H22.516L22.5534 5.82768C22.5534 28.7813 22.5448 49.6339 22.5433 64.9411L22.516 64.9138L49.4929 64.9411L22.516 64.9685H22.4886V64.944C22.4886 49.6368 22.4886 28.7842 22.4785 5.83056V5.79168H22.5203H49.4929H49.5289V5.82768C49.5044 40.2394 49.4886 64.6186 49.4886 64.944Z" fill="#263238"/>
<path d="M22.5118 5.83632C22.4873 5.86512 21.9732 5.37696 21.3598 4.76064C21.0531 4.45248 20.7838 4.1688 20.5851 3.96144C20.4738 3.85445 20.3717 3.73837 20.2798 3.6144C20.4025 3.70781 20.5171 3.81137 20.6225 3.924C20.827 4.12272 21.1063 4.3992 21.4131 4.7088L22.1921 5.50224L22.4268 5.7456L22.5118 5.83632Z" fill="#263238"/>
<path d="M22.5117 64.944C22.5261 64.9598 22.0379 65.4667 21.4231 66.0787C20.8082 66.6907 20.297 67.1731 20.2811 67.1587C20.2653 67.1443 20.7549 66.6374 21.3698 66.0254C21.9847 65.4134 22.4973 64.9354 22.5117 64.944Z" fill="#263238"/>
<path d="M51.7194 67.1645C51.3177 66.8279 50.9332 66.4713 50.5674 66.096C49.9496 65.4898 49.46 64.9872 49.4744 64.9728C49.4888 64.9584 50.0015 65.4365 50.6264 66.0427C51.2514 66.649 51.7338 67.1501 51.7194 67.1645Z" fill="#263238"/>
<path d="M50.5902 38.88C50.639 38.8745 50.6873 38.8644 50.7342 38.8498C50.7973 38.8272 50.8545 38.7906 50.9014 38.7427C50.9483 38.6948 50.9837 38.6369 51.0049 38.5733C51.0288 38.4793 51.0361 38.3818 51.0265 38.2853C51.0265 38.1758 51.0265 38.0578 51.0265 37.931C51.0265 37.6762 51.0265 37.3867 51.0265 37.067C51.0265 36.4248 51.0265 35.6645 51.0193 34.8206C51.0193 34.3973 51.0193 33.9566 51.0193 33.493V32.7917C51.0211 32.7364 51.0118 32.6813 50.992 32.6296C50.9722 32.5779 50.9424 32.5307 50.9041 32.4907C50.8658 32.4502 50.8195 32.4179 50.7683 32.3959C50.717 32.3738 50.6618 32.3624 50.606 32.3624C50.5502 32.3624 50.495 32.3738 50.4438 32.3959C50.3925 32.4179 50.3463 32.4502 50.3079 32.4907C50.2316 32.572 50.1907 32.6802 50.1942 32.7917C50.1942 33.0293 50.1942 33.2626 50.1942 33.493C50.1942 33.9538 50.1942 34.3973 50.1942 34.8206C50.1942 35.6645 50.1942 36.4248 50.1856 37.067C50.1856 37.3853 50.1856 37.6747 50.1856 37.931C50.1856 38.0578 50.1856 38.1758 50.1856 38.2853C50.176 38.3818 50.1833 38.4793 50.2072 38.5733C50.2286 38.637 50.2642 38.695 50.3114 38.7429C50.3585 38.7908 50.416 38.8273 50.4793 38.8498C50.5263 38.8642 50.5745 38.8743 50.6233 38.88C50.5747 38.8862 50.5254 38.8808 50.4793 38.8642C50.4115 38.8438 50.3495 38.8078 50.2982 38.759C50.2469 38.7102 50.2078 38.6501 50.1841 38.5834C50.1568 38.486 50.1465 38.3847 50.1539 38.2838C50.1539 38.1744 50.1539 38.0563 50.1539 37.9296C50.1539 37.6747 50.1539 37.3853 50.1539 37.0656C50.1539 36.4234 50.1539 35.663 50.1467 34.8192C50.1467 34.3958 50.1467 33.9552 50.1467 33.4915V32.7902C50.1449 32.7254 50.1559 32.6609 50.1792 32.6003C50.2024 32.5398 50.2374 32.4844 50.282 32.4374C50.3274 32.3896 50.382 32.3516 50.4425 32.3256C50.503 32.2995 50.5682 32.2861 50.6341 32.2861C50.7 32.2861 50.7652 32.2995 50.8257 32.3256C50.8863 32.3516 50.9409 32.3896 50.9862 32.4374C51.0756 32.5329 51.1242 32.6595 51.1216 32.7902C51.1216 33.0278 51.1216 33.2626 51.1216 33.4915C51.1216 33.9523 51.1216 34.3958 51.1216 34.8192C51.1216 35.663 51.1216 36.4234 51.1129 37.0656C51.1129 37.3838 51.1129 37.6733 51.1129 37.9296C51.1129 38.0563 51.1129 38.1744 51.1129 38.2838C51.1207 38.3846 51.111 38.4859 51.0841 38.5834C51.0604 38.6501 51.0213 38.7102 50.9701 38.759C50.9188 38.8078 50.8567 38.8438 50.7889 38.8642C50.7261 38.8908 50.6564 38.8963 50.5902 38.88Z" fill="#263238"/>
<path d="M50.6032 26.2411H22.3403V26.4859H50.6032V26.2411Z" fill="#F5F5F5"/>
<path d="M50.6032 52.8566H22.3403V53.1014H50.6032V52.8566Z" fill="#F5F5F5"/>
<path d="M35.9771 4.74191L35.9771 66.7282H36.3255L36.3255 4.74191H35.9771Z" fill="#F5F5F5"/>
<path d="M12.5972 65.4062L12.7412 68.1422L12.721 69.2179C12.7124 69.6254 13.045 69.5549 13.4525 69.5621L18.4292 69.6586C18.4292 69.6586 18.674 69.1632 18.3096 69.0005C17.9453 68.8378 15.192 67.248 15.192 67.248L15.2986 64.6733L12.5972 65.4062Z" fill="#E0E0E0"/>
<path d="M13.8142 69.539C13.8041 69.539 13.7955 69.444 13.7508 69.2986C13.6939 69.1089 13.5955 68.9342 13.4628 68.7873C13.33 68.6403 13.1663 68.5248 12.9833 68.449C12.8393 68.3885 12.75 68.3698 12.7515 68.3611C12.8366 68.3579 12.9213 68.3741 12.9992 68.4086C13.1945 68.4766 13.3694 68.593 13.5075 68.747C13.647 68.9002 13.746 69.0858 13.7955 69.287C13.8188 69.3689 13.8251 69.4546 13.8142 69.539Z" fill="#263238"/>
<path d="M16.9602 69.6283C16.9304 69.572 16.9155 69.5091 16.917 69.4454C16.9062 69.2911 16.9407 69.1369 17.0163 69.0019C17.0928 68.8695 17.1964 68.7547 17.3202 68.665C17.4123 68.5958 17.4771 68.5642 17.4814 68.5714C17.4858 68.5786 17.431 68.6232 17.3475 68.6981C17.2381 68.794 17.1448 68.9068 17.071 69.0322C17.0012 69.1589 16.9631 69.3007 16.9602 69.4454C16.9656 69.5063 16.9656 69.5675 16.9602 69.6283Z" fill="#263238"/>
<path d="M17.7207 62.5522L16.0662 64.7338L15.3563 65.5416C15.087 65.8483 15.3865 66.0082 15.6932 66.2774L19.4372 69.5635C19.4372 69.5635 19.9441 69.3432 19.7713 68.9875C19.5985 68.6318 18.5214 65.6366 18.5214 65.6366L20.2638 63.7402L17.7207 62.5522Z" fill="#E0E0E0"/>
<path d="M15.9839 66.4934C15.9753 66.4934 16.0314 66.4085 16.0905 66.2688C16.1672 66.0867 16.2045 65.8904 16.1999 65.6928C16.1935 65.4955 16.1444 65.3019 16.0559 65.1254C15.9882 64.9886 15.9277 64.9138 15.9364 64.908C16.0027 64.9611 16.0567 65.0279 16.0948 65.1038C16.1998 65.2822 16.2582 65.484 16.2648 65.6909C16.2713 65.8977 16.2257 66.1029 16.1322 66.2875C16.0979 66.3659 16.0473 66.4361 15.9839 66.4934Z" fill="#263238"/>
<path d="M18.3271 68.593C18.3419 68.5311 18.3716 68.4737 18.4135 68.4259C18.5049 68.3012 18.6304 68.2057 18.775 68.1509C18.919 68.1 19.0719 68.0789 19.2243 68.089C19.2874 68.0859 19.3504 68.0972 19.4086 68.1221C19.3478 68.1329 19.2859 68.1363 19.2243 68.1322C19.0772 68.135 18.9314 68.1607 18.7923 68.2085C18.6578 68.261 18.5378 68.3449 18.4423 68.4533C18.3732 68.544 18.3372 68.5987 18.3271 68.593Z" fill="#263238"/>
<path d="M13.3459 15.4944C12.659 16.7141 12.3494 18.1166 12.2587 19.512C12.1679 20.9074 12.2831 22.3085 12.4027 23.7038C12.4243 23.9558 12.4617 24.2381 12.6619 24.3936C12.862 24.5491 13.1529 24.5131 13.4049 24.4685C13.7375 24.408 14.0903 24.3374 14.3294 24.0998C14.6361 23.7931 14.6577 23.3107 14.6577 22.8787C14.6519 20.9808 14.566 19.0862 14.3999 17.195" fill="#263238"/>
<path d="M20.5261 16.2821L19.6649 19.895L17.9326 18.9763L19.1206 14.9774L20.5261 16.2821Z" fill="#815A46"/>
<path d="M22.3044 12.1579C22.3044 12.1579 21.7716 11.5819 21.5585 11.5531C21.3454 11.5243 20.1358 12.1579 20.1358 12.1579L19.1753 13.4381V15.8558L20.5275 16.2878L21.0459 15.6787C21.0459 15.6787 22.267 15.0307 22.3044 14.8752C22.3233 14.503 22.3233 14.13 22.3044 13.7578C22.3044 13.7578 21.9171 13.5778 21.8494 14.0458L21.8047 14.4706L21.0459 14.688L21.2907 13.7059C21.2907 13.7059 22.3203 13.3718 22.3203 13.1702C22.3203 12.9686 22.0323 12.7685 22.0323 12.7685L22.3203 12.2544" fill="#815A46"/>
<path d="M10.512 39.8117C10.512 39.8117 9.19006 42.3806 10.3133 48.0701C11.0145 51.6139 11.7259 67.019 11.7259 67.019L17.2454 66.9283C17.2454 66.9283 17.2454 55.8216 17.2267 53.8646C17.2137 52.6133 17.7105 47.569 17.7105 47.569L18.036 41.3078L10.512 39.8117Z" fill="#0D8E49"/>
<path d="M20.1599 40.9032C20.0763 41.0904 25.9962 50.8781 25.9947 52.9474C25.9947 54.9418 19.2887 64.9901 19.2887 64.9901L15.0263 62.064L19.748 53.8214L15.5807 46.7352L14.2559 41.7211L20.1599 40.9032Z" fill="#0D8E49"/>
<path d="M17.2383 66.9283C17.2365 66.9092 17.2365 66.8899 17.2383 66.8707V66.7022C17.2383 66.5496 17.2383 66.3322 17.2297 66.0542C17.2297 65.4883 17.2211 64.6762 17.2139 63.6739C17.2139 61.6579 17.1966 58.8845 17.1851 55.8187C17.1851 55.0526 17.1851 54.3038 17.1851 53.5795C17.1851 53.3995 17.1995 53.221 17.2095 53.0438C17.2196 52.8667 17.2311 52.691 17.2427 52.5168C17.2643 52.1698 17.2873 51.8299 17.3075 51.4987C17.3939 50.1725 17.4716 48.9787 17.5379 47.9736C17.6041 46.9685 17.6603 46.1635 17.6977 45.599C17.7193 45.3226 17.7351 45.1051 17.7452 44.9539C17.7452 44.8834 17.7567 44.8272 17.7596 44.7854C17.7606 44.7665 17.7635 44.7477 17.7683 44.7293V44.7869V44.9539C17.7596 45.1066 17.7495 45.3226 17.7351 45.6005C17.702 46.1664 17.6545 46.9771 17.5911 47.9765C17.5278 48.9758 17.4587 50.1754 17.378 51.5016C17.3579 51.8328 17.3372 52.1722 17.3161 52.5197C17.3046 52.6925 17.2945 52.8682 17.283 53.0453C17.2715 53.2224 17.2542 53.401 17.2599 53.5824C17.2599 54.3024 17.2599 55.0541 17.2599 55.8216C17.2599 58.8859 17.2599 61.6608 17.2599 63.6739C17.2599 64.6819 17.2599 65.4883 17.2599 66.0542C17.2599 66.3322 17.2599 66.5496 17.2599 66.7022C17.2599 66.7733 17.2599 66.8294 17.2599 66.8707C17.2551 66.8907 17.2478 66.9101 17.2383 66.9283Z" fill="#263238"/>
<path d="M22.1661 53.5075C22.0378 53.5109 21.9094 53.5066 21.7816 53.4946C21.4741 53.4838 21.1663 53.4997 20.8615 53.5421C20.5567 53.5861 20.2562 53.6554 19.9629 53.7494C19.8437 53.7967 19.7215 53.8361 19.5972 53.8675C19.7054 53.7966 19.8226 53.7404 19.9456 53.7005C20.2378 53.5889 20.5417 53.5106 20.8514 53.4672C21.1605 53.424 21.4735 53.4153 21.7845 53.4413C21.9141 53.4464 22.0424 53.4686 22.1661 53.5075Z" fill="#263238"/>
<path d="M17.2081 64.4098C17.135 64.4192 17.0614 64.4225 16.9878 64.4198H16.3916C15.8862 64.4198 15.1906 64.4314 14.4217 64.4573C13.6527 64.4832 12.9558 64.5178 12.4532 64.5466L11.857 64.5811C11.7838 64.5883 11.71 64.5883 11.6367 64.5811C11.7082 64.5648 11.781 64.5542 11.8542 64.5494C11.9982 64.5322 12.1969 64.512 12.4489 64.4918C12.9514 64.4486 13.6484 64.404 14.4188 64.3781C15.1892 64.3522 15.8862 64.3536 16.3916 64.3637C16.6436 64.3637 16.8481 64.3766 16.9892 64.3838C17.0628 64.3856 17.1361 64.3943 17.2081 64.4098Z" fill="#263238"/>
<path d="M20.8007 62.5565C20.752 62.5276 20.707 62.4927 20.6668 62.4528L20.3126 62.1562C20.013 61.907 19.5926 61.5802 19.1015 61.2374C18.6105 60.8947 18.1526 60.624 17.8055 60.4325L17.4038 60.2064C17.3526 60.1826 17.3043 60.1532 17.2598 60.1186C17.3151 60.132 17.3684 60.1528 17.4182 60.1805C17.5175 60.2251 17.6601 60.2957 17.8329 60.385C18.7349 60.859 19.577 61.4391 20.3414 62.113C20.4854 62.2426 20.6034 62.3506 20.6798 62.4283C20.7249 62.4662 20.7655 62.5092 20.8007 62.5565Z" fill="#263238"/>
<path d="M11.8685 64.5595C11.867 64.5413 11.867 64.523 11.8685 64.5048C11.8685 64.4645 11.8685 64.4098 11.8685 64.3406C11.8685 64.1966 11.8556 63.9821 11.8455 63.7128C11.8282 63.1642 11.8023 62.375 11.7692 61.4088C11.7029 59.459 11.5978 56.7662 11.4466 53.7926C11.2954 50.819 11.1284 48.1277 10.9959 46.1808C10.9297 45.2117 10.8764 44.424 10.8389 43.8768C10.8217 43.6075 10.8073 43.3973 10.7972 43.249C10.7972 43.1798 10.7972 43.1266 10.7885 43.0862C10.7866 43.0676 10.7866 43.0488 10.7885 43.0301C10.7897 43.0483 10.7897 43.0666 10.7885 43.0848L10.8058 43.2475C10.8188 43.3915 10.8375 43.6061 10.8605 43.8739C10.9081 44.4182 10.97 45.2045 11.042 46.1779C11.186 48.1234 11.3631 50.8147 11.5143 53.7883C11.6655 56.7619 11.7562 59.4504 11.8081 61.4016C11.8354 62.3779 11.8527 63.167 11.8613 63.7128C11.8613 63.9821 11.8613 64.1923 11.8685 64.3406C11.8685 64.4098 11.8685 64.463 11.8685 64.5048C11.8698 64.523 11.8698 64.5413 11.8685 64.5595Z" fill="white"/>
<path d="M14.1118 43.8451C14.132 43.8451 14.0729 48.4402 13.9779 54.1066C13.8829 59.773 13.7907 64.368 13.7705 64.368C13.7504 64.368 13.8094 59.7744 13.903 54.1066C13.9966 48.4387 14.0902 43.8451 14.1118 43.8451Z" fill="white"/>
<path d="M15.5721 64.2442C15.5702 64.2269 15.5702 64.2095 15.5721 64.1923C15.5721 64.1534 15.5721 64.103 15.5721 64.0382C15.5721 63.8942 15.5721 63.6998 15.5592 63.4478C15.5491 62.9338 15.5419 62.1907 15.5376 61.2734C15.5289 59.4374 15.5477 56.9002 15.6283 54.1008C15.7089 51.3014 15.8371 48.7656 15.9523 46.9339C16.0085 46.0166 16.0603 45.2765 16.0963 44.7638C16.1165 44.5118 16.1323 44.3146 16.1438 44.1749C16.1438 44.1101 16.1539 44.0597 16.1582 44.0222C16.1561 44.005 16.1561 43.9876 16.1582 43.9704C16.1601 43.9876 16.1601 44.005 16.1582 44.0222C16.1582 44.0611 16.1582 44.1115 16.1582 44.1763C16.1582 44.3203 16.1395 44.5133 16.1265 44.7667C16.0963 45.2837 16.0545 46.0238 16.0013 46.9368C15.9019 48.7685 15.7824 51.3029 15.7003 54.1022C15.6182 56.9016 15.5923 59.4374 15.588 61.2734C15.588 62.1878 15.588 62.9294 15.588 63.4464V64.0382C15.588 64.103 15.588 64.1534 15.588 64.1923C15.584 64.21 15.5787 64.2273 15.5721 64.2442Z" fill="white"/>
<path d="M20.8602 53.5334C20.8477 53.5035 20.8376 53.4727 20.8299 53.4413C20.8098 53.3722 20.7853 53.2829 20.755 53.172C20.6874 52.9286 20.5952 52.596 20.4814 52.1813C20.2453 51.3461 19.9054 50.1984 19.4734 48.9485C19.0414 47.6986 18.6094 46.5811 18.271 45.7805C18.1069 45.3859 17.9715 45.0605 17.875 44.833C17.8304 44.7264 17.7958 44.64 17.767 44.5738C17.7533 44.5447 17.7427 44.5143 17.7354 44.483C17.7531 44.51 17.7685 44.5384 17.7814 44.568L17.901 44.82C18.0046 45.0403 18.1486 45.3614 18.32 45.7589C18.6642 46.5566 19.1106 47.6712 19.544 48.9269C19.9774 50.1826 20.3144 51.3317 20.5362 52.1698C20.647 52.5902 20.7334 52.9301 20.7867 53.1677C20.8126 53.28 20.8328 53.3707 20.8486 53.4398C20.8558 53.4705 20.8596 53.5019 20.8602 53.5334Z" fill="white"/>
<path d="M21.4561 53.5982C21.4511 53.6239 21.4434 53.6491 21.433 53.6731C21.4114 53.7278 21.3855 53.797 21.3524 53.8805C21.2833 54.059 21.1738 54.3125 21.0327 54.6307C20.663 55.4503 20.2491 56.2492 19.7929 57.024C19.3375 57.7985 18.8415 58.5484 18.3068 59.2704C18.1009 59.5469 17.9295 59.7672 17.8057 59.9155L17.6617 60.0869C17.6457 60.1072 17.6279 60.1261 17.6084 60.143C17.6084 60.143 17.6199 60.1186 17.6502 60.0768L17.7798 59.8982C17.8964 59.7442 18.0678 59.5195 18.2607 59.2387C18.661 58.68 19.1924 57.8909 19.7252 56.9866C20.258 56.0822 20.6857 55.2326 20.9794 54.6106C21.1234 54.2995 21.2415 54.0461 21.3207 53.8704L21.4129 53.6688C21.4238 53.6433 21.4384 53.6196 21.4561 53.5982Z" fill="white"/>
<path d="M19.2959 61.3253C19.304 61.3095 19.3137 61.2946 19.3247 61.2806L19.4169 61.1554C19.5018 61.043 19.6228 60.8832 19.7754 60.6787C20.0865 60.2626 20.5415 59.6707 21.0642 58.8989C21.6841 58.0086 22.2174 57.0611 22.6569 56.0693C23.1349 54.949 23.5093 53.6213 23.4935 52.2115C23.4889 51.8639 23.46 51.5169 23.4071 51.1733C23.3797 51.0048 23.3394 50.8392 23.3077 50.6736C23.2761 50.508 23.2185 50.3482 23.1767 50.1883C22.987 49.5772 22.7427 48.9844 22.4466 48.4171C21.8821 47.3314 21.2687 46.4011 20.7877 45.6149C20.3984 44.9946 20.0446 44.3528 19.7279 43.6925C19.6127 43.4592 19.5421 43.2706 19.4889 43.1438L19.4298 42.9998C19.4222 42.9842 19.4164 42.9678 19.4125 42.9509C19.4231 42.9649 19.4313 42.9804 19.437 42.997C19.4529 43.033 19.4745 43.079 19.5018 43.141C19.5594 43.2648 19.6343 43.452 19.7553 43.6824C20.0826 44.3369 20.4441 44.9738 20.8381 45.5904C21.3234 46.3795 21.9412 47.2982 22.5129 48.3883C22.8123 48.9586 23.0595 49.5548 23.2516 50.1696C23.2948 50.3309 23.3524 50.4907 23.3841 50.6592C23.4157 50.8277 23.4575 50.9933 23.4849 51.1646C23.539 51.512 23.5683 51.8628 23.5727 52.2144C23.5643 53.5554 23.2754 54.8798 22.7245 56.1024C22.2803 57.0968 21.7402 58.0454 21.1117 58.9349C20.5833 59.6981 20.121 60.2914 19.8042 60.7018L19.4399 61.1654L19.342 61.2864C19.3282 61.3011 19.3127 61.3142 19.2959 61.3253Z" fill="white"/>
<g opacity="0.3">
<path d="M9.90723 42.4944C10.0815 43.1366 10.7424 43.5672 11.3559 43.8221C13.0576 44.5222 14.909 44.7794 16.7371 44.5694C17.6011 44.4686 18.4781 44.2555 19.2067 43.776C19.525 43.5658 19.8173 43.3066 20.173 43.1726C20.5287 43.0387 20.9895 43.0733 21.2184 43.3771C21.2674 43.2619 21.2799 43.1343 21.2542 43.0118C21.2284 42.8892 21.1657 42.7775 21.0744 42.6917C20.9909 42.6182 20.6309 42.5074 20.4091 42.3965C20.1543 42.2698 19.7784 42.1085 19.7784 42.1085C19.6417 42.3294 19.4891 42.5402 19.3219 42.7392C18.91 43.1328 18.412 43.4252 17.8675 43.5931C16.2216 44.136 14.4202 44.0683 12.7296 43.6522C11.7375 43.4059 10.7611 43.0589 9.91155 42.5002" fill="black"/>
</g>
<g opacity="0.3">
<path d="M17.6688 45.936C18.1815 47.9909 18.6653 50.1206 18.8338 52.2317C18.3658 51.3677 17.9309 50.7787 17.4629 49.9147L17.6688 45.936Z" fill="black"/>
</g>
<path d="M20.4668 17.8042L20.0939 18.0403C20.2091 19.0253 19.6619 19.9598 19.1046 20.7763C18.5473 21.5928 17.918 22.4381 17.8302 23.4274C17.6689 25.2446 19.358 26.7696 19.4531 28.5912C19.6979 28.5912 21.0227 28.5192 21.2675 28.5192C21.5123 24.7896 20.8801 21.6533 20.4668 17.8042Z" fill="#263238"/>
<path d="M12.9846 18.144C12.9692 18.8445 13.1024 19.5404 13.3755 20.1857C13.6485 20.831 14.0551 21.4112 14.5686 21.888C14.8028 21.2054 15.0385 20.5224 15.2756 19.8389" fill="#263238"/>
<path d="M18.3183 14.0616C17.6948 13.7495 16.9822 13.6635 16.3023 13.8182C15.6265 13.9749 14.9809 14.2415 14.3914 14.6074C14.0449 14.7883 13.7352 15.0325 13.4785 15.3274C13.0378 15.8818 12.6015 16.7933 12.5598 17.5003C12.5252 18.0763 12.7441 19.5048 12.9918 20.0246C13.2135 20.5013 14.2518 20.8642 14.7644 20.9808L19.4674 15.5088C19.3821 15.2031 19.2365 14.9176 19.0391 14.6691C18.8418 14.4205 18.5967 14.214 18.3183 14.0616Z" fill="#263238"/>
<path d="M19.129 14.7989L18.0015 14.5973C18.6178 16.0661 18.7848 19.4213 19.1376 20.9736C19.5538 20.3717 20.5186 18.5342 20.4667 17.8056C20.4149 17.077 20.4682 14.675 19.129 14.7989Z" fill="#263238"/>
<path d="M19.7742 17.1922C19.7007 16.0661 18.9505 14.6851 17.8287 14.8075L15.2367 15.4699C14.8372 15.5712 14.4808 15.7982 14.22 16.1173C13.9592 16.4364 13.8078 16.8309 13.7881 17.2426C13.7881 17.2858 13.7881 17.2325 13.7881 17.2656L14.3641 23.989L17.1102 27.5414L18.026 24.192C18.026 23.6434 18.026 22.8154 18.026 22.8182C18.026 22.8211 19.466 22.5763 19.754 20.6971C19.9052 19.764 19.8562 18.4435 19.7742 17.1922Z" fill="#815A46"/>
<path d="M19.4761 18.5026C19.4765 18.5653 19.4526 18.6257 19.4093 18.6711C19.3661 18.7165 19.3069 18.7433 19.2442 18.7459C19.2135 18.7485 19.1826 18.7448 19.1533 18.7352C19.124 18.7256 19.0969 18.7102 19.0737 18.6899C19.0505 18.6696 19.0315 18.6449 19.018 18.6171C19.0045 18.5894 18.9968 18.5593 18.9951 18.5285C18.9947 18.4658 19.0186 18.4054 19.0619 18.36C19.1051 18.3146 19.1643 18.2877 19.227 18.2851C19.2577 18.2828 19.2885 18.2866 19.3177 18.2963C19.3469 18.306 19.3739 18.3214 19.3971 18.3416C19.4203 18.3619 19.4392 18.3865 19.4528 18.4141C19.4663 18.4418 19.4743 18.4718 19.4761 18.5026Z" fill="#263238"/>
<path d="M19.4917 17.928C19.4615 17.9597 19.2801 17.8243 19.0209 17.8258C18.7617 17.8272 18.5716 17.9568 18.5428 17.9251C18.514 17.8934 18.5601 17.8546 18.6421 17.7941C18.7542 17.7164 18.8874 17.6752 19.0237 17.676C19.1586 17.6747 19.2903 17.7166 19.3996 17.7955C19.4788 17.856 19.5061 17.9136 19.4917 17.928Z" fill="#263238"/>
<path d="M17.1924 18.5875C17.1932 18.6503 17.1694 18.711 17.126 18.7564C17.0827 18.8019 17.0233 18.8286 16.9606 18.8309C16.9299 18.8334 16.8991 18.8298 16.8699 18.8203C16.8407 18.8108 16.8137 18.7955 16.7905 18.7754C16.7673 18.7552 16.7483 18.7307 16.7348 18.7031C16.7212 18.6755 16.7132 18.6455 16.7114 18.6149C16.711 18.5522 16.7349 18.4918 16.7782 18.4464C16.8214 18.401 16.8806 18.3741 16.9433 18.3715C16.9738 18.3692 17.0046 18.3729 17.0337 18.3825C17.0628 18.3921 17.0898 18.4074 17.1129 18.4275C17.1361 18.4476 17.155 18.4721 17.1687 18.4996C17.1823 18.527 17.1904 18.5569 17.1924 18.5875Z" fill="#263238"/>
<path d="M17.0309 17.928C17.0021 17.9597 16.8192 17.8243 16.56 17.8258C16.3008 17.8272 16.1108 17.9568 16.0834 17.9251C16.056 17.8934 16.0992 17.8546 16.1813 17.7941C16.2933 17.7164 16.4266 17.6752 16.5629 17.676C16.6978 17.6745 16.8295 17.7164 16.9388 17.7955C17.018 17.856 17.0453 17.9136 17.0309 17.928Z" fill="#263238"/>
<path d="M17.8415 19.9627C17.9779 19.9197 18.1192 19.8941 18.262 19.8864C18.3283 19.8864 18.3902 19.8662 18.406 19.8202C18.4114 19.7519 18.3958 19.6835 18.3614 19.6243C18.2995 19.4645 18.2332 19.2974 18.1641 19.1203C17.8919 18.4003 17.6932 17.8157 17.722 17.8042C17.7508 17.7926 17.9971 18.3658 18.2692 19.0829C18.3355 19.2586 18.3988 19.427 18.4579 19.5883C18.5004 19.6682 18.5126 19.7608 18.4924 19.849C18.4831 19.8723 18.4685 19.8931 18.4497 19.9099C18.431 19.9266 18.4086 19.9388 18.3844 19.9454C18.3479 19.9558 18.3101 19.9611 18.2721 19.9613C18.1292 19.9797 17.9846 19.9802 17.8415 19.9627Z" fill="#263238"/>
<path d="M15.5376 22.1501C15.5376 22.1501 16.1482 23.4461 18.0259 23.2589V22.8182C17.1507 22.8298 16.2893 22.5985 15.5376 22.1501Z" fill="#34231A"/>
<path d="M16.9503 16.992C16.9243 17.0626 16.6623 17.0294 16.3627 17.0669C16.0632 17.1043 15.8127 17.1878 15.7723 17.1245C15.7536 17.0942 15.7968 17.028 15.8947 16.9589C16.025 16.875 16.1728 16.8223 16.3267 16.8048C16.4824 16.7858 16.6403 16.8041 16.7875 16.8581C16.9042 16.9027 16.9603 16.9574 16.9503 16.992Z" fill="#263238"/>
<path d="M19.4071 17.136C19.3624 17.195 19.1839 17.136 18.9751 17.136C18.7663 17.136 18.5791 17.1763 18.5431 17.1144C18.5258 17.0842 18.5531 17.0251 18.6323 16.9704C18.7388 16.9026 18.8634 16.8689 18.9895 16.8739C19.1155 16.8758 19.2379 16.9171 19.3394 16.992C19.4027 17.0453 19.4272 17.1058 19.4071 17.136Z" fill="#263238"/>
<path d="M19.2643 15.4771C19.198 15.3392 19.0945 15.2225 18.9656 15.1401C18.8366 15.0577 18.6872 15.0128 18.5342 15.0106C18.228 15.01 17.9281 15.0975 17.6702 15.2626C16.5513 15.9091 15.9768 17.4701 14.8723 18.1426C14.6001 18.3067 14.2473 18.157 14.0083 18.3744C13.7693 18.5918 13.6281 18.9403 13.7549 19.2384C13.5976 19.0371 13.4705 18.8139 13.3776 18.576C13.3301 18.4587 13.3083 18.3325 13.3138 18.2061C13.3193 18.0796 13.3518 17.9558 13.4093 17.843C13.5043 17.6774 13.6728 17.555 13.7189 17.3664C13.7649 17.1778 13.6958 17.0323 13.703 16.8638C13.7219 16.6932 13.7806 16.5295 13.8744 16.3858C14.3064 15.6197 14.9025 14.927 15.6701 14.4965C16.1699 14.2058 16.7393 14.0564 17.3174 14.0645C17.8977 14.0789 18.4538 14.3 18.8856 14.688C19.1318 14.9184 19.3925 15.156 19.2643 15.4685" fill="#263238"/>
<path d="M14.0413 18.6034C14.0212 18.5486 13.042 18.1958 13.0333 19.237C13.0204 20.245 14.0413 20.0491 14.0413 20.0203C14.0413 19.9915 14.0413 18.6034 14.0413 18.6034Z" fill="#815A46"/>
<path d="M13.7307 19.633C13.7307 19.633 13.7134 19.6459 13.6831 19.6589C13.6411 19.6758 13.5941 19.6758 13.5521 19.6589C13.4868 19.6172 13.4338 19.5587 13.3989 19.4896C13.3639 19.4204 13.3482 19.3431 13.3534 19.2658C13.352 19.179 13.3697 19.093 13.4052 19.0138C13.4151 18.9823 13.4324 18.9537 13.4557 18.9304C13.4791 18.907 13.5077 18.8897 13.5391 18.8798C13.5596 18.8749 13.5811 18.8773 13.6 18.8865C13.6189 18.8956 13.634 18.9111 13.6428 18.9302C13.6558 18.9576 13.6428 18.9778 13.6543 18.9806C13.6659 18.9835 13.6759 18.9634 13.6687 18.9216C13.6633 18.8967 13.6496 18.8743 13.6299 18.8582C13.6016 18.8375 13.5668 18.8278 13.5319 18.8309C13.4903 18.839 13.4515 18.8575 13.419 18.8847C13.3865 18.9119 13.3615 18.9469 13.3462 18.9864C13.3028 19.0736 13.2811 19.1699 13.2828 19.2672C13.2828 19.4717 13.3894 19.6632 13.5363 19.7064C13.5633 19.7143 13.5917 19.7163 13.6196 19.712C13.6475 19.7078 13.6741 19.6975 13.6975 19.6819C13.7292 19.6574 13.735 19.6358 13.7307 19.633Z" fill="#34231A"/>
<path d="M13.6154 19.813C13.5783 19.8052 13.5398 19.8082 13.5044 19.8216C13.469 19.835 13.4382 19.8582 13.4155 19.8885C13.3929 19.9188 13.3793 19.955 13.3765 19.9927C13.3737 20.0305 13.3817 20.0682 13.3997 20.1016C13.4176 20.1349 13.4447 20.1624 13.4777 20.1809C13.5107 20.1994 13.5484 20.208 13.5862 20.2059C13.6239 20.2037 13.6603 20.1907 13.691 20.1686C13.7217 20.1464 13.7454 20.116 13.7594 20.0808C13.776 20.0333 13.7747 19.9815 13.7559 19.9349C13.7371 19.8882 13.702 19.85 13.6572 19.8274" fill="white"/>
<path d="M13.663 19.8274C13.7068 19.8618 13.7385 19.9091 13.7537 19.9627C13.7609 19.9905 13.7611 20.0196 13.7543 20.0475C13.7475 20.0754 13.734 20.1012 13.7148 20.1226C13.6911 20.1476 13.661 20.1658 13.6278 20.1752C13.5946 20.1845 13.5595 20.1848 13.5262 20.1758C13.4937 20.1642 13.465 20.1437 13.4434 20.1168C13.4218 20.0898 13.4081 20.0575 13.4038 20.0232C13.4 19.9948 13.4034 19.966 13.4137 19.9393C13.424 19.9126 13.4409 19.889 13.4628 19.8706C13.5062 19.8355 13.5597 19.8153 13.6155 19.813C13.6155 19.813 13.6011 19.8014 13.5679 19.8014C13.5225 19.8015 13.4785 19.8167 13.4427 19.8446C13.4146 19.8657 13.3924 19.8935 13.378 19.9255C13.3637 19.9575 13.3577 19.9926 13.3606 20.0275C13.3635 20.0711 13.3795 20.1129 13.4064 20.1472C13.4334 20.1816 13.4701 20.2071 13.5118 20.2203C13.5535 20.2335 13.5981 20.2339 13.64 20.2213C13.6819 20.2088 13.719 20.1839 13.7465 20.1499C13.7695 20.1235 13.7853 20.0916 13.7921 20.0572C13.7989 20.0228 13.7966 19.9873 13.7854 19.9541C13.7721 19.9105 13.7448 19.8725 13.7076 19.8461C13.6803 19.8274 13.6644 19.8245 13.663 19.8274Z" fill="#263238"/>
<path d="M13.8931 18.3686C13.8773 18.6451 13.8643 18.9374 13.9925 19.1822C14.1206 19.427 14.4417 19.5955 14.6822 19.4573C14.8781 19.3464 14.9371 19.0944 14.9702 18.8712C15.0653 18.2275 15.1142 17.5752 15.2107 16.933L13.8931 18.3686Z" fill="#263238"/>
<path d="M17.205 20.4552C17.1559 20.5191 17.1229 20.594 17.109 20.6734C17.0951 20.7529 17.1007 20.8345 17.1251 20.9113C17.1496 20.9881 17.1923 21.0579 17.2496 21.1146C17.3069 21.1713 17.377 21.2134 17.4541 21.2371C17.5152 21.2583 17.5816 21.2583 17.6427 21.2371C17.6922 21.2097 17.7354 21.1724 17.7698 21.1276C17.8043 21.0827 17.8291 21.0313 17.8429 20.9765C17.8789 20.8886 17.9135 20.8022 17.948 20.7144C17.9633 20.6867 17.9669 20.6541 17.9581 20.6237C17.9437 20.592 17.9063 20.5819 17.8731 20.5733L17.2237 20.4163" fill="#34231A"/>
<path d="M17.6288 21.2083C17.5312 21.2214 17.4318 21.2085 17.3408 21.1709C17.2313 21.1361 17.1388 21.0616 17.0816 20.9621C17.0484 20.9004 17.0348 20.8301 17.0427 20.7605C17.047 20.6889 17.064 20.6187 17.0931 20.5531C17.1229 20.4898 17.1645 20.4326 17.2155 20.3846L17.2328 20.3688L17.2544 20.376C17.6864 20.5272 18.0205 20.605 18.0161 20.6222C17.7467 20.6049 17.4815 20.5461 17.2299 20.448L17.2673 20.4394C17.2243 20.4804 17.1896 20.5293 17.1651 20.5834C17.1376 20.6358 17.1216 20.6935 17.1182 20.7525C17.1147 20.8116 17.1238 20.8708 17.1449 20.9261C17.1928 21.0128 17.2691 21.0804 17.3609 21.1176C17.5165 21.1853 17.6317 21.1939 17.6288 21.2083Z" fill="#263238"/>
<path d="M14.1454 18.419L13.9726 18.4939C13.9528 18.5035 13.932 18.5107 13.9106 18.5155C13.9288 18.5027 13.9481 18.4916 13.9682 18.4824L14.1367 18.4003C14.2807 18.3269 14.4967 18.2261 14.7516 18.085C15.0515 17.9247 15.3326 17.7315 15.5897 17.509C15.7385 17.3749 15.8713 17.2241 15.9857 17.0597C16.1066 16.8898 16.219 16.704 16.35 16.5211C16.5991 16.1801 16.8893 15.871 17.214 15.601C17.3543 15.4825 17.5014 15.3724 17.6546 15.2712C17.7905 15.1847 17.9353 15.1132 18.0866 15.0581C18.3045 14.9744 18.5377 14.9381 18.7706 14.9515C18.8337 14.9544 18.8964 14.9631 18.9578 14.9774C18.9794 14.9815 19.0006 14.9873 19.0212 14.9947C19.0212 14.9947 18.9319 14.9774 18.7692 14.9731C18.5401 14.9694 18.3126 15.011 18.0996 15.0955C17.9527 15.1526 17.8122 15.225 17.6806 15.3115C17.5302 15.4128 17.3859 15.5229 17.2486 15.6413C16.9307 15.9105 16.6464 16.2171 16.4018 16.5542C16.2737 16.7342 16.1599 16.92 16.0361 17.0914C15.9195 17.2593 15.7832 17.4125 15.63 17.5478" fill="#455A64"/>
<path d="M13.4944 23.5742L12.2632 24.7003L11.5346 31.4842L9.32129 42.1042C10.0413 42.7349 12.8565 44.1072 15.676 43.9646C19.1982 43.7861 19.7742 42.1042 19.7742 42.1042C20.4942 42.3835 21.1538 42.6802 21.1538 42.6802C21.1538 42.6802 19.7613 30.6893 19.6418 28.8446C19.5165 26.9251 18.1643 24.6586 18.1643 24.6586L18.1154 23.927L17.9123 24.503L17.2197 23.9587L13.9307 22.464L13.4944 23.5742Z" fill="#0D8E49"/>
<path d="M13.4942 23.5742C13.4942 23.5742 12.0268 24.1085 10.9555 25.2C10.3262 25.8408 7.54555 34.429 7.44907 35.1058C7.28923 36.2304 8.50892 38.3314 10.4731 38.0117C12.4372 37.692 17.7609 36.1282 17.7609 36.1282L16.3627 31.369L12.0326 33.241L14.292 27.9518C14.292 27.9518 15.2712 23.9386 13.4942 23.5742Z" fill="#0D8E49"/>
<path d="M13.6685 29.3933C13.6685 29.3933 13.6685 29.4163 13.6441 29.461C13.6196 29.5056 13.598 29.5718 13.5634 29.6568L13.2481 30.4142C12.9673 31.0781 12.5612 32.04 12.05 33.2467L12.0197 33.215L16.3397 31.343L16.3729 31.3286L16.3829 31.3632L17.7855 36.1152L17.7956 36.1512L17.761 36.1613C16.4002 36.5573 14.9473 36.9677 13.441 37.3622C12.829 37.5221 12.2213 37.6747 11.6194 37.8115C11.3185 37.8821 11.0189 37.9469 10.7194 38.0016L10.4962 38.0419C10.4199 38.0549 10.3436 38.0578 10.2673 38.065C10.116 38.0801 9.96353 38.0801 9.81223 38.065C9.51296 38.0317 9.22298 37.9407 8.95831 37.7971C8.8279 37.7271 8.70277 37.6477 8.58391 37.5595C8.46996 37.4679 8.3622 37.3688 8.26135 37.2629C7.86771 36.8497 7.59091 36.3393 7.45927 35.784C7.39121 35.5152 7.38628 35.2342 7.44487 34.9632C7.50967 34.7026 7.58887 34.4506 7.66087 34.2014C7.80487 33.7032 7.96615 33.2222 8.11591 32.7614C8.41687 31.8326 8.70775 30.9715 8.97991 30.1867C9.52135 28.6186 9.98791 27.3571 10.3321 26.496C10.5063 26.064 10.6517 25.7357 10.7641 25.5182C10.8188 25.4088 10.8677 25.3282 10.9081 25.2749C10.9484 25.2216 10.9671 25.2 10.9671 25.2C10.9671 25.2 10.9498 25.2288 10.9138 25.2792C10.8778 25.3296 10.8375 25.4146 10.7842 25.524C10.6791 25.7443 10.538 26.0755 10.3681 26.5075C10.0282 27.3715 9.57319 28.6344 9.03895 30.204C8.77255 30.9902 8.48455 31.8514 8.18647 32.7802C8.04247 33.2453 7.88551 33.7262 7.73575 34.2202C7.66231 34.4693 7.59175 34.7213 7.52263 34.979C7.46696 35.2398 7.47238 35.5099 7.53847 35.7682C7.67075 36.3096 7.94401 36.8065 8.33047 37.2082C8.42859 37.3115 8.53398 37.4078 8.64583 37.4962C8.76078 37.5828 8.88263 37.6598 9.01015 37.7266C9.26607 37.8662 9.54689 37.9542 9.83671 37.9858C9.98368 38.0009 10.1318 38.0009 10.2788 37.9858C10.3522 37.9786 10.4228 37.9757 10.5005 37.9642L10.7237 37.9224C11.0218 37.8677 11.3199 37.8029 11.6194 37.7338C12.2204 37.5955 12.8271 37.4453 13.4396 37.283C14.9429 36.8899 16.3959 36.481 17.7596 36.085L17.7351 36.131C17.2354 34.4232 16.7645 32.819 16.3426 31.3704L16.3858 31.3906L12.037 33.264L11.9823 33.2885L12.0053 33.2338L13.2221 30.4099C13.3661 30.083 13.4756 29.8339 13.5505 29.6568L13.6369 29.4638C13.657 29.4149 13.6685 29.3933 13.6685 29.3933Z" fill="#263238"/>
<path d="M12.0269 33.2366C11.9306 33.2856 11.831 33.328 11.7288 33.3634C11.4933 33.4651 11.2819 33.6152 11.1082 33.804C10.9402 33.9982 10.8155 34.226 10.7424 34.4722C10.7178 34.5771 10.687 34.6805 10.6503 34.7818C10.6457 34.6722 10.6598 34.5626 10.692 34.4578C10.7527 34.1971 10.8763 33.9554 11.052 33.7536C11.2331 33.5567 11.4588 33.406 11.7101 33.3144C11.8108 33.2715 11.9178 33.2452 12.0269 33.2366Z" fill="#263238"/>
<path d="M18.9403 30.2645C18.923 30.1897 18.9124 30.1136 18.9086 30.037C18.8942 29.893 18.8697 29.677 18.8351 29.4149C18.7689 28.8907 18.6508 28.1707 18.4953 27.3802C18.3398 26.5896 18.1828 25.8739 18.0734 25.3642C18.023 25.1136 17.9798 24.9077 17.9481 24.7493C17.9305 24.6744 17.9185 24.5984 17.9121 24.5218C17.9399 24.5937 17.9615 24.6679 17.9769 24.7435C18.0143 24.9005 18.0647 25.105 18.1209 25.3526C18.2433 25.8667 18.4089 26.5795 18.5644 27.3686C18.7199 28.1578 18.8308 28.885 18.8841 29.412C18.9115 29.6755 18.9273 29.8901 18.9331 30.0384C18.9425 30.1134 18.9449 30.1891 18.9403 30.2645Z" fill="#263238"/>
<path d="M19.7741 42.1042C19.7676 42.0729 19.7647 42.041 19.7655 42.0091C19.7655 41.9386 19.7655 41.8478 19.7525 41.7355C19.7439 41.4878 19.7323 41.1466 19.7179 40.7275C19.6877 39.8765 19.6387 38.7014 19.5667 37.4054C19.4947 36.1094 19.4083 34.9358 19.3392 34.0934C19.3061 33.6758 19.2773 33.3346 19.2571 33.0854C19.2485 32.9731 19.2413 32.8824 19.237 32.8118C19.2335 32.7798 19.2335 32.7474 19.237 32.7154C19.2462 32.7463 19.252 32.7782 19.2543 32.8104L19.2888 33.0826C19.3176 33.3187 19.3551 33.6586 19.3954 34.0906C19.4775 34.9387 19.5711 36.1066 19.6445 37.4098C19.7179 38.713 19.7568 39.8837 19.7727 40.7347C19.7813 41.1595 19.7856 41.5051 19.7856 41.7427C19.7856 41.855 19.7856 41.9472 19.7856 42.0178C19.7846 42.0469 19.7807 42.0758 19.7741 42.1042Z" fill="#263238"/>
<path d="M21.1534 42.6859C21.1206 42.6776 21.0884 42.667 21.057 42.6542L20.7819 42.552C20.5443 42.457 20.193 42.3274 19.7638 42.12L19.7955 42.1085C19.6545 42.4106 19.4536 42.681 19.2051 42.9034C18.9058 43.1686 18.5615 43.3783 18.1885 43.5226C17.9839 43.6021 17.7729 43.6637 17.5578 43.7069L17.2237 43.7818C17.1099 43.8034 16.9947 43.8206 16.8781 43.8408C16.3951 43.9196 15.9072 43.9639 15.4179 43.9733C14.574 43.9869 13.7315 43.9003 12.908 43.7155C12.2357 43.5651 11.5805 43.3465 10.9525 43.0632C10.6832 42.9451 10.4499 42.817 10.2454 42.7075C10.041 42.5981 9.87247 42.4829 9.73279 42.3965L9.42463 42.192L9.34544 42.133C9.32816 42.12 9.31952 42.1128 9.32096 42.1114L9.34976 42.1272L9.43328 42.179L9.74863 42.385C9.89263 42.467 10.0611 42.5722 10.2656 42.683C10.4701 42.7939 10.6976 42.9134 10.9741 43.0272C11.6007 43.3031 12.2534 43.5154 12.9224 43.6608C13.7413 43.8401 14.5782 43.9242 15.4165 43.9114C15.9023 43.9022 16.3868 43.8588 16.8666 43.7818C16.9832 43.7616 17.097 43.7458 17.2093 43.7242L17.5405 43.6507C17.7532 43.6099 17.9619 43.5501 18.164 43.4722C18.5329 43.3332 18.8741 43.1299 19.172 42.8717C19.4181 42.6574 19.618 42.3953 19.7595 42.1013L19.7696 42.0797L19.7926 42.0898C20.2146 42.2957 20.5645 42.4325 20.8006 42.5347L21.0714 42.6499C21.0999 42.6591 21.1274 42.6712 21.1534 42.6859Z" fill="#263238"/>
<path d="M16.4163 39.109C16.3779 39.1506 16.3355 39.1882 16.2896 39.2213C16.2046 39.2904 16.0779 39.3826 15.9151 39.4906C15.0606 40.0486 14.085 40.3942 13.0697 40.4986C12.9171 40.515 12.7638 40.5237 12.6103 40.5245C12.5539 40.5312 12.4969 40.5312 12.4404 40.5245C12.4404 40.5115 12.6809 40.5043 13.0639 40.4539C14.0642 40.3222 15.0256 39.9822 15.8863 39.456C16.2103 39.2443 16.4019 39.0989 16.4163 39.109Z" fill="#263238"/>
<path d="M16.1783 36.504C16.1436 36.4544 16.1151 36.4007 16.0933 36.3442C16.0429 36.2376 15.9752 36.0835 15.8932 35.8906C15.7319 35.5061 15.5245 34.9675 15.3287 34.3598C15.1328 33.7522 14.9831 33.1949 14.8967 32.7888C14.8492 32.5858 14.8132 32.4202 14.793 32.305C14.7774 32.2462 14.7687 32.1858 14.7671 32.125C14.7911 32.1805 14.8089 32.2384 14.8204 32.2978C14.8549 32.4259 14.8967 32.5858 14.9471 32.7758C15.0551 33.179 15.2106 33.732 15.4064 34.3368C15.6023 34.9416 15.801 35.4888 15.9508 35.8718L16.1279 36.3326C16.1497 36.3882 16.1666 36.4455 16.1783 36.504Z" fill="#263238"/>
<path d="M17.774 24.7982C17.7096 24.7476 17.6489 24.6922 17.5926 24.6326L17.1116 24.1546L17.1563 24.1402C17.1044 24.5722 17.0382 25.1251 16.9648 25.7486V25.8048L16.9172 25.776L16.2505 25.3728C15.4657 24.8962 14.7587 24.4613 14.2475 24.1445L13.6384 23.76L13.4756 23.6534C13.4563 23.6423 13.4384 23.6287 13.4224 23.6131C13.4224 23.6131 13.4454 23.6203 13.4843 23.6405L13.6528 23.7355L14.2676 24.0941C14.786 24.4008 15.4974 24.8285 16.2836 25.3037L16.9489 25.7083L16.8942 25.7357C16.9763 25.1136 17.0497 24.5592 17.1059 24.1301V24.0754L17.1433 24.1142L17.607 24.6082C17.6679 24.6667 17.7238 24.7303 17.774 24.7982Z" fill="#263238"/>
<path d="M13.9448 23.8925C13.9828 23.6974 14.0447 23.5078 14.1291 23.328C14.1908 23.1388 14.2765 22.9583 14.384 22.7909C14.3461 22.9859 14.2842 23.1755 14.1997 23.3554C14.1367 23.544 14.0511 23.7243 13.9448 23.8925Z" fill="white"/>
<path d="M15.1934 23.0098C15.2121 23.0227 15.0278 23.2819 14.8507 23.629C14.6736 23.976 14.5627 24.2741 14.5454 24.2669C14.5827 24.0298 14.6638 23.8018 14.7844 23.5944C14.8826 23.3754 15.0213 23.177 15.1934 23.0098Z" fill="white"/>
<path d="M15.951 23.4346C15.8895 23.6732 15.8046 23.9052 15.6976 24.1272C15.6133 24.3583 15.5057 24.5803 15.3765 24.7896C15.4371 24.5509 15.5215 24.3188 15.6285 24.097C15.7122 23.8653 15.8203 23.6433 15.951 23.4346Z" fill="white"/>
<path d="M16.7041 23.7773C16.6603 24.0432 16.5918 24.3045 16.4996 24.5578C16.432 24.819 16.3394 25.0731 16.2231 25.3166C16.267 25.0507 16.3354 24.7894 16.4276 24.5362C16.4975 24.2756 16.59 24.0217 16.7041 23.7773Z" fill="white"/>
<path d="M7.83922 36.504C7.83922 36.504 7.83922 36.4939 7.82338 36.4709C7.80965 36.4374 7.79764 36.4033 7.78738 36.3686C7.74507 36.236 7.71896 36.0986 7.70962 35.9597C7.69748 35.7393 7.71638 35.5182 7.76578 35.303C7.82194 35.051 7.90978 34.7746 7.99762 34.4635C8.35906 33.2266 8.90194 31.5302 9.60466 29.6914C9.95458 28.7726 10.3074 27.9043 10.6487 27.1224C10.939 26.4202 11.3269 25.7624 11.8007 25.1683C12.123 24.7736 12.5161 24.4425 12.9599 24.192C13.1221 24.0978 13.2952 24.0238 13.4754 23.9717L13.4423 23.989L13.3429 24.0307C13.2162 24.0854 13.0931 24.1479 12.9743 24.2179C12.538 24.4738 12.1516 24.8066 11.8338 25.2C11.372 25.7942 10.9945 26.4493 10.712 27.1469C10.3751 27.936 10.0237 28.8 9.67378 29.7187C8.97394 31.5547 8.42242 33.2467 8.04802 34.4794C7.9573 34.7875 7.86658 35.0654 7.8061 35.3131C7.75424 35.5241 7.73147 35.7411 7.73842 35.9582C7.75032 36.1435 7.78415 36.3267 7.83922 36.504Z" fill="white"/>
<path d="M15.4183 35.136C15.4043 35.1465 15.3888 35.1548 15.3722 35.1605L15.2282 35.2253C15.1073 35.2829 14.9273 35.3693 14.694 35.4629C14.226 35.6616 13.542 35.9338 12.678 36.2102C12.246 36.3542 11.7665 36.4882 11.2495 36.6192C10.9903 36.684 10.721 36.7488 10.4431 36.8078C10.3008 36.8424 10.1565 36.8684 10.0111 36.8856C9.85863 36.9077 9.70307 36.8929 9.55751 36.8424C9.4051 36.7844 9.28186 36.6685 9.21479 36.5198C9.15289 36.371 9.12675 36.2097 9.13847 36.049C9.1704 35.7271 9.23604 35.4096 9.33431 35.1014C9.50135 34.4707 9.68567 33.8198 9.88727 33.1574C10.2905 31.8312 10.721 30.5813 11.1746 29.4696C11.5709 28.4819 12.0218 27.5171 12.5254 26.5795C12.8667 25.9487 13.2412 25.3363 13.6471 24.745C13.7911 24.539 13.915 24.3821 13.9942 24.2741L14.0863 24.1531C14.1065 24.1258 14.118 24.1128 14.1194 24.1142C14.1117 24.1295 14.1025 24.1439 14.0921 24.1574L14.0057 24.2827C13.9279 24.3965 13.8156 24.5563 13.6716 24.7622C13.3966 25.1942 12.9934 25.8019 12.5714 26.6054C12.0756 27.5443 11.6305 28.509 11.238 29.4955C10.8002 30.6043 10.3682 31.8528 9.96791 33.1776C9.76919 33.8386 9.58343 34.4894 9.41639 35.1202C9.31672 35.4222 9.24962 35.7341 9.21623 36.0504C9.20449 36.2002 9.22817 36.3506 9.28535 36.4896C9.34398 36.6219 9.45276 36.7255 9.58775 36.7776C9.7238 36.8238 9.86866 36.8381 10.0111 36.8194C10.1526 36.802 10.293 36.7765 10.4316 36.743C10.7095 36.6854 10.9788 36.6221 11.2366 36.5587C11.7593 36.432 12.2402 36.288 12.6722 36.1584C13.5362 35.8891 14.2231 35.6242 14.6882 35.4384L15.2282 35.2152L15.3722 35.1562C15.3868 35.1477 15.4022 35.141 15.4183 35.136Z" fill="white"/>
<path d="M11.0879 33.5736C11.0907 33.5405 11.0964 33.5077 11.1052 33.4757C11.1225 33.4037 11.1455 33.3115 11.1729 33.1963C11.2002 33.0811 11.2434 32.9285 11.2924 32.7643C11.3413 32.6002 11.3989 32.4 11.4695 32.1883C11.838 31.0848 12.2653 30.0018 12.7497 28.944C13.3113 27.7056 13.8743 26.6098 14.3063 25.8307C14.5209 25.439 14.7037 25.128 14.8319 24.9149L14.9759 24.6701C14.9917 24.6405 15.011 24.6129 15.0335 24.588C15.0212 24.6194 15.0062 24.6498 14.9888 24.6787L14.8448 24.9293C14.7253 25.1467 14.5569 25.4621 14.3423 25.8552C13.9333 26.64 13.3789 27.7387 12.8159 28.9757C12.2529 30.2126 11.8079 31.3574 11.5199 32.1998C11.4465 32.4101 11.3759 32.6016 11.3327 32.7758C11.2895 32.9501 11.2319 33.0898 11.2002 33.2078L11.121 33.4829C11.1129 33.5141 11.1018 33.5445 11.0879 33.5736Z" fill="white"/>
<path d="M14.8839 33.0538C14.8388 33.0838 14.7905 33.1089 14.7399 33.1286C14.642 33.1718 14.5009 33.2323 14.3238 33.3029C13.971 33.4469 13.4785 33.6298 12.9255 33.8098C12.3726 33.9898 11.8671 34.1309 11.4985 34.2245C11.3127 34.2706 11.163 34.3051 11.0665 34.3267C11.0131 34.3423 10.958 34.3515 10.9023 34.3541C10.9522 34.3295 11.005 34.3111 11.0593 34.2994L11.4913 34.1726C11.8556 34.0675 12.3553 33.9178 12.9097 33.7406C13.4641 33.5635 13.9551 33.3864 14.3123 33.2568L14.7356 33.1042C14.7827 33.0811 14.8325 33.0641 14.8839 33.0538Z" fill="white"/>
<path d="M13.2206 32.6261C13.168 32.3377 13.141 32.0452 13.14 31.752C13.1141 31.4598 13.1141 31.1658 13.14 30.8736C13.191 31.1622 13.218 31.4546 13.2206 31.7477C13.2447 32.04 13.2447 32.3338 13.2206 32.6261Z" fill="white"/>
<path d="M14.423 32.1336C14.4028 32.1336 14.3337 31.153 14.2704 29.9405C14.207 28.728 14.171 27.743 14.1912 27.743C14.2113 27.743 14.2804 28.7237 14.3452 29.9362C14.41 31.1486 14.4446 32.1322 14.423 32.1336Z" fill="white"/>
<path d="M15.8041 31.0608C15.7864 30.9802 15.7749 30.8984 15.7695 30.816C15.7508 30.6576 15.7292 30.4286 15.7062 30.145C15.6572 29.579 15.6054 28.7942 15.5535 27.9274C15.5017 27.0605 15.457 26.2886 15.4225 25.7098C15.4066 25.4347 15.3922 25.2086 15.3822 25.0373C15.3752 24.9549 15.3752 24.872 15.3822 24.7896C15.3995 24.8703 15.4111 24.9521 15.4167 25.0344C15.4354 25.1928 15.457 25.4218 15.4815 25.7054C15.529 26.2728 15.5823 27.0576 15.6342 27.923C15.686 28.7885 15.7306 29.5618 15.7638 30.1421C15.781 30.4157 15.794 30.6418 15.8041 30.8131C15.8111 30.8955 15.8111 30.9784 15.8041 31.0608Z" fill="white"/>
<path d="M18.3729 42.1042C18.3711 42.0903 18.3711 42.0763 18.3729 42.0624V41.9371C18.3729 41.8234 18.3614 41.6635 18.3527 41.4605C18.3355 41.04 18.311 40.441 18.2822 39.7022C18.2188 38.219 18.1123 36.1699 17.9495 33.9106C17.7868 31.6512 17.5881 29.6078 17.4239 28.1318C17.3419 27.3946 17.2713 26.797 17.2195 26.3851C17.195 26.1835 17.1763 26.0251 17.1619 25.9099C17.1619 25.8595 17.1532 25.8192 17.1489 25.7861C17.1476 25.7722 17.1476 25.7582 17.1489 25.7443C17.1537 25.7579 17.157 25.7719 17.159 25.7861C17.159 25.8178 17.1705 25.8581 17.1791 25.9085C17.195 26.0222 17.2195 26.1806 17.2497 26.3808C17.3102 26.7926 17.3937 27.3888 17.4772 28.1261C17.6558 29.6006 17.8617 31.644 18.0244 33.9048C18.1871 36.1656 18.2865 38.2162 18.3355 39.7008C18.3628 40.4424 18.3758 41.0443 18.383 41.459C18.383 41.6621 18.383 41.8234 18.383 41.9371V42.0624C18.3819 42.0768 18.3785 42.0909 18.3729 42.1042Z" fill="white"/>
<path d="M15.8558 39.4157C15.8253 38.9603 15.82 38.5036 15.8399 38.0477C15.8347 37.5914 15.8549 37.1352 15.9004 36.6811C15.93 37.1365 15.9348 37.5932 15.9148 38.0491C15.92 38.5054 15.9003 38.9616 15.8558 39.4157Z" fill="white"/>
<path d="M15.2943 42.7349C15.2897 42.5905 15.2969 42.446 15.3159 42.3029C15.3375 42.0394 15.3649 41.675 15.3865 41.2733C15.4081 40.8715 15.4211 40.5043 15.4297 40.2408C15.4254 40.0964 15.4336 39.9518 15.4542 39.8088C15.4777 39.9515 15.4869 40.0962 15.4815 40.2408C15.4815 40.5058 15.4815 40.873 15.4614 41.2776C15.4412 41.6822 15.4038 42.0466 15.3692 42.3086C15.3583 42.4528 15.3332 42.5956 15.2943 42.7349Z" fill="white"/>
<path d="M13.1747 40.3373C13.1664 40.1932 13.1702 40.0487 13.1862 39.9053C13.2035 39.6403 13.2323 39.2746 13.2683 38.8714C13.3043 38.4682 13.3417 38.1038 13.3719 37.8403C13.3807 37.6971 13.4024 37.5549 13.4367 37.4155C13.445 37.5596 13.4412 37.7041 13.4252 37.8475C13.4079 38.1125 13.3791 38.4782 13.3431 38.8814C13.3071 39.2846 13.2697 39.649 13.2395 39.9125C13.2305 40.0557 13.2088 40.1979 13.1747 40.3373Z" fill="white"/>
<path d="M12.5282 42.4267C12.5148 42.1334 12.5269 41.8395 12.5642 41.5483C12.5774 41.2548 12.615 40.9629 12.6766 40.6757C12.689 40.969 12.6764 41.2629 12.6391 41.5541C12.6269 41.8476 12.5899 42.1395 12.5282 42.4267Z" fill="white"/>
<path d="M10.7108 41.5325C10.7038 41.4847 10.7038 41.4362 10.7108 41.3885C10.7108 41.2963 10.7267 41.1638 10.7425 41.0011C10.7742 40.6742 10.8275 40.2235 10.8966 39.7282C10.9657 39.2328 11.0406 38.7835 11.0982 38.461C11.1284 38.2997 11.1543 38.173 11.1731 38.0794C11.1791 38.0298 11.1922 37.9813 11.2119 37.9354C11.2146 37.9836 11.2112 38.032 11.2019 38.0794C11.1875 38.1859 11.1702 38.3141 11.1515 38.4638C11.1025 38.808 11.0391 39.2472 10.97 39.7325C10.9009 40.2178 10.8433 40.657 10.7958 41.0011L10.7396 41.3856C10.7366 41.4356 10.7269 41.485 10.7108 41.5325Z" fill="white"/>
<path d="M20.5517 41.2906C20.5517 41.2906 20.5517 41.279 20.5445 41.2531C20.5373 41.2272 20.5358 41.1869 20.5286 41.1422L20.4811 40.7102L20.3126 39.1262C20.1686 37.7899 19.9685 35.9582 19.7496 33.9221C19.5307 31.8859 19.3032 30.0557 19.1491 28.7194C19.0728 28.0584 19.0051 27.5213 18.9648 27.1426C18.9446 26.9611 18.9288 26.8186 18.9187 26.7106C18.9187 26.6645 18.9101 26.627 18.9072 26.5982C18.9053 26.5854 18.9053 26.5722 18.9072 26.5594L18.9158 26.5968C18.9158 26.627 18.9259 26.663 18.9331 26.7077C18.9475 26.8114 18.9677 26.9554 18.9936 27.1397C19.044 27.517 19.1146 28.0526 19.2024 28.7136C19.3723 30.0427 19.597 31.8816 19.823 33.9134C20.0491 35.9453 20.2378 37.787 20.3659 39.1219L20.5099 40.7059C20.5243 40.8888 20.5358 41.0328 20.5445 41.1379C20.5445 41.184 20.5445 41.22 20.5517 41.2502C20.5539 41.2636 20.5539 41.2772 20.5517 41.2906Z" fill="white"/>
<g opacity="0.3">
<path d="M18.1758 35.8733C18.0159 35.0251 17.8014 34.0877 17.09 33.5995L17.5695 35.6155C17.6205 35.7639 17.6205 35.9251 17.5695 36.0734C17.486 36.2563 17.27 36.3326 17.077 36.3888C14.805 37.0662 12.4975 37.6186 10.165 38.0434C11.461 38.6741 13.045 38.448 14.4361 38.0606C15.4806 37.7726 16.513 37.4458 17.5335 37.08C17.7495 37.0022 17.9799 36.913 18.1095 36.7243C18.2766 36.4824 18.229 36.1598 18.1758 35.8733Z" fill="black"/>
</g>
<g opacity="0.3">
<path d="M13.7375 29.4437C13.0621 30.6317 12.4791 31.8699 11.9937 33.1474H12.1017C12.8217 32.9803 13.3977 32.3568 13.6425 31.6541C13.8873 30.9514 13.8657 30.1795 13.7375 29.4437Z" fill="black"/>
</g>
<path d="M21.0584 41.6232C20.9448 41.5127 20.8059 41.4316 20.6538 41.387C20.4759 41.3366 20.2894 41.3248 20.1066 41.3525C19.8646 41.3953 19.6312 41.477 19.4154 41.5944C18.8569 41.9205 18.2681 42.1916 17.6571 42.4037C16.903 42.6513 16.1164 42.7862 15.3229 42.804C14.5291 42.8244 13.7363 42.7347 12.9671 42.5376C12.3413 42.372 11.7357 42.1378 11.1613 41.8392C10.7772 41.6332 10.4111 41.3953 10.0669 41.1278L9.79187 40.896C9.75923 40.8709 9.72843 40.8434 9.69971 40.8139C9.73534 40.8351 9.7695 40.8587 9.80195 40.8845L10.0899 41.1005C10.4397 41.3564 10.8079 41.5859 11.1915 41.7874C11.7649 42.0775 12.3679 42.3049 12.9901 42.4656C13.7532 42.658 14.5391 42.7452 15.3258 42.7248C16.1109 42.707 16.8893 42.5761 17.637 42.336C18.2455 42.129 18.8328 41.8643 19.3909 41.5454C19.613 41.4282 19.8528 41.3484 20.1008 41.3093C20.2894 41.2842 20.4811 41.3009 20.6624 41.3582C20.777 41.3936 20.8829 41.4525 20.9735 41.531C21.006 41.5576 21.0346 41.5886 21.0584 41.6232Z" fill="#263238"/>
<g opacity="0.3">
<path d="M17.1359 24.1603L16.9243 25.7443L13.4683 23.6304C14.4649 24.9187 15.7464 25.9587 17.2123 26.6688L17.4153 24.8645L17.9639 25.3483C17.7936 24.8883 17.5086 24.4793 17.1359 24.1603Z" fill="black"/>
</g>
<path d="M21.2832 29.1427L20.0405 29.9923V31.0176C20.3746 30.7944 20.5632 30.5294 20.9045 30.3062C21.024 30.2256 21.1407 29.9808 21.2256 29.8642C21.397 29.6122 21.3437 29.376 21.2832 29.1427Z" fill="#815A46"/>
<path d="M22.176 32.8565C21.909 32.8543 21.6453 32.797 21.4015 32.6882C21.1577 32.5795 20.939 32.4215 20.759 32.2243C20.5824 32.0239 20.4578 31.7831 20.3963 31.5232C20.3348 31.2633 20.3382 30.9922 20.4062 30.7339C20.4804 30.4773 20.6263 30.2472 20.8268 30.0706C21.0273 29.8941 21.2741 29.7785 21.5381 29.7374L21.7037 30.2688C21.7037 30.2688 20.88 30.672 21.0369 31.392C21.1939 32.112 22.2177 32.1883 22.2177 32.1883L22.176 32.8565Z" fill="#0D8E49"/>
<path d="M21.5122 29.5718L21.8967 33.3677H25.056L25.4852 29.5747L21.5122 29.5718Z" fill="#0D8E49"/>
<path d="M21.4288 31.5864C21.243 31.5706 21.0544 31.5374 21.0429 31.4726L21.0213 31.343C21.0213 31.343 21.6894 31.2581 21.7326 31.1069C21.7452 31.0072 21.7388 30.9061 21.7139 30.8088C21.7014 30.7411 21.6754 30.6767 21.6374 30.6193C21.5995 30.5619 21.5503 30.5128 21.4929 30.4749C21.4355 30.437 21.371 30.411 21.3033 30.3986C21.2356 30.3862 21.1662 30.3876 21.099 30.4027H21.0904C20.948 30.4368 20.8037 30.4627 20.6584 30.4805L20.1198 30.3293L20.055 29.9851L18.6553 30.911L16.6782 32.256L17.1952 33.9624L18.2637 33.3648C18.2637 33.3648 20.5907 33.493 20.7419 33.408C20.8931 33.323 20.9781 32.9342 20.9781 32.9342C20.9781 32.9342 21.6894 32.6102 21.603 32.3582C21.6509 32.3028 21.6943 32.2436 21.7326 32.1811C21.7676 32.1239 21.7872 32.0588 21.7898 31.9918C21.7923 31.9249 21.7777 31.8584 21.7472 31.7987C21.7167 31.739 21.6714 31.6882 21.6157 31.651C21.5599 31.6138 21.4956 31.5916 21.4288 31.5864Z" fill="#815A46"/>
<path d="M24.156 31.6195C24.1395 31.4993 24.1356 31.3777 24.1445 31.2566C24.1445 31.0334 24.1604 30.7238 24.1632 30.384C24.1693 30.2257 24.1616 30.0672 24.1402 29.9102C24.1255 29.7865 24.0623 29.6736 23.9645 29.5963C23.898 29.5451 23.815 29.52 23.7312 29.5258C23.6722 29.5258 23.642 29.5502 23.6376 29.5445C23.6333 29.5387 23.6607 29.5142 23.7255 29.497C23.7718 29.4879 23.8196 29.4882 23.8658 29.4978C23.912 29.5075 23.9559 29.5263 23.9948 29.5531C24.0516 29.5932 24.0998 29.6443 24.1364 29.7035C24.173 29.7626 24.1973 29.8285 24.2079 29.8973C24.2344 30.0581 24.2445 30.2212 24.2381 30.384C24.2381 30.7267 24.2136 31.0363 24.1978 31.2595C24.1965 31.3807 24.1825 31.5013 24.156 31.6195Z" fill="#263238"/>
<path d="M24.5708 31.4928L23.8422 31.4885L23.6377 31.8989V32.7787H24.6918L24.7292 31.8989L24.5708 31.4928Z" fill="#E0E0E0"/>
<path d="M23.1409 25.0445C23.1564 25.0468 23.1712 25.0528 23.1841 25.0618C23.2234 25.0843 23.2577 25.1147 23.2849 25.151C23.3313 25.2208 23.3615 25.3001 23.3735 25.383C23.3855 25.4659 23.3788 25.5505 23.354 25.6306C23.3065 25.8365 23.1553 26.0395 23.079 26.2886C23.0363 26.4158 23.0394 26.5538 23.0876 26.6789C23.1563 26.8092 23.242 26.9297 23.3425 27.0374C23.4542 27.1551 23.5218 27.3077 23.534 27.4694C23.5278 27.6184 23.4777 27.7622 23.39 27.8827C23.2345 28.1117 23.053 28.2744 22.9738 28.4587C22.9404 28.5286 22.923 28.6051 22.923 28.6826C22.923 28.7601 22.9404 28.8367 22.9738 28.9066C23.0027 28.9561 23.0397 29.0004 23.0833 29.0376C23.0833 29.0376 23.0674 29.0376 23.0401 29.0189C23.0031 28.9927 22.9718 28.9594 22.9479 28.921C22.9074 28.8475 22.8847 28.7656 22.8817 28.6818C22.8787 28.598 22.8955 28.5147 22.9306 28.4386C23.0084 28.2384 23.1927 28.0656 23.3367 27.8482C23.4134 27.7375 23.4565 27.6069 23.4606 27.4723C23.4468 27.3289 23.3848 27.1944 23.2849 27.0907C23.1784 26.9782 23.0891 26.8506 23.0199 26.712C22.9662 26.5734 22.9637 26.4203 23.0127 26.28C23.1006 26.0136 23.2518 25.8192 23.3007 25.6262C23.3264 25.553 23.3359 25.475 23.3287 25.3978C23.3215 25.3205 23.2977 25.2457 23.259 25.1784C23.2268 25.1279 23.187 25.0827 23.1409 25.0445Z" fill="#263238"/>
<path d="M24.084 25.0445C24.0996 25.0468 24.1144 25.0528 24.1272 25.0618C24.1666 25.0843 24.2009 25.1147 24.228 25.151C24.2737 25.2212 24.3035 25.3004 24.3155 25.3832C24.3274 25.466 24.3212 25.5504 24.2972 25.6306C24.2482 25.8365 24.0984 26.0395 24.0221 26.2886C23.979 26.4156 23.9816 26.5536 24.0293 26.6789C24.0986 26.8092 24.1848 26.9297 24.2856 27.0374C24.3973 27.1551 24.465 27.3077 24.4772 27.4694C24.471 27.6184 24.4209 27.7622 24.3332 27.8827C24.1776 28.1117 23.9948 28.2744 23.917 28.4587C23.8839 28.5287 23.8668 28.6052 23.8668 28.6826C23.8668 28.7601 23.8839 28.8365 23.917 28.9066C23.9461 28.9563 23.9836 29.0007 24.0279 29.0376C24.0279 29.0376 24.0106 29.0376 23.9847 29.0189C23.9474 28.9931 23.916 28.9597 23.8925 28.921C23.8521 28.8476 23.8293 28.7657 23.8261 28.682C23.8228 28.5982 23.8392 28.5149 23.8738 28.4386C23.9516 28.2384 24.1373 28.0656 24.2799 27.8482C24.3565 27.7373 24.3999 27.6069 24.4052 27.4723C24.3909 27.3288 24.3284 27.1943 24.228 27.0907C24.1225 26.9775 24.0333 26.85 23.9631 26.712C23.9124 26.5725 23.9124 26.4195 23.9631 26.28C24.0495 26.0136 24.2021 25.8192 24.2511 25.6262C24.276 25.5528 24.2851 25.475 24.2779 25.3979C24.2707 25.3207 24.2474 25.2459 24.2093 25.1784C24.175 25.1274 24.1327 25.0821 24.084 25.0445Z" fill="#263238"/>
<path d="M24.0724 32.4605C24.151 32.4683 24.23 32.4484 24.2956 32.4043C24.3602 32.3521 24.4016 32.2766 24.4108 32.1941C24.4205 32.091 24.3984 31.9875 24.3474 31.8974L24.3244 31.8571L24.3748 31.8701C24.2845 31.9166 24.2003 31.9742 24.1242 32.0414C24.0651 32.0942 24.023 32.1634 24.0033 32.2402C23.9908 32.3131 23.9998 32.3882 24.0292 32.4562C24.0292 32.4562 24.0047 32.4461 23.9831 32.4086C23.9544 32.3543 23.9438 32.2923 23.9529 32.2315C23.9672 32.1409 24.0101 32.0571 24.0753 31.9925C24.1536 31.9177 24.2424 31.8547 24.3388 31.8053L24.3705 31.7866L24.3892 31.8182L24.4137 31.8629C24.4723 31.9669 24.495 32.0873 24.4785 32.2056C24.4713 32.2545 24.4539 32.3014 24.4273 32.3431C24.4008 32.3848 24.3657 32.4204 24.3244 32.4475C24.2689 32.4832 24.2026 32.498 24.1372 32.4893C24.0911 32.4806 24.0709 32.4648 24.0724 32.4605Z" fill="#263238"/>
<path d="M24.3128 32.112C24.3272 32.1278 24.2336 32.233 24.1443 32.3798C24.0551 32.5267 24.0003 32.6563 23.9787 32.6506C23.9753 32.5383 24.011 32.4284 24.0795 32.3395C24.176 32.1797 24.2999 32.0918 24.3128 32.112Z" fill="#263238"/>
<path d="M19.6261 28.5221C19.6291 28.2864 19.6127 28.0509 19.5771 27.8179C19.5094 27.3859 19.2891 26.8229 19.0011 26.2181C18.7131 25.6133 18.4683 25.0661 18.2912 24.6571C18.2077 24.467 18.1385 24.3072 18.0838 24.1805C18.0549 24.1237 18.0326 24.0638 18.0176 24.0019C18.054 24.0543 18.0849 24.1102 18.1097 24.169C18.1702 24.2914 18.2537 24.4483 18.3387 24.6355C18.5288 25.0301 18.788 25.5787 19.0688 26.1864C19.3496 26.7941 19.5713 27.3686 19.6261 27.8107C19.6524 27.9831 19.6606 28.1579 19.6505 28.332C19.6501 28.3961 19.6419 28.4599 19.6261 28.5221Z" fill="#263238"/>
<path d="M63.6104 62.231C63.6519 62.4871 63.7325 62.7353 63.8494 62.9669C64.015 63.2419 64.051 63.8122 64.0338 64.1808C64.0165 64.5494 63.9963 65.5589 64.1432 65.8541C64.2901 66.1493 64.7379 66.7181 64.8632 67.1587C64.9885 67.5994 65.0288 68.207 64.8632 68.5987C64.6976 68.9904 64.5493 69.5549 64.2872 69.647C64.0251 69.7392 63.2389 69.647 63.2389 69.647C63.2389 69.647 63.2389 69.372 63.3498 69.2798C63.4606 69.1877 63.8466 69.0034 63.8826 68.7038C63.9186 68.4043 63.9747 67.9133 63.9747 67.9133C63.9747 67.9133 63.0373 67.5274 62.5592 67.0666C62.0811 66.6058 61.4749 65.9563 61.4749 65.9563C61.3746 66.3302 61.2451 66.6957 61.0875 67.0493C61.0264 67.1687 60.9945 67.301 60.9945 67.4352C60.9945 67.5694 61.0264 67.7017 61.0875 67.8211C61.1437 67.9493 60.4438 68.7168 59.672 69.2928C58.9002 69.8688 58.2565 69.5131 58.2565 69.5131C58.2565 69.5131 58.1456 69.035 58.3486 68.9371C58.5453 68.8799 58.7512 68.8613 58.9549 68.8824C58.9549 68.8824 59.911 68.1826 59.8002 67.6685C59.6893 67.1544 59.3595 66.5654 59.3221 66.1781C59.2846 65.7907 59.2674 65.6093 59.2674 65.6093C58.6747 65.6892 58.0769 65.7258 57.4789 65.7187C57.1001 65.7058 56.7246 65.6443 56.3614 65.5358C56.3614 65.5358 56.049 67.4482 56.252 67.7232C56.455 67.9982 57.0973 68.5138 57.1534 68.8637C57.2096 69.2136 57.116 69.7176 56.7114 69.6773C56.3067 69.637 56.3254 69.3893 56.3442 69.0653C56.0919 68.8192 55.858 68.555 55.6443 68.2747C55.5162 68.0544 54.8178 66.1234 54.8178 66.1234C54.8178 66.1234 53.732 68.22 53.696 68.5872C53.6821 68.7182 53.6384 68.8444 53.5683 68.9559C53.4982 69.0675 53.4034 69.1616 53.2914 69.2309C53.2179 69.2496 53.0523 69.863 52.7946 69.863C52.4983 69.8417 52.2035 69.8028 51.9118 69.7464C51.9118 69.7464 51.9306 69.3418 52.1998 69.2136C52.4691 69.0854 52.8622 69.0293 52.8622 68.4936C52.8622 67.9579 53.1747 65.8627 53.1502 65.7893C53.1258 65.7158 52.5627 64.6675 52.4706 64.3003C52.3784 63.9331 52.1826 63.0864 52.1826 63.0864C52.1826 63.0864 51.8139 61.9344 51.5202 61.6334C51.2264 61.3325 50.8002 61.3454 50.4906 61.3022C50.181 61.259 50.1622 61.1366 50.0672 60.935C49.9722 60.7334 49.7576 60.2914 49.8656 60.2366C49.9736 60.1819 50.5453 59.9414 50.6187 59.832C50.6922 59.7226 50.7483 59.4821 50.9874 59.3899C51.2264 59.2978 51.8139 58.9118 52.1091 58.9118C52.4043 58.9118 52.9731 59.4274 53.1013 59.5368C53.3513 59.7719 53.5846 60.024 53.7997 60.2914C54.0027 60.5491 54.1496 61.2475 54.9042 61.2662C55.6587 61.285 62.1488 61.4318 62.4613 61.2475C62.7738 61.0632 63.1813 61.2662 63.308 59.7758C63.4347 58.2854 63.5096 57.312 63.344 57.073C63.1784 56.8339 63.344 56.785 63.0315 56.7245C62.719 56.664 62.3331 56.5949 62.2222 56.3746C62.1114 56.1542 62.1862 55.8274 62.48 55.8274C62.7738 55.8274 64.1346 55.8274 64.352 57.6245C64.5694 59.4216 63.9848 60.5491 63.8566 61.2475C63.7285 61.9459 63.5456 61.943 63.6104 62.231Z" fill="#263238"/>
<path d="M58.7373 65.5042C58.8825 65.5077 59.0275 65.4937 59.1693 65.4624C59.3225 65.4224 59.4734 65.3744 59.6215 65.3184C59.8061 65.2459 60 65.1998 60.1975 65.1816C60.4002 65.1741 60.6016 65.2171 60.7835 65.3069C60.9308 65.3775 61.0667 65.4697 61.1867 65.5805C61.2682 65.6528 61.3425 65.7329 61.4085 65.8195C61.456 65.88 61.4776 65.9174 61.4733 65.9203C61.469 65.9232 61.3595 65.7922 61.1522 65.6194C61.0311 65.519 60.8975 65.4348 60.7547 65.3688C60.5821 65.2877 60.3924 65.2491 60.2018 65.2565C60.0097 65.2742 59.8209 65.3173 59.6402 65.3846C59.4911 65.4395 59.3386 65.4847 59.1837 65.52C59.0763 65.5428 58.9661 65.5491 58.8568 65.5387C58.8152 65.5345 58.7747 65.5228 58.7373 65.5042Z" fill="#455A64"/>
<path d="M52.9069 59.7355C52.8156 59.2544 52.6571 58.7886 52.436 58.3517C52.4101 58.3013 52.377 58.2466 52.3208 58.2379C52.2373 58.2278 52.1883 58.3272 52.1682 58.4093C52.1138 58.6235 52.0801 58.8424 52.0674 59.063" fill="#263238"/>
<path d="M51.7406 59.0774C51.6897 58.8845 51.5877 58.7089 51.4454 58.5691C51.4065 58.5317 51.3532 58.4928 51.3014 58.5144C51.2496 58.536 51.2409 58.595 51.2352 58.6469C51.2139 58.8866 51.2178 59.1279 51.2467 59.3669" fill="#263238"/>
<path d="M49.9677 60.66C50.0667 60.6125 50.1439 60.5291 50.1837 60.4267C50.2061 60.3225 50.1875 60.2137 50.1318 60.1229C50.1318 60.1229 49.8741 60.2006 49.8553 60.2755C49.8366 60.3504 49.9677 60.66 49.9677 60.66Z" fill="#455A64"/>
<path d="M52.1668 59.0141C52.1581 58.9394 52.1629 58.8638 52.1812 58.7909C52.1942 58.7102 52.2072 58.631 52.2187 58.5504C52.2216 58.5239 52.2289 58.4981 52.2403 58.4741C52.2446 58.4645 52.2507 58.4559 52.2584 58.4487C52.2661 58.4416 52.2751 58.436 52.2849 58.4323C52.2969 58.4283 52.3097 58.4275 52.3221 58.4301C52.3345 58.4326 52.346 58.4383 52.3555 58.4467C52.3759 58.4704 52.3907 58.4985 52.3987 58.5288L52.4246 58.6037C52.481 58.7762 52.5149 58.9553 52.5254 59.1365C52.5333 59.1933 52.5269 59.2512 52.5067 59.305C52.488 59.3438 52.4649 59.3554 52.462 59.351C52.4592 59.3467 52.4707 59.3309 52.4793 59.2963C52.4857 59.2449 52.4833 59.1928 52.4721 59.1422C52.447 58.9673 52.407 58.7948 52.3526 58.6267L52.3281 58.5533C52.3229 58.535 52.3151 58.5176 52.3051 58.5014C52.2955 58.5214 52.2892 58.5428 52.2864 58.5648L52.2345 58.7995C52.2233 58.8741 52.2005 58.9466 52.1668 59.0141Z" fill="#455A64"/>
<path d="M50.9399 59.4158C51.0642 59.3183 51.2026 59.2401 51.3503 59.184C51.4882 59.1037 51.6379 59.0459 51.7939 59.0126C51.67 59.1128 51.5316 59.1934 51.3835 59.2517C51.2452 59.3295 51.0955 59.3849 50.9399 59.4158Z" fill="#455A64"/>
<path d="M53.0998 64.2082C53.1421 64.3463 53.1981 64.48 53.2669 64.607C53.4556 64.9001 53.7003 65.1531 53.9869 65.3515C54.1539 65.4624 54.3425 65.5387 54.4851 65.6568C54.6134 65.7581 54.7185 65.8858 54.7933 66.0312C54.8429 66.1279 54.8829 66.2291 54.9128 66.3336C54.9266 66.3706 54.9348 66.4094 54.9373 66.4488C54.9229 66.4488 54.8782 66.2904 54.7472 66.0571C54.6698 65.9229 54.5665 65.8055 54.4433 65.7115C54.3065 65.6035 54.1237 65.5301 53.9451 65.4149C53.6511 65.2097 53.4054 64.9429 53.2251 64.633C53.1734 64.5372 53.136 64.4343 53.1142 64.3277C53.1011 64.2893 53.0961 64.2486 53.0998 64.2082Z" fill="#455A64"/>
<path d="M52.7828 63.8309C52.8059 63.8309 52.8073 64.0469 52.8923 64.2931C52.9772 64.5394 53.1039 64.7122 53.0867 64.7251C52.9559 64.6216 52.8628 64.4779 52.8217 64.3162C52.757 64.1628 52.7434 63.9926 52.7828 63.8309Z" fill="#455A64"/>
<path d="M51.5517 59.8622C51.552 59.8876 51.5447 59.9126 51.5308 59.9338C51.5169 59.9551 51.497 59.9717 51.4736 59.9817C51.4502 59.9916 51.4244 59.9943 51.3995 59.9895C51.3745 59.9848 51.3515 59.9727 51.3335 59.9548C51.3154 59.937 51.303 59.9141 51.298 59.8892C51.2929 59.8643 51.2954 59.8385 51.305 59.815C51.3147 59.7915 51.3311 59.7714 51.3522 59.7572C51.3733 59.7431 51.3982 59.7355 51.4236 59.7355C51.4573 59.7355 51.4897 59.7488 51.5137 59.7725C51.5377 59.7963 51.5513 59.8285 51.5517 59.8622Z" fill="#455A64"/>
<path d="M51.7102 59.904C51.6943 59.9213 51.5849 59.7989 51.4063 59.8061C51.3354 59.8148 51.2708 59.851 51.2263 59.9069C51.1831 59.9486 51.1558 59.9774 51.1471 59.9717C51.1385 59.9659 51.1471 59.9285 51.1846 59.8738C51.2054 59.8403 51.2317 59.8106 51.2623 59.7859C51.3021 59.7508 51.3533 59.7314 51.4063 59.7312C51.4957 59.7276 51.5832 59.7579 51.6511 59.8162C51.6958 59.8536 51.7174 59.8896 51.7102 59.904Z" fill="#455A64"/>
</svg>
