<svg width="82" height="82" viewBox="0 0 82 82" fill="none" xmlns="http://www.w3.org/2000/svg">
<path d="M77.6341 67.8845C77.6341 67.9091 60.8093 67.9272 40.0601 67.9272C19.3108 67.9272 2.48438 67.9091 2.48438 67.8845C2.48438 67.8599 19.3042 67.8419 40.0601 67.8419C60.8159 67.8419 77.6341 67.8616 77.6341 67.8845Z" fill="#263238"/>
<path d="M17.0706 16.9937C18.6475 16.9937 19.9258 15.7153 19.9258 14.1384C19.9258 12.5615 18.6475 11.2832 17.0706 11.2832C15.4937 11.2832 14.2153 12.5615 14.2153 14.1384C14.2153 15.7153 15.4937 16.9937 17.0706 16.9937Z" fill="#D13939"/>
<path d="M16.6641 20.5246C16.6345 20.1323 16.6247 19.7387 16.6346 19.3454C16.6247 18.9527 16.6346 18.5597 16.6641 18.1679C16.6947 18.5596 16.7051 18.9527 16.6952 19.3454C16.7051 19.7388 16.6947 20.1323 16.6641 20.5246Z" fill="#D13939"/>
<path d="M15.019 17.5037C15.0338 17.5037 14.7648 17.9957 14.4188 18.6025C14.0727 19.2093 13.7759 19.68 13.7759 19.68C13.7759 19.68 14.0301 19.188 14.3745 18.5812C14.7189 17.9744 15.0042 17.4955 15.019 17.5037Z" fill="#D13939"/>
<path d="M13.33 16.4525C13.1205 16.6569 12.8975 16.847 12.6625 17.0216C12.4394 17.2117 12.2044 17.3876 11.959 17.548C12.1684 17.3413 12.392 17.1495 12.6281 16.974C12.8495 16.7839 13.0841 16.6096 13.33 16.4525Z" fill="#D13939"/>
<path d="M19.5157 19.3635C19.481 19.2695 19.4557 19.1722 19.4402 19.0732C19.3992 18.8944 19.3402 18.6468 19.2762 18.3746C19.2123 18.1023 19.1286 17.8596 19.0745 17.6841C19.0388 17.5906 19.0119 17.494 18.9941 17.3955C19.0438 17.4822 19.0839 17.574 19.1139 17.6694C19.1795 17.8432 19.2598 18.0859 19.3336 18.3582C19.4074 18.6304 19.4583 18.883 19.4976 19.065C19.514 19.1636 19.5201 19.2636 19.5157 19.3635Z" fill="#D13939"/>
<path d="M22.4106 17.3086C22.1167 17.091 21.8348 16.8578 21.566 16.6099C21.2844 16.3769 21.0156 16.1289 20.7607 15.867C21.0555 16.0835 21.3375 16.3167 21.6053 16.5656C21.8873 16.7981 22.1562 17.0462 22.4106 17.3086Z" fill="#D13939"/>
<path d="M23.5189 14.4828C23.4029 14.4764 23.2877 14.4599 23.1745 14.4336C22.963 14.3992 22.671 14.3533 22.3463 14.3156C22.0216 14.2778 21.7264 14.2565 21.5116 14.2434C21.3957 14.2419 21.28 14.2321 21.1655 14.2139C21.2806 14.1971 21.3972 14.1927 21.5132 14.2008C21.728 14.2008 22.0265 14.2188 22.3529 14.2565C22.6792 14.2942 22.9728 14.3467 23.1827 14.3926C23.2973 14.4123 23.4099 14.4425 23.5189 14.4828Z" fill="#D13939"/>
<path d="M23.5225 11.7063C23.5225 11.7227 22.9091 11.8867 22.1432 12.0737C21.3773 12.2606 20.7509 12.4017 20.7476 12.382C20.7443 12.3623 21.3609 12.2016 22.1285 12.0146C22.896 11.8277 23.5192 11.6899 23.5225 11.7063Z" fill="#D13939"/>
<path d="M20.2967 8.46896C20.3098 8.4788 20.0146 8.95112 19.6407 9.52348C19.2668 10.0958 18.9437 10.5534 18.9306 10.5436C18.9175 10.5337 19.211 10.063 19.5866 9.49068C19.9622 8.91832 20.282 8.46076 20.2967 8.46896Z" fill="#D13939"/>
<path d="M17.0935 7.79328C17.1031 7.92376 17.1031 8.05476 17.0935 8.18524C17.0935 8.42796 17.0935 8.76088 17.0935 9.12988C17.0935 9.49888 17.0935 9.83344 17.1034 10.0745C17.112 10.205 17.112 10.336 17.1034 10.4665C17.0788 10.3378 17.0657 10.2072 17.064 10.0762C17.0493 9.83508 17.0361 9.50052 17.0361 9.12988C17.0361 8.75924 17.0476 8.42632 17.0624 8.1836C17.0612 8.05283 17.0716 7.92221 17.0935 7.79328Z" fill="#D13939"/>
<path d="M14.6679 10.8142C14.6548 10.8142 14.353 10.3566 13.9955 9.77276C13.638 9.18892 13.3608 8.7084 13.3756 8.692C13.3903 8.6756 13.6904 9.14956 14.048 9.73504C14.4055 10.3205 14.6826 10.806 14.6679 10.8142Z" fill="#D13939"/>
<path d="M13.2201 12.0458C13.1175 12.0404 13.0157 12.0239 12.9167 11.9966C12.7297 11.9589 12.4755 11.8966 12.1984 11.8146C11.9212 11.7326 11.6719 11.6506 11.4948 11.5784C11.397 11.5473 11.3029 11.5055 11.2144 11.4538C11.3151 11.4728 11.4139 11.5008 11.5096 11.5374C11.69 11.5948 11.9376 11.6752 12.2148 11.7572C12.4919 11.8392 12.7428 11.9064 12.9265 11.9556C13.0269 11.9767 13.1252 12.0069 13.2201 12.0458Z" fill="#D13939"/>
<path d="M12.5869 14.2401C12.2858 14.2988 11.9812 14.3377 11.6751 14.3566C11.3711 14.3961 11.0648 14.4159 10.7583 14.4156C11.0594 14.3568 11.364 14.3174 11.6701 14.2975C11.9741 14.2579 12.2804 14.2387 12.5869 14.2401Z" fill="#D13939"/>
<path d="M64.1239 14.555C64.1239 14.555 64.0255 14.5222 63.8434 14.4812C63.5853 14.4252 63.3194 14.4152 63.0579 14.4517C62.6702 14.5021 62.3043 14.66 62.0017 14.9076C61.6296 15.2095 61.3673 15.6257 61.2555 16.0917V16.1048L61.2325 16.1901L61.2014 16.1097C61.0197 15.6677 60.708 15.2914 60.3076 15.0306C59.9803 14.8184 59.6044 14.6931 59.2153 14.6665C58.9535 14.6476 58.6903 14.672 58.4363 14.7387C58.2559 14.7862 58.1608 14.8272 58.1592 14.8223C58.1806 14.8095 58.2031 14.7986 58.2264 14.7895C58.2927 14.7613 58.3606 14.7372 58.4298 14.7174C58.7483 14.6241 59.083 14.5999 59.4116 14.6462C59.7403 14.6926 60.0552 14.8086 60.3355 14.9863C60.7474 15.2508 61.068 15.6355 61.2539 16.0884H61.1997V16.0753C61.3149 15.5973 61.5854 15.171 61.9689 14.8633C62.2297 14.6554 62.535 14.5106 62.861 14.44C63.187 14.3695 63.5249 14.3751 63.8483 14.4566C63.9188 14.4732 63.9879 14.4951 64.055 14.5222C64.079 14.5308 64.102 14.5418 64.1239 14.555Z" fill="#263238"/>
<path d="M76.0253 16.5755C76.0253 16.5755 75.9695 16.5607 75.8695 16.5394C75.728 16.5111 75.5826 16.5072 75.4398 16.5279C75.2288 16.5562 75.0299 16.6432 74.8658 16.7788C74.6637 16.9434 74.5214 17.1699 74.4607 17.4234V17.4316L74.4394 17.5152L74.4066 17.4348C74.3049 17.1939 74.1336 16.9889 73.9146 16.8461C73.7367 16.7305 73.5325 16.6616 73.3209 16.646C73.1773 16.6357 73.033 16.6473 72.8929 16.6804C72.7945 16.705 72.742 16.7264 72.7404 16.7231C72.7387 16.7198 72.7519 16.7132 72.7765 16.7018C72.8127 16.6853 72.85 16.671 72.888 16.6591C73.0637 16.6052 73.249 16.5902 73.4311 16.6151C73.6132 16.64 73.7877 16.7043 73.9425 16.8034C74.1721 16.9489 74.3509 17.1621 74.4542 17.4135H74.3984C74.4619 17.1478 74.6126 16.9111 74.8265 16.7411C74.9995 16.6026 75.2081 16.5157 75.4283 16.4902C75.5755 16.4724 75.7247 16.483 75.8678 16.5214C75.9064 16.5314 75.9442 16.544 75.981 16.5591C76.0138 16.564 76.0269 16.5738 76.0253 16.5755Z" fill="#263238"/>
<path d="M70.3556 8.2C70.3556 8.2 70.3015 8.26068 70.2048 8.364C70.0684 8.51758 69.945 8.68214 69.8358 8.856C69.4752 9.43683 69.286 10.1076 69.2896 10.7912V10.824H69.2322C69.1774 10.4561 69.058 10.1008 68.8796 9.7744C68.735 9.50836 68.554 9.26383 68.3417 9.04788C68.1985 8.90143 68.042 8.76857 67.8743 8.651C67.7562 8.569 67.6874 8.528 67.689 8.52308C67.7078 8.52879 67.7256 8.53766 67.7415 8.54932C67.7918 8.57412 67.8406 8.60205 67.8874 8.63296C68.062 8.74436 68.2242 8.87411 68.3712 9.02C68.8635 9.50332 69.1867 10.1325 69.2929 10.8142H69.2355V10.7896C69.231 10.0959 69.4288 9.41605 69.8046 8.83304C69.9172 8.65678 70.0469 8.49199 70.1916 8.34104C70.2408 8.28692 70.2851 8.2492 70.313 8.22296C70.3409 8.19672 70.3556 8.19016 70.3556 8.2Z" fill="#263238"/>
<path d="M74.7521 63.4524L75.5317 63.0832L72.9866 57.7087L72.207 58.0779L74.7521 63.4524Z" fill="#455A64"/>
<path d="M72.98 57.6804C73.0013 57.6706 73.4523 58.571 73.9902 59.6911C74.5281 60.8112 74.943 61.7296 74.9217 61.7394C74.9004 61.7493 74.456 60.844 73.918 59.7288C73.3801 58.6136 72.9636 57.6903 72.98 57.6804Z" fill="#263238"/>
<path d="M72.7225 59.1482C72.7438 59.1384 73.1899 60.0388 73.7163 61.1589C74.2428 62.279 74.6544 63.1958 74.6331 63.2056C74.6118 63.2154 74.1657 62.32 73.636 61.195C73.1062 60.0699 72.7012 59.1597 72.7225 59.1482Z" fill="#263238"/>
<path d="M76.0934 58.8399L75.4893 58.224L71.2442 62.3884L71.8483 63.0042L76.0934 58.8399Z" fill="#455A64"/>
<path d="M75.5089 58.1938C75.5253 58.2118 74.8168 58.9268 73.9263 59.7944C73.0358 60.662 72.2994 61.3491 72.2863 61.3327C72.2732 61.3163 72.9784 60.5996 73.8706 59.7321C74.7627 58.8645 75.4925 58.1774 75.5089 58.1938Z" fill="#263238"/>
<path d="M75.2466 59.6616C75.2646 59.6796 74.5627 60.3979 73.6804 61.2671C72.7981 62.1363 72.0699 62.8268 72.0535 62.8104C72.0371 62.794 72.739 62.0756 73.6213 61.2064C74.5037 60.3372 75.2302 59.6452 75.2466 59.6616Z" fill="#263238"/>
<path d="M74.3128 52.8776L75.9791 53.1744C76.2146 53.2163 76.4238 53.3501 76.5607 53.5463C76.6975 53.7425 76.7509 53.9851 76.7089 54.2206L76.2117 57.0122C76.1898 57.1347 76.1203 57.2434 76.0182 57.3146C75.9162 57.3858 75.7901 57.4135 75.6676 57.3917L73.1489 56.943C73.0264 56.9212 72.9176 56.8517 72.8464 56.7496C72.7753 56.6476 72.7475 56.5215 72.7694 56.399L73.2666 53.6074C73.3086 53.3719 73.4424 53.1627 73.6386 53.0258C73.8348 52.8889 74.0773 52.8356 74.3128 52.8776Z" fill="#455A64"/>
<path d="M76.4654 55.5843L73.0215 54.9708L72.9082 55.6069L76.3521 56.2204L76.4654 55.5843Z" fill="white"/>
<path d="M76.6802 54.3746L73.2363 53.7611L73.123 54.3973L76.5669 55.0107L76.6802 54.3746Z" fill="white"/>
<path d="M75.6644 57.4C75.7119 57.4033 75.7596 57.4033 75.8071 57.4C75.8743 57.3897 75.9385 57.3649 75.9952 57.3272C76.0518 57.2895 76.0996 57.2399 76.1351 57.1819C76.181 57.0951 76.2079 56.9995 76.2138 56.9014C76.2335 56.7932 76.2532 56.6751 76.2728 56.5505C76.3171 56.2963 76.3663 56.0093 76.4204 55.6944C76.4746 55.3795 76.5352 55.0286 76.5992 54.6563L76.6484 54.3726C76.6697 54.2771 76.6823 54.18 76.6861 54.0823C76.6874 53.8822 76.619 53.688 76.4926 53.5329C76.2368 53.1836 75.7366 53.2049 75.2921 53.1065L74.5968 52.9835C74.4803 52.9638 74.3573 52.9376 74.2442 52.9244C74.1282 52.9129 74.0111 52.9246 73.8998 52.9589C73.789 52.9934 73.6865 53.05 73.5982 53.1252C73.51 53.2005 73.438 53.2929 73.3864 53.3968C73.3378 53.5005 73.3057 53.6111 73.2913 53.7248L73.229 54.0708L72.9928 55.3828C72.9551 55.5927 72.9174 55.7961 72.8813 55.9962C72.8633 56.0946 72.8469 56.193 72.8288 56.2881C72.805 56.3773 72.7967 56.4699 72.8042 56.562C72.818 56.6467 72.8564 56.7256 72.9148 56.7886C72.9731 56.8516 73.0488 56.896 73.1322 56.9162L73.6242 57.008L75.1232 57.2885L75.5299 57.3688C75.5778 57.3766 75.6249 57.3881 75.671 57.4033C75.6225 57.4017 75.5742 57.3962 75.5266 57.3869L75.1166 57.3213L73.6128 57.0671L73.1208 56.9802C73.0249 56.9567 72.9379 56.9056 72.8706 56.8334C72.8033 56.7611 72.7586 56.6708 72.7419 56.5734C72.7321 56.4734 72.7399 56.3724 72.7649 56.275C72.7813 56.1798 72.7993 56.0814 72.8157 55.983C72.8502 55.783 72.8862 55.5796 72.924 55.3697L73.1552 54.0577C73.1749 53.9429 73.1962 53.8281 73.2159 53.7116C73.231 53.59 73.2653 53.4715 73.3176 53.3607C73.374 53.2463 73.4531 53.1445 73.5501 53.0617C73.6471 52.9788 73.7599 52.9165 73.8817 52.8785C74.0042 52.8407 74.133 52.8279 74.2606 52.8408C74.3868 52.8572 74.5 52.8818 74.6197 52.9015L75.3151 53.0261L75.9858 53.1475C76.2124 53.1863 76.4171 53.3064 76.5615 53.4853C76.699 53.6549 76.7727 53.8673 76.7698 54.0856C76.7651 54.1866 76.7513 54.2871 76.7288 54.3857C76.7107 54.4824 76.6943 54.5776 76.6779 54.671C76.609 55.0417 76.5451 55.3894 76.4877 55.7059C76.4303 56.0224 76.3762 56.3078 76.3237 56.5603C76.3007 56.685 76.2778 56.803 76.2581 56.9113C76.2482 57.0129 76.2169 57.1113 76.1662 57.1999C76.1285 57.2605 76.0775 57.3117 76.0169 57.3495C75.9563 57.3873 75.8879 57.4108 75.8169 57.418C75.7654 57.4238 75.7132 57.4176 75.6644 57.4Z" fill="#263238"/>
<path d="M76.5168 57.5572L75.6675 57.4059L74.5841 63.4881L75.4334 63.6393L76.5168 57.5572Z" fill="#455A64"/>
<path d="M73.0753 57.0887L72.2261 56.9374L71.1427 63.0195L71.9919 63.1708L73.0753 57.0887Z" fill="#455A64"/>
<path d="M77.2178 57.2209L71.7524 56.2474C71.4706 56.1972 71.2015 56.3849 71.1513 56.6667L71.1384 56.7394C71.0882 57.0211 71.2759 57.2903 71.5577 57.3404L77.0231 58.314C77.3048 58.3642 77.574 58.1764 77.6241 57.8946L77.6371 57.822C77.6873 57.5402 77.4995 57.2711 77.2178 57.2209Z" fill="#455A64"/>
<path d="M77.08 58.3266C77.08 58.3496 75.8254 58.1462 74.292 57.8723C72.7586 57.5984 71.504 57.3574 71.5122 57.3344C71.5204 57.3114 72.7668 57.5148 74.3002 57.7887C75.8336 58.0626 77.0899 58.3036 77.08 58.3266Z" fill="#263238"/>
<path d="M77.2783 57.2442C77.2783 57.2688 76.022 57.0638 74.4903 56.7899C72.9585 56.516 71.7023 56.275 71.7105 56.252C71.7187 56.229 72.9651 56.4324 74.4985 56.7063C76.0319 56.9802 77.2816 57.2212 77.2783 57.2442Z" fill="#263238"/>
<path d="M71.9959 63.1695C71.9729 63.1695 72.1763 61.9198 72.4486 60.3815C72.7208 58.8432 72.9619 57.6099 72.9848 57.6148C73.0078 57.6198 72.8061 58.8629 72.5322 60.4028C72.2583 61.9428 72.0123 63.1744 71.9959 63.1695Z" fill="#263238"/>
<path d="M74.5574 63.632C74.5345 63.632 74.7362 62.3823 75.0101 60.844C75.284 59.3057 75.5234 58.0724 75.5464 58.0773C75.5693 58.0822 75.366 59.3254 75.0937 60.8653C74.8215 62.4053 74.5804 63.632 74.5574 63.632Z" fill="#263238"/>
<path d="M76.7275 63.7337L69.9313 62.5234C69.7183 62.485 69.4987 62.5325 69.3205 62.6554C69.1423 62.7782 69.02 62.9666 68.9801 63.1794L68.147 67.8599L76.8275 67.8452L77.3917 64.6783C77.4279 64.4651 77.3784 64.2462 77.254 64.0693C77.1296 63.8923 76.9404 63.7717 76.7275 63.7337Z" fill="#455A64"/>
<path d="M76.8273 67.8517L68.1484 67.8452L68.7356 64.5652L77.1455 66.0641L76.8273 67.8517Z" fill="#263238"/>
<path d="M76.5713 63.7222C76.5713 63.7452 75.1265 63.5074 73.352 63.1925C71.5775 62.8776 70.1442 62.6004 70.1475 62.5775C70.1507 62.5545 71.5923 62.7923 73.3668 63.1072C75.1413 63.4221 76.5763 63.6992 76.5713 63.7222Z" fill="#263238"/>
<path d="M63.4678 68.0288C63.8589 67.5365 64.3949 67.1795 65 67.0085C65.6051 66.8375 66.2487 66.8611 66.8396 67.076C67.3316 67.2662 67.8039 67.5992 68.3353 67.5762C68.8667 67.5532 69.3521 67.1432 69.8851 66.9809C70.505 66.7906 71.1709 66.9481 71.8039 67.0924C73.7014 67.5254 77.3241 67.9665 79.6857 68.0305" fill="white"/>
<path d="M79.6859 68.0288C79.6718 68.0313 79.6574 68.0313 79.6433 68.0288H79.5154C79.4022 68.0288 79.2366 68.0288 79.0234 68.0157C78.5953 68.001 77.977 67.9649 77.2194 67.8993C76.4617 67.8337 75.5498 67.7353 74.5478 67.6024C73.5457 67.4696 72.4437 67.2876 71.3088 67.0219C71.0296 66.9621 70.7448 66.9319 70.4593 66.9317C70.1845 66.9346 69.9132 66.9937 69.6622 67.1055C69.4129 67.2138 69.1801 67.3532 68.9341 67.4598C68.6936 67.5763 68.4264 67.6267 68.16 67.6057C67.9109 67.5716 67.6693 67.4962 67.445 67.3827C67.2252 67.2826 67.0202 67.176 66.8119 67.0973C66.4243 66.9542 66.01 66.8982 65.5983 66.9333C64.9954 66.9779 64.4189 67.1986 63.9403 67.568C63.8126 67.6676 63.693 67.7773 63.5828 67.896L63.4975 67.9911C63.4778 68.0124 63.4679 68.0239 63.4663 68.0223L63.4909 67.9862L63.5696 67.8845C63.6752 67.7577 63.7928 67.6412 63.9206 67.5368C64.3961 67.1501 64.9776 66.9162 65.5885 66.8661C66.0104 66.8276 66.4356 66.8836 66.8332 67.0301C67.258 67.1842 67.668 67.4729 68.1616 67.5221C68.4147 67.5416 68.6685 67.4929 68.8964 67.381C69.1358 67.2761 69.367 67.1367 69.6229 67.0252C69.8837 66.907 70.1663 66.8445 70.4527 66.8415C70.7443 66.841 71.0352 66.8718 71.3203 66.9333C72.4584 67.2006 73.5523 67.3778 74.5527 67.5188C75.5531 67.6598 76.4584 67.7615 77.2194 67.8337C77.9803 67.9058 78.597 67.9518 79.0234 67.978L79.5154 68.0059H79.6433L79.6859 68.0288Z" fill="#263238"/>
<path d="M66.7137 65.5934C66.9628 65.5934 67.1647 65.3915 67.1647 65.1424C67.1647 64.8934 66.9628 64.6914 66.7137 64.6914C66.4646 64.6914 66.2627 64.8934 66.2627 65.1424C66.2627 65.3915 66.4646 65.5934 66.7137 65.5934Z" fill="#FAFAFA"/>
<path d="M67.1646 65.1424C67.1525 65.1076 67.1426 65.072 67.135 65.0358C67.1051 64.9448 67.0479 64.8652 66.971 64.8079C66.9145 64.7675 66.8489 64.7415 66.78 64.7324C66.7111 64.7232 66.641 64.7311 66.5758 64.7554C66.497 64.7849 66.4291 64.8378 66.3811 64.907C66.3331 64.9761 66.3074 65.0583 66.3074 65.1424C66.3074 65.2266 66.3331 65.3088 66.3811 65.3779C66.4291 65.4471 66.497 65.5 66.5758 65.5295C66.641 65.5537 66.7111 65.5616 66.78 65.5525C66.8489 65.5433 66.9145 65.5174 66.971 65.477C67.0479 65.4197 67.1051 65.3401 67.135 65.249C67.1426 65.2129 67.1525 65.1773 67.1646 65.1424C67.1646 65.1424 67.1793 65.1834 67.1646 65.2572C67.1432 65.3629 67.0851 65.4577 67.0006 65.5246C66.9371 65.5758 66.8616 65.61 66.7812 65.6238C66.7008 65.6375 66.6183 65.6305 66.5414 65.6033C66.4475 65.5682 66.3666 65.5052 66.3094 65.4229C66.2523 65.3405 66.2217 65.2427 66.2217 65.1424C66.2217 65.0422 66.2523 64.9444 66.3094 64.862C66.3666 64.7797 66.4475 64.7167 66.5414 64.6816C66.6183 64.6547 66.7008 64.6478 66.7811 64.6616C66.8615 64.6754 66.937 64.7093 67.0006 64.7603C67.0851 64.8272 67.1432 64.9219 67.1646 65.0276C67.1793 65.108 67.1695 65.1424 67.1646 65.1424Z" fill="#263238"/>
<path d="M36.0915 19.9309C36.0915 19.9309 37.5068 43.9307 50.2971 57.3L35.4683 56.8555L36.0915 19.9309Z" fill="#F5F5F5"/>
<path d="M36.0913 19.9309C36.0913 20.3426 35.842 35.8012 35.5091 56.8572L35.4697 56.8145L44.7554 57.0917L50.297 57.2557L50.2658 57.3278C48.3613 55.2961 46.6754 53.0699 45.2359 50.6858C43.9056 48.4867 42.7423 46.1909 41.7559 43.8175C40.1046 39.8387 38.8046 35.723 37.8707 31.5175C37.2371 28.7188 36.7444 25.8901 36.3947 23.042C36.2733 22.0383 36.1979 21.2593 36.1536 20.7329C36.1307 20.4688 36.1175 20.2671 36.1093 20.131C36.1093 20.0654 36.1093 20.0146 36.0995 19.9801V19.9276C36.0995 19.9801 36.1257 20.2179 36.1717 20.7312C36.2176 21.2446 36.2996 22.0432 36.4259 23.0387C36.6833 25.0412 37.1212 27.9456 37.933 31.5044C38.8712 35.7036 40.1716 39.8135 41.8198 43.788C42.808 46.1566 43.9718 48.448 45.3015 50.6432C46.7384 53.0213 48.421 55.242 50.3216 57.2688L50.3921 57.3426H50.2904L44.7489 57.1786L35.4615 56.8998H35.4238V56.8588C35.8059 35.8012 36.0798 20.336 36.0913 19.9309Z" fill="#263238"/>
<path d="M44.3704 49.2377C43.8669 51.2434 41.1675 50.2594 39.8899 49.1951C39.2634 48.6719 38.8059 47.9782 38.2499 47.3796C37.6939 46.781 36.9805 46.2513 36.1638 46.2316L36.0884 51.8863C36.0884 51.8863 37.1888 50.9892 39.1535 52.9343C41.1183 54.8793 43.2765 55.1712 44.5655 54.1807C45.8546 53.1901 46.1793 52.2028 46.1793 52.2028L44.3704 49.2377Z" fill="white"/>
<path d="M9.19238 55.9601C9.19238 55.9601 13.0119 26.8222 35.5783 19.7932L35.5603 22.6779C35.5603 22.6779 28.5559 38.2432 35.4685 57.0818L9.19238 55.9601Z" fill="#F5F5F5"/>
<path d="M21.0331 33.5101C21.0528 33.5232 20.4772 34.3842 19.749 35.4338C19.0208 36.4834 18.4157 37.3231 18.396 37.31C18.3763 37.2969 18.952 36.4342 19.6801 35.3846C20.4083 34.335 21.0134 33.497 21.0331 33.5101Z" fill="#263238"/>
<path d="M10.6143 49.528C12.2067 50.6662 14.5322 50.6366 16.3018 49.8002C18.0713 48.9638 19.4752 47.5305 20.8265 46.1152C22.1779 44.6998 23.5539 43.2468 25.2923 42.3432C26.3758 41.7912 27.5623 41.4708 28.7763 41.4022C29.9904 41.3336 31.2055 41.5183 32.3443 41.9446L32.4623 42.002C32.4623 42.002 32.4623 37.8643 32.4886 37.3116C32.4886 37.3116 30.086 36.4703 28.464 36.2374C26.6387 35.975 23.3079 36.4342 20.3805 39.5174C17.8171 42.2202 15.3522 45.797 12.3445 44.2505C11.7081 46.0971 11.121 47.8634 10.6143 49.528Z" fill="white"/>
<path d="M9.19238 55.9601L35.4701 57.0458L35.434 57.0933C32.0314 47.8132 31.4572 37.7324 33.7842 28.126C34.222 26.2619 34.8049 24.4348 35.5275 22.6615V22.6779C35.5341 21.7027 35.5401 20.7411 35.5455 19.7932L35.6013 19.8325C32.511 20.7959 29.5913 22.2387 26.9487 24.108C24.5225 25.8371 22.3302 27.8729 20.4264 30.1645C18.7158 32.2152 17.1974 34.4188 15.8901 36.7475C14.7574 38.7589 13.7538 40.8405 12.8857 42.9795C11.6384 46.0458 10.6359 49.2061 9.88774 52.4308C9.6237 53.564 9.45478 54.4496 9.34654 55.0548C9.2957 55.3549 9.25634 55.5829 9.2301 55.7387C9.20386 55.8945 9.19238 55.9699 9.19238 55.9699C9.19238 55.9699 9.20058 55.8912 9.2219 55.737C9.24322 55.5829 9.2793 55.3533 9.33014 55.0532C9.43346 54.4513 9.5991 53.5657 9.85822 52.4292C10.595 49.1993 11.5899 46.0338 12.8332 42.9631C13.6995 40.8209 14.7013 38.736 15.8327 36.7212C17.1395 34.3871 18.6579 32.178 20.369 30.1219C22.2768 27.8266 24.4729 25.7871 26.9027 24.0539C29.5482 22.1801 32.4712 20.733 35.5652 19.7653L35.621 19.7489V19.8063C35.6144 20.7542 35.6084 21.7163 35.6029 22.6927V22.7009C34.8825 24.4693 34.3018 26.2914 33.8662 28.1506C31.5443 37.742 32.1149 47.8062 35.5062 57.0736L35.5242 57.1245H35.4701L9.19238 55.9601Z" fill="#263238"/>
<path d="M28.4638 24.3507L28.4064 24.4016L28.2326 24.5442L27.5602 25.0904L27.0682 25.4823C26.8927 25.6299 26.709 25.7972 26.5073 25.9743C26.1104 26.3302 25.6414 26.7172 25.1658 27.1912L24.4048 27.921C24.1408 28.1768 23.8849 28.4589 23.6094 28.741C23.0535 29.3002 22.5057 29.9431 21.9202 30.6106C19.4221 33.5492 17.3294 36.8096 15.6981 40.3046C15.3356 41.1148 14.9781 41.879 14.7009 42.6187C14.5583 42.9877 14.4074 43.3386 14.286 43.683C14.1647 44.0274 14.0499 44.362 13.9383 44.6785C13.7055 45.3099 13.548 45.897 13.3906 46.4054C13.3151 46.6613 13.2397 46.8974 13.179 47.1188C13.1183 47.3402 13.0708 47.542 13.0249 47.7256C12.9314 48.0848 12.8609 48.3669 12.8084 48.562L12.751 48.7802C12.7362 48.8294 12.728 48.854 12.728 48.854C12.728 48.854 12.728 48.8277 12.7411 48.7785C12.7543 48.7293 12.7707 48.6522 12.792 48.5588C12.8395 48.362 12.9068 48.0799 12.9921 47.7174C13.0363 47.5338 13.0855 47.3304 13.1397 47.109C13.1938 46.8876 13.2709 46.6498 13.3447 46.3923C13.4988 45.8806 13.653 45.2919 13.8826 44.6588C13.9908 44.3407 14.1056 44.0028 14.2237 43.6601C14.3418 43.3173 14.4943 42.9631 14.6353 42.5924C14.9109 41.8512 15.2651 41.0836 15.6193 40.2702C17.2463 36.7655 19.3429 33.4987 21.8513 30.5598C22.4417 29.8923 22.9911 29.2478 23.5504 28.6918C23.8275 28.4097 24.085 28.126 24.3507 27.8718L25.1149 27.1436C25.5955 26.673 26.0678 26.2876 26.4679 25.935C26.6713 25.7611 26.8566 25.5955 27.0337 25.443L27.5257 25.0559L28.208 24.5229L28.3851 24.3868C28.4105 24.3731 28.4368 24.361 28.4638 24.3507Z" fill="#263238"/>
<path d="M34.1367 34.2432C34.1367 34.2432 34.5156 33.8299 34.6287 33.8201C34.7419 33.8102 35.9243 34.1645 35.9243 34.1645C36.0609 34.19 36.1886 34.2505 36.295 34.34C36.4016 34.4646 37.443 35.6388 37.443 35.6388L38.1908 36.0078L37.5036 37.743L36.2736 36.8705C36.2736 36.8705 34.755 36.5982 34.6238 36.4392C34.4926 36.2801 34.3844 36.0242 34.4828 35.9472C34.4172 35.8351 34.3864 35.7061 34.3942 35.5765C34.4153 35.4854 34.4416 35.3956 34.4729 35.3076C34.4729 35.3076 34.2433 35.1436 34.2351 35.0304C34.2328 34.9689 34.2177 34.9086 34.1908 34.8533L34.1384 34.7664L34.1367 34.2432Z" fill="#91644E"/>
<path d="M34.6648 34.4908C34.6648 34.4908 34.6648 34.5318 34.6434 34.5892C34.6158 34.6676 34.5663 34.7365 34.5008 34.7877C34.467 34.8138 34.4279 34.8323 34.3863 34.8419C34.3447 34.8515 34.3015 34.852 34.2597 34.8434C34.1957 34.827 34.1695 34.7926 34.1744 34.7877C34.1793 34.7828 34.2105 34.8008 34.2662 34.8057C34.3388 34.8102 34.4106 34.7881 34.468 34.7434C34.5248 34.698 34.5726 34.6424 34.609 34.5794C34.6385 34.522 34.6582 34.4876 34.6648 34.4908Z" fill="#4A3124"/>
<path d="M36.8065 35.1386L34.604 33.9201C34.604 33.9201 34.3761 34.1612 34.6893 34.4941C34.933 34.7369 35.1988 34.9565 35.4831 35.1501L36.0915 36.2374L36.8065 35.1386Z" fill="#91644E"/>
<path d="M51.6452 33.1739H53.2179L54.6185 32.8344C54.6185 32.8344 55.4729 36.7278 55.878 38.2136C56.2831 39.6995 60.6488 44.6096 60.7832 44.9655C60.9177 45.3214 60.8292 46.9007 58.9382 47.3517C57.0473 47.8027 56.0125 47.0368 55.5172 47.9372C55.248 48.4358 54.9473 48.9168 54.6168 49.3771L44.8638 50.2234L46.1987 43.1107L46.6907 34.2301L48.3619 32.1604L51.6452 33.1739Z" fill="#D13939"/>
<g opacity="0.3">
<path d="M51.6452 33.1739H53.2179L54.6185 32.8344C54.6185 32.8344 55.4729 36.7278 55.878 38.2136C56.2831 39.6995 60.6488 44.6096 60.7832 44.9655C60.9177 45.3214 60.8292 46.9007 58.9382 47.3517C57.0473 47.8027 56.0125 47.0368 55.5172 47.9372C55.248 48.4358 54.9473 48.9168 54.6168 49.3771L44.8638 50.2234L46.1987 43.1107L46.6907 34.2301L48.3619 32.1604L51.6452 33.1739Z" fill="black"/>
</g>
<path d="M62.5546 21.0904L61.9429 22.7763L61.7362 23.0568C61.7362 23.0568 61.5411 23.9981 61.5263 24.2048C61.5115 24.4114 61.7526 25.4676 61.7526 25.4676L61.1475 26.3942L62.7579 27.0502C62.7579 27.0502 63.2139 26.2006 63.3385 26.1055C63.4761 25.949 63.5636 25.7547 63.5894 25.5479C63.6222 25.361 63.8879 24.2507 63.8879 24.2507C63.8879 24.2507 64.6308 23.0371 64.3323 22.9682C64.2571 22.9595 64.1812 22.9595 64.106 22.9682C64.106 22.9682 63.6567 23.7685 63.5402 23.7882L63.3762 23.6882C63.3762 23.6882 63.7387 22.4582 63.76 22.2269C63.7813 21.9957 63.7387 21.8333 63.5599 21.8022C63.5599 21.8022 63.4254 21.853 63.4123 21.912C63.3992 21.9711 63.0335 23.3438 62.958 23.3159C62.8826 23.288 62.9203 23.165 62.9203 23.165C62.9203 23.165 63.4041 21.5004 63.3844 21.4036C63.3807 21.3369 63.3516 21.2741 63.3031 21.2281C63.2547 21.1821 63.1905 21.1563 63.1237 21.156L62.7612 22.0678C62.7612 22.0678 62.9367 21.297 62.8153 21.156C62.7854 21.1175 62.7435 21.0901 62.6963 21.0782C62.649 21.0664 62.5991 21.0706 62.5546 21.0904Z" fill="#91644E"/>
<path d="M62.8234 24.8542C62.8087 24.8542 62.8234 24.7099 62.771 24.4786C62.6981 24.1679 62.5253 23.8896 62.279 23.6865L62.256 23.6701V23.6439C62.2872 23.5225 62.3183 23.393 62.3528 23.2618V23.2536C62.3842 23.2115 62.4132 23.1677 62.4397 23.1224C62.5344 22.9716 62.6011 22.8049 62.6365 22.6304C62.6537 22.5548 62.6537 22.4763 62.6365 22.4008C62.6307 22.3703 62.6163 22.3421 62.5951 22.3195C62.5739 22.2968 62.5468 22.2807 62.5168 22.2728L62.5446 22.263C62.3462 22.445 62.1806 22.591 62.0625 22.6976C62.0043 22.7553 61.94 22.8065 61.8706 22.8501C61.9181 22.7828 61.9731 22.7212 62.0346 22.6664C62.1428 22.5549 62.3019 22.3975 62.4938 22.2105L62.5069 22.199H62.5217C62.5674 22.207 62.6097 22.2282 62.6435 22.26C62.6773 22.2917 62.7011 22.3327 62.7119 22.3778C62.7308 22.4654 62.7308 22.5559 62.7119 22.6435C62.6749 22.826 62.6054 23.0004 62.5069 23.1584C62.4786 23.2068 62.4474 23.2533 62.4134 23.2978V23.2831C62.379 23.4143 62.3462 23.5422 62.3134 23.6636L62.2986 23.6209C62.5573 23.8368 62.7315 24.1371 62.7906 24.4688C62.807 24.563 62.8125 24.6587 62.807 24.7542C62.8333 24.8198 62.8284 24.8558 62.8234 24.8542Z" fill="#4A3124"/>
<path d="M62.8496 23.4815C63.037 23.516 63.2128 23.5966 63.3613 23.716C63.5257 23.8122 63.6633 23.9481 63.7614 24.1113C63.6059 24.01 63.4559 23.9005 63.3121 23.7833C63.1526 23.6911 62.9982 23.5904 62.8496 23.4815Z" fill="#4A3124"/>
<path d="M52.2077 67.527L50.2791 69.495C50.2791 69.495 51.6321 72.119 51.3123 72.5142L47.3599 68.9062L50.2397 65.7164L52.2077 67.527Z" fill="#D13939"/>
<g opacity="0.3">
<path d="M52.2077 67.527L50.2791 69.495C50.2791 69.495 51.6321 72.119 51.3123 72.5142L47.3599 68.9062L50.2397 65.7164L52.2077 67.527Z" fill="black"/>
</g>
<path d="M49.2132 68.2109C49.1649 68.1875 49.1095 68.183 49.058 68.1981C49.0065 68.2133 48.9624 68.2471 48.9344 68.2929C48.91 68.3407 48.9046 68.396 48.9192 68.4477C48.9337 68.4994 48.9673 68.5437 49.0131 68.5717C49.0648 68.596 49.1236 68.6003 49.1782 68.5836C49.2327 68.5669 49.2791 68.5305 49.3083 68.4815C49.3293 68.4294 49.3292 68.3712 49.3081 68.3192C49.287 68.2672 49.2465 68.2254 49.1952 68.2027" fill="#E0E0E0"/>
<g opacity="0.6">
<path d="M47.3599 68.9128L47.6633 68.6028L51.3319 72.1731C51.3319 72.1731 51.4385 72.4093 51.3057 72.5159L47.3599 68.9128Z" fill="white"/>
</g>
<path d="M50.3609 69.536C50.3429 69.554 50.2395 69.4753 50.087 69.4507C49.9345 69.4261 49.8115 69.4606 49.8 69.4376C49.7885 69.4146 49.9197 69.3277 50.1034 69.3605C50.2871 69.3933 50.3822 69.5196 50.3609 69.536Z" fill="#263238"/>
<path d="M50.6201 70.0838C50.607 70.1067 50.4938 70.0624 50.3544 70.0838C50.215 70.1051 50.1166 70.1756 50.0969 70.1576C50.0773 70.1395 50.1658 70.0182 50.3413 69.9936C50.5168 69.969 50.6365 70.0641 50.6201 70.0838Z" fill="#263238"/>
<path d="M50.4036 70.7939C50.3822 70.7824 50.4429 70.661 50.5889 70.6004C50.7348 70.5397 50.8628 70.5807 50.8562 70.6004C50.8496 70.62 50.743 70.6299 50.6233 70.6807C50.5036 70.7316 50.4232 70.8103 50.4036 70.7939Z" fill="#263238"/>
<path d="M50.7513 69.044C50.7267 69.0538 50.6627 68.9456 50.5479 68.8538C50.4331 68.7619 50.3151 68.7193 50.32 68.6898C50.3249 68.6602 50.4692 68.6701 50.6037 68.78C50.7382 68.8898 50.7743 69.0309 50.7513 69.044Z" fill="#263238"/>
<path d="M51.1336 68.6324C51.1254 68.6406 51.0385 68.5832 50.9368 68.4503C50.8772 68.373 50.8271 68.2887 50.7875 68.1994C50.7639 68.1462 50.7442 68.0914 50.7285 68.0354C50.7175 68.0026 50.7114 67.9683 50.7104 67.9337C50.7109 67.9087 50.7195 67.8845 50.7349 67.8647C50.7502 67.8449 50.7716 67.8305 50.7957 67.8238C50.8176 67.8187 50.8404 67.8191 50.8621 67.8248C50.8838 67.8305 50.9038 67.8414 50.9204 67.8566C50.9459 67.879 50.968 67.9049 50.986 67.9337C51.0189 67.9822 51.0469 68.0339 51.0696 68.0879C51.1094 68.179 51.1344 68.2759 51.1434 68.3749C51.1612 68.4644 51.1509 68.5572 51.1139 68.6406C51.0991 68.6406 51.1139 68.5389 51.0794 68.3831C51.0621 68.2929 51.0334 68.2053 50.9942 68.1223C50.9705 68.0743 50.9431 68.0283 50.9122 67.9846C50.881 67.9354 50.8449 67.9026 50.817 67.9108C50.7892 67.919 50.8039 67.9108 50.8023 67.937C50.8027 67.962 50.8066 67.9869 50.8138 68.0108C50.8285 68.0666 50.8466 68.1174 50.8646 68.1666C50.8981 68.2529 50.9399 68.3359 50.9893 68.4142C51.0421 68.4837 51.0903 68.5566 51.1336 68.6324Z" fill="#263238"/>
<path d="M51.0825 68.6373C51.0727 68.6373 51.0973 68.529 51.2055 68.3978C51.2691 68.3223 51.3444 68.2575 51.4286 68.206C51.4808 68.1763 51.5357 68.1516 51.5926 68.1322C51.6269 68.1158 51.6648 68.1086 51.7028 68.1112C51.7407 68.1138 51.7773 68.1261 51.8091 68.1469C51.8266 68.1633 51.839 68.1844 51.8448 68.2077C51.8506 68.231 51.8496 68.2554 51.8419 68.2781C51.8309 68.3102 51.8155 68.3406 51.7959 68.3683C51.763 68.4194 51.722 68.4648 51.6746 68.5028C51.5964 68.567 51.5034 68.6104 51.404 68.6291C51.24 68.6619 51.1317 68.611 51.1367 68.6028C51.2216 68.597 51.306 68.5849 51.3892 68.5668C51.4746 68.5413 51.5535 68.4976 51.6205 68.4388C51.6598 68.4045 51.694 68.3647 51.7221 68.3208C51.7533 68.2732 51.7681 68.2256 51.7484 68.2142C51.7284 68.2048 51.7065 68.1999 51.6844 68.1999C51.6623 68.1999 51.6405 68.2048 51.6205 68.2142C51.5698 68.2299 51.5209 68.2508 51.4745 68.2765C51.3935 68.3199 51.3194 68.3752 51.2547 68.4405C51.1416 68.552 51.0957 68.6438 51.0825 68.6373Z" fill="#263238"/>
<path d="M51.7044 67.9239L51.6897 70.6791C51.6897 70.6791 54.4859 71.6204 54.5318 72.1305L49.1887 72.2945L49.0361 67.9977L51.7044 67.9239Z" fill="#D13939"/>
<path d="M50.0298 70.4987C49.9788 70.516 49.9361 70.5515 49.9097 70.5984C49.8834 70.6454 49.8753 70.7004 49.8871 70.7529C49.9021 70.8044 49.9363 70.8482 49.9828 70.8751C50.0292 70.902 50.0842 70.9099 50.1364 70.8972C50.1903 70.8784 50.2355 70.8405 50.2634 70.7906C50.2912 70.7407 50.2997 70.6824 50.2873 70.6266C50.2654 70.5747 50.2245 70.5332 50.1729 70.5106C50.1213 70.488 50.0631 70.4861 50.0101 70.5052" fill="#E0E0E0"/>
<g opacity="0.6">
<path d="M49.1885 72.2928V71.8599H54.3118C54.3118 71.8599 54.5529 71.9566 54.53 72.1256L49.1885 72.2928Z" fill="white"/>
</g>
<path d="M51.7748 70.6496C51.7748 70.6758 51.6452 70.6922 51.5189 70.7791C51.3927 70.866 51.3287 70.9792 51.3041 70.9694C51.2795 70.9595 51.3139 70.8054 51.4681 70.7053C51.6222 70.6053 51.7797 70.6266 51.7748 70.6496Z" fill="#263238"/>
<path d="M52.3422 70.8644C52.3422 70.8906 52.2373 70.9382 52.152 71.0514C52.0667 71.1645 52.0454 71.281 52.0191 71.281C51.9929 71.281 51.9716 71.1334 52.0815 70.9956C52.1914 70.8578 52.3422 70.848 52.3422 70.8644Z" fill="#263238"/>
<path d="M52.6817 71.5253C52.6587 71.5253 52.6177 71.4023 52.6817 71.258C52.7457 71.1137 52.8654 71.053 52.8769 71.0743C52.8883 71.0956 52.8145 71.1744 52.7653 71.2941C52.7161 71.4138 52.7079 71.522 52.6817 71.5253Z" fill="#263238"/>
<path d="M51.709 70.028C51.6992 70.0526 51.5778 70.028 51.4302 70.028C51.2826 70.028 51.1695 70.092 51.1564 70.0706C51.1432 70.0493 51.2498 69.9526 51.422 69.9378C51.5942 69.923 51.7205 70.0001 51.709 70.028Z" fill="#263238"/>
<path d="M51.7025 69.4655C51.6145 69.4898 51.5216 69.4898 51.4336 69.4655C51.279 69.4428 51.1304 69.3904 50.9957 69.3113C50.9644 69.2963 50.9361 69.2757 50.9121 69.2506C50.8947 69.2326 50.8836 69.2094 50.8807 69.1845C50.8777 69.1596 50.883 69.1345 50.8957 69.1129C50.9082 69.0941 50.925 69.0785 50.9446 69.0674C50.9643 69.0563 50.9863 69.05 51.0088 69.0489C51.0425 69.048 51.0762 69.0519 51.1089 69.0604C51.1649 69.0732 51.2198 69.0908 51.2729 69.1129C51.3648 69.1503 51.4501 69.2024 51.5254 69.267C51.6517 69.3769 51.6976 69.4737 51.6894 69.4786C51.6812 69.4835 51.6156 69.4081 51.4861 69.3146C51.4111 69.2615 51.3295 69.2185 51.2433 69.1867C51.1933 69.1678 51.1417 69.1536 51.0892 69.144C51.0318 69.1309 50.9842 69.1326 50.9695 69.1572C50.9547 69.1818 50.9695 69.1719 50.9695 69.1867C50.9872 69.2046 51.0076 69.2196 51.0301 69.231C51.0767 69.2595 51.1249 69.2852 51.1745 69.308C51.2589 69.3468 51.3467 69.3775 51.4369 69.3999C51.527 69.4148 51.6158 69.4368 51.7025 69.4655Z" fill="#263238"/>
<path d="M51.6679 69.5032C51.616 69.4281 51.5891 69.3386 51.5909 69.2474C51.5826 69.1487 51.5915 69.0494 51.6171 68.9538C51.6337 68.8974 51.6551 68.8426 51.6811 68.7898C51.6943 68.7545 51.7163 68.7232 51.745 68.6988C51.7737 68.6744 51.8081 68.6578 51.8451 68.6504C51.8687 68.6502 51.8918 68.6568 51.9119 68.6693C51.9319 68.6817 51.948 68.6997 51.9582 68.7209C51.9731 68.7521 51.9836 68.7852 51.9894 68.8193C51.9983 68.8791 51.9983 68.9399 51.9894 68.9997C51.9774 69.0998 51.9414 69.1954 51.8844 69.2785C51.7844 69.4212 51.6761 69.4556 51.6729 69.4425C51.7296 69.3792 51.7817 69.3117 51.8287 69.2408C51.8729 69.1634 51.8993 69.0771 51.9057 68.9882C51.9103 68.9362 51.9076 68.8837 51.8975 68.8324C51.8861 68.7767 51.8647 68.7308 51.8434 68.7373C51.8221 68.7439 51.7729 68.7816 51.7516 68.8275C51.7267 68.8749 51.7058 68.9242 51.6893 68.9751C51.663 69.0624 51.6487 69.1529 51.6466 69.2441C51.6597 69.4032 51.6827 69.4999 51.6679 69.5032Z" fill="#263238"/>
<path d="M54.6875 45.1804L59.3057 56.3488C59.7338 57.3328 59.9027 58.2938 59.619 59.3122C59.4279 59.9652 59.0774 60.5604 58.5989 61.0441L51.8241 68.9817L49.7773 65.9034L55.0253 58.6874L52.3587 53.1918L52.9557 45.182L54.6875 45.1804Z" fill="#263238"/>
<path d="M52.1291 69.9493L53.0967 47.6223V45.205L47.8208 44.5752C47.8208 44.5752 46.6236 46.6974 46.2792 48.1258C45.9348 49.5542 47.7552 57.8395 47.7552 57.8395L47.7847 61.8165L48.4948 70.0165L52.1291 69.9493Z" fill="#263238"/>
<path d="M52.1291 69.9493C52.111 69.9493 52.3062 64.8653 52.567 58.6021C52.8277 52.339 53.059 47.255 53.0721 47.2566C53.0852 47.2582 52.8966 52.3406 52.6359 58.6038C52.3751 64.8669 52.152 69.9493 52.1291 69.9493Z" fill="#455A64"/>
<path d="M51.1682 45.1082C51.1626 45.1477 51.1504 45.1859 51.1321 45.2214C51.0914 45.3217 51.042 45.4183 50.9845 45.51C50.7926 45.814 50.5291 46.0663 50.217 46.2447C49.9039 46.4221 49.5517 46.519 49.192 46.5268C49.0822 46.5296 48.9725 46.5225 48.864 46.5055C48.8238 46.5032 48.7844 46.4938 48.7476 46.4776C48.7476 46.4661 48.9116 46.494 49.1838 46.4776C49.5332 46.4582 49.8735 46.3582 50.1779 46.1855C50.4823 46.0129 50.7427 45.7721 50.9386 45.4821C51.0944 45.264 51.1551 45.1 51.1682 45.1082Z" fill="#455A64"/>
<path d="M56.2798 58.4594C56.2798 58.4791 55.9961 58.5054 55.6517 58.5759C55.3073 58.6464 55.0351 58.73 55.0269 58.7104C55.2176 58.6079 55.4245 58.5391 55.6386 58.507C55.8479 58.4537 56.0649 58.4376 56.2798 58.4594Z" fill="#455A64"/>
<path d="M51.6157 32.2982L51.6452 33.1739C51.6452 33.1739 53.0753 36.0013 53.5657 36.7524C54.266 37.825 55.0778 39.2419 55.9962 40.5244C56.4373 41.1443 59.2548 43.5092 60.3307 44.5309C60.5204 44.7063 60.6564 44.932 60.7229 45.1817C60.7894 45.4314 60.7836 45.6948 60.7062 45.9413C60.6784 46.0266 60.2848 46.5973 60.2372 46.6613C60.2372 46.6613 61.5492 45.4838 61.2491 44.4981C60.949 43.5125 58.015 40.613 57.3442 39.3682C56.6276 38.0382 55.7321 35.9554 55.2729 35.073C54.8137 34.1907 54.5234 32.6606 54.5234 32.6606L52.5046 33.1526L51.6157 32.2982Z" fill="#D13939"/>
<path d="M54.2528 38.0792C54.1773 38.1792 53.6378 41.2394 53.6378 41.2394L54.6874 45.1754C54.6874 45.1754 54.4742 45.5641 52.9522 45.3148C51.7124 45.1098 47.063 44.7507 47.063 44.7507L46.8022 38.5187L48.0798 33.0083L51.6452 33.1624L54.2528 38.0792Z" fill="#91644E"/>
<path d="M47.8877 33.8217L50.5527 37.3658C50.6437 37.4855 50.7644 37.5794 50.9028 37.638C51.0413 37.6966 51.1927 37.718 51.342 37.6999C51.4913 37.6818 51.6333 37.625 51.7537 37.535C51.8742 37.445 51.969 37.325 52.0287 37.187C52.0322 37.1796 52.0349 37.1719 52.0369 37.164C52.2354 36.6491 52.6142 35.0222 52.6142 35.0222L54.3231 37.9742L55.5006 42.9204C55.5006 42.9204 52.7487 43.519 51.3547 43.7257L47.3006 44.3226L46.7856 38.5597L47.4794 35.2403L47.8877 33.8217Z" fill="#FAFAFA"/>
<path d="M54.4741 32.7032L58.374 29.8152L60.9488 26.1695L63.317 27.0452L63.1874 28.0538L62.8365 28.0063C61.9394 29.62 60.5077 31.757 60.283 32.1227C59.9189 32.7147 55.6106 36.7147 55.6106 36.7147L54.4741 32.7032Z" fill="#D13939"/>
<g opacity="0.3">
<path d="M47.7139 35.0501C47.7699 35.6788 47.7661 36.3114 47.7024 36.9394C47.4351 41.1935 49.9705 44.3358 49.8951 48.2373C49.0062 46.2546 47.9271 44.3981 47.2842 42.3251C46.5445 39.9278 46.6971 37.3437 47.7139 35.0501Z" fill="black"/>
</g>
<path d="M46.2347 33.1493L47.1285 33.1247L48.1978 32.3802L47.9206 34.0103C47.9206 34.0103 47.4286 36.6343 47.4138 37.9939C47.3843 40.8918 50.1854 46.9762 49.9903 48.6949C49.9903 48.6949 48.2207 47.9142 46.789 47.7568C45.4163 47.6059 44.8636 50.2496 44.8636 50.2496C44.8636 50.2496 44.6406 46.6236 44.8751 45.6084C45.105 44.758 45.3921 43.924 45.7345 43.1123L45.3048 38.394C45.336 38.7499 45.2654 38.1464 45.2654 38.1464C45.2654 38.1464 43.0842 40.8458 42.4348 40.7606C41.6984 40.6622 37.9953 38.1234 37.9953 38.1234L37.6673 38.6154L36.9556 37.6085L37.9396 35.3256L41.9215 37.1296L44.6078 34.0284C44.6078 34.0284 45.3032 33.1838 46.1674 33.1542" fill="#D13939"/>
<path d="M44.708 35.2485C44.7686 35.4085 44.8163 35.573 44.8507 35.7405C44.9278 36.0488 45.0245 36.4769 45.1131 36.9541C45.2016 37.4314 45.2673 37.8676 45.3017 38.1841C45.329 38.3538 45.3394 38.5257 45.3329 38.6974C45.2913 38.5312 45.2606 38.3625 45.241 38.1923C45.1918 37.8791 45.1197 37.4461 45.0295 36.9705L44.7916 35.752C44.7498 35.5868 44.7219 35.4184 44.708 35.2485Z" fill="#263238"/>
<g opacity="0.3">
<path d="M55.363 34.8024C55.6828 35.2944 55.9271 35.8832 55.8927 36.4752C55.8927 36.4752 54.4167 33.9775 54.1133 33.6102C54.6161 33.9061 55.0437 34.3141 55.363 34.8024Z" fill="black"/>
</g>
<path d="M54.5806 34.2973C54.6342 34.3571 54.682 34.4219 54.7232 34.4908C54.8085 34.6188 54.9299 34.8057 55.0775 35.0386C55.371 35.5044 55.7646 36.1538 56.1746 36.8885C56.5846 37.6232 56.9307 38.3006 57.1586 38.8057C57.2669 39.0582 57.3554 39.2632 57.4046 39.4092C57.4366 39.4825 57.4608 39.5589 57.4768 39.6372C57.4352 39.5692 57.4006 39.4972 57.3735 39.4223C57.3144 39.2796 57.2193 39.0796 57.1029 38.8303C56.8667 38.3383 56.5158 37.661 56.1058 36.9295C55.6958 36.1981 55.3104 35.5421 55.0299 35.0698L54.7019 34.5089C54.6551 34.4422 54.6144 34.3714 54.5806 34.2973Z" fill="#263238"/>
<path d="M47.2321 33.128C47.2216 33.3051 47.1974 33.4811 47.16 33.6544C47.1042 33.9824 47.0222 34.4236 46.9255 34.9156L46.8812 35.1403L46.8107 35.1009C47.1206 34.8172 47.3994 34.5663 47.6093 34.3826L47.6471 34.3498L47.6585 34.3974C47.705 34.5627 47.7374 34.7317 47.7553 34.9025C47.6906 34.743 47.639 34.5784 47.6011 34.4105L47.6487 34.4252C47.4486 34.6188 47.1764 34.8746 46.8681 35.1616L46.7729 35.2485L46.7975 35.1222L46.8418 34.8976C46.9369 34.4056 47.0288 33.9628 47.0993 33.6413C47.1291 33.4668 47.1736 33.2951 47.2321 33.128Z" fill="#263238"/>
<path d="M52.5047 33.1542C52.5874 33.2606 52.6604 33.3742 52.7228 33.4937C52.8507 33.7102 53.0262 34.0152 53.2148 34.3662L53.3066 34.5302L53.1541 34.4236C53.0557 34.3547 52.9524 34.2793 52.8491 34.2022C52.6633 34.0665 52.4859 33.9197 52.3177 33.7627L52.3833 33.725C52.4538 34.0398 52.5112 34.3104 52.5473 34.5007C52.5746 34.6002 52.59 34.7026 52.5932 34.8057C52.552 34.7114 52.5207 34.613 52.4998 34.5122C52.4489 34.3236 52.3817 34.0562 52.3046 33.743L52.2734 33.6134L52.3702 33.7053C52.5388 33.8569 52.715 33.9998 52.8983 34.1333L53.2017 34.3564L53.141 34.4105C52.9475 34.0579 52.7818 33.7463 52.6654 33.5232C52.5999 33.4058 52.546 33.2822 52.5047 33.1542Z" fill="#263238"/>
<path d="M51.6602 33.2248C51.6844 33.2588 51.7063 33.2944 51.7258 33.3314L51.9012 33.6446L52.5441 34.7926C53.0902 35.7635 53.8561 37.0984 54.727 38.5548C55.1338 39.2406 55.5795 39.9026 56.0619 40.5375C56.4773 41.0375 56.9289 41.5062 57.4133 41.9397C57.8233 42.3153 58.1628 42.6105 58.3973 42.8171L58.6646 43.0566C58.6962 43.0839 58.7258 43.1135 58.7532 43.1451C58.7181 43.1223 58.6847 43.0971 58.6531 43.0697L58.376 42.8434C58.1349 42.6449 57.7888 42.3514 57.3723 41.984C56.8786 41.5545 56.4196 41.0868 55.9996 40.5851C55.5113 39.9511 55.0621 39.2879 54.6548 38.599C53.779 37.1411 53.023 35.8012 52.4916 34.827C52.2243 34.335 52.0144 33.9382 51.8717 33.6626C51.8045 33.5282 51.752 33.4216 51.7077 33.3346C51.6882 33.2997 51.6723 33.2629 51.6602 33.2248Z" fill="#263238"/>
<g opacity="0.3">
<path d="M53.2243 34.4105C53.034 34.0284 52.8012 33.7397 52.6109 33.3576L52.5634 33.2608C52.9455 33.6889 53.2768 34.276 53.6048 34.7959C53.2512 34.6766 52.9246 34.4888 52.6437 34.2432C52.6149 34.4158 52.5963 34.5899 52.588 34.7647C52.5142 34.4367 52.4371 34.0923 52.3633 33.7676C52.3698 33.7676 52.934 34.2334 53.2243 34.4105Z" fill="black"/>
</g>
<g opacity="0.3">
<path d="M47.7585 34.9008L47.6109 34.6909L46.6269 35.6569C46.6098 35.5251 46.625 35.3912 46.6712 35.2666C46.7762 34.8877 46.932 34.422 47.0369 34.0431C46.9877 34.3859 46.8893 34.8156 46.8385 35.16C47.0992 34.9008 47.36 34.668 47.6339 34.4039L47.7585 34.9008Z" fill="black"/>
</g>
<g opacity="0.3">
<path d="M44.708 35.324C44.9114 36.0144 45.2279 37.4264 45.2656 38.1464C44.9065 37.451 44.608 36.098 44.708 35.324Z" fill="black"/>
</g>
<path d="M47.6043 35.9554C47.6041 36 47.5997 36.0444 47.5912 36.0882C47.5797 36.1751 47.5633 36.3014 47.5469 36.467C47.5157 36.795 47.4813 37.2723 47.4698 37.8627C47.4583 38.4531 47.4501 39.1616 47.6748 39.9127C47.87 40.6687 48.1258 41.4904 48.3882 42.3546C48.6506 43.2189 48.9343 44.0307 49.1688 44.7769C49.4034 45.5231 49.6018 46.2021 49.7363 46.7777C49.8468 47.2325 49.9328 47.6929 49.9938 48.157C50.0184 48.321 50.0249 48.4505 50.0331 48.5374C50.0378 48.5816 50.0378 48.6261 50.0331 48.6703C50.0213 48.6274 50.0136 48.5835 50.0102 48.5391C49.9954 48.4538 49.9839 48.3259 49.9544 48.1619C49.9052 47.8339 49.8134 47.3665 49.6707 46.7925C49.528 46.2185 49.3296 45.5444 49.0868 44.8015C48.8441 44.0586 48.567 43.2435 48.2997 42.3792C48.0323 41.515 47.7847 40.6933 47.5928 39.9324C47.5469 39.7421 47.501 39.5568 47.4682 39.3731C47.4374 39.1941 47.4182 39.0134 47.4108 38.8319C47.3927 38.4826 47.396 38.1579 47.4108 37.8627C47.4272 37.269 47.4731 36.7918 47.5141 36.4621C47.5354 36.2981 47.5567 36.1718 47.5731 36.0849C47.581 36.0412 47.5914 35.9979 47.6043 35.9554Z" fill="#263238"/>
<path d="M45.8379 43.132C46.045 43.1297 46.2518 43.1501 46.4545 43.1927C46.6607 43.2081 46.8647 43.2455 47.063 43.3042C46.8557 43.3292 46.6458 43.3204 46.4414 43.278C46.2336 43.263 46.0296 43.2137 45.8379 43.132Z" fill="#263238"/>
<path d="M39.1534 35.8734C38.9447 36.3493 38.7104 36.8135 38.4515 37.2641C38.2178 37.7284 37.9589 38.1795 37.6758 38.6154C37.8836 38.1405 38.1174 37.6773 38.3761 37.228C38.6098 36.7623 38.8693 36.3101 39.1534 35.8734Z" fill="#263238"/>
<path d="M60.2603 27.1748C60.4075 27.2084 60.5517 27.2539 60.6916 27.3109C60.9556 27.4011 61.3197 27.5241 61.7264 27.6488C62.1331 27.7734 62.5054 27.8751 62.7744 27.9472C62.9223 27.9773 63.0672 28.0206 63.2073 28.0768C63.0561 28.0685 62.9061 28.0448 62.7596 28.0063C62.4857 27.9489 62.1036 27.8554 61.7018 27.7308C61.3 27.6061 60.9294 27.4733 60.6703 27.3667C60.5267 27.3186 60.3891 27.2542 60.2603 27.1748Z" fill="#263238"/>
<path d="M49.5688 40.8819C49.6754 40.7784 49.79 40.6835 49.9116 40.5982C50.1264 40.4342 50.42 40.1898 50.7316 39.9127C51.0432 39.6355 51.3154 39.3731 51.509 39.1812C51.6101 39.071 51.7197 38.969 51.837 38.8762C51.7571 39.0015 51.6636 39.1176 51.5582 39.2222C51.0743 39.7517 50.5362 40.2288 49.9526 40.6458C49.8346 40.7396 49.7058 40.8189 49.5688 40.8819Z" fill="#263238"/>
<g opacity="0.3">
<path d="M48.7078 41.5232C49.2719 41.059 50.4052 40.444 51.1678 39.5699L51.2432 39.5781C50.6167 40.4818 49.946 41.4248 48.9472 41.8938C48.8226 41.9528 48.6471 41.9906 48.5733 41.8741C48.4995 41.7577 48.6028 41.6101 48.7078 41.5232Z" fill="black"/>
</g>
<path d="M53.3248 26.8714C53.3248 26.8714 53.3822 28.2457 54.3416 29.1248C54.7434 29.4938 55.5519 29.6348 55.7651 30.1366L55.8225 30.3859C55.8225 30.3859 52.3785 32.5852 51.1567 32.6606L50.1284 30.1301L53.3248 26.8714Z" fill="#263238"/>
<path d="M46.6087 28.0735C46.8891 26.8632 46.9957 25.4495 48.001 24.6672C48.7472 24.0818 49.5984 23.9194 50.5463 23.9588C51.0412 24.0082 51.5189 24.1667 51.9452 24.4229C52.5028 24.7394 52.739 25.379 53.008 25.9596C53.5459 27.124 53.4786 28.7 53.1129 29.1379L48.2487 31.7078C47.2762 31.2026 46.6677 31.0009 46.5135 29.7053C46.4508 29.16 46.483 28.6079 46.6087 28.0735Z" fill="#263238"/>
<path d="M48.8245 25.2806L51.1681 24.7246C52.1521 24.582 52.8606 25.7742 52.9622 26.7664C53.0754 27.8685 53.1705 29.2166 53.0721 30.0464C52.8737 31.7127 51.6125 31.9734 51.6125 31.9734C51.6125 31.9734 51.6125 31.998 51.6125 32.4917L51.6601 33.292C51.6788 33.6154 51.5836 33.9351 51.3911 34.1956C50.9401 34.7811 50.1168 34.8516 49.146 34.5007C48.5834 34.2924 48.3506 33.5577 48.3079 32.987L47.8454 26.2236C47.8192 25.912 48.5244 25.3249 48.8245 25.2806Z" fill="#91644E"/>
<path d="M52.6259 28.3474C52.6287 28.4027 52.6096 28.4569 52.5728 28.4983C52.536 28.5397 52.4844 28.565 52.4291 28.5688C52.4022 28.5722 52.3749 28.5702 52.3489 28.5628C52.3228 28.5554 52.2984 28.5429 52.2773 28.5259C52.2562 28.5089 52.2387 28.4878 52.2259 28.4639C52.2131 28.44 52.2053 28.4138 52.2028 28.3868C52.2005 28.3314 52.2197 28.2772 52.2564 28.2357C52.2931 28.1941 52.3444 28.1683 52.3996 28.1637C52.4266 28.1605 52.454 28.1628 52.4801 28.1704C52.5061 28.1779 52.5305 28.1907 52.5516 28.2078C52.5727 28.2249 52.5901 28.2461 52.6029 28.2701C52.6157 28.294 52.6235 28.3203 52.6259 28.3474Z" fill="#263238"/>
<path d="M52.7061 27.7652C52.6815 27.7947 52.5158 27.6816 52.2879 27.6914C52.0599 27.7012 51.8959 27.821 51.8697 27.7947C51.8434 27.7685 51.8812 27.7308 51.9533 27.675C52.0482 27.6036 52.1626 27.5629 52.2813 27.5586C52.3977 27.5549 52.5123 27.5876 52.6093 27.652C52.693 27.7029 52.7192 27.7521 52.7061 27.7652Z" fill="#263238"/>
<path d="M50.5728 28.3474C50.5755 28.4027 50.5564 28.4569 50.5196 28.4983C50.4828 28.5397 50.4313 28.565 50.376 28.5688C50.3491 28.5722 50.3218 28.5702 50.2957 28.5628C50.2696 28.5554 50.2453 28.5429 50.2242 28.5259C50.203 28.5089 50.1855 28.4878 50.1727 28.4639C50.16 28.44 50.1521 28.4138 50.1497 28.3868C50.1469 28.3315 50.1658 28.2774 50.2022 28.2358C50.2386 28.1942 50.2897 28.1683 50.3448 28.1637C50.3719 28.1605 50.3993 28.1628 50.4255 28.1703C50.4517 28.1779 50.4762 28.1906 50.4974 28.2077C50.5186 28.2248 50.5362 28.246 50.5492 28.2699C50.5621 28.2939 50.5701 28.3203 50.5728 28.3474Z" fill="#263238"/>
<path d="M50.6055 27.7652C50.5809 27.7947 50.4153 27.6816 50.1857 27.6914C49.9561 27.7012 49.7953 27.821 49.7691 27.7947C49.7429 27.7685 49.7806 27.7308 49.8511 27.675C49.9462 27.604 50.0605 27.5634 50.1791 27.5586C50.2982 27.5533 50.416 27.586 50.5153 27.652C50.5924 27.7029 50.6186 27.7521 50.6055 27.7652Z" fill="#263238"/>
<path d="M51.3481 29.274C51.4672 29.2317 51.5912 29.2047 51.7171 29.1936C51.7745 29.1936 51.8303 29.1707 51.8385 29.1313C51.8392 29.0734 51.8232 29.0165 51.7926 28.9673L51.6023 28.5294C51.3367 27.9062 51.1431 27.3929 51.1694 27.3814C51.3727 27.7374 51.5481 28.1086 51.6942 28.4917C51.7565 28.6459 51.8188 28.7918 51.8762 28.9329C51.9156 29.0019 51.9295 29.0826 51.9156 29.1608C51.9081 29.1817 51.8959 29.2005 51.88 29.2158C51.864 29.2312 51.8448 29.2427 51.8237 29.2494C51.7912 29.2595 51.7577 29.2655 51.7237 29.2674C51.5993 29.2856 51.4731 29.2878 51.3481 29.274Z" fill="#263238"/>
<path d="M51.6122 31.98C50.8299 32.0224 50.0512 31.8457 49.3638 31.47C49.3638 31.47 49.9575 32.6065 51.6106 32.3867L51.6122 31.98Z" fill="#4A3124"/>
<path d="M50.6024 29.7742C50.629 29.7295 50.6664 29.6922 50.711 29.6656C50.7557 29.639 50.8063 29.6239 50.8582 29.6217C50.9303 29.6124 51.0035 29.6227 51.0702 29.6516C51.1369 29.6804 51.1945 29.7268 51.2371 29.7857C51.2679 29.8417 51.2767 29.9072 51.2617 29.9694C51.2486 30.0005 51.2617 29.9841 51.2354 30.0071C51.1575 30.0935 51.0595 30.1593 50.9501 30.199C50.891 30.2166 50.828 30.2158 50.7695 30.1968C50.7109 30.1778 50.6595 30.1413 50.6221 30.0924C50.5905 30.046 50.5719 29.992 50.5685 29.936C50.565 29.88 50.5767 29.8241 50.6024 29.7742Z" fill="#4A3124"/>
<path d="M50.6417 29.4692C50.6778 29.4692 50.6892 29.7135 50.9106 29.8792C51.132 30.0448 51.3928 30.0071 51.4026 30.0432C51.4125 30.0792 51.3469 30.094 51.2386 30.1022C51.0931 30.1103 50.9492 30.0674 50.8319 29.9808C50.7202 29.8977 50.6454 29.7741 50.6236 29.6364C50.599 29.5315 50.6236 29.4692 50.6417 29.4692Z" fill="#263238"/>
<path d="M50.5446 26.955C50.5282 27.019 50.297 27.0124 50.0329 27.0698C49.7689 27.1272 49.5606 27.2224 49.5196 27.1699C49.5016 27.1453 49.5327 27.083 49.6147 27.0157C49.7237 26.9307 49.8507 26.8717 49.986 26.8433C50.1213 26.8149 50.2613 26.8177 50.3954 26.8517C50.497 26.8812 50.5512 26.9255 50.5446 26.955Z" fill="#263238"/>
<path d="M52.6881 27.1502C52.6356 27.1945 52.4699 27.1158 52.26 27.083C52.0501 27.0502 51.8681 27.0616 51.8353 27.0026C51.8205 26.9731 51.8566 26.9255 51.9402 26.8894C52.0549 26.8443 52.1799 26.8324 52.301 26.855C52.423 26.8725 52.5371 26.9255 52.629 27.0075C52.6946 27.0715 52.711 27.1272 52.6881 27.1502Z" fill="#263238"/>
<path d="M51.1255 24.5459C51.1255 24.5593 51.1255 24.571 51.1338 24.5827L51.1255 24.5459Z" fill="#263238"/>
<path d="M50.7692 31.7078C50.7151 31.2469 49.7164 30.2088 49.3703 29.9038C48.7602 29.356 48.4437 28.9821 48.7602 27.8242C49.183 27.755 49.5661 27.534 49.8377 27.2027C50.149 26.7969 50.3947 26.3448 50.5659 25.8628C50.5528 26.3288 50.3952 26.7793 50.1149 27.1518C50.2078 27.1665 50.3029 27.1594 50.3926 27.1309C50.4822 27.1024 50.5641 27.0535 50.6315 26.9878C50.7644 26.8539 50.8677 26.6935 50.9349 26.5172C51.1139 26.0974 51.2134 25.6481 51.2284 25.192C51.29 25.8451 51.2163 26.5039 51.012 27.1272C51.1313 27.1052 51.254 27.1102 51.3711 27.142C51.4301 27.1568 51.4917 27.1578 51.5511 27.145C51.6105 27.1322 51.6662 27.1059 51.7139 27.0682C51.7664 27.0052 51.7994 26.9283 51.809 26.8468C51.9229 26.292 51.9412 25.7218 51.8631 25.1609C52.0204 25.4592 52.1478 25.7723 52.2436 26.0957C52.3373 26.4215 52.3373 26.767 52.2436 27.0928C52.2712 27.1198 52.3083 27.135 52.3469 27.135C52.3856 27.135 52.4227 27.1198 52.4502 27.0928C52.5019 27.0349 52.5336 26.9618 52.5404 26.8845C52.5676 26.6035 52.5488 26.3198 52.4847 26.0448C52.6291 26.3477 52.7375 26.6663 52.8078 26.9944C52.9073 27.3081 53.1194 27.5739 53.4031 27.7406C53.4506 27.2486 53.3588 27.019 53.285 26.5647C53.2092 26.2126 53.0838 25.873 52.9127 25.5561C52.7517 25.2037 52.5233 24.8861 52.2403 24.6213C51.7483 24.1933 51.5482 24.377 51.2366 24.541L51.2006 24.5557C51.2006 24.5557 51.2006 24.541 51.2006 24.5328L51.1874 24.4672C50.3719 24.2847 49.5224 24.3244 48.7274 24.582C48.06 24.8413 47.4949 25.3104 47.117 25.9186C47.117 25.9284 47.1055 25.9382 47.1006 25.9497C45.6246 28.7377 46.338 30.3892 47.1776 32.5999L48.8537 32.285L48.3191 31.1698L49.0013 32.3047L50.7692 31.7078Z" fill="#263238"/>
<path d="M51.1155 31.488C51.1018 31.2544 51.0278 31.0284 50.9007 30.832C50.7584 30.6236 50.5781 30.4439 50.3693 30.3023C50.1381 30.1383 49.856 29.9858 49.5788 29.7922C49.3109 29.6134 49.0925 29.3697 48.9442 29.0838C48.826 28.8502 48.7589 28.5941 48.7473 28.3326C48.7383 28.157 48.7566 27.9811 48.8015 27.8111C48.8132 27.7651 48.8285 27.7202 48.8474 27.6766C48.8589 27.6471 48.8671 27.6324 48.8703 27.6324C48.8174 27.8601 48.7965 28.0942 48.808 28.3277C48.8282 28.6075 48.9127 28.8789 49.0549 29.1207C49.1971 29.3625 49.3933 29.5682 49.628 29.7217C49.897 29.912 50.1807 30.0628 50.4136 30.2383C50.6279 30.3889 50.8107 30.58 50.9515 30.8008C51.0412 30.951 51.0972 31.1189 51.1155 31.2928C51.1301 31.3571 51.1301 31.4238 51.1155 31.488Z" fill="#263238"/>
<path d="M34.7682 12.3C34.7682 12.7789 34.7682 13.2594 34.7682 13.7399C34.7682 15.0344 34.7627 16.3289 34.7518 17.6234C34.743 19.551 34.7343 21.478 34.7255 23.4044L34.696 30.4089L34.6616 38.1333C34.6506 40.7146 34.6397 43.2965 34.6288 45.879C34.6178 48.3007 34.6069 50.7241 34.596 53.1491L34.5697 59.2516L34.55 63.6697C34.55 64.3634 34.5336 65.0572 34.5418 65.7492V65.8411C34.5418 66.0586 34.6282 66.2671 34.782 66.4209C34.9358 66.5747 35.1444 66.6611 35.3618 66.6611C35.5793 66.6611 35.7879 66.5747 35.9417 66.4209C36.0955 66.2671 36.1818 66.0586 36.1818 65.8411C36.1818 65.3611 36.1818 64.8811 36.1818 64.4012C36.1818 63.1056 36.1873 61.8105 36.1982 60.516L36.2228 54.735C36.2327 52.4007 36.2431 50.0659 36.254 47.7306C36.266 45.1558 36.277 42.581 36.2868 40.0062L36.3212 32.2621C36.3311 29.8382 36.3415 27.4148 36.3524 24.992L36.3786 18.8895L36.3983 14.4697C36.3983 13.7776 36.4147 13.0839 36.4082 12.3902C36.4082 12.3607 36.4082 12.3295 36.4082 12.3C36.4082 12.0825 36.3218 11.874 36.168 11.7202C36.0142 11.5664 35.8056 11.48 35.5882 11.48C35.3707 11.48 35.1621 11.5664 35.0083 11.7202C34.8546 11.874 34.7682 12.0825 34.7682 12.3Z" fill="#D13939"/>
<g opacity="0.6">
<path d="M34.7682 12.3C34.7682 12.7789 34.7682 13.2594 34.7682 13.7399C34.7682 15.0344 34.7627 16.3289 34.7518 17.6234C34.743 19.551 34.7343 21.478 34.7255 23.4044L34.696 30.4089L34.6616 38.1333C34.6506 40.7146 34.6397 43.2965 34.6288 45.879C34.6178 48.3007 34.6069 50.7241 34.596 53.1491L34.5697 59.2516L34.55 63.6697C34.55 64.3634 34.5336 65.0572 34.5418 65.7492V65.8411C34.5418 66.0586 34.6282 66.2671 34.782 66.4209C34.9358 66.5747 35.1444 66.6611 35.3618 66.6611C35.5793 66.6611 35.7879 66.5747 35.9417 66.4209C36.0955 66.2671 36.1818 66.0586 36.1818 65.8411C36.1818 65.3611 36.1818 64.8811 36.1818 64.4012C36.1818 63.1056 36.1873 61.8105 36.1982 60.516L36.2228 54.735C36.2327 52.4007 36.2431 50.0659 36.254 47.7306C36.266 45.1558 36.277 42.581 36.2868 40.0062L36.3212 32.2621C36.3311 29.8382 36.3415 27.4148 36.3524 24.992L36.3786 18.8895L36.3983 14.4697C36.3983 13.7776 36.4147 13.0839 36.4082 12.3902C36.4082 12.3607 36.4082 12.3295 36.4082 12.3C36.4082 12.0825 36.3218 11.874 36.168 11.7202C36.0142 11.5664 35.8056 11.48 35.5882 11.48C35.3707 11.48 35.1621 11.5664 35.0083 11.7202C34.8546 11.874 34.7682 12.0825 34.7682 12.3Z" fill="black"/>
</g>
<path d="M34.7563 14.432C36.3963 14.1762 37.7559 14.0515 39.2827 14.596C40.0453 14.8666 40.8669 15.557 41.6968 15.6161C42.4446 15.6702 43.1728 15.3848 43.9141 15.2881C45.0883 15.1388 46.3314 15.5013 47.1219 16.2212C47.1219 16.2212 45.2457 15.6276 43.6353 16.7329C42.0248 17.8383 41.4836 18.8649 39.3401 18.186C37.9805 17.753 35.4221 17.9514 34.7202 18.76L34.7563 14.432Z" fill="#D13939"/>
<path d="M34.7563 14.432C34.7577 14.4582 34.7577 14.4845 34.7563 14.5107C34.7563 14.5648 34.7563 14.6403 34.7563 14.7354V15.598C34.7563 16.3459 34.7563 17.4234 34.7449 18.7583L34.6924 18.7386C34.9583 18.4831 35.2843 18.2986 35.6403 18.2024C36.019 18.0853 36.4086 18.0067 36.8031 17.9678C37.2263 17.9235 37.6524 17.9131 38.0773 17.9367C38.5307 17.9569 38.9798 18.034 39.4139 18.1663C39.8585 18.3192 40.3292 18.3811 40.7981 18.3483C41.2854 18.2896 41.7478 18.1004 42.1363 17.8006C42.5447 17.5103 42.9367 17.1741 43.3631 16.869C43.5748 16.7093 43.7998 16.5677 44.0355 16.4459L44.2159 16.3574L44.4045 16.2852C44.53 16.2351 44.6588 16.1934 44.7899 16.1606C45.5586 15.9649 46.3648 15.9717 47.1301 16.1802L47.0891 16.2508C46.417 15.6767 45.5728 15.3432 44.6898 15.3028C44.2766 15.2844 43.8628 15.3225 43.4598 15.416C43.0613 15.4964 42.6743 15.598 42.2839 15.644C42.0914 15.668 41.897 15.674 41.7034 15.662C41.5147 15.6453 41.329 15.6045 41.1507 15.5406C40.8174 15.4151 40.4953 15.2615 40.188 15.0814C39.9047 14.9151 39.6099 14.7693 39.3057 14.6452C38.5361 14.3609 37.7201 14.2235 36.8998 14.2401C36.4455 14.2401 36.0552 14.2811 35.7387 14.3156C35.4222 14.35 35.1762 14.3828 35.0122 14.4041L34.8252 14.4287H34.758L34.8203 14.4156L35.0073 14.3828C35.1713 14.3566 35.4173 14.3172 35.7354 14.2778C36.1218 14.2288 36.5105 14.1998 36.8998 14.1909C37.4204 14.1777 37.9408 14.2228 38.4513 14.3254C38.7486 14.3895 39.0417 14.4722 39.3287 14.573C39.6357 14.6972 39.9338 14.8424 40.2208 15.0076C40.5258 15.1849 40.8451 15.3363 41.1753 15.4603C41.348 15.5207 41.5276 15.5593 41.7099 15.5751C41.8993 15.5856 42.0892 15.5791 42.2774 15.5554C42.6595 15.5095 43.0449 15.4078 43.4467 15.3242C43.8581 15.2319 44.2803 15.1966 44.7013 15.2192C45.6031 15.2579 46.4659 15.598 47.1515 16.1852L47.2843 16.3032L47.1105 16.2573C46.3593 16.0546 45.5687 16.0484 44.8145 16.2393C44.6866 16.2728 44.5607 16.3133 44.4373 16.3606L44.2536 16.4328L44.0765 16.5197C43.8465 16.6393 43.6271 16.7781 43.4205 16.9346C42.9973 17.238 42.6005 17.571 42.1921 17.8645C41.7917 18.1722 41.3159 18.3665 40.8145 18.427C40.3349 18.4591 39.8537 18.395 39.3992 18.2384C38.9732 18.1073 38.5324 18.0302 38.0872 18.0088C37.6662 17.9828 37.2439 17.9916 36.8244 18.0351C36.4351 18.0721 36.0506 18.1479 35.6764 18.2614C35.3304 18.3523 35.0129 18.5289 34.7531 18.7747L34.7006 18.8321V18.755C34.7203 17.4119 34.7334 16.3295 34.7449 15.5784C34.7449 15.2094 34.7563 14.9224 34.7596 14.7223C34.7596 14.6288 34.7596 14.5583 34.7596 14.5025C34.7596 14.4468 34.7563 14.432 34.7563 14.432Z" fill="#263238"/>
<path d="M42.9682 16.072C42.9682 16.0851 42.7861 16.1556 42.5336 16.3508C42.3865 16.466 42.2463 16.5898 42.1137 16.7214C41.9612 16.869 41.7989 17.038 41.6119 17.202C41.4389 17.3612 41.2439 17.4949 41.033 17.5988C40.8585 17.6819 40.6698 17.7309 40.477 17.7432C40.3465 17.7505 40.2158 17.7332 40.0916 17.6923C40.0457 17.6804 40.0027 17.6592 39.9653 17.63C40.1299 17.6767 40.3014 17.6945 40.4721 17.6825C40.6557 17.6633 40.8341 17.6105 40.9985 17.5267C41.2009 17.4226 41.3885 17.2919 41.5561 17.138C41.7382 16.974 41.9022 16.81 42.058 16.664C42.1956 16.5329 42.3425 16.4117 42.4975 16.3016C42.603 16.2277 42.7156 16.1645 42.8337 16.113C42.8755 16.091 42.9212 16.077 42.9682 16.072Z" fill="#263238"/>
<g opacity="0.3">
<path d="M39.9666 17.7858C39.368 17.5234 38.9252 17.2397 38.3266 16.9773C38.0629 16.8885 37.8282 16.7298 37.6476 16.5181C37.55 16.3722 37.504 16.198 37.5167 16.023C37.5295 15.848 37.6004 15.6822 37.7181 15.5521C38.0133 15.2438 38.5168 15.2356 38.9137 15.3881C39.3106 15.5406 39.6337 15.8375 39.9863 16.0802C40.3389 16.3229 40.7538 16.5246 41.1753 16.4623C41.5033 16.4148 41.7952 16.2098 42.0838 16.0326C42.3725 15.8555 42.7021 15.7046 43.0334 15.7588C43.1187 15.7752 43.3023 15.8047 43.3319 15.8867C43.3614 15.9687 43.2515 15.9851 43.1269 16.0097C43.0355 16.0321 42.947 16.0646 42.8628 16.1064C42.5579 16.2528 42.2857 16.4592 42.0625 16.7132C41.7821 17.0245 41.4642 17.2999 41.1162 17.5332C40.7748 17.7489 40.3683 17.8371 39.9682 17.7825" fill="black"/>
</g>
<path d="M55.8865 29.4462C55.8042 29.443 55.7224 29.432 55.6421 29.4134C55.4198 29.3746 55.2005 29.3198 54.9861 29.2494C54.6621 29.154 54.3642 28.9857 54.1153 28.7574C53.9718 28.6159 53.8556 28.4491 53.7725 28.2654C53.6873 28.0692 53.6203 27.8655 53.5724 27.657C53.4923 27.2596 53.3827 26.8687 53.2444 26.4876C53.1277 26.1777 52.9862 25.8777 52.8213 25.5906C52.7109 25.3964 52.5904 25.2081 52.4605 25.0264C52.4096 24.9616 52.3636 24.893 52.3228 24.8214C52.3228 24.8214 52.3408 24.8345 52.3687 24.8657C52.411 24.9106 52.4509 24.9577 52.4884 25.0067C52.6279 25.183 52.7567 25.3675 52.8738 25.5594C53.0476 25.8456 53.1963 26.1463 53.3182 26.4581C53.4624 26.8416 53.5759 27.2359 53.6577 27.6373C53.7241 28.0329 53.9015 28.4014 54.1694 28.7C54.4069 28.9268 54.6921 29.0977 55.0042 29.2002C55.2154 29.2735 55.4306 29.3348 55.6487 29.3839C55.7296 29.3975 55.8092 29.4183 55.8865 29.4462Z" fill="#263238"/>
<path d="M36.7767 35.1386L36.1585 34.7549L34.5775 33.9201C34.5775 33.9201 34.2626 34.2252 34.794 34.6647L35.45 35.1829C35.45 35.1829 36.0355 36.2424 36.1552 36.3309C36.3651 36.4785 36.8112 36.4277 36.8112 36.4277" fill="#91644E"/>
<path d="M36.8067 36.4244C36.7586 36.4404 36.708 36.4476 36.6574 36.4457C36.5157 36.4569 36.3732 36.4408 36.2376 36.3982C36.1893 36.3822 36.1451 36.3559 36.108 36.3211C36.0741 36.2807 36.0424 36.2385 36.0129 36.1948C35.9506 36.1062 35.8899 36.0095 35.8259 35.9045C35.6964 35.6962 35.5586 35.4601 35.4127 35.201L35.4241 35.2141L35.0043 34.8861C34.8455 34.7754 34.7007 34.646 34.573 34.5007C34.5028 34.4147 34.4585 34.3107 34.4451 34.2006C34.4399 34.1446 34.4464 34.0881 34.4642 34.0347C34.482 33.9814 34.5107 33.9323 34.5484 33.8906L34.5681 33.8693L34.5976 33.884C35.2323 34.2219 35.7849 34.5204 36.172 34.7319L36.6197 35.0238C36.6752 35.0571 36.7273 35.0955 36.7755 35.1386C36.7185 35.1137 36.6636 35.0841 36.6115 35.0501L36.149 34.7778C35.7554 34.5794 35.1978 34.2858 34.5615 33.9578H34.6107C34.582 33.9906 34.5604 34.0289 34.5472 34.0704C34.5339 34.1118 34.5293 34.1556 34.5336 34.1989C34.5453 34.2932 34.5841 34.382 34.6451 34.4548C34.7683 34.5948 34.9075 34.7198 35.0601 34.827L35.4766 35.155C35.6193 35.4125 35.7538 35.647 35.8768 35.8619C35.9391 35.9668 35.9965 36.0652 36.0555 36.1538C36.0816 36.1963 36.1107 36.2368 36.1425 36.2752C36.1725 36.3057 36.2089 36.3292 36.2491 36.344C36.3784 36.3884 36.5141 36.4111 36.6509 36.4113C36.703 36.4122 36.7551 36.4166 36.8067 36.4244Z" fill="#4A3124"/>
<path d="M61.3227 66.2052C61.3227 66.2052 60.1879 69.8902 58.6299 73.0095H17.0985L16.6672 72.5536C13.7827 69.5235 11.6228 65.8788 10.3499 61.8936C10.1072 61.1261 9.96614 60.5701 10.0219 60.4553L61.3227 66.2052Z" fill="#455A64"/>
<path d="M9.35616 62.7169L61.6394 66.256C61.9803 66.279 62.3165 66.1656 62.5739 65.9408C62.8313 65.716 62.9889 65.3981 63.012 65.0572C63.035 64.716 62.9217 64.3797 62.6969 64.122C62.4721 63.8643 62.1543 63.7064 61.8132 63.6828L9.53 60.1454C9.36111 60.1338 9.1916 60.1556 9.03116 60.2096C8.87073 60.2636 8.72252 60.3487 8.59501 60.4601C8.46751 60.5714 8.36323 60.7068 8.28812 60.8585C8.21301 61.0103 8.16856 61.1753 8.15732 61.3442C8.14573 61.5131 8.16756 61.6826 8.22157 61.843C8.27557 62.0035 8.36069 62.1517 8.47204 62.2792C8.58339 62.4067 8.7188 62.511 8.87051 62.5861C9.02222 62.6612 9.18725 62.7056 9.35616 62.7169Z" fill="#263238"/>
<path d="M10.2041 62.7333L61.7706 66.2872L10.2041 62.7333Z" fill="#A86B62"/>
<path d="M61.7706 66.2872C61.7706 66.3101 50.2234 65.5344 35.9849 64.552C21.7464 63.5697 10.2025 62.7579 10.2041 62.7333C10.2057 62.7087 21.7481 63.486 35.9915 64.4684C50.2349 65.4508 61.7723 66.256 61.7706 66.2872Z" fill="#263238"/>
<path d="M60.5834 68.3749C60.5834 68.3995 49.6938 67.8468 36.2655 67.1449C22.8372 66.443 11.9476 65.8509 11.9492 65.8329C11.9509 65.8148 22.8372 66.3593 36.2688 67.0645C49.7004 67.7697 60.5851 68.3519 60.5834 68.3749Z" fill="#E0E0E0"/>
<path d="M59.4912 71.1432C59.4912 71.1678 49.3051 70.7693 36.7444 70.2543C24.1836 69.7394 13.9976 69.3015 13.9976 69.2785C13.9976 69.2556 24.182 69.6524 36.7476 70.169C49.3133 70.6856 59.4912 71.1202 59.4912 71.1432Z" fill="#E0E0E0"/>
<path d="M20.5985 66.3134C20.5563 65.8418 20.5421 65.3681 20.5559 64.8948C20.5421 64.4221 20.5563 63.9489 20.5985 63.4778C20.6417 63.9488 20.656 64.4221 20.6412 64.8948C20.656 65.3681 20.6418 65.8419 20.5985 66.3134Z" fill="#E0E0E0"/>
<path d="M31.6325 73.0095C31.589 72.5188 31.5747 72.0259 31.5898 71.5335C31.5747 71.0411 31.5889 70.5482 31.6325 70.0575C31.675 70.5483 31.6892 71.0411 31.6751 71.5335C31.6892 72.0259 31.675 72.5187 31.6325 73.0095Z" fill="#E0E0E0"/>
<path d="M47.527 67.691C47.4702 66.8933 47.4702 66.0926 47.527 65.295C47.5839 66.0926 47.5839 66.8933 47.527 67.691Z" fill="#E0E0E0"/>
<path d="M39.9585 70.3429C39.9153 69.839 39.901 69.333 39.9158 68.8275C39.901 68.322 39.9153 67.8161 39.9585 67.3122C40.0007 67.8161 40.0149 68.322 40.0011 68.8275C40.0149 69.333 40.0007 69.8389 39.9585 70.3429Z" fill="#E0E0E0"/>
<path d="M9.67578 74.7102C11.5191 72.5159 13.1641 71.3761 15.7438 70.4757C18.3511 69.5758 21.2005 69.6816 23.7339 70.7726C25.3165 71.4614 26.8499 72.5503 28.5702 72.447C30.3644 72.3388 31.8371 70.953 33.5919 70.5626C36.9063 69.8279 40.1978 72.7668 43.5254 72.101C45.0883 71.7894 46.4479 70.7053 48.0354 70.5856C50.2969 70.4216 52.2781 72.2256 54.5429 72.3748C56.3928 72.4962 58.1935 71.4876 60.0353 71.6975C61.5851 71.873 62.8938 72.8783 64.2993 73.5442C65.7047 74.21 65.7835 74.333 68.6731 74.602" fill="white"/>
<path d="M68.6701 74.602L68.5061 74.5905L68.0321 74.5478C67.4238 74.4983 66.8184 74.4178 66.2183 74.3068C65.7847 74.2181 65.3639 74.0759 64.9653 73.8836C64.5274 73.6786 64.0486 73.4622 63.5516 73.1916C63.0547 72.921 62.5332 72.6208 61.9592 72.3404C61.3595 72.0337 60.7135 71.8276 60.047 71.7303C59.6871 71.6942 59.3245 71.6942 58.9646 71.7303C58.5881 71.7707 58.2141 71.832 57.8444 71.914C57.0884 72.078 56.3078 72.2961 55.473 72.388C55.0479 72.4396 54.618 72.4363 54.1938 72.3781C53.7574 72.3136 53.328 72.2082 52.9113 72.0632C52.0667 71.773 51.2434 71.3646 50.3644 71.0415C49.4854 70.7184 48.526 70.502 47.56 70.684C46.594 70.866 45.7068 71.3613 44.7605 71.7451C44.283 71.9492 43.7824 72.0946 43.2698 72.178C42.7462 72.2486 42.2156 72.2486 41.6921 72.178C40.6359 72.0468 39.6126 71.6992 38.5876 71.358C37.5626 71.0169 36.5441 70.6643 35.4994 70.538C34.9835 70.4683 34.4606 70.4683 33.9447 70.538C33.4382 70.6159 32.9448 70.7633 32.4786 70.9759C31.5438 71.3777 30.686 71.9206 29.7447 72.2371C29.281 72.4006 28.7932 72.4854 28.3015 72.488C27.8212 72.4806 27.345 72.3993 26.8894 72.2469C25.9874 71.9599 25.1822 71.5089 24.3835 71.1202C23.9866 70.9223 23.587 70.7463 23.1847 70.5922C22.9813 70.5233 22.7829 70.4446 22.5779 70.3872L22.2745 70.297L21.9711 70.2199C19.8011 69.6849 17.5197 69.8215 15.4291 70.6118C14.8641 70.8171 14.3121 71.0565 13.776 71.3285C13.3094 71.5663 12.859 71.8348 12.4279 72.1321C12.0678 72.3872 11.7213 72.6609 11.3898 72.9521C10.9339 73.357 10.5013 73.7873 10.0942 74.2412C9.95315 74.3937 9.85147 74.5167 9.77931 74.597C9.70715 74.6774 9.66943 74.7168 9.66943 74.7168C9.66943 74.7168 9.70387 74.6725 9.77275 74.5905C9.84163 74.5085 9.93675 74.3855 10.0811 74.2297C10.4835 73.7705 10.9128 73.3357 11.3668 72.9275C11.6987 72.6367 12.0452 72.363 12.405 72.1075C12.8355 71.8068 13.2858 71.5356 13.753 71.2957C14.2922 71.0184 14.8475 70.7736 15.416 70.5626C16.0499 70.3227 16.7042 70.1404 17.3709 70.0182C18.9045 69.74 20.4794 69.7863 21.994 70.1543L22.3007 70.2314L22.6058 70.3216C22.8108 70.379 23.0108 70.4577 23.2158 70.5266C23.6215 70.6807 24.0244 70.8573 24.4245 71.0563C25.2232 71.445 26.0284 71.8927 26.919 72.1764C27.3674 72.3246 27.8358 72.4037 28.308 72.4109C28.7909 72.4083 29.2699 72.3246 29.725 72.1633C30.6532 71.85 31.5093 71.3088 32.4507 70.9021C32.924 70.6869 33.4244 70.5374 33.9382 70.4577C34.4622 70.3863 34.9935 70.3863 35.5175 70.4577C36.572 70.5905 37.5954 70.9415 38.622 71.2875C39.6486 71.6336 40.6654 71.978 41.7085 72.1075C42.2244 72.1772 42.7473 72.1772 43.2632 72.1075C43.7708 72.0263 44.2665 71.8831 44.7392 71.6811C45.6822 71.3006 46.5744 70.8021 47.5551 70.6168C48.0386 70.5275 48.5338 70.5209 49.0196 70.5971C49.4922 70.6723 49.9556 70.7971 50.4021 70.9694C51.2861 71.2974 52.1077 71.7057 52.9458 71.9944C53.3574 72.1392 53.7819 72.2447 54.2135 72.3092C54.6317 72.3663 55.0555 72.3702 55.4746 72.3207C56.3028 72.2322 57.0818 72.0124 57.8412 71.8533C58.213 71.7716 58.5892 71.7108 58.9678 71.6713C59.3321 71.6352 59.6991 71.6352 60.0634 71.6713C60.736 71.7702 61.3877 71.9796 61.992 72.2912C62.5676 72.5749 63.0892 72.88 63.5844 73.1489C64.0797 73.4179 64.5553 73.6409 64.9916 73.8476C65.387 74.04 65.8044 74.1832 66.2347 74.274C67.012 74.438 67.6287 74.4822 68.0387 74.5314L68.5126 74.5823L68.6701 74.602Z" fill="#263238"/>
<path d="M13.4478 69.9575C12.5737 69.221 11.4959 68.7685 10.3581 68.6602C9.9853 68.6122 9.60662 68.6424 9.24615 68.7488C9.06706 68.804 8.90155 68.8962 8.76031 69.0193C8.61906 69.1425 8.50522 69.2939 8.42615 69.4638C8.35189 69.6365 8.33363 69.8281 8.37394 70.0116C8.41424 70.1952 8.51108 70.3615 8.65083 70.4872C8.76876 70.5697 8.90251 70.6269 9.04364 70.6551C9.18478 70.6833 9.33023 70.682 9.47083 70.6512C9.75237 70.5911 10.0271 70.5026 10.2908 70.3872C11.2848 70.0113 12.3454 69.8439 13.4068 69.8952" fill="#FAFAFA"/>
<path d="M13.3839 69.8952C13.3447 69.8994 13.3051 69.8994 13.2658 69.8952C13.1887 69.8952 13.0739 69.8952 12.9263 69.8952C12.2245 69.9126 11.528 70.0229 10.855 70.2232C10.5582 70.3084 10.2531 70.4282 9.92678 70.5512C9.75775 70.6172 9.58165 70.6634 9.40198 70.6889C9.2095 70.7147 9.01364 70.6933 8.83126 70.6266C8.63983 70.552 8.48468 70.4063 8.3983 70.2199C8.31121 70.0296 8.28709 69.8164 8.32942 69.6114C8.37304 69.4078 8.47439 69.2211 8.62134 69.0735C8.76177 68.9324 8.92906 68.8209 9.11334 68.7455C9.4614 68.6137 9.83512 68.5638 10.2056 68.5996C10.8271 68.6417 11.437 68.7887 12.0096 69.0342C12.3941 69.1988 12.7588 69.4062 13.0969 69.6524C13.215 69.7426 13.3035 69.8164 13.3626 69.8656C13.4216 69.9148 13.4511 69.9444 13.4479 69.9476C13.4138 69.9273 13.3814 69.9043 13.3511 69.8788C13.2904 69.8312 13.1969 69.764 13.0772 69.6803C12.7352 69.4462 12.3697 69.2483 11.9866 69.0899C11.4179 68.8556 10.8145 68.7165 10.2007 68.6783C9.84274 68.6452 9.48201 68.6946 9.14614 68.8226C8.96904 68.8902 8.81053 68.9989 8.68365 69.1398C8.55677 69.2806 8.46516 69.4496 8.41634 69.6328C8.37828 69.8199 8.39949 70.0142 8.47702 70.1887C8.55004 70.3578 8.68588 70.4918 8.85586 70.5626C9.02502 70.625 9.2067 70.6458 9.38558 70.6233C9.55932 70.5982 9.72979 70.5542 9.89398 70.4921C10.222 70.3675 10.5303 70.2478 10.8288 70.1641C11.1065 70.0847 11.3885 70.0211 11.6734 69.9739C12.0851 69.9033 12.5021 69.8688 12.9198 69.8706C13.0674 69.8706 13.1822 69.8706 13.2593 69.882C13.3011 69.8824 13.3429 69.8868 13.3839 69.8952Z" fill="#263238"/>
<path d="M27.1667 70.9694C27.6775 70.9694 28.0916 70.5552 28.0916 70.0444C28.0916 69.5336 27.6775 69.1194 27.1667 69.1194C26.6558 69.1194 26.2417 69.5336 26.2417 70.0444C26.2417 70.5552 26.6558 70.9694 27.1667 70.9694Z" fill="#FAFAFA"/>
<path d="M28.0913 70.0444C28.0814 70.0444 28.0913 69.9624 28.0454 69.823C27.9907 69.626 27.8718 69.4528 27.7075 69.331C27.5875 69.243 27.4476 69.1861 27.3002 69.1652C27.1529 69.1443 27.0027 69.1601 26.8629 69.2113C26.7434 69.2558 26.6348 69.3255 26.5446 69.4156C26.4544 69.5058 26.3847 69.6143 26.3401 69.7338C26.2956 69.8533 26.2772 69.981 26.2864 70.1082C26.2956 70.2354 26.332 70.3592 26.3932 70.4711C26.4545 70.583 26.5391 70.6803 26.6413 70.7566C26.7435 70.8329 26.8609 70.8863 26.9856 70.9132C27.1103 70.9401 27.2393 70.9399 27.3638 70.9125C27.4884 70.8851 27.6056 70.8312 27.7075 70.7545C27.872 70.6329 27.9909 70.4597 28.0454 70.2625C28.0847 70.1231 28.0814 70.0395 28.0913 70.0395C28.1011 70.0395 28.0913 70.0608 28.0913 70.1002C28.0922 70.1554 28.0861 70.2105 28.0732 70.2642C28.0289 70.4735 27.9129 70.6608 27.7452 70.7939C27.6188 70.8929 27.4693 70.9584 27.3108 70.9842C27.1522 71.01 26.9897 70.9953 26.8383 70.9415C26.659 70.8789 26.5021 70.7648 26.3873 70.6135C26.2662 70.4471 26.2002 70.2469 26.1987 70.0411C26.1995 69.8354 26.2662 69.6354 26.389 69.4704C26.5022 69.3182 26.6589 69.2039 26.8383 69.1424C26.9895 69.0883 27.152 69.0733 27.3105 69.0989C27.4691 69.1244 27.6186 69.1896 27.7452 69.2884C27.9126 69.4217 28.0285 69.6089 28.0732 69.8181C28.086 69.8718 28.092 69.9269 28.0913 69.9821C28.0946 70.0236 28.0946 70.0444 28.0913 70.0444Z" fill="#263238"/>
</svg>
