<svg width="64" height="456" viewBox="0 0 64 456" fill="none" xmlns="http://www.w3.org/2000/svg">
<rect x="28" width="36" height="456" rx="18" fill="#D9D9D9" fill-opacity="0.5"/>
<path d="M28 147H64V437C64 446.941 55.9411 455 46 455C36.0589 455 28 446.941 28 437V147Z" fill="#C53F3F" fill-opacity="0.5"/>
<path d="M3.48139 145.32V144.324H5.73739V153H4.63339V145.32H3.48139ZM9.19714 148.488C8.74914 148.312 8.40514 148.056 8.16514 147.72C7.92514 147.384 7.80514 146.976 7.80514 146.496C7.80514 146.064 7.91314 145.676 8.12914 145.332C8.34514 144.98 8.66514 144.704 9.08914 144.504C9.52114 144.296 10.0411 144.192 10.6491 144.192C11.2571 144.192 11.7731 144.296 12.1971 144.504C12.6291 144.704 12.9531 144.98 13.1691 145.332C13.3931 145.676 13.5051 146.064 13.5051 146.496C13.5051 146.96 13.3811 147.368 13.1331 147.72C12.8851 148.064 12.5451 148.32 12.1131 148.488C12.6091 148.64 13.0011 148.908 13.2891 149.292C13.5851 149.668 13.7331 150.124 13.7331 150.66C13.7331 151.18 13.6051 151.636 13.3491 152.028C13.0931 152.412 12.7291 152.712 12.2571 152.928C11.7931 153.136 11.2571 153.24 10.6491 153.24C10.0411 153.24 9.50514 153.136 9.04114 152.928C8.58514 152.712 8.22914 152.412 7.97314 152.028C7.71714 151.636 7.58914 151.18 7.58914 150.66C7.58914 150.124 7.73314 149.664 8.02114 149.28C8.30914 148.896 8.70114 148.632 9.19714 148.488ZM12.4491 146.628C12.4491 146.14 12.2891 145.764 11.9691 145.5C11.6491 145.236 11.2091 145.104 10.6491 145.104C10.0971 145.104 9.66114 145.236 9.34114 145.5C9.02114 145.764 8.86114 146.144 8.86114 146.64C8.86114 147.088 9.02514 147.448 9.35314 147.72C9.68914 147.992 10.1211 148.128 10.6491 148.128C11.1851 148.128 11.6171 147.992 11.9451 147.72C12.2811 147.44 12.4491 147.076 12.4491 146.628ZM10.6491 148.968C10.0571 148.968 9.57314 149.108 9.19714 149.388C8.82114 149.66 8.63314 150.072 8.63314 150.624C8.63314 151.136 8.81314 151.548 9.17314 151.86C9.54114 152.172 10.0331 152.328 10.6491 152.328C11.2651 152.328 11.7531 152.172 12.1131 151.86C12.4731 151.548 12.6531 151.136 12.6531 150.624C12.6531 150.088 12.4691 149.68 12.1011 149.4C11.7331 149.112 11.2491 148.968 10.6491 148.968ZM15.1835 148.572C15.1835 147.196 15.4075 146.124 15.8555 145.356C16.3035 144.58 17.0875 144.192 18.2075 144.192C19.3195 144.192 20.0995 144.58 20.5475 145.356C20.9955 146.124 21.2195 147.196 21.2195 148.572C21.2195 149.972 20.9955 151.06 20.5475 151.836C20.0995 152.612 19.3195 153 18.2075 153C17.0875 153 16.3035 152.612 15.8555 151.836C15.4075 151.06 15.1835 149.972 15.1835 148.572ZM20.1395 148.572C20.1395 147.876 20.0915 147.288 19.9955 146.808C19.9075 146.32 19.7195 145.928 19.4315 145.632C19.1515 145.336 18.7435 145.188 18.2075 145.188C17.6635 145.188 17.2475 145.336 16.9595 145.632C16.6795 145.928 16.4915 146.32 16.3955 146.808C16.3075 147.288 16.2635 147.876 16.2635 148.572C16.2635 149.292 16.3075 149.896 16.3955 150.384C16.4915 150.872 16.6795 151.264 16.9595 151.56C17.2475 151.856 17.6635 152.004 18.2075 152.004C18.7435 152.004 19.1515 151.856 19.4315 151.56C19.7195 151.264 19.9075 150.872 19.9955 150.384C20.0915 149.896 20.1395 149.292 20.1395 148.572Z" fill="black"/>
<rect width="18.1856" height="1.25773" transform="matrix(-1 0 0 1 48.1855 399)" fill="#8A8A8A"/>
<rect width="18.1856" height="1.25773" transform="matrix(-1 0 0 1 48.1855 21)" fill="#8A8A8A"/>
<rect width="18.1856" height="1.25773" transform="matrix(-1 0 0 1 48.1855 46.1547)" fill="#8A8A8A"/>
<rect width="18.1856" height="1.25773" transform="matrix(-1 0 0 1 48.1855 71.3092)" fill="#8A8A8A"/>
<rect width="18.1856" height="1.25773" transform="matrix(-1 0 0 1 48.1855 96.4639)" fill="#8A8A8A"/>
<rect width="18.1856" height="1.25773" transform="matrix(-1 0 0 1 48.1855 121.619)" fill="#8A8A8A"/>
<rect width="10.3918" height="1.25773" transform="matrix(-1 0 0 1 40.3917 26.0309)" fill="#8A8A8A"/>
<rect width="10.3918" height="1.25773" transform="matrix(-1 0 0 1 40.3917 51.1854)" fill="#8A8A8A"/>
<rect width="10.3918" height="1.25773" transform="matrix(-1 0 0 1 40.3917 76.3403)" fill="#8A8A8A"/>
<rect width="10.3918" height="1.25773" transform="matrix(-1 0 0 1 40.3917 101.495)" fill="#8A8A8A"/>
<rect width="10.3918" height="1.25773" transform="matrix(-1 0 0 1 40.3917 126.65)" fill="#8A8A8A"/>
<rect width="10.3918" height="1.25773" transform="matrix(-1 0 0 1 40.3917 31.0619)" fill="#8A8A8A"/>
<rect width="10.3918" height="1.25773" transform="matrix(-1 0 0 1 40.3917 56.2166)" fill="#8A8A8A"/>
<rect width="10.3918" height="1.25773" transform="matrix(-1 0 0 1 40.3917 81.3711)" fill="#8A8A8A"/>
<rect width="10.3918" height="1.25773" transform="matrix(-1 0 0 1 40.3917 106.526)" fill="#8A8A8A"/>
<rect width="10.3918" height="1.25773" transform="matrix(-1 0 0 1 40.3917 131.68)" fill="#8A8A8A"/>
<rect width="10.3918" height="1.25773" transform="matrix(-1 0 0 1 40.3917 36.0928)" fill="#8A8A8A"/>
<rect width="10.3918" height="1.25773" transform="matrix(-1 0 0 1 40.3917 61.2473)" fill="#8A8A8A"/>
<rect width="10.3918" height="1.25773" transform="matrix(-1 0 0 1 40.3917 86.4022)" fill="#8A8A8A"/>
<rect width="10.3918" height="1.25773" transform="matrix(-1 0 0 1 40.3917 111.557)" fill="#8A8A8A"/>
<rect width="10.3918" height="1.25773" transform="matrix(-1 0 0 1 40.3917 136.711)" fill="#8A8A8A"/>
<rect width="10.3918" height="1.25773" transform="matrix(-1 0 0 1 40.3917 41.1237)" fill="#8A8A8A"/>
<rect width="10.3918" height="1.25773" transform="matrix(-1 0 0 1 40.3917 66.2784)" fill="#8A8A8A"/>
<rect width="10.3918" height="1.25773" transform="matrix(-1 0 0 1 40.3917 91.433)" fill="#8A8A8A"/>
<rect width="10.3918" height="1.25773" transform="matrix(-1 0 0 1 40.3917 116.588)" fill="#8A8A8A"/>
<rect width="10.3918" height="1.25773" transform="matrix(-1 0 0 1 40.3917 141.742)" fill="#8A8A8A"/>
<rect width="18.1856" height="1.25773" transform="matrix(-1 0 0 1 48.1855 21)" fill="#8A8A8A"/>
<rect width="18.1856" height="1.25773" transform="matrix(-1 0 0 1 48.1855 46.1547)" fill="#8A8A8A"/>
<rect width="18.1856" height="1.25773" transform="matrix(-1 0 0 1 48.1855 71.3092)" fill="#8A8A8A"/>
<rect width="18.1856" height="1.25773" transform="matrix(-1 0 0 1 48.1855 96.4639)" fill="#8A8A8A"/>
<rect width="18.1856" height="1.25773" transform="matrix(-1 0 0 1 48.1855 121.619)" fill="#8A8A8A"/>
<rect width="10.3918" height="1.25773" transform="matrix(-1 0 0 1 40.3917 26.0309)" fill="#8A8A8A"/>
<rect width="10.3918" height="1.25773" transform="matrix(-1 0 0 1 40.3917 51.1854)" fill="#8A8A8A"/>
<rect width="10.3918" height="1.25773" transform="matrix(-1 0 0 1 40.3917 76.3403)" fill="#8A8A8A"/>
<rect width="10.3918" height="1.25773" transform="matrix(-1 0 0 1 40.3917 101.495)" fill="#8A8A8A"/>
<rect width="10.3918" height="1.25773" transform="matrix(-1 0 0 1 40.3917 126.65)" fill="#8A8A8A"/>
<rect width="10.3918" height="1.25773" transform="matrix(-1 0 0 1 40.3917 31.0619)" fill="#8A8A8A"/>
<rect width="10.3918" height="1.25773" transform="matrix(-1 0 0 1 40.3917 56.2166)" fill="#8A8A8A"/>
<rect width="10.3918" height="1.25773" transform="matrix(-1 0 0 1 40.3917 81.3711)" fill="#8A8A8A"/>
<rect width="10.3918" height="1.25773" transform="matrix(-1 0 0 1 40.3917 106.526)" fill="#8A8A8A"/>
<rect width="10.3918" height="1.25773" transform="matrix(-1 0 0 1 40.3917 131.68)" fill="#8A8A8A"/>
<rect width="10.3918" height="1.25773" transform="matrix(-1 0 0 1 40.3917 36.0928)" fill="#8A8A8A"/>
<rect width="10.3918" height="1.25773" transform="matrix(-1 0 0 1 40.3917 61.2473)" fill="#8A8A8A"/>
<rect width="10.3918" height="1.25773" transform="matrix(-1 0 0 1 40.3917 86.4022)" fill="#8A8A8A"/>
<rect width="10.3918" height="1.25773" transform="matrix(-1 0 0 1 40.3917 111.557)" fill="#8A8A8A"/>
<rect width="10.3918" height="1.25773" transform="matrix(-1 0 0 1 40.3917 136.711)" fill="#8A8A8A"/>
<rect width="10.3918" height="1.25773" transform="matrix(-1 0 0 1 40.3917 41.1237)" fill="#8A8A8A"/>
<rect width="10.3918" height="1.25773" transform="matrix(-1 0 0 1 40.3917 66.2784)" fill="#8A8A8A"/>
<rect width="10.3918" height="1.25773" transform="matrix(-1 0 0 1 40.3917 91.433)" fill="#8A8A8A"/>
<rect width="10.3918" height="1.25773" transform="matrix(-1 0 0 1 40.3917 116.588)" fill="#8A8A8A"/>
<rect width="10.3918" height="1.25773" transform="matrix(-1 0 0 1 40.3917 141.742)" fill="#8A8A8A"/>
<rect width="18.1856" height="1.25773" transform="matrix(-1 0 0 1 48.1855 147)" fill="#8A8A8A"/>
<rect width="18.1856" height="1.25773" transform="matrix(-1 0 0 1 48.1855 172.155)" fill="#8A8A8A"/>
<rect width="18.1856" height="1.25773" transform="matrix(-1 0 0 1 48.1855 197.309)" fill="#8A8A8A"/>
<rect width="18.1856" height="1.25773" transform="matrix(-1 0 0 1 48.1855 222.464)" fill="#8A8A8A"/>
<rect width="18.1856" height="1.25773" transform="matrix(-1 0 0 1 48.1855 247.619)" fill="#8A8A8A"/>
<rect width="10.3918" height="1.25773" transform="matrix(-1 0 0 1 40.3917 152.031)" fill="#8A8A8A"/>
<rect width="10.3918" height="1.25773" transform="matrix(-1 0 0 1 40.3917 177.185)" fill="#8A8A8A"/>
<rect width="10.3918" height="1.25773" transform="matrix(-1 0 0 1 40.3917 202.34)" fill="#8A8A8A"/>
<rect width="10.3918" height="1.25773" transform="matrix(-1 0 0 1 40.3917 227.495)" fill="#8A8A8A"/>
<rect width="10.3918" height="1.25773" transform="matrix(-1 0 0 1 40.3917 252.65)" fill="#8A8A8A"/>
<rect width="10.3918" height="1.25773" transform="matrix(-1 0 0 1 40.3917 157.062)" fill="#8A8A8A"/>
<rect width="10.3918" height="1.25773" transform="matrix(-1 0 0 1 40.3917 182.217)" fill="#8A8A8A"/>
<rect width="10.3918" height="1.25773" transform="matrix(-1 0 0 1 40.3917 207.371)" fill="#8A8A8A"/>
<rect width="10.3918" height="1.25773" transform="matrix(-1 0 0 1 40.3917 232.526)" fill="#8A8A8A"/>
<rect width="10.3918" height="1.25773" transform="matrix(-1 0 0 1 40.3917 257.68)" fill="#8A8A8A"/>
<rect width="10.3918" height="1.25773" transform="matrix(-1 0 0 1 40.3917 162.093)" fill="#8A8A8A"/>
<rect width="10.3918" height="1.25773" transform="matrix(-1 0 0 1 40.3917 187.247)" fill="#8A8A8A"/>
<rect width="10.3918" height="1.25773" transform="matrix(-1 0 0 1 40.3917 212.402)" fill="#8A8A8A"/>
<rect width="10.3918" height="1.25773" transform="matrix(-1 0 0 1 40.3917 237.557)" fill="#8A8A8A"/>
<rect width="10.3918" height="1.25773" transform="matrix(-1 0 0 1 40.3917 262.711)" fill="#8A8A8A"/>
<rect width="10.3918" height="1.25773" transform="matrix(-1 0 0 1 40.3917 167.124)" fill="#8A8A8A"/>
<rect width="10.3918" height="1.25773" transform="matrix(-1 0 0 1 40.3917 192.278)" fill="#8A8A8A"/>
<rect width="10.3918" height="1.25773" transform="matrix(-1 0 0 1 40.3917 217.433)" fill="#8A8A8A"/>
<rect width="10.3918" height="1.25773" transform="matrix(-1 0 0 1 40.3917 242.588)" fill="#8A8A8A"/>
<rect width="10.3918" height="1.25773" transform="matrix(-1 0 0 1 40.3917 267.742)" fill="#8A8A8A"/>
<rect width="18.1856" height="1.25773" transform="matrix(-1 0 0 1 48.1855 147)" fill="#8A8A8A"/>
<rect width="18.1856" height="1.25773" transform="matrix(-1 0 0 1 48.1855 172.155)" fill="#8A8A8A"/>
<rect width="18.1856" height="1.25773" transform="matrix(-1 0 0 1 48.1855 197.309)" fill="#8A8A8A"/>
<rect width="18.1856" height="1.25773" transform="matrix(-1 0 0 1 48.1855 222.464)" fill="#8A8A8A"/>
<rect width="18.1856" height="1.25773" transform="matrix(-1 0 0 1 48.1855 247.619)" fill="#8A8A8A"/>
<rect width="10.3918" height="1.25773" transform="matrix(-1 0 0 1 40.3917 152.031)" fill="#8A8A8A"/>
<rect width="10.3918" height="1.25773" transform="matrix(-1 0 0 1 40.3917 177.185)" fill="#8A8A8A"/>
<rect width="10.3918" height="1.25773" transform="matrix(-1 0 0 1 40.3917 202.34)" fill="#8A8A8A"/>
<rect width="10.3918" height="1.25773" transform="matrix(-1 0 0 1 40.3917 227.495)" fill="#8A8A8A"/>
<rect width="10.3918" height="1.25773" transform="matrix(-1 0 0 1 40.3917 252.65)" fill="#8A8A8A"/>
<rect width="10.3918" height="1.25773" transform="matrix(-1 0 0 1 40.3917 157.062)" fill="#8A8A8A"/>
<rect width="10.3918" height="1.25773" transform="matrix(-1 0 0 1 40.3917 182.217)" fill="#8A8A8A"/>
<rect width="10.3918" height="1.25773" transform="matrix(-1 0 0 1 40.3917 207.371)" fill="#8A8A8A"/>
<rect width="10.3918" height="1.25773" transform="matrix(-1 0 0 1 40.3917 232.526)" fill="#8A8A8A"/>
<rect width="10.3918" height="1.25773" transform="matrix(-1 0 0 1 40.3917 257.68)" fill="#8A8A8A"/>
<rect width="10.3918" height="1.25773" transform="matrix(-1 0 0 1 40.3917 162.093)" fill="#8A8A8A"/>
<rect width="10.3918" height="1.25773" transform="matrix(-1 0 0 1 40.3917 187.247)" fill="#8A8A8A"/>
<rect width="10.3918" height="1.25773" transform="matrix(-1 0 0 1 40.3917 212.402)" fill="#8A8A8A"/>
<rect width="10.3918" height="1.25773" transform="matrix(-1 0 0 1 40.3917 237.557)" fill="#8A8A8A"/>
<rect width="10.3918" height="1.25773" transform="matrix(-1 0 0 1 40.3917 262.711)" fill="#8A8A8A"/>
<rect width="10.3918" height="1.25773" transform="matrix(-1 0 0 1 40.3917 167.124)" fill="#8A8A8A"/>
<rect width="10.3918" height="1.25773" transform="matrix(-1 0 0 1 40.3917 192.278)" fill="#8A8A8A"/>
<rect width="10.3918" height="1.25773" transform="matrix(-1 0 0 1 40.3917 217.433)" fill="#8A8A8A"/>
<rect width="10.3918" height="1.25773" transform="matrix(-1 0 0 1 40.3917 242.588)" fill="#8A8A8A"/>
<rect width="10.3918" height="1.25773" transform="matrix(-1 0 0 1 40.3917 267.742)" fill="#8A8A8A"/>
<rect width="18.1856" height="1.25773" transform="matrix(-1 0 0 1 48.1855 273)" fill="#8A8A8A"/>
<rect width="18.1856" height="1.25773" transform="matrix(-1 0 0 1 48.1855 298.155)" fill="#8A8A8A"/>
<rect width="18.1856" height="1.25773" transform="matrix(-1 0 0 1 48.1855 323.309)" fill="#8A8A8A"/>
<rect width="18.1856" height="1.25773" transform="matrix(-1 0 0 1 48.1855 348.464)" fill="#8A8A8A"/>
<rect width="18.1856" height="1.25773" transform="matrix(-1 0 0 1 48.1855 373.619)" fill="#8A8A8A"/>
<rect width="10.3918" height="1.25773" transform="matrix(-1 0 0 1 40.3917 278.031)" fill="#8A8A8A"/>
<rect width="10.3918" height="1.25773" transform="matrix(-1 0 0 1 40.3917 303.185)" fill="#8A8A8A"/>
<rect width="10.3918" height="1.25773" transform="matrix(-1 0 0 1 40.3917 328.34)" fill="#8A8A8A"/>
<rect width="10.3918" height="1.25773" transform="matrix(-1 0 0 1 40.3917 353.495)" fill="#8A8A8A"/>
<rect width="10.3918" height="1.25773" transform="matrix(-1 0 0 1 40.3917 378.65)" fill="#8A8A8A"/>
<rect width="10.3918" height="1.25773" transform="matrix(-1 0 0 1 40.3917 283.062)" fill="#8A8A8A"/>
<rect width="10.3918" height="1.25773" transform="matrix(-1 0 0 1 40.3917 308.217)" fill="#8A8A8A"/>
<rect width="10.3918" height="1.25773" transform="matrix(-1 0 0 1 40.3917 333.371)" fill="#8A8A8A"/>
<rect width="10.3918" height="1.25773" transform="matrix(-1 0 0 1 40.3917 358.526)" fill="#8A8A8A"/>
<rect width="10.3918" height="1.25773" transform="matrix(-1 0 0 1 40.3917 383.68)" fill="#8A8A8A"/>
<rect width="10.3918" height="1.25773" transform="matrix(-1 0 0 1 40.3917 288.093)" fill="#8A8A8A"/>
<rect width="10.3918" height="1.25773" transform="matrix(-1 0 0 1 40.3917 313.247)" fill="#8A8A8A"/>
<rect width="10.3918" height="1.25773" transform="matrix(-1 0 0 1 40.3917 338.402)" fill="#8A8A8A"/>
<rect width="10.3918" height="1.25773" transform="matrix(-1 0 0 1 40.3917 363.557)" fill="#8A8A8A"/>
<rect width="10.3918" height="1.25773" transform="matrix(-1 0 0 1 40.3917 388.711)" fill="#8A8A8A"/>
<rect width="10.3918" height="1.25773" transform="matrix(-1 0 0 1 40.3917 293.124)" fill="#8A8A8A"/>
<rect width="10.3918" height="1.25773" transform="matrix(-1 0 0 1 40.3917 318.278)" fill="#8A8A8A"/>
<rect width="10.3918" height="1.25773" transform="matrix(-1 0 0 1 40.3917 343.433)" fill="#8A8A8A"/>
<rect width="10.3918" height="1.25773" transform="matrix(-1 0 0 1 40.3917 368.588)" fill="#8A8A8A"/>
<rect width="10.3918" height="1.25773" transform="matrix(-1 0 0 1 40.3917 393.742)" fill="#8A8A8A"/>
<rect width="18.1856" height="1.25773" transform="matrix(-1 0 0 1 48.1855 273)" fill="#8A8A8A"/>
<rect width="18.1856" height="1.25773" transform="matrix(-1 0 0 1 48.1855 298.155)" fill="#8A8A8A"/>
<rect width="18.1856" height="1.25773" transform="matrix(-1 0 0 1 48.1855 323.309)" fill="#8A8A8A"/>
<rect width="18.1856" height="1.25773" transform="matrix(-1 0 0 1 48.1855 348.464)" fill="#8A8A8A"/>
<rect width="18.1856" height="1.25773" transform="matrix(-1 0 0 1 48.1855 373.619)" fill="#8A8A8A"/>
<rect width="10.3918" height="1.25773" transform="matrix(-1 0 0 1 40.3917 278.031)" fill="#8A8A8A"/>
<rect width="10.3918" height="1.25773" transform="matrix(-1 0 0 1 40.3917 303.185)" fill="#8A8A8A"/>
<rect width="10.3918" height="1.25773" transform="matrix(-1 0 0 1 40.3917 328.34)" fill="#8A8A8A"/>
<rect width="10.3918" height="1.25773" transform="matrix(-1 0 0 1 40.3917 353.495)" fill="#8A8A8A"/>
<rect width="10.3918" height="1.25773" transform="matrix(-1 0 0 1 40.3917 378.65)" fill="#8A8A8A"/>
<rect width="10.3918" height="1.25773" transform="matrix(-1 0 0 1 40.3917 283.062)" fill="#8A8A8A"/>
<rect width="10.3918" height="1.25773" transform="matrix(-1 0 0 1 40.3917 308.217)" fill="#8A8A8A"/>
<rect width="10.3918" height="1.25773" transform="matrix(-1 0 0 1 40.3917 333.371)" fill="#8A8A8A"/>
<rect width="10.3918" height="1.25773" transform="matrix(-1 0 0 1 40.3917 358.526)" fill="#8A8A8A"/>
<rect width="10.3918" height="1.25773" transform="matrix(-1 0 0 1 40.3917 383.68)" fill="#8A8A8A"/>
<rect width="10.3918" height="1.25773" transform="matrix(-1 0 0 1 40.3917 288.093)" fill="#8A8A8A"/>
<rect width="10.3918" height="1.25773" transform="matrix(-1 0 0 1 40.3917 313.247)" fill="#8A8A8A"/>
<rect width="10.3918" height="1.25773" transform="matrix(-1 0 0 1 40.3917 338.402)" fill="#8A8A8A"/>
<rect width="10.3918" height="1.25773" transform="matrix(-1 0 0 1 40.3917 363.557)" fill="#8A8A8A"/>
<rect width="10.3918" height="1.25773" transform="matrix(-1 0 0 1 40.3917 388.711)" fill="#8A8A8A"/>
<rect width="10.3918" height="1.25773" transform="matrix(-1 0 0 1 40.3917 293.124)" fill="#8A8A8A"/>
<rect width="10.3918" height="1.25773" transform="matrix(-1 0 0 1 40.3917 318.278)" fill="#8A8A8A"/>
<rect width="10.3918" height="1.25773" transform="matrix(-1 0 0 1 40.3917 343.433)" fill="#8A8A8A"/>
<rect width="10.3918" height="1.25773" transform="matrix(-1 0 0 1 40.3917 368.588)" fill="#8A8A8A"/>
<rect width="10.3918" height="1.25773" transform="matrix(-1 0 0 1 40.3917 393.742)" fill="#8A8A8A"/>
<rect width="18.1856" height="1.25773" transform="matrix(-1 0 0 1 48.1855 424.155)" fill="#8A8A8A"/>
<rect width="10.3918" height="1.25773" transform="matrix(-1 0 0 1 40.3917 404.031)" fill="#8A8A8A"/>
<rect width="10.3918" height="1.25773" transform="matrix(-1 0 0 1 40.3917 429.185)" fill="#8A8A8A"/>
<rect width="10.3918" height="1.25773" transform="matrix(-1 0 0 1 40.3917 409.062)" fill="#8A8A8A"/>
<rect width="10.3918" height="1.25773" transform="matrix(-1 0 0 1 40.3917 434.217)" fill="#8A8A8A"/>
<rect width="10.3918" height="1.25773" transform="matrix(-1 0 0 1 40.3917 414.093)" fill="#8A8A8A"/>
<rect width="10.3918" height="1.25773" transform="matrix(-1 0 0 1 40.3917 439.247)" fill="#8A8A8A"/>
<rect width="10.3918" height="1.25773" transform="matrix(-1 0 0 1 40.3917 419.124)" fill="#8A8A8A"/>
<rect width="10.3918" height="1.25773" transform="matrix(-1 0 0 1 40.3917 444.278)" fill="#8A8A8A"/>
</svg>
