<svg width="57" height="57" viewBox="0 0 57 57" fill="none" xmlns="http://www.w3.org/2000/svg">
<g clip-path="url(#clip0_1412_10291)">
<path d="M28.5003 0.000452042C12.76 0.000452042 0 12.7593 0 28.5008C0 44.2399 12.76 56.9998 28.5003 56.9998C44.24 56.9998 57 44.2399 57 28.5008C57 12.7592 44.24 0.000452042 28.5003 0.000452042Z" fill="#B0B0B0"/>
<path d="M28.5004 4.48069C15.2345 4.48069 4.48047 15.2337 4.48047 28.5006C4.48047 41.7653 15.2345 52.5194 28.5004 52.5194C41.7656 52.5194 52.5196 41.7653 52.5196 28.5006C52.5196 15.2337 41.7656 4.48069 28.5004 4.48069Z" fill="#F4EDED"/>
<path d="M22.6647 29.851H9.54395V34.4934H22.6647V29.851Z" fill="#575757"/>
<path d="M43.6337 29.851H23.0513V34.4934H43.6337V29.851Z" fill="#575757"/>
<path d="M46.0768 29.851H44.0186V34.4934H46.0768V29.851Z" fill="#575757"/>
<path d="M45.5234 20.4376C45.3042 20.1986 45.0671 20.0235 44.8257 19.8957C44.7918 19.7662 44.7525 19.6387 44.7074 19.5141C44.7521 19.3066 44.7761 19.0916 44.7761 18.8708C44.7761 17.2002 43.4319 15.846 41.7733 15.846C40.9421 15.846 40.19 16.1863 39.6462 16.7358C38.9466 16.8952 38.3111 17.2235 37.7838 17.6765C37.5711 17.6286 37.3505 17.6023 37.1235 17.6023C35.4651 17.6023 34.1206 18.9567 34.1206 20.6272C34.1206 22.2513 35.3914 23.576 36.986 23.6484C37.2553 25.0407 38.4719 26.0914 39.9328 26.0914C40.0282 26.0914 40.1223 26.0862 40.2155 26.0774C42.8665 27.7911 45.7079 27.9286 45.7079 27.9286C45.0437 25.2716 46.741 21.7661 45.5234 20.4376Z" fill="#575757"/>
<path d="M9.86293 6.93826C8.81911 7.84124 7.84146 8.81889 6.93848 9.86271L47.1376 50.0618C48.1814 49.1587 49.159 48.1812 50.062 47.1373L9.86293 6.93826Z" fill="#B0B0B0"/>
</g>
<defs>
<clipPath id="clip0_1412_10291">
<rect width="57" height="57" fill="white"/>
</clipPath>
</defs>
</svg>
