<svg width="72" height="54" viewBox="0 0 72 54" fill="none" xmlns="http://www.w3.org/2000/svg">
<path d="M14.5795 35.0235C14.5795 35.0235 13.1371 33.7871 12.5814 33.4549C12.0257 33.1226 10.7826 32.6729 10.3181 32.6312C9.85363 32.5895 7.67987 33.1659 7.67987 33.1659C7.67987 33.1659 4.47074 32.9063 3.93194 33.2493C3.39315 33.5924 3.43706 33.9479 3.66339 34.209C3.88972 34.4702 4.75618 34.3868 5.71554 34.4007C6.6749 34.4146 6.92994 34.4965 6.92994 34.4965L5.53651 35.8549L9.15775 36.7744L11.3535 36.6987L12.1473 37.6135L14.5795 35.0235Z" fill="#694B47"/>
<path d="M3.58447 31.9558L3.6723 34.8797L3.826 35.2428L5.40354 37.003L9.25112 36.7697L6.18556 35.6771L5.09614 34.9198L4.67389 33.6696C4.67389 33.6696 4.80225 31.741 3.58447 31.9558Z" fill="#694B47"/>
<path d="M3.85095 35.3109H2.90848C2.90848 35.3109 1.68564 33.4704 0.567509 34.0962L0.824239 34.4594C0.824239 34.4594 0.317535 34.2508 0 34.6387L3.08414 37.1113H3.22602L6.51115 36.9181L3.85095 35.3109Z" fill="#694B47"/>
<path d="M4.41016 35.8704C4.32204 35.8781 4.2335 35.8812 4.14499 35.8797C3.92199 35.8817 3.7014 35.9221 3.49472 35.9987L3.46432 36.0126L3.44405 35.9863C3.34777 35.8627 3.23123 35.7313 3.10624 35.5938C2.85796 35.311 2.63163 35.056 2.44246 34.8427C2.34566 34.7429 2.25809 34.6359 2.18066 34.5228C2.29605 34.6067 2.40086 34.7021 2.49313 34.8072C2.67386 34.9911 2.91876 35.2492 3.17887 35.5443C3.30048 35.6834 3.41533 35.8148 3.51667 35.9461L3.46432 35.9338C3.68198 35.8545 3.91638 35.8213 4.15006 35.8364C4.23835 35.8321 4.32673 35.8436 4.41016 35.8704Z" fill="#120D0A"/>
<path d="M11.0746 34.1688C10.7024 34.2846 10.34 34.425 9.99024 34.5892C9.65681 34.7799 9.3395 34.9932 9.04102 35.2274C9.1029 35.1367 9.17982 35.0554 9.26903 34.9863C9.47205 34.8064 9.69904 34.6507 9.94464 34.5227C10.1909 34.3945 10.4536 34.2949 10.7267 34.226C10.8384 34.1897 10.956 34.1703 11.0746 34.1688Z" fill="#120D0A"/>
<path d="M8.00087 33.4116C7.86783 33.586 7.72046 33.7508 7.56004 33.9046C7.42215 34.0765 7.26967 34.2383 7.104 34.3883C7.19889 34.1909 7.33031 34.0101 7.49248 33.8536C7.633 33.6807 7.80497 33.5312 8.00087 33.4116Z" fill="#120D0A"/>
<path d="M4.78814 36.2784C4.76177 36.2583 4.73746 36.2361 4.71551 36.212L4.51621 36.0095L4.20712 35.685L4.01457 35.4825C3.93856 35.408 3.86856 35.3284 3.80513 35.2445C3.66256 35.0456 3.58573 34.8133 3.58387 34.5754C3.58387 34.3266 3.57205 34.0608 3.56698 33.7811C3.55685 33.2201 3.54503 32.6035 3.5332 31.956V31.9204H3.56867L3.6717 31.908C3.7852 31.8958 3.90027 31.9075 4.00803 31.9423C4.11579 31.9772 4.21337 32.0342 4.29326 32.1089C4.43634 32.2551 4.54041 32.4297 4.59728 32.6189C4.69634 32.9625 4.73511 33.3182 4.71214 33.6729V33.6605C4.86921 34.1334 5.00771 34.5568 5.12594 34.9123L5.11412 34.8984L5.90627 35.4655L6.1174 35.6201C6.14272 35.6367 6.16594 35.6559 6.18665 35.6773C6.18665 35.6773 6.15793 35.6649 6.10726 35.6324L5.88769 35.4887L5.07865 34.9416V34.9324C4.95704 34.5785 4.81179 34.1597 4.64795 33.6852V33.6729C4.66678 33.3267 4.62632 32.9799 4.52803 32.6452C4.47809 32.4674 4.38321 32.3027 4.25103 32.1646C4.17994 32.0984 4.09314 32.0481 3.99736 32.0175C3.90158 31.9869 3.79939 31.977 3.69873 31.9884L3.60583 31.9992L3.6413 31.959C3.65143 32.6066 3.65988 33.2232 3.66664 33.7842C3.67339 34.3451 3.59739 34.8659 3.87438 35.2198C3.9296 35.3002 3.99054 35.3771 4.0568 35.4501L4.24428 35.6572C4.35913 35.7839 4.45878 35.8952 4.54154 35.9894L4.72734 36.2011C4.75098 36.2245 4.7714 36.2505 4.78814 36.2784Z" fill="#120D0A"/>
<path d="M3.23314 37.1128C3.17318 37.118 3.1132 37.1031 3.06423 37.0711C2.93176 36.9977 2.81026 36.9088 2.70279 36.8068C2.35132 36.4735 2.02833 36.116 1.73667 35.7374C1.38873 35.2954 1.09653 34.8905 0.882028 34.5923C0.778998 34.4377 0.697925 34.3203 0.643877 34.2337C0.61105 34.1917 0.58542 34.1453 0.567871 34.0962C0.607991 34.1323 0.643156 34.1728 0.67259 34.2167L0.934388 34.5598C1.15565 34.8519 1.45798 35.2537 1.80592 35.6895C2.09583 36.0664 2.40938 36.4276 2.74501 36.7713C2.84627 36.8745 2.95954 36.9672 3.08281 37.0479C3.13071 37.0736 3.18102 37.0953 3.23314 37.1128Z" fill="#120D0A"/>
<path d="M8.84521 35.226L7.14775 35.1209L6.64105 33.849L6.54816 32.9929C6.52832 32.7902 6.42632 32.6017 6.26221 32.4645C6.0981 32.3272 5.88378 32.2511 5.66142 32.2511H5.64453L5.73912 34.3482L6.08874 35.651L7.46867 36.3958H9.15768L8.84521 35.226Z" fill="#694B47"/>
<path d="M8.84521 35.226L7.14775 35.1209L6.64105 33.849L6.54816 32.9929C6.52832 32.7902 6.42632 32.6017 6.26221 32.4645C6.0981 32.3272 5.88378 32.2511 5.66142 32.2511H5.64453L5.73912 34.3482L6.08874 35.651L7.46867 36.3958" fill="#694B47"/>
<path d="M7.46876 36.3957C7.43413 36.3835 7.40077 36.3685 7.3691 36.3509L7.09211 36.2103L6.0787 35.6755H6.06687V35.6647C5.96384 35.2907 5.84392 34.8488 5.71049 34.3635V34.3558C5.68009 33.7253 5.64631 33.0128 5.61084 32.2587V32.2185H5.65475C5.66996 32.2185 5.68853 32.2185 5.70542 32.2185C5.90958 32.2251 6.1057 32.293 6.26351 32.4117C6.42132 32.5304 6.53206 32.6933 6.57865 32.8753C6.59858 32.9593 6.61156 33.0445 6.61749 33.1303L6.64283 33.3775C6.66141 33.5321 6.67661 33.699 6.6935 33.852V33.8427C6.87929 34.3171 7.0465 34.7468 7.2002 35.1192L7.17149 35.0991L8.41291 35.1887L8.75072 35.2181C8.79002 35.2198 8.82906 35.2249 8.86726 35.2336C8.82795 35.2373 8.78833 35.2373 8.74903 35.2336L8.41123 35.2197L7.1698 35.1563H7.13095V35.1393C6.98063 34.7684 6.80835 34.3403 6.62425 33.869V33.8597C6.60736 33.7052 6.58878 33.5506 6.5702 33.3853C6.56176 33.3034 6.55162 33.2215 6.54318 33.138C6.53706 33.0559 6.52465 32.9743 6.50602 32.8938C6.46354 32.7289 6.36299 32.5814 6.21986 32.4738C6.07673 32.3663 5.89894 32.3049 5.71387 32.2989H5.64462L5.68684 32.2571C5.71894 33.0097 5.75103 33.7237 5.77805 34.3542C5.90642 34.841 6.02127 35.2815 6.11585 35.6585L6.10065 35.64L7.10393 36.1963L7.37417 36.3509C7.4077 36.362 7.4395 36.377 7.46876 36.3957Z" fill="#120D0A"/>
<path d="M45.205 10.4796C43.7507 5.40607 42.408 -0.492688 34.299 0.0327451C34.299 0.0327451 29.3029 0.912072 26.9315 4.28566C25.5347 6.26994 24.3254 14.8252 24.0855 21.5817C24.0754 21.8568 24.2004 23.7746 24.192 24.0435L45.6526 25.6785H49.5255C49.5255 25.6785 49.284 22.0948 48.1185 18.6176C46.9785 15.2379 45.7201 12.2692 45.205 10.4796Z" fill="#263238"/>
<path d="M33.2212 1.96611L33.7279 1.52258L39.2088 3.54395C39.5914 3.56349 39.9521 3.7135 40.2197 3.9644C40.4873 4.21529 40.6425 4.54884 40.6546 4.89926L40.6056 21.2402C40.6056 22.3483 40.3708 23.308 39.6395 24.1904L38.8693 25.1176C37.1144 27.2379 33.5033 27.0633 32.1132 24.7282C32.0296 24.5951 31.9649 24.4528 31.9207 24.3047C31.8857 24.1847 31.8581 24.0629 31.8379 23.94C31.669 22.6249 31.669 21.4844 31.669 21.4844C31.5711 20.041 31.539 19.4491 31.539 19.463C31.539 19.4769 28.1812 19.1091 27.2742 15.1668C26.8232 13.2057 26.9077 10.5075 27.0344 7.8525C27.2067 4.1822 29.9935 1.96147 33.2212 1.96611Z" fill="#694B47"/>
<path d="M34.6313 10.4781C34.6375 10.611 34.7001 10.7363 34.8058 10.8275C34.9115 10.9188 35.0519 10.9686 35.1972 10.9665C35.2683 10.9685 35.3392 10.9575 35.4056 10.9341C35.472 10.9107 35.5326 10.8753 35.5837 10.83C35.6349 10.7848 35.6757 10.7306 35.7036 10.6707C35.7314 10.6108 35.7459 10.5463 35.7461 10.4812C35.74 10.3485 35.6777 10.2232 35.5724 10.1318C35.4671 10.0404 35.3271 9.99001 35.182 9.99133C35.1106 9.98927 35.0395 10.0003 34.9729 10.0238C34.9063 10.0474 34.8455 10.0829 34.7942 10.1282C34.7429 10.1736 34.702 10.228 34.674 10.2881C34.646 10.3482 34.6315 10.4128 34.6313 10.4781Z" fill="#263238"/>
<path d="M28.9092 10.6139C28.9145 10.7469 28.9765 10.8726 29.082 10.9642C29.1874 11.0558 29.3279 11.1059 29.4733 11.1038C29.5445 11.1057 29.6153 11.0945 29.6817 11.071C29.7481 11.0475 29.8087 11.0121 29.86 10.967C29.9112 10.9218 29.9521 10.8677 29.9803 10.8079C30.0085 10.748 30.0233 10.6837 30.0239 10.6186C30.0182 10.4855 29.9558 10.3597 29.8501 10.2682C29.7443 10.1766 29.6037 10.1265 29.4581 10.1287C29.387 10.1266 29.3161 10.1376 29.2497 10.161C29.1833 10.1845 29.1227 10.2199 29.0715 10.2651C29.0204 10.3104 28.9796 10.3646 28.9517 10.4245C28.9238 10.4844 28.9094 10.5488 28.9092 10.6139Z" fill="#263238"/>
<path d="M27.605 8.90648C27.6776 8.96984 28.083 8.66385 28.6826 8.63912C29.2822 8.6144 29.7365 8.86629 29.799 8.79366C29.8294 8.76275 29.7517 8.63912 29.5541 8.52631C29.285 8.37418 28.9714 8.30135 28.6556 8.31768C28.3438 8.3304 28.0448 8.43442 27.8026 8.6144C27.6253 8.75503 27.5678 8.87866 27.605 8.90648Z" fill="#263238"/>
<path d="M33.5507 8.71476C33.6301 8.7704 34.0017 8.42886 34.5945 8.34696C35.1873 8.26505 35.6687 8.47523 35.7211 8.3995C35.7481 8.3655 35.6586 8.25578 35.4475 8.15688C35.1633 8.03089 34.8438 7.98774 34.532 8.03324C34.2229 8.07596 33.9366 8.20747 33.7145 8.40877C33.5558 8.56022 33.5135 8.69467 33.5507 8.71476Z" fill="#263238"/>
<path d="M31.5947 12.9553C31.5947 12.9244 31.2197 12.8827 30.6117 12.8394C30.458 12.8317 30.311 12.8116 30.2739 12.7173C30.2524 12.5731 30.2801 12.4262 30.3533 12.297C30.4782 11.9508 30.61 11.5892 30.7468 11.2152C31.2924 9.66979 31.6791 8.39948 31.6116 8.37939C31.544 8.3593 31.0458 9.5987 30.5002 11.1456C30.3685 11.5274 30.2435 11.8905 30.1252 12.2382C30.0763 12.4005 29.9867 12.5859 30.0763 12.7915C30.1009 12.8398 30.1373 12.8824 30.1827 12.9159C30.228 12.9494 30.2812 12.9729 30.3381 12.9847C30.424 13.0016 30.512 13.0089 30.5999 13.0063C31.2163 13.0017 31.593 12.9877 31.5947 12.9553Z" fill="#263238"/>
<path d="M31.5356 19.4661C33.5838 19.4015 35.572 18.8173 37.2783 17.7786C37.2783 17.7786 35.9676 20.5974 31.5998 20.4258L31.5356 19.4661Z" fill="#120D0A"/>
<path d="M33.4681 14.071C33.3804 13.9789 33.2733 13.904 33.1531 13.8509C33.0329 13.7978 32.9022 13.7675 32.7688 13.762C32.3922 13.7419 32.127 13.7851 31.9243 14.0571C31.8848 14.1243 31.8607 14.1981 31.8534 14.2741C31.8461 14.3501 31.8559 14.4267 31.8821 14.4991C31.926 14.5625 31.8939 14.564 31.9615 14.6088C32.2065 14.7659 32.4832 14.8767 32.7756 14.9349C33.0661 14.9952 33.4005 14.9349 33.5508 14.717C33.6102 14.6143 33.634 14.4976 33.6192 14.3822C33.6045 14.2669 33.5517 14.1584 33.4681 14.071Z" fill="#120D0A"/>
<path d="M33.4071 6.20041C33.4848 6.3395 33.9999 6.20041 34.635 6.18496C35.2701 6.1695 35.7987 6.27768 35.8595 6.13396C35.8866 6.06596 35.7751 5.93924 35.5488 5.82488C35.2567 5.68577 34.9303 5.61816 34.6012 5.62862C34.276 5.63469 33.9584 5.71947 33.6807 5.87433C33.4679 6.00105 33.3733 6.13241 33.4071 6.20041Z" fill="#263238"/>
<path d="M27.6916 7.91417C27.803 8.03317 28.2101 7.88481 28.705 7.85699C29.1999 7.82917 29.6255 7.89717 29.7184 7.76272C29.7572 7.69781 29.6846 7.57573 29.4938 7.46601C29.2404 7.33331 28.9483 7.27556 28.6577 7.30065C28.3662 7.318 28.088 7.41852 27.8622 7.58809C27.6916 7.72409 27.6409 7.85545 27.6916 7.91417Z" fill="#263238"/>
<path d="M40.545 11.8736C40.545 11.8736 38.2378 12.3836 34.9712 5.9316C33.8565 3.7356 31.6929 1.5226 31.6929 1.5226L33.7197 1.25525C33.7197 1.25525 39.7748 2.81609 39.8761 2.88564C39.9775 2.95518 41.4047 5.75079 41.4047 5.75079L40.545 11.8736Z" fill="#263238"/>
<path d="M39.7881 11.6155C39.7729 11.3188 40.109 10.6033 40.4249 10.543C41.2694 10.3885 42.8131 10.3746 42.9364 12.3573C43.1053 15.0664 40.0972 14.6615 40.087 14.5842C40.0769 14.507 39.8421 12.637 39.7881 11.6155Z" fill="#694B47"/>
<path d="M40.9282 13.5055C40.94 13.4962 40.9805 13.5364 41.0701 13.5688C41.1961 13.6102 41.3347 13.6052 41.4568 13.5549C41.7625 13.4344 41.9973 12.9661 41.9821 12.4731C41.9745 12.2403 41.9111 12.0119 41.7963 11.804C41.7633 11.7209 41.7087 11.6464 41.6372 11.5869C41.5657 11.5274 41.4794 11.4847 41.3859 11.4624C41.3256 11.4511 41.2629 11.4594 41.2086 11.4859C41.1543 11.5124 41.1118 11.5555 41.0886 11.6077C41.0532 11.685 41.0768 11.7391 41.0599 11.7437C41.043 11.7483 40.994 11.702 41.0109 11.5892C41.0232 11.521 41.0607 11.4587 41.1173 11.413C41.1557 11.3828 41.2002 11.3598 41.2484 11.3455C41.2965 11.3312 41.3473 11.3257 41.3977 11.3295C41.5207 11.3449 41.6374 11.3889 41.7365 11.4574C41.8356 11.5258 41.9137 11.6165 41.9635 11.7205C42.1034 11.949 42.1805 12.2052 42.1882 12.467C42.2034 13.014 41.9298 13.541 41.5126 13.6754C41.4344 13.7007 41.3511 13.7097 41.2687 13.7016C41.1863 13.6936 41.1069 13.6688 41.0363 13.6291C40.9366 13.5765 40.9113 13.5163 40.9282 13.5055Z" fill="#120D0A"/>
<path d="M33.8497 14.1808C33.8412 14.2503 33.3345 14.2395 32.7349 14.3461C32.1353 14.4528 31.6658 14.6243 31.6286 14.564C31.5915 14.5038 32.0357 14.2194 32.686 14.1097C33.3362 14 33.8632 14.1236 33.8497 14.1808Z" fill="#263238"/>
<path d="M56.9893 35.175C56.9893 35.175 59.4687 33.2324 60.1883 33.1799C60.9078 33.1273 62.7961 33.4503 62.7961 33.4503C62.7961 33.4503 63.9902 33.4596 64.5831 33.3916C65.202 33.3016 65.8346 33.33 66.441 33.475C66.62 33.5245 66.8447 33.9309 66.3177 34.2091C66.0947 34.3265 63.926 34.461 63.926 34.461L69.3512 35.8781L68.6468 36.4097C68.5517 36.482 68.4327 36.5228 68.309 36.5256L60.5041 36.7791L60.146 37.578L56.9893 35.175Z" fill="#694B47"/>
<path d="M62.9106 35.1765H65.4442C65.4442 35.1765 66.3326 34.0947 66.6535 33.6481C66.9356 33.254 67.2734 33.1381 67.5689 33.2309C67.6461 33.2566 67.7103 33.3071 67.7497 33.373C67.7779 33.4205 67.7927 33.4736 67.7927 33.5276C67.7927 33.5816 67.7779 33.6347 67.7497 33.6821L66.6349 35.5845L67.2193 35.4052C67.2193 35.4052 68.3881 34.3575 68.6161 34.1148C68.8442 33.8722 69.6751 32.8522 70.4116 33.5956L69.3982 34.6341L70.4116 33.9757C70.4116 33.9757 71.2257 33.336 71.6597 34.0978L68.6195 36.4406" fill="#694B47"/>
<path d="M60.2725 34.2137C60.3048 34.1993 60.3388 34.1884 60.3738 34.1812C60.472 34.151 60.5733 34.1298 60.6761 34.1179C61.0591 34.071 61.4487 34.1081 61.8128 34.2261C62.0673 34.3065 62.3123 34.41 62.5442 34.5351C62.6692 34.6031 62.7958 34.6773 62.9242 34.7592L63.1168 34.8844C63.1776 34.9246 63.2536 34.9771 63.3026 35.0018C63.9444 35.0467 64.6791 35.0868 65.4476 35.1363L65.4104 35.1502C65.6486 34.8921 65.8817 34.6109 66.108 34.3188C66.1975 34.2044 66.2769 34.0885 66.363 33.9742C66.4492 33.8598 66.5218 33.7408 66.613 33.6326C66.7 33.5204 66.7996 33.4168 66.9103 33.3235C66.9667 33.2787 67.0284 33.2398 67.0944 33.2076C67.165 33.1704 67.2463 33.1537 67.3275 33.1597H67.3123C67.382 33.149 67.4535 33.1513 67.5222 33.1664C67.591 33.1815 67.6558 33.2092 67.7126 33.2478C67.763 33.2918 67.8014 33.3461 67.8246 33.4063C67.8478 33.4664 67.8551 33.5308 67.846 33.594V33.6017C67.3629 34.393 66.9424 35.0822 66.6181 35.6107C66.5827 35.7084 66.5242 35.7978 66.4469 35.8726C66.3695 35.9474 66.2752 36.0057 66.1705 36.0434C66.0193 36.101 65.8579 36.1324 65.6942 36.1362C65.5935 36.1413 65.4926 36.1413 65.3919 36.1362C65.3567 36.1371 65.3215 36.134 65.2871 36.1269H65.3919C65.4594 36.1269 65.5608 36.1269 65.6925 36.1161C65.8514 36.1074 66.0075 36.0734 66.1536 36.0156C66.25 35.9782 66.3366 35.9222 66.4074 35.8516C66.4782 35.7809 66.5316 35.6972 66.564 35.6061L67.7666 33.577V33.5909C67.7737 33.5399 67.7678 33.4881 67.7494 33.4396C67.7309 33.3911 67.7004 33.3471 67.6602 33.3112C67.5617 33.2488 67.4404 33.2244 67.3224 33.2432H67.3089C67.2494 33.2424 67.1909 33.2568 67.14 33.2849C67.0786 33.3132 67.0217 33.349 66.9711 33.3915C66.8643 33.4783 66.7686 33.5757 66.6856 33.6821C66.5167 33.8984 66.3647 34.1457 66.1789 34.3682C65.9509 34.6634 65.7162 34.9431 65.4746 35.2043L65.4611 35.2197H65.4392C64.6656 35.1672 63.9461 35.127 63.284 35.0729C63.2084 35.0364 63.1371 34.9929 63.0712 34.9431L62.8803 34.8179C62.7553 34.736 62.6303 34.6634 62.5087 34.5939C62.2819 34.4692 62.042 34.3657 61.7926 34.2848C61.4367 34.1641 61.0554 34.1197 60.6778 34.155C60.5764 34.1645 60.4759 34.181 60.3772 34.2044C60.3425 34.2097 60.3076 34.2128 60.2725 34.2137Z" fill="#120D0A"/>
<path d="M70.4165 33.5956C70.3906 33.6419 70.3576 33.6846 70.3185 33.7223C70.2493 33.8011 70.1496 33.9139 70.023 34.0499C69.773 34.325 69.4217 34.7005 69.0281 35.1116C68.6346 35.5227 68.2968 35.9121 68.0046 36.1563C67.8924 36.2553 67.7703 36.3443 67.6398 36.4221C67.5935 36.4534 67.5406 36.4755 67.4844 36.487C67.5277 36.4538 67.5734 36.4233 67.6212 36.3958C67.7409 36.3095 67.8538 36.2155 67.959 36.1146C68.2343 35.8642 68.5552 35.4671 68.9572 35.0606C69.3592 34.6542 69.7105 34.2786 69.9706 34.0128L70.2848 33.7038C70.3233 33.6626 70.3676 33.6262 70.4165 33.5956Z" fill="#120D0A"/>
<path d="M69.0266 33.7037C68.937 33.8235 68.834 33.9343 68.7192 34.0344C68.5216 34.2323 68.2429 34.4981 67.9321 34.7948C67.6771 35.0359 67.4389 35.2584 67.2565 35.4268C67.0552 35.5013 66.8448 35.5532 66.6299 35.5814C66.684 35.5566 66.7406 35.5364 66.7988 35.5211L67.2413 35.3666L67.2278 35.3743C67.4102 35.195 67.6433 34.971 67.9034 34.7314C68.2142 34.4378 68.4996 34.1751 68.7091 33.9881C68.806 33.8853 68.9122 33.7902 69.0266 33.7037Z" fill="#120D0A"/>
<path d="M48.5831 23.6433C48.5831 23.6433 52.2246 24.5025 52.581 29.0305C52.7853 31.6113 51.2838 39.8993 51.2838 39.8993L56.6616 34.8459L61.455 37.8965C61.455 37.8965 54.9304 45.1861 53.4305 46.2879C51.9307 47.3898 49.5255 49.1484 48.7486 49.0047C47.9716 48.861 47.9683 45.5724 47.9683 45.5724V27.4141L48.5831 23.6433Z" fill="#FFC727"/>
<path d="M22.4034 24.198C22.4034 24.198 19.1639 25.1731 19.2923 30.9684C19.4206 36.7636 19.321 38.7092 19.321 38.7092L14.465 34.0066L10.4351 38.0772C10.4351 38.0772 14.9481 44.2124 18.1049 47.195C21.0809 50.0029 23.7259 47.5643 24.5856 45.5893C25.2815 43.9898 25.8422 37.9072 25.8422 37.9072L22.4034 24.198Z" fill="#FFC727"/>
<g opacity="0.3">
<path d="M48.865 34.0745C49.1589 32.3746 49.2366 30.534 48.3904 28.9747C46.3146 33.6696 46.4075 39.0615 47.1507 44.0361L48.7958 48.34C49.8329 45.4563 48.8482 42.3841 48.8701 39.3768C48.8836 37.6629 48.5728 35.7698 48.865 34.0745Z" fill="black"/>
</g>
<path d="M21.7295 27.8854C21.7295 27.8854 23.8948 41.2128 24.3137 42.3796C24.7326 43.5464 24.7326 46.9864 24.7326 46.9864C24.7326 46.9864 22.4608 50.8591 22.3206 53.5497L49.6945 53.6022L47.916 42.5419C47.8594 41.8436 47.8459 41.1429 47.8754 40.4432C47.9903 38.4945 48.1541 34.3173 48.7656 31.7488C49.4749 28.7631 48.519 23.6541 48.519 23.6541L40.3424 21.8104C38.4068 24.3557 33.5864 24.3897 31.6744 21.8104L22.4456 24.1981L21.7295 27.8854Z" fill="#FFC727"/>
<path d="M48.4526 42.0133C48.4724 41.9699 48.4998 41.9297 48.5337 41.8943C48.5911 41.8217 48.6773 41.7166 48.7854 41.5852C49.0663 41.2502 49.3807 40.9398 49.7245 40.658C50.0743 40.3828 50.4643 40.1534 50.8831 39.9765C51.052 39.9116 51.177 39.8621 51.2699 39.8343C51.3174 39.8155 51.3674 39.8025 51.4185 39.7957C51.4371 39.8281 50.5892 40.0769 49.7819 40.7229C49.4436 41.0016 49.1265 41.3011 48.8327 41.6192C48.7164 41.7587 48.5894 41.8904 48.4526 42.0133Z" fill="#263238"/>
<path d="M23.104 41.7305C23.0871 41.7305 23.0246 41.46 22.8169 41.0536C22.5491 40.5228 22.158 40.0519 21.6708 39.6737C21.1837 39.2955 20.6122 39.0191 19.9962 38.8638C19.5233 38.7432 19.2159 38.7309 19.2193 38.7092C19.2905 38.7011 19.3625 38.7011 19.4338 38.7092C19.6287 38.7246 19.8219 38.7546 20.0114 38.7989C20.6439 38.9414 21.2318 39.2159 21.7291 39.6009C22.2239 39.9879 22.6155 40.4731 22.8743 41.0196C22.9522 41.1837 23.016 41.3532 23.0652 41.5265C23.0879 41.5926 23.101 41.6612 23.104 41.7305Z" fill="#263238"/>
<path d="M23.2797 34.5089C23.2346 34.4948 23.1923 34.4739 23.1547 34.4471C23.0787 34.4038 22.9706 34.3358 22.8406 34.2462C22.5042 34.0128 22.1895 33.7544 21.8998 33.4735C21.6118 33.1927 21.3417 32.897 21.0908 32.588C20.9787 32.4648 20.8803 32.3317 20.7969 32.1908C20.9187 32.3039 21.0316 32.4247 21.1347 32.5524C21.3407 32.7796 21.6245 33.0918 21.9606 33.4178C22.2483 33.6956 22.554 33.9572 22.8761 34.2014C23.0168 34.2969 23.1515 34.3996 23.2797 34.5089Z" fill="#263238"/>
<path d="M42.3875 41.7229C42.3875 41.7229 42.3875 41.7337 42.3656 41.7538L42.2946 41.8388C42.2271 41.9114 42.1375 42.0258 42.0058 42.1587C41.6401 42.541 41.245 42.8989 40.8235 43.2297C40.1954 43.7227 39.5262 44.1702 38.822 44.568C37.9623 45.0516 37.0742 45.4916 36.1618 45.8862C35.1923 46.3081 34.2566 46.6836 33.4087 47.0329C32.5608 47.3821 31.8025 47.702 31.1758 47.991C30.5492 48.28 30.0493 48.5273 29.7081 48.7065C29.5392 48.7931 29.4074 48.8611 29.3179 48.9136L29.2149 48.9661C29.1912 48.977 29.1794 48.9831 29.1777 48.9816C29.187 48.9728 29.1979 48.9655 29.2098 48.96L29.3078 48.8997C29.3956 48.8487 29.5223 48.7714 29.6912 48.6787C30.029 48.4917 30.5222 48.2336 31.1471 47.94C31.7721 47.6464 32.5304 47.3219 33.3766 46.9649C34.2228 46.6079 35.1568 46.2354 36.123 45.8136C37.0329 45.4198 37.9197 44.9829 38.7798 44.5046C39.4813 44.1136 40.1498 43.6751 40.7796 43.1926C41.2047 42.8674 41.6059 42.5168 41.9805 42.1432C42.1156 42.015 42.2102 41.9037 42.2794 41.8342L42.3588 41.7554L42.3875 41.7229Z" fill="#263238"/>
<path d="M22.3828 53.3411V53.3086C22.3828 53.2823 22.3828 53.2514 22.3828 53.2113C22.3828 53.1216 22.398 52.9964 22.4081 52.8342C22.4732 52.3642 22.5766 51.8993 22.7172 51.4433C23.2362 49.8456 23.943 48.3041 24.8251 46.8458V46.8659C24.7153 45.4163 24.5515 43.7967 24.3623 42.0937C24.0009 38.8762 23.6225 35.9709 23.3489 33.866C23.2104 32.8183 23.0973 31.9683 23.0111 31.3764C22.974 31.0859 22.9453 30.8572 22.9233 30.698L22.903 30.5218C22.9008 30.5018 22.9008 30.4816 22.903 30.4615C22.9099 30.4806 22.9144 30.5003 22.9165 30.5203C22.9233 30.5635 22.9334 30.6223 22.9469 30.6964C22.9706 30.851 23.0061 31.0812 23.05 31.3718C23.1361 31.9637 23.2577 32.8121 23.4097 33.8599C23.7019 35.9616 24.0853 38.8669 24.4519 42.0844C24.641 43.7844 24.8032 45.4101 24.9062 46.8612V46.8721V46.8813C24.0234 48.3338 23.3096 49.867 22.7764 51.4557C22.6289 51.909 22.516 52.3712 22.4386 52.8388C22.4233 52.9934 22.4098 53.1247 22.4014 53.2128C22.4014 53.253 22.4014 53.2854 22.3896 53.3102C22.389 53.3207 22.3867 53.3311 22.3828 53.3411Z" fill="#263238"/>
<path d="M49.1015 28.1959C49.104 28.218 49.104 28.2403 49.1015 28.2624C49.1015 28.3103 49.1015 28.3736 49.1015 28.4571C49.1015 28.6271 49.1015 28.879 49.0863 29.202C49.0677 29.8495 48.9951 30.7845 48.8684 31.9373C48.7417 33.0902 48.5627 34.4579 48.3769 35.9785C48.1911 37.4992 48.0087 39.1728 47.9513 40.9377C47.9111 42.5956 48.0361 44.2534 48.3245 45.8907C48.5678 47.4051 48.8549 48.7574 49.0761 49.8979C49.2974 51.0384 49.4697 51.961 49.5643 52.6023C49.6149 52.9237 49.6437 53.1741 49.6639 53.3425C49.6639 53.4244 49.6791 53.4971 49.6842 53.5357C49.6865 53.5578 49.6865 53.5801 49.6842 53.6022C49.6772 53.581 49.6726 53.5593 49.6707 53.5373C49.6707 53.4893 49.6538 53.426 49.6403 53.3456C49.6149 53.1756 49.5812 52.9268 49.5237 52.6069C49.4207 51.9671 49.245 51.0445 49.017 49.9071C48.789 48.7697 48.4934 47.4175 48.2452 45.9015C47.9517 44.2601 47.824 42.5974 47.8634 40.9346C47.9226 39.1667 48.11 37.4915 48.2975 35.9708C48.485 34.4501 48.6775 33.0825 48.8042 31.9311C48.9309 30.7798 49.0187 29.8479 49.0491 29.2004C49.0711 28.8774 49.0728 28.6271 49.0795 28.4571C49.0795 28.3736 49.0795 28.3103 49.0795 28.2624C49.0846 28.2397 49.0919 28.2174 49.1015 28.1959Z" fill="#263238"/>
<g opacity="0.3">
<path d="M22.9825 31.0519C22.5156 35.3199 23.0565 39.6299 24.5685 43.6901L22.9825 31.0519Z" fill="black"/>
</g>
<g opacity="0.3">
<path d="M39.9146 45.8181C37.8405 47.5613 35.7596 49.0511 33.2075 49.881C35.1313 50.0355 37.072 49.3571 38.5583 48.2305C40.0447 47.1039 41.1037 45.9124 41.7843 44.265L39.9146 45.8181Z" fill="black"/>
</g>
<path d="M37.5519 47.7375C37.535 47.722 38.8254 46.6387 40.4334 45.3189C42.0413 43.9992 43.3588 42.9437 43.374 42.9607C43.3892 42.9777 42.1004 44.0594 40.4925 45.3792C38.8846 46.699 37.5688 47.7545 37.5519 47.7375Z" fill="#263238"/>
<path d="M42.139 15.0323C42.139 15.224 42.0769 15.4114 41.9604 15.5708C41.844 15.7302 41.6785 15.8544 41.4849 15.9277C41.2913 16.001 41.0783 16.0201 40.8728 15.9825C40.6673 15.945 40.4786 15.8526 40.3306 15.7169C40.1825 15.5813 40.0818 15.4085 40.0411 15.2204C40.0005 15.0323 40.0217 14.8375 40.1021 14.6604C40.1825 14.4834 40.3185 14.3322 40.4929 14.2259C40.6673 14.1196 40.8722 14.063 41.0817 14.0634C41.2207 14.0634 41.3583 14.0884 41.4867 14.1371C41.6151 14.1859 41.7317 14.2573 41.8299 14.3473C41.9281 14.4372 42.006 14.5441 42.059 14.6616C42.1121 14.7792 42.1392 14.9051 42.139 15.0323Z" fill="#455A64"/>
<path d="M48.4408 27.757C48.1289 25.3874 47.817 23.0178 47.5051 20.6482L40.8082 18.7937C40.6781 23.0219 39.8691 27.7693 38.707 31.8631C41.1844 32.5968 43.8026 32.8464 46.392 32.5956C46.5047 31.452 46.6173 30.3084 46.7299 29.1648C46.8965 30.0271 47.0654 30.889 47.2366 31.7503C47.9392 31.3902 48.353 30.6685 48.4932 29.9468C48.6334 29.2251 48.5371 28.4957 48.4408 27.757Z" fill="#263238"/>
<path d="M43.2 32.6282C43.2 32.6282 43.2 32.5988 43.2203 32.5401C43.2406 32.4814 43.2575 32.3856 43.2862 32.279C43.3453 32.0471 43.4314 31.7102 43.5429 31.2791C43.7625 30.409 44.0868 29.1526 44.4026 27.5841C44.788 25.7475 45.0318 23.8885 45.1323 22.0206C45.261 19.7362 45.0335 17.4467 44.4567 15.2209C43.8858 12.9904 42.8294 10.888 41.3506 9.03936C41.1817 8.83073 41.0128 8.61901 40.8236 8.4212C40.6344 8.22339 40.4672 8.03022 40.2764 7.8525L39.9977 7.58205L39.7139 7.32397C39.5281 7.15089 39.3356 6.99171 39.1498 6.83099C38.3982 6.19429 37.6635 5.63486 37.0064 5.10943C36.3494 4.58399 35.7633 4.10029 35.2769 3.64749C35.1536 3.53467 35.0421 3.42031 34.9391 3.31523C34.836 3.21014 34.7229 3.10351 34.6283 3.00615C34.5337 2.90879 34.4374 2.80525 34.3496 2.71098L34.1115 2.43281C33.9561 2.25973 33.8395 2.09282 33.7297 1.95219C33.62 1.81156 33.5389 1.68793 33.473 1.58593L33.3244 1.35722C33.2906 1.30467 33.2754 1.27686 33.2754 1.27686C33.2754 1.27686 33.2957 1.30158 33.3328 1.35258L33.4882 1.57821C33.5558 1.67711 33.6402 1.80074 33.7517 1.93828C33.8632 2.07582 33.9814 2.24736 34.1385 2.41426L34.3783 2.68934L34.6587 2.98142C34.755 3.08496 34.8597 3.1885 34.9729 3.2905C35.086 3.3925 35.1958 3.50995 35.3208 3.61967C35.8072 4.06938 36.3967 4.5469 37.0554 5.07079C37.7141 5.59468 38.4505 6.15257 39.2072 6.78618C39.393 6.94072 39.5889 7.10762 39.7747 7.27916L40.0602 7.53724L40.3405 7.80923C40.5331 7.98694 40.7071 8.1863 40.8912 8.37947C41.0753 8.57265 41.2475 8.78282 41.4249 8.99763C42.91 10.8537 43.97 12.9653 44.5411 15.2055C45.1213 17.4391 45.3488 19.7373 45.2167 22.0299C45.1121 23.8984 44.8615 25.7576 44.4668 27.5933C44.1425 29.1634 43.8098 30.4183 43.5801 31.2868C43.4635 31.7195 43.3706 32.0595 43.3064 32.2836C43.2744 32.3949 43.249 32.4798 43.2321 32.5417C43.2152 32.6035 43.2 32.6282 43.2 32.6282Z" fill="#455A64"/>
</svg>
