<svg width="18" height="16" viewBox="0 0 18 16" fill="none" xmlns="http://www.w3.org/2000/svg">
<path d="M16.0827 15.1665H1.91602C1.6256 15.1665 1.38477 14.9398 1.38477 14.6665C1.38477 14.3932 1.6256 14.1665 1.91602 14.1665H16.0827C16.3731 14.1665 16.6139 14.3932 16.6139 14.6665C16.6139 14.9398 16.3731 15.1665 16.0827 15.1665Z" fill="#8A8A8A"/>
<path d="M15.2973 15.1665C15.0069 15.1665 14.766 14.9398 14.766 14.6665V8.6665C14.766 7.83984 13.9444 7.1665 12.9385 7.1665H5.06187C4.05604 7.1665 3.23438 7.83984 3.23438 8.6665V14.6665C3.23438 14.9398 2.99354 15.1665 2.70312 15.1665C2.41271 15.1665 2.17188 14.9398 2.17188 14.6665V8.6665C2.17188 7.2865 3.46812 6.1665 5.06187 6.1665H12.9315C14.5252 6.1665 15.8215 7.2865 15.8215 8.6665V14.6665C15.8285 14.9398 15.5877 15.1665 15.2973 15.1665Z" fill="#8A8A8A"/>
<path d="M13.5608 7.16683C13.2704 7.16683 13.0296 6.94016 13.0296 6.66683V4.78016C13.0296 4.26016 12.4983 3.8335 11.8538 3.8335H6.15167C5.5 3.8335 4.97583 4.26016 4.97583 4.78016V6.66683C4.97583 6.94016 4.735 7.16683 4.44458 7.16683C4.15417 7.16683 3.90625 6.94016 3.90625 6.66683V4.78016C3.90625 3.70683 4.91208 2.8335 6.14458 2.8335H11.8467C13.0792 2.8335 14.085 3.70683 14.085 4.78016V6.66683C14.0921 6.94016 13.8513 7.16683 13.5608 7.16683Z" fill="#8A8A8A"/>
<path d="M12.7754 11.8335C11.9537 11.8335 11.2879 11.2068 11.2879 10.4335V10.2268C11.2879 10.0068 11.0967 9.82681 10.8629 9.82681C10.6292 9.82681 10.4379 10.0068 10.4379 10.2268V10.4335C10.4379 11.2068 9.77208 11.8335 8.95041 11.8335C8.12875 11.8335 7.46291 11.2068 7.46291 10.4335V10.2268C7.46291 10.0068 7.27166 9.82681 7.03791 9.82681C6.80416 9.82681 6.61291 10.0068 6.61291 10.2268V10.4335C6.61291 11.2068 5.94708 11.8335 5.12541 11.8335C4.30375 11.8335 3.63791 11.2068 3.63791 10.4335V10.2135C3.63791 10.0001 3.45375 9.82014 3.22 9.81348H2.95791C2.6675 9.80681 2.42666 9.58014 2.43375 9.30681C2.44083 9.03348 2.67458 8.81348 2.965 8.81348H2.97208H3.23416C4.04166 8.82681 4.70041 9.45348 4.70041 10.2135V10.4335C4.70041 10.6535 4.89166 10.8335 5.12541 10.8335C5.35916 10.8335 5.55041 10.6535 5.55041 10.4335V10.2268C5.55041 9.45348 6.21625 8.82681 7.03791 8.82681C7.85958 8.82681 8.52541 9.45348 8.52541 10.2268V10.4335C8.52541 10.6535 8.71666 10.8335 8.95041 10.8335C9.18416 10.8335 9.37541 10.6535 9.37541 10.4335V10.2268C9.37541 9.45348 10.0412 8.82681 10.8629 8.82681C11.6846 8.82681 12.3504 9.45348 12.3504 10.2268V10.4335C12.3504 10.6535 12.5417 10.8335 12.7754 10.8335C13.0092 10.8335 13.2004 10.6535 13.2004 10.4335V10.2268C13.2004 9.45348 13.8662 8.82681 14.6879 8.82681H15.0067C15.2971 8.82681 15.5379 9.05348 15.5379 9.32681C15.5379 9.60014 15.2971 9.82681 15.0067 9.82681H14.6879C14.4542 9.82681 14.2629 10.0068 14.2629 10.2268V10.4335C14.2629 11.2068 13.5971 11.8335 12.7754 11.8335Z" fill="#8A8A8A"/>
<path d="M6.16602 3.83333C5.8756 3.83333 5.63477 3.60667 5.63477 3.33333V2C5.63477 1.72667 5.8756 1.5 6.16602 1.5C6.45643 1.5 6.69727 1.72667 6.69727 2V3.33333C6.69727 3.60667 6.45643 3.83333 6.16602 3.83333Z" fill="#8A8A8A"/>
<path d="M11.834 3.83333C11.5436 3.83333 11.3027 3.60667 11.3027 3.33333V2C11.3027 1.72667 11.5436 1.5 11.834 1.5C12.1244 1.5 12.3652 1.72667 12.3652 2V3.33333C12.3652 3.60667 12.1244 3.83333 11.834 3.83333Z" fill="#8A8A8A"/>
<path d="M9 3.8335C8.70958 3.8335 8.46875 3.60683 8.46875 3.3335V1.3335C8.46875 1.06016 8.70958 0.833496 9 0.833496C9.29042 0.833496 9.53125 1.06016 9.53125 1.3335V3.3335C9.53125 3.60683 9.29042 3.8335 9 3.8335Z" fill="#8A8A8A"/>
</svg>
