<svg width="225" height="149" viewBox="0 0 225 149" fill="none" xmlns="http://www.w3.org/2000/svg">
<circle cx="112.353" cy="30.3532" r="30.3532" fill="#8A8A8A"/>
<path d="M117.787 24.4751C117.787 24.4751 117.825 23.2876 117.787 22.9001C117.575 20.3501 115.913 19.4751 112.65 19.4751H104.763C100.812 19.4751 99.5 20.7876 99.5 24.7376V35.2626C99.5 36.8376 99.975 38.4251 101.212 39.4376L102 40.0001" stroke="white" stroke-width="2.52943" stroke-linecap="round" stroke-linejoin="round"/>
<path d="M117.925 28.6875V35.2625C117.925 39.2125 116.613 40.525 112.663 40.525H106.075" stroke="white" stroke-width="2.52943" stroke-linecap="round" stroke-linejoin="round"/>
<path d="M124.5 23.4253V34.7628C124.5 36.8503 123.1 37.5753 121.4 36.3753L117.925 33.9378" stroke="white" stroke-width="2.52943" stroke-linecap="round" stroke-linejoin="round"/>
<path d="M124.525 17.7373L99.5249 42.7373" stroke="white" stroke-width="2.52943" stroke-linecap="round" stroke-linejoin="round"/>
<circle cx="194.353" cy="118.353" r="30.3532" fill="#CB1429"/>
<path d="M179.288 120.951C178.981 120.622 178.739 120.215 178.588 119.741C178.437 119.267 178.348 118.769 178.341 118.229C178.329 117.317 178.491 116.501 178.836 115.752C179.172 115.012 179.655 114.34 180.296 113.743C181.229 112.874 182.43 112.165 183.9 111.634C185.369 111.102 186.983 110.726 188.733 110.514C190.501 110.303 192.29 110.225 194.119 110.281C195.947 110.355 197.726 110.56 199.457 110.895C201.178 111.239 202.753 111.72 204.155 112.345C205.565 112.978 206.713 113.771 207.599 114.722C208.178 115.344 208.622 116.041 208.914 116.794C209.214 117.557 209.344 118.393 209.285 119.302C209.236 120.423 208.86 121.303 208.183 121.933C207.927 122.172 207.62 122.356 207.289 122.459C206.949 122.571 206.585 122.602 206.199 122.517L201.291 121.503C200.913 121.428 200.598 121.328 200.329 121.203C200.067 121.088 199.843 120.938 199.681 120.765C199.476 120.545 199.336 120.266 199.268 119.936C199.191 119.615 199.16 119.234 199.175 118.81L199.198 117.44C199.204 117.245 199.139 117.084 199.003 116.937C198.935 116.864 198.866 116.809 198.78 116.753C198.684 116.705 198.606 116.676 198.536 116.638C198.09 116.489 197.44 116.36 196.595 116.259C195.74 116.167 194.85 116.091 193.923 116.049C192.977 116.025 192.084 116.019 191.216 116.059C190.365 116.1 189.716 116.192 189.252 116.317C189.189 116.341 189.109 116.365 189.019 116.397C188.921 116.438 188.839 116.497 188.757 116.573C188.601 116.718 188.533 116.884 188.526 117.078L188.47 118.412C188.454 118.853 188.397 119.232 188.289 119.537C188.197 119.861 188.047 120.121 187.818 120.334C187.644 120.496 187.427 120.63 187.149 120.735C186.871 120.84 186.55 120.917 186.177 120.975L181.147 121.645C180.756 121.702 180.412 121.663 180.099 121.528C179.794 121.385 179.526 121.207 179.288 120.951Z" stroke="white" stroke-width="2.52943" stroke-miterlimit="10"/>
<circle cx="192.353" cy="32.3532" r="30.3532" fill="#8A8A8A"/>
<path d="M179.5 30.5002V35.5002C179.5 38.0002 180.75 39.2502 183.25 39.2502H185.037C185.5 39.2502 185.962 39.3877 186.362 39.6252L190.012 41.9127C193.162 43.8877 195.75 42.4502 195.75 38.7377V27.2627C195.75 23.5377 193.162 22.1127 190.012 24.0877L186.362 26.3752C185.962 26.6127 185.5 26.7502 185.037 26.7502H183.25C180.75 26.7502 179.5 28.0002 179.5 30.5002Z" stroke="white" stroke-width="2.52943"/>
<path d="M199.5 28C201.725 30.9625 201.725 35.0375 199.5 38" stroke="white" stroke-width="2.52943" stroke-linecap="round" stroke-linejoin="round"/>
<path d="M201.788 24.875C205.4 29.6875 205.4 36.3125 201.788 41.125" stroke="white" stroke-width="2.52943" stroke-linecap="round" stroke-linejoin="round"/>
<circle cx="31.3532" cy="30.3532" r="30.3532" fill="#8A8A8A"/>
<path d="M36 22.875V22.5C36 19.7375 33.7625 17.5 31 17.5C28.2375 17.5 26 19.7375 26 22.5V28.75" stroke="white" stroke-width="2.52943" stroke-linecap="round" stroke-linejoin="round"/>
<path d="M27.2998 32.7375C28.2123 33.75 29.5373 34.375 30.9998 34.375C33.7623 34.375 35.9998 32.1375 35.9998 29.375V28.75" stroke="white" stroke-width="2.52943" stroke-linecap="round" stroke-linejoin="round"/>
<path d="M24.4751 36.1875C26.1876 37.775 28.4751 38.75 31.0001 38.75C36.2751 38.75 40.5626 34.4625 40.5626 29.1875V27.0625" stroke="white" stroke-width="2.52943" stroke-linecap="round" stroke-linejoin="round"/>
<path d="M21.4375 27.0625V29.1875C21.4375 30.5125 21.7 31.7625 22.1875 32.9125" stroke="white" stroke-width="2.52943" stroke-linecap="round" stroke-linejoin="round"/>
<path d="M41.0876 18.5503L20.9126 38.7378" stroke="white" stroke-width="2.52943" stroke-linecap="round" stroke-linejoin="round"/>
<path d="M29.75 18.75V22.5" stroke="white" stroke-width="2.52943" stroke-linecap="round" stroke-linejoin="round"/>
<path d="M31 38.75V42.5" stroke="white" stroke-width="2.52943" stroke-linecap="round" stroke-linejoin="round"/>
<circle cx="30.3532" cy="117.353" r="30.3532" fill="#8A8A8A"/>
<path d="M43.5738 120.75V113.25C43.5738 110.019 42.9342 107.478 41.2281 105.772C39.5219 104.066 36.9809 103.426 33.75 103.426H26.25C23.0191 103.426 20.4781 104.066 18.7719 105.772C17.0658 107.478 16.4262 110.019 16.4262 113.25V120.75C16.4262 123.981 17.0658 126.522 18.7719 128.228C20.4781 129.934 23.0191 130.574 26.25 130.574H33.75C36.9809 130.574 39.5219 129.934 41.2281 128.228C42.9342 126.522 43.5738 123.981 43.5738 120.75Z" stroke="white" stroke-width="2.14763" stroke-linecap="round" stroke-linejoin="round"/>
<path d="M18.1499 110.887H41.8499" stroke="white" stroke-width="2.14763" stroke-linecap="round" stroke-linejoin="round"/>
<path d="M25.6499 104.638V110.713" stroke="white" stroke-width="2.14763" stroke-linecap="round" stroke-linejoin="round"/>
<path d="M34.3501 104.638V110.15" stroke="white" stroke-width="2.14763" stroke-linecap="round" stroke-linejoin="round"/>
<path d="M33.3505 117.383L33.3491 117.383L32.0491 116.633L30.7505 115.883C30.7503 115.883 30.75 115.883 30.7497 115.883C29.719 115.286 28.5344 115.1 27.539 115.675C26.5441 116.251 26.1137 117.371 26.1137 118.563V120.063V121.563C26.1137 122.755 26.5441 123.875 27.539 124.45C28.5344 125.026 29.719 124.839 30.7498 124.242C30.75 124.242 30.7503 124.242 30.7505 124.242L32.0491 123.493L33.3491 122.743L33.3505 122.742C34.3816 122.145 35.1332 121.211 35.1332 120.063C35.1332 118.914 34.3816 117.98 33.3505 117.383Z" stroke="white" stroke-width="2.14763" stroke-miterlimit="10" stroke-linecap="round" stroke-linejoin="round"/>
<circle cx="112.353" cy="118.353" r="30.3532" fill="#8A8A8A"/>
<path d="M125.09 111.831L125.088 111.82L125.084 111.808C124.29 109.371 122.047 107.732 119.499 107.732C117.857 107.732 116.324 108.409 115.21 109.606H108.789C107.675 108.409 106.143 107.732 104.5 107.732C101.952 107.732 99.709 109.371 98.9159 111.808L98.9122 111.82L98.9095 111.831L96.9149 120.51C96.9149 120.51 96.9148 120.511 96.9148 120.511C96.7931 121.029 96.7315 121.552 96.7315 122.062C96.7315 125.829 99.7954 128.893 103.562 128.893C106.154 128.893 108.503 127.417 109.653 125.143H114.347C115.497 127.417 117.846 128.893 120.438 128.893C124.205 128.893 127.268 125.829 127.268 122.062V122.062C127.267 121.552 127.206 121.029 127.084 120.507C127.084 120.507 127.084 120.507 127.084 120.507L125.09 111.831ZM115.392 123.847L115.329 123.669H115.139H108.86H108.67L108.607 123.847C107.87 125.927 105.892 127.418 103.562 127.418C100.604 127.418 98.2059 125.021 98.2059 122.062C98.2059 121.643 98.2592 121.236 98.3508 120.842L98.351 120.841L100.321 112.254C100.902 110.487 102.544 109.206 104.5 109.206C105.938 109.206 107.206 109.904 108.014 110.974L108.094 111.081H108.228H115.77H115.904L115.984 110.974C116.793 109.904 118.061 109.206 119.499 109.206C121.455 109.206 123.097 110.487 123.677 112.254L125.647 120.841L125.647 120.843C125.74 121.237 125.793 121.643 125.793 122.062C125.793 125.021 123.395 127.418 120.437 127.418C118.107 127.418 116.128 125.927 115.392 123.847ZM105.437 116.706H107.044V118.044H105.437H105.169V118.312V119.919H103.831V118.312V118.044H103.562H101.956V116.706H103.562H103.831V116.437V114.831H105.169V116.437V116.706H105.437ZM115.749 113.356C114.565 113.356 113.606 114.316 113.606 115.5C113.606 116.684 114.565 117.643 115.749 117.643C116.934 117.643 117.893 116.684 117.893 115.5C117.893 114.316 116.934 113.356 115.749 113.356ZM115.749 116.169C115.381 116.169 115.08 115.868 115.08 115.5C115.08 115.131 115.381 114.831 115.749 114.831C116.118 114.831 116.418 115.131 116.418 115.5C116.418 115.868 116.118 116.169 115.749 116.169ZM120.437 112.419C119.253 112.419 118.293 113.378 118.293 114.562C118.293 115.746 119.253 116.706 120.437 116.706C121.621 116.706 122.58 115.746 122.58 114.562C122.58 113.378 121.621 112.419 120.437 112.419ZM120.437 115.231C120.068 115.231 119.768 114.931 119.768 114.562C119.768 114.194 120.068 113.893 120.437 113.893C120.805 113.893 121.106 114.194 121.106 114.562C121.106 114.931 120.805 115.231 120.437 115.231ZM115.749 118.044C114.565 118.044 113.606 119.003 113.606 120.187C113.606 121.371 114.565 122.331 115.749 122.331C116.934 122.331 117.893 121.371 117.893 120.187C117.893 119.003 116.934 118.044 115.749 118.044ZM115.749 120.856C115.381 120.856 115.08 120.555 115.08 120.187C115.08 119.819 115.381 119.518 115.749 119.518C116.118 119.518 116.418 119.819 116.418 120.187C116.418 120.555 116.118 120.856 115.749 120.856ZM120.437 117.106C119.253 117.106 118.293 118.065 118.293 119.25C118.293 120.434 119.253 121.393 120.437 121.393C121.621 121.393 122.58 120.434 122.58 119.25C122.58 118.065 121.621 117.106 120.437 117.106ZM120.437 119.919C120.068 119.919 119.768 119.618 119.768 119.25C119.768 118.881 120.068 118.581 120.437 118.581C120.805 118.581 121.106 118.881 121.106 119.25C121.106 119.618 120.805 119.919 120.437 119.919ZM107.312 115.231H106.643V114.562C106.643 113.897 106.103 113.356 105.437 113.356H103.562C102.897 113.356 102.356 113.897 102.356 114.562V115.231H101.687C101.022 115.231 100.481 115.771 100.481 116.437V118.312C100.481 118.978 101.022 119.518 101.687 119.518H102.356V120.187C102.356 120.853 102.897 121.393 103.562 121.393H105.437C106.103 121.393 106.643 120.853 106.643 120.187V119.518H107.312C107.978 119.518 108.518 118.978 108.518 118.312V116.437C108.518 115.771 107.978 115.231 107.312 115.231Z" fill="white" stroke="white" stroke-width="0.536907"/>
</svg>
