<svg width="17" height="16" viewBox="0 0 17 16" fill="none" xmlns="http://www.w3.org/2000/svg">
<path fill-rule="evenodd" clip-rule="evenodd" d="M10.0003 2C9.86771 2 9.74053 1.94732 9.64676 1.85355C9.553 1.75979 9.50032 1.63261 9.50032 1.5C9.50032 1.36739 9.553 1.24021 9.64676 1.14645C9.74053 1.05268 9.86771 1 10.0003 1H15.0003C15.1329 1 15.2601 1.05268 15.3539 1.14645C15.4476 1.24021 15.5003 1.36739 15.5003 1.5V6.5C15.5003 6.63261 15.4476 6.75979 15.3539 6.85355C15.2601 6.94732 15.1329 7 15.0003 7C14.8677 7 14.7405 6.94732 14.6468 6.85355C14.553 6.75979 14.5003 6.63261 14.5003 6.5V2.707L10.3713 6.836C11.1831 7.82919 11.5822 9.0964 11.4859 10.3755C11.3896 11.6547 10.8054 12.8479 9.85413 13.7084C8.90282 14.5689 7.65718 15.0309 6.37482 14.9987C5.09247 14.9666 3.87151 14.4429 2.96447 13.5359C2.05742 12.6288 1.53368 11.4078 1.50157 10.1255C1.46945 8.84314 1.93142 7.5975 2.79193 6.64619C3.65243 5.69488 4.84565 5.11068 6.12478 5.01442C7.40392 4.91815 8.67113 5.31719 9.66432 6.129L13.7933 2H10.0003ZM6.50032 6C5.43945 6 4.42204 6.42143 3.67189 7.17157C2.92175 7.92172 2.50032 8.93913 2.50032 10C2.50032 11.0609 2.92175 12.0783 3.67189 12.8284C4.42204 13.5786 5.43945 14 6.50032 14C7.56118 14 8.5786 13.5786 9.32875 12.8284C10.0789 12.0783 10.5003 11.0609 10.5003 10C10.5003 8.93913 10.0789 7.92172 9.32875 7.17157C8.5786 6.42143 7.56118 6 6.50032 6Z" fill="#8A8A8A"/>
</svg>
