<svg width="26" height="25" viewBox="0 0 26 25" fill="none" xmlns="http://www.w3.org/2000/svg">
<path d="M12.8992 23.5016C6.69514 23.5016 1.65234 18.5404 1.65234 12.4368C1.65234 6.3332 6.69514 1.37207 12.8992 1.37207C19.1033 1.37207 24.1461 6.3332 24.1461 12.4368C24.1461 18.5404 19.1033 23.5016 12.8992 23.5016ZM12.8992 2.91599C7.5635 2.91599 3.22168 7.1875 3.22168 12.4368C3.22168 17.6861 7.5635 21.9577 12.8992 21.9577C18.235 21.9577 22.5768 17.6861 22.5768 12.4368C22.5768 7.1875 18.235 2.91599 12.8992 2.91599Z" fill="white" fill-opacity="0.5"/>
<path d="M9.76001 22.4723H8.71379C8.28484 22.4723 7.92912 22.1223 7.92912 21.7003C7.92912 21.2783 8.26391 20.9387 8.69287 20.9284C7.05029 15.4115 7.05029 9.46222 8.69287 3.94529C8.26391 3.93499 7.92912 3.59533 7.92912 3.17333C7.92912 2.75132 8.28484 2.40137 8.71379 2.40137H9.76001C10.0111 2.40137 10.2517 2.52488 10.3982 2.72044C10.5447 2.9263 10.5865 3.18362 10.5028 3.42035C8.53593 9.23578 8.53593 15.6379 10.5028 21.4636C10.5865 21.7003 10.5447 21.9577 10.3982 22.1635C10.2517 22.3488 10.0111 22.4723 9.76001 22.4723Z" fill="white" fill-opacity="0.5"/>
<path d="M16.0371 22.4732C15.9534 22.4732 15.8697 22.4629 15.786 22.4321C15.378 22.2982 15.1478 21.8557 15.2943 21.4542C17.2612 15.6388 17.2612 9.2367 15.2943 3.41098C15.1583 3.00956 15.378 2.56697 15.786 2.43316C16.2045 2.29936 16.6439 2.5155 16.7799 2.91692C18.8619 9.05143 18.8619 15.8035 16.7799 21.9277C16.6753 22.2674 16.3615 22.4732 16.0371 22.4732Z" fill="white" fill-opacity="0.5"/>
<path d="M12.8979 17.7891C9.97898 17.7891 7.07048 17.3877 4.2666 16.5746C4.25614 16.9863 3.91088 17.3259 3.48193 17.3259C3.05298 17.3259 2.69727 16.976 2.69727 16.554V15.5247C2.69727 15.2777 2.82281 15.0409 3.02159 14.8968C3.23084 14.7527 3.49239 14.7116 3.73303 14.7939C9.64418 16.729 16.1622 16.729 22.0733 14.7939C22.3139 14.7116 22.5755 14.7527 22.7847 14.8968C22.994 15.0409 23.1091 15.2777 23.1091 15.5247V16.554C23.1091 16.976 22.7534 17.3259 22.3244 17.3259C21.8955 17.3259 21.5502 16.9966 21.5397 16.5746C18.7254 17.3877 15.8169 17.7891 12.8979 17.7891Z" fill="white" fill-opacity="0.5"/>
<path d="M22.3139 10.121C22.2302 10.121 22.1465 10.1107 22.0628 10.0798C16.1516 8.14476 9.63368 8.14476 3.72252 10.0798C3.30403 10.2136 2.86462 9.99746 2.72861 9.59604C2.60306 9.18433 2.82277 8.75204 3.23079 8.61823C9.46628 6.56997 16.3295 6.56997 22.5545 8.61823C22.9626 8.75204 23.1927 9.19463 23.0463 9.59604C22.9521 9.91512 22.6382 10.121 22.3139 10.121Z" fill="white" fill-opacity="0.5"/>
</svg>
