<svg width="53" height="54" viewBox="0 0 53 54" fill="none" xmlns="http://www.w3.org/2000/svg">
<g filter="url(#filter0_d_1646_18601)">
<path d="M26.4999 40.7733C36.0387 40.7733 43.7714 33.0406 43.7714 23.5019C43.7714 13.9632 36.0387 6.23047 26.4999 6.23047C16.9612 6.23047 9.22852 13.9632 9.22852 23.5019C9.22852 33.0406 16.9612 40.7733 26.4999 40.7733Z" stroke="white" stroke-width="4.45714"/>
</g>
<g filter="url(#filter1_d_1646_18601)">
<path d="M26.5007 32.9722C31.7317 32.9722 35.9722 28.7317 35.9722 23.5007C35.9722 18.2698 31.7317 14.0293 26.5007 14.0293C21.2698 14.0293 17.0293 18.2698 17.0293 23.5007C17.0293 28.7317 21.2698 32.9722 26.5007 32.9722Z" fill="white"/>
</g>
<path d="M21.1668 22.8426C21.1252 22.6502 21.0524 22.5072 20.9484 22.4136C20.8444 22.3148 20.6962 22.2654 20.5038 22.2654C20.2074 22.2654 19.9942 22.3954 19.8642 22.6554C19.7342 22.9102 19.6666 23.3158 19.6614 23.8722C19.7758 23.6902 19.9396 23.5472 20.1528 23.4432C20.3712 23.3392 20.6104 23.2872 20.8704 23.2872C21.38 23.2872 21.7882 23.4484 22.095 23.7708C22.407 24.0932 22.563 24.543 22.563 25.1202C22.563 25.4998 22.485 25.8326 22.329 26.1186C22.1782 26.4046 21.9546 26.6282 21.6582 26.7894C21.367 26.9506 21.0212 27.0312 20.6208 27.0312C19.82 27.0312 19.2636 26.7816 18.9516 26.2824C18.6396 25.778 18.4836 25.0552 18.4836 24.114C18.4836 23.126 18.6474 22.3928 18.975 21.9144C19.3078 21.4308 19.8382 21.189 20.5662 21.189C20.9562 21.189 21.2838 21.267 21.549 21.423C21.8194 21.5738 22.0222 21.774 22.1574 22.0236C22.2978 22.2732 22.381 22.5462 22.407 22.8426H21.1668ZM20.5506 24.3402C20.327 24.3402 20.1398 24.4078 19.989 24.543C19.8434 24.673 19.7706 24.8602 19.7706 25.1046C19.7706 25.3542 19.8382 25.5492 19.9734 25.6896C20.1138 25.83 20.3114 25.9002 20.5662 25.9002C20.795 25.9002 20.9744 25.8326 21.1044 25.6974C21.2396 25.557 21.3072 25.3672 21.3072 25.128C21.3072 24.8836 21.2422 24.6912 21.1122 24.5508C20.9822 24.4104 20.795 24.3402 20.5506 24.3402ZM23.3174 24.075C23.3174 23.1806 23.489 22.476 23.8322 21.9612C24.1806 21.4464 24.7396 21.189 25.5092 21.189C26.2788 21.189 26.8352 21.4464 27.1784 21.9612C27.5268 22.476 27.701 23.1806 27.701 24.075C27.701 24.9798 27.5268 25.6896 27.1784 26.2044C26.8352 26.7192 26.2788 26.9766 25.5092 26.9766C24.7396 26.9766 24.1806 26.7192 23.8322 26.2044C23.489 25.6896 23.3174 24.9798 23.3174 24.075ZM26.3906 24.075C26.3906 23.5498 26.3334 23.1468 26.219 22.866C26.1046 22.58 25.868 22.437 25.5092 22.437C25.1504 22.437 24.9138 22.58 24.7994 22.866C24.685 23.1468 24.6278 23.5498 24.6278 24.075C24.6278 24.4286 24.6486 24.7224 24.6902 24.9564C24.7318 25.1852 24.815 25.3724 24.9398 25.518C25.0698 25.6584 25.2596 25.7286 25.5092 25.7286C25.7588 25.7286 25.946 25.6584 26.0708 25.518C26.2008 25.3724 26.2866 25.1852 26.3282 24.9564C26.3698 24.7224 26.3906 24.4286 26.3906 24.075ZM28.2965 22.7412C28.2965 22.32 28.4161 21.995 28.6553 21.7662C28.8997 21.5374 29.2143 21.423 29.5991 21.423C29.9839 21.423 30.2959 21.5374 30.5351 21.7662C30.7743 21.995 30.8939 22.32 30.8939 22.7412C30.8939 23.1624 30.7743 23.4874 30.5351 23.7162C30.2959 23.945 29.9839 24.0594 29.5991 24.0594C29.2143 24.0594 28.8997 23.945 28.6553 23.7162C28.4161 23.4874 28.2965 23.1624 28.2965 22.7412ZM33.5927 21.5088L30.5897 27H29.3027L32.3057 21.5088H33.5927ZM29.5913 22.203C29.3417 22.203 29.2169 22.3824 29.2169 22.7412C29.2169 23.0948 29.3417 23.2716 29.5913 23.2716C29.7109 23.2716 29.8045 23.2274 29.8721 23.139C29.9397 23.0506 29.9735 22.918 29.9735 22.7412C29.9735 22.3824 29.8461 22.203 29.5913 22.203ZM32.0093 25.7676C32.0093 25.3464 32.1289 25.0214 32.3681 24.7926C32.6073 24.5638 32.9193 24.4494 33.3041 24.4494C33.6889 24.4494 34.0009 24.5638 34.2401 24.7926C34.4793 25.0214 34.5989 25.3464 34.5989 25.7676C34.5989 26.1888 34.4793 26.5138 34.2401 26.7426C34.0009 26.9714 33.6889 27.0858 33.3041 27.0858C32.9193 27.0858 32.6073 26.9714 32.3681 26.7426C32.1289 26.5138 32.0093 26.1888 32.0093 25.7676ZM33.2963 25.2294C33.1767 25.2294 33.0831 25.2736 33.0155 25.362C32.9531 25.4504 32.9219 25.5856 32.9219 25.7676C32.9219 26.1212 33.0467 26.298 33.2963 26.298C33.4159 26.298 33.5095 26.2538 33.5771 26.1654C33.6447 26.077 33.6785 25.9444 33.6785 25.7676C33.6785 25.5908 33.6447 25.4582 33.5771 25.3698C33.5095 25.2762 33.4159 25.2294 33.2963 25.2294Z" fill="black"/>
<path d="M34.7743 31.7735C32.8604 33.6877 30.342 34.8789 27.6482 35.1444C24.9544 35.4099 22.2519 34.7331 20.0011 33.2294C17.7504 31.7256 16.0907 29.4881 15.3048 26.8978C14.5189 24.3076 14.6554 21.525 15.6911 19.0241C16.7268 16.5232 18.5976 14.4588 20.9848 13.1827C23.3719 11.9065 26.1277 11.4976 28.7825 12.0255C31.4374 12.5534 33.8271 13.9855 35.5445 16.0778C37.2618 18.1701 38.2006 20.7931 38.2008 23.5C38.2029 25.0368 37.9013 26.5589 37.3133 27.9787C36.7253 29.3986 35.8624 30.6882 34.7743 31.7735V31.7735Z" stroke="black" stroke-opacity="0.33" stroke-width="2.22857" stroke-miterlimit="10"/>
<path d="M26.5337 11.8008C28.4592 11.7949 30.3565 12.2644 32.0571 13.1675C33.7577 14.0706 35.2092 15.3795 36.2827 16.9781C37.3562 18.5767 38.0185 20.4155 38.211 22.3314C38.4034 24.2474 38.12 26.1811 37.3859 27.9613C36.6518 29.7414 35.4897 31.3129 34.0027 32.5362C32.5156 33.7595 30.7496 34.5969 28.8614 34.9741C26.9731 35.3513 25.021 35.2566 23.1781 34.6984C21.3352 34.1403 19.6585 33.1359 18.2969 31.7744" stroke="#155332" stroke-width="2.22857" stroke-miterlimit="10"/>
<defs>
<filter id="filter0_d_1646_18601" x="0.314286" y="0.659096" width="52.3714" height="52.3714" filterUnits="userSpaceOnUse" color-interpolation-filters="sRGB">
<feFlood flood-opacity="0" result="BackgroundImageFix"/>
<feColorMatrix in="SourceAlpha" type="matrix" values="0 0 0 0 0 0 0 0 0 0 0 0 0 0 0 0 0 0 127 0" result="hardAlpha"/>
<feOffset dy="3.34286"/>
<feGaussianBlur stdDeviation="3.34286"/>
<feColorMatrix type="matrix" values="0 0 0 0 0 0 0 0 0 0 0 0 0 0 0 0 0 0 0.251 0"/>
<feBlend mode="normal" in2="BackgroundImageFix" result="effect1_dropShadow_1646_18601"/>
<feBlend mode="normal" in="SourceGraphic" in2="effect1_dropShadow_1646_18601" result="shape"/>
</filter>
<filter id="filter1_d_1646_18601" x="10.3436" y="10.6864" width="32.3148" height="32.3143" filterUnits="userSpaceOnUse" color-interpolation-filters="sRGB">
<feFlood flood-opacity="0" result="BackgroundImageFix"/>
<feColorMatrix in="SourceAlpha" type="matrix" values="0 0 0 0 0 0 0 0 0 0 0 0 0 0 0 0 0 0 127 0" result="hardAlpha"/>
<feOffset dy="3.34286"/>
<feGaussianBlur stdDeviation="3.34286"/>
<feColorMatrix type="matrix" values="0 0 0 0 0 0 0 0 0 0 0 0 0 0 0 0 0 0 0.251 0"/>
<feBlend mode="normal" in2="BackgroundImageFix" result="effect1_dropShadow_1646_18601"/>
<feBlend mode="normal" in="SourceGraphic" in2="effect1_dropShadow_1646_18601" result="shape"/>
</filter>
</defs>
</svg>
