<svg width="15" height="14" viewBox="0 0 15 14" fill="none" xmlns="http://www.w3.org/2000/svg">
<path d="M12.833 10.3335C12.833 10.8639 12.6223 11.3726 12.2472 11.7477C11.8721 12.1228 11.3634 12.3335 10.833 12.3335C10.3111 12.3072 9.81747 12.0881 9.44794 11.7185C9.07841 11.349 8.85927 10.8554 8.833 10.3335C8.93966 9.26016 9.16633 8.20016 9.49966 7.1735C9.85966 6.0335 10.0797 4.86016 10.1663 3.66683C10.1434 2.79 9.78485 1.95541 9.16463 1.33519C8.54441 0.714972 7.70982 0.356422 6.833 0.333496C5.95617 0.356422 5.12158 0.714972 4.50136 1.33519C3.88114 1.95541 3.52259 2.79 3.49966 3.66683C3.59966 4.68683 3.833 5.68683 4.16633 6.66683L4.30633 7.1335C2.89966 6.68683 1.40633 7.46683 0.959662 8.86683C0.499662 10.2735 1.28633 11.7735 2.693 12.2202C4.09966 12.6668 5.593 11.8868 6.03966 10.4802C6.12633 10.2202 6.16633 9.94016 6.16633 9.66683C6.05966 8.5135 5.83299 7.3735 5.43966 6.28016C5.14432 5.43332 4.94093 4.55717 4.833 3.66683C4.85927 3.14489 5.07841 2.65131 5.44794 2.28178C5.81747 1.91225 6.31106 1.6931 6.833 1.66683C7.913 1.72016 8.77966 2.58683 8.833 3.66683C8.72463 4.74101 8.50113 5.80042 8.16633 6.82683C7.80633 7.96683 7.58633 9.14016 7.49966 10.3335C7.52259 11.2103 7.88114 12.0449 8.50136 12.6651C9.12158 13.2854 9.95617 13.6439 10.833 13.6668C11.7171 13.6668 12.5649 13.3156 13.19 12.6905C13.8151 12.0654 14.1663 11.2176 14.1663 10.3335H12.833ZM3.49966 11.0002C3.14604 11.0002 2.8069 10.8597 2.55685 10.6096C2.3068 10.3596 2.16633 10.0205 2.16633 9.66683C2.16633 9.31321 2.3068 8.97407 2.55685 8.72402C2.8069 8.47397 3.14604 8.3335 3.49966 8.3335C3.85328 8.3335 4.19242 8.47397 4.44247 8.72402C4.69252 8.97407 4.833 9.31321 4.833 9.66683C4.833 10.0205 4.69252 10.3596 4.44247 10.6096C4.19242 10.8597 3.85328 11.0002 3.49966 11.0002Z" fill="#8A8A8A"/>
</svg>
