<svg width="17" height="18" viewBox="0 0 17 18" fill="none" xmlns="http://www.w3.org/2000/svg">
<path fill-rule="evenodd" clip-rule="evenodd" d="M8.49961 2.49971C5.68296 2.49971 3.39961 4.78306 3.39961 7.59971C3.39961 8.02773 3.54762 8.59157 3.85672 9.27193C4.16069 9.941 4.59197 10.6615 5.09004 11.3852C6.08612 12.8325 7.29859 14.2201 8.1417 15.1298C8.34107 15.3449 8.65815 15.3449 8.85752 15.1298C9.70063 14.2201 10.9131 12.8325 11.9092 11.3852C12.4072 10.6615 12.8385 9.941 13.1425 9.27193C13.4516 8.59157 13.5996 8.02773 13.5996 7.59971C13.5996 4.78306 11.3163 2.49971 8.49961 2.49971ZM1.59961 7.59971C1.59961 3.78894 4.68884 0.699707 8.49961 0.699707C12.3104 0.699707 15.3996 3.78894 15.3996 7.59971C15.3996 8.39487 15.1389 9.22947 14.7813 10.0165C14.4186 10.8148 13.9254 11.6305 13.3919 12.4056C12.325 13.9559 11.0465 15.416 10.1777 16.3534C9.266 17.3371 7.73322 17.3371 6.82152 16.3534C5.95277 15.416 4.67423 13.9559 3.60727 12.4056C3.07383 11.6305 2.58059 10.8148 2.21792 10.0165C1.86037 9.22947 1.59961 8.39487 1.59961 7.59971ZM8.50059 5.49971C7.61693 5.49971 6.90059 6.21605 6.90059 7.09971C6.90059 7.98336 7.61693 8.69971 8.50059 8.69971C9.38424 8.69971 10.1006 7.98336 10.1006 7.09971C10.1006 6.21605 9.38424 5.49971 8.50059 5.49971ZM5.10059 7.09971C5.10059 5.22194 6.62282 3.69971 8.50059 3.69971C10.3784 3.69971 11.9006 5.22194 11.9006 7.09971C11.9006 8.97748 10.3784 10.4997 8.50059 10.4997C6.62282 10.4997 5.10059 8.97748 5.10059 7.09971Z" fill="#8A8A8A"/>
<circle cx="8.5" cy="7.09961" r="2.5" stroke="#8A8A8A" stroke-width="1.5"/>
</svg>
