<svg width="183" height="174" viewBox="0 0 183 174" fill="none" xmlns="http://www.w3.org/2000/svg">
<path d="M58.8125 12.5701C67.0721 9.79437 75.7289 8.38323 84.4425 8.39213V88.8861L58.8125 12.5701Z" fill="#FFDC5E" stroke="white" stroke-width="2" stroke-linecap="round" stroke-linejoin="bevel"/>
<path d="M64.2153 28.5293C57.9146 30.6525 51.9877 33.755 46.6523 37.7224L84.6523 88.8864L64.2153 28.5293Z" fill="#FED03F" stroke="white" stroke-width="2" stroke-linecap="round" stroke-linejoin="bevel"/>
<path d="M8.65234 35.4374C14.3511 27.3397 21.3051 20.2031 29.2523 14.2964L84.6523 88.8864L8.65234 35.4374Z" fill="#FEBF00" stroke="white" stroke-width="2" stroke-linecap="round" stroke-linejoin="bevel"/>
<path d="M22.666 69.9323C24.656 63.381 27.6791 57.1895 31.621 51.5913L84.6511 88.8864L22.666 69.9323Z" fill="#F2CE4A" stroke="white" stroke-width="2" stroke-linecap="round" stroke-linejoin="bevel"/>
<path d="M13.8126 67.208C11.7039 74.1687 10.6358 81.4028 10.6426 88.6759H84.6516L13.8126 67.208Z" fill="#D15151" stroke="white" stroke-width="2" stroke-linecap="round" stroke-linejoin="bevel"/>
<path d="M8.65324 115.228C5.66828 106.694 4.14851 97.7171 4.15825 88.6763L84.6523 88.8862L8.65324 115.228Z" fill="#A22718" stroke="white" stroke-width="2" stroke-linecap="round" stroke-linejoin="bevel"/>
<path d="M13.9466 140.699C8.74025 133.665 4.62028 125.888 1.72461 117.629L84.6516 88.8862L13.9466 140.699Z" fill="#801515" stroke="white" stroke-width="2" stroke-linecap="round" stroke-linejoin="bevel"/>
<path d="M53.5711 132.868C48.8108 129.524 44.6202 125.434 41.1602 120.757L84.6511 88.8862L53.5711 132.868Z" fill="#DD2222" stroke="white" stroke-width="2" stroke-linecap="round" stroke-linejoin="bevel"/>
<path d="M74.462 121.651C71.0241 120.595 67.7743 119.003 64.832 116.934L84.652 88.8872L74.462 121.651Z" fill="#FE4343" stroke="white" stroke-width="2" stroke-linecap="round" stroke-linejoin="bevel"/>
<path d="M61.498 163.335C68.9346 165.615 76.67 166.77 84.4481 166.762L84.648 88.8862L61.498 163.335Z" fill="#AF1717" stroke="white" stroke-width="2" stroke-linecap="round" stroke-linejoin="bevel"/>
<path d="M110.491 164.783C102.232 167.559 93.5749 168.97 84.8613 168.961V88.4673L110.491 164.783Z" fill="#449822" stroke="white" stroke-width="2" stroke-linecap="round" stroke-linejoin="bevel"/>
<path d="M113.028 172.274C121.777 169.326 130.007 165.018 137.415 159.509L84.6523 88.4673L113.028 172.274Z" fill="#155332" stroke="white" stroke-width="2" stroke-linecap="round" stroke-linejoin="bevel"/>
<path d="M132.699 122.258C129.096 127.377 124.7 131.889 119.675 135.623L84.6523 88.4673L132.699 122.258Z" fill="#87C867" stroke="white" stroke-width="2" stroke-linecap="round" stroke-linejoin="bevel"/>
<path d="M150.566 108.622C148.45 115.588 145.235 122.17 141.043 128.122L84.6523 88.4673L150.566 108.622Z" fill="#1E6D43" stroke="white" stroke-width="2" stroke-linecap="round" stroke-linejoin="bevel"/>
<path d="M161.698 112.025C163.992 104.455 165.154 96.5866 165.146 88.6763H84.6523L161.698 112.025Z" fill="#A5A2A2" stroke="white" stroke-width="2" stroke-linecap="round" stroke-linejoin="bevel"/>
<path d="M176.39 56.626C179.993 66.9269 181.828 77.7631 181.816 88.676L84.6523 88.423L176.39 56.626Z" fill="#656565" stroke="white" stroke-width="2" stroke-linecap="round" stroke-linejoin="bevel"/>
<path d="M149.452 40.9819C154.223 47.4286 157.999 54.5555 160.652 62.124L84.6523 88.4659L149.452 40.9819Z" fill="#A5A2A2" stroke="white" stroke-width="2" stroke-linecap="round" stroke-linejoin="bevel"/>
<path d="M130.959 22.937C138.052 27.9204 144.295 34.0135 149.45 40.9821L84.6504 88.4661L130.959 22.937Z" fill="#A5A2A2" stroke="white" stroke-width="2" stroke-linecap="round" stroke-linejoin="bevel"/>
<path d="M104.457 24.7852C111.14 26.8387 117.456 29.9326 123.175 33.9531L84.6523 88.4662L104.457 24.7852Z" fill="#DDD8D8" stroke="white" stroke-width="2" stroke-linecap="round" stroke-linejoin="bevel"/>
<path d="M110.492 5.38114C102.193 2.83727 93.5606 1.54808 84.8804 1.55619L84.6523 88.4672L110.492 5.38114Z" fill="#9D9C9C" stroke="white" stroke-width="2" stroke-linecap="round" stroke-linejoin="bevel"/>
<path d="M83 107C92.3888 107 100 99.3888 100 90C100 80.6112 92.3888 73 83 73C73.6112 73 66 80.6112 66 90C66 99.3888 73.6112 107 83 107Z" fill="white"/>
<path d="M75.04 92.12C74.6267 92.12 74.2567 92.0567 73.93 91.93C73.6033 91.7967 73.3267 91.61 73.1 91.37C72.88 91.1233 72.71 90.83 72.59 90.49C72.4767 90.15 72.42 89.77 72.42 89.35C72.42 88.8633 72.4933 88.4033 72.64 87.97C72.7933 87.53 72.9867 87.1267 73.22 86.76C73.46 86.3867 73.7267 86.0533 74.02 85.76C74.32 85.4667 74.62 85.22 74.92 85.02H76.99C76.5633 85.3267 76.18 85.62 75.84 85.9C75.5 86.1733 75.2033 86.45 74.95 86.73C74.7033 87.01 74.4967 87.2967 74.33 87.59C74.17 87.8767 74.0567 88.1867 73.99 88.52L74.08 88.55C74.14 88.4167 74.21 88.2867 74.29 88.16C74.3767 88.0333 74.48 87.9233 74.6 87.83C74.7267 87.73 74.8733 87.65 75.04 87.59C75.2067 87.53 75.4 87.5 75.62 87.5C75.9067 87.5 76.1733 87.5533 76.42 87.66C76.6733 87.76 76.89 87.9033 77.07 88.09C77.2567 88.2767 77.4 88.5067 77.5 88.78C77.6067 89.0467 77.66 89.3433 77.66 89.67C77.66 90.03 77.5967 90.36 77.47 90.66C77.35 90.96 77.1733 91.22 76.94 91.44C76.7133 91.6533 76.44 91.82 76.12 91.94C75.8 92.06 75.44 92.12 75.04 92.12ZM75.04 90.95C75.3733 90.95 75.6333 90.86 75.82 90.68C76.0067 90.4933 76.1 90.23 76.1 89.89V89.71C76.1 89.37 76.0067 89.11 75.82 88.93C75.6333 88.7433 75.3733 88.65 75.04 88.65C74.7067 88.65 74.4467 88.7433 74.26 88.93C74.0733 89.11 73.98 89.37 73.98 89.71V89.89C73.98 90.23 74.0733 90.4933 74.26 90.68C74.4467 90.86 74.7067 90.95 75.04 90.95ZM80.9961 92.12C80.0828 92.12 79.4061 91.8033 78.9661 91.17C78.5261 90.5367 78.3061 89.65 78.3061 88.51C78.3061 87.37 78.5261 86.4833 78.9661 85.85C79.4061 85.2167 80.0828 84.9 80.9961 84.9C81.9094 84.9 82.5861 85.2167 83.0261 85.85C83.4661 86.4833 83.6861 87.37 83.6861 88.51C83.6861 89.65 83.4661 90.5367 83.0261 91.17C82.5861 91.8033 81.9094 92.12 80.9961 92.12ZM80.9961 90.85C81.3961 90.85 81.6728 90.7033 81.8261 90.41C81.9794 90.1167 82.0561 89.7033 82.0561 89.17V87.85C82.0561 87.3167 81.9794 86.9033 81.8261 86.61C81.6728 86.3167 81.3961 86.17 80.9961 86.17C80.5961 86.17 80.3194 86.3167 80.1661 86.61C80.0128 86.9033 79.9361 87.3167 79.9361 87.85V89.17C79.9361 89.7033 80.0128 90.1167 80.1661 90.41C80.3194 90.7033 80.5961 90.85 80.9961 90.85ZM85.7822 92L90.6222 85.02H91.9422L87.1022 92H85.7822ZM86.2922 88.86C85.7055 88.86 85.2589 88.6933 84.9522 88.36C84.6455 88.0267 84.4922 87.5333 84.4922 86.88C84.4922 86.2267 84.6455 85.7333 84.9522 85.4C85.2589 85.0667 85.7055 84.9 86.2922 84.9C86.8789 84.9 87.3255 85.0667 87.6322 85.4C87.9389 85.7333 88.0922 86.2267 88.0922 86.88C88.0922 87.5333 87.9389 88.0267 87.6322 88.36C87.3255 88.6933 86.8789 88.86 86.2922 88.86ZM86.2922 88C86.4655 88 86.5955 87.9333 86.6822 87.8C86.7689 87.66 86.8122 87.44 86.8122 87.14V86.62C86.8122 86.32 86.7689 86.1033 86.6822 85.97C86.5955 85.83 86.4655 85.76 86.2922 85.76C86.1189 85.76 85.9889 85.83 85.9022 85.97C85.8155 86.1033 85.7722 86.32 85.7722 86.62V87.14C85.7722 87.44 85.8155 87.66 85.9022 87.8C85.9889 87.9333 86.1189 88 86.2922 88ZM91.4322 92.12C90.8455 92.12 90.3989 91.9533 90.0922 91.62C89.7855 91.2867 89.6322 90.7933 89.6322 90.14C89.6322 89.4867 89.7855 88.9933 90.0922 88.66C90.3989 88.3267 90.8455 88.16 91.4322 88.16C92.0189 88.16 92.4655 88.3267 92.7722 88.66C93.0789 88.9933 93.2322 89.4867 93.2322 90.14C93.2322 90.7933 93.0789 91.2867 92.7722 91.62C92.4655 91.9533 92.0189 92.12 91.4322 92.12ZM91.4322 91.26C91.6055 91.26 91.7355 91.1933 91.8222 91.06C91.9089 90.92 91.9522 90.7 91.9522 90.4V89.88C91.9522 89.58 91.9089 89.3633 91.8222 89.23C91.7355 89.09 91.6055 89.02 91.4322 89.02C91.2589 89.02 91.1289 89.09 91.0422 89.23C90.9555 89.3633 90.9122 89.58 90.9122 89.88V90.4C90.9122 90.7 90.9555 90.92 91.0422 91.06C91.1289 91.1933 91.2589 91.26 91.4322 91.26Z" fill="black"/>
</svg>
