<svg width="17" height="16" viewBox="0 0 17 16" fill="none" xmlns="http://www.w3.org/2000/svg">
<path d="M12.3327 3.33317L12.3327 12.6665C12.3327 14.2798 11.446 15.1665 9.83268 15.1665L7.16602 15.1665C5.55268 15.1665 4.66602 14.2798 4.66602 12.6665L4.66602 3.33317C4.66602 1.71984 5.55268 0.833172 7.16602 0.833172L9.83268 0.833172C11.446 0.833172 12.3327 1.71984 12.3327 3.33317ZM5.66602 12.6665C5.66602 13.7198 6.11268 14.1665 7.16602 14.1665L9.83268 14.1665C10.886 14.1665 11.3327 13.7198 11.3327 12.6665L11.3327 3.33317C11.3327 2.27984 10.886 1.83317 9.83268 1.83317L7.16602 1.83317C6.11268 1.83317 5.66602 2.27984 5.66602 3.33317L5.66602 12.6665Z" fill="#8A8A8A"/>
<path d="M8.99935 4C8.99935 4.27333 8.77268 4.5 8.49935 4.5L5.16602 4.5C4.89268 4.5 4.66602 4.27333 4.66602 4C4.66602 3.72667 4.89268 3.5 5.16602 3.5L8.49935 3.5C8.77268 3.5 8.99935 3.72667 8.99935 4Z" fill="#8A8A8A"/>
<path d="M8.33268 12C8.33268 12.2733 8.10602 12.5 7.83268 12.5H5.16602C4.89268 12.5 4.66602 12.2733 4.66602 12C4.66602 11.7267 4.89268 11.5 5.16602 11.5H7.83268C8.10602 11.5 8.33268 11.7267 8.33268 12Z" fill="#8A8A8A"/>
<path d="M8.99935 9.3335C8.99935 9.6135 8.77268 9.8335 8.49268 9.8335L5.15935 9.80016C4.88602 9.80016 4.66602 9.5735 4.66602 9.30016C4.66602 9.30016 4.66602 9.30016 4.66602 9.2935C4.66602 9.02016 4.89268 8.7935 5.17268 8.80016L8.50602 8.8335C8.77935 8.8335 8.99935 9.06016 8.99935 9.3335Z" fill="#8A8A8A"/>
<path d="M7.66602 6.6665C7.66602 6.93984 7.43935 7.1665 7.16602 7.1665L5.16602 7.1665C4.89268 7.1665 4.66602 6.93984 4.66602 6.6665C4.66602 6.39317 4.89268 6.1665 5.16602 6.1665H7.16602C7.43935 6.1665 7.66602 6.39317 7.66602 6.6665Z" fill="#8A8A8A"/>
</svg>
