<svg width="50" height="50" viewBox="0 0 50 50" fill="none" xmlns="http://www.w3.org/2000/svg">
<path d="M28.4982 19.9601L25.7821 14.001L7 22.5624L18.9868 48.8571L19.0099 48.845V48.8571H39.6518V19.9601H28.4982ZM8.61294 23.4923L25.4275 15.8275L27.3114 19.9601H19.0109V46.3022L8.61294 23.4923Z" fill="white"/>
<path d="M35.4166 35.0042C35.4166 38.2177 32.8086 40.8258 29.595 40.8258C26.3815 40.8258 24.4196 37.589 24.4196 37.589M24.4196 37.589H27.051M24.4196 37.589V40.4998M23.7734 35.0042C23.7734 31.7907 26.3582 29.1826 29.595 29.1826C33.478 29.1826 35.4166 32.4194 35.4166 32.4194M35.4166 32.4194V29.5086M35.4166 32.4194H32.8319" stroke="#155332" stroke-width="1.74648" stroke-linecap="round" stroke-linejoin="round"/>
</svg>
