<svg width="27" height="28" viewBox="0 0 27 28" fill="none" xmlns="http://www.w3.org/2000/svg">
<g clip-path="url(#clip0_1646_18620)">
<path d="M5.70686 21.0497V7.00594C5.70686 6.85339 5.7331 6.70325 5.75381 6.55615L1.72788 7.86668C0.794038 8.16999 0.282039 9.18238 0.585436 10.1161L4.92699 23.4725C5.17138 24.2248 5.87663 24.7057 6.62964 24.7057C6.81128 24.7057 6.99641 24.6776 7.17797 24.6187L8.32015 24.2428C6.84145 23.9475 5.70686 22.6112 5.70686 21.0497Z" fill="white"/>
<path d="M8.6273 18.9545L12.9669 5.60095C13.0107 5.46599 13.0631 5.30264 13.1227 5.21338H8.94775C7.96588 5.21338 7.13281 6.02404 7.13281 7.00591V21.0497C7.13281 22.0315 7.96588 22.887 8.94775 22.887H10.3732C8.89178 22.173 8.11522 20.5306 8.6273 18.9545Z" fill="white"/>
<path d="M25.7449 7.8672L16.5765 4.8883C16.395 4.82921 16.2104 4.80127 16.0287 4.80127C15.2757 4.80127 14.5714 5.28212 14.327 6.03432L9.98741 19.3907C9.68401 20.3246 10.1998 21.3368 11.1336 21.6403L20.3018 24.6192C20.4834 24.6781 20.668 24.7062 20.8497 24.7062C21.6027 24.7062 22.307 24.2252 22.5514 23.473L26.8911 10.1167C27.1945 9.1829 26.6787 8.1705 25.7449 7.8672ZM17.175 18.31C12.8514 13.0598 15.3702 10.4507 16.9643 10.4578C18.3076 10.4642 18.8545 11.4275 19.0877 12.4186C19.8062 11.6295 20.8674 11.2952 21.958 12.0793C23.2522 13.0098 23.7581 16.6006 17.175 18.31Z" fill="white"/>
</g>
<defs>
<clipPath id="clip0_1646_18620">
<rect width="26.4804" height="26.4804" fill="white" transform="translate(0.5 0.811035)"/>
</clipPath>
</defs>
</svg>
