<svg width="17" height="16" viewBox="0 0 17 16" fill="none" xmlns="http://www.w3.org/2000/svg">
<path d="M11.9531 12.5C10.8131 12.5 9.45312 12.0667 9.45312 10V6C9.45312 3.93333 10.8131 3.5 11.9531 3.5C13.0931 3.5 14.4531 3.93333 14.4531 6V10C14.4531 12.0667 13.0931 12.5 11.9531 12.5ZM11.9531 4.5C10.8731 4.5 10.4531 4.92 10.4531 6V10C10.4531 11.08 10.8731 11.5 11.9531 11.5C13.0331 11.5 13.4531 11.08 13.4531 10V6C13.4531 4.92 13.0331 4.5 11.9531 4.5Z" fill="#8A8A8A"/>
<path d="M5.04688 12.5C3.90688 12.5 2.54688 12.0667 2.54688 10V6C2.54688 3.93333 3.90688 3.5 5.04688 3.5C6.18688 3.5 7.54688 3.93333 7.54688 6V10C7.54688 12.0667 6.18688 12.5 5.04688 12.5ZM5.04688 4.5C3.96688 4.5 3.54688 4.92 3.54688 6V10C3.54688 11.08 3.96688 11.5 5.04688 11.5C6.12688 11.5 6.54688 11.08 6.54688 10V6C6.54688 4.92 6.12688 4.5 5.04688 4.5Z" fill="#8A8A8A"/>
<path d="M9.95354 8.5H7.04687C6.77354 8.5 6.54688 8.27333 6.54688 8C6.54688 7.72667 6.77354 7.5 7.04687 7.5H9.95354C10.2269 7.5 10.4535 7.72667 10.4535 8C10.4535 8.27333 10.2335 8.5 9.95354 8.5Z" fill="#8A8A8A"/>
<path d="M15.5 10.1668C15.2267 10.1668 15 9.94016 15 9.66683V6.3335C15 6.06016 15.2267 5.8335 15.5 5.8335C15.7733 5.8335 16 6.06016 16 6.3335V9.66683C16 9.94016 15.7733 10.1668 15.5 10.1668Z" fill="#8A8A8A"/>
<path d="M1.5 10.1668C1.22667 10.1668 1 9.94016 1 9.66683V6.3335C1 6.06016 1.22667 5.8335 1.5 5.8335C1.77333 5.8335 2 6.06016 2 6.3335V9.66683C2 9.94016 1.77333 10.1668 1.5 10.1668Z" fill="#8A8A8A"/>
</svg>
