<svg width="19" height="19" viewBox="0 0 19 19" fill="none" xmlns="http://www.w3.org/2000/svg">
<path d="M11.7279 9.4953L18.5282 2.71079C18.826 2.41299 18.9933 2.00909 18.9933 1.58794C18.9933 1.16679 18.826 0.762894 18.5282 0.465098C18.2304 0.167301 17.8265 0 17.4054 0C16.9842 0 16.5803 0.167301 16.2825 0.465098L9.498 7.26542L2.71349 0.465098C2.41569 0.167301 2.01179 -3.1378e-09 1.59064 0C1.16949 3.1378e-09 0.765593 0.167301 0.467796 0.465098C0.17 0.762894 0.00269894 1.16679 0.00269894 1.58794C0.00269894 2.00909 0.17 2.41299 0.467796 2.71079L7.26812 9.4953L0.467796 16.2798C0.319568 16.4268 0.201916 16.6017 0.121626 16.7945C0.0413373 16.9872 0 17.1939 0 17.4027C0 17.6114 0.0413373 17.8181 0.121626 18.0108C0.201916 18.2036 0.319568 18.3785 0.467796 18.5255C0.614815 18.6737 0.789727 18.7914 0.982444 18.8717C1.17516 18.952 1.38187 18.9933 1.59064 18.9933C1.79941 18.9933 2.00612 18.952 2.19884 18.8717C2.39156 18.7914 2.56647 18.6737 2.71349 18.5255L9.498 11.7252L16.2825 18.5255C16.4295 18.6737 16.6044 18.7914 16.7972 18.8717C16.9899 18.952 17.1966 18.9933 17.4054 18.9933C17.6141 18.9933 17.8208 18.952 18.0135 18.8717C18.2063 18.7914 18.3812 18.6737 18.5282 18.5255C18.6764 18.3785 18.7941 18.2036 18.8744 18.0108C18.9547 17.8181 18.996 17.6114 18.996 17.4027C18.996 17.1939 18.9547 16.9872 18.8744 16.7945C18.7941 16.6017 18.6764 16.4268 18.5282 16.2798L11.7279 9.4953Z" fill="white"/>
</svg>
