<svg width="37" height="37" viewBox="0 0 37 37" fill="none" xmlns="http://www.w3.org/2000/svg">
<g clip-path="url(#clip0_1646_14992)">
<path d="M18.5596 36.6437C22.7627 36.6437 26.17 33.2364 26.17 29.0333C26.17 24.8301 22.7627 21.4229 18.5596 21.4229C14.3565 21.4229 10.9492 24.8301 10.9492 29.0333C10.9492 33.2364 14.3565 36.6437 18.5596 36.6437Z" fill="white"/>
<path d="M26.1696 29.0342C26.1696 33.2368 22.7618 36.6441 18.5586 36.6441L26.1696 29.0342Z" fill="white"/>
<path d="M22.8926 24.9872C22.8926 27.3807 20.9516 29.3222 18.5576 29.3222C16.1636 29.3222 14.2227 27.3807 14.2227 24.9872V4.56445C14.2227 2.16983 16.1636 0.229492 18.5576 0.229492C20.9516 0.229492 22.8926 2.16983 22.8926 4.56445V24.9872Z" fill="white"/>
<path d="M14.2227 15.0157V4.56445C14.2227 2.16983 16.1636 0.229492 18.5576 0.229492" fill="white"/>
<path d="M19.2107 28.6712C19.2107 29.0301 18.9194 29.3214 18.5604 29.3214C18.2015 29.3214 17.9102 29.0301 17.9102 28.6712V4.53992C17.9102 4.18096 18.2015 3.88965 18.5604 3.88965C18.9194 3.88965 19.2107 4.18096 19.2107 4.53992V28.6712Z" fill="#B23948"/>
<path d="M22.0267 8.17768C22.0267 8.25803 21.9614 8.32217 21.8822 8.32217H20.5332C20.4528 8.32217 20.3887 8.25803 20.3887 8.17768C20.3887 8.09734 20.4528 8.0332 20.5332 8.0332H21.8822C21.9614 8.0332 22.0267 8.09734 22.0267 8.17768Z" fill="white"/>
<path d="M22.025 9.2978C22.025 9.37815 21.9597 9.44228 21.8805 9.44228H21.6874C21.6071 9.44228 21.543 9.37815 21.543 9.2978C21.543 9.21745 21.6071 9.15332 21.6874 9.15332H21.8805C21.9597 9.15332 22.025 9.21753 22.025 9.2978Z" fill="white"/>
<path d="M22.0267 10.4892C22.0267 10.5696 21.9614 10.6337 21.8822 10.6337H20.5332C20.4528 10.6337 20.3887 10.5696 20.3887 10.4892C20.3887 10.4089 20.4528 10.3447 20.5332 10.3447H21.8822C21.9614 10.3447 22.0267 10.4089 22.0267 10.4892Z" fill="white"/>
<path d="M22.025 11.6103C22.025 11.6907 21.9597 11.7548 21.8805 11.7548H21.6874C21.6071 11.7548 21.543 11.6907 21.543 11.6103C21.543 11.53 21.6071 11.4658 21.6874 11.4658H21.8805C21.9597 11.4658 22.025 11.53 22.025 11.6103Z" fill="white"/>
<path d="M22.0267 12.8017C22.0267 12.8821 21.9614 12.9462 21.8822 12.9462H20.5332C20.4528 12.9462 20.3887 12.8821 20.3887 12.8017C20.3887 12.7214 20.4528 12.6572 20.5332 12.6572H21.8822C21.9614 12.6572 22.0267 12.7214 22.0267 12.8017Z" fill="white"/>
<path d="M22.025 13.9218C22.025 14.0022 21.9597 14.0663 21.8805 14.0663H21.6874C21.6071 14.0663 21.543 14.0022 21.543 13.9218C21.543 13.8415 21.6071 13.7773 21.6874 13.7773H21.8805C21.9597 13.7773 22.025 13.8415 22.025 13.9218Z" fill="white"/>
<path d="M22.0267 15.1132C22.0267 15.1936 21.9614 15.2577 21.8822 15.2577H20.5332C20.4528 15.2577 20.3887 15.1936 20.3887 15.1132C20.3887 15.0329 20.4528 14.9688 20.5332 14.9688H21.8822C21.9614 14.9688 22.0267 15.0329 22.0267 15.1132Z" fill="white"/>
<path d="M22.025 16.2343C22.025 16.3147 21.9597 16.3788 21.8805 16.3788H21.6874C21.6071 16.3788 21.543 16.3147 21.543 16.2343C21.543 16.154 21.6071 16.0898 21.6874 16.0898H21.8805C21.9597 16.0898 22.025 16.154 22.025 16.2343Z" fill="white"/>
<path d="M22.0267 17.4248C22.0267 17.5051 21.9614 17.5692 21.8822 17.5692H20.5332C20.4528 17.5692 20.3887 17.5051 20.3887 17.4248C20.3887 17.3444 20.4528 17.2803 20.5332 17.2803H21.8822C21.9614 17.2802 22.0267 17.3444 22.0267 17.4248Z" fill="white"/>
<path d="M22.025 18.5458C22.025 18.6262 21.9597 18.6903 21.8805 18.6903H21.6874C21.6071 18.6903 21.543 18.6262 21.543 18.5458C21.543 18.4655 21.6071 18.4014 21.6874 18.4014H21.8805C21.9597 18.4014 22.025 18.4655 22.025 18.5458Z" fill="white"/>
<path d="M22.0267 19.7373C22.0267 19.8176 21.9614 19.8817 21.8822 19.8817H20.5332C20.4528 19.8817 20.3887 19.8176 20.3887 19.7373C20.3887 19.6569 20.4528 19.5928 20.5332 19.5928H21.8822C21.9614 19.5928 22.0267 19.657 22.0267 19.7373Z" fill="white"/>
<path d="M22.025 20.8574C22.025 20.9377 21.9597 21.0019 21.8805 21.0019H21.6874C21.6071 21.0019 21.543 20.9377 21.543 20.8574C21.543 20.777 21.6071 20.7129 21.6874 20.7129H21.8805C21.9597 20.7129 22.025 20.777 22.025 20.8574Z" fill="white"/>
<path d="M18.5581 31.2001C19.7551 31.2001 20.7255 30.2297 20.7255 29.0327C20.7255 27.8356 19.7551 26.8652 18.5581 26.8652C17.361 26.8652 16.3906 27.8356 16.3906 29.0327C16.3906 30.2297 17.361 31.2001 18.5581 31.2001Z" fill="#C8192D"/>
<path d="M20.7255 29.0342C20.7255 30.2306 19.7551 31.2016 18.5581 31.2016C17.361 31.2016 16.3906 30.2306 16.3906 29.0342" fill="#C8192D"/>
</g>
<defs>
<clipPath id="clip0_1646_14992">
<rect width="36.4141" height="36.4141" fill="white" transform="translate(0.351562 0.228516)"/>
</clipPath>
</defs>
</svg>
