<svg width="29" height="29" viewBox="0 0 29 29" fill="none" xmlns="http://www.w3.org/2000/svg">
<path d="M22.922 26.5833H6.00537C2.38037 26.5833 2.38037 24.9521 2.38037 22.9583V21.75C2.38037 21.0854 2.92412 20.5417 3.5887 20.5417H25.3387C26.0033 20.5417 26.547 21.0854 26.547 21.75V22.9583C26.547 24.9521 26.547 26.5833 22.922 26.5833Z" stroke="#292D32" stroke-width="1.5" stroke-linecap="round" stroke-linejoin="round"/>
<path d="M25.0366 15.7083V20.5417H3.95117V15.7083C3.95117 11.0683 7.22576 7.18958 11.5878 6.25917C12.2403 6.11417 12.917 6.04167 13.6178 6.04167H15.3699C16.0708 6.04167 16.7595 6.11417 17.412 6.25917C21.7741 7.20167 25.0366 11.0683 25.0366 15.7083Z" stroke="#292D32" stroke-width="1.5" stroke-linecap="round" stroke-linejoin="round"/>
<path d="M17.5207 5.4375C17.5207 5.7275 17.4844 5.99333 17.4119 6.25917C16.7594 6.11417 16.0707 6.04167 15.3698 6.04167H13.6178C12.9169 6.04167 12.2403 6.11417 11.5878 6.25917C11.5153 5.99333 11.479 5.7275 11.479 5.4375C11.479 3.77 12.8323 2.41667 14.4998 2.41667C16.1673 2.41667 17.5207 3.77 17.5207 5.4375Z" stroke="#292D32" stroke-width="1.5" stroke-linecap="round" stroke-linejoin="round"/>
<path d="M18.125 13.2917H10.875" stroke="#292D32" stroke-width="1.5" stroke-linecap="round" stroke-linejoin="round"/>
</svg>
