<svg width="39" height="38" viewBox="0 0 39 38" fill="none" xmlns="http://www.w3.org/2000/svg">
<path d="M12.1875 5.9375H7.3125C6.6394 5.9375 6.09375 6.46916 6.09375 7.125V30.875C6.09375 31.5308 6.6394 32.0625 7.3125 32.0625H12.1875C12.8606 32.0625 13.4062 31.5308 13.4062 30.875V7.125C13.4062 6.46916 12.8606 5.9375 12.1875 5.9375Z" stroke="black" stroke-width="2" stroke-linecap="round" stroke-linejoin="round"/>
<path d="M6.09375 11.875H13.4062" stroke="black" stroke-width="2" stroke-linecap="round" stroke-linejoin="round"/>
<path d="M19.5 5.9375H14.625C13.9519 5.9375 13.4062 6.46916 13.4062 7.125V30.875C13.4062 31.5308 13.9519 32.0625 14.625 32.0625H19.5C20.1731 32.0625 20.7188 31.5308 20.7188 30.875V7.125C20.7188 6.46916 20.1731 5.9375 19.5 5.9375Z" stroke="black" stroke-width="2" stroke-linecap="round" stroke-linejoin="round"/>
<path d="M13.4062 26.125H20.7188" stroke="black" stroke-width="2" stroke-linecap="round" stroke-linejoin="round"/>
<path d="M26.742 5.54889L22.0132 6.78389C21.3603 6.95441 20.9729 7.60835 21.1479 8.24451L27.4854 31.282C27.6604 31.9182 28.3316 32.2957 28.9845 32.1251L33.7132 30.8901C34.3661 30.7196 34.7536 30.0657 34.5786 29.4295L28.2411 6.39201C28.066 5.75585 27.3949 5.37837 26.742 5.54889Z" stroke="black" stroke-width="2.00848" stroke-linecap="round" stroke-linejoin="round"/>
<path d="M26.0811 26.6L33.1498 24.7445" stroke="black" stroke-width="2" stroke-linecap="round" stroke-linejoin="round"/>
<path d="M22.3032 12.825L29.372 10.9844" stroke="black" stroke-width="2" stroke-linecap="round" stroke-linejoin="round"/>
</svg>
