<svg width="38" height="42" viewBox="0 0 38 42" fill="none" xmlns="http://www.w3.org/2000/svg">
<g filter="url(#filter0_d_1412_14960)">
<path d="M19 33.25C26.8701 33.25 33.25 26.8701 33.25 19C33.25 11.1299 26.8701 4.75 19 4.75C11.1299 4.75 4.75 11.1299 4.75 19C4.75 26.8701 11.1299 33.25 19 33.25Z" stroke="black" stroke-width="1.5" stroke-linecap="round" stroke-linejoin="round"/>
<path d="M26.5851 16.0758C24.2343 14.8733 21.6311 14.2474 18.9907 14.25C16.3502 14.2526 13.7483 14.8835 11.3999 16.0906" stroke="black" stroke-width="1.5" stroke-linecap="round" stroke-linejoin="round"/>
<path d="M24.3881 20.2914C22.7163 19.4403 20.8665 18.9978 18.9906 19.0004C17.1147 19.003 15.2661 19.4505 13.5967 20.3062" stroke="black" stroke-width="1.5" stroke-linecap="round" stroke-linejoin="round"/>
<path d="M22.1916 24.507C21.2025 24.0063 20.1088 23.7468 19.0002 23.75C17.8874 23.7522 16.7902 24.0113 15.7939 24.507" stroke="black" stroke-width="1.5" stroke-linecap="round" stroke-linejoin="round"/>
</g>
<defs>
<filter id="filter0_d_1412_14960" x="-4" y="0" width="46" height="46" filterUnits="userSpaceOnUse" color-interpolation-filters="sRGB">
<feFlood flood-opacity="0" result="BackgroundImageFix"/>
<feColorMatrix in="SourceAlpha" type="matrix" values="0 0 0 0 0 0 0 0 0 0 0 0 0 0 0 0 0 0 127 0" result="hardAlpha"/>
<feOffset dy="4"/>
<feGaussianBlur stdDeviation="2"/>
<feComposite in2="hardAlpha" operator="out"/>
<feColorMatrix type="matrix" values="0 0 0 0 0 0 0 0 0 0 0 0 0 0 0 0 0 0 0.25 0"/>
<feBlend mode="normal" in2="BackgroundImageFix" result="effect1_dropShadow_1412_14960"/>
<feBlend mode="normal" in="SourceGraphic" in2="effect1_dropShadow_1412_14960" result="shape"/>
</filter>
</defs>
</svg>
