<svg width="38" height="38" viewBox="0 0 38 38" fill="none" xmlns="http://www.w3.org/2000/svg">
<path d="M19 26.125V34.4375" stroke="black" stroke-width="1.5" stroke-linecap="round" stroke-linejoin="round"/>
<path d="M13.0625 34.4375H24.9375" stroke="black" stroke-width="1.5" stroke-linecap="round" stroke-linejoin="round"/>
<path d="M11.8749 3.5625H26.1249L29.9992 16.6695C30.238 17.4906 30.1748 18.37 29.821 19.1484C28.8802 21.2301 27.3589 22.9962 25.4396 24.235C23.5202 25.4738 21.2843 26.1327 18.9999 26.1327C16.7156 26.1327 14.4796 25.4738 12.5603 24.235C10.641 22.9962 9.11969 21.2301 8.17885 19.1484C7.82513 18.37 7.76194 17.4906 8.00073 16.6695L11.8749 3.5625Z" stroke="black" stroke-width="1.5" stroke-linecap="round" stroke-linejoin="round"/>
<path d="M8.53516 14.8883C10.1086 14.0422 13.7602 12.825 19 15.4375C24.5812 18.2281 28.3664 16.6547 29.7469 15.8383" stroke="black" stroke-width="1.5" stroke-linecap="round" stroke-linejoin="round"/>
</svg>
