<svg width="39" height="39" viewBox="0 0 39 39" fill="none" xmlns="http://www.w3.org/2000/svg">
<path d="M15.2344 19.5C16.244 19.5 17.0625 18.6815 17.0625 17.6719C17.0625 16.6622 16.244 15.8438 15.2344 15.8438C14.2247 15.8438 13.4062 16.6622 13.4062 17.6719C13.4062 18.6815 14.2247 19.5 15.2344 19.5Z" fill="black"/>
<path d="M23.7656 19.5C24.7753 19.5 25.5938 18.6815 25.5938 17.6719C25.5938 16.6622 24.7753 15.8438 23.7656 15.8438C22.756 15.8438 21.9375 16.6622 21.9375 17.6719C21.9375 18.6815 22.756 19.5 23.7656 19.5Z" fill="black"/>
<path d="M32.9062 32.9062L28.4426 29.25L23.9637 32.9062L19.5 29.25L15.0363 32.9062L10.5574 29.25L6.09375 32.9062V18.2812C6.09375 14.7257 7.50619 11.3158 10.0203 8.8016C12.5345 6.28744 15.9444 4.875 19.5 4.875C23.0556 4.875 26.4655 6.28744 28.9797 8.8016C31.4938 11.3158 32.9062 14.7257 32.9062 18.2812V32.9062Z" stroke="black" stroke-width="2" stroke-linecap="round" stroke-linejoin="round"/>
</svg>
