<svg width="38" height="39" viewBox="0 0 38 39" fill="none" xmlns="http://www.w3.org/2000/svg">
<path d="M22.5625 16.4531H27.3125" stroke="black" stroke-width="2" stroke-linecap="round" stroke-linejoin="round"/>
<path d="M10.6875 16.4531H15.4375" stroke="black" stroke-width="2" stroke-linecap="round" stroke-linejoin="round"/>
<path d="M13.0625 14.0156V18.8906" stroke="black" stroke-width="2" stroke-linecap="round" stroke-linejoin="round"/>
<path d="M25.5313 8.48555L12.4688 8.53125C10.6545 8.5348 8.89915 9.19288 7.50983 10.3904C6.12051 11.5879 5.18565 13.2486 4.86876 15.082V15.082L2.43439 27.8941C2.27808 28.7888 2.40433 29.7114 2.79474 30.5273C3.18515 31.3432 3.81929 32.0098 4.60472 32.4298C5.39014 32.8499 6.28576 33.0014 7.16101 32.8624C8.03625 32.7234 8.84535 32.3011 9.47032 31.657V31.657L15.8828 24.375L25.5313 24.3293C27.5784 24.3293 29.5417 23.4947 30.9892 22.009C32.4368 20.5234 33.25 18.5084 33.25 16.4074C33.25 14.3064 32.4368 12.2915 30.9892 10.8058C29.5417 9.32017 27.5784 8.48555 25.5313 8.48555V8.48555Z" stroke="black" stroke-width="2" stroke-linecap="round" stroke-linejoin="round"/>
<path d="M33.1313 15.0363L35.5656 27.8941C35.7219 28.7888 35.5957 29.7114 35.2053 30.5273C34.8149 31.3432 34.1807 32.0098 33.3953 32.4298C32.6099 32.8499 31.7142 33.0014 30.839 32.8624C29.9638 32.7234 29.1547 32.3011 28.5297 31.657V31.657L22.1172 24.3445" stroke="black" stroke-width="2" stroke-linecap="round" stroke-linejoin="round"/>
</svg>
