<svg width="38" height="38" viewBox="0 0 38 38" fill="none" xmlns="http://www.w3.org/2000/svg">
<path d="M5.62564 30.8602L13.6116 8.87656C13.6799 8.68845 13.7947 8.52066 13.9453 8.3888C14.0959 8.25694 14.2774 8.16527 14.4728 8.12233C14.6683 8.07938 14.8715 8.08654 15.0635 8.14314C15.2555 8.19975 15.43 8.30396 15.571 8.44609L29.5538 22.4289C29.6959 22.5698 29.8001 22.7444 29.8567 22.9364C29.9133 23.1283 29.9205 23.3315 29.8775 23.527C29.8346 23.7225 29.7429 23.904 29.6111 24.0545C29.4792 24.2051 29.3114 24.3199 29.1233 24.3883L7.1397 32.3742C6.9282 32.4551 6.69782 32.473 6.47638 32.4257C6.25494 32.3785 6.05191 32.2682 5.8918 32.1081C5.7317 31.9479 5.62137 31.7449 5.57414 31.5235C5.52691 31.302 5.54479 31.0717 5.62564 30.8602V30.8602Z" stroke="black" stroke-width="2" stroke-linecap="round" stroke-linejoin="round"/>
<path d="M24.9375 10.6875C24.9375 10.6875 24.9375 7.125 28.5 7.125C32.0625 7.125 32.0625 3.5625 32.0625 3.5625" stroke="black" stroke-width="2" stroke-linecap="round" stroke-linejoin="round"/>
<path d="M15.1998 29.45L8.5498 22.8" stroke="black" stroke-width="2" stroke-linecap="round" stroke-linejoin="round"/>
<path d="M21.375 2.375V5.9375" stroke="black" stroke-width="2" stroke-linecap="round" stroke-linejoin="round"/>
<path d="M32.0625 16.625L34.4375 19" stroke="black" stroke-width="2" stroke-linecap="round" stroke-linejoin="round"/>
<path d="M32.0625 11.875L35.625 10.6875" stroke="black" stroke-width="2" stroke-linecap="round" stroke-linejoin="round"/>
<path d="M11.3999 14.9625L23.0374 26.6" stroke="black" stroke-width="2" stroke-linecap="round" stroke-linejoin="round"/>
</svg>
