<svg width="28" height="29" viewBox="0 0 28 29" fill="none" xmlns="http://www.w3.org/2000/svg">
<path d="M20.0435 21.75C22.8435 21.75 23.5435 20.1188 23.5435 18.125V10.875C23.5435 8.88125 22.8435 7.25 20.0435 7.25C17.2435 7.25 16.5435 8.88125 16.5435 10.875V18.125C16.5435 20.1188 17.2435 21.75 20.0435 21.75Z" stroke="#292D32" stroke-width="1.5" stroke-linecap="round" stroke-linejoin="round"/>
<path d="M7.95654 21.75C5.15654 21.75 4.45654 20.1188 4.45654 18.125V10.875C4.45654 8.88125 5.15654 7.25 7.95654 7.25C10.7565 7.25 11.4565 8.88125 11.4565 10.875V18.125C11.4565 20.1188 10.7565 21.75 7.95654 21.75Z" stroke="#292D32" stroke-width="1.5" stroke-linecap="round" stroke-linejoin="round"/>
<path d="M11.4565 14.5H16.5432" stroke="#292D32" stroke-width="1.5" stroke-linecap="round" stroke-linejoin="round"/>
<path d="M26.25 17.5208V11.4792" stroke="#292D32" stroke-width="1.5" stroke-linecap="round" stroke-linejoin="round"/>
<path d="M1.75 17.5208V11.4792" stroke="#292D32" stroke-width="1.5" stroke-linecap="round" stroke-linejoin="round"/>
</svg>
