<svg width="22" height="35" viewBox="0 0 22 35" fill="none" xmlns="http://www.w3.org/2000/svg">
<path d="M11.6293 17.4582C11.3762 17.5134 11.114 17.5134 10.8609 17.4582C8.20339 16.878 5.8211 15.7351 4.13446 14.0518H18.3558C16.6691 15.7351 14.2868 16.878 11.6293 17.4582Z" fill="black"/>
<path d="M4.13446 14.0518C5.8211 15.7351 8.20339 16.878 10.8609 17.4582C11.114 17.5134 11.3762 17.5134 11.6293 17.4582C14.2868 16.878 16.6691 15.7351 18.3558 14.0518M4.13446 14.0518C2.54332 12.4639 1.57129 10.395 1.57129 7.86392V3.33334C1.57129 2.22877 2.46672 1.33334 3.57129 1.33334H18.9189C20.0235 1.33334 20.9189 2.22876 20.9189 3.33333V7.86392C20.9189 10.395 19.9469 12.4639 18.3558 14.0518M4.13446 14.0518H18.3558" stroke="black" stroke-width="2"/>
<path d="M1.57129 31.7422C1.5713 32.8467 2.46673 33.7422 3.57129 33.7422H18.919C20.0235 33.7422 20.919 32.8467 20.919 31.7422V31.6832L11.8848 28.6338C11.4698 28.4938 11.0204 28.4938 10.6055 28.6338L1.57129 31.6832L1.57129 31.7422Z" fill="black"/>
<path d="M1.57129 31.6832L1.57129 31.7422C1.5713 32.8467 2.46673 33.7422 3.57129 33.7422H18.919C20.0235 33.7422 20.919 32.8467 20.919 31.7422V31.6832M1.57129 31.6832L10.6055 28.6338C11.0204 28.4938 11.4698 28.4938 11.8848 28.6338L20.919 31.6832M1.57129 31.6832L1.5713 27.2116C1.5713 21.9976 5.69623 18.7449 10.8608 17.6174C11.1138 17.5621 11.3764 17.5621 11.6295 17.6174C16.794 18.7449 20.919 21.9976 20.919 27.2116V31.6832" stroke="black" stroke-width="2"/>
<circle cx="11.2454" cy="21.6403" r="1.20635" fill="black"/>
<circle cx="11.2454" cy="25.2593" r="1.20635" fill="black"/>
</svg>
