<svg width="39" height="38" viewBox="0 0 39 38" fill="none" xmlns="http://www.w3.org/2000/svg">
<path d="M24.9844 10.6875C26.6671 10.6875 28.0312 9.35835 28.0312 7.71875C28.0312 6.07915 26.6671 4.75 24.9844 4.75C23.3016 4.75 21.9375 6.07915 21.9375 7.71875C21.9375 9.35835 23.3016 10.6875 24.9844 10.6875Z" stroke="black" stroke-width="2" stroke-linecap="round" stroke-linejoin="round"/>
<path d="M1.21875 29.6875L12.3551 11.2367C12.4655 11.0617 12.6201 10.9172 12.8041 10.817C12.9881 10.7168 13.1954 10.6642 13.4062 10.6642C13.6171 10.6642 13.8244 10.7168 14.0084 10.817C14.1924 10.9172 14.347 11.0617 14.4574 11.2367L25.5938 29.6875H1.21875Z" stroke="black" stroke-width="2" stroke-linecap="round" stroke-linejoin="round"/>
<path d="M7.67822 19H19.1345" stroke="black" stroke-width="2" stroke-linecap="round" stroke-linejoin="round"/>
<path d="M21.9526 23.6609L26.98 15.3781C27.0904 15.2031 27.245 15.0586 27.429 14.9584C27.613 14.8582 27.8203 14.8055 28.0312 14.8055C28.242 14.8055 28.4493 14.8582 28.6333 14.9584C28.8173 15.0586 28.9719 15.2031 29.0823 15.3781L37.7812 29.6875H25.5937" stroke="black" stroke-width="2" stroke-linecap="round" stroke-linejoin="round"/>
</svg>
