<svg width="21" height="23" viewBox="0 0 21 23" fill="none" xmlns="http://www.w3.org/2000/svg">
<path d="M2.47537 15.1699L2.96765 15.2574C3.00256 15.061 2.91741 14.8627 2.75099 14.7527L2.47537 15.1699ZM5.95242 21.5385L6.35209 21.238C6.25765 21.1124 6.10961 21.0385 5.95242 21.0385C5.79524 21.0385 5.6472 21.1124 5.55275 21.238L5.95242 21.5385ZM9.42946 15.1698L9.15382 14.7527C8.98741 14.8626 8.90227 15.061 8.93718 15.2574L9.42946 15.1698ZM10.7777 12.6667L11.2777 12.6664C11.2776 12.3904 11.0538 12.1667 10.7777 12.1667C10.5017 12.1667 10.2779 12.3904 10.2777 12.6664L10.7777 12.6667ZM12.1262 15.1698L12.6185 15.2573C12.6534 15.0609 12.5682 14.8626 12.4018 14.7526L12.1262 15.1698ZM15.6038 21.5377L16.0036 21.2374C15.9092 21.1117 15.7611 21.0377 15.6038 21.0377C15.4465 21.0377 15.2984 21.1117 15.204 21.2374L15.6038 21.5377ZM19.0813 15.169L18.8055 14.752C18.6391 14.862 18.554 15.0604 18.589 15.2567L19.0813 15.169ZM10.7777 8.62306L10.2777 8.62335C10.2779 8.89939 10.5017 9.12307 10.7778 9.12306C11.0538 9.12306 11.2776 8.89936 11.2777 8.62333L10.7777 8.62306ZM8.32214 3.09064C8.32214 4.12367 7.33081 5.07812 5.95294 5.07812V6.07812C7.7443 6.07812 9.32214 4.80521 9.32214 3.09064H8.32214ZM5.95294 1.10315C7.33081 1.10315 8.32214 2.05761 8.32214 3.09064H9.32214C9.32214 1.37606 7.7443 0.103149 5.95294 0.103149V1.10315ZM3.58374 3.09064C3.58374 2.05761 4.57507 1.10315 5.95294 1.10315V0.103149C4.16158 0.103149 2.58374 1.37606 2.58374 3.09064H3.58374ZM5.95294 5.07812C4.57507 5.07812 3.58374 4.12367 3.58374 3.09064H2.58374C2.58374 4.80521 4.16158 6.07812 5.95294 6.07812V5.07812ZM1.62695 8.62485C1.62695 7.24413 2.74624 6.12484 4.12695 6.12484V5.12484C2.19396 5.12484 0.626953 6.69185 0.626953 8.62485H1.62695ZM1.62695 12.6651V8.62485H0.626953V12.6651H1.62695ZM2.75099 14.7527C2.07268 14.3046 1.62695 13.5368 1.62695 12.6651H0.626953C0.626953 13.8866 1.25316 14.9617 2.19975 15.5871L2.75099 14.7527ZM2.94522 15.5132C2.94522 15.4256 2.95295 15.3401 2.96765 15.2574L1.98308 15.0824C1.95816 15.2226 1.94522 15.3666 1.94522 15.5132H2.94522ZM2.94522 20.3687V15.5132H1.94522V20.3687H2.94522ZM4.39383 21.8173C3.59378 21.8173 2.94522 21.1688 2.94522 20.3687H1.94522C1.94522 21.721 3.0415 22.8173 4.39383 22.8173V21.8173ZM5.55275 21.238C5.2876 21.5908 4.86724 21.8173 4.39383 21.8173V22.8173C5.19492 22.8173 5.90618 22.4321 6.35209 21.8389L5.55275 21.238ZM7.51102 21.8173C7.0376 21.8173 6.61725 21.5908 6.35209 21.238L5.55275 21.8389C5.99866 22.4321 6.70992 22.8173 7.51102 22.8173V21.8173ZM8.95962 20.3687C8.95962 21.1688 8.31106 21.8173 7.51102 21.8173V22.8173C8.86335 22.8173 9.95962 21.721 9.95962 20.3687H8.95962ZM8.95962 15.5132V20.3687H9.95962V15.5132H8.95962ZM8.93718 15.2574C8.95189 15.3401 8.95962 15.4255 8.95962 15.5132H9.95962C9.95962 15.3666 9.94667 15.2225 9.92174 15.0823L8.93718 15.2574ZM10.2777 12.6664C10.2773 13.5375 9.83171 14.3048 9.15382 14.7527L9.7051 15.587C10.6511 14.9619 11.2771 13.8877 11.2777 12.667L10.2777 12.6664ZM12.4018 14.7526C11.7239 14.3047 11.2783 13.5375 11.2777 12.6664L10.2777 12.667C10.2785 13.8877 10.9045 14.9619 11.8506 15.587L12.4018 14.7526ZM12.596 15.5132C12.596 15.4255 12.6038 15.3401 12.6185 15.2573L11.6339 15.0823C11.609 15.2225 11.596 15.3666 11.596 15.5132H12.596ZM12.596 20.3687V15.5132H11.596V20.3687H12.596ZM14.0446 21.8173C13.2446 21.8173 12.596 21.1688 12.596 20.3687H11.596C11.596 21.721 12.6923 22.8173 14.0446 22.8173V21.8173ZM15.204 21.2374C14.9389 21.5905 14.5183 21.8173 14.0446 21.8173V22.8173C14.8462 22.8173 15.5578 22.4317 16.0036 21.8379L15.204 21.2374ZM17.163 21.8173C16.6893 21.8173 16.2688 21.5905 16.0036 21.2374L15.204 21.8379C15.6499 22.4317 16.3615 22.8173 17.163 22.8173V21.8173ZM18.6116 20.3687C18.6116 21.1688 17.963 21.8173 17.163 21.8173V22.8173C18.5153 22.8173 19.6116 21.721 19.6116 20.3687H18.6116ZM18.6116 15.5132V20.3687H19.6116V15.5132H18.6116ZM18.589 15.2567C18.6038 15.3397 18.6116 15.4253 18.6116 15.5132H19.6116C19.6116 15.3662 19.5986 15.2218 19.5735 15.0813L18.589 15.2567ZM19.9285 12.6649C19.9285 13.5362 19.4832 14.3037 18.8055 14.752L19.3571 15.5861C20.3029 14.9605 20.9285 13.8859 20.9285 12.6649H19.9285ZM19.9285 8.6247V12.6649H20.9285V8.6247H19.9285ZM17.4285 6.1247C18.8092 6.1247 19.9285 7.24398 19.9285 8.6247H20.9285C20.9285 6.6917 19.3615 5.1247 17.4285 5.1247V6.1247ZM13.7777 6.1247H17.4285V5.1247H13.7777V6.1247ZM11.2777 8.62333C11.2785 7.24325 12.3975 6.1247 13.7777 6.1247V5.1247C11.8454 5.1247 10.2788 6.69067 10.2777 8.6228L11.2777 8.62333ZM7.77775 6.12484C9.15796 6.12484 10.2769 7.24333 10.2777 8.62335L11.2777 8.62277C11.2766 6.69072 9.71005 5.12484 7.77775 5.12484V6.12484ZM4.12695 6.12484H7.77775V5.12484H4.12695V6.12484ZM15.6037 6.07812C17.3951 6.07812 18.9729 4.80521 18.9729 3.09064H17.9729C17.9729 4.12366 16.9816 5.07812 15.6037 5.07812V6.07812ZM12.2345 3.09064C12.2345 4.80521 13.8124 6.07812 15.6037 6.07812V5.07812C14.2259 5.07812 13.2345 4.12367 13.2345 3.09064H12.2345ZM15.6037 0.103149C13.8124 0.103149 12.2345 1.37606 12.2345 3.09064H13.2345C13.2345 2.05761 14.2259 1.10315 15.6037 1.10315V0.103149ZM18.9729 3.09064C18.9729 1.37606 17.3951 0.103149 15.6037 0.103149V1.10315C16.9816 1.10315 17.9729 2.05761 17.9729 3.09064H18.9729Z" fill="black"/>
</svg>
