<svg width="29" height="29" viewBox="0 0 29 29" fill="none" xmlns="http://www.w3.org/2000/svg">
<path d="M17.672 7.2498C16.1664 7.24948 14.6788 7.57597 13.3118 8.20672C11.9448 8.83748 10.731 9.75746 9.75422 10.9031C9.65765 10.6876 9.55779 10.4733 9.45261 10.2609L10.0966 5.16293C10.1639 4.63039 10.117 4.08963 9.95923 3.57657C9.80142 3.06352 9.53621 2.58993 9.18125 2.18728C8.82628 1.78463 8.38968 1.46214 7.90046 1.24124C7.41124 1.02034 6.88061 0.906097 6.34383 0.906097C5.80706 0.906097 5.27643 1.02034 4.78721 1.24124C4.29799 1.46214 3.86139 1.78463 3.50642 2.18728C3.15145 2.58993 2.88625 3.06352 2.72843 3.57657C2.57062 4.08963 2.52381 4.63039 2.59111 5.16293L3.23506 10.2609C1.14588 14.4831 0.765329 19.3482 2.17259 23.8439L3.50291 28.0935H9.18476L10.1816 24.91C11.1517 25.9173 12.3151 26.7185 13.6022 27.2655C14.8892 27.8126 16.2735 28.0942 17.672 28.0935C23.4186 28.0935 28.0938 23.4183 28.0938 17.6717C28.0938 11.925 23.4186 7.2498 17.672 7.2498ZM4.86608 3.38578C5.14468 3.06965 5.5173 2.85118 5.92923 2.76245C6.34116 2.67372 6.77068 2.71941 7.15473 2.8928C7.53877 3.0662 7.8571 3.35817 8.06296 3.72583C8.26883 4.09349 8.35138 4.51748 8.2985 4.93552L7.71986 9.51543H4.96781L4.38933 4.93552C4.35436 4.65817 4.37878 4.37655 4.46098 4.10936C4.54317 3.84217 4.68126 3.59552 4.86608 3.38578ZM8.78505 23.3024L7.85291 26.281H4.83476L3.90262 23.3024C2.65457 19.3496 2.95133 15.0706 4.73309 11.3279H7.95458C8.16528 11.7726 8.3555 12.2234 8.52523 12.6804C7.6404 14.2988 7.20177 16.1234 7.25431 17.9671C7.30684 19.8108 7.84864 21.6074 8.82418 23.1728C8.81104 23.216 8.79881 23.2593 8.78505 23.3024ZM17.672 26.281C12.9247 26.281 9.06258 22.4189 9.06258 17.6717C9.06258 12.9245 12.9247 9.0623 17.672 9.0623C22.4192 9.0623 26.2813 12.9245 26.2813 17.6717C26.2813 22.4189 22.4192 26.281 17.672 26.281Z" fill="black"/>
<path d="M17.6719 14.0469C18.4226 14.0469 19.0312 13.4383 19.0312 12.6875C19.0312 11.9367 18.4226 11.3281 17.6719 11.3281C16.9211 11.3281 16.3125 11.9367 16.3125 12.6875C16.3125 13.4383 16.9211 14.0469 17.6719 14.0469Z" fill="black"/>
<path d="M21.75 16.7656C22.5008 16.7656 23.1094 16.157 23.1094 15.4062C23.1094 14.6555 22.5008 14.0469 21.75 14.0469C20.9992 14.0469 20.3906 14.6555 20.3906 15.4062C20.3906 16.157 20.9992 16.7656 21.75 16.7656Z" fill="black"/>
<path d="M17.2188 18.5781C17.9695 18.5781 18.5781 17.9695 18.5781 17.2188C18.5781 16.468 17.9695 15.8594 17.2188 15.8594C16.468 15.8594 15.8594 16.468 15.8594 17.2188C15.8594 17.9695 16.468 18.5781 17.2188 18.5781Z" fill="black"/>
</svg>
