<svg width="29" height="29" viewBox="0 0 29 29" fill="none" xmlns="http://www.w3.org/2000/svg">
<g clip-path="url(#clip0_1412_15014)">
<path d="M28.0507 15.1566L25.2088 2.32702C25.1044 1.85794 24.8181 1.44946 24.4128 1.19118C24.0075 0.932908 23.5164 0.845936 23.0471 0.949348L10.2176 3.79123C9.98517 3.84271 9.76518 3.93946 9.57017 4.07596C9.37516 4.21246 9.20895 4.38603 9.08102 4.58677C8.9531 4.78751 8.86597 5.01149 8.8246 5.2459C8.78324 5.48032 8.78846 5.72058 8.83996 5.95298L10.0306 11.3282H2.71875C2.23821 11.3287 1.77751 11.5198 1.43771 11.8596C1.09792 12.1994 0.90679 12.6601 0.90625 13.1407V26.2813C0.90679 26.7618 1.09792 27.2225 1.43771 27.5623C1.77751 27.9021 2.23821 28.0933 2.71875 28.0938H15.8594C16.3399 28.0933 16.8006 27.9021 17.1404 27.5623C17.4802 27.2225 17.6713 26.7618 17.6719 26.2813V19.3121L26.673 17.3183C27.1421 17.2139 27.5506 16.9276 27.8088 16.5223C28.0671 16.1171 28.1541 15.6259 28.0507 15.1566ZM15.8594 26.2813H2.71875V13.1407H10.4321L11.6818 18.7824C11.771 19.1846 11.9945 19.5445 12.3155 19.8028C12.6365 20.0611 13.0358 20.2025 13.4478 20.2036C13.5809 20.2036 13.7135 20.1889 13.8434 20.1601L15.8598 19.7134L15.8605 26.2813H15.8594ZM26.2812 15.5486L13.4514 18.3905L10.6096 5.5608L23.4393 2.7188L26.2822 15.5482L26.2812 15.5486Z" fill="black"/>
<path d="M6.79688 14.9531H4.53125V17.2188H6.79688V14.9531Z" fill="black"/>
<path d="M6.79688 22.2031H4.53125V24.4688H6.79688V22.2031Z" fill="black"/>
<path d="M14.0469 22.2031H11.7812V24.4688H14.0469V22.2031Z" fill="black"/>
<path d="M10.4219 18.5781H8.15625V20.8438H10.4219V18.5781Z" fill="black"/>
<path d="M14.9821 6.45245L12.77 6.94205L13.2596 9.15414L15.4717 8.66454L14.9821 6.45245Z" fill="black"/>
<path d="M23.6295 11.9593L21.4175 12.4492L21.9074 14.6613L24.1194 14.1713L23.6295 11.9593Z" fill="black"/>
<path d="M19.3062 9.20337L17.0942 9.69336L17.5842 11.9054L19.7962 11.4154L19.3062 9.20337Z" fill="black"/>
</g>
<defs>
<clipPath id="clip0_1412_15014">
<rect width="29" height="29" fill="white"/>
</clipPath>
</defs>
</svg>
