<svg width="39" height="38" viewBox="0 0 39 38" fill="none" xmlns="http://www.w3.org/2000/svg">
<path d="M25.5938 22.5625C30.9785 22.5625 35.3438 18.3092 35.3438 13.0625C35.3438 7.81579 30.9785 3.5625 25.5938 3.5625C20.209 3.5625 15.8438 7.81579 15.8438 13.0625C15.8438 18.3092 20.209 22.5625 25.5938 22.5625Z" stroke="black" stroke-width="2" stroke-linecap="round" stroke-linejoin="round"/>
<path d="M32.4947 19.7867L18.6924 6.33829" stroke="black" stroke-width="2" stroke-linecap="round" stroke-linejoin="round"/>
<path d="M15.2344 23.1562L13.4062 24.9375" stroke="black" stroke-width="2" stroke-linecap="round" stroke-linejoin="round"/>
<path d="M15.9656 14.532L4.28082 30.0586C4.10517 30.2864 4.02067 30.5688 4.0431 30.8529C4.06553 31.137 4.19335 31.4034 4.40269 31.6024L6.56597 33.7102C6.77017 33.9141 7.04361 34.0387 7.33519 34.0605C7.62676 34.0824 7.91653 34.0001 8.15035 33.8289L24.0855 22.4438" stroke="black" stroke-width="2" stroke-linecap="round" stroke-linejoin="round"/>
</svg>
