<svg width="29" height="29" viewBox="0 0 29 29" fill="none" xmlns="http://www.w3.org/2000/svg">
<g clip-path="url(#clip0_1412_15010)">
<path d="M6.51416 0.00452197L12.2534 16.2699V16.2608L12.7066 17.5396C15.2314 24.6808 16.5862 28.5088 16.5908 28.5133C16.5953 28.5133 16.9777 28.5369 17.4408 28.565C18.8383 28.6221 20.5701 28.7825 21.8823 28.9375C22.1841 28.9755 22.4442 28.9846 22.4633 28.9755L16.2473 11.3462L13.3165 3.06765C12.7646 1.49621 12.2924 0.160397 12.2688 0.107834L12.2308 -0.000915527H6.5196L6.51416 0.00452197ZM16.7938 0.0144907L16.7793 6.4244L16.7702 12.8388L16.2418 11.3471L15.5622 25.6161C16.2328 27.5092 16.5908 28.5188 16.5962 28.5233C16.6016 28.5278 16.9832 28.5559 17.4408 28.575C18.8428 28.6366 20.5701 28.7925 21.8869 28.9529C22.1887 28.9855 22.4533 29 22.4678 28.9855C22.4868 28.9764 22.4913 22.4387 22.4913 14.4764L22.4823 0.0144907H16.7938ZM6.51416 0.00452197V14.49C6.51416 22.4578 6.52322 28.9855 6.53319 28.9946C6.54316 29.0036 7.03344 28.9565 7.62794 28.8903C8.21791 28.8151 9.03897 28.7299 9.4495 28.6964C10.0775 28.6348 11.9508 28.5124 12.1683 28.5124C12.2299 28.5124 12.2344 28.1871 12.2435 22.3762L12.2525 16.2355L12.7102 17.5196L12.8706 17.9727L13.5593 3.7138L13.3283 3.05315L12.2281 0.00361572L6.51416 0.00452197Z" fill="black"/>
</g>
<defs>
<clipPath id="clip0_1412_15010">
<rect width="29" height="29" fill="white"/>
</clipPath>
</defs>
</svg>
