<svg width="29" height="29" viewBox="0 0 29 29" fill="none" xmlns="http://www.w3.org/2000/svg">
<path d="M21.4578 19.373C19.2222 18.5682 16.2685 18.125 13.1406 18.125C11.6241 18.1214 10.1095 18.2311 8.60938 18.4531V11.9601L17.2188 8.78819V6.62843L8.60938 2.59561V0.90625H6.79688V23.5625H8.60938V20.2867C10.108 20.0494 11.6233 19.9326 13.1406 19.9375C16.0645 19.9375 18.8002 20.3427 20.8438 21.0784C22.8505 21.801 23.5625 22.624 23.5625 23.1094C23.5625 23.5948 22.8505 24.4178 20.8438 25.1403C18.8002 25.8761 16.0645 26.2812 13.1406 26.2812C10.2168 26.2812 7.48104 25.8761 5.4375 25.1403C3.43072 24.4178 2.71875 23.5948 2.71875 23.1094C2.71875 22.6625 3.32305 21.9294 4.98438 21.2522V19.3165C4.93045 19.3352 4.87676 19.3539 4.82346 19.3731C1.58594 20.5386 0.90625 22.0482 0.90625 23.1094C0.90625 24.1705 1.58594 25.6802 4.82346 26.8457C7.05901 27.6505 10.0128 28.0938 13.1406 28.0938C16.2685 28.0938 19.2222 27.6505 21.4578 26.8457C24.6953 25.6802 25.375 24.1705 25.375 23.1094C25.375 22.0482 24.6953 20.5386 21.4578 19.373ZM8.60938 4.59712L15.0996 7.63731L8.60938 10.0284V4.59712Z" fill="black"/>
<path d="M24.4688 17.6719C25.4698 17.6719 26.2812 16.8604 26.2812 15.8594C26.2812 14.8584 25.4698 14.0469 24.4688 14.0469C23.4677 14.0469 22.6562 14.8584 22.6562 15.8594C22.6562 16.8604 23.4677 17.6719 24.4688 17.6719Z" fill="black"/>
</svg>
