<svg width="31" height="27" viewBox="0 0 31 27" fill="none" xmlns="http://www.w3.org/2000/svg">
<path fill-rule="evenodd" clip-rule="evenodd" d="M13.5943 2.76545C10.3974 0.0715187 5.62189 0.479255 2.92796 3.67615C2.42303 4.27536 2.36652 5.0103 2.59717 5.63482L1.5593 6.67269C1.16878 7.06321 1.16878 7.69637 1.5593 8.0869C1.94983 8.47742 2.58299 8.47742 2.97352 8.0869L3.93036 7.13006L5.35668 8.33198L4.66256 9.0261C4.27203 9.41662 4.27203 10.0498 4.66256 10.4403C5.05308 10.8308 5.68625 10.8308 6.07677 10.4403L6.88528 9.6318L8.65554 11.1532C9.84446 12.175 9.12185 14.1243 7.55427 14.1243H7.16057V13.0745C7.16057 12.5222 6.71286 12.0745 6.16057 12.0745C5.60829 12.0745 5.16057 12.5222 5.16057 13.0745V14.1243H2.57141V13.0745C2.57141 12.5222 2.1237 12.0745 1.57141 12.0745C1.01913 12.0745 0.571411 12.5222 0.571411 13.0745V15.0849C0.550292 15.3593 0.539551 15.6364 0.539551 15.9158C0.539551 17.8699 2.12364 19.454 4.07771 19.454H12.3513V23.5487C12.3513 24.9313 13.4721 26.0521 14.8547 26.0521C16.2373 26.0521 17.3581 24.9313 17.3581 23.5487V21.9884C17.5741 22.0078 17.7927 22.0177 18.0134 22.0177H22.4374V23.5487C22.4374 24.9313 23.5582 26.0521 24.9408 26.0521C26.3234 26.0521 27.4442 24.9313 27.4442 23.5487V20.8937C29.4738 19.6074 30.8238 17.34 30.8238 14.7559C30.8238 10.7453 27.5726 7.49415 23.562 7.49415H23.2262C23.1215 7.24372 22.9758 7.00315 22.8016 6.77427C22.3688 6.20535 21.8126 5.85884 21.1842 5.74661C20.5827 5.6392 20.0083 5.76249 19.5306 5.95197C19.1854 6.08889 18.8565 6.2738 18.5553 6.47926C17.9643 5.52456 16.9074 4.88859 15.702 4.88859C15.5838 4.88859 15.4669 4.89475 15.3515 4.90677C14.9149 4.11206 14.3275 3.38332 13.5943 2.76545ZM4.07771 17.454C3.29891 17.454 2.6553 16.8752 2.55356 16.1243H6.16057H7.55427C10.9775 16.1243 12.5551 11.8676 9.95916 9.6364L9.95913 9.63638L7.48562 7.51062L7.48565 7.51059L7.47822 7.50433L4.51694 5.00895C4.50044 4.99504 4.48864 4.97991 4.48082 4.96586C4.4768 4.95864 4.47415 4.95229 4.47242 4.94713C6.45727 2.61119 9.95918 2.3177 12.3055 4.29484C13.0204 4.89729 13.5442 5.63884 13.8731 6.44558C13.9737 6.69228 14.1685 6.88865 14.4144 6.99112C14.6604 7.09359 14.937 7.09369 15.183 6.99139C15.3415 6.92548 15.5162 6.88859 15.702 6.88859C16.4495 6.88859 17.0554 7.49453 17.0554 8.242C17.0554 8.65737 17.3122 9.0295 17.7006 9.17691C18.0889 9.32432 18.5279 9.21632 18.8036 8.90557C19.1598 8.50391 19.7303 8.02435 20.268 7.81108C20.5275 7.70817 20.7121 7.69396 20.8326 7.71546C20.926 7.73216 21.0545 7.78097 21.21 7.98531C21.3546 8.17536 21.3927 8.28725 21.4027 8.33069C21.3971 8.33704 21.3892 8.34539 21.3781 8.35583C21.3067 8.42304 21.1692 8.50939 20.9596 8.58889C20.7576 8.66555 20.5385 8.71691 20.3534 8.74298C19.8066 8.82 19.4257 9.32578 19.5027 9.87267C19.5797 10.4196 20.0855 10.8005 20.6324 10.7234C21.2011 10.6433 22.1227 10.4018 22.7491 9.812C22.8486 9.71831 22.944 9.61231 23.0298 9.49415H23.562C26.468 9.49415 28.8238 11.8499 28.8238 14.7559C28.8238 16.7871 27.673 18.5513 25.9833 19.4289C25.6521 19.601 25.4442 19.9431 25.4442 20.3164V23.5487C25.4442 23.8267 25.2188 24.0521 24.9408 24.0521C24.6628 24.0521 24.4374 23.8267 24.4374 23.5487V21.0177C24.4374 20.4654 23.9897 20.0177 23.4374 20.0177H18.0134C17.5303 20.0177 17.0639 19.9528 16.6218 19.8319C16.3211 19.7497 15.9992 19.8125 15.7513 20.0016C15.5035 20.1908 15.3581 20.4847 15.3581 20.7965V23.5487C15.3581 23.8267 15.1327 24.0521 14.8547 24.0521C14.5767 24.0521 14.3513 23.8267 14.3513 23.5487V19.0149C14.3513 19.006 14.3515 18.9972 14.3519 18.9884C14.3652 18.7248 14.2736 18.4666 14.0972 18.2701C13.9803 18.14 13.8699 18.004 13.7663 17.8628C13.578 17.6058 13.2784 17.454 12.9598 17.454H4.07771ZM14.4049 11.4043C15.2452 11.4043 15.9265 10.7231 15.9265 9.88269C15.9265 9.04233 15.2452 8.36108 14.4049 8.36108C13.5645 8.36108 12.8832 9.04233 12.8832 9.88269C12.8832 10.7231 13.5645 11.4043 14.4049 11.4043Z" fill="black"/>
</svg>
