<svg width="38" height="9" viewBox="0 0 38 9" fill="none" xmlns="http://www.w3.org/2000/svg">
<path d="M8.15887 1.05V8H7.01887V3.24L4.89887 8H4.10887L1.97887 3.24V8H0.838867V1.05H2.06887L4.50887 6.5L6.93887 1.05H8.15887ZM12.0472 8.09C11.5272 8.09 11.0572 7.97333 10.6372 7.74C10.2172 7.5 9.88723 7.16667 9.64723 6.74C9.40723 6.30667 9.28723 5.80667 9.28723 5.24C9.28723 4.68 9.41056 4.18333 9.65723 3.75C9.90389 3.31667 10.2406 2.98333 10.6672 2.75C11.0939 2.51667 11.5706 2.4 12.0972 2.4C12.6239 2.4 13.1006 2.51667 13.5272 2.75C13.9539 2.98333 14.2906 3.31667 14.5372 3.75C14.7839 4.18333 14.9072 4.68 14.9072 5.24C14.9072 5.8 14.7806 6.29667 14.5272 6.73C14.2739 7.16333 13.9272 7.5 13.4872 7.74C13.0539 7.97333 12.5739 8.09 12.0472 8.09ZM12.0472 7.1C12.3406 7.1 12.6139 7.03 12.8672 6.89C13.1272 6.75 13.3372 6.54 13.4972 6.26C13.6572 5.98 13.7372 5.64 13.7372 5.24C13.7372 4.84 13.6606 4.50333 13.5072 4.23C13.3539 3.95 13.1506 3.74 12.8972 3.6C12.6439 3.46 12.3706 3.39 12.0772 3.39C11.7839 3.39 11.5106 3.46 11.2572 3.6C11.0106 3.74 10.8139 3.95 10.6672 4.23C10.5206 4.50333 10.4472 4.84 10.4472 5.24C10.4472 5.83333 10.5972 6.29333 10.8972 6.62C11.2039 6.94 11.5872 7.1 12.0472 7.1ZM17.1742 3.29C17.3408 3.01 17.5608 2.79333 17.8342 2.64C18.1142 2.48 18.4442 2.4 18.8242 2.4V3.58H18.5342C18.0875 3.58 17.7475 3.69333 17.5142 3.92C17.2875 4.14667 17.1742 4.54 17.1742 5.1V8H16.0342V2.49H17.1742V3.29ZM24.9221 5.11C24.9221 5.31667 24.9087 5.50333 24.8821 5.67H20.6721C20.7054 6.11 20.8687 6.46333 21.1621 6.73C21.4554 6.99667 21.8154 7.13 22.2421 7.13C22.8554 7.13 23.2887 6.87333 23.5421 6.36H24.7721C24.6054 6.86667 24.3021 7.28333 23.8621 7.61C23.4287 7.93 22.8887 8.09 22.2421 8.09C21.7154 8.09 21.2421 7.97333 20.8221 7.74C20.4087 7.5 20.0821 7.16667 19.8421 6.74C19.6087 6.30667 19.4921 5.80667 19.4921 5.24C19.4921 4.67333 19.6054 4.17667 19.8321 3.75C20.0654 3.31667 20.3887 2.98333 20.8021 2.75C21.2221 2.51667 21.7021 2.4 22.2421 2.4C22.7621 2.4 23.2254 2.51333 23.6321 2.74C24.0387 2.96667 24.3554 3.28667 24.5821 3.7C24.8087 4.10667 24.9221 4.57667 24.9221 5.11ZM23.7321 4.75C23.7254 4.33 23.5754 3.99333 23.2821 3.74C22.9887 3.48667 22.6254 3.36 22.1921 3.36C21.7987 3.36 21.4621 3.48667 21.1821 3.74C20.9021 3.98667 20.7354 4.32333 20.6821 4.75H23.7321ZM26.5039 8.07C26.2973 8.07 26.1239 8 25.9839 7.86C25.8439 7.72 25.7739 7.54667 25.7739 7.34C25.7739 7.13333 25.8439 6.96 25.9839 6.82C26.1239 6.68 26.2973 6.61 26.5039 6.61C26.7039 6.61 26.8739 6.68 27.0139 6.82C27.1539 6.96 27.2239 7.13333 27.2239 7.34C27.2239 7.54667 27.1539 7.72 27.0139 7.86C26.8739 8 26.7039 8.07 26.5039 8.07ZM28.9161 8.07C28.7094 8.07 28.5361 8 28.3961 7.86C28.2561 7.72 28.1861 7.54667 28.1861 7.34C28.1861 7.13333 28.2561 6.96 28.3961 6.82C28.5361 6.68 28.7094 6.61 28.9161 6.61C29.1161 6.61 29.2861 6.68 29.4261 6.82C29.5661 6.96 29.6361 7.13333 29.6361 7.34C29.6361 7.54667 29.5661 7.72 29.4261 7.86C29.2861 8 29.1161 8.07 28.9161 8.07ZM31.3282 8.07C31.1215 8.07 30.9482 8 30.8082 7.86C30.6682 7.72 30.5982 7.54667 30.5982 7.34C30.5982 7.13333 30.6682 6.96 30.8082 6.82C30.9482 6.68 31.1215 6.61 31.3282 6.61C31.5282 6.61 31.6982 6.68 31.8382 6.82C31.9782 6.96 32.0482 7.13333 32.0482 7.34C32.0482 7.54667 31.9782 7.72 31.8382 7.86C31.6982 8 31.5282 8.07 31.3282 8.07ZM35.1503 0.95C35.8303 0.95 36.3736 1.13667 36.7803 1.51C37.1936 1.88333 37.4003 2.39333 37.4003 3.04C37.4003 3.71333 37.1869 4.22 36.7603 4.56C36.3336 4.9 35.7669 5.07 35.0603 5.07L35.0203 5.86H34.0303L33.9803 4.29H34.3103C34.9569 4.29 35.4503 4.20333 35.7903 4.03C36.1369 3.85667 36.3103 3.52667 36.3103 3.04C36.3103 2.68667 36.2069 2.41 36.0003 2.21C35.8003 2.01 35.5203 1.91 35.1603 1.91C34.8003 1.91 34.5169 2.00667 34.3103 2.2C34.1036 2.39333 34.0003 2.66333 34.0003 3.01H32.9303C32.9303 2.61 33.0203 2.25333 33.2003 1.94C33.3803 1.62667 33.6369 1.38333 33.9703 1.21C34.3103 1.03667 34.7036 0.95 35.1503 0.95ZM34.5103 8.07C34.3036 8.07 34.1303 8 33.9903 7.86C33.8503 7.72 33.7803 7.54667 33.7803 7.34C33.7803 7.13333 33.8503 6.96 33.9903 6.82C34.1303 6.68 34.3036 6.61 34.5103 6.61C34.7103 6.61 34.8803 6.68 35.0203 6.82C35.1603 6.96 35.2303 7.13333 35.2303 7.34C35.2303 7.54667 35.1603 7.72 35.0203 7.86C34.8803 8 34.7103 8.07 34.5103 8.07Z" fill="#1E1E1E"/>
</svg>
