<svg width="39" height="38" viewBox="0 0 39 38" fill="none" xmlns="http://www.w3.org/2000/svg">
<path d="M6.09375 16.625H32.9062V29.6875C32.9062 30.0024 32.7778 30.3045 32.5493 30.5272C32.3207 30.7499 32.0107 30.875 31.6875 30.875H7.3125C6.98927 30.875 6.67927 30.7499 6.45071 30.5272C6.22215 30.3045 6.09375 30.0024 6.09375 29.6875V16.625Z" stroke="black" stroke-width="2" stroke-linecap="round" stroke-linejoin="round"/>
<path d="M6.09371 16.625L31.9921 9.85625L30.7277 5.26953C30.6872 5.11858 30.6161 4.97702 30.5187 4.85316C30.4213 4.72931 30.2995 4.62563 30.1605 4.54822C30.0214 4.4708 29.8679 4.4212 29.709 4.40232C29.55 4.38345 29.3888 4.39567 29.2347 4.43828L5.69762 10.5836C5.54239 10.6233 5.39674 10.6924 5.26902 10.7871C5.14129 10.8817 5.03401 11 4.95333 11.1352C4.87264 11.2704 4.82015 11.4197 4.79886 11.5747C4.77757 11.7297 4.7879 11.8872 4.82926 12.0383L6.09371 16.625Z" stroke="black" stroke-width="2" stroke-linecap="round" stroke-linejoin="round"/>
<path d="M19.8198 6.8875L27.2847 11.0883" stroke="black" stroke-width="2" stroke-linecap="round" stroke-linejoin="round"/>
<path d="M9.23193 9.66328L16.6815 13.8641" stroke="black" stroke-width="2" stroke-linecap="round" stroke-linejoin="round"/>
</svg>
