<svg width="38" height="35" viewBox="0 0 38 35" fill="none" xmlns="http://www.w3.org/2000/svg">
<path d="M25.6353 26.5397V31.8174" stroke="black" stroke-width="1.5" stroke-linecap="round" stroke-linejoin="round"/>
<path d="M21.8652 31.8174H29.4049" stroke="black" stroke-width="1.5" stroke-linecap="round" stroke-linejoin="round"/>
<path d="M21.1112 12.2143H30.1588L32.6187 20.5362C32.7703 21.0575 32.7302 21.6158 32.5056 22.1101C31.9082 23.4318 30.9423 24.5531 29.7237 25.3397C28.5051 26.1262 27.0854 26.5445 25.635 26.5445C24.1846 26.5445 22.765 26.1262 21.5464 25.3397C20.3278 24.5531 19.3619 23.4318 18.7645 22.1101C18.5399 21.6158 18.4998 21.0575 18.6514 20.5362L21.1112 12.2143Z" stroke="black" stroke-width="1.5" stroke-linecap="round" stroke-linejoin="round"/>
<path d="M18.9907 19.4052C19.9897 18.868 22.3082 18.0952 25.6351 19.754C29.1787 21.5258 31.582 20.5268 32.4585 20.0084" stroke="black" stroke-width="1.5" stroke-linecap="round" stroke-linejoin="round"/>
<g clip-path="url(#clip0_1412_14954)">
<path d="M18.4769 3.58491C17.1935 6.78491 13.9769 11.1349 11.2852 13.2932L9.64352 14.6099C9.43519 14.7599 9.22686 14.8932 8.99352 14.9849C8.99352 14.8349 8.98519 14.6682 8.96019 14.5099C8.86852 13.8099 8.55186 13.1599 7.99352 12.6016C7.42686 12.0349 6.73519 11.7016 6.02686 11.6099C5.86019 11.6016 5.69352 11.5849 5.52686 11.6016C5.61852 11.3432 5.76019 11.1016 5.93519 10.9016L7.23519 9.25991C9.38519 6.56824 13.7519 3.33491 16.9435 2.05991C17.4352 1.87658 17.9102 2.00991 18.2102 2.31824C18.5269 2.62658 18.6769 3.10158 18.4769 3.58491Z" stroke="#292D32" stroke-width="1.5" stroke-linecap="round" stroke-linejoin="round"/>
<path d="M8.99349 14.9849C8.99349 15.9016 8.64349 16.7766 7.98516 17.4432C7.47682 17.9516 6.78516 18.3016 5.96016 18.4099L3.91016 18.6349C2.79349 18.7599 1.83516 17.8099 1.96849 16.6766L2.19349 14.6266C2.39349 12.8016 3.91849 11.6349 5.53516 11.6016C5.70182 11.5932 5.87682 11.6016 6.03516 11.6099C6.74349 11.7016 7.43516 12.0266 8.00182 12.6016C8.56016 13.1599 8.87682 13.8099 8.96849 14.5099C8.97682 14.6682 8.99349 14.8266 8.99349 14.9849Z" stroke="#292D32" stroke-width="1.5" stroke-linecap="round" stroke-linejoin="round"/>
<path d="M12.1682 12.3599C12.1682 10.1849 10.4016 8.41824 8.22656 8.41824" stroke="#292D32" stroke-width="1.5" stroke-linecap="round" stroke-linejoin="round"/>
</g>
<defs>
<clipPath id="clip0_1412_14954">
<rect width="20" height="20" fill="white" transform="translate(0.301758 0.301575)"/>
</clipPath>
</defs>
</svg>
