<svg width="38" height="38" viewBox="0 0 38 38" fill="none" xmlns="http://www.w3.org/2000/svg">
<path d="M30.875 11.875C30.875 11.2451 30.6248 10.641 30.1794 10.1956C29.734 9.75022 29.1299 9.5 28.5 9.5H22.5625L30.875 23.75" stroke="black" stroke-width="1.5" stroke-linecap="round" stroke-linejoin="round"/>
<path d="M30.875 29.6875C34.1542 29.6875 36.8125 27.0292 36.8125 23.75C36.8125 20.4708 34.1542 17.8125 30.875 17.8125C27.5958 17.8125 24.9375 20.4708 24.9375 23.75C24.9375 27.0292 27.5958 29.6875 30.875 29.6875Z" stroke="black" stroke-width="1.5" stroke-linecap="round" stroke-linejoin="round"/>
<path d="M7.125 29.6875C10.4042 29.6875 13.0625 27.0292 13.0625 23.75C13.0625 20.4708 10.4042 17.8125 7.125 17.8125C3.84581 17.8125 1.1875 20.4708 1.1875 23.75C1.1875 27.0292 3.84581 29.6875 7.125 29.6875Z" stroke="black" stroke-width="1.5" stroke-linecap="round" stroke-linejoin="round"/>
<path d="M7.125 9.5H11.2812L19.5938 23.75" stroke="black" stroke-width="1.5" stroke-linecap="round" stroke-linejoin="round"/>
<path d="M25.2492 14.25H14.057L7.125 23.75" stroke="black" stroke-width="1.5" stroke-linecap="round" stroke-linejoin="round"/>
</svg>
